<?xml version="1.0" encoding="iso-8859-1"?>
<!-- Uploaded to: SVG Repo, www.svgrepo.com, Generator: SVG Repo Mixer Tools -->
<svg version="1.1" id="Layer_1" xmlns="http://www.w3.org/2000/svg" xmlns:xlink="http://www.w3.org/1999/xlink" 
	 viewBox="0 0 512 512" xml:space="preserve">
<rect x="125.735" y="89.163" style="fill:#F4B2B0;" width="150.948" height="57.367"/>
<path style="fill:#B3404A;" d="M276.677,160.868H125.729c-7.921,0-14.342-6.421-14.342-14.342V89.159
	c0-7.921,6.421-14.342,14.342-14.342h150.948c7.921,0,14.342,6.421,14.342,14.342v57.367
	C291.018,154.446,284.596,160.868,276.677,160.868z M140.071,132.184h122.264v-28.684H140.071V132.184z"/>
<rect x="125.735" y="227.318" style="fill:#F4B2B0;" width="260.548" height="57.367"/>
<g>
	<path style="fill:#B3404A;" d="M386.272,299.025H125.729c-7.921,0-14.342-6.421-14.342-14.342v-57.367
		c0-7.921,6.421-14.342,14.342-14.342h260.544c7.921,0,14.342,6.421,14.342,14.342v57.367
		C400.614,292.605,394.192,299.025,386.272,299.025z M140.071,270.342h231.86v-28.684h-231.86V270.342z"/>
	<path style="fill:#B3404A;" d="M386.272,437.185H125.729c-7.921,0-14.342-6.421-14.342-14.342v-57.367
		c0-7.921,6.421-14.342,14.342-14.342h260.544c7.921,0,14.342,6.421,14.342,14.342c0,7.921-6.421,14.342-14.342,14.342H140.071
		v28.684h246.202c7.921,0,14.342,6.421,14.342,14.342C400.614,430.764,394.192,437.185,386.272,437.185z"/>
</g>
<polygon style="fill:#F4B2B0;" points="337.748,14.342 333.923,14.342 333.923,120.949 452.067,120.949 "/>
<path style="fill:#B3404A;" d="M454.638,204.371c-7.921,0-14.342,6.421-14.342,14.342v264.604H71.703V28.684h247.878v92.265
	c0,7.921,6.421,14.342,14.342,14.342h118.144c5.892,0,11.184-3.604,13.344-9.086s0.747-11.727-3.563-15.746L347.529,3.852
	c-0.109-0.102-0.228-0.191-0.34-0.288c-0.169-0.148-0.337-0.295-0.513-0.435c-0.176-0.141-0.357-0.272-0.539-0.403
	c-0.191-0.138-0.38-0.274-0.578-0.403c-0.175-0.113-0.354-0.218-0.534-0.324c-0.217-0.129-0.435-0.255-0.658-0.373
	c-0.168-0.087-0.34-0.165-0.511-0.247c-0.242-0.115-0.485-0.229-0.736-0.33c-0.166-0.067-0.337-0.123-0.506-0.185
	c-0.26-0.093-0.518-0.188-0.783-0.267c-0.182-0.054-0.367-0.095-0.551-0.142c-0.257-0.065-0.511-0.135-0.773-0.185
	c-0.235-0.046-0.473-0.075-0.71-0.109c-0.217-0.032-0.43-0.072-0.65-0.092c-0.462-0.044-0.929-0.07-1.4-0.07h-3.825H57.362
	C49.441,0,43.02,6.421,43.02,14.342v483.316c0,7.921,6.421,14.342,14.342,14.342h397.277c7.921,0,14.342-6.421,14.342-14.342
	V218.713C468.98,210.792,462.559,204.371,454.638,204.371z M348.265,106.607V43.76l67.394,62.847H348.265z"/>
</svg>