<svg clip-rule="evenodd" fill-rule="evenodd" height="512" image-rendering="optimizeQuality" shape-rendering="geometricPrecision" text-rendering="geometricPrecision" viewBox="0 0 2833 2833" width="512" xmlns="http://www.w3.org/2000/svg" xmlns:xlink="http://www.w3.org/1999/xlink"><linearGradient id="id0" gradientUnits="userSpaceOnUse" x1="1416.67" x2="1416.67" y1="2833.33" y2="0"><stop offset="0" stop-color="#1aa8dc"/><stop offset=".490196" stop-color="#ae3b89"/><stop offset="1" stop-color="#f26270"/></linearGradient><g id="Layer_x0020_1"><circle cx="1417" cy="1417" fill="url(#id0)" r="1417"/><g id="_479252976"><g><path d="m2173 1873h-1513c-53 0-97-43-97-96v-1020c0-54 44-97 97-97h1513c54 0 97 43 97 97v1020c0 53-43 96-97 96zm-1513-1166c-27 0-50 23-50 50v1020c0 27 23 50 50 50h1513c27 0 50-23 50-50v-1020c0-27-23-50-50-50z" fill="#fff"/></g><g><path d="m1610 2173c-12 0-22-8-23-20l-40-300c-2-13 7-25 20-26 13-2 25 7 26 20l40 300c2 12-7 24-20 26-1 0-2 0-3 0zm-387 0c-1 0-2 0-3 0-12-2-21-13-20-26l40-300c2-13 14-22 27-20 12 1 21 13 20 26l-40 300c-2 12-12 20-24 20z" fill="#fff"/></g><g><path d="m1787 2173h-740c-13 0-24-10-24-23s11-23 24-23h740c13 0 23 10 23 23s-10 23-23 23z" fill="#fff"/></g><g><path d="m2247 1687h-1660c-13 0-24-11-24-24s11-23 24-23h1660c13 0 23 10 23 23s-10 24-23 24z" fill="#fff"/></g><g><path d="m2147 1527h-1460c-13 0-24-11-24-24s11-23 24-23h1460c13 0 23 10 23 23s-10 24-23 24z" fill="#fff"/></g><g><path d="m910 1527c-13 0-23-11-23-24v-643h-90v643c0 13-11 24-24 24s-23-11-23-24v-666c0-13 10-24 23-24h137c13 0 23 11 23 24v666c0 13-10 24-23 24z" fill="#fff"/></g><g><path d="m910 1413h-137c-13 0-23-10-23-23s10-23 23-23h137c13 0 23 10 23 23s-10 23-23 23z" fill="#fff"/></g><g><path d="m840 1267c-13 0-23-11-23-24v-260c0-13 10-23 23-23s23 10 23 23v260c0 13-10 24-23 24z" fill="#fff"/></g><g><path d="m1140 1527c-13 0-23-11-23-24v-440h-90v440c0 13-11 24-24 24s-23-11-23-24v-463c0-13 10-23 23-23h137c13 0 23 10 23 23v463c0 13-10 24-23 24z" fill="#fff"/></g><g><path d="m1140 1163h-137c-13 0-23-10-23-23s10-23 23-23h137c13 0 23 10 23 23s-10 23-23 23z" fill="#fff"/></g><g><path d="m1070 1413c-13 0-23-10-23-23v-137c0-13 10-23 23-23s23 10 23 23v137c0 13-10 23-23 23z" fill="#fff"/></g><g><path d="m1370 1527c-13 0-23-11-23-24v-546h-90v546c0 13-11 24-24 24s-23-11-23-24v-570c0-13 10-23 23-23h137c13 0 23 10 23 23v570c0 13-10 24-23 24z" fill="#fff"/></g><g><path d="m1370 1420h-137c-13 0-23-10-23-23s10-24 23-24h137c13 0 23 11 23 24s-10 23-23 23z" fill="#fff"/></g><g><path d="m1300 1223c-13 0-23-10-23-23v-137c0-13 10-23 23-23s23 10 23 23v137c0 13-10 23-23 23z" fill="#fff"/></g><g><path d="m1600 1527c-13 0-23-11-23-24v-616h-90v616c0 13-11 24-24 24s-23-11-23-24v-640c0-13 10-23 23-23h137c13 0 23 10 23 23v640c0 13-10 24-23 24z" fill="#fff"/></g><g><path d="m1600 993h-137c-13 0-23-10-23-23s10-23 23-23h137c13 0 23 10 23 23s-10 23-23 23z" fill="#fff"/></g><g><path d="m1530 1397c-13 0-23-11-23-24v-273c0-13 10-23 23-23s23 10 23 23v273c0 13-10 24-23 24z" fill="#fff"/></g><g><path d="m1830 1527c-13 0-23-11-23-24v-396h-90v396c0 13-11 24-24 24s-23-11-23-24v-420c0-13 10-23 23-23h137c13 0 23 10 23 23v420c0 13-10 24-23 24z" fill="#fff"/></g><g><path d="m1830 1450h-137c-13 0-23-10-23-23s10-24 23-24h137c13 0 23 11 23 24s-10 23-23 23z" fill="#fff"/></g><g><path d="m1760 1320c-13 0-23-10-23-23v-84c0-13 10-23 23-23s23 10 23 23v84c0 13-10 23-23 23z" fill="#fff"/></g><g><path d="m2060 1527c-13 0-23-11-23-24v-546h-90v546c0 13-11 24-24 24s-23-11-23-24v-570c0-13 10-23 23-23h137c13 0 23 10 23 23v570c0 13-10 24-23 24z" fill="#fff"/></g><g><path d="m2060 1063h-137c-13 0-23-10-23-23s10-23 23-23h137c13 0 23 10 23 23s-10 23-23 23z" fill="#fff"/></g><g><path d="m1993 1363c-13 0-23-10-23-23v-137c0-13 10-23 23-23s24 10 24 23v137c0 13-11 23-24 23z" fill="#fff"/></g></g></g></svg>