<svg width="116" height="116" viewBox="0 0 116 116" fill="none" xmlns="http://www.w3.org/2000/svg">
<circle cx="58.0854" cy="57.9602" r="57.1069" fill="#DCE9FE"/>
<path d="M77.6182 51.1328C79.9513 56.9243 84.5437 61.5171 90.335 63.8506C84.5441 66.1839 79.9514 70.7765 77.6182 76.5674C75.2847 70.7762 70.6918 66.1837 64.9004 63.8506C70.6922 61.5173 75.2849 56.9246 77.6182 51.1328Z" fill="#FFD500" stroke="black" stroke-width="4" stroke-linejoin="round"/>
<path d="M69.1933 29.1382C68.9926 29.1382 68.7919 29.2448 68.6915 29.4937L68.4574 30.1691C67.5877 32.6221 65.7814 34.5774 63.4399 35.5017L62.8043 35.7505C62.3361 35.9283 62.3361 36.6037 62.8043 36.7815L63.4399 37.0303C65.7479 37.9546 67.5877 39.8743 68.4574 42.3628L68.6915 43.0383C68.7919 43.2871 68.9926 43.3938 69.1933 43.3938C69.394 43.3938 69.5947 43.2871 69.695 43.0383L69.9292 42.3628C70.7989 39.9099 72.6051 37.9546 74.9466 37.0303L75.5822 36.7815C76.0505 36.6037 76.0505 35.9283 75.5822 35.7505L74.9466 35.5017C72.6386 34.5774 70.7989 32.6576 69.9292 30.1691L69.695 29.4937C69.5947 29.2448 69.394 29.1382 69.1933 29.1382Z" fill="black"/>
<path d="M53.9795 94.1131C55.3137 92.83 56.0589 91.063 56.0589 89.218V72.2251V69.2532C56.0564 66.7285 56.0544 63.7202 56.0527 60.4736C56.0505 56.2871 56.0488 51.7046 56.0471 47.2525L56.0469 46.6965C56.0455 43.0142 56.0441 39.4366 56.0425 36.2641C56.0404 31.9713 56.0378 28.42 56.0342 26.3541C56.0342 23.8569 54.7361 21.5371 52.6206 20.2179C51.4427 19.4847 50.0965 19.1181 48.7623 19.1241C47.6925 19.1301 46.6227 19.3705 45.6371 19.8513C42.9207 21.1104 40.9975 23.0515 40.1561 25.4916C35.0839 27.4175 32.0789 30.164 31.0934 33.4635C30.8409 34.3409 30.7087 35.2754 30.7328 36.2641C28.0883 37.5595 25.3238 41.0272 24.8911 45.2853C21.9345 47.0007 15.1914 51.8056 15.1914 59.9914C15.1914 64.0154 16.9223 68.9555 21.7542 74.7521C22.9442 76.1705 23.437 78.5954 24.5428 80.5667C25.889 82.9526 27.7882 84.9148 31.2619 85.2303C31.4421 85.8464 31.6946 86.5375 32.0431 87.2257C32.8124 88.7823 34.0505 90.2697 35.8775 91.051C36.7549 91.4206 37.7165 91.5558 38.7261 91.4987C39.1589 92.5415 39.7118 93.3498 40.4089 93.9899C41.9236 95.3661 44.3636 96.0513 48.847 96.0513C50.6259 96.0513 52.7054 95.3482 53.9795 94.1131Z" fill="#0276FF"/>
<path d="M56.0425 36.2641C56.0404 31.9713 56.0378 28.42 56.0342 26.3541C56.0342 23.8569 54.7361 21.5371 52.6206 20.2179C51.4427 19.4847 50.0965 19.1181 48.7623 19.1241C47.6925 19.1301 46.6227 19.3705 45.6371 19.8513C42.9207 21.1104 40.9975 23.0515 40.1561 25.4916C35.0839 27.4175 32.0789 30.164 31.0934 33.4635C30.8409 34.3409 30.7087 35.2754 30.7328 36.2641C28.0883 37.5595 25.3238 41.0272 24.8911 45.2853C21.9345 47.0007 15.1914 51.8056 15.1914 59.9914C15.1914 64.0154 16.9223 68.9555 21.7542 74.7521C22.9442 76.1705 23.437 78.5954 24.5428 80.5667C25.889 82.9526 27.7882 84.9148 31.2619 85.2303C31.4421 85.8464 31.6946 86.5375 32.0431 87.2257C32.8124 88.7823 34.0505 90.2697 35.8775 91.051C36.7549 91.4206 37.7165 91.5558 38.7261 91.4987C39.1589 92.5415 39.7118 93.3498 40.4089 93.9899C41.9236 95.3661 44.3636 96.0513 48.847 96.0513C50.6259 96.0513 52.7054 95.3482 53.9795 94.1131C55.3137 92.83 56.0589 91.063 56.0589 89.218V72.2251M56.0425 36.2641C54.7322 33.4607 50.6121 28.5022 44.6149 31.0956M56.0425 36.2641C56.0441 39.4366 56.0455 43.0142 56.0469 46.6965M56.0469 46.6965C53.5279 47.5745 47.2285 48.1552 42.1836 43.4547C35.8775 37.5791 35.4344 48.7225 31.2619 49.7356M56.0469 46.6965C56.0487 51.3219 56.0504 56.1126 56.0527 60.4736M56.0527 60.4736C56.0544 63.7202 56.0564 66.7285 56.0589 69.2532V72.2251M56.0527 60.4736C52.0787 61.5053 45.2986 62.5287 38.7261 61.9428M24.8911 56.6243C26.3783 58.0688 28.1774 59.1693 30.1644 59.9914M38.7261 61.9428C40.629 60.5076 43.579 55.7531 40.1561 48.216M38.7261 61.9428C35.7345 61.6761 32.7858 61.0759 30.1644 59.9914M30.1644 59.9914C30.5822 63.231 29.8025 68.5923 23.341 64.1208M56.0589 72.2251C54.8092 70.8401 52.2121 68.9229 48.847 68.2471M40.8667 69.2532C43.77 67.9087 46.4959 67.7749 48.847 68.2471M48.847 68.2471C48.547 70.7442 47.2632 74.0933 44.3768 75.7648M32.0431 74.2512C37.7936 77.418 41.7492 77.2865 44.3768 75.7648M44.3768 75.7648C43.8263 77.5918 43.7005 80.7301 45.7644 82.9187M50.8958 85.2303C48.4529 84.9113 46.8214 84.0395 45.7644 82.9187M45.7644 82.9187C43.8619 82.36 39.3882 82.0402 36.7132 85.2303" stroke="black" stroke-width="4" stroke-linecap="round"/>
</svg>
