<svg id="Layer_1" data-name="Layer 1" xmlns="http://www.w3.org/2000/svg" viewBox="0 0 480.78 481.88"><defs><style>.cls-1{fill:#ffa300;}.cls-2{fill:#cdd4df;}.cls-3{fill:#1565c0;}.cls-4{fill:#29b6f6;}.cls-5{fill:#ffd80c;}</style></defs><path class="cls-1" d="M496.88,207.57v241.3a50.51,50.51,0,0,1-7.37,26,49.15,49.15,0,0,1-42.37,23.49H65.83a49.24,49.24,0,0,1-42.14-23.49,48.5,48.5,0,0,1-7.6-26l.23-241.3a49.76,49.76,0,0,1,20-40.07L227,26.36a49.37,49.37,0,0,1,59.17,0L476.83,167.5a48.21,48.21,0,0,1,9.68,9.67A49,49,0,0,1,496.88,207.57Z" transform="translate(-16.09 -16.51)"/><rect class="cls-2" x="63.19" y="71.81" width="352.39" height="286.83" rx="24.59"/><path class="cls-3" d="M431.67,112.9v65.55H79.29V112.9a24.58,24.58,0,0,1,24.56-24.58H407.09a24.56,24.56,0,0,1,24.58,24.56Z" transform="translate(-16.09 -16.51)"/><path class="cls-4" d="M247.28,271.17a12.89,12.89,0,0,1-8.19-3.6l-29.17-28.68a12.31,12.31,0,0,1,0-17.38,12.13,12.13,0,0,1,17.15-.22l.22.22,20,20,49.19-49.17a12.12,12.12,0,0,1,17.14-.23h0l.22.22a12.28,12.28,0,0,1,0,17.37l-58.37,57.86A12.87,12.87,0,0,1,247.28,271.17Z" transform="translate(-16.09 -16.51)"/><path class="cls-3" d="M140.75,112.9a12.46,12.46,0,0,1-12.27-12.29V67.83a12.29,12.29,0,1,1,24.58,0v32.78A12.45,12.45,0,0,1,140.75,112.9Z" transform="translate(-16.09 -16.51)"/><path class="cls-3" d="M217.29,112.9A12.29,12.29,0,0,1,205,100.61V67.83a12.29,12.29,0,0,1,24.58,0v32.78A12.44,12.44,0,0,1,217.29,112.9Z" transform="translate(-16.09 -16.51)"/><path class="cls-3" d="M293.67,112.9a12.46,12.46,0,0,1-12.29-12.29V67.83a12.29,12.29,0,0,1,24.58,0v32.78A12.29,12.29,0,0,1,293.67,112.9Z" transform="translate(-16.09 -16.51)"/><path class="cls-3" d="M370.21,112.9a12.47,12.47,0,0,1-12.29-12.29V67.83a12.29,12.29,0,0,1,24.58,0v32.81A12.44,12.44,0,0,1,370.21,112.9Z" transform="translate(-16.09 -16.51)"/><path class="cls-1" d="M489.48,474.9a49.13,49.13,0,0,1-42.37,23.49H65.83A49.24,49.24,0,0,1,23.69,474.9l211.15-192a32.42,32.42,0,0,1,43.28,0Z" transform="translate(-16.09 -16.51)"/><path class="cls-5" d="M496.88,207.57v241.3a50.51,50.51,0,0,1-7.37,26L327.41,327.54,486.48,177.17A49,49,0,0,1,496.88,207.57Z" transform="translate(-16.09 -16.51)"/><path class="cls-5" d="M16.09,207.57v241.3a50.51,50.51,0,0,0,7.37,26l162.1-147.36L26.48,177.17a49.06,49.06,0,0,0-10.36,30.4Z" transform="translate(-16.09 -16.51)"/><path class="cls-5" d="M224.09,420.84a7.55,7.55,0,0,1-7.5,7.61H203.65a7.58,7.58,0,0,1,0-15.16h12.83a7.57,7.57,0,0,1,7.61,7.55Z" transform="translate(-16.09 -16.51)"/><path class="cls-5" d="M324.31,420.84a7.58,7.58,0,0,1-7.58,7.58h-70a7.58,7.58,0,1,1,0-15.16h70a7.58,7.58,0,0,1,7.58,7.58Z" transform="translate(-16.09 -16.51)"/><path class="cls-5" d="M302.75,455.45a7.55,7.55,0,0,1-7.53,7.58H225.17a7.58,7.58,0,1,1-.55-15.15h70.55a7.56,7.56,0,0,1,7.58,7.56Z" transform="translate(-16.09 -16.51)"/></svg>