<svg width="28" height="28" viewBox="0 0 28 28" fill="none" xmlns="http://www.w3.org/2000/svg">
<g clip-path="url(#clip0_4_3058)">
<path d="M24.146 24.8173L26.6397 23.1199L26.6397 8.22057H12.4567L10.9479 5.6933H1.51855V24.8173H24.146Z" fill="#D4B208"/>
<path d="M16.8035 6.4545V0.932556L24.9066 9.05306H19.5045C17.0736 9.05306 16.6909 7.32069 16.8035 6.4545Z" fill="white" fill-opacity="0.3"/>
<path d="M24.6702 24.6923L26.7071 23.5607V11.943H6.1875V24.6923H24.6702Z" fill="#FED401"/>
<path d="M1.29102 4.31244H10.9512C11.175 4.31247 11.3817 4.42663 11.4795 4.60443L11.5137 4.68451L11.5176 4.69525L12.4609 7.15326L12.5225 7.31342H26.7275C27.0092 7.31353 27.2692 7.51669 27.3438 7.80658L27.3633 7.93549V22.5536C27.3633 24.159 26.0457 25.4765 24.4404 25.4765H3.60645C2.00113 25.4765 0.683594 24.159 0.683594 22.5536V4.91986C0.683594 4.5952 0.948612 4.31244 1.29102 4.31244ZM1.92676 22.5253C1.92683 23.4317 2.66494 24.204 3.60645 24.204H4.34863C5.25506 24.204 6.02825 23.4668 6.02832 22.5253V12.1503C6.02847 11.8258 6.29344 11.5429 6.63574 11.5429H26.1201V8.49994H12.123C11.8991 8.49994 11.6925 8.385 11.5947 8.20697L11.5596 8.12787L11.5557 8.11713L10.6133 5.65912L10.5518 5.49896H1.92676V22.5253ZM7.24316 22.5253C7.24314 23.0024 7.13733 23.4475 6.92969 23.8369L6.7334 24.204H24.4404C25.3469 24.204 26.12 23.4668 26.1201 22.5253V12.787H7.24316V22.5253Z" fill="black" stroke="#FED401" stroke-width="0.5"/>
</g>
<defs>
<clipPath id="clip0_4_3058">
<rect width="27.0684" height="27.0684" fill="white" transform="translate(0.544922 0.932556)"/>
</clipPath>
</defs>
</svg>
