<svg clip-rule="evenodd" fill-rule="evenodd" height="512" image-rendering="optimizeQuality" shape-rendering="geometricPrecision" text-rendering="geometricPrecision" viewBox="0 0 850 850" width="512" xmlns="http://www.w3.org/2000/svg" xmlns:xlink="http://www.w3.org/1999/xlink"><linearGradient id="id0" gradientUnits="userSpaceOnUse" x1="425" x2="425" y1="850" y2="0"><stop offset="0" stop-color="#1aa8dc"/><stop offset=".490196" stop-color="#ae3b89"/><stop offset="1" stop-color="#f26270"/></linearGradient><g id="Layer_x0020_1"><circle cx="425" cy="425" fill="url(#id0)" r="425"/><g id="_326584264"><g><g><path d="m642 681h-434c-4 0-8-3-8-7v-398c0-4 4-7 8-7h99v-92c0-4 4-8 8-8h327c4 0 8 4 8 8v497c-1 4-4 7-8 7zm-427-15h419v-482h-312v92c0 4-3 8-8 8h-99z" fill="#fff"/></g><g><path d="m208 284c-2 0-4-1-6-3-2-3-2-7 1-10l106-100c3-3 8-3 11 0s2 8-1 11l-106 100c-2 1-3 2-5 2z" fill="#fff"/></g><g><g><g><path d="m595 248h-222c-4 0-7-3-7-7s3-7 7-7h222c4 0 8 3 8 7s-4 7-8 7z" fill="#fff"/></g><g><path d="m595 310h-222c-4 0-7-4-7-8s3-7 7-7h222c4 0 8 3 8 7s-4 8-8 8z" fill="#fff"/></g><g><path d="m595 371h-222c-4 0-7-3-7-7 0-5 3-8 7-8h222c4 0 8 3 8 8 0 4-4 7-8 7z" fill="#fff"/></g><g><path d="m595 433h-222c-4 0-7-4-7-8s3-7 7-7h222c4 0 8 3 8 7s-4 8-8 8z" fill="#fff"/></g><g><path d="m595 494h-222c-4 0-7-3-7-7s3-8 7-8h222c4 0 8 4 8 8s-4 7-8 7z" fill="#fff"/></g><g><path d="m595 555h-222c-4 0-7-3-7-7s3-8 7-8h222c4 0 8 4 8 8s-4 7-8 7z" fill="#fff"/></g><g><path d="m595 617h-222c-4 0-7-3-7-8 0-4 3-7 7-7h222c4 0 8 3 8 7 0 5-4 8-8 8z" fill="#fff"/></g></g><g><g><path d="m309 563h-55c-4 0-7-3-7-7v-212c0-5 3-8 7-8h55c4 0 7 3 7 8v212c0 4-3 7-7 7zm-47-14h40v-198h-40z" fill="#fff"/></g><g><path d="m281 617c-3 0-5-2-7-4l-26-54c-1-2-1-5 1-7 1-2 3-3 6-3h54c3 0 5 1 7 3 1 2 1 5 0 7l-28 54c-2 2-4 4-7 4zm-15-54 15 31 16-31z" fill="#fff"/></g><g><path d="m309 351h-55c-4 0-7-3-7-7v-31c0-4 3-8 7-8h55c4 0 7 4 7 8v31c0 4-3 7-7 7zm-47-14h40v-17h-40z" fill="#fff"/></g><g><path d="m282 529c-4 0-8-4-8-8v-142c0-5 4-8 8-8s7 3 7 8v143c0 4-3 7-7 7z" fill="#fff"/></g></g></g></g></g></g></svg>