<svg width="82" height="146" viewBox="0 0 82 146" fill="none" xmlns="http://www.w3.org/2000/svg">
<g clip-path="url(#clip0_117_55)">
<g opacity="0.83" filter="url(#filter0_f_117_55)">
<ellipse cx="41.6036" cy="110.119" rx="28.8248" ry="7.71802" transform="rotate(-18.042 41.6036 110.119)" fill="#0F558B"/>
</g>
<path d="M48.8888 63.4192C50.4823 63.9646 52.0972 65.0234 52.8245 68.6917C53.6266 71.8378 55.0844 74.7789 57.1024 77.3224C59.0488 79.964 60.3108 83.0227 58.7707 85.322C57.2307 87.6214 52.5892 90.0491 48.5572 87.8246C44.5253 85.6001 44.1724 82.4024 43.2099 78.9907C42.2473 75.5791 41.2848 70.7772 41.5415 68.1463C41.5783 67.2909 41.82 66.457 42.2462 65.7145C42.6724 64.972 43.2706 64.3427 43.9906 63.8795C44.7106 63.4162 45.5313 63.1327 46.3836 63.0526C47.236 62.9725 48.0951 63.0982 48.8888 63.4192Z" fill="#E4ECF1"/>
<g style="mix-blend-mode:multiply" opacity="0.8">
<path d="M45.8301 69.1194C44.5598 68.239 43.197 67.5003 41.7661 66.9163C41.9728 66.1982 42.3276 65.5315 42.8078 64.959C43.288 64.3866 43.8827 63.9211 44.5538 63.5926C45.2249 63.2641 45.9574 63.0799 46.7041 63.0519C47.4507 63.0238 48.1949 63.1526 48.8888 63.4298C50.4823 63.9752 52.0972 65.034 52.8245 68.7023C53.6266 71.8484 55.0844 74.7895 57.1024 77.333C59.0488 79.9746 60.3108 83.0333 58.7707 85.3326C57.2307 87.632 52.5892 90.0597 48.5572 87.8352C47.447 87.2512 46.4722 86.4399 45.6964 85.4541C44.9206 84.4682 44.3613 83.33 44.0548 82.1135C46.1937 79.8462 49.0492 82.7766 49.1134 82.1991C49.1775 81.6216 47.7231 78.9906 47.0279 75.7822C46.3327 72.5738 46.5252 69.8894 45.8301 69.1194Z" fill="#C2E0F2"/>
</g>
<g style="mix-blend-mode:multiply" opacity="0.8">
<path d="M45.8301 69.1194C44.5598 68.239 43.197 67.5003 41.7661 66.9163C41.9728 66.1982 42.3276 65.5315 42.8078 64.959C43.288 64.3866 43.8827 63.9211 44.5538 63.5926C45.2249 63.2641 45.9574 63.0799 46.7041 63.0519C47.4507 63.0238 48.1949 63.1526 48.8888 63.4298C50.4823 63.9752 52.0972 65.034 52.8245 68.7023C53.6266 71.8484 55.0844 74.7895 57.1024 77.333C59.0488 79.9746 60.3108 83.0333 58.7707 85.3326C57.2307 87.632 52.5892 90.0597 48.5572 87.8352C47.447 87.2512 46.4722 86.4399 45.6964 85.4541C44.9206 84.4682 44.3613 83.33 44.0548 82.1135C46.1937 79.8462 49.0492 82.7766 49.1134 82.1991C49.1775 81.6216 47.7231 78.9906 47.0279 75.7822C46.3327 72.5738 46.5252 69.8894 45.8301 69.1194Z" fill="#C2E0F2"/>
</g>
<g style="mix-blend-mode:multiply">
<path d="M49.9583 66.9163C50.8887 66.9912 51.5518 68.3066 51.4449 69.8681C51.3379 71.4295 50.4716 72.6487 49.5412 72.5738C48.6108 72.499 47.937 71.1835 48.0546 69.6221C48.1723 68.0607 49.0172 66.9163 49.9583 66.9163Z" fill="#B5CBD8"/>
</g>
<path d="M46.6857 82.0708C49.1455 82.5414 50.5251 84.3488 51.7871 86.3487C52.2629 87.1068 52.8032 87.8224 53.402 88.4877C51.7658 88.8274 50.0625 88.5932 48.5786 87.8246C47.5548 87.2849 46.6491 86.5461 45.9145 85.6518C45.1799 84.7574 44.6313 83.7254 44.3007 82.6162C44.6311 82.3509 45.0174 82.164 45.4305 82.0695C45.8436 81.975 46.2728 81.9755 46.6857 82.0708Z" fill="#5385A6"/>
<path d="M48.8887 63.4191C49.8479 63.712 50.6973 64.2857 51.3271 65.0661C50.7956 65.1214 50.2779 65.2699 49.7978 65.5046C48.3968 66.1677 47.1134 66.8949 45.4236 66.6489C45.1881 66.9083 44.9966 67.2046 44.8568 67.5259C44.0274 67.3337 43.2477 66.9694 42.5681 66.4564C42.6632 66.209 42.7777 65.9694 42.9104 65.7399L42.4184 65.4725C43.1048 64.4479 44.1188 63.6868 45.2943 63.3137C46.4698 62.9407 47.7371 62.9778 48.8887 63.4191Z" fill="#5385A6"/>
<path d="M42.9318 68.681C44.2366 68.9163 44.3756 70.7665 44.4184 74.2423C44.4184 77.2582 45.6911 80.21 44.9745 80.3597C44.258 80.5094 43.488 77.7609 42.8891 74.6594C42.2902 71.5579 41.7126 68.4671 42.9318 68.681Z" fill="white"/>
<path d="M46.333 82.5628C48.0976 82.7018 51.1991 85.2685 51.7766 88.1561C51.9691 89.1186 48.8462 91.3645 45.1565 90.2951C41.4668 89.2256 42.547 82.2847 46.333 82.5628Z" fill="#E4ECF1"/>
<g style="mix-blend-mode:multiply" opacity="0.8">
<path d="M43.9692 89.6106C44.8653 89.7936 45.7964 89.6847 46.6259 89.2997C47.4555 88.9148 48.1399 88.2741 48.5787 87.4717C49.4235 85.7819 48.461 84.028 47.7552 83.0654C48.7368 83.5969 49.6003 84.3221 50.2934 85.1972C50.9864 86.0722 51.4946 87.0789 51.7871 88.1561C51.9796 89.1187 48.8567 91.3646 45.167 90.2951C44.7193 90.1647 44.3088 89.9302 43.9692 89.6106Z" fill="#C2E0F2"/>
</g>
<g style="mix-blend-mode:multiply" opacity="0.8">
<path d="M43.9692 89.6106C44.8653 89.7936 45.7964 89.6847 46.6259 89.2997C47.4555 88.9148 48.1399 88.2741 48.5787 87.4717C49.4235 85.7819 48.461 84.028 47.7552 83.0654C48.7368 83.5969 49.6003 84.3221 50.2934 85.1972C50.9864 86.0722 51.4946 87.0789 51.7871 88.1561C51.9796 89.1187 48.8567 91.3646 45.167 90.2951C44.7193 90.1647 44.3088 89.9302 43.9692 89.6106Z" fill="#C2E0F2"/>
</g>
<path d="M45.8193 83.2365C47.3166 83.8889 45.7338 87.5144 44.2258 86.723C42.7179 85.9316 44.5467 82.6804 45.8193 83.2365Z" fill="white"/>
<path d="M46.9424 42.0724C48.5466 41.4521 51.8834 42.682 52.4395 44.714C53.3379 48.0508 52.2256 61.8898 51.6053 63.2801C50.985 64.6704 46.8782 66.1356 45.3489 65.7185C43.8195 65.3014 41.5843 64.5314 40.8892 63.1411C40.194 61.7508 40.6218 56.1895 41.5309 51.1202C42.4399 46.0509 45.2419 42.7462 46.9424 42.0724Z" fill="#E4ECF1"/>
<g style="mix-blend-mode:multiply" opacity="0.8">
<path d="M51.6053 63.2802C50.9744 64.6705 46.8783 66.1357 45.3489 65.7186C43.8196 65.3015 41.5844 64.5314 40.8892 63.1411C40.8302 63.003 40.7836 62.8598 40.7502 62.7133C42.333 64.1357 44.6751 64.5742 45.0281 63.9753C45.381 63.3764 45.5093 56.3286 46.0975 51.6015C46.6858 46.8744 47.9905 44.575 49.6482 43.9547C50.1338 43.7823 50.6605 43.7627 51.1576 43.8984C51.6547 44.0342 52.0983 44.3188 52.4288 44.7141C53.3379 48.0508 52.2256 61.8898 51.6053 63.2802Z" fill="#C2E0F2"/>
</g>
<path d="M47.6375 42.9815C48.707 43.6766 45.9691 45.8263 44.3007 49.5801C42.3436 53.9864 42.0762 62.232 41.5201 62.1678C40.9639 62.1037 41.0281 56.6066 42.2152 51.2485C43.4024 45.8904 46.4397 42.2435 47.6375 42.9815Z" fill="white"/>
<path d="M22.5476 81.1831C23.97 81.9638 26.0769 83.2258 26.8255 84.7979C27.5741 86.3701 27.8415 92.4019 26.6437 96.8509C25.4459 101.3 24.0448 105 21.168 105.835C18.2911 106.669 16.751 105.835 13.9383 104.166C10.6015 102.134 10.8796 100.091 11.7138 97.9632C12.548 95.8349 14.0987 94.3377 14.9222 91.0972C15.4397 88.664 16.0786 86.2582 16.8366 83.8889C17.5638 81.6002 20.184 79.8783 22.5476 81.1831Z" fill="#E4ECF1"/>
<g style="mix-blend-mode:multiply" opacity="0.8">
<path d="M11.7031 97.9311L11.9598 97.3322C12.4216 97.1701 12.9158 97.1224 13.4001 97.1932C13.8844 97.2639 14.3443 97.4511 14.7404 97.7386C16.9649 99.2038 17.4462 101.728 17.8633 101.15C18.8474 99.5142 19.4879 97.6947 19.7456 95.8029C20.3658 92.5945 20.9327 88.231 20.5049 87.461C20.0771 86.691 17.2965 85.4076 16.4302 84.9691C16.5264 84.6269 16.6441 84.2739 16.7724 83.8996C17.521 81.6109 20.184 79.8891 22.5476 81.1939C23.97 81.9746 26.0769 83.2366 26.8255 84.8087C27.5741 86.3808 27.8415 92.4127 26.6437 96.8617C25.4459 101.311 24.0448 105.011 21.168 105.845C18.2911 106.679 16.751 105.845 13.9383 104.177C10.5908 102.134 10.8689 100.07 11.7031 97.9311Z" fill="#C2E0F2"/>
</g>
<path d="M25.9485 83.5894C25.1859 83.757 24.4463 84.0155 23.7454 84.3595C21.9059 85.2257 21.446 85.9958 19.7455 85.3006C18.7273 84.8974 17.7376 84.4257 16.7831 83.8889C17.521 81.6002 20.184 79.8783 22.5476 81.1831C23.7913 81.8171 24.9368 82.6276 25.9485 83.5894Z" fill="#5385A6"/>
<path d="M18.0343 106.081C16.5606 105.697 15.169 105.048 13.9275 104.166C10.719 102.188 10.8581 100.209 11.6388 98.145C12.0695 97.9306 12.5475 97.829 13.0282 97.8495C13.5089 97.8701 13.9765 98.0122 14.3873 98.2627C16.922 99.6316 18.0663 103.482 18.0343 106.081Z" fill="#5385A6"/>
<g style="mix-blend-mode:multiply">
<path d="M24.6866 85.6535C25.6063 85.8781 26.0341 87.2898 25.6598 88.8619C25.2855 90.4341 24.2374 91.4394 23.3283 91.2041C22.4193 90.9688 21.9808 89.5678 22.3551 87.9957C22.7294 86.4235 23.7775 85.4289 24.6866 85.6535Z" fill="#B5CBD8"/>
</g>
<path d="M22.1733 83.8675C21.6204 84.0109 21.1017 84.2637 20.648 84.6109C20.1943 84.958 19.8148 85.3925 19.5317 85.8888L17.457 84.8193C17.4161 84.2783 17.5593 83.7393 17.8634 83.29C18.5724 83.0164 19.339 82.926 20.0923 83.0269C20.8456 83.1278 21.5613 83.4169 22.1733 83.8675Z" fill="#5385A6"/>
<path d="M17.1683 86.445C17.9918 86.7658 17.3608 89.1721 16.9651 92.0063C16.4732 95.482 17.0721 96.4553 16.5801 97.2146C16.3234 97.6317 15.5106 97.1183 14.8048 96.7333C14.0989 96.3483 13.5963 96.5622 13.5535 96.0382C13.5107 95.5141 14.8476 94.1238 15.5748 91.3432C16.0988 89.3753 16.4945 86.1669 17.1683 86.445Z" fill="white"/>
<path d="M17.0076 59.8471C18.8471 58.9808 21.9165 60.2107 23.0074 62.5636C24.0983 64.9164 26.911 77.6111 26.9965 80.1778C27.0821 82.7446 21.7347 85.2579 19.8311 84.5413C17.8925 83.9912 16.1756 82.8465 14.9222 81.2687C13.7457 79.5468 12.3875 62.0181 17.0076 59.8471Z" fill="#E4ECF1"/>
<g style="mix-blend-mode:multiply" opacity="0.8">
<path d="M19.8311 84.5413C17.8925 83.9912 16.1756 82.8465 14.9222 81.2687C14.7586 80.9666 14.6397 80.6424 14.5692 80.3062C15.9702 81.6751 18.1734 83.1082 19.0076 82.905C20.077 82.6269 18.922 78.1779 18.4621 73.8252C18.0022 69.4724 17.6493 64.9271 19.3712 62.5636C21.093 60.2 23.0074 62.5636 23.0074 62.5636C24.0769 64.9271 26.911 77.6325 26.9965 80.1778C27.0821 82.7232 21.7347 85.2579 19.8311 84.5413Z" fill="#C2E0F2"/>
</g>
<path d="M17.9916 60.8845C19.4141 61.0663 17.4997 63.462 16.8259 64.9058C15.7692 67.5845 15.2917 70.4567 15.4249 73.3332C15.5532 76.0604 15.8313 79.7501 15.4249 79.7501C15.0185 79.7501 14.195 73.622 14.4731 69.6114C14.7511 65.6009 15.8741 60.6172 17.9916 60.8845Z" fill="white"/>
<path d="M13.9064 98.8188C15.532 99.5354 17.5854 102.99 17.1148 105.909C16.9758 106.883 13.2968 107.92 10.1632 105.696C7.02966 103.471 10.4306 97.2895 13.9064 98.8188Z" fill="#E4ECF1"/>
<g style="mix-blend-mode:multiply" opacity="0.8">
<path d="M9.31833 104.669C10.1044 105.141 11.0215 105.348 11.9342 105.259C12.8469 105.171 13.707 104.791 14.3876 104.177C15.7459 102.861 15.4571 100.894 15.0935 99.7385C15.8374 100.574 16.4047 101.552 16.7612 102.612C17.1178 103.672 17.2562 104.794 17.1683 105.909C17.0292 106.883 13.3502 107.92 10.2167 105.696C9.84274 105.426 9.53543 105.075 9.31833 104.669Z" fill="#C2E0F2"/>
</g>
<path d="M13.2005 99.268C14.3876 100.337 11.6925 103.279 10.5375 102.038C9.38244 100.797 12.2165 98.3268 13.2005 99.268Z" fill="white"/>
<path d="M73.7115 28.7895C72.3105 27.827 75.7008 39.5484 65.2841 46.2648L63.6157 45.099C75.0163 38.8961 69.8187 23.8699 73.9041 26.1907C77.9894 28.5115 80.1177 41.7623 69.0807 48.9064L67.2733 47.6658C77.0376 40.8318 76.3852 30.5542 73.7115 28.7895Z" fill="#5385A6"/>
<g style="mix-blend-mode:multiply">
<path d="M70.8879 46.6818C72.938 44.6607 74.5292 42.2221 75.5534 39.5316C76.5776 36.8411 77.0107 33.9616 76.8235 31.0889C77.5386 34.495 77.1776 38.0391 75.7905 41.2311C74.4033 44.4231 72.0585 47.1052 69.0805 48.9063L67.2731 47.6657C68.0812 47.1027 68.8495 46.4845 69.5724 45.8155C70.182 46.2219 70.8879 46.6818 70.8879 46.6818Z" fill="#B5CBD8"/>
</g>
<g style="mix-blend-mode:multiply">
<path d="M63.6155 45.0991C64.4854 44.6148 65.3026 44.0413 66.0539 43.3879L67.1234 43.8585C73.444 38.7143 72.4708 31.5702 72.7274 29.1425C72.8879 27.6239 73.8611 28.7254 74.1926 29.1425C74.0617 28.9877 73.9106 28.851 73.7434 28.7361C72.3424 27.7736 75.7327 39.495 65.316 46.2114L63.6155 45.0991Z" fill="#B5CBD8"/>
</g>
<path d="M66.7598 44.6392C71.9788 47.8476 74.0857 52.703 73.3477 60.7669C73.1555 63.0513 72.4143 65.2555 71.1872 67.192C69.9601 69.1285 68.2835 70.74 66.2999 71.8894C62.9097 74.0284 59.2414 75.3331 56.942 78.4667C50.2471 87.6 38.9534 94.0489 27.8309 87.0225C25.3663 85.5319 23.3179 83.4433 21.8754 80.9502C20.433 78.4572 19.6432 75.6404 19.5792 72.7608C19.5152 69.8812 20.1791 67.0321 21.5094 64.4775C22.8397 61.9228 24.7933 59.7453 27.1892 58.1466C34.2263 53.334 37.6593 54.8099 42.1618 52.0292C46.1082 49.5588 47.1884 47.3449 50.7818 45.1739C56.8457 41.4842 62.6851 42.1366 66.7598 44.6392Z" fill="#E4ECF1"/>
<g style="mix-blend-mode:multiply" opacity="0.8">
<path d="M20.5155 77.9213C26.665 87.1402 33.2102 84.8515 33.2102 81.8035C33.2102 77.3545 34.0444 71.7932 39.3276 68.2746C44.6108 64.7561 50.2683 67.2052 54.3003 64.7561C58.3322 62.307 61.0166 54.0827 66.396 51.3128C69.5082 49.6979 71.6044 50.6497 72.9733 53.0025C73.5192 55.5531 73.6456 58.1757 73.3476 60.7669C73.1553 63.0514 72.4141 65.2556 71.1871 67.1921C69.96 69.1286 68.2834 70.7401 66.2998 71.8895C62.9095 74.0284 59.2412 75.3332 56.9419 78.4668C50.247 87.6001 38.9533 94.049 27.8307 87.0226C24.4186 84.92 21.8352 81.7058 20.5155 77.9213Z" fill="#C2E0F2"/>
</g>
<g style="mix-blend-mode:multiply" opacity="0.5">
<path d="M23.6385 83.3649C31.7772 90.7443 37.007 85.8889 37.007 85.8889L47.5092 73.3332C48.429 78.0603 49.4557 79.9105 50.9315 80.0068C52.4074 80.103 53.0705 78.3384 57.5195 74.4455C60.3429 71.975 62.2466 70.6381 62.2466 70.6381C61.6416 69.5977 61.2481 68.448 61.0884 67.2551C60.9287 66.0622 61.0061 64.8495 61.3162 63.6866L73.1766 61.7401C72.8535 63.8409 72.0643 65.8427 70.867 67.5989C69.6697 69.3551 68.0946 70.8211 66.2571 71.8894C62.8669 74.0284 59.1986 75.3331 56.8992 78.4667C50.2043 87.6 38.9106 94.049 27.7881 87.0225C26.23 86.0174 24.8313 84.7845 23.6385 83.3649Z" fill="#C2E0F2"/>
</g>
<path d="M58.1396 43.8049C63.1448 43.1526 65.5618 45.6551 64.257 47.1417C62.9523 48.6283 58.4177 49.9223 55.359 50.7565C51.1559 51.9009 48.6534 52.0078 44.8888 55.5799C41.4558 58.7883 37.9693 62.1572 34.1941 62.1572C27.5205 62.1572 27.7772 57.6119 34.0122 55.8579C38.6538 54.5425 43.3702 53.0773 46.0652 50.7565C48.7603 48.4358 53.9259 44.3504 58.1396 43.8049Z" fill="white"/>
<path d="M70.4923 52.3929C73.3585 53.4624 74.2462 58.2108 72.4601 63.0021C70.6741 67.7933 66.8989 70.8093 64.0327 69.7398C61.1665 68.6703 60.2681 63.9218 62.0541 59.1306C63.8402 54.3393 67.6154 51.3234 70.4923 52.3929Z" fill="#364A5B"/>
<path d="M69.8505 54.0827C72.1713 54.9382 72.8771 58.7563 71.444 62.6385C70.0109 66.5207 66.9736 68.9056 64.6208 68.0393C62.2679 67.173 61.5942 63.3657 63.0272 59.4835C64.4603 55.6013 67.5404 53.2271 69.8505 54.0827Z" fill="#2E3C4D"/>
<path d="M44.7177 68.4671C47.7871 69.6115 48.7389 74.6808 46.8566 79.8036C44.9744 84.9264 40.921 88.1348 37.8517 86.9905C34.7823 85.8461 33.809 80.8196 35.7448 75.6647C37.6805 70.5098 41.6483 67.3228 44.7177 68.4671Z" fill="#364A5B"/>
<path d="M44.0441 70.2852C46.5146 71.1943 47.2525 75.2797 45.7445 79.3972C44.2366 83.5146 40.964 86.1028 38.5042 85.183C36.0444 84.2633 35.2958 80.1779 36.8037 76.0711C38.3117 71.9643 41.5736 69.3655 44.0441 70.2852Z" fill="#2E3C4D"/>
<path d="M39.3276 58.7242C43.6055 62.1037 37.4453 63.6652 33.1888 68.1142C29.5205 71.9429 30.8039 79.8784 25.4244 76.6165C19.7134 73.1728 22.2695 65.9218 25.2426 62.7133C28.2158 59.5049 35.2529 55.4837 39.3276 58.7242Z" fill="#2E3C4D"/>
<path d="M25.2427 62.7133C28.2051 59.5584 35.2529 55.4836 39.3276 58.7242C40.7607 59.8685 41.0067 60.7989 40.5468 61.6973C40.3174 61.0221 39.8696 60.4426 39.2742 60.0503C35.5096 57.0558 29.0072 60.8203 26.2693 63.7293C23.5315 66.6383 21.168 73.3546 26.4405 76.563C26.9818 76.9281 27.6005 77.1624 28.2479 77.2475C27.7607 77.3708 27.2514 77.3779 26.761 77.2683C26.2706 77.1587 25.8128 76.9354 25.4245 76.6165C19.7028 73.1728 22.2695 65.8469 25.2427 62.7133Z" fill="#364A5B"/>
<path d="M47.0173 95.1612C48.4397 95.9419 50.5466 97.1932 51.2952 98.776C52.0439 100.359 52.3647 106.369 51.1134 110.818C49.8621 115.267 48.5146 118.978 45.6377 119.813C42.7608 120.647 41.2315 119.813 38.408 118.144C35.0713 116.102 35.3494 114.07 36.1835 111.931C37.0177 109.792 38.5685 108.305 39.3385 105.075C39.8538 102.637 40.4964 100.227 41.2636 97.8563C42.0015 95.5676 44.6538 93.8565 47.0173 95.1612Z" fill="#E4ECF1"/>
<g style="mix-blend-mode:multiply" opacity="0.8">
<path d="M36.1729 111.931C36.2584 111.727 36.344 111.535 36.4402 111.342C36.8999 111.178 37.3929 111.13 37.8758 111.201C38.3587 111.271 38.8169 111.46 39.2102 111.749C41.4347 113.203 41.9159 115.738 42.3437 115.15C43.3193 113.511 43.9558 111.692 44.2153 109.802C44.8463 106.594 45.4024 102.22 44.9853 101.46C44.5682 100.701 41.7769 99.4071 40.8999 98.9579C40.9962 98.6263 41.1138 98.2627 41.2529 97.8884C42.0015 95.5997 44.6538 93.8886 47.0173 95.1933C48.4397 95.974 50.5466 97.2253 51.2952 98.8081C52.0439 100.391 52.3647 106.401 51.1134 110.85C49.8621 115.299 48.5146 119.011 45.6377 119.845C42.7608 120.679 41.2315 119.845 38.4081 118.176C35.0606 116.112 35.3387 114.07 36.1729 111.931Z" fill="#C2E0F2"/>
</g>
<path d="M50.4181 97.5675C49.6571 97.7354 48.9178 97.9902 48.215 98.3269C46.3755 99.2038 45.9156 99.9632 44.2151 99.268C43.195 98.8692 42.205 98.3974 41.2527 97.8563C42.0013 95.5676 44.6536 93.8565 47.0172 95.1612C48.2632 95.7914 49.4092 96.6023 50.4181 97.5675Z" fill="#5385A6"/>
<path d="M42.504 120.048C41.0306 119.669 39.6389 119.023 38.3972 118.144C35.1888 116.166 35.3278 114.187 36.1085 112.123C36.5411 111.909 37.0209 111.807 37.5032 111.828C37.9856 111.848 38.455 111.99 38.8678 112.241C41.4024 113.599 42.5361 117.449 42.504 120.048Z" fill="#5385A6"/>
<g style="mix-blend-mode:multiply">
<path d="M49.1668 99.621C50.0759 99.8562 50.5037 101.268 50.1294 102.829C49.7551 104.391 48.707 105.396 47.7979 105.172C46.8889 104.947 46.4504 103.525 46.8247 101.963C47.199 100.402 48.2471 99.3964 49.1668 99.621Z" fill="#B5CBD8"/>
</g>
<path d="M46.6537 97.8455C46.0992 97.982 45.5786 98.2308 45.1242 98.5767C44.6698 98.9225 44.2913 99.358 44.0121 99.8561L41.8731 98.7866C41.8329 98.2441 41.9801 97.7042 42.2902 97.2573C43.0071 96.9736 43.7847 96.8787 44.5488 96.9816C45.3128 97.0846 46.0376 97.3821 46.6537 97.8455Z" fill="#5385A6"/>
<path d="M41.6486 100.412C42.4614 100.744 41.8304 103.139 41.4347 105.974C40.9534 109.449 41.5416 110.423 41.0497 111.193C40.793 111.599 39.9802 111.096 39.285 110.701C38.5899 110.305 38.0658 110.53 38.0337 110.005C38.0017 109.481 39.3171 108.102 40.0444 105.321C40.5684 103.278 40.9534 100.134 41.6486 100.412Z" fill="white"/>
<path d="M41.4879 73.8145C43.3168 72.9482 46.3861 74.1781 47.477 76.5416C48.5679 78.9052 51.3806 91.6105 51.4661 94.1559C51.5517 96.7013 46.2043 99.2359 44.3007 98.5087C42.3635 97.9614 40.6467 96.8206 39.3918 95.2468C38.2154 93.5142 36.8143 75.9962 41.4879 73.8145Z" fill="#E4ECF1"/>
<g style="mix-blend-mode:multiply" opacity="0.8">
<path d="M44.3008 98.5087C42.3637 97.9615 40.6469 96.8206 39.3919 95.2468C39.2287 94.9408 39.1099 94.6131 39.039 94.2736C40.44 95.6532 42.6538 97.0863 43.4773 96.8724C44.5468 96.605 43.3918 92.156 42.9319 87.7926C42.472 83.4291 42.1619 78.9052 43.8409 76.5417C45.52 74.1781 47.5092 76.5417 47.5092 76.5417C48.5787 78.9052 51.4128 91.6106 51.4984 94.1559C51.5839 96.7013 46.2045 99.2359 44.3008 98.5087Z" fill="#C2E0F2"/>
</g>
<path d="M42.4613 74.8626C43.8837 75.0444 41.9694 77.44 41.3063 78.8731C40.2491 81.53 39.7609 84.3791 39.8732 87.2364C40.0122 89.9529 40.2796 93.6533 39.8732 93.6533C39.4668 93.6533 38.6433 87.5252 38.9214 83.5039C39.1994 79.4827 40.3544 74.5845 42.4613 74.8626Z" fill="white"/>
<path d="M38.3758 112.797C40.0014 113.503 42.0655 116.968 41.6377 119.887C41.4987 120.85 37.8197 121.898 34.6861 119.674C31.5526 117.449 34.9 111.257 38.3758 112.797Z" fill="#E4ECF1"/>
<g style="mix-blend-mode:multiply" opacity="0.8">
<path d="M33.7878 118.636C34.5739 119.108 35.4909 119.315 36.4036 119.227C37.3164 119.138 38.1765 118.759 38.8571 118.144C40.226 116.839 39.9266 114.861 39.563 113.717C40.3085 114.551 40.8767 115.528 41.2334 116.589C41.59 117.65 41.7276 118.772 41.6377 119.887C41.4987 120.85 37.8197 121.898 34.6862 119.674C34.3094 119.403 34.0016 119.048 33.7878 118.636Z" fill="#C2E0F2"/>
</g>
<path d="M37.67 113.246C38.8679 114.369 36.1621 117.246 35.007 116.005C33.852 114.765 36.6647 112.294 37.67 113.246Z" fill="white"/>
<path d="M71.6045 76.916C73.198 77.4614 74.8129 78.5202 75.5401 82.1885C76.3423 85.3346 77.8001 88.2757 79.8181 90.8192C81.7645 93.4608 83.0265 96.5195 81.4864 98.8189C79.9464 101.118 75.3049 103.546 71.2729 101.321C67.241 99.0969 66.8881 95.8992 65.9256 92.4876C64.963 89.0759 64.0005 84.274 64.2572 81.6431C64.294 80.7878 64.5357 79.9538 64.9619 79.2113C65.3881 78.4688 65.9863 77.8395 66.7063 77.3763C67.4263 76.9131 68.247 76.6295 69.0993 76.5494C69.9517 76.4693 70.8108 76.595 71.6045 76.916Z" fill="#E4ECF1"/>
<g style="mix-blend-mode:multiply" opacity="0.8">
<path d="M68.5458 82.6162C67.2793 81.7296 65.9158 80.9905 64.4818 80.4131C64.6873 79.6941 65.0413 79.0263 65.521 78.4526C66.0006 77.8789 66.5953 77.4123 67.2665 77.0827C67.9377 76.7531 68.6706 76.568 69.4178 76.5393C70.165 76.5106 70.9099 76.6389 71.6045 76.9159C73.198 77.4613 74.8129 78.5201 75.5401 82.1884C76.3423 85.3345 77.8001 88.2756 79.8181 90.8191C81.7645 93.4607 83.0265 96.5194 81.4864 98.8188C79.9464 101.118 75.3049 103.546 71.2729 101.321C70.1643 100.737 69.1912 99.9251 68.4173 98.9392C67.6433 97.9533 67.0858 96.8154 66.7811 95.5997C68.9201 93.3324 71.7649 96.2734 71.8291 95.6852C71.8932 95.097 70.4388 92.4233 69.7436 89.2684C69.0484 86.1134 69.2409 83.3862 68.5458 82.6162Z" fill="#C2E0F2"/>
</g>
<g style="mix-blend-mode:multiply">
<path d="M72.674 80.4345C73.6045 80.4987 74.2782 81.8248 74.1606 83.3863C74.043 84.9477 73.1767 86.1669 72.2569 86.0813C71.3372 85.9958 70.6527 84.691 70.7704 83.1296C70.888 81.5682 71.7329 80.3596 72.674 80.4345Z" fill="#B5CBD8"/>
</g>
<path d="M69.4015 95.5783C71.8613 96.0382 73.2409 97.8563 74.5029 99.8562C74.984 100.611 75.524 101.326 76.1178 101.995C74.4628 102.324 72.7449 102.063 71.2624 101.257C70.2414 100.716 69.3377 99.9785 68.6035 99.0864C67.8692 98.1943 67.319 97.1655 66.9845 96.0596C67.3233 95.799 67.7176 95.62 68.1368 95.5366C68.5559 95.4531 68.9887 95.4674 69.4015 95.5783Z" fill="#5385A6"/>
<path d="M71.6043 76.916C72.5635 77.2089 73.4129 77.7826 74.0427 78.563C73.5112 78.6183 72.9935 78.7668 72.5134 79.0015C71.1124 79.6753 69.8397 80.3918 68.1392 80.1458C67.9037 80.4052 67.7122 80.7015 67.5724 81.0228C66.7438 80.8282 65.9645 80.4641 65.2837 79.9533C65.3776 79.7019 65.4921 79.4587 65.6259 79.2261L65.134 78.9587C65.8219 77.936 66.8366 77.177 68.012 76.806C69.1873 76.4349 70.4539 76.4737 71.6043 76.916Z" fill="#5385A6"/>
<path d="M65.6904 82.1777C66.9951 82.413 67.1342 84.3167 67.177 87.739C67.177 90.7549 68.4496 93.7174 67.7331 93.8564C67.0165 93.9954 66.2465 91.2683 65.6476 88.1561C65.0487 85.0439 64.4391 81.9638 65.6904 82.1777Z" fill="white"/>
<path d="M69.0485 96.0702C70.8131 96.1986 73.9146 98.7653 74.5028 101.653C74.6953 102.615 71.5724 104.861 67.872 103.792C64.1716 102.722 65.2625 95.7922 69.0485 96.0702Z" fill="#E4ECF1"/>
<g style="mix-blend-mode:multiply" opacity="0.8">
<path d="M66.6849 103.107C67.581 103.29 68.5121 103.181 69.3416 102.797C70.1712 102.412 70.8556 101.771 71.2944 100.968C72.1392 99.2787 71.1874 97.5248 70.4709 96.5623C71.4528 97.0986 72.3162 97.8279 73.0091 98.7064C73.7019 99.5849 74.21 100.594 74.5028 101.674C74.6953 102.637 71.5724 104.883 67.872 103.813C67.4221 103.684 67.0132 103.441 66.6849 103.107Z" fill="#C2E0F2"/>
</g>
<path d="M68.5353 96.7333C70.0325 97.3857 68.4497 101.011 66.9525 100.22C65.4552 99.4284 67.2733 96.1772 68.5353 96.7333Z" fill="white"/>
<path d="M69.658 55.5799C71.2622 54.9489 74.599 56.1788 75.1551 58.2215C76.0534 61.5583 74.9412 75.3331 74.3209 76.7769C73.7006 78.2207 69.5938 79.6324 68.0645 79.2153C66.5351 78.7982 64.3106 78.0282 63.6154 76.6379C62.9203 75.2476 63.3481 69.697 64.2464 64.617C65.1448 59.537 67.9575 56.2216 69.658 55.5799Z" fill="#E4ECF1"/>
<g style="mix-blend-mode:multiply" opacity="0.8">
<path d="M74.3209 76.7769C73.6899 78.1672 69.5938 79.6324 68.0645 79.2153C66.5351 78.7982 64.3106 78.0282 63.6154 76.6379C63.5524 76.5039 63.5022 76.3643 63.4657 76.2208C65.0485 77.6111 67.4014 78.071 67.8292 77.4721C68.257 76.8732 68.3104 69.8253 68.8987 65.0982C69.4869 60.3712 70.7061 58.0825 72.3745 57.4515C72.8614 57.2834 73.3879 57.267 73.8844 57.4045C74.3809 57.5419 74.824 57.8268 75.1551 58.2215C76.0534 61.569 74.9412 75.3866 74.3209 76.7769Z" fill="#C2E0F2"/>
</g>
<path d="M70.3533 56.4783C71.4228 57.1735 68.6849 59.3338 67.0165 63.0877C65.0594 67.4939 64.792 75.7396 64.2359 75.6647C63.6798 75.5899 63.7546 70.1035 64.9311 64.7561C66.1075 59.4087 69.1769 55.7404 70.3533 56.4783Z" fill="white"/>
<path d="M24.6437 35.3027C24.6437 35.3027 24.3014 31.3029 20.5583 33.6557C16.955 36.2207 14.1786 39.7814 12.5693 43.9013L16.4729 40.6929C16.4729 40.6929 18.4835 36.7037 21.339 35.1316C23.0822 34.1691 23.0822 36.3401 23.0822 36.3401L24.6437 35.3027Z" fill="#5385A6"/>
<g style="mix-blend-mode:multiply">
<path d="M22.4299 33.431C22.7863 33.4137 23.1422 33.4724 23.4742 33.6033C23.8061 33.7343 24.1063 33.9344 24.3549 34.1903C24.5017 34.5312 24.5989 34.8914 24.6437 35.2598L23.0822 36.3293C23.0822 36.3293 23.0822 34.1903 21.339 35.1208C18.4835 36.6929 16.4729 40.6821 16.4729 40.6821L13.8206 42.821C16.8686 36.094 20.954 33.5593 22.4299 33.431Z" fill="#B5CBD8"/>
</g>
<path d="M34.2048 36.1689C42.4398 41.1526 43.6804 49.2058 41.3276 56.2429C38.9747 63.2801 23.339 72.2637 16.0452 74.0604C8.75133 75.8571 4.90121 72.8305 3.0831 71.2691C-0.713535 68.0606 -0.991604 61.5475 2.65531 55.9007C6.51612 49.9223 13.7351 41.1847 17.8633 38.1688C24.3015 33.4738 30.4724 33.9123 34.2048 36.1689Z" fill="#E4ECF1"/>
<g style="mix-blend-mode:multiply" opacity="0.8">
<path d="M9.008 71.1087L33.253 49.377C33.253 49.377 35.1674 43.9547 32.6434 39.8158C31.8649 38.4945 30.8032 37.3622 29.5346 36.5004C28.266 35.6386 26.8221 35.0688 25.3068 34.8321C28.3415 34.1801 31.5101 34.6714 34.2048 36.2117C42.4398 41.1955 43.6804 49.2486 41.3276 56.2858C38.9747 63.3229 23.339 72.2637 16.0452 74.0605C8.75133 75.8572 4.90121 72.8306 3.08311 71.2691C2.61095 70.8671 2.18742 70.4113 1.82113 69.9109C6.13111 72.6594 9.008 71.1087 9.008 71.1087Z" fill="#C2E0F2"/>
</g>
<path d="M26.5582 36.6075C31.2211 39.2491 20.3018 46.7675 17.6922 44.0938C15.0827 41.4201 23.3391 34.8321 26.5582 36.6075Z" fill="white"/>
<path d="M2.65548 55.9007C6.57644 49.926 11.1538 44.4088 16.302 39.4522C20.9435 38.0405 28.9218 39.003 33.2532 49.3769C33.2532 49.3769 29.1143 58.2963 27.9058 61.1412C26.6973 63.986 25.6813 65.002 22.4301 67.0553C19.1789 69.1087 15.4785 71.3333 11.4786 71.7503C8.27022 72.0926 2.36672 69.5151 0.163601 64.9913C-0.00611877 61.7718 0.867825 58.5836 2.65548 55.9007Z" fill="#19212C"/>
<path d="M31.7772 49.2914C31.7772 49.2914 26.5582 38.0405 16.4944 40.6928C16.4944 40.6928 10.4198 47.1096 5.72479 53.3768C1.0298 59.6439 1.20091 64.6704 1.20091 64.6704C3.29196 60.9027 5.83077 57.4015 8.7621 54.243C12.7406 50.3394 21.0825 42.1687 31.7772 49.2914Z" fill="#2E3C4D"/>
<path d="M36.2904 43.1205C41.3062 40.0083 46.8889 45.3878 49.4984 52.072C52.1079 58.7562 51.2416 65.28 46.5466 67.8895C41.3918 70.7557 40.2688 63.6116 37.9908 57.7188C35.4241 51.3768 31.2531 46.254 36.2904 43.1205ZM40.0228 56.7991C41.8837 61.462 42.8142 67.4938 46.2044 65.7185C49.3059 64.0501 49.9369 58.0076 47.8621 52.6816C45.7873 47.3556 41.1992 42.821 37.8839 44.5963C33.7664 46.7674 38.0122 51.7511 40.0228 56.7991Z" fill="#5385A6"/>
<g style="mix-blend-mode:multiply">
<path d="M37.4668 52.6603C35.5738 48.746 35.5738 47.1204 35.9695 45.8798C36.3652 44.6393 38.5042 42.8853 41.3704 44.2542C42.9088 45.0196 44.1772 46.2359 45.0066 47.7407C42.8035 45.0029 40.0228 43.388 37.8839 44.5965C33.7985 46.7354 38.0443 51.7513 40.0228 56.7992C41.0923 59.4515 41.8409 62.553 42.9211 64.4032C43.6163 65.847 44.8355 67.0341 46.8461 65.847C50.7176 63.708 49.3273 56.5746 49.3273 56.5746C49.3273 52.5213 47.3166 48.3503 46.044 46.1151C47.505 47.9044 48.6712 49.9153 49.4984 52.0721C52.1079 58.767 51.2416 65.2801 46.5466 67.8897C42.7821 70.0286 41.1992 66.7239 39.6699 62.5423C39.807 59.1128 39.0477 55.7068 37.4668 52.6603Z" fill="#B5CBD8"/>
</g>
<path d="M21.3609 26.5541C20.2045 26.5541 19.1887 26.3822 18.3135 26.0384C17.4384 25.7103 16.7586 25.1711 16.2742 24.421C15.7897 23.6709 15.5475 22.6707 15.5475 21.4205C15.5475 20.1704 15.7507 18.9514 16.157 17.7637C16.5789 16.5604 17.1571 15.4431 17.8916 14.4117C18.6261 13.3803 19.4856 12.4739 20.4701 11.6925C21.4703 10.9111 22.5486 10.3017 23.705 9.86412C24.8614 9.42655 26.0647 9.20777 27.3149 9.20777C28.7057 9.20777 29.8387 9.44218 30.7138 9.911C31.589 10.3798 32.2297 11.0205 32.636 11.8332C33.0579 12.6302 33.2689 13.5287 33.2689 14.5289C33.2689 15.8572 32.9486 17.248 32.3078 18.7014C31.6515 20.186 30.792 21.5221 29.7293 22.7098C28.6667 23.8975 27.4243 24.8351 26.0022 25.5227C24.5957 26.2103 23.0486 26.5541 21.3609 26.5541ZM23.494 25.3118C24.416 25.0617 25.3224 24.6007 26.2132 23.9287C27.1039 23.2568 27.9087 22.4519 28.6276 21.5143C29.3465 20.5767 29.9169 19.5921 30.3388 18.5607C30.9951 16.9824 31.3233 15.4978 31.3233 14.1069C31.3233 13.8882 31.3077 13.6772 31.2764 13.474C31.2608 13.2709 31.2374 13.0755 31.2061 12.888C31.0342 11.9347 30.6357 11.2628 30.0106 10.8721C29.3855 10.4814 28.6823 10.2861 27.9009 10.2861C27.0883 10.2861 26.2601 10.4501 25.4162 10.7783C24.5723 11.0909 23.8456 11.4815 23.2362 11.9504C22.486 12.5442 21.7906 13.224 21.1499 13.9897C20.5092 14.7555 19.97 15.5681 19.5325 16.4276C19.1574 17.1777 18.8527 17.9982 18.6183 18.8889C18.3995 19.764 18.2901 20.6157 18.2901 21.444C18.2901 22.1941 18.3995 22.8817 18.6183 23.5068C18.8371 24.1319 19.1965 24.6398 19.6966 25.0305C20.1966 25.4055 20.8608 25.593 21.689 25.593C22.2204 25.593 22.822 25.4993 23.494 25.3118ZM34.2348 25.9447C33.7972 25.9447 33.469 25.7884 33.2502 25.4758C33.0315 25.1477 32.9221 24.7101 32.9221 24.1631C32.9221 24.085 32.9221 24.0069 32.9221 23.9287C32.9221 23.8506 32.9299 23.7725 32.9455 23.6943C33.0236 23.1005 33.1565 22.4285 33.344 21.6784C33.5472 20.9283 33.7816 20.1391 34.0472 19.3109C34.2035 18.842 34.3988 18.256 34.6333 17.5528C34.8833 16.8339 35.1724 16.0682 35.5006 15.2556C35.8288 14.4273 36.1882 13.6069 36.5789 12.7942C36.9852 11.9816 37.4306 11.2471 37.915 10.5908C38.3995 9.91881 38.9073 9.37967 39.4387 8.97335C39.9856 8.56704 40.5638 8.36389 41.1733 8.36389C41.6734 8.36389 42.0172 8.48891 42.2047 8.73894C42.3922 8.97335 42.486 9.25465 42.486 9.58282C42.486 9.92662 42.4235 10.2782 42.2985 10.6377C42.1735 10.9815 42.0484 11.2706 41.9234 11.505C41.6421 12.0676 41.2749 12.7005 40.8217 13.4037C40.3685 14.1069 39.8919 14.7633 39.3918 15.3728C39.0949 15.7634 38.7276 16.201 38.2901 16.6855C37.8525 17.1699 37.4384 17.6153 37.0477 18.0216C36.6726 18.4279 36.3992 18.7092 36.2272 18.8655L35.8522 19.9438C35.7428 20.2407 35.6334 20.5923 35.524 20.9986C35.4303 21.4049 35.3443 21.8112 35.2662 22.2175C35.2037 22.6082 35.149 22.952 35.1021 23.2489C35.0865 23.3115 35.0786 23.374 35.0786 23.4365C35.0786 23.499 35.0786 23.5537 35.0786 23.6006C35.0786 24.0694 35.2584 24.3038 35.6178 24.3038C35.8366 24.3038 36.11 24.2022 36.4382 23.9991C36.7508 23.8115 37.0477 23.5693 37.329 23.2724C37.6259 22.9598 37.8369 22.7254 37.9619 22.5692C38.2744 22.1628 38.5714 21.7331 38.8526 21.2799C39.1339 20.8111 39.3762 20.3813 39.5793 19.9906C39.6575 19.8656 39.7122 19.8031 39.7434 19.8031C39.8372 19.8031 39.8841 19.9359 39.8841 20.2016C39.8841 20.3266 39.8606 20.4751 39.8137 20.647C39.7825 20.8033 39.7278 20.9517 39.6496 21.0924C39.4309 21.4674 39.173 21.8816 38.8761 22.3347C38.5792 22.7879 38.2744 23.2255 37.9619 23.6474C37.7275 23.96 37.3993 24.296 36.9774 24.6554C36.5554 25.0148 36.1022 25.3196 35.6178 25.5696C35.1333 25.8196 34.6723 25.9447 34.2348 25.9447ZM36.6961 17.5293C37.4774 16.6073 38.2666 15.6228 39.0636 14.5758C39.8762 13.5131 40.5482 12.4348 41.0795 11.3409C41.1108 11.2628 41.1811 11.1065 41.2905 10.8721C41.3999 10.6377 41.5015 10.3798 41.5952 10.0985C41.689 9.80161 41.7359 9.55157 41.7359 9.34841C41.7359 9.08275 41.6343 8.94991 41.4312 8.94991H41.2671C41.0639 8.94991 40.8217 9.09056 40.5404 9.37185C40.2747 9.65315 40.0013 10.0282 39.72 10.497C39.3605 11.0909 39.0089 11.7785 38.6651 12.5598C38.3213 13.3256 37.9853 14.1382 37.6572 14.9977C37.329 15.8572 37.0086 16.7011 36.6961 17.5293ZM43.9176 14.5523C43.5112 14.4117 43.3081 14.146 43.3081 13.7553C43.3081 13.3959 43.4487 13.0287 43.73 12.6536C44.0269 12.2629 44.3473 12.0129 44.6911 11.9035C44.7692 11.8722 44.8318 11.8566 44.8786 11.8566C44.9411 11.8566 45.0037 11.8566 45.0662 11.8566C45.3318 11.8566 45.5506 11.9347 45.7225 12.091C45.8944 12.2473 45.9804 12.427 45.9804 12.6302C45.9804 12.9114 45.8319 13.1459 45.535 13.3334C45.3006 13.3021 45.074 13.3568 44.8552 13.4975C44.6364 13.6381 44.4411 13.81 44.2692 14.0132C44.1129 14.2163 43.9957 14.396 43.9176 14.5523ZM39.8857 25.9447C39.6825 25.9447 39.4872 25.8978 39.2997 25.804C39.1121 25.7259 38.9559 25.5618 38.8309 25.3118C38.659 24.9367 38.573 24.4913 38.573 23.9756C38.573 23.413 38.659 22.7879 38.8309 22.1003C39.0028 21.3971 39.2293 20.6782 39.5106 19.9438C39.62 19.6781 39.7607 19.3499 39.9326 18.9592C40.1045 18.5686 40.3076 18.1779 40.542 17.7872C40.7765 17.3965 41.0421 17.0761 41.339 16.8261C41.6516 16.5604 41.9876 16.4276 42.347 16.4276C42.5189 16.4276 42.7611 16.4354 43.0737 16.451C43.3862 16.4667 43.6128 16.4667 43.7535 16.451C43.6597 16.5136 43.5503 16.6386 43.4253 16.8261C43.3003 17.0136 43.1831 17.209 43.0737 17.4121C42.9643 17.5997 42.8783 17.7481 42.8158 17.8575C42.4095 18.6701 42.0266 19.4749 41.6672 20.2719C41.3078 21.0689 41.0343 21.8347 40.8468 22.5692C40.8155 22.6942 40.7921 22.8192 40.7765 22.9442C40.7608 23.0692 40.753 23.1864 40.753 23.2958C40.753 23.749 40.9015 23.9756 41.1984 23.9756C41.3234 23.9756 41.4562 23.9444 41.5969 23.8819C41.7532 23.8037 41.9329 23.6865 42.136 23.5302C42.4955 23.2489 42.808 22.9286 43.0737 22.5692C43.3862 22.1628 43.6831 21.7331 43.9644 21.2799C44.2457 20.8111 44.488 20.3813 44.6911 19.9906C44.7692 19.8656 44.8239 19.8031 44.8552 19.8031C44.949 19.8031 44.9958 19.9359 44.9958 20.2016C44.9958 20.3266 44.9724 20.4751 44.9255 20.647C44.8943 20.8033 44.8396 20.9517 44.7614 21.0924C44.5426 21.4674 44.2848 21.8816 43.9879 22.3347C43.691 22.7879 43.3862 23.2255 43.0737 23.6474C42.8549 23.9444 42.5658 24.2725 42.2064 24.632C41.8469 24.9914 41.4641 25.3039 41.0577 25.5696C40.6514 25.8196 40.2608 25.9447 39.8857 25.9447ZM44.9442 25.9681C44.5379 25.9681 44.2097 25.7493 43.9597 25.3118C43.7096 24.8742 43.6159 24.296 43.6784 23.5771C43.7096 23.1239 43.8112 22.5535 43.9831 21.8659C44.1706 21.1627 44.4051 20.4595 44.6863 19.7562C44.9676 19.0374 45.2646 18.4279 45.5771 17.9278C45.9834 17.2871 46.4366 16.873 46.9367 16.6855C47.4524 16.4979 48.0931 16.4042 48.8589 16.4042C48.9214 16.4042 48.9526 16.4354 48.9526 16.4979C48.9526 16.5604 48.9057 16.6386 48.812 16.7323C48.5932 16.9199 48.3353 17.2637 48.0384 17.7637C47.7415 18.2638 47.4524 18.8108 47.1711 19.4046C46.9054 19.9985 46.671 20.5454 46.4679 21.0455C46.3116 21.4518 46.1631 21.8737 46.0225 22.3113C45.8975 22.7489 45.835 23.1396 45.835 23.4834C45.835 23.7646 45.8897 23.9912 45.999 24.1631C46.1241 24.335 46.335 24.421 46.632 24.421C46.9445 24.4054 47.2883 24.1788 47.6634 23.7412C48.0384 23.3036 48.3978 22.7645 48.7416 22.1238C49.0854 21.4831 49.3667 20.858 49.5855 20.2485C49.5543 20.0766 49.523 19.8969 49.4918 19.7093C49.4761 19.5218 49.4683 19.3265 49.4683 19.1233C49.4683 18.842 49.4918 18.5529 49.5386 18.256C49.6012 17.9435 49.6871 17.6387 49.7965 17.3418C49.9996 16.8261 50.2809 16.5214 50.6404 16.4276C50.7029 16.412 50.7576 16.4042 50.8045 16.4042C50.867 16.3885 50.9295 16.3807 50.992 16.3807C51.2889 16.3807 51.4842 16.4901 51.578 16.7089C51.6874 16.9121 51.7421 17.1543 51.7421 17.4356C51.7421 17.7169 51.7108 17.9982 51.6483 18.2794C51.5858 18.5451 51.5311 18.7483 51.4842 18.8889C51.3749 19.1858 51.2498 19.4749 51.1092 19.7562C50.9685 20.0219 50.8279 20.2876 50.6873 20.5532C50.7185 21.0377 50.8435 21.4127 51.0623 21.6784C51.2967 21.9441 51.5702 22.0769 51.8827 22.0769C52.2734 22.0769 52.6641 21.905 53.0548 21.5612C53.2736 21.3737 53.4689 21.1393 53.6408 20.858C53.8284 20.561 53.9924 20.2876 54.1331 20.0375C54.2112 19.8969 54.2659 19.8656 54.2972 19.9438C54.3284 20.0219 54.3441 20.1469 54.3441 20.3188C54.3441 20.4595 54.3284 20.6157 54.2972 20.7876C54.2815 20.9439 54.2425 21.0689 54.18 21.1627C53.9612 21.5534 53.7111 21.8816 53.4299 22.1472C53.1486 22.3973 52.8516 22.5848 52.5391 22.7098C52.2891 22.8036 52.0312 22.8504 51.7655 22.8504C51.4061 22.8504 51.0701 22.7489 50.7576 22.5457C50.4607 22.3269 50.2262 21.9988 50.0543 21.5612C49.7262 22.0456 49.4214 22.491 49.1401 22.8973C48.8745 23.288 48.6713 23.5693 48.5307 23.7412C48.0619 24.335 47.5227 24.8586 46.9132 25.3118C46.3194 25.7493 45.6631 25.9681 44.9442 25.9681ZM57.8891 25.4758C57.1703 25.8509 56.4124 26.0384 55.6154 26.0384C54.9434 26.0384 54.3183 25.8743 53.7401 25.5462C53.1619 25.218 52.7712 24.6945 52.568 23.9756C52.4743 23.6474 52.4274 23.3036 52.4274 22.9442C52.4274 22.3504 52.529 21.7409 52.7321 21.1158C52.9509 20.4751 53.2322 19.8891 53.576 19.3577C54.1073 18.5295 54.7793 17.8419 55.5919 17.2949C56.4045 16.748 57.3031 16.4745 58.2876 16.4745C59.0221 16.4745 59.5925 16.662 59.9988 17.0371C60.4051 17.4121 60.6083 17.8497 60.6083 18.3498C60.6083 18.9436 60.4051 19.4671 59.9988 19.9203C59.6082 20.3579 59.0924 20.6939 58.4517 20.9283C58.1392 21.0377 57.8032 21.1236 57.4438 21.1861C57.1 21.233 56.7718 21.2565 56.4592 21.2565C55.8185 21.2565 55.3263 21.1705 54.9825 20.9986C54.6855 21.7643 54.5371 22.4676 54.5371 23.1083C54.5371 23.6865 54.6699 24.1631 54.9356 24.5382C55.2012 24.8976 55.6232 25.0773 56.2014 25.0773C56.6858 25.0773 57.1625 24.9445 57.6313 24.6788C58.1157 24.4132 58.5611 24.085 58.9674 23.6943C59.3894 23.3036 59.741 22.9286 60.0223 22.5692C60.2411 22.3035 60.4286 22.0535 60.5849 21.819C60.7411 21.5846 60.9052 21.319 61.0771 21.022C61.249 20.7095 61.4522 20.3266 61.6866 19.8734C61.7491 19.764 61.8038 19.7093 61.8507 19.7093C61.9444 19.7093 61.9913 19.8344 61.9913 20.0844C61.9913 20.2251 61.9679 20.3813 61.921 20.5532C61.8897 20.7095 61.8272 20.8736 61.7335 21.0455C61.5147 21.4362 61.249 21.8659 60.9365 22.3347C60.6396 22.7879 60.3348 23.2255 60.0223 23.6474C59.741 24.0225 59.4206 24.3663 59.0612 24.6788C58.7018 24.9914 58.3111 25.2571 57.8891 25.4758ZM55.756 20.4829C55.8341 20.5298 55.9201 20.561 56.0139 20.5767C56.1076 20.5923 56.2014 20.6001 56.2952 20.6001C56.6077 20.6001 56.9202 20.5298 57.2328 20.3891C57.5453 20.2329 57.811 20.0766 58.0298 19.9203C58.3892 19.6703 58.694 19.3734 58.944 19.0296C59.194 18.6858 59.3347 18.2951 59.3659 17.8575C59.3816 17.67 59.3347 17.5137 59.2253 17.3887C59.1315 17.248 58.9596 17.1777 58.7096 17.1777C58.5846 17.1777 58.4283 17.2012 58.2408 17.248C57.9907 17.3105 57.7407 17.4278 57.4906 17.5997C57.2406 17.7716 56.9984 17.9747 56.764 18.2091C56.6858 18.2873 56.5452 18.4435 56.342 18.6779C56.1545 18.8967 55.9748 19.1468 55.8029 19.4281C55.631 19.6937 55.545 19.9281 55.545 20.1313C55.545 20.3032 55.6154 20.4204 55.756 20.4829ZM64.6964 25.9681C64.1963 25.9681 63.8369 25.7571 63.6181 25.3352C63.4462 24.9601 63.3602 24.5148 63.3602 23.9991C63.3602 23.4208 63.4462 22.7801 63.6181 22.0769C63.79 21.3737 64.0244 20.6548 64.3213 19.9203C64.4307 19.6547 64.5714 19.3187 64.7433 18.9124C64.9308 18.506 65.1496 18.1075 65.3996 17.7169C65.1808 17.9044 64.923 18.0607 64.6261 18.1857C64.3291 18.2951 64.04 18.3498 63.7587 18.3498C63.54 18.3498 63.3602 18.3185 63.2196 18.256C63.0946 18.506 62.8914 18.9124 62.6101 19.4749C62.3288 20.0375 61.9538 20.7017 61.485 21.4674C61.4381 21.5456 61.3912 21.5456 61.3443 21.4674C61.3131 21.3737 61.2974 21.2486 61.2974 21.0924C61.2974 20.9674 61.3131 20.8345 61.3443 20.6939C61.3756 20.5532 61.4225 20.4204 61.485 20.2954C61.6412 19.9985 61.7975 19.6937 61.9538 19.3812C62.1101 19.053 62.2507 18.7639 62.3757 18.5139C62.5007 18.2638 62.5711 18.1075 62.5867 18.045C62.3054 17.9044 62.0944 17.709 61.9538 17.459C61.8131 17.1933 61.7428 16.9355 61.7428 16.6855C61.7428 16.4354 61.7975 16.2088 61.9069 16.0057C62.0319 15.8025 62.2116 15.6462 62.446 15.5368C62.5867 15.49 62.7195 15.4665 62.8445 15.4665C63.1883 15.4665 63.4696 15.5759 63.6884 15.7947C63.6728 15.8572 63.6572 15.9275 63.6415 16.0057C63.6415 16.0682 63.6415 16.1385 63.6415 16.2166C63.6415 16.7011 63.8369 17.0605 64.2276 17.2949C64.6182 17.5293 65.0402 17.6153 65.4934 17.5528C65.7122 17.2402 65.9622 16.9667 66.2435 16.7323C66.5248 16.4979 66.8295 16.3807 67.1577 16.3807C67.3296 16.3807 67.5718 16.3885 67.8844 16.4042C68.2125 16.4198 68.4469 16.4198 68.5876 16.4042C68.4938 16.4667 68.3844 16.5917 68.2594 16.7792C68.1344 16.9667 68.0172 17.1621 67.9078 17.3652C67.7984 17.5684 67.7125 17.7247 67.65 17.8341C67.228 18.6467 66.8373 19.4593 66.4779 20.2719C66.1185 21.0689 65.845 21.8347 65.6575 22.5692C65.6262 22.7098 65.595 22.8426 65.5637 22.9677C65.5481 23.077 65.5403 23.1942 65.5403 23.3193C65.5403 23.7881 65.6965 24.0225 66.0091 24.0225C66.2279 24.0225 66.5404 23.8662 66.9467 23.5537C67.3061 23.2568 67.6265 22.9286 67.9078 22.5692C68.2203 22.1628 68.5173 21.7253 68.7986 21.2565C69.0799 20.7876 69.3221 20.3579 69.5252 19.9672C69.6034 19.8422 69.6581 19.7797 69.6893 19.7797C69.7831 19.7797 69.83 19.9203 69.83 20.2016C69.83 20.311 69.8143 20.4438 69.7831 20.6001C69.7518 20.7564 69.6971 20.9048 69.619 21.0455C69.3846 21.4362 69.1189 21.8659 68.822 22.3347C68.5251 22.7879 68.2203 23.2333 67.9078 23.6709C67.7046 23.9522 67.4155 24.2725 67.0405 24.632C66.6811 24.9914 66.2904 25.3039 65.8684 25.5696C65.4621 25.8353 65.0714 25.9681 64.6964 25.9681Z" fill="#0276FF"/>
<path d="M27.3711 14.903C28.0797 15.0371 28.7305 15.7169 28.8335 16.4306C28.9394 17.1649 28.4172 17.6648 27.6882 17.5269C26.9796 17.3929 26.3289 16.7131 26.2259 15.9993C26.1199 15.2651 26.6422 14.7651 27.3711 14.903ZM24.3447 14.4767C25.0533 14.6108 25.704 15.2906 25.807 16.0043C25.913 16.7386 25.3907 17.2385 24.6618 17.1006C23.9532 16.9666 23.3024 16.2868 23.1994 15.573C23.0935 14.8388 23.6157 14.3388 24.3447 14.4767ZM22.4565 16.2855C23.165 16.4196 23.8158 17.0994 23.9188 17.8131C24.0247 18.5474 23.5025 19.0473 22.7735 18.9094C22.0649 18.7754 21.4142 18.0956 21.3112 17.3818C21.2052 16.6476 21.7275 16.1476 22.4565 16.2855ZM22.7981 19.3581C23.5067 19.4922 24.1574 20.172 24.2604 20.8857C24.3664 21.62 23.8441 22.1199 23.1152 21.982C22.4066 21.848 21.7558 21.1682 21.6528 20.4544C21.5469 19.7202 22.0691 19.2202 22.7981 19.3581Z" fill="black"/>
<path d="M69.3142 16.7023C69.9386 17.5858 71.2553 17.2906 71.2502 16.1855C71.2426 14.54 70.9788 13.5621 70.3426 13.1824C69.7065 12.8028 68.7205 13.0347 67.2687 13.8092C66.2936 14.3292 66.6587 15.6282 67.7328 15.7585C68.2232 15.8179 69.029 16.2989 69.3142 16.7023ZM67.4429 10.2224C66.7823 10.5115 66.3 11.3196 66.3591 12.0383C66.42 12.7777 67.0408 13.1482 67.7205 12.8508C68.3812 12.5617 68.8635 11.7537 68.8043 11.0349C68.7434 10.2956 68.1226 9.92504 67.4429 10.2224ZM70.2975 9.13031C69.6368 9.41939 69.1545 10.2275 69.2137 10.9462C69.2746 11.6856 69.8954 12.0561 70.5751 11.7587C71.2357 11.4696 71.718 10.6616 71.6588 9.94283C71.598 9.20346 70.9771 8.83293 70.2975 9.13031ZM72.5423 10.4712C71.8816 10.7603 71.3993 11.5683 71.4585 12.2871C71.5194 13.0264 72.1402 13.397 72.8199 13.0996C73.4806 12.8105 73.9628 12.0024 73.9037 11.2837C73.8428 10.5443 73.222 10.1738 72.5423 10.4712ZM72.8963 13.5424C72.2356 13.8315 71.7533 14.6395 71.8125 15.3583C71.8733 16.0976 72.4942 16.4682 73.1738 16.1708C73.8345 15.8817 74.3168 15.0736 74.2576 14.3549C74.1967 13.6155 73.5759 13.245 72.8963 13.5424Z" fill="black"/>
<path d="M24.2526 4.76609C24.1507 4.7693 24.0616 4.74099 23.9852 4.68118C23.916 4.62012 23.8727 4.53989 23.8553 4.44048C23.8465 4.39078 23.8479 4.33566 23.8592 4.27512C23.8777 4.21334 23.908 4.1568 23.9503 4.10549C24.0264 3.99702 24.2669 3.90734 24.6716 3.83646C24.6799 3.54959 24.6592 3.26415 24.6094 2.98012C24.5908 2.87361 24.5711 2.78193 24.5503 2.70507C24.5295 2.6282 24.5154 2.56847 24.5079 2.52587C24.4806 2.36965 24.5169 2.24254 24.6168 2.14454C24.7238 2.0453 24.8519 1.98262 25.001 1.9565C25.1856 1.92417 25.318 1.94857 25.398 2.02968C25.4852 2.10956 25.5506 2.27375 25.5941 2.52227C25.6587 2.8915 25.6902 3.25923 25.6885 3.62545C25.8021 3.60555 25.9571 3.5711 26.1534 3.52208C26.4207 3.46062 26.6147 3.41933 26.7355 3.39819C26.8562 3.37705 26.9647 3.39097 27.0611 3.43995C27.1634 3.48059 27.2238 3.55417 27.2425 3.66068C27.291 3.9376 27.1953 4.12267 26.9555 4.2159C26.704 4.32581 26.3025 4.43637 25.7512 4.54756C25.7784 4.82822 25.8206 5.13186 25.8778 5.45848C25.9673 5.96973 26.0726 6.38306 26.1937 6.6985C26.2761 6.91826 26.3763 7.07269 26.4944 7.16179C26.6183 7.24254 26.7832 7.26489 26.9891 7.22883C27.1099 7.20769 27.2285 7.15398 27.3451 7.06769C27.4216 7.00306 27.4954 6.96453 27.5664 6.9521C27.6658 6.93469 27.7424 6.9542 27.7962 7.01065C27.8571 7.06585 27.8969 7.1467 27.9155 7.25321C27.9503 7.45203 27.8731 7.63755 27.6837 7.80976C27.493 7.97488 27.2309 8.08666 26.8971 8.1451C26.6912 8.18116 26.473 8.16814 26.2426 8.10604C26.0193 8.04269 25.8236 7.9489 25.6554 7.82465C25.6304 7.80708 25.577 7.73226 25.4954 7.6002C25.4137 7.46814 25.3373 7.32418 25.2661 7.16833C25.1366 6.84703 25.019 6.38461 24.9133 5.78106C24.8673 5.51834 24.82 5.16437 24.7713 4.71916L24.2526 4.76609Z" fill="black"/>
<path d="M19.6954 7.79816C19.5147 7.39727 19.4539 7.0254 19.5128 6.68254C19.5688 6.33312 19.7012 5.96902 19.91 5.59025C19.9724 5.48306 20.1017 5.35759 20.2978 5.21384C20.491 5.06351 20.6698 4.95133 20.8341 4.87727C21.0312 4.78841 21.2575 4.73782 21.5129 4.72551C21.7719 4.70367 21.9941 4.71422 22.1795 4.75716C22.5026 4.82501 22.7635 4.9565 22.9621 5.15162C23.1578 5.34017 23.3282 5.59545 23.4734 5.91748C23.5356 6.05549 23.5174 6.22576 23.4189 6.42829C23.3241 6.62129 23.1879 6.75777 23.0105 6.83775L22.6314 6.99673C22.4408 7.08263 22.1711 7.21213 21.8221 7.38522L21.6195 7.48839C21.4809 7.56669 21.3754 7.62214 21.3031 7.65472C21.1979 7.70212 21.0474 7.75414 20.8516 7.81079C21.0171 8.10782 21.2417 8.29915 21.5254 8.38477C21.8061 8.46382 22.0648 8.45002 22.3014 8.34339C22.7154 8.15678 22.9676 7.9443 23.0578 7.70595C23.1514 7.54516 23.2153 7.44126 23.2494 7.39424C23.2836 7.34721 23.3499 7.30149 23.4485 7.25706C23.5537 7.20966 23.6679 7.21748 23.7912 7.28052C23.9145 7.34355 23.9983 7.42436 24.0428 7.52294C24.0931 7.63466 24.076 7.78078 23.9913 7.96127C23.9102 8.13224 23.7828 8.33199 23.609 8.56053C23.5079 8.66939 23.3577 8.7924 23.1586 8.92958C22.9595 9.06676 22.7877 9.16794 22.6431 9.2331C22.4131 9.33678 22.1271 9.38658 21.7853 9.38251C21.4405 9.37186 21.1621 9.31549 20.95 9.2134C20.738 9.1113 20.5112 8.9328 20.2698 8.67788C20.035 8.42 19.8435 8.12676 19.6954 7.79816ZM21.5372 6.64782C22.0038 6.43751 22.3381 6.26705 22.5402 6.13645C22.4411 5.95178 22.3124 5.824 22.1539 5.7531C21.9925 5.67562 21.8005 5.63564 21.578 5.63314C21.507 5.63351 21.4455 5.63749 21.3936 5.64508C21.3417 5.65267 21.2861 5.6698 21.227 5.69646C20.9247 5.83271 20.7054 6.03038 20.5691 6.28947C20.4395 6.54559 20.4127 6.81069 20.4888 7.08477C20.8262 6.95638 21.1757 6.81073 21.5372 6.64782Z" fill="black"/>
<path d="M15.5656 11.4559C15.39 11.2457 15.2531 11.0032 15.1549 10.7282C15.0521 10.4478 14.9904 10.1659 14.9697 9.88256C14.949 9.59924 15.0308 9.28671 15.215 8.94498C15.3945 8.59771 15.5921 8.33396 15.8079 8.15371C16.0292 7.96883 16.2786 7.81208 16.5563 7.68344C16.8395 7.55017 17.0785 7.51019 17.2733 7.56347C17.7183 7.68013 18.0564 7.87676 18.2875 8.15337C18.4123 8.30273 18.4854 8.4577 18.5068 8.61827C18.5338 8.77422 18.54 8.96158 18.5255 9.18034C18.5146 9.35849 18.4207 9.54966 18.2438 9.75386C18.0724 9.95344 17.8871 10.1364 17.6879 10.3028C17.5607 10.4091 17.3965 10.5274 17.1955 10.6578C16.9898 10.7827 16.7851 10.8974 16.5812 11.002C16.6847 11.1034 16.8025 11.1881 16.9346 11.2563C17.0667 11.3244 17.1862 11.3607 17.2933 11.3652C17.4917 11.3779 17.6606 11.3495 17.7999 11.2801C17.9447 11.2061 18.1112 11.0905 18.2993 10.9333C18.4984 10.767 18.656 10.5789 18.772 10.3693C18.8687 10.2039 18.9613 10.0843 19.0499 10.0104C19.155 9.92254 19.2629 9.88872 19.3737 9.90889C19.4799 9.92352 19.5745 9.98063 19.6577 10.0802C19.7733 10.2185 19.7878 10.3989 19.7013 10.6215C19.6148 10.844 19.485 11.0652 19.3117 11.2851C19.1394 11.4948 18.9896 11.6529 18.8624 11.7592C18.6024 11.9764 18.3114 12.1397 17.9894 12.249C17.6674 12.3583 17.3546 12.3942 17.0509 12.3568C16.7887 12.3128 16.5288 12.2153 16.2711 12.0642C16.0087 11.9076 15.7736 11.7049 15.5656 11.4559ZM16.4387 8.82438C16.317 8.92606 16.2161 9.05263 16.1359 9.2041C16.0512 9.35004 16.0048 9.49685 15.9967 9.64453C15.9849 9.83283 15.9874 9.97635 16.0041 10.0751C16.0218 10.1637 16.0713 10.2679 16.1527 10.3878C16.3279 10.3165 16.6341 10.0983 17.0711 9.73318C17.309 9.53444 17.4615 9.34596 17.5287 9.16774C17.6014 8.9849 17.5892 8.8354 17.4921 8.71922C17.395 8.60305 17.2353 8.55803 17.0129 8.58415C16.7905 8.61027 16.5991 8.69035 16.4387 8.82438Z" fill="black"/>
<path d="M10.5441 11.3598C10.5859 11.268 10.699 11.1848 10.8834 11.1102C11.0642 11.0262 11.1972 11.0035 11.2825 11.0423C11.6828 11.2244 12.2247 11.4867 12.9083 11.8293C13.076 11.9135 13.2797 12.014 13.5195 12.131C13.7527 12.245 14.0268 12.3737 14.3418 12.5169C15.3392 12.9706 16.101 13.2458 16.6271 13.3425C16.7816 13.4207 16.8681 13.5353 16.8866 13.6862C16.8985 13.8342 16.8776 13.9672 16.8238 14.0853C16.7045 14.3478 16.5335 14.4799 16.311 14.4816C16.0914 14.4768 15.8111 14.3968 15.4698 14.2416C14.2034 13.6656 13.0447 13.1228 11.9936 12.613C12.4903 13.7496 12.9286 14.6578 13.3084 15.3374C13.3084 15.3374 13.3209 15.4143 13.346 15.5683C13.3937 15.7246 13.4011 15.8388 13.3683 15.911C13.2907 16.0816 13.1839 16.2033 13.0478 16.276C12.9118 16.3488 12.7379 16.4004 12.5261 16.4307L11.6419 16.5988C11.0333 16.7179 10.5766 16.7993 10.2717 16.8428C10.8754 17.1173 11.7091 17.4609 12.7727 17.8734C13.3907 18.099 13.8507 18.2805 14.1525 18.4178C14.31 18.4894 14.4266 18.5899 14.5023 18.7194C14.5715 18.8459 14.5673 18.9945 14.4897 19.1651C14.4121 19.3357 14.3151 19.4618 14.1988 19.5435C14.0854 19.6187 13.9616 19.6297 13.8274 19.5766C13.7188 19.5193 13.5366 19.4324 13.2807 19.316C12.7689 19.0832 12.138 18.8161 11.3882 18.5147L10.8477 18.2926L10.1498 17.9989C9.94337 17.913 9.70416 17.8121 9.43214 17.6963C9.15356 17.5775 8.8535 17.445 8.53197 17.2988C8.13826 17.1197 8.0384 16.8169 8.23239 16.3904C8.29208 16.2591 8.38458 16.1428 8.50989 16.0414C8.63818 15.9335 8.77959 15.875 8.9341 15.8661C9.18764 15.9181 9.65627 15.8976 10.34 15.8047C11.0237 15.7118 11.6716 15.6105 12.2838 15.5009C12.0476 15.045 11.8795 14.6835 11.7793 14.4162C11.601 13.955 11.4203 13.56 11.2373 13.2312C11.0572 12.8959 10.8288 12.5188 10.552 12.0999C10.5002 12.005 10.4733 11.8899 10.4716 11.7545C10.4633 11.6161 10.4874 11.4845 10.5441 11.3598Z" fill="black"/>
</g>
<defs>
<filter id="filter0_f_117_55" x="-10.803" y="73.6686" width="104.813" height="72.9007" filterUnits="userSpaceOnUse" color-interpolation-filters="sRGB">
<feFlood flood-opacity="0" result="BackgroundImageFix"/>
<feBlend mode="normal" in="SourceGraphic" in2="BackgroundImageFix" result="shape"/>
<feGaussianBlur stdDeviation="12.4467" result="effect1_foregroundBlur_117_55"/>
</filter>
<clipPath id="clip0_117_55">
<rect width="82" height="146" fill="white" transform="matrix(-1 0 0 1 82 0)"/>
</clipPath>
</defs>
</svg>
