<svg width="83" height="147" viewBox="0 0 83 147" fill="none" xmlns="http://www.w3.org/2000/svg">
<g clip-path="url(#clip0_170_3378)">
<g opacity="0.83" filter="url(#filter0_f_170_3378)">
<ellipse cx="41.8605" cy="110.467" rx="28.8248" ry="7.71802" transform="rotate(-18.042 41.8605 110.467)" fill="#0F558B"/>
</g>
<path d="M49.1456 63.7673C50.7391 64.3127 52.354 65.3715 53.0813 69.0398C53.8834 72.1859 55.3412 75.127 57.3592 77.6705C59.3056 80.3121 60.5676 83.3708 59.0276 85.6701C57.4875 87.9695 52.846 90.3972 48.8141 88.1727C44.7822 85.9482 44.4292 82.7505 43.4667 79.3388C42.5042 75.9272 41.5416 71.1253 41.7983 68.4944C41.8352 67.639 42.0769 66.8051 42.5031 66.0626C42.9292 65.3201 43.5275 64.6908 44.2475 64.2275C44.9674 63.7643 45.7881 63.4807 46.6405 63.4007C47.4928 63.3206 48.352 63.4463 49.1456 63.7673Z" fill="#E4ECF1"/>
<g style="mix-blend-mode:multiply" opacity="0.8">
<path d="M46.0869 69.4675C44.8166 68.5872 43.4538 67.8484 42.0229 67.2644C42.2296 66.5464 42.5845 65.8797 43.0646 65.3072C43.5448 64.7347 44.1396 64.2693 44.8107 63.9408C45.4818 63.6123 46.2142 63.4281 46.9609 63.4C47.7075 63.372 48.4518 63.5007 49.1456 63.7779C50.7391 64.3233 52.354 65.3821 53.0813 69.0504C53.8834 72.1965 55.3412 75.1376 57.3592 77.6811C59.3056 80.3227 60.5676 83.3814 59.0276 85.6808C57.4875 87.9802 52.846 90.4079 48.8141 88.1834C47.7038 87.5994 46.729 86.7881 45.9532 85.8022C45.1775 84.8164 44.6181 83.6781 44.3116 82.4617C46.4505 80.1944 49.306 83.1247 49.3702 82.5472C49.4344 81.9697 47.9799 79.3388 47.2847 76.1304C46.5896 72.9219 46.7821 70.2375 46.0869 69.4675Z" fill="#C2E0F2"/>
</g>
<g style="mix-blend-mode:multiply" opacity="0.8">
<path d="M46.0869 69.4675C44.8166 68.5872 43.4538 67.8484 42.0229 67.2644C42.2296 66.5464 42.5845 65.8797 43.0646 65.3072C43.5448 64.7347 44.1396 64.2693 44.8107 63.9408C45.4818 63.6123 46.2142 63.4281 46.9609 63.4C47.7075 63.372 48.4518 63.5007 49.1456 63.7779C50.7391 64.3233 52.354 65.3821 53.0813 69.0504C53.8834 72.1965 55.3412 75.1376 57.3592 77.6811C59.3056 80.3227 60.5676 83.3814 59.0276 85.6808C57.4875 87.9802 52.846 90.4079 48.8141 88.1834C47.7038 87.5994 46.729 86.7881 45.9532 85.8022C45.1775 84.8164 44.6181 83.6781 44.3116 82.4617C46.4505 80.1944 49.306 83.1247 49.3702 82.5472C49.4344 81.9697 47.9799 79.3388 47.2847 76.1304C46.5896 72.9219 46.7821 70.2375 46.0869 69.4675Z" fill="#C2E0F2"/>
</g>
<g style="mix-blend-mode:multiply">
<path d="M50.2151 67.2644C51.1456 67.3393 51.8086 68.6547 51.7017 70.2162C51.5948 71.7776 50.7285 72.9968 49.798 72.9219C48.8676 72.8471 48.1938 71.5316 48.3115 69.9702C48.4291 68.4087 49.274 67.2644 50.2151 67.2644Z" fill="#B5CBD8"/>
</g>
<path d="M46.9425 82.4189C49.4023 82.8895 50.7819 84.6969 52.0439 86.6968C52.5197 87.4549 53.06 88.1705 53.6588 88.8357C52.0226 89.1755 50.3193 88.9413 48.8355 88.1727C47.8117 87.6329 46.9059 86.8942 46.1713 85.9999C45.4367 85.1055 44.8881 84.0735 44.5576 82.9643C44.888 82.699 45.2743 82.512 45.6874 82.4176C46.1005 82.3231 46.5296 82.3235 46.9425 82.4189Z" fill="#5385A6"/>
<path d="M49.1456 63.7673C50.1048 64.0601 50.9541 64.6338 51.584 65.4143C51.0524 65.4696 50.5348 65.618 50.0546 65.8527C48.6536 66.5158 47.3703 67.2431 45.6805 66.9971C45.4449 67.2565 45.2534 67.5527 45.1137 67.8741C44.2842 67.6819 43.5045 67.3175 42.825 66.8046C42.9201 66.5571 43.0345 66.3175 43.1672 66.088L42.6753 65.8207C43.3617 64.7961 44.3757 64.0349 45.5511 63.6619C46.7266 63.2888 47.994 63.326 49.1456 63.7673Z" fill="#5385A6"/>
<path d="M43.1887 69.0292C44.4934 69.2645 44.6325 71.1146 44.6753 74.5904C44.6753 77.6064 45.9479 80.5581 45.2314 80.7078C44.5148 80.8576 43.7448 78.109 43.1459 75.0075C42.547 71.9061 41.9695 68.8153 43.1887 69.0292Z" fill="white"/>
<path d="M46.5898 82.9108C48.3544 83.0499 51.4559 85.6166 52.0334 88.5042C52.2259 89.4667 49.1031 91.7126 45.4134 90.6432C41.7237 89.5737 42.8038 82.6328 46.5898 82.9108Z" fill="#E4ECF1"/>
<g style="mix-blend-mode:multiply" opacity="0.8">
<path d="M44.2261 89.9588C45.1221 90.1418 46.0532 90.0328 46.8828 89.6479C47.7123 89.2629 48.3967 88.6222 48.8355 87.8198C49.6804 86.13 48.7179 84.3761 48.012 83.4136C48.9936 83.945 49.8571 84.6702 50.5502 85.5453C51.2433 86.4204 51.7514 87.427 52.0439 88.5043C52.2364 89.4668 49.1136 91.7127 45.4239 90.6432C44.9761 90.5129 44.5657 90.2783 44.2261 89.9588Z" fill="#C2E0F2"/>
</g>
<g style="mix-blend-mode:multiply" opacity="0.8">
<path d="M44.2261 89.9588C45.1221 90.1418 46.0532 90.0328 46.8828 89.6479C47.7123 89.2629 48.3967 88.6222 48.8355 87.8198C49.6804 86.13 48.7179 84.3761 48.012 83.4136C48.9936 83.945 49.8571 84.6702 50.5502 85.5453C51.2433 86.4204 51.7514 87.427 52.0439 88.5043C52.2364 89.4668 49.1136 91.7127 45.4239 90.6432C44.9761 90.5129 44.5657 90.2783 44.2261 89.9588Z" fill="#C2E0F2"/>
</g>
<path d="M46.0762 83.5846C47.5734 84.237 45.9906 87.8625 44.4827 87.0711C42.9747 86.2797 44.8035 83.0285 46.0762 83.5846Z" fill="white"/>
<path d="M47.1992 42.4205C48.8035 41.8002 52.1402 43.0301 52.6963 45.0621C53.5947 48.3988 52.4825 62.2378 51.8622 63.6282C51.2419 65.0185 47.1351 66.4837 45.6057 66.0666C44.0764 65.6495 41.8412 64.8794 41.146 63.4891C40.4508 62.0988 40.8786 56.5375 41.7877 51.4682C42.6968 46.3989 45.4988 43.0942 47.1992 42.4205Z" fill="#E4ECF1"/>
<g style="mix-blend-mode:multiply" opacity="0.8">
<path d="M51.8622 63.6282C51.2312 65.0186 47.1351 66.4837 45.6058 66.0666C44.0764 65.6495 41.8412 64.8795 41.146 63.4892C41.087 63.3511 41.0405 63.2079 41.007 63.0614C42.5898 64.4838 44.932 64.9223 45.2849 64.3234C45.6378 63.7245 45.7662 56.6767 46.3544 51.9496C46.9426 47.2225 48.2474 44.9231 49.905 44.3028C50.3906 44.1304 50.9173 44.1108 51.4144 44.2465C51.9115 44.3822 52.3551 44.6669 52.6857 45.0621C53.5947 48.3989 52.4825 62.2379 51.8622 63.6282Z" fill="#C2E0F2"/>
</g>
<path d="M47.8943 43.3295C48.9638 44.0247 46.2259 46.1743 44.5575 49.9282C42.6004 54.3344 42.333 62.5801 41.7769 62.5159C41.2208 62.4518 41.285 56.9547 42.4721 51.5966C43.6592 46.2385 46.6965 42.5916 47.8943 43.3295Z" fill="white"/>
<path d="M22.8044 81.5311C24.2268 82.3118 26.3337 83.5738 27.0823 85.146C27.831 86.7181 28.0983 92.7499 26.9005 97.1989C25.7027 101.648 24.3017 105.348 21.4248 106.183C18.5479 107.017 17.0079 106.183 14.1951 104.514C10.8584 102.482 11.1364 100.439 11.9706 98.3112C12.8048 96.183 14.3556 94.6857 15.1791 91.4452C15.6965 89.012 16.3354 86.6062 17.0934 84.2369C17.8207 81.9482 20.4409 80.2264 22.8044 81.5311Z" fill="#E4ECF1"/>
<g style="mix-blend-mode:multiply" opacity="0.8">
<path d="M11.9599 98.2793L12.2166 97.6804C12.6784 97.5182 13.1726 97.4705 13.6569 97.5413C14.1412 97.6121 14.6012 97.7993 14.9972 98.0868C17.2218 99.552 17.703 102.076 18.1201 101.498C19.1043 99.8623 19.7447 98.0429 20.0024 96.151C20.6227 92.9426 21.1895 88.5791 20.7617 87.8091C20.3339 87.0391 17.5533 85.7557 16.687 85.3172C16.7833 84.975 16.9009 84.6221 17.0292 84.2478C17.7779 81.9591 20.4409 80.2372 22.8044 81.542C24.2268 82.3227 26.3337 83.5847 27.0823 85.1568C27.831 86.729 28.0983 92.7608 26.9005 97.2098C25.7027 101.659 24.3017 105.359 21.4248 106.193C18.5479 107.028 17.0079 106.193 14.1951 104.525C10.8477 102.482 11.1257 100.418 11.9599 98.2793Z" fill="#C2E0F2"/>
</g>
<path d="M26.2053 83.9375C25.4428 84.105 24.7031 84.3636 24.0022 84.7075C22.1627 85.5738 21.7028 86.3438 20.0024 85.6486C18.9842 85.2454 17.9944 84.7738 17.0399 84.2369C17.7779 81.9482 20.4409 80.2264 22.8044 81.5311C24.0481 82.1651 25.1936 82.9756 26.2053 83.9375Z" fill="#5385A6"/>
<path d="M18.2911 106.429C16.8174 106.045 15.4258 105.396 14.1843 104.514C10.9759 102.536 11.1149 100.557 11.8956 98.4932C12.3263 98.2788 12.8044 98.1771 13.2851 98.1977C13.7657 98.2182 14.2334 98.3604 14.6442 98.6108C17.1788 99.9798 18.3232 103.83 18.2911 106.429Z" fill="#5385A6"/>
<g style="mix-blend-mode:multiply">
<path d="M24.9434 86.0016C25.8632 86.2262 26.291 87.6379 25.9166 89.2101C25.5423 90.7822 24.4942 91.7875 23.5852 91.5522C22.6761 91.3169 22.2376 89.9159 22.612 88.3438C22.9863 86.7717 24.0344 85.7771 24.9434 86.0016Z" fill="#B5CBD8"/>
</g>
<path d="M22.4302 84.2156C21.8772 84.3591 21.3586 84.6119 20.9049 84.959C20.4512 85.3062 20.0716 85.7407 19.7886 86.2369L17.7138 85.1674C17.673 84.6264 17.8162 84.0875 18.1202 83.6381C18.8293 83.3646 19.5958 83.2741 20.3491 83.375C21.1024 83.476 21.8181 83.7651 22.4302 84.2156Z" fill="#5385A6"/>
<path d="M17.4251 86.7931C18.2486 87.1139 17.6177 89.5202 17.222 92.3543C16.73 95.8301 17.3289 96.8034 16.8369 97.5627C16.5803 97.9798 15.7675 97.4664 15.0616 97.0814C14.3558 96.6964 13.8531 96.9103 13.8103 96.3863C13.7675 95.8622 15.1044 94.4719 15.8316 91.6913C16.3557 89.7234 16.7514 86.515 17.4251 86.7931Z" fill="white"/>
<path d="M17.2645 60.1951C19.104 59.3289 22.1734 60.5588 23.2642 62.9116C24.3551 65.2644 27.1678 77.9591 27.2534 80.5259C27.3389 83.0926 21.9916 85.6059 20.0879 84.8893C18.1494 84.3392 16.4324 83.1945 15.179 81.6167C14.0026 79.8949 12.6443 62.3662 17.2645 60.1951Z" fill="#E4ECF1"/>
<g style="mix-blend-mode:multiply" opacity="0.8">
<path d="M20.0879 84.8894C18.1494 84.3393 16.4324 83.1946 15.179 81.6168C15.0154 81.3147 14.8965 80.9905 14.8261 80.6543C16.2271 82.0232 18.4302 83.4563 19.2644 83.2531C20.3339 82.975 19.1788 78.526 18.719 74.1732C18.2591 69.8205 17.9062 65.2752 19.628 62.9117C21.3499 60.5481 23.2642 62.9117 23.2642 62.9117C24.3337 65.2752 27.1678 77.9806 27.2534 80.5259C27.3389 83.0713 21.9916 85.6059 20.0879 84.8894Z" fill="#C2E0F2"/>
</g>
<path d="M18.2485 61.2326C19.6709 61.4144 17.7565 63.81 17.0828 65.2538C16.026 67.9326 15.5486 70.8047 15.6817 73.6813C15.8101 76.4085 16.0881 80.0982 15.6817 80.0982C15.2753 80.0982 14.4518 73.9701 14.7299 69.9595C15.008 65.949 16.1309 60.9652 18.2485 61.2326Z" fill="white"/>
<path d="M14.1632 99.1669C15.7888 99.8834 17.8422 103.338 17.3717 106.258C17.2326 107.231 13.5536 108.268 10.4201 106.044C7.2865 103.819 10.6874 97.6376 14.1632 99.1669Z" fill="#E4ECF1"/>
<g style="mix-blend-mode:multiply" opacity="0.8">
<path d="M9.57517 105.017C10.3613 105.489 11.2783 105.696 12.191 105.607C13.1037 105.519 13.9638 105.139 14.6445 104.525C16.0027 103.209 15.714 101.242 15.3503 100.087C16.0943 100.922 16.6615 101.9 17.0181 102.96C17.3746 104.02 17.5131 105.142 17.4251 106.257C17.2861 107.231 13.6071 108.268 10.4735 106.044C10.0996 105.774 9.79227 105.423 9.57517 105.017Z" fill="#C2E0F2"/>
</g>
<path d="M13.4573 99.616C14.6444 100.685 11.9493 103.627 10.7943 102.386C9.63928 101.145 12.4734 98.6749 13.4573 99.616Z" fill="white"/>
<path d="M73.9684 29.1377C72.5674 28.1751 75.9576 39.8966 65.5409 46.6129L63.8725 45.4472C75.2731 39.2442 70.0755 24.2181 74.1609 26.5388C78.2463 28.8596 80.3745 42.1104 69.3376 49.2545L67.5301 48.0139C77.2945 41.18 76.6421 30.9023 73.9684 29.1377Z" fill="#5385A6"/>
<g style="mix-blend-mode:multiply">
<path d="M71.1447 47.03C73.1949 45.0089 74.7861 42.5703 75.8102 39.8797C76.8344 37.1892 77.2676 34.3098 77.0803 31.437C77.7954 34.8431 77.4345 38.3873 76.0473 41.5793C74.6602 44.7713 72.3154 47.4533 69.3373 49.2545L67.5299 48.0139C68.338 47.4508 69.1063 46.8326 69.8293 46.1637C70.4389 46.5701 71.1447 47.03 71.1447 47.03Z" fill="#B5CBD8"/>
</g>
<g style="mix-blend-mode:multiply">
<path d="M63.8723 45.4471C64.7423 44.9628 65.5595 44.3893 66.3108 43.736L67.3802 44.2065C73.7008 39.0624 72.7276 31.9183 72.9843 29.4905C73.1447 27.9719 74.1179 29.0735 74.4495 29.4905C74.3185 29.3357 74.1674 29.199 74.0003 29.0841C72.5993 28.1216 75.9895 39.8431 65.5728 46.5594L63.8723 45.4471Z" fill="#B5CBD8"/>
</g>
<path d="M67.0166 44.9872C72.2356 48.1956 74.3425 53.051 73.6046 61.1149C73.4123 63.3993 72.6711 65.6036 71.444 67.5401C70.217 69.4766 68.5403 71.088 66.5567 72.2374C63.1665 74.3764 59.4982 75.6811 57.1988 78.8147C50.5039 87.948 39.2102 94.397 28.0877 87.3705C25.6231 85.8799 23.5747 83.7913 22.1323 81.2982C20.6898 78.8052 19.9 75.9884 19.836 73.1088C19.772 70.2293 20.4359 67.3802 21.7662 64.8255C23.0965 62.2708 25.0501 60.0933 27.446 58.4947C34.4832 53.682 37.9162 55.1579 42.4187 52.3773C46.365 49.9068 47.4452 47.693 51.0386 45.5219C57.1026 41.8322 62.9419 42.4846 67.0166 44.9872Z" fill="#E4ECF1"/>
<g style="mix-blend-mode:multiply" opacity="0.8">
<path d="M20.7724 78.2693C26.9218 87.4882 33.467 85.1995 33.467 82.1515C33.467 77.7025 34.3012 72.1412 39.5844 68.6227C44.8676 65.1041 50.5252 67.5532 54.5571 65.1041C58.589 62.655 61.2734 54.4307 66.6529 51.6608C69.765 50.0459 71.8612 50.9977 73.2301 53.3506C73.776 55.9012 73.9025 58.5237 73.6045 61.115C73.4122 63.3994 72.671 65.6036 71.4439 67.5401C70.2168 69.4766 68.5402 71.0881 66.5566 72.2375C63.1664 74.3765 59.4981 75.6812 57.1987 78.8148C50.5038 87.9481 39.2101 94.397 28.0876 87.3706C24.6754 85.268 22.092 82.0538 20.7724 78.2693Z" fill="#C2E0F2"/>
</g>
<g style="mix-blend-mode:multiply" opacity="0.5">
<path d="M23.8954 83.713C32.0341 91.0924 37.2638 86.237 37.2638 86.237L47.7661 73.6814C48.6858 78.4085 49.7125 80.2586 51.1884 80.3549C52.6643 80.4511 53.3273 78.6865 57.7764 74.7936C60.5998 72.3231 62.5034 70.9863 62.5034 70.9863C61.8985 69.9458 61.5049 68.7962 61.3452 67.6032C61.1856 66.4103 61.263 65.1976 61.573 64.0347L73.4335 62.0883C73.1103 64.189 72.3212 66.1909 71.1239 67.9471C69.9266 69.7032 68.3514 71.1692 66.514 72.2376C63.1237 74.3765 59.4554 75.6813 57.1561 78.8149C50.4611 87.9482 39.1675 94.3971 28.0449 87.3707C26.4869 86.3655 25.0882 85.1326 23.8954 83.713Z" fill="#C2E0F2"/>
</g>
<path d="M58.3965 44.1531C63.4016 43.5007 65.8186 46.0033 64.5139 47.4898C63.2091 48.9764 58.6745 50.2705 55.6158 51.1047C51.4128 52.249 48.9102 52.356 45.1457 55.928C41.7126 59.1364 38.2261 62.5053 34.4509 62.5053C27.7774 62.5053 28.034 57.96 34.2691 56.2061C38.9106 54.8906 43.627 53.4254 46.3221 51.1047C49.0172 48.7839 54.1827 44.6985 58.3965 44.1531Z" fill="white"/>
<path d="M70.7491 52.741C73.6153 53.8105 74.503 58.5589 72.717 63.3502C70.931 68.1414 67.1557 71.1574 64.2895 70.0879C61.4233 69.0184 60.525 64.2699 62.311 59.4787C64.097 54.6874 67.8723 51.6715 70.7491 52.741Z" fill="#364A5B"/>
<path d="M70.1073 54.4308C72.4281 55.2864 73.134 59.1044 71.7009 62.9866C70.2678 66.8688 67.2305 69.2537 64.8776 68.3875C62.5248 67.5212 61.851 63.7139 63.2841 59.8317C64.7172 55.9495 67.7973 53.5752 70.1073 54.4308Z" fill="#2E3C4D"/>
<path d="M44.9745 68.8152C48.0439 69.9595 48.9957 75.0288 47.1135 80.1516C45.2312 85.2744 41.1779 88.4828 38.1085 87.3385C35.0391 86.1941 34.0659 81.1676 36.0016 76.0127C37.9374 70.8579 41.9051 67.6708 44.9745 68.8152Z" fill="#364A5B"/>
<path d="M44.3009 70.6333C46.7714 71.5424 47.5093 75.6278 46.0014 79.7452C44.4934 83.8627 41.2208 86.4509 38.761 85.5311C36.3012 84.6114 35.5526 80.526 37.0606 76.4192C38.5685 72.3124 41.8304 69.7136 44.3009 70.6333Z" fill="#2E3C4D"/>
<path d="M39.5844 59.0722C43.8623 62.4518 37.7022 64.0132 33.4457 68.4622C29.7774 72.2909 31.0607 80.2264 25.6813 76.9645C19.9703 73.5208 22.5263 66.2698 25.4995 63.0614C28.4726 59.8529 35.5097 55.8317 39.5844 59.0722Z" fill="#2E3C4D"/>
<path d="M25.4995 63.0614C28.4619 59.9064 35.5098 55.8317 39.5845 59.0722C41.0176 60.2166 41.2636 61.147 40.8037 62.0454C40.5743 61.3702 40.1265 60.7907 39.531 60.3984C35.7665 57.4039 29.264 61.1684 26.5262 64.0774C23.7883 66.9864 21.4248 73.7027 26.6973 76.9111C27.2386 77.2762 27.8573 77.5105 28.5047 77.5956C28.0176 77.7188 27.5083 77.726 27.0178 77.6164C26.5274 77.5068 26.0696 77.2835 25.6813 76.9646C19.9596 73.5209 22.5263 66.195 25.4995 63.0614Z" fill="#364A5B"/>
<path d="M47.2742 95.5092C48.6966 96.29 50.8034 97.5412 51.5521 99.1241C52.3007 100.707 52.6215 106.717 51.3703 111.166C50.119 115.615 48.7714 119.326 45.8945 120.161C43.0177 120.995 41.4883 120.161 38.6649 118.492C35.3281 116.45 35.6062 114.418 36.4404 112.279C37.2746 110.14 38.8253 108.653 39.5953 105.423C40.1106 102.985 40.7532 100.575 41.5204 98.2043C42.2583 95.9156 44.9106 94.2045 47.2742 95.5092Z" fill="#E4ECF1"/>
<g style="mix-blend-mode:multiply" opacity="0.8">
<path d="M36.4297 112.279C36.5152 112.075 36.6008 111.883 36.6971 111.69C37.1568 111.526 37.6497 111.478 38.1326 111.549C38.6156 111.619 39.0737 111.808 39.467 112.097C41.6915 113.551 42.1728 116.086 42.6006 115.498C43.5761 113.859 44.2126 112.04 44.4721 110.15C45.1031 106.942 45.6593 102.568 45.2422 101.808C44.8251 101.049 42.0337 99.7551 41.1568 99.3059C41.253 98.9744 41.3707 98.6107 41.5097 98.2364C42.2583 95.9477 44.9106 94.2366 47.2742 95.5413C48.6966 96.3221 50.8034 97.5733 51.5521 99.1562C52.3007 100.739 52.6215 106.749 51.3703 111.198C50.119 115.647 48.7714 119.359 45.8945 120.193C43.0177 121.027 41.4883 120.193 38.6649 118.524C35.3174 116.46 35.5955 114.418 36.4297 112.279Z" fill="#C2E0F2"/>
</g>
<path d="M50.6749 97.9156C49.9139 98.0834 49.1747 98.3382 48.4718 98.6749C46.6323 99.5519 46.1724 100.311 44.472 99.616C43.4518 99.2172 42.4618 98.7455 41.5095 98.2043C42.2582 95.9156 44.9105 94.2045 47.274 95.5092C48.52 96.1394 49.666 96.9503 50.6749 97.9156Z" fill="#5385A6"/>
<path d="M42.7608 120.396C41.2875 120.017 39.8957 119.371 38.654 118.492C35.4456 116.514 35.5846 114.535 36.3653 112.471C36.798 112.257 37.2777 112.155 37.7601 112.176C38.2424 112.196 38.7118 112.338 39.1246 112.589C41.6593 113.947 42.7929 117.797 42.7608 120.396Z" fill="#5385A6"/>
<g style="mix-blend-mode:multiply">
<path d="M49.4237 99.969C50.3327 100.204 50.7605 101.616 50.3862 103.177C50.0119 104.739 48.9638 105.744 48.0547 105.52C47.1457 105.295 46.7072 103.873 47.0815 102.311C47.4558 100.75 48.5039 99.7444 49.4237 99.969Z" fill="#B5CBD8"/>
</g>
<path d="M46.9105 98.1936C46.356 98.3301 45.8355 98.579 45.3811 98.9248C44.9267 99.2707 44.5481 99.7061 44.2689 100.204L42.13 99.1348C42.0897 98.5923 42.2369 98.0524 42.5471 97.6054C43.2639 97.3217 44.0416 97.2268 44.8056 97.3298C45.5696 97.4328 46.2944 97.7302 46.9105 98.1936Z" fill="#5385A6"/>
<path d="M41.9054 100.76C42.7182 101.092 42.0872 103.488 41.6915 106.322C41.2102 109.797 41.7985 110.771 41.3065 111.541C41.0498 111.947 40.237 111.444 39.5419 111.049C38.8467 110.653 38.3227 110.878 38.2906 110.354C38.2585 109.83 39.5739 108.45 40.3012 105.669C40.8252 103.627 41.2102 100.482 41.9054 100.76Z" fill="white"/>
<path d="M41.7448 74.1625C43.5736 73.2963 46.643 74.5262 47.7338 76.8897C48.8247 79.2533 51.6374 91.9586 51.723 94.504C51.8085 97.0493 46.4612 99.584 44.5575 98.8567C42.6204 98.3095 40.9036 97.1687 39.6486 95.5948C38.4722 93.8623 37.0712 76.3443 41.7448 74.1625Z" fill="#E4ECF1"/>
<g style="mix-blend-mode:multiply" opacity="0.8">
<path d="M44.5576 98.8567C42.6205 98.3095 40.9037 97.1687 39.6488 95.5948C39.4856 95.2888 39.3667 94.9611 39.2958 94.6216C40.6968 96.0012 42.9107 97.4343 43.7341 97.2204C44.8036 96.9531 43.6486 92.504 43.1887 88.1406C42.7288 83.7771 42.4187 79.2532 44.0978 76.8897C45.7768 74.5262 47.7661 76.8897 47.7661 76.8897C48.8355 79.2532 51.6697 91.9586 51.7552 94.504C51.8408 97.0493 46.4613 99.584 44.5576 98.8567Z" fill="#C2E0F2"/>
</g>
<path d="M42.7181 75.2107C44.1406 75.3925 42.2262 77.7881 41.5631 79.2212C40.5059 81.8781 40.0177 84.7272 40.13 87.5845C40.2691 90.301 40.5364 94.0014 40.13 94.0014C39.7236 94.0014 38.9001 87.8733 39.1782 83.852C39.4562 79.8308 40.6113 74.9326 42.7181 75.2107Z" fill="white"/>
<path d="M38.6327 113.145C40.2583 113.851 42.3224 117.316 41.8946 120.236C41.7555 121.198 38.0765 122.246 34.943 120.022C31.8094 117.797 35.1569 111.605 38.6327 113.145Z" fill="#E4ECF1"/>
<g style="mix-blend-mode:multiply" opacity="0.8">
<path d="M34.0446 118.984C34.8307 119.456 35.7478 119.663 36.6605 119.575C37.5732 119.486 38.4333 119.107 39.1139 118.492C40.4829 117.188 40.1834 115.209 39.8198 114.065C40.5653 114.899 41.1336 115.877 41.4902 116.937C41.8468 117.998 41.9844 119.12 41.8946 120.236C41.7556 121.198 38.0766 122.246 34.943 120.022C34.5662 119.751 34.2584 119.396 34.0446 118.984Z" fill="#C2E0F2"/>
</g>
<path d="M37.9269 113.594C39.1247 114.717 36.4189 117.594 35.2639 116.353C34.1088 115.113 36.9216 112.642 37.9269 113.594Z" fill="white"/>
<path d="M71.8613 77.2641C73.4548 77.8095 75.0697 78.8683 75.797 82.5366C76.5991 85.6827 78.0569 88.6238 80.0749 91.1673C82.0213 93.8089 83.2833 96.8676 81.7433 99.167C80.2032 101.466 75.5617 103.894 71.5298 101.67C67.4979 99.445 67.1449 96.2473 66.1824 92.8357C65.2199 89.424 64.2573 84.6221 64.514 81.9912C64.5509 81.1358 64.7926 80.3019 65.2188 79.5594C65.6449 78.8169 66.2432 78.1876 66.9631 77.7244C67.6831 77.2611 68.5038 76.9776 69.3562 76.8975C70.2085 76.8174 71.0676 76.9431 71.8613 77.2641Z" fill="#E4ECF1"/>
<g style="mix-blend-mode:multiply" opacity="0.8">
<path d="M68.8026 82.9643C67.5362 82.0777 66.1727 81.3386 64.7386 80.7612C64.9441 80.0422 65.2981 79.3743 65.7778 78.8007C66.2575 78.227 66.8521 77.7604 67.5233 77.4308C68.1945 77.1012 68.9274 76.9161 69.6746 76.8874C70.4218 76.8586 71.1668 76.9869 71.8613 77.264C73.4548 77.8094 75.0697 78.8682 75.797 82.5365C76.5991 85.6826 78.0569 88.6237 80.0749 91.1672C82.0213 93.8088 83.2833 96.8675 81.7433 99.1669C80.2032 101.466 75.5617 103.894 71.5298 101.669C70.4211 101.085 69.448 100.273 68.6741 99.2873C67.9001 98.3014 67.3427 97.1635 67.038 95.9477C69.1769 93.6804 72.0217 96.6215 72.0859 96.0333C72.1501 95.4451 70.6956 92.7714 70.0004 89.6164C69.3053 86.4615 69.4978 83.7343 68.8026 82.9643Z" fill="#C2E0F2"/>
</g>
<g style="mix-blend-mode:multiply">
<path d="M72.9309 80.7826C73.8613 80.8468 74.5351 82.1729 74.4174 83.7344C74.2998 85.2958 73.4335 86.515 72.5138 86.4294C71.594 86.3439 70.9096 85.0391 71.0272 83.4777C71.1448 81.9162 71.9897 80.7077 72.9309 80.7826Z" fill="#B5CBD8"/>
</g>
<path d="M69.6583 95.9264C72.1181 96.3862 73.4977 98.2043 74.7597 100.204C75.2408 100.959 75.7808 101.674 76.3746 102.343C74.7197 102.672 73.0017 102.411 71.5192 101.605C70.4983 101.064 69.5946 100.327 68.8603 99.4344C68.1261 98.5423 67.5758 97.5136 67.2413 96.4076C67.5801 96.147 67.9744 95.9681 68.3936 95.8846C68.8128 95.8011 69.2456 95.8154 69.6583 95.9264Z" fill="#5385A6"/>
<path d="M71.8612 77.2641C72.8203 77.557 73.6697 78.1307 74.2996 78.9111C73.768 78.9664 73.2503 79.1148 72.7702 79.3496C71.3692 80.0233 70.0965 80.7399 68.3961 80.4939C68.1605 80.7533 67.969 81.0496 67.8292 81.3709C67.0006 81.1763 66.2214 80.8122 65.5406 80.3014C65.6345 80.05 65.7489 79.8068 65.8828 79.5742L65.3908 79.3068C66.0788 78.2841 67.0934 77.5251 68.2688 77.154C69.4442 76.783 70.7107 76.8218 71.8612 77.2641Z" fill="#5385A6"/>
<path d="M65.9472 82.5258C67.252 82.7611 67.391 84.6647 67.4338 88.0871C67.4338 91.103 68.7065 94.0654 67.9899 94.2045C67.2734 94.3435 66.5033 91.6163 65.9044 88.5042C65.3055 85.392 64.6959 82.3119 65.9472 82.5258Z" fill="white"/>
<path d="M69.3053 96.4183C71.0699 96.5466 74.1714 99.1134 74.7596 102.001C74.9521 102.963 71.8293 105.209 68.1289 104.14C64.4285 103.07 65.5193 96.1402 69.3053 96.4183Z" fill="#E4ECF1"/>
<g style="mix-blend-mode:multiply" opacity="0.8">
<path d="M66.9417 103.455C67.8378 103.638 68.7689 103.53 69.5985 103.145C70.428 102.76 71.1124 102.119 71.5512 101.317C72.3961 99.6267 71.4442 97.8728 70.7277 96.9103C71.7096 97.4466 72.573 98.1759 73.2659 99.0544C73.9588 99.9329 74.4669 100.942 74.7596 102.022C74.9521 102.985 71.8293 105.231 68.1289 104.161C67.679 104.032 67.27 103.789 66.9417 103.455Z" fill="#C2E0F2"/>
</g>
<path d="M68.7921 97.0814C70.2894 97.7338 68.7066 101.359 67.2093 100.568C65.712 99.7765 67.5301 96.5253 68.7921 97.0814Z" fill="white"/>
<path d="M69.9148 55.9279C71.519 55.297 74.8558 56.5269 75.4119 58.5695C76.3103 61.9063 75.198 75.6812 74.5777 77.1249C73.9574 78.5687 69.8507 79.9804 68.3213 79.5634C66.792 79.1463 64.5674 78.3762 63.8723 76.9859C63.1771 75.5956 63.6049 70.045 64.5033 64.965C65.4016 59.885 68.2144 56.5696 69.9148 55.9279Z" fill="#E4ECF1"/>
<g style="mix-blend-mode:multiply" opacity="0.8">
<path d="M74.5777 77.1251C73.9467 78.5154 69.8507 79.9806 68.3213 79.5635C66.792 79.1464 64.5674 78.3763 63.8723 76.986C63.8092 76.8521 63.759 76.7124 63.7226 76.5689C65.3054 77.9592 67.6582 78.4191 68.086 77.8202C68.5138 77.2213 68.5673 70.1735 69.1555 65.4464C69.7437 60.7193 70.9629 58.4306 72.6313 57.7996C73.1183 57.6315 73.6448 57.6151 74.1413 57.7526C74.6377 57.8901 75.0808 58.175 75.4119 58.5697C76.3103 61.9171 75.198 75.7347 74.5777 77.1251Z" fill="#C2E0F2"/>
</g>
<path d="M70.6101 56.8264C71.6796 57.5216 68.9418 59.6819 67.2734 63.4358C65.3162 67.842 65.0489 76.0877 64.4927 76.0128C63.9366 75.9379 64.0115 70.4515 65.1879 65.1042C66.3643 59.7568 69.4337 56.0885 70.6101 56.8264Z" fill="white"/>
<path d="M24.9005 35.6508C24.9005 35.6508 24.5583 31.6509 20.8151 34.0038C17.2119 36.5688 14.4354 40.1295 12.8261 44.2494L16.7297 41.0409C16.7297 41.0409 18.7403 37.0518 21.5958 35.4797C23.3391 34.5171 23.3391 36.6882 23.3391 36.6882L24.9005 35.6508Z" fill="#5385A6"/>
<g style="mix-blend-mode:multiply">
<path d="M22.6867 33.7791C23.0431 33.7618 23.3991 33.8205 23.731 33.9514C24.0629 34.0824 24.3632 34.2825 24.6117 34.5384C24.7585 34.8793 24.8557 35.2395 24.9005 35.6079L23.3391 36.6774C23.3391 36.6774 23.3391 34.5384 21.5958 35.4689C18.7403 37.041 16.7297 41.0301 16.7297 41.0301L14.0774 43.1691C17.1254 36.4421 21.2108 33.9074 22.6867 33.7791Z" fill="#B5CBD8"/>
</g>
<path d="M34.4617 36.517C42.6966 41.5007 43.9372 49.5539 41.5844 56.591C39.2315 63.6282 23.5958 72.6118 16.302 74.4085C9.00816 76.2052 5.15805 73.1786 3.33994 71.6172C-0.456699 68.4087 -0.734768 61.8956 2.91214 56.2488C6.77295 50.2704 13.9919 41.5328 18.1201 38.5169C24.5583 33.8219 30.7292 34.2604 34.4617 36.517Z" fill="#E4ECF1"/>
<g style="mix-blend-mode:multiply" opacity="0.8">
<path d="M9.26484 71.4567L33.5098 49.725C33.5098 49.725 35.4242 44.3027 32.9002 40.1639C32.1218 38.8425 31.06 37.7102 29.7914 36.8484C28.5228 35.9866 27.0789 35.4169 25.5636 35.1801C28.5983 34.5282 31.7669 35.0194 34.4617 36.5597C42.6966 41.5435 43.9372 49.5966 41.5844 56.6338C39.2315 63.6709 23.5958 72.6118 16.302 74.4085C9.00817 76.2052 5.15805 73.1786 3.33994 71.6171C2.86779 71.2151 2.44426 70.7593 2.07796 70.2589C6.38795 73.0075 9.26484 71.4567 9.26484 71.4567Z" fill="#C2E0F2"/>
</g>
<path d="M26.815 36.9555C31.4779 39.5971 20.5586 47.1155 17.9491 44.4418C15.3396 41.7681 23.5959 35.1802 26.815 36.9555Z" fill="white"/>
<path d="M2.91231 56.2488C6.83328 50.274 11.4106 44.7569 16.5588 39.8003C21.2003 38.3886 29.1786 39.3511 33.51 49.725C33.51 49.725 29.3711 58.6444 28.1626 61.4892C26.9541 64.334 25.9381 65.35 22.6869 67.4034C19.4357 69.4568 15.7353 71.6813 11.7355 72.0984C8.52706 72.4407 2.62356 69.8632 0.420437 65.3393C0.250717 62.1199 1.12466 58.9317 2.91231 56.2488Z" fill="#19212C"/>
<path d="M32.0341 49.6394C32.0341 49.6394 26.815 38.3886 16.7512 41.0409C16.7512 41.0409 10.6766 47.4577 5.98163 53.7248C1.28663 59.992 1.45774 65.0185 1.45774 65.0185C3.5488 61.2507 6.08761 57.7496 9.01894 54.5911C12.9974 50.6875 21.3393 42.5167 32.0341 49.6394Z" fill="#2E3C4D"/>
<path d="M36.5472 43.4685C41.563 40.3564 47.1457 45.7358 49.7552 52.4201C52.3647 59.1043 51.4985 65.6281 46.8035 68.2376C41.6486 71.1038 40.5256 63.9597 38.2477 58.0669C35.6809 51.7249 31.51 46.6021 36.5472 43.4685ZM40.2797 57.1471C42.1405 61.8101 43.071 67.8419 46.4612 66.0666C49.5627 64.3982 50.1937 58.3557 48.1189 53.0297C46.0441 47.7037 41.4561 43.1691 38.1407 44.9444C34.0232 47.1155 38.269 52.0992 40.2797 57.1471Z" fill="#5385A6"/>
<g style="mix-blend-mode:multiply">
<path d="M37.7236 53.0085C35.8306 49.0942 35.8306 47.4686 36.2263 46.228C36.6221 44.9874 38.761 43.2335 41.6272 44.6024C43.1656 45.3678 44.4341 46.584 45.2634 48.0889C43.0603 45.351 40.2797 43.7361 38.1407 44.9446C34.0553 47.0836 38.3011 52.0994 40.2797 57.1473C41.3491 59.7996 42.0978 62.9011 43.1779 64.7513C43.8731 66.1951 45.0923 67.3822 47.1029 66.1951C50.9744 64.0562 49.5841 56.9227 49.5841 56.9227C49.5841 52.8694 47.5735 48.6985 46.3008 46.4633C47.7619 48.2525 48.928 50.2635 49.7552 52.4203C52.3647 59.1152 51.4985 65.6283 46.8035 68.2378C43.0389 70.3768 41.4561 67.0721 39.9267 62.8904C40.0638 59.4609 39.3045 56.0549 37.7236 53.0085Z" fill="#B5CBD8"/>
</g>
<path d="M21.6177 26.9022C20.4613 26.9022 19.4455 26.7303 18.5704 26.3865C17.6952 26.0583 17.0155 25.5192 16.531 24.7691C16.0466 24.019 15.8043 23.0188 15.8043 21.7686C15.8043 20.5184 16.0075 19.2995 16.4138 18.1118C16.8357 16.9085 17.414 15.7912 18.1484 14.7598C18.8829 13.7284 19.7424 12.822 20.727 12.0406C21.7271 11.2592 22.8054 10.6498 23.9618 10.2122C25.1182 9.77463 26.3215 9.55585 27.5717 9.55585C28.9626 9.55585 30.0956 9.79026 30.9707 10.2591C31.8458 10.7279 32.4865 11.3686 32.8928 12.1812C33.3148 12.9782 33.5258 13.8768 33.5258 14.877C33.5258 16.2053 33.2054 17.5961 32.5647 19.0495C31.9083 20.5341 31.0488 21.8702 29.9862 23.0579C28.9235 24.2456 27.6811 25.1832 26.259 25.8708C24.8526 26.5584 23.3055 26.9022 21.6177 26.9022ZM23.7508 25.6598C24.6729 25.4098 25.5792 24.9488 26.47 24.2768C27.3608 23.6048 28.1656 22.8 28.8844 21.8624C29.6033 20.9247 30.1737 19.9402 30.5956 18.9088C31.252 17.3305 31.5801 15.8459 31.5801 14.455C31.5801 14.2362 31.5645 14.0253 31.5333 13.8221C31.5176 13.619 31.4942 13.4236 31.4629 13.2361C31.291 12.2828 30.8925 11.6108 30.2675 11.2202C29.6424 10.8295 28.9391 10.6341 28.1578 10.6341C27.3451 10.6341 26.5169 10.7982 25.673 11.1264C24.8291 11.4389 24.1025 11.8296 23.493 12.2985C22.7429 12.8923 22.0475 13.5721 21.4067 14.3378C20.766 15.1036 20.2269 15.9162 19.7893 16.7757C19.4143 17.5258 19.1095 18.3462 18.8751 19.237C18.6563 20.1121 18.5469 20.9638 18.5469 21.7921C18.5469 22.5422 18.6563 23.2298 18.8751 23.8549C19.0939 24.48 19.4533 24.9879 19.9534 25.3785C20.4535 25.7536 21.1176 25.9411 21.9459 25.9411C22.4772 25.9411 23.0789 25.8474 23.7508 25.6598ZM34.4916 26.2927C34.054 26.2927 33.7259 26.1365 33.5071 25.8239C33.2883 25.4958 33.1789 25.0582 33.1789 24.5112C33.1789 24.4331 33.1789 24.355 33.1789 24.2768C33.1789 24.1987 33.1867 24.1205 33.2023 24.0424C33.2805 23.4486 33.4133 22.7766 33.6008 22.0265C33.804 21.2764 34.0384 20.4872 34.3041 19.6589C34.4603 19.1901 34.6557 18.6041 34.8901 17.9009C35.1401 17.182 35.4292 16.4163 35.7574 15.6036C36.0856 14.7754 36.445 13.9549 36.8357 13.1423C37.242 12.3297 37.6874 11.5952 38.1718 10.9389C38.6563 10.2669 39.1642 9.72775 39.6955 9.32144C40.2425 8.91513 40.8207 8.71197 41.4301 8.71197C41.9302 8.71197 42.274 8.83699 42.4615 9.08703C42.6491 9.32144 42.7428 9.60273 42.7428 9.93091C42.7428 10.2747 42.6803 10.6263 42.5553 10.9858C42.4303 11.3296 42.3053 11.6187 42.1803 11.8531C41.899 12.4157 41.5317 13.0486 41.0785 13.7518C40.6253 14.455 40.1487 15.1114 39.6486 15.7208C39.3517 16.1115 38.9845 16.5491 38.5469 17.0335C38.1093 17.518 37.6952 17.9634 37.3045 18.3697C36.9295 18.776 36.656 19.0573 36.4841 19.2136L36.109 20.2918C35.9996 20.5888 35.8902 20.9404 35.7809 21.3467C35.6871 21.753 35.6011 22.1593 35.523 22.5656C35.4605 22.9563 35.4058 23.3001 35.3589 23.597C35.3433 23.6595 35.3355 23.722 35.3355 23.7846C35.3355 23.8471 35.3355 23.9018 35.3355 23.9486C35.3355 24.4175 35.5152 24.6519 35.8746 24.6519C36.0934 24.6519 36.3669 24.5503 36.6951 24.3471C37.0076 24.1596 37.3045 23.9174 37.5858 23.6205C37.8827 23.3079 38.0937 23.0735 38.2187 22.9172C38.5313 22.5109 38.8282 22.0812 39.1095 21.628C39.3908 21.1592 39.633 20.7294 39.8362 20.3387C39.9143 20.2137 39.969 20.1512 40.0002 20.1512C40.094 20.1512 40.1409 20.284 40.1409 20.5497C40.1409 20.6747 40.1174 20.8232 40.0706 20.9951C40.0393 21.1513 39.9846 21.2998 39.9065 21.4405C39.6877 21.8155 39.4298 22.2296 39.1329 22.6828C38.836 23.136 38.5313 23.5736 38.2187 23.9955C37.9843 24.3081 37.6561 24.6441 37.2342 25.0035C36.8123 25.3629 36.3591 25.6677 35.8746 25.9177C35.3902 26.1677 34.9292 26.2927 34.4916 26.2927ZM36.9529 17.8774C37.7343 16.9554 38.5235 15.9709 39.3205 14.9238C40.1331 13.8612 40.805 12.7829 41.3364 11.689C41.3676 11.6108 41.438 11.4546 41.5473 11.2202C41.6567 10.9858 41.7583 10.7279 41.8521 10.4466C41.9458 10.1497 41.9927 9.89965 41.9927 9.6965C41.9927 9.43083 41.8912 9.298 41.688 9.298H41.5239C41.3208 9.298 41.0785 9.43864 40.7972 9.71994C40.5316 10.0012 40.2581 10.3763 39.9768 10.8451C39.6174 11.4389 39.2658 12.1265 38.922 12.9079C38.5782 13.6737 38.2422 14.4863 37.914 15.3458C37.5858 16.2053 37.2655 17.0492 36.9529 17.8774ZM44.1744 14.9004C43.7681 14.7598 43.5649 14.4941 43.5649 14.1034C43.5649 13.744 43.7056 13.3767 43.9869 13.0017C44.2838 12.611 44.6041 12.361 44.9479 12.2516C45.0261 12.2203 45.0886 12.2047 45.1355 12.2047C45.198 12.2047 45.2605 12.2047 45.323 12.2047C45.5887 12.2047 45.8075 12.2828 45.9794 12.4391C46.1513 12.5954 46.2372 12.7751 46.2372 12.9782C46.2372 13.2595 46.0887 13.4939 45.7918 13.6815C45.5574 13.6502 45.3308 13.7049 45.112 13.8456C44.8932 13.9862 44.6979 14.1581 44.526 14.3613C44.3697 14.5644 44.2525 14.7441 44.1744 14.9004ZM40.1425 26.2927C39.9394 26.2927 39.744 26.2459 39.5565 26.1521C39.369 26.074 39.2127 25.9099 39.0877 25.6598C38.9158 25.2848 38.8298 24.8394 38.8298 24.3237C38.8298 23.7611 38.9158 23.136 39.0877 22.4484C39.2596 21.7452 39.4862 21.0263 39.7675 20.2918C39.8769 20.0262 40.0175 19.698 40.1894 19.3073C40.3613 18.9166 40.5645 18.526 40.7989 18.1353C41.0333 17.7446 41.299 17.4242 41.5959 17.1742C41.9084 16.9085 42.2444 16.7757 42.6038 16.7757C42.7757 16.7757 43.018 16.7835 43.3305 16.7991C43.6431 16.8148 43.8697 16.8148 44.0103 16.7991C43.9165 16.8616 43.8071 16.9867 43.6821 17.1742C43.5571 17.3617 43.4399 17.5571 43.3305 17.7602C43.2211 17.9477 43.1352 18.0962 43.0727 18.2056C42.6664 19.0182 42.2835 19.823 41.9241 20.62C41.5646 21.417 41.2911 22.1828 41.1036 22.9172C41.0724 23.0423 41.0489 23.1673 41.0333 23.2923C41.0177 23.4173 41.0099 23.5345 41.0099 23.6439C41.0099 24.0971 41.1583 24.3237 41.4552 24.3237C41.5803 24.3237 41.7131 24.2924 41.8537 24.2299C42.01 24.1518 42.1897 24.0346 42.3929 23.8783C42.7523 23.597 43.0648 23.2767 43.3305 22.9172C43.6431 22.5109 43.94 22.0812 44.2213 21.628C44.5026 21.1592 44.7448 20.7294 44.9479 20.3387C45.0261 20.2137 45.0808 20.1512 45.112 20.1512C45.2058 20.1512 45.2527 20.284 45.2527 20.5497C45.2527 20.6747 45.2292 20.8232 45.1824 20.9951C45.1511 21.1513 45.0964 21.2998 45.0183 21.4405C44.7995 21.8155 44.5416 22.2296 44.2447 22.6828C43.9478 23.136 43.6431 23.5736 43.3305 23.9955C43.1117 24.2924 42.8226 24.6206 42.4632 24.98C42.1038 25.3395 41.7209 25.652 41.3146 25.9177C40.9083 26.1677 40.5176 26.2927 40.1425 26.2927ZM45.201 26.3162C44.7947 26.3162 44.4665 26.0974 44.2165 25.6598C43.9665 25.2223 43.8727 24.6441 43.9352 23.9252C43.9665 23.472 44.0681 22.9016 44.24 22.214C44.4275 21.5108 44.6619 20.8075 44.9432 20.1043C45.2245 19.3855 45.5214 18.776 45.8339 18.2759C46.2403 17.6352 46.6934 17.2211 47.1935 17.0335C47.7092 16.846 48.3499 16.7522 49.1157 16.7522C49.1782 16.7522 49.2095 16.7835 49.2095 16.846C49.2095 16.9085 49.1626 16.9867 49.0688 17.0804C48.85 17.2679 48.5922 17.6118 48.2953 18.1118C47.9983 18.6119 47.7092 19.1589 47.4279 19.7527C47.1623 20.3465 46.9279 20.8935 46.7247 21.3936C46.5684 21.7999 46.42 22.2218 46.2793 22.6594C46.1543 23.097 46.0918 23.4876 46.0918 23.8314C46.0918 24.1127 46.1465 24.3393 46.2559 24.5112C46.3809 24.6831 46.5919 24.7691 46.8888 24.7691C47.2013 24.7535 47.5451 24.5269 47.9202 24.0893C48.2953 23.6517 48.6547 23.1126 48.9985 22.4719C49.3423 21.8311 49.6236 21.206 49.8424 20.5966C49.8111 20.4247 49.7798 20.245 49.7486 20.0574C49.733 19.8699 49.7252 19.6746 49.7252 19.4714C49.7252 19.1901 49.7486 18.901 49.7955 18.6041C49.858 18.2915 49.9439 17.9868 50.0533 17.6899C50.2565 17.1742 50.5378 16.8695 50.8972 16.7757C50.9597 16.7601 51.0144 16.7522 51.0613 16.7522C51.1238 16.7366 51.1863 16.7288 51.2488 16.7288C51.5457 16.7288 51.7411 16.8382 51.8348 17.057C51.9442 17.2601 51.9989 17.5024 51.9989 17.7837C51.9989 18.0649 51.9677 18.3462 51.9052 18.6275C51.8427 18.8932 51.788 19.0963 51.7411 19.237C51.6317 19.5339 51.5067 19.823 51.366 20.1043C51.2254 20.37 51.0847 20.6356 50.9441 20.9013C50.9753 21.3858 51.1004 21.7608 51.3191 22.0265C51.5536 22.2921 51.827 22.425 52.1396 22.425C52.5303 22.425 52.9209 22.2531 53.3116 21.9093C53.5304 21.7217 53.7258 21.4873 53.8977 21.206C54.0852 20.9091 54.2493 20.6356 54.3899 20.3856C54.4681 20.245 54.5228 20.2137 54.554 20.2918C54.5853 20.37 54.6009 20.495 54.6009 20.6669C54.6009 20.8075 54.5853 20.9638 54.554 21.1357C54.5384 21.292 54.4993 21.417 54.4368 21.5108C54.218 21.9015 53.968 22.2296 53.6867 22.4953C53.4054 22.7453 53.1085 22.9329 52.7959 23.0579C52.5459 23.1516 52.288 23.1985 52.0224 23.1985C51.6629 23.1985 51.327 23.097 51.0144 22.8938C50.7175 22.675 50.4831 22.3468 50.3112 21.9093C49.983 22.3937 49.6783 22.8391 49.397 23.2454C49.1313 23.6361 48.9282 23.9174 48.7875 24.0893C48.3187 24.6831 47.7795 25.2066 47.1701 25.6598C46.5762 26.0974 45.9199 26.3162 45.201 26.3162ZM58.146 25.8239C57.4271 26.199 56.6692 26.3865 55.8722 26.3865C55.2002 26.3865 54.5751 26.2224 53.9969 25.8942C53.4187 25.5661 53.028 25.0426 52.8249 24.3237C52.7311 23.9955 52.6842 23.6517 52.6842 23.2923C52.6842 22.6985 52.7858 22.089 52.989 21.4639C53.2077 20.8232 53.489 20.2371 53.8328 19.7058C54.3642 18.8776 55.0361 18.19 55.8488 17.643C56.6614 17.096 57.56 16.8226 58.5445 16.8226C59.279 16.8226 59.8494 17.0101 60.2557 17.3852C60.662 17.7602 60.8651 18.1978 60.8651 18.6979C60.8651 19.2917 60.662 19.8152 60.2557 20.2684C59.865 20.706 59.3493 21.042 58.7086 21.2764C58.396 21.3858 58.06 21.4717 57.7006 21.5342C57.3568 21.5811 57.0286 21.6045 56.7161 21.6045C56.0754 21.6045 55.5831 21.5186 55.2393 21.3467C54.9424 22.1124 54.7939 22.8157 54.7939 23.4564C54.7939 24.0346 54.9267 24.5112 55.1924 24.8863C55.4581 25.2457 55.88 25.4254 56.4582 25.4254C56.9427 25.4254 57.4193 25.2926 57.8881 25.0269C58.3726 24.7613 58.818 24.4331 59.2243 24.0424C59.6462 23.6517 59.9978 23.2767 60.2791 22.9172C60.4979 22.6516 60.6854 22.4015 60.8417 22.1671C60.998 21.9327 61.1621 21.667 61.334 21.3701C61.5059 21.0576 61.709 20.6747 61.9434 20.2215C62.0059 20.1121 62.0606 20.0574 62.1075 20.0574C62.2013 20.0574 62.2482 20.1825 62.2482 20.4325C62.2482 20.5731 62.2247 20.7294 62.1778 20.9013C62.1466 21.0576 62.0841 21.2217 61.9903 21.3936C61.7715 21.7843 61.5059 22.214 61.1933 22.6828C60.8964 23.136 60.5917 23.5736 60.2791 23.9955C59.9978 24.3706 59.6775 24.7144 59.318 25.0269C58.9586 25.3395 58.5679 25.6051 58.146 25.8239ZM56.0128 20.831C56.091 20.8779 56.1769 20.9091 56.2707 20.9247C56.3645 20.9404 56.4582 20.9482 56.552 20.9482C56.8645 20.9482 57.1771 20.8779 57.4896 20.7372C57.8022 20.5809 58.0678 20.4247 58.2866 20.2684C58.6461 20.0184 58.9508 19.7214 59.2008 19.3776C59.4509 19.0338 59.5915 18.6432 59.6228 18.2056C59.6384 18.0181 59.5915 17.8618 59.4821 17.7368C59.3884 17.5961 59.2165 17.5258 58.9664 17.5258C58.8414 17.5258 58.6851 17.5492 58.4976 17.5961C58.2476 17.6586 57.9975 17.7758 57.7475 17.9477C57.4974 18.1196 57.2552 18.3228 57.0208 18.5572C56.9427 18.6353 56.802 18.7916 56.5989 19.026C56.4113 19.2448 56.2316 19.4948 56.0597 19.7761C55.8878 20.0418 55.8019 20.2762 55.8019 20.4794C55.8019 20.6513 55.8722 20.7685 56.0128 20.831ZM64.9532 26.3162C64.4531 26.3162 64.0937 26.1052 63.8749 25.6833C63.703 25.3082 63.6171 24.8628 63.6171 24.3471C63.6171 23.7689 63.703 23.1282 63.8749 22.425C64.0468 21.7217 64.2812 21.0029 64.5782 20.2684C64.6876 20.0027 64.8282 19.6667 65.0001 19.2604C65.1876 18.8541 65.4064 18.4556 65.6564 18.0649C65.4377 18.2525 65.1798 18.4087 64.8829 18.5338C64.586 18.6432 64.2969 18.6979 64.0156 18.6979C63.7968 18.6979 63.6171 18.6666 63.4764 18.6041C63.3514 18.8541 63.1483 19.2604 62.867 19.823C62.5857 20.3856 62.2106 21.0498 61.7418 21.8155C61.6949 21.8936 61.648 21.8936 61.6011 21.8155C61.5699 21.7217 61.5543 21.5967 61.5543 21.4405C61.5543 21.3154 61.5699 21.1826 61.6011 21.042C61.6324 20.9013 61.6793 20.7685 61.7418 20.6435C61.8981 20.3465 62.0543 20.0418 62.2106 19.7293C62.3669 19.4011 62.5075 19.112 62.6326 18.8619C62.7576 18.6119 62.8279 18.4556 62.8435 18.3931C62.5622 18.2525 62.3513 18.0571 62.2106 17.8071C62.07 17.5414 61.9996 17.2836 61.9996 17.0335C61.9996 16.7835 62.0543 16.5569 62.1637 16.3537C62.2888 16.1506 62.4685 15.9943 62.7029 15.8849C62.8435 15.838 62.9764 15.8146 63.1014 15.8146C63.4452 15.8146 63.7265 15.924 63.9453 16.1428C63.9296 16.2053 63.914 16.2756 63.8984 16.3537C63.8984 16.4163 63.8984 16.4866 63.8984 16.5647C63.8984 17.0492 64.0937 17.4086 64.4844 17.643C64.8751 17.8774 65.297 17.9634 65.7502 17.9009C65.969 17.5883 66.219 17.3148 66.5003 17.0804C66.7816 16.846 67.0864 16.7288 67.4145 16.7288C67.5864 16.7288 67.8287 16.7366 68.1412 16.7522C68.4694 16.7679 68.7038 16.7679 68.8444 16.7522C68.7507 16.8148 68.6413 16.9398 68.5163 17.1273C68.3912 17.3148 68.274 17.5102 68.1646 17.7133C68.0552 17.9165 67.9693 18.0728 67.9068 18.1821C67.4848 18.9948 67.0942 19.8074 66.7347 20.62C66.3753 21.417 66.1018 22.1828 65.9143 22.9172C65.883 23.0579 65.8518 23.1907 65.8205 23.3157C65.8049 23.4251 65.7971 23.5423 65.7971 23.6674C65.7971 24.1362 65.9534 24.3706 66.2659 24.3706C66.4847 24.3706 66.7972 24.2143 67.2036 23.9018C67.563 23.6048 67.8833 23.2767 68.1646 22.9172C68.4772 22.5109 68.7741 22.0734 69.0554 21.6045C69.3367 21.1357 69.5789 20.706 69.7821 20.3153C69.8602 20.1903 69.9149 20.1278 69.9462 20.1278C70.0399 20.1278 70.0868 20.2684 70.0868 20.5497C70.0868 20.6591 70.0712 20.7919 70.0399 20.9482C70.0087 21.1045 69.954 21.2529 69.8758 21.3936C69.6414 21.7843 69.3758 22.214 69.0788 22.6828C68.7819 23.136 68.4772 23.5814 68.1646 24.019C67.9615 24.3003 67.6724 24.6206 67.2973 24.98C66.9379 25.3395 66.5472 25.652 66.1253 25.9177C65.719 26.1834 65.3283 26.3162 64.9532 26.3162Z" fill="#0276FF"/>
<path d="M27.628 15.2512C28.3366 15.3852 28.9873 16.065 29.0903 16.7788C29.1963 17.513 28.674 18.013 27.9451 17.8751C27.2365 17.741 26.5857 17.0612 26.4827 16.3475C26.3768 15.6132 26.899 15.1133 27.628 15.2512ZM24.6015 14.8249C25.3101 14.9589 25.9608 15.6387 26.0638 16.3525C26.1698 17.0867 25.6475 17.5867 24.9186 17.4488C24.21 17.3147 23.5593 16.6349 23.4563 15.9212C23.3503 15.1869 23.8726 14.687 24.6015 14.8249ZM22.7133 16.6337C23.4219 16.7677 24.0726 17.4475 24.1756 18.1613C24.2816 18.8955 23.7593 19.3955 23.0304 19.2576C22.3218 19.1235 21.671 18.4437 21.568 17.73C21.4621 16.9957 21.9844 16.4958 22.7133 16.6337ZM23.0549 19.7063C23.7635 19.8403 24.4142 20.5201 24.5172 21.2339C24.6232 21.9681 24.1009 22.4681 23.372 22.3302C22.6634 22.1961 22.0127 21.5163 21.9097 20.8026C21.8037 20.0683 22.326 19.5684 23.0549 19.7063Z" fill="black"/>
<path d="M69.571 17.0505C70.1955 17.934 71.5121 17.6387 71.507 16.5336C71.4995 14.8882 71.2356 13.9102 70.5995 13.5306C69.9634 13.1509 68.9774 13.3829 67.5255 14.1573C66.5505 14.6774 66.9156 15.9764 67.9896 16.1066C68.48 16.1661 69.2859 16.6471 69.571 17.0505ZM67.6998 10.5706C67.0391 10.8596 66.5568 11.6677 66.616 12.3864C66.6769 13.1258 67.2977 13.4963 67.9773 13.199C68.638 12.9099 69.1203 12.1018 69.0611 11.3831C69.0003 10.6437 68.3794 10.2732 67.6998 10.5706ZM70.5543 9.47845C69.8936 9.76754 69.4113 10.5756 69.4705 11.2943C69.5314 12.0337 70.1522 12.4042 70.8319 12.1068C71.4926 11.8178 71.9749 11.0097 71.9157 10.291C71.8548 9.55161 71.234 9.18107 70.5543 9.47845ZM72.7991 10.8193C72.1385 11.1084 71.6562 11.9165 71.7153 12.6352C71.7762 13.3746 72.397 13.7451 73.0767 13.4477C73.7374 13.1587 74.2197 12.3506 74.1605 11.6319C74.0996 10.8925 73.4788 10.522 72.7991 10.8193ZM73.1531 13.8905C72.4924 14.1796 72.0101 14.9877 72.0693 15.7064C72.1302 16.4458 72.751 16.8163 73.4306 16.5189C74.0913 16.2299 74.5736 15.4218 74.5144 14.7031C74.4536 13.9637 73.8327 13.5932 73.1531 13.8905Z" fill="black"/>
<path d="M25.311 8.57302C25.2336 8.63046 25.1232 8.69113 24.9798 8.75502C24.8411 8.81553 24.682 8.86288 24.5025 8.89707C24.3276 8.92788 24.1472 8.92746 23.9613 8.89581L20.7525 8.38296C20.8941 8.63109 21.0386 8.87356 21.1859 9.11038C21.3333 9.34719 21.4643 9.55725 21.579 9.74055C21.6049 9.78495 21.6092 9.82412 21.592 9.85806C21.5748 9.89201 21.5457 9.92418 21.5047 9.95459C21.4318 10.0087 21.339 10.0598 21.2264 10.108C21.1184 10.1527 20.9974 10.1753 20.8635 10.1757C20.7262 10.1716 20.5869 10.1266 20.4456 10.0407C20.3008 9.95027 20.1576 9.79518 20.0158 9.57541C19.855 9.32037 19.666 9.02263 19.4488 8.68218C19.2317 8.34173 18.9971 7.98247 18.745 7.60438C18.4929 7.2263 18.2386 6.84991 17.9819 6.4752C17.7253 6.1005 17.477 5.75137 17.2371 5.42782C17.2192 5.3846 17.2279 5.33927 17.2634 5.2918C17.2954 5.23979 17.3411 5.19181 17.4003 5.14789C17.5097 5.06679 17.6416 5.01135 17.7961 4.98156C17.9517 4.94383 18.1156 4.96005 18.2877 5.0302C18.4609 5.09242 18.6304 5.23518 18.7959 5.45848C18.9412 5.65443 19.0909 5.87538 19.245 6.1213C19.3957 6.36267 19.5623 6.62058 19.7446 6.89503C19.7866 6.47544 19.8065 6.0546 19.8042 5.6325C19.802 5.2104 19.7838 4.81431 19.7495 4.44422C19.7198 4.07076 19.6801 3.75057 19.6305 3.48366C19.8811 3.29782 20.0999 3.23094 20.2869 3.28302C20.4783 3.33172 20.6535 3.46317 20.8123 3.67735C20.8968 3.79128 20.9554 3.9703 20.9881 4.21443C21.0174 4.454 21.0244 4.73487 21.009 5.05702C20.9982 5.3758 20.9719 5.71661 20.9302 6.07947C20.8885 6.44233 20.8389 6.80401 20.7813 7.16451L25.219 8.29169C25.2779 8.30449 25.3226 8.3314 25.353 8.37242C25.407 8.44533 25.3931 8.5122 25.311 8.57302Z" fill="black"/>
<path d="M18.2516 12.1157C17.8249 12.5942 17.4069 12.8713 16.9973 12.947C16.5916 13.0184 16.2532 12.9333 15.9822 12.6917C15.8425 12.5671 15.7531 12.4457 15.7142 12.3273C15.6748 12.201 15.6967 12.0913 15.7798 11.9981C16.0068 12.0333 16.2395 12.028 16.478 11.9822C16.716 11.9284 16.9345 11.8496 17.1335 11.7458C17.3282 11.6382 17.4784 11.5252 17.5842 11.4066C17.6672 11.3134 17.7164 11.2242 17.7316 11.139C17.7463 11.0457 17.7135 10.9632 17.633 10.8915C17.578 10.8424 17.5177 10.8077 17.4523 10.7873C17.3906 10.7627 17.2985 10.768 17.1759 10.8031C17.0529 10.8303 16.8822 10.9023 16.6639 11.0193L16.3888 11.1616C16.0842 11.3157 15.8252 11.4229 15.6117 11.4834C15.4019 11.5396 15.2134 11.5464 15.0463 11.5037C14.8829 11.4568 14.7207 11.3616 14.5598 11.2182C14.4074 11.0822 14.2623 10.8997 14.1246 10.6705C13.9907 10.4371 13.8736 10.1806 13.7732 9.90108C13.6766 9.61731 13.6099 9.32981 13.5731 9.0386C13.5363 8.74739 13.5408 8.4739 13.5864 8.21815C13.632 7.9624 13.7341 7.7456 13.8927 7.56776C14.0248 7.41956 14.1531 7.30975 14.2776 7.23833C14.3979 7.16314 14.5609 7.13371 14.7668 7.15004C14.9026 7.06592 15.041 7.02586 15.1818 7.02984C15.3184 7.03005 15.4423 7.0531 15.5534 7.09897C15.6603 7.14107 15.7434 7.18854 15.8027 7.2414C15.9128 7.33957 16.0188 7.47212 16.1208 7.63906C16.2228 7.80599 16.3231 7.97905 16.4217 8.15824C16.5204 8.33742 16.616 8.49869 16.7086 8.64206C16.7392 8.68451 16.7596 8.72553 16.7699 8.76512C16.7802 8.80471 16.7646 8.84779 16.7231 8.89437C16.6626 8.96212 16.5573 9.01637 16.4069 9.05713C16.2561 9.08987 16.0957 9.09504 15.9256 9.07264C15.7556 9.05023 15.6155 8.98994 15.5054 8.89178C15.4207 8.81626 15.3408 8.71838 15.2656 8.59813C15.1904 8.47787 15.1216 8.36328 15.0591 8.25435C14.9923 8.14165 14.9357 8.06453 14.8891 8.023C14.8595 7.99657 14.8343 7.97792 14.8136 7.96706C14.7929 7.95619 14.7693 7.96557 14.7429 7.99521C14.6787 8.0672 14.6519 8.1953 14.6624 8.37953C14.6725 8.55575 14.7101 8.75651 14.7753 8.98181C14.8399 9.1991 14.9284 9.41101 15.0407 9.61754C15.1488 9.82029 15.2705 9.98208 15.406 10.1029C15.478 10.1671 15.5802 10.1974 15.7126 10.1938C15.8488 10.186 16.0359 10.1211 16.274 9.99894L16.5258 9.87001C16.9162 9.67086 17.2325 9.54626 17.4747 9.49623C17.7128 9.44242 17.9057 9.44342 18.0535 9.49924C18.2009 9.54706 18.3318 9.62193 18.4461 9.72387C18.7848 10.0259 18.9343 10.391 18.8946 10.8192C18.8586 11.2432 18.6442 11.6754 18.2516 12.1157Z" fill="black"/>
<path d="M14.9615 17.5408C14.8554 17.7019 14.6986 17.8058 14.4912 17.8526C14.2916 17.8977 14.0686 17.8392 13.8222 17.6769C13.7228 17.6114 13.6208 17.5238 13.5163 17.4143C13.3969 17.4511 13.2806 17.4628 13.1672 17.4493C13.0491 17.4326 12.9593 17.404 12.8977 17.3634C12.8629 17.3337 12.8539 17.2803 12.8708 17.2031C12.8908 17.1211 12.9428 16.9958 13.0269 16.8269C12.7178 16.4196 12.3824 15.9643 12.0209 15.4612C11.6625 14.9534 11.2817 14.3867 10.8786 13.7612C10.7928 13.6232 10.7827 13.5044 10.8483 13.4049C10.8763 13.3623 10.9178 13.3251 10.9727 13.2933C10.8291 13.2123 10.6878 13.1328 10.5489 13.0549C10.4321 12.9848 10.3632 12.9088 10.3423 12.8271C10.3245 12.7407 10.3406 12.6596 10.3905 12.5838C10.453 12.489 10.5556 12.4106 10.6984 12.3484C10.8413 12.2862 11.0032 12.257 11.1841 12.2607C11.3651 12.2645 11.5472 12.3232 11.7303 12.4371C11.9135 12.5509 12.155 12.6896 12.4549 12.8532C12.7531 13.0089 13.0782 13.1754 13.43 13.3528C13.7772 13.5271 14.1211 13.6959 14.4619 13.8593C14.5416 13.7691 14.6443 13.6907 14.7698 13.6239C14.8937 13.5493 15.0232 13.5021 15.1584 13.4825C15.2889 13.4597 15.4062 13.4827 15.5105 13.5513C15.5863 13.6013 15.6165 13.6585 15.6011 13.7231C15.5857 13.7877 15.5515 13.8603 15.4985 13.9408L15.3861 14.1114C15.3705 14.1351 15.3549 14.1588 15.3393 14.1825C15.3268 14.2014 15.3128 14.2227 15.2972 14.2464C15.5448 14.3552 15.7554 14.4429 15.9288 14.5096C16.1023 14.5763 16.2221 14.6111 16.2882 14.6138C16.3543 14.6166 16.3892 14.6668 16.3929 14.7643C16.3965 14.8618 16.3703 14.9532 16.3141 15.0385C16.208 15.1996 16.0576 15.3043 15.8627 15.3526C15.6679 15.4009 15.3946 15.3465 15.0428 15.1896C14.9939 15.171 14.9442 15.1484 14.8937 15.1219L14.2245 16.5866C14.3513 16.7448 14.4756 16.9015 14.5977 17.0566C14.6959 17.1756 14.779 17.2609 14.8469 17.3125C14.918 17.3593 14.9638 17.3929 14.9844 17.4132C15.0097 17.4367 15.002 17.4792 14.9615 17.5408ZM12.4426 14.0475C12.633 14.336 12.8218 14.6166 13.009 14.8893C13.1962 15.1621 13.3802 15.4293 13.561 15.6911L14.0113 14.7445C13.7463 14.6311 13.4837 14.5193 13.2235 14.409C12.9664 14.294 12.7061 14.1735 12.4426 14.0475Z" fill="black"/>
</g>
<defs>
<filter id="filter0_f_170_3378" x="-10.5462" y="74.0167" width="104.813" height="72.9008" filterUnits="userSpaceOnUse" color-interpolation-filters="sRGB">
<feFlood flood-opacity="0" result="BackgroundImageFix"/>
<feBlend mode="normal" in="SourceGraphic" in2="BackgroundImageFix" result="shape"/>
<feGaussianBlur stdDeviation="12.4467" result="effect1_foregroundBlur_170_3378"/>
</filter>
<clipPath id="clip0_170_3378">
<rect width="82" height="146" fill="white" transform="matrix(-1 0 0 1 82.2568 0.348145)"/>
</clipPath>
</defs>
</svg>
