<svg width="1270" height="1964" viewBox="0 0 1270 1964" fill="none" xmlns="http://www.w3.org/2000/svg">
<g clip-path="url(#clip0_335_12)">
<g opacity="0.83" filter="url(#filter0_f_335_12)">
<ellipse cx="631.076" cy="1455.13" rx="380.896" ry="101.987" transform="rotate(-18.042 631.076 1455.13)" fill="#0F558B"/>
</g>
<path d="M727.343 838.031C748.4 845.238 769.74 859.229 779.35 907.703C789.949 949.276 809.213 988.14 835.879 1021.75C861.599 1056.66 878.275 1097.07 857.925 1127.46C837.575 1157.84 776.241 1189.92 722.962 1160.53C669.684 1131.13 665.02 1088.88 652.301 1043.8C639.582 998.714 626.863 935.26 630.255 900.495C630.742 889.193 633.936 878.173 639.567 868.361C645.199 858.55 653.104 850.234 662.618 844.113C672.132 837.992 682.976 834.245 694.24 833.186C705.503 832.128 716.856 833.789 727.343 838.031Z" fill="#E4ECF1"/>
<g style="mix-blend-mode:multiply" opacity="0.8">
<path d="M686.925 913.355C670.139 901.722 652.131 891.96 633.223 884.243C635.954 874.755 640.643 865.944 646.988 858.38C653.333 850.815 661.193 844.664 670.061 840.324C678.929 835.983 688.608 833.549 698.474 833.178C708.34 832.807 718.175 834.508 727.343 838.172C748.4 845.379 769.74 859.37 779.35 907.844C789.949 949.417 809.213 988.281 835.879 1021.89C861.599 1056.8 878.275 1097.22 857.925 1127.6C837.575 1157.98 776.241 1190.06 722.962 1160.67C708.291 1152.95 695.41 1142.23 685.159 1129.2C674.907 1116.18 667.516 1101.14 663.466 1085.06C691.73 1055.1 729.463 1093.82 730.311 1086.19C731.159 1078.56 711.939 1043.8 702.753 1001.4C693.567 959.002 696.111 923.53 686.925 913.355Z" fill="#C2E0F2"/>
</g>
<g style="mix-blend-mode:multiply" opacity="0.8">
<path d="M686.925 913.355C670.139 901.722 652.131 891.96 633.223 884.243C635.954 874.755 640.643 865.944 646.988 858.38C653.333 850.815 661.193 844.664 670.061 840.324C678.929 835.983 688.608 833.549 698.474 833.178C708.34 832.807 718.175 834.508 727.343 838.172C748.4 845.379 769.74 859.37 779.35 907.844C789.949 949.417 809.213 988.281 835.879 1021.89C861.599 1056.8 878.275 1097.22 857.925 1127.6C837.575 1157.98 776.241 1190.06 722.962 1160.67C708.291 1152.95 695.41 1142.23 685.159 1129.2C674.907 1116.18 667.516 1101.14 663.466 1085.06C691.73 1055.1 729.463 1093.82 730.311 1086.19C731.159 1078.56 711.939 1043.8 702.753 1001.4C693.567 959.002 696.111 923.53 686.925 913.355Z" fill="#C2E0F2"/>
</g>
<g style="mix-blend-mode:multiply">
<path d="M741.476 884.243C753.771 885.232 762.533 902.615 761.12 923.248C759.706 943.881 748.259 959.991 735.964 959.002C723.669 958.013 714.766 940.63 716.321 919.997C717.875 899.364 729.04 884.243 741.476 884.243Z" fill="#B5CBD8"/>
</g>
<path d="M698.231 1084.5C730.735 1090.72 748.966 1114.6 765.642 1141.03C771.929 1151.04 779.068 1160.5 786.981 1169.29C765.36 1173.78 742.853 1170.69 723.245 1160.53C709.716 1153.4 697.747 1143.64 688.04 1131.82C678.334 1120 671.084 1106.36 666.716 1091.71C671.082 1088.2 676.187 1085.73 681.645 1084.48C687.104 1083.23 692.775 1083.24 698.231 1084.5Z" fill="#5385A6"/>
<path d="M727.343 838.029C740.017 841.899 751.241 849.48 759.564 859.793C752.54 860.524 745.699 862.485 739.355 865.587C720.842 874.349 703.883 883.959 681.554 880.708C678.442 884.136 675.911 888.051 674.064 892.297C663.104 889.757 652.8 884.943 643.821 878.165C645.078 874.895 646.59 871.729 648.344 868.696L641.843 865.163C650.913 851.624 664.312 841.566 679.845 836.636C695.378 831.707 712.125 832.198 727.343 838.029Z" fill="#5385A6"/>
<path d="M648.627 907.561C665.869 910.67 667.706 935.118 668.271 981.048C668.271 1020.9 685.088 1059.91 675.62 1061.88C666.151 1063.86 655.976 1027.54 648.062 986.56C640.148 945.576 632.516 904.734 648.627 907.561Z" fill="white"/>
<path d="M693.57 1091C716.888 1092.84 757.872 1126.75 765.503 1164.91C768.047 1177.63 726.781 1207.31 678.025 1193.17C629.269 1179.04 643.542 1087.32 693.57 1091Z" fill="#E4ECF1"/>
<g style="mix-blend-mode:multiply" opacity="0.8">
<path d="M662.335 1184.13C674.176 1186.55 686.479 1185.11 697.442 1180.02C708.404 1174.93 717.447 1166.47 723.245 1155.86C734.41 1133.54 721.691 1110.36 712.363 1097.64C725.335 1104.66 736.745 1114.25 745.904 1125.81C755.062 1137.37 761.777 1150.67 765.642 1164.91C768.186 1177.63 726.919 1207.31 678.163 1193.17C672.247 1191.45 666.823 1188.35 662.335 1184.13Z" fill="#C2E0F2"/>
</g>
<g style="mix-blend-mode:multiply" opacity="0.8">
<path d="M662.335 1184.13C674.176 1186.55 686.479 1185.11 697.442 1180.02C708.404 1174.93 717.447 1166.47 723.245 1155.86C734.41 1133.54 721.691 1110.36 712.363 1097.64C725.335 1104.66 736.745 1114.25 745.904 1125.81C755.062 1137.37 761.777 1150.67 765.642 1164.91C768.186 1177.63 726.919 1207.31 678.163 1193.17C672.247 1191.45 666.823 1188.35 662.335 1184.13Z" fill="#C2E0F2"/>
</g>
<path d="M686.783 1099.9C706.568 1108.52 685.653 1156.43 665.726 1145.97C645.8 1135.51 669.966 1092.55 686.783 1099.9Z" fill="white"/>
<path d="M701.624 555.952C722.822 547.755 766.914 564.007 774.263 590.858C786.134 634.951 771.437 817.822 763.24 836.194C755.043 854.566 700.776 873.927 680.567 868.415C660.357 862.904 630.821 852.728 621.635 834.357C612.449 815.985 618.102 742.497 630.114 675.51C642.127 608.524 679.153 564.855 701.624 555.952Z" fill="#E4ECF1"/>
<g style="mix-blend-mode:multiply" opacity="0.8">
<path d="M763.24 836.195C754.902 854.567 700.776 873.928 680.567 868.417C660.358 862.905 630.821 852.73 621.635 834.358C620.855 832.532 620.24 830.64 619.798 828.705C640.714 847.501 671.664 853.295 676.327 845.381C680.991 837.467 682.687 744.336 690.459 681.871C698.232 619.407 715.473 589.022 737.378 580.826C743.795 578.548 750.755 578.288 757.324 580.082C763.892 581.875 769.754 585.637 774.122 590.86C786.135 634.952 771.437 817.823 763.24 836.195Z" fill="#C2E0F2"/>
</g>
<path d="M710.808 567.965C724.94 577.151 688.762 605.557 666.716 655.161C640.854 713.386 637.321 822.345 629.972 821.497C622.623 820.649 623.471 748.01 639.158 677.207C654.845 606.405 694.98 558.214 710.808 567.965Z" fill="white"/>
<path d="M379.266 1072.77C398.062 1083.08 425.903 1099.76 435.795 1120.53C445.688 1141.31 449.221 1221.01 433.393 1279.8C417.565 1338.59 399.051 1387.49 361.036 1398.51C323.02 1409.54 302.67 1398.51 265.502 1376.47C221.409 1349.62 225.084 1322.62 236.107 1294.5C247.13 1266.38 267.622 1246.59 278.503 1203.77C285.341 1171.62 293.784 1139.83 303.8 1108.52C313.41 1078.28 348.034 1055.53 379.266 1072.77Z" fill="#E4ECF1"/>
<g style="mix-blend-mode:multiply" opacity="0.8">
<path d="M235.965 1294.08L239.357 1286.16C245.46 1284.02 251.991 1283.39 258.39 1284.33C264.79 1285.26 270.867 1287.74 276.101 1291.53C305.496 1310.9 311.856 1344.25 317.367 1336.62C330.372 1315 338.835 1290.95 342.24 1265.96C350.436 1223.56 357.927 1165.9 352.274 1155.72C346.621 1145.55 309.877 1128.59 298.43 1122.8C299.702 1118.27 301.256 1113.61 302.952 1108.66C312.845 1078.42 348.034 1055.67 379.266 1072.91C398.062 1083.23 425.903 1099.9 435.795 1120.68C445.688 1141.45 449.221 1221.16 433.393 1279.95C417.565 1338.74 399.051 1387.63 361.036 1398.66C323.02 1409.68 302.67 1398.66 265.502 1376.61C221.268 1349.62 224.942 1322.34 235.965 1294.08Z" fill="#C2E0F2"/>
</g>
<path d="M424.206 1104.56C414.13 1106.78 404.356 1110.19 395.094 1114.74C370.787 1126.19 364.71 1136.36 342.24 1127.18C328.785 1121.85 315.706 1115.62 303.093 1108.52C312.844 1078.28 348.034 1055.53 379.266 1072.77C395.701 1081.14 410.837 1091.85 424.206 1104.56Z" fill="#5385A6"/>
<path d="M319.626 1401.77C300.153 1396.69 281.764 1388.12 265.359 1376.47C222.962 1350.32 224.799 1324.18 235.116 1296.9C240.807 1294.07 247.124 1292.73 253.476 1293C259.828 1293.27 266.007 1295.15 271.436 1298.46C304.929 1316.55 320.05 1367.42 319.626 1401.77Z" fill="#5385A6"/>
<g style="mix-blend-mode:multiply">
<path d="M407.531 1131.84C419.685 1134.81 425.338 1153.46 420.392 1174.23C415.445 1195.01 401.596 1208.29 389.583 1205.18C377.571 1202.07 371.777 1183.56 376.723 1162.79C381.669 1142.01 395.519 1128.87 407.531 1131.84Z" fill="#B5CBD8"/>
</g>
<path d="M374.321 1108.24C367.014 1110.13 360.161 1113.47 354.165 1118.06C348.17 1122.65 343.155 1128.39 339.414 1134.95L311.998 1120.82C311.459 1113.67 313.351 1106.55 317.368 1100.61C326.738 1096.99 336.868 1095.8 346.822 1097.13C356.776 1098.46 366.233 1102.28 374.321 1108.24Z" fill="#5385A6"/>
<path d="M308.184 1142.3C319.066 1146.54 310.728 1178.33 305.499 1215.78C298.998 1261.71 306.912 1274.57 300.411 1284.61C297.019 1290.12 286.279 1283.34 276.952 1278.25C267.624 1273.16 260.982 1275.99 260.417 1269.06C259.852 1262.14 277.517 1243.77 287.127 1207.02C294.052 1181.02 299.281 1138.62 308.184 1142.3Z" fill="white"/>
<path d="M306.061 790.83C330.368 779.383 370.928 795.635 385.342 826.726C399.757 857.816 436.925 1025.57 438.056 1059.48C439.186 1093.4 368.525 1126.61 343.37 1117.14C317.754 1109.87 295.065 1094.75 278.503 1073.9C262.957 1051.15 245.01 819.518 306.061 790.83Z" fill="#E4ECF1"/>
<g style="mix-blend-mode:multiply" opacity="0.8">
<path d="M343.37 1117.14C317.754 1109.87 295.065 1094.74 278.503 1073.9C276.341 1069.9 274.77 1065.62 273.839 1061.18C292.352 1079.27 321.465 1098.2 332.488 1095.52C346.62 1091.84 331.357 1033.05 325.28 975.535C319.204 918.017 314.54 857.955 337.293 826.723C360.046 795.491 385.342 826.723 385.342 826.723C399.475 857.955 436.925 1025.85 438.056 1059.48C439.186 1093.12 368.525 1126.61 343.37 1117.14Z" fill="#C2E0F2"/>
</g>
<path d="M319.064 804.535C337.859 806.938 312.563 838.594 303.659 857.673C289.696 893.07 283.386 931.023 285.146 969.035C286.842 1005.07 290.516 1053.83 285.146 1053.83C279.776 1053.83 268.894 972.85 272.568 919.854C276.243 866.859 291.082 801.002 319.064 804.535Z" fill="white"/>
<path d="M265.08 1305.81C286.561 1315.28 313.695 1360.92 307.477 1399.5C305.64 1412.36 257.025 1426.07 215.617 1396.68C174.21 1367.28 219.15 1285.6 265.08 1305.81Z" fill="#E4ECF1"/>
<g style="mix-blend-mode:multiply" opacity="0.8">
<path d="M204.453 1383.11C214.841 1389.35 226.958 1392.09 239.019 1390.92C251.08 1389.75 262.445 1384.73 271.439 1376.61C289.387 1359.23 285.572 1333.22 280.767 1317.96C290.597 1329 298.093 1341.92 302.805 1355.93C307.516 1369.95 309.346 1384.77 308.183 1399.5C306.346 1412.36 257.731 1426.07 216.324 1396.68C211.382 1393.12 207.322 1388.48 204.453 1383.11Z" fill="#C2E0F2"/>
</g>
<path d="M255.752 1311.74C271.439 1325.87 235.826 1364.74 220.563 1348.34C205.3 1331.95 242.75 1299.31 255.752 1311.74Z" fill="white"/>
<path d="M1055.36 380.428C1036.84 367.709 1081.64 522.598 943.993 611.349L921.947 595.944C1072.6 513.978 1003.91 315.42 1057.9 346.087C1111.88 376.754 1140.01 551.852 994.163 646.255L970.279 629.862C1099.31 539.557 1090.69 403.746 1055.36 380.428Z" fill="#5385A6"/>
<g style="mix-blend-mode:multiply">
<path d="M1018.04 616.862C1045.13 590.155 1066.16 557.93 1079.69 522.377C1093.23 486.824 1098.95 448.775 1096.48 410.814C1105.93 455.823 1101.16 502.656 1082.83 544.835C1064.5 587.015 1033.51 622.456 994.16 646.257L970.276 629.863C980.955 622.423 991.107 614.254 1000.66 605.414C1008.72 610.785 1018.04 616.862 1018.04 616.862Z" fill="#B5CBD8"/>
</g>
<g style="mix-blend-mode:multiply">
<path d="M921.945 595.947C933.44 589.547 944.238 581.969 954.166 573.336L968.298 579.554C1051.82 511.578 1038.96 417.174 1042.35 385.094C1044.47 365.027 1057.33 379.583 1061.71 385.094C1059.98 383.048 1057.99 381.242 1055.78 379.724C1037.26 367.005 1082.06 521.894 944.415 610.645L921.945 595.947Z" fill="#B5CBD8"/>
</g>
<path d="M963.493 589.869C1032.46 632.266 1060.3 696.426 1050.55 802.983C1048.01 833.171 1038.21 862.298 1022 887.887C1005.78 913.476 983.628 934.77 957.417 949.958C912.617 978.223 864.144 995.464 833.76 1036.87C745.292 1157.56 596.056 1242.78 449.08 1149.93C416.513 1130.23 389.445 1102.63 370.385 1069.69C351.324 1036.75 340.887 999.524 340.041 961.473C339.196 923.422 347.969 885.774 365.547 852.016C383.126 818.258 408.941 789.484 440.601 768.359C533.591 704.764 578.956 724.267 638.452 687.523C690.6 654.878 704.874 625.624 752.358 596.935C832.488 548.179 909.65 556.8 963.493 589.869Z" fill="#E4ECF1"/>
<g style="mix-blend-mode:multiply" opacity="0.8">
<path d="M352.414 1029.66C433.675 1151.48 520.164 1121.24 520.164 1080.96C520.164 1022.17 531.187 948.686 601 902.191C670.813 855.696 745.573 888.059 798.851 855.696C852.13 823.333 887.602 714.656 958.687 678.054C999.811 656.714 1027.51 669.292 1045.6 700.383C1052.81 734.087 1054.48 768.741 1050.55 802.983C1048.01 833.17 1038.21 862.297 1022 887.886C1005.78 913.475 983.626 934.77 957.415 949.958C912.616 978.222 864.142 995.464 833.758 1036.87C745.29 1157.56 596.054 1242.78 449.079 1149.93C403.99 1122.14 369.852 1079.67 352.414 1029.66Z" fill="#C2E0F2"/>
</g>
<g style="mix-blend-mode:multiply" opacity="0.5">
<path d="M393.682 1101.6C501.228 1199.11 570.335 1134.95 570.335 1134.95L709.113 969.035C721.267 1031.5 734.834 1055.95 754.337 1057.22C773.839 1058.49 782.601 1035.17 841.391 983.733C878.7 951.087 903.856 933.422 903.856 933.422C895.862 919.673 890.661 904.481 888.551 888.718C886.441 872.955 887.464 856.93 891.56 841.563L1048.29 815.842C1044.02 843.602 1033.59 870.055 1017.77 893.261C1001.95 916.468 981.132 935.839 956.851 949.957C912.052 978.221 863.579 995.463 833.194 1036.87C744.727 1157.56 595.49 1242.78 448.515 1149.93C427.927 1136.65 409.444 1120.35 393.682 1101.6Z" fill="#C2E0F2"/>
</g>
<path d="M849.585 578.844C915.724 570.223 947.663 603.293 930.422 622.937C913.18 642.58 853.26 659.68 812.841 670.704C757.302 685.825 724.233 687.238 674.487 734.44C629.123 776.837 583.052 821.353 533.165 821.353C444.98 821.353 448.371 761.291 530.762 738.114C592.096 720.732 654.419 701.37 690.033 670.704C725.646 640.037 793.904 586.052 849.585 578.844Z" fill="white"/>
<path d="M1012.82 692.325C1050.69 706.458 1062.42 769.205 1038.82 832.517C1015.22 895.829 965.331 935.682 927.457 921.55C889.583 907.418 877.712 844.671 901.312 781.359C924.913 718.046 974.8 678.193 1012.82 692.325Z" fill="#364A5B"/>
<path d="M1004.33 714.657C1035 725.963 1044.33 776.415 1025.39 827.715C1006.45 879.015 966.319 910.53 935.228 899.083C904.137 887.636 895.234 837.325 914.171 786.025C933.108 734.725 973.809 703.351 1004.33 714.657Z" fill="#2E3C4D"/>
<path d="M672.226 904.736C712.785 919.857 725.363 986.844 700.49 1054.54C675.617 1122.23 622.056 1164.63 581.497 1149.51C540.937 1134.38 528.077 1067.96 553.656 999.845C579.236 931.728 631.666 889.614 672.226 904.736Z" fill="#364A5B"/>
<path d="M663.324 928.76C695.97 940.772 705.721 994.758 685.795 1049.17C665.868 1103.58 622.624 1137.78 590.12 1125.62C557.615 1113.47 547.723 1059.48 567.649 1005.22C587.576 950.948 630.679 916.606 663.324 928.76Z" fill="#2E3C4D"/>
<path d="M601 775.991C657.529 820.649 576.128 841.282 519.881 900.072C471.408 950.666 488.367 1055.53 417.281 1012.42C341.815 966.918 375.591 871.101 414.879 828.704C454.167 786.308 547.157 733.171 601 775.991Z" fill="#2E3C4D"/>
<path d="M414.879 828.702C454.026 787.011 547.157 733.168 601.001 775.988C619.938 791.11 623.188 803.405 617.112 815.276C614.08 806.354 608.163 798.696 600.294 793.512C550.549 753.942 464.625 803.687 428.446 842.127C392.268 880.567 361.036 969.317 430.708 1011.71C437.86 1016.54 446.037 1019.63 454.591 1020.76C448.154 1022.39 441.424 1022.48 434.943 1021.03C428.463 1019.59 422.413 1016.63 417.282 1012.42C341.674 966.915 375.592 870.109 414.879 828.702Z" fill="#364A5B"/>
<path d="M702.613 1257.48C721.409 1267.79 749.25 1284.33 759.142 1305.24C769.035 1326.16 773.275 1405.58 756.74 1464.37C740.205 1523.16 722.399 1572.2 684.383 1583.22C646.367 1594.25 626.158 1583.22 588.849 1561.18C544.756 1534.18 548.431 1507.33 559.454 1479.07C570.477 1450.8 590.969 1431.16 601.144 1388.48C607.954 1356.26 616.445 1324.42 626.582 1293.09C636.333 1262.85 671.381 1240.23 702.613 1257.48Z" fill="#E4ECF1"/>
<g style="mix-blend-mode:multiply" opacity="0.8">
<path d="M559.313 1479.07C560.443 1476.38 561.574 1473.84 562.846 1471.29C568.921 1469.13 575.434 1468.48 581.816 1469.42C588.197 1470.36 594.252 1472.84 599.448 1476.67C628.843 1495.89 635.203 1529.38 640.856 1521.61C653.747 1499.95 662.157 1475.92 665.587 1450.94C673.925 1408.55 681.274 1350.75 675.762 1340.71C670.251 1330.68 633.366 1313.58 621.777 1307.64C623.049 1303.26 624.604 1298.46 626.441 1293.51C636.333 1263.27 671.381 1240.66 702.613 1257.9C721.409 1268.21 749.25 1284.75 759.142 1305.67C769.035 1326.58 773.275 1406 756.74 1464.79C740.205 1523.58 722.399 1572.62 684.383 1583.65C646.367 1594.67 626.158 1583.65 588.849 1561.6C544.615 1534.32 548.29 1507.33 559.313 1479.07Z" fill="#C2E0F2"/>
</g>
<path d="M747.552 1289.27C737.495 1291.49 727.727 1294.86 718.439 1299.31C694.132 1310.9 688.055 1320.93 665.585 1311.74C652.105 1306.47 639.022 1300.24 626.439 1293.09C636.331 1262.85 671.379 1240.23 702.611 1257.48C719.076 1265.8 734.22 1276.52 747.552 1289.27Z" fill="#5385A6"/>
<path d="M642.973 1586.33C623.504 1581.32 605.114 1572.79 588.706 1561.18C546.309 1535.03 548.146 1508.89 558.463 1481.61C564.179 1478.78 570.519 1477.44 576.893 1477.71C583.267 1477.98 589.469 1479.86 594.924 1483.17C628.417 1501.11 643.397 1551.99 642.973 1586.33Z" fill="#5385A6"/>
<g style="mix-blend-mode:multiply">
<path d="M731.018 1316.41C743.03 1319.52 748.683 1338.17 743.737 1358.8C738.79 1379.44 724.941 1392.72 712.928 1389.75C700.916 1386.78 695.122 1367.99 700.068 1347.36C705.014 1326.72 718.864 1313.44 731.018 1316.41Z" fill="#B5CBD8"/>
</g>
<path d="M697.808 1292.94C690.481 1294.75 683.602 1298.04 677.598 1302.61C671.594 1307.18 666.592 1312.93 662.902 1319.51L634.637 1305.38C634.105 1298.21 636.051 1291.08 640.149 1285.17C649.621 1281.42 659.898 1280.17 669.994 1281.53C680.089 1282.89 689.667 1286.82 697.808 1292.94Z" fill="#5385A6"/>
<path d="M631.67 1326.86C642.41 1331.25 634.072 1362.9 628.843 1400.35C622.484 1446.28 630.257 1459.14 623.756 1469.32C620.364 1474.69 609.623 1468.05 600.438 1462.82C591.252 1457.59 584.327 1460.56 583.903 1453.63C583.479 1446.71 600.861 1428.48 610.471 1391.73C617.396 1364.74 622.484 1323.19 631.67 1326.86Z" fill="white"/>
<path d="M629.547 975.397C653.713 963.95 694.273 980.202 708.688 1011.43C723.103 1042.67 760.27 1210.56 761.401 1244.19C762.531 1277.83 691.87 1311.32 666.715 1301.71C641.118 1294.48 618.431 1279.4 601.848 1258.61C586.303 1235.71 567.79 1004.23 629.547 975.397Z" fill="#E4ECF1"/>
<g style="mix-blend-mode:multiply" opacity="0.8">
<path d="M666.717 1301.71C641.119 1294.48 618.433 1279.4 601.85 1258.61C599.694 1254.56 598.123 1250.23 597.186 1245.75C615.7 1263.98 644.953 1282.91 655.835 1280.09C669.967 1276.55 654.705 1217.76 648.628 1160.11C642.551 1102.45 638.453 1042.67 660.64 1011.43C682.828 980.202 709.114 1011.43 709.114 1011.43C723.246 1042.67 760.696 1210.56 761.827 1244.19C762.957 1277.83 691.872 1311.32 666.717 1301.71Z" fill="#C2E0F2"/>
</g>
<path d="M642.41 989.248C661.205 991.65 635.909 1023.31 627.147 1042.24C613.177 1077.35 606.725 1115 608.21 1152.76C610.047 1188.65 613.58 1237.55 608.21 1237.55C602.839 1237.55 591.958 1156.57 595.632 1103.44C599.306 1050.3 614.569 985.573 642.41 989.248Z" fill="white"/>
<path d="M588.423 1490.52C609.904 1499.84 637.18 1545.63 631.527 1584.21C629.689 1596.93 581.075 1610.78 539.667 1581.39C498.26 1551.99 542.494 1470.17 588.423 1490.52Z" fill="#E4ECF1"/>
<g style="mix-blend-mode:multiply" opacity="0.8">
<path d="M527.796 1567.68C538.184 1573.92 550.302 1576.65 562.363 1575.48C574.423 1574.31 585.789 1569.3 594.783 1561.18C612.872 1543.94 608.915 1517.79 604.11 1502.67C613.961 1513.7 621.471 1526.61 626.183 1540.63C630.896 1554.64 632.714 1569.47 631.527 1584.21C629.69 1596.93 581.075 1610.78 539.667 1581.39C534.688 1577.81 530.621 1573.12 527.796 1567.68Z" fill="#C2E0F2"/>
</g>
<path d="M579.097 1496.45C594.925 1511.29 559.17 1549.31 543.908 1532.91C528.645 1516.52 565.813 1483.87 579.097 1496.45Z" fill="white"/>
<path d="M1027.51 1016.38C1048.57 1023.59 1069.91 1037.58 1079.52 1086.05C1090.12 1127.62 1109.38 1166.49 1136.05 1200.1C1161.77 1235.01 1178.44 1275.42 1158.09 1305.81C1137.74 1336.19 1076.41 1368.27 1023.13 1338.88C969.853 1309.48 965.189 1267.23 952.47 1222.15C939.751 1177.06 927.032 1113.61 930.424 1078.84C930.911 1067.54 934.104 1056.52 939.736 1046.71C945.368 1036.9 953.273 1028.58 962.787 1022.46C972.301 1016.34 983.145 1012.59 994.409 1011.54C1005.67 1010.48 1017.02 1012.14 1027.51 1016.38Z" fill="#E4ECF1"/>
<g style="mix-blend-mode:multiply" opacity="0.8">
<path d="M987.094 1091.71C970.359 1079.99 952.341 1070.22 933.392 1062.59C936.107 1053.09 940.785 1044.27 947.123 1036.69C953.462 1029.11 961.319 1022.94 970.189 1018.58C979.059 1014.23 988.743 1011.78 998.617 1011.4C1008.49 1011.02 1018.33 1012.72 1027.51 1016.38C1048.57 1023.59 1069.91 1037.58 1079.52 1086.05C1090.12 1127.63 1109.38 1166.49 1136.05 1200.1C1161.77 1235.01 1178.44 1275.42 1158.09 1305.81C1137.74 1336.19 1076.41 1368.27 1023.13 1338.88C1008.48 1331.15 995.623 1320.43 985.396 1307.4C975.168 1294.37 967.802 1279.34 963.776 1263.27C992.04 1233.31 1029.63 1272.17 1030.48 1264.4C1031.33 1256.63 1012.11 1221.3 1002.92 1179.61C993.736 1137.92 996.28 1101.88 987.094 1091.71Z" fill="#C2E0F2"/>
</g>
<g style="mix-blend-mode:multiply">
<path d="M1041.65 1062.87C1053.94 1063.72 1062.84 1081.25 1061.29 1101.88C1059.73 1122.51 1048.29 1138.62 1036.13 1137.49C1023.98 1136.36 1014.94 1119.12 1016.49 1098.49C1018.04 1077.85 1029.21 1061.88 1041.65 1062.87Z" fill="#B5CBD8"/>
</g>
<path d="M998.401 1262.99C1030.91 1269.06 1049.14 1293.09 1065.81 1319.52C1072.17 1329.48 1079.3 1338.94 1087.15 1347.78C1065.28 1352.13 1042.58 1348.68 1022.99 1338.03C1009.5 1330.88 997.559 1321.13 987.856 1309.34C978.154 1297.55 970.883 1283.96 966.463 1269.35C970.939 1265.9 976.15 1263.54 981.689 1262.43C987.228 1261.33 992.947 1261.52 998.401 1262.99Z" fill="#5385A6"/>
<path d="M1027.51 1016.38C1040.18 1020.25 1051.41 1027.83 1059.73 1038.14C1052.71 1038.87 1045.87 1040.83 1039.52 1043.94C1021.01 1052.84 1004.19 1062.31 981.722 1059.06C978.609 1062.49 976.079 1066.4 974.231 1070.65C963.282 1068.08 952.985 1063.26 943.989 1056.51C945.23 1053.19 946.742 1049.98 948.511 1046.9L942.01 1043.37C951.101 1029.86 964.508 1019.83 980.04 1014.92C995.572 1010.02 1012.31 1010.53 1027.51 1016.38Z" fill="#5385A6"/>
<path d="M949.362 1085.91C966.604 1089.02 968.441 1114.18 969.006 1159.4C969.006 1199.25 985.824 1238.4 976.355 1240.23C966.886 1242.07 956.711 1206.03 948.797 1164.91C940.883 1123.79 932.828 1083.08 949.362 1085.91Z" fill="white"/>
<path d="M993.736 1269.49C1017.05 1271.18 1058.04 1305.1 1065.81 1343.26C1068.35 1355.98 1027.09 1385.65 978.191 1371.52C929.293 1357.39 943.708 1265.81 993.736 1269.49Z" fill="#E4ECF1"/>
<g style="mix-blend-mode:multiply" opacity="0.8">
<path d="M962.504 1362.48C974.345 1364.9 986.648 1363.46 997.61 1358.37C1008.57 1353.28 1017.62 1344.82 1023.41 1334.21C1034.58 1311.89 1022 1288.71 1012.53 1275.99C1025.51 1283.08 1036.92 1292.71 1046.07 1304.32C1055.23 1315.93 1061.94 1329.27 1065.81 1343.54C1068.35 1356.26 1027.09 1385.94 978.191 1371.81C972.246 1370.1 966.842 1366.89 962.504 1362.48Z" fill="#C2E0F2"/>
</g>
<path d="M986.955 1278.25C1006.74 1286.87 985.825 1334.78 966.04 1324.32C946.255 1313.86 970.279 1270.9 986.955 1278.25Z" fill="white"/>
<path d="M1001.79 734.441C1022.99 726.103 1067.08 742.355 1074.43 769.347C1086.3 813.44 1071.6 995.463 1063.41 1014.54C1055.21 1033.62 1000.94 1052.27 980.734 1046.76C960.525 1041.25 931.13 1031.08 921.944 1012.7C912.758 994.332 918.411 920.986 930.282 853.858C942.153 786.73 979.321 742.92 1001.79 734.441Z" fill="#E4ECF1"/>
<g style="mix-blend-mode:multiply" opacity="0.8">
<path d="M1063.41 1014.54C1055.07 1032.91 1000.94 1052.27 980.734 1046.76C960.525 1041.25 931.13 1031.08 921.944 1012.7C921.11 1010.93 920.447 1009.09 919.965 1007.19C940.881 1025.56 971.972 1031.64 977.625 1023.73C983.278 1015.81 983.984 922.682 991.757 860.217C999.53 797.753 1015.64 767.51 1037.69 759.172C1044.12 756.95 1051.08 756.733 1057.64 758.55C1064.2 760.367 1070.06 764.132 1074.43 769.347C1086.3 813.581 1071.6 996.169 1063.41 1014.54Z" fill="#C2E0F2"/>
</g>
<path d="M1010.98 746.315C1025.11 755.501 988.932 784.048 966.886 833.652C941.024 891.877 937.491 1000.84 930.142 999.847C922.794 998.858 923.783 926.36 939.328 855.698C954.874 785.037 995.433 736.564 1010.98 746.315Z" fill="white"/>
<path d="M406.964 466.495C406.964 466.495 402.442 413.64 352.979 444.731C305.365 478.626 268.677 525.678 247.412 580.118L298.994 537.721C298.994 537.721 325.563 485.008 363.296 464.233C386.331 451.514 386.331 480.203 386.331 480.203L406.964 466.495Z" fill="#5385A6"/>
<g style="mix-blend-mode:multiply">
<path d="M377.711 441.762C382.42 441.533 387.124 442.309 391.51 444.039C395.896 445.77 399.864 448.414 403.149 451.796C405.088 456.301 406.373 461.06 406.964 465.928L386.331 480.06C386.331 480.06 386.331 451.796 363.296 464.091C325.563 484.865 298.994 537.579 298.994 537.579L263.946 565.843C304.223 476.951 358.208 443.458 377.711 441.762Z" fill="#B5CBD8"/>
</g>
<path d="M533.307 477.942C642.125 543.799 658.519 650.214 627.428 743.204C596.337 836.194 389.724 954.905 293.342 978.647C196.96 1002.39 146.084 962.395 122.06 941.762C71.8902 899.365 68.2158 813.3 116.407 738.682C167.424 659.683 262.817 544.222 317.367 504.37C402.443 442.329 483.986 448.123 533.307 477.942Z" fill="#E4ECF1"/>
<g style="mix-blend-mode:multiply" opacity="0.8">
<path d="M200.352 939.642L520.73 652.475C520.73 652.475 546.026 580.825 512.674 526.133C502.387 508.673 488.357 493.71 471.594 482.322C454.83 470.935 435.75 463.406 415.727 460.277C455.828 451.662 497.698 458.154 533.307 478.508C642.125 544.364 658.519 650.78 627.428 743.77C596.337 836.76 389.724 954.905 293.342 978.647C196.96 1002.39 146.084 962.395 122.06 941.762C115.821 936.45 110.224 930.426 105.384 923.814C162.336 960.134 200.352 939.642 200.352 939.642Z" fill="#C2E0F2"/>
</g>
<path d="M432.263 483.737C493.88 518.644 349.59 617.993 315.107 582.663C280.624 547.332 389.725 460.278 432.263 483.737Z" fill="white"/>
<path d="M116.409 738.681C168.221 659.729 228.707 586.824 296.736 521.327C358.07 502.672 463.496 515.391 520.732 652.474C520.732 652.474 466.04 770.337 450.071 807.928C434.101 845.52 420.676 858.946 377.714 886.08C334.752 913.213 285.854 942.608 233 948.12C190.603 952.642 112.593 918.584 83.4808 858.804C81.2381 816.262 92.7865 774.133 116.409 738.681Z" fill="#19212C"/>
<path d="M501.228 651.345C501.228 651.345 432.263 502.674 299.279 537.722C299.279 537.722 219.008 622.516 156.967 705.33C94.9268 788.145 97.1879 854.567 97.1879 854.567C124.819 804.779 158.368 758.514 197.103 716.778C249.675 665.195 359.906 557.225 501.228 651.345Z" fill="#2E3C4D"/>
<path d="M560.866 569.8C627.146 528.675 700.916 599.761 735.398 688.087C769.881 776.413 758.434 862.62 696.394 897.103C628.276 934.977 613.437 840.574 583.336 762.705C549.418 678.901 494.303 611.208 560.866 569.8ZM610.187 750.551C634.777 812.168 647.072 891.874 691.871 868.414C732.855 846.368 741.193 766.521 713.776 696.142C686.36 625.764 625.732 565.843 581.923 589.303C527.513 617.991 583.618 683.847 610.187 750.551Z" fill="#5385A6"/>
<g style="mix-blend-mode:multiply">
<path d="M576.411 695.862C551.397 644.139 551.397 622.658 556.626 606.264C561.855 589.871 590.119 566.694 627.994 584.783C648.322 594.897 665.084 610.969 676.043 630.854C646.931 594.676 610.187 573.336 581.923 589.306C527.937 617.57 584.042 683.85 610.187 750.554C624.319 785.602 634.212 826.586 648.485 851.034C657.671 870.113 673.782 885.8 700.351 870.113C751.509 841.848 733.137 747.586 733.137 747.586C733.137 694.025 706.569 638.91 689.751 609.373C709.058 633.017 724.467 659.59 735.398 688.09C769.881 776.558 758.434 862.623 696.394 897.105C646.648 925.37 625.732 881.701 605.523 826.444C607.335 781.126 597.301 736.119 576.411 695.862Z" fill="#B5CBD8"/>
</g>
<path d="M363.585 354.179C348.304 354.179 334.881 351.907 323.317 347.364C311.753 343.028 302.77 335.903 296.368 325.991C289.967 316.079 286.766 302.863 286.766 286.343C286.766 269.823 289.451 253.716 294.82 238.021C300.395 222.121 308.036 207.356 317.741 193.727C327.447 180.097 338.805 168.12 351.814 157.795C365.03 147.47 379.279 139.417 394.56 133.634C409.841 127.852 425.742 124.961 442.262 124.961C460.641 124.961 475.612 128.059 487.177 134.254C498.741 140.449 507.207 148.916 512.576 159.654C518.152 170.185 520.94 182.059 520.94 195.275C520.94 212.828 516.706 231.207 508.24 250.412C499.567 270.029 488.209 287.685 474.167 303.379C460.125 319.074 443.708 331.464 424.916 340.55C406.331 349.636 385.887 354.179 363.585 354.179ZM391.772 337.762C403.956 334.458 415.933 328.366 427.704 319.487C439.475 310.607 450.109 299.972 459.608 287.582C469.108 275.192 476.645 262.182 482.221 248.553C490.894 227.696 495.23 208.079 495.23 189.7C495.23 186.809 495.024 184.021 494.611 181.336C494.404 178.652 494.094 176.071 493.681 173.593C491.41 160.996 486.144 152.116 477.884 146.954C469.624 141.791 460.331 139.21 450.006 139.21C439.268 139.21 428.323 141.378 417.172 145.715C406.021 149.845 396.419 155.007 388.365 161.202C378.453 169.05 369.264 178.032 360.797 188.151C352.331 198.27 345.206 209.008 339.424 220.365C334.468 230.278 330.441 241.119 327.344 252.89C324.453 264.454 323.007 275.708 323.007 286.653C323.007 296.565 324.453 305.651 327.344 313.911C330.235 322.171 334.984 328.882 341.592 334.045C348.2 339.001 356.977 341.479 367.921 341.479C374.943 341.479 382.893 340.24 391.772 337.762ZM533.702 346.125C527.92 346.125 523.584 344.06 520.693 339.93C517.802 335.594 516.356 329.812 516.356 322.584C516.356 321.552 516.356 320.519 516.356 319.487C516.356 318.454 516.46 317.422 516.666 316.389C517.699 308.542 519.454 299.662 521.932 289.75C524.616 279.838 527.714 269.41 531.224 258.465C533.289 252.27 535.871 244.526 538.968 235.234C542.272 225.734 546.093 215.616 550.429 204.878C554.766 193.933 559.515 183.092 564.678 172.354C570.047 161.615 575.932 151.91 582.334 143.237C588.735 134.357 595.447 127.233 602.468 121.864C609.695 116.495 617.336 113.81 625.39 113.81C631.998 113.81 636.541 115.462 639.019 118.766C641.497 121.864 642.736 125.581 642.736 129.917C642.736 134.46 641.91 139.107 640.258 143.856C638.606 148.399 636.954 152.22 635.302 155.317C631.585 162.751 626.732 171.115 620.743 180.407C614.755 189.7 608.456 198.373 601.848 206.427C597.925 211.589 593.072 217.371 587.29 223.773C581.508 230.174 576.035 236.06 570.873 241.429C565.917 246.798 562.303 250.515 560.032 252.58L555.075 266.828C553.63 270.752 552.184 275.398 550.739 280.767C549.5 286.136 548.364 291.505 547.332 296.875C546.506 302.037 545.783 306.58 545.163 310.504C544.957 311.33 544.854 312.156 544.854 312.982C544.854 313.808 544.854 314.531 544.854 315.15C544.854 321.345 547.228 324.443 551.978 324.443C554.869 324.443 558.483 323.1 562.819 320.416C566.949 317.938 570.873 314.737 574.59 310.813C578.514 306.683 581.301 303.586 582.953 301.521C587.083 296.152 591.007 290.473 594.724 284.484C598.441 278.289 601.642 272.611 604.326 267.448C605.359 265.796 606.082 264.97 606.495 264.97C607.734 264.97 608.353 266.725 608.353 270.236C608.353 271.888 608.043 273.85 607.424 276.121C607.011 278.186 606.288 280.148 605.256 282.006C602.365 286.962 598.957 292.435 595.034 298.423C591.11 304.412 587.083 310.194 582.953 315.77C579.856 319.9 575.519 324.339 569.944 329.089C564.368 333.838 558.38 337.865 551.978 341.169C545.576 344.473 539.485 346.125 533.702 346.125ZM566.227 234.924C576.552 222.74 586.98 209.731 597.512 195.895C608.25 181.853 617.129 167.604 624.151 153.149C624.564 152.116 625.493 150.051 626.938 146.954C628.384 143.856 629.726 140.449 630.965 136.732C632.204 132.808 632.824 129.504 632.824 126.82C632.824 123.309 631.481 121.554 628.797 121.554H626.629C623.944 121.554 620.743 123.413 617.026 127.13C613.516 130.847 609.902 135.803 606.185 141.998C601.435 149.845 596.789 158.931 592.246 169.256C587.703 179.375 583.263 190.113 578.927 201.47C574.59 212.828 570.357 223.979 566.227 234.924ZM661.653 195.585C656.283 193.727 653.599 190.216 653.599 185.054C653.599 180.304 655.457 175.451 659.174 170.495C663.098 165.333 667.331 162.029 671.874 160.583C672.907 160.17 673.733 159.963 674.352 159.963C675.178 159.963 676.004 159.963 676.83 159.963C680.341 159.963 683.232 160.996 685.504 163.061C687.775 165.126 688.911 167.501 688.911 170.185C688.911 173.902 686.949 177 683.025 179.478C679.928 179.065 676.934 179.788 674.043 181.646C671.152 183.505 668.57 185.776 666.299 188.461C664.234 191.145 662.685 193.52 661.653 195.585ZM608.375 346.125C605.69 346.125 603.109 345.506 600.631 344.267C598.153 343.234 596.088 341.066 594.436 337.762C592.164 332.806 591.029 326.921 591.029 320.106C591.029 312.672 592.164 304.412 594.436 295.326C596.708 286.033 599.702 276.534 603.419 266.828C604.864 263.318 606.723 258.981 608.994 253.819C611.266 248.656 613.95 243.494 617.048 238.331C620.146 233.169 623.656 228.935 627.58 225.631C631.71 222.121 636.149 220.365 640.899 220.365C643.171 220.365 646.371 220.469 650.501 220.675C654.631 220.882 657.626 220.882 659.484 220.675C658.245 221.501 656.8 223.153 655.148 225.631C653.496 228.109 651.947 230.691 650.501 233.375C649.056 235.853 647.92 237.815 647.094 239.26C641.725 249.999 636.666 260.633 631.916 271.165C627.167 281.697 623.553 291.815 621.075 301.521C620.662 303.173 620.352 304.825 620.146 306.477C619.939 308.129 619.836 309.678 619.836 311.123C619.836 317.112 621.798 320.106 625.721 320.106C627.373 320.106 629.128 319.693 630.987 318.867C633.052 317.835 635.427 316.286 638.111 314.221C642.861 310.504 646.991 306.27 650.501 301.521C654.631 296.152 658.555 290.473 662.272 284.484C665.989 278.289 669.19 272.611 671.874 267.448C672.907 265.796 673.63 264.97 674.043 264.97C675.282 264.97 675.901 266.725 675.901 270.236C675.901 271.888 675.591 273.85 674.972 276.121C674.559 278.186 673.836 280.148 672.804 282.006C669.913 286.962 666.505 292.435 662.582 298.423C658.658 304.412 654.631 310.194 650.501 315.77C647.61 319.693 643.79 324.03 639.04 328.779C634.291 333.529 629.232 337.659 623.863 341.169C618.494 344.473 613.331 346.125 608.375 346.125ZM675.219 346.435C669.85 346.435 665.513 343.544 662.209 337.762C658.905 331.98 657.666 324.339 658.492 314.84C658.905 308.852 660.247 301.314 662.519 292.228C664.997 282.936 668.094 273.643 671.811 264.35C675.528 254.851 679.452 246.798 683.582 240.19C688.951 231.723 694.94 226.251 701.548 223.773C708.362 221.295 716.829 220.056 726.948 220.056C727.774 220.056 728.187 220.469 728.187 221.295C728.187 222.121 727.567 223.153 726.328 224.392C723.437 226.87 720.03 231.413 716.106 238.021C712.183 244.629 708.362 251.857 704.645 259.704C701.135 267.551 698.037 274.779 695.353 281.387C693.288 286.756 691.326 292.332 689.467 298.114C687.815 303.896 686.989 309.058 686.989 313.601C686.989 317.318 687.712 320.313 689.158 322.584C690.81 324.856 693.597 325.991 697.521 325.991C701.651 325.785 706.194 322.791 711.15 317.009C716.106 311.226 720.856 304.102 725.399 295.636C729.942 287.169 733.659 278.909 736.55 270.855C736.137 268.584 735.724 266.209 735.311 263.731C735.104 261.253 735.001 258.672 735.001 255.987C735.001 252.27 735.311 248.45 735.93 244.526C736.756 240.396 737.892 236.369 739.338 232.446C742.022 225.631 745.739 221.604 750.489 220.365C751.315 220.159 752.038 220.056 752.657 220.056C753.483 219.849 754.309 219.746 755.135 219.746C759.059 219.746 761.64 221.191 762.879 224.082C764.324 226.767 765.047 229.968 765.047 233.685C765.047 237.402 764.634 241.119 763.808 244.836C762.982 248.346 762.259 251.031 761.64 252.89C760.194 256.813 758.542 260.633 756.684 264.35C754.825 267.861 752.967 271.372 751.108 274.882C751.521 281.284 753.173 286.24 756.064 289.75C759.162 293.261 762.776 295.016 766.906 295.016C772.068 295.016 777.231 292.745 782.393 288.201C785.284 285.723 787.866 282.626 790.137 278.909C792.615 274.985 794.784 271.372 796.642 268.067C797.675 266.209 798.397 265.796 798.81 266.828C799.223 267.861 799.43 269.513 799.43 271.785C799.43 273.643 799.223 275.708 798.81 277.98C798.604 280.045 798.088 281.697 797.262 282.936C794.371 288.098 791.067 292.435 787.35 295.945C783.632 299.249 779.709 301.727 775.579 303.379C772.275 304.618 768.868 305.238 765.357 305.238C760.607 305.238 756.168 303.896 752.038 301.211C748.114 298.32 745.017 293.984 742.745 288.201C738.408 294.603 734.382 300.488 730.665 305.857C727.154 311.02 724.47 314.737 722.611 317.009C716.416 324.856 709.292 331.773 701.238 337.762C693.391 343.544 684.718 346.435 675.219 346.435ZM846.275 339.93C836.776 344.886 826.761 347.364 816.229 347.364C807.35 347.364 799.089 345.196 791.449 340.86C783.808 336.523 778.646 329.605 775.961 320.106C774.722 315.77 774.103 311.226 774.103 306.477C774.103 298.63 775.445 290.576 778.129 282.316C781.021 273.85 784.738 266.106 789.281 259.085C796.302 248.14 805.181 239.054 815.919 231.826C826.658 224.599 838.531 220.985 851.541 220.985C861.247 220.985 868.784 223.463 874.153 228.419C879.522 233.375 882.207 239.157 882.207 245.765C882.207 253.612 879.522 260.53 874.153 266.519C868.991 272.301 862.176 276.741 853.709 279.838C849.579 281.284 845.14 282.419 840.39 283.245C835.847 283.865 831.51 284.175 827.38 284.175C818.914 284.175 812.409 283.039 807.866 280.767C803.942 290.886 801.981 300.179 801.981 308.645C801.981 316.286 803.736 322.584 807.246 327.54C810.757 332.29 816.332 334.664 823.973 334.664C830.375 334.664 836.673 332.909 842.868 329.399C849.27 325.888 855.155 321.552 860.524 316.389C866.1 311.226 870.746 306.27 874.463 301.521C877.354 298.01 879.832 294.706 881.897 291.609C883.962 288.511 886.13 285.001 888.402 281.077C890.673 276.947 893.358 271.888 896.455 265.899C897.281 264.454 898.004 263.731 898.624 263.731C899.863 263.731 900.482 265.383 900.482 268.687C900.482 270.545 900.172 272.611 899.553 274.882C899.14 276.947 898.314 279.115 897.075 281.387C894.184 286.549 890.673 292.228 886.543 298.423C882.62 304.412 878.593 310.194 874.463 315.77C870.746 320.726 866.513 325.269 861.763 329.399C857.013 333.529 851.851 337.039 846.275 339.93ZM818.088 273.953C819.12 274.572 820.256 274.985 821.495 275.192C822.734 275.398 823.973 275.502 825.212 275.502C829.342 275.502 833.472 274.572 837.602 272.714C841.732 270.649 845.243 268.584 848.134 266.519C852.883 263.215 856.91 259.291 860.214 254.748C863.518 250.205 865.377 245.042 865.79 239.26C865.996 236.782 865.377 234.717 863.931 233.065C862.692 231.207 860.421 230.278 857.117 230.278C855.465 230.278 853.4 230.587 850.922 231.207C847.618 232.033 844.313 233.582 841.009 235.853C837.705 238.125 834.505 240.809 831.407 243.907C830.375 244.939 828.516 247.004 825.832 250.102C823.354 252.993 820.979 256.297 818.707 260.014C816.436 263.524 815.3 266.622 815.3 269.306C815.3 271.578 816.229 273.127 818.088 273.953ZM936.227 346.435C929.619 346.435 924.87 343.647 921.979 338.072C919.707 333.116 918.571 327.23 918.571 320.416C918.571 312.775 919.707 304.309 921.979 295.016C924.25 285.723 927.348 276.224 931.271 266.519C932.717 263.008 934.575 258.568 936.847 253.199C939.325 247.83 942.216 242.564 945.52 237.402C942.629 239.88 939.221 241.945 935.298 243.597C931.374 245.042 927.554 245.765 923.837 245.765C920.946 245.765 918.571 245.352 916.713 244.526C915.061 247.83 912.376 253.199 908.659 260.633C904.942 268.067 899.986 276.844 893.791 286.962C893.171 287.995 892.552 287.995 891.932 286.962C891.519 285.723 891.313 284.071 891.313 282.006C891.313 280.354 891.519 278.599 891.932 276.741C892.345 274.882 892.965 273.127 893.791 271.475C895.856 267.551 897.921 263.524 899.986 259.394C902.051 255.058 903.91 251.238 905.562 247.933C907.214 244.629 908.143 242.564 908.349 241.738C904.632 239.88 901.845 237.299 899.986 233.995C898.128 230.484 897.198 227.077 897.198 223.773C897.198 220.469 897.921 217.474 899.367 214.79C901.019 212.105 903.393 210.04 906.491 208.595C908.349 207.975 910.105 207.666 911.757 207.666C916.3 207.666 920.017 209.111 922.908 212.002C922.701 212.828 922.495 213.757 922.288 214.79C922.288 215.616 922.288 216.545 922.288 217.578C922.288 223.979 924.87 228.729 930.032 231.826C935.195 234.924 940.77 236.06 946.759 235.234C949.65 231.104 952.954 227.49 956.671 224.392C960.388 221.295 964.415 219.746 968.751 219.746C971.023 219.746 974.224 219.849 978.354 220.056C982.69 220.262 985.788 220.262 987.646 220.056C986.407 220.882 984.962 222.534 983.31 225.012C981.658 227.49 980.109 230.071 978.663 232.756C977.218 235.44 976.082 237.505 975.256 238.951C969.681 249.689 964.518 260.427 959.768 271.165C955.019 281.697 951.405 291.815 948.927 301.521C948.514 303.379 948.101 305.135 947.688 306.787C947.482 308.232 947.378 309.781 947.378 311.433C947.378 317.628 949.443 320.726 953.573 320.726C956.464 320.726 960.594 318.661 965.964 314.531C970.713 310.607 974.946 306.27 978.663 301.521C982.793 296.152 986.717 290.37 990.434 284.175C994.151 277.98 997.352 272.301 1000.04 267.138C1001.07 265.486 1001.79 264.66 1002.2 264.66C1003.44 264.66 1004.06 266.519 1004.06 270.236C1004.06 271.681 1003.86 273.437 1003.44 275.502C1003.03 277.567 1002.31 279.528 1001.28 281.387C998.178 286.549 994.667 292.228 990.744 298.423C986.82 304.412 982.793 310.297 978.663 316.079C975.979 319.796 972.159 324.03 967.203 328.779C962.453 333.529 957.29 337.659 951.715 341.169C946.346 344.68 941.183 346.435 936.227 346.435Z" fill="#0276FF"/>
<path d="M443.005 196.932C452.369 198.703 460.968 207.686 462.329 217.118C463.729 226.821 456.828 233.427 447.195 231.605C437.832 229.833 429.233 220.85 427.872 211.419C426.472 201.716 433.373 195.11 443.005 196.932ZM403.013 191.299C412.377 193.07 420.976 202.053 422.337 211.485C423.737 221.188 416.836 227.794 407.203 225.972C397.84 224.2 389.241 215.217 387.88 205.785C386.48 196.083 393.381 189.476 403.013 191.299ZM378.062 215.2C387.426 216.972 396.024 225.955 397.385 235.387C398.786 245.089 391.884 251.696 382.252 249.873C372.889 248.102 364.29 239.119 362.929 229.687C361.528 219.985 368.43 213.378 378.062 215.2ZM382.576 255.802C391.94 257.574 400.539 266.557 401.9 275.989C403.3 285.691 396.399 292.298 386.766 290.475C377.403 288.704 368.804 279.721 367.443 270.289C366.043 260.586 372.944 253.98 382.576 255.802Z" fill="black"/>
<path d="M997.248 220.708C1005.5 232.383 1022.9 228.481 1022.83 213.878C1022.73 192.135 1019.24 179.212 1010.84 174.195C1002.43 169.178 989.403 172.244 970.218 182.477C957.333 189.349 962.158 206.515 976.351 208.236C982.831 209.022 993.48 215.377 997.248 220.708ZM972.521 135.081C963.79 138.901 957.417 149.579 958.199 159.077C959.004 168.847 967.207 173.743 976.188 169.813C984.919 165.993 991.292 155.315 990.51 145.818C989.705 136.048 981.502 131.152 972.521 135.081ZM1010.24 120.65C1001.51 124.47 995.138 135.148 995.92 144.645C996.724 154.415 1004.93 159.312 1013.91 155.382C1022.64 151.562 1029.01 140.884 1028.23 131.387C1027.43 121.617 1019.22 116.72 1010.24 120.65ZM1039.9 138.369C1031.17 142.189 1024.8 152.867 1025.58 162.364C1026.39 172.134 1034.59 177.03 1043.57 173.101C1052.3 169.281 1058.68 158.603 1057.89 149.105C1057.09 139.335 1048.89 134.439 1039.9 138.369ZM1044.58 178.952C1035.85 182.772 1029.48 193.45 1030.26 202.947C1031.06 212.717 1039.27 217.614 1048.25 213.684C1056.98 209.864 1063.35 199.186 1062.57 189.689C1061.77 179.919 1053.56 175.022 1044.58 178.952Z" fill="black"/>
<path d="M448.319 99.8115C446.919 100.85 444.923 101.947 442.331 103.102C439.823 104.196 436.946 105.052 433.701 105.671C430.539 106.228 427.277 106.22 423.915 105.648L365.897 96.3751C368.458 100.861 371.07 105.246 373.734 109.527C376.398 113.809 378.767 117.607 380.842 120.921C381.309 121.724 381.387 122.432 381.076 123.046C380.765 123.66 380.239 124.242 379.497 124.791C378.179 125.769 376.502 126.693 374.466 127.564C372.513 128.374 370.326 128.783 367.905 128.79C365.423 128.715 362.904 127.901 360.348 126.348C357.731 124.713 355.141 121.909 352.578 117.936C349.669 113.324 346.252 107.941 342.327 101.785C338.401 95.6296 334.159 89.1338 329.601 82.2977C325.043 75.4617 320.444 68.6562 315.803 61.8812C311.163 55.1063 306.674 48.7938 302.336 42.9437C302.012 42.1623 302.171 41.3426 302.811 40.4844C303.391 39.5439 304.216 38.6765 305.287 37.8823C307.265 36.416 309.65 35.4136 312.443 34.875C315.257 34.1929 318.22 34.486 321.332 35.7545C324.464 36.8795 327.528 39.4607 330.521 43.4981C333.148 47.0411 335.855 51.0359 338.641 55.4824C341.366 59.8466 344.377 64.5098 347.673 69.4721C348.433 61.8856 348.793 54.2763 348.752 46.6444C348.712 39.0125 348.382 31.8509 347.762 25.1595C347.225 18.407 346.508 12.6178 345.611 7.79176C350.143 4.43156 354.098 3.22231 357.478 4.164C360.941 5.04461 364.107 7.4212 366.979 11.2938C368.506 13.3537 369.566 16.5907 370.157 21.0047C370.687 25.3363 370.813 30.4146 370.535 36.2394C370.339 42.0031 369.864 48.1654 369.111 54.7261C368.357 61.2869 367.459 67.8263 366.418 74.3445L446.655 94.7248C447.72 94.9563 448.528 95.4428 449.078 96.1844C450.055 97.5027 449.803 98.7117 448.319 99.8115Z" fill="black"/>
<path d="M320.678 163.867C312.964 172.519 305.405 177.528 298 178.897C290.664 180.189 284.546 178.65 279.646 174.281C277.12 172.029 275.505 169.833 274.801 167.693C274.089 165.409 274.484 163.425 275.986 161.741C280.091 162.378 284.299 162.282 288.61 161.454C292.914 160.481 296.864 159.056 300.462 157.179C303.983 155.234 306.699 153.189 308.611 151.046C310.113 149.361 311.001 147.748 311.276 146.207C311.543 144.521 310.949 143.029 309.494 141.732C308.499 140.845 307.409 140.217 306.226 139.849C305.111 139.404 303.445 139.499 301.229 140.135C299.005 140.625 295.92 141.928 291.972 144.043L286.998 146.617C281.491 149.402 276.807 151.341 272.946 152.434C269.154 153.45 265.746 153.573 262.724 152.802C259.769 151.954 256.837 150.233 253.928 147.639C251.172 145.181 248.549 141.88 246.059 137.736C243.638 133.516 241.52 128.879 239.705 123.825C237.958 118.694 236.752 113.496 236.088 108.23C235.423 102.965 235.503 98.0201 236.328 93.3959C237.153 88.7717 238.999 84.8518 241.866 81.6363C244.255 78.9567 246.575 76.9713 248.826 75.68C251 74.3204 253.949 73.7883 257.671 74.0837C260.126 72.5627 262.628 71.8383 265.175 71.9104C267.645 71.9142 269.885 72.3308 271.894 73.1602C273.826 73.9214 275.328 74.7798 276.4 75.7355C278.391 77.5104 280.308 79.9071 282.152 82.9254C283.996 85.9438 285.809 89.0729 287.593 92.3126C289.377 95.5524 291.106 98.4684 292.78 101.061C293.333 101.828 293.702 102.57 293.888 103.286C294.075 104.001 293.792 104.78 293.041 105.623C291.949 106.848 290.044 107.828 287.325 108.565C284.598 109.157 281.698 109.251 278.623 108.846C275.549 108.441 273.016 107.351 271.026 105.576C269.494 104.21 268.049 102.441 266.689 100.266C265.33 98.0919 264.085 96.02 262.955 94.0505C261.749 92.0128 260.725 90.6184 259.882 89.8675C259.346 89.3896 258.891 89.0525 258.517 88.8559C258.142 88.6594 257.716 88.8292 257.238 89.3651C256.078 90.6666 255.593 92.9828 255.784 96.3138C255.966 99.5 256.646 103.13 257.824 107.203C258.993 111.132 260.593 114.964 262.623 118.698C264.577 122.364 266.778 125.289 269.228 127.474C270.53 128.634 272.378 129.182 274.771 129.118C277.233 128.977 280.617 127.802 284.922 125.594L289.475 123.263C296.533 119.662 302.253 117.409 306.633 116.505C310.936 115.532 314.424 115.55 317.097 116.559C319.762 117.424 322.128 118.777 324.195 120.621C330.32 126.082 333.023 132.684 332.304 140.426C331.653 148.091 327.778 155.905 320.678 163.867Z" fill="black"/>
<path d="M261.19 261.956C259.272 264.869 256.437 266.748 252.687 267.594C249.078 268.41 245.047 267.352 240.592 264.418C238.793 263.233 236.95 261.65 235.061 259.669C232.902 260.335 230.798 260.546 228.749 260.301C226.613 260 224.989 259.483 223.875 258.749C223.246 258.212 223.084 257.246 223.39 255.85C223.751 254.369 224.692 252.102 226.211 249.049C220.622 241.683 214.56 233.453 208.023 224.356C201.542 215.175 194.657 204.929 187.368 193.618C185.818 191.123 185.635 188.976 186.82 187.177C187.328 186.406 188.078 185.733 189.071 185.159C186.474 183.694 183.919 182.257 181.408 180.848C179.296 179.58 178.051 178.207 177.673 176.73C177.351 175.167 177.641 173.7 178.544 172.329C179.673 170.616 181.528 169.198 184.111 168.074C186.694 166.95 189.621 166.421 192.893 166.489C196.165 166.556 199.457 167.619 202.769 169.677C206.08 171.735 210.447 174.243 215.869 177.2C221.261 180.015 227.139 183.027 233.501 186.235C239.777 189.386 245.996 192.438 252.158 195.391C253.6 193.762 255.455 192.343 257.724 191.136C259.964 189.786 262.307 188.934 264.751 188.579C267.111 188.168 269.232 188.583 271.117 189.824C272.487 190.727 273.034 191.762 272.756 192.93C272.478 194.098 271.859 195.41 270.9 196.866L268.869 199.95C268.587 200.378 268.304 200.807 268.022 201.235C267.797 201.578 267.543 201.963 267.261 202.392C271.738 204.358 275.545 205.944 278.681 207.15C281.817 208.356 283.983 208.984 285.178 209.035C286.373 209.085 287.004 209.992 287.071 211.755C287.138 213.519 286.663 215.171 285.648 216.713C283.729 219.626 281.008 221.519 277.486 222.392C273.963 223.265 269.021 222.282 262.661 219.444C261.777 219.108 260.879 218.7 259.966 218.222L247.865 244.704C250.157 247.565 252.406 250.397 254.612 253.202C256.388 255.354 257.89 256.896 259.119 257.828C260.404 258.674 261.232 259.282 261.604 259.649C262.062 260.074 261.924 260.842 261.19 261.956ZM215.647 198.795C219.09 204.01 222.504 209.084 225.888 214.015C229.273 218.947 232.6 223.779 235.869 228.512L244.01 211.397C239.219 209.347 234.471 207.325 229.766 205.331C225.117 203.251 220.411 201.073 215.647 198.795Z" fill="black"/>
</g>
<defs>
<filter id="filter0_f_335_12" x="-61.4339" y="973.47" width="1385.02" height="963.322" filterUnits="userSpaceOnUse" color-interpolation-filters="sRGB">
<feFlood flood-opacity="0" result="BackgroundImageFix"/>
<feBlend mode="normal" in="SourceGraphic" in2="BackgroundImageFix" result="shape"/>
<feGaussianBlur stdDeviation="164.473" result="effect1_foregroundBlur_335_12"/>
</filter>
<clipPath id="clip0_335_12">
<rect width="1270" height="1964" fill="white" transform="matrix(-1 0 0 1 1270 0)"/>
</clipPath>
</defs>
</svg>
