<svg id="eD6RYlCr2ZB1" xmlns="http://www.w3.org/2000/svg" xmlns:xlink="http://www.w3.org/1999/xlink" viewBox="0 0 1500 2000" shape-rendering="geometricPrecision" text-rendering="geometricPrecision" project-id="26cabf19c377450eaa311f396e86dbd0" export-id="00fe95c5af25454fb66f9a14559f5bd4" cached="false" width="1500" height="2000"><defs><filter id="eD6RYlCr2ZB2-filter" x="-150%" y="-150%" width="400%" height="400%"><feGaussianBlur id="eD6RYlCr2ZB2-filter-blur-0" stdDeviation="160.130005,160.130005" result="result"/></filter><filter id="eD6RYlCr2ZB114-filter" x="-150%" y="-150%" width="400%" height="400%"><feGaussianBlur id="eD6RYlCr2ZB114-filter-blur-0" stdDeviation="10.8,10.8" result="result"/></filter><filter id="eD6RYlCr2ZB116-filter" x="-150%" y="-150%" width="400%" height="400%"><feGaussianBlur id="eD6RYlCr2ZB116-filter-blur-0" stdDeviation="10.8,10.8" result="result"/></filter></defs><g transform="translate(132.882321 167.175015)" opacity="0.83" filter="url(#eD6RYlCr2ZB2-filter)"><ellipse rx="370.836" ry="99.2936" transform="matrix(.95083-.309714 0.309714 0.95083 640.211749 1417.770379)" fill="#0f558b"/></g><path d="M716.885,816.967c20.501,7.017,41.277,20.638,50.633,67.831c10.32,40.476,29.075,78.314,55.036,111.036c25.042,33.986,41.277,73.336,21.464,102.916s-79.527,60.82-131.398,32.2-56.412-69.76-68.795-113.65c-12.383-43.894-24.766-105.672-21.464-139.519.474-11.004,3.583-21.733,9.066-31.285s13.18-17.649,22.442-23.608c9.263-5.959,19.821-9.608,30.787-10.638s22.019.587,32.229,4.717Z" transform="translate(132.882321 167.175015)" fill="#e4ecf1"/><g style="mix-blend-mode:multiply" transform="translate(132.88232 167.175015)" opacity="0.8"><path d="M677.534,890.302c-16.342-11.326-33.875-20.83-52.284-28.344c2.659-9.237,7.225-17.815,13.402-25.18s13.83-13.353,22.463-17.579c8.634-4.226,18.058-6.596,27.663-6.957c9.606-.361,19.181,1.295,28.107,4.862c20.501,7.017,41.277,20.638,50.633,67.832c10.32,40.475,29.075,78.313,55.036,111.035c25.042,33.989,41.277,73.339,21.464,102.919s-79.527,60.81-131.398,32.19c-14.284-7.51-26.825-17.95-36.805-30.63-9.981-12.68-17.177-27.33-21.121-42.98c27.518-29.17,64.255,8.53,65.081,1.1.825-7.43-17.887-41.27-26.83-82.55-8.944-41.277-6.467-75.812-15.411-85.718Z" fill="#c2e0f2"/></g><g style="mix-blend-mode:multiply" transform="translate(132.88232 167.175015)" opacity="0.8"><path d="M677.534,890.302c-16.342-11.326-33.875-20.83-52.284-28.344c2.659-9.237,7.225-17.815,13.402-25.18s13.83-13.353,22.463-17.579c8.634-4.226,18.058-6.596,27.663-6.957c9.606-.361,19.181,1.295,28.107,4.862c20.501,7.017,41.277,20.638,50.633,67.832c10.32,40.475,29.075,78.313,55.036,111.035c25.042,33.989,41.277,73.339,21.464,102.919s-79.527,60.81-131.398,32.19c-14.284-7.51-26.825-17.95-36.805-30.63-9.981-12.68-17.177-27.33-21.121-42.98c27.518-29.17,64.255,8.53,65.081,1.1.825-7.43-17.887-41.27-26.83-82.55-8.944-41.277-6.467-75.812-15.411-85.718Z" fill="#c2e0f2"/></g><g style="mix-blend-mode:multiply" transform="translate(132.882321 167.175014)"><path d="M730.644,861.958c11.97.963,20.501,17.887,19.125,37.975s-12.521,35.773-24.491,34.81-20.638-17.887-19.125-37.975s12.383-34.81,24.491-34.81Z" fill="#b5cbd8"/></g><path d="M688.542,1056.92c31.646,6.06,49.395,29.31,65.631,55.04c6.121,9.75,13.072,18.96,20.776,27.52-21.05,4.37-42.963,1.36-62.053-8.53-13.172-6.95-24.825-16.45-34.275-27.96-9.451-11.5-16.509-24.78-20.761-39.05c4.25-3.41,9.22-5.82,14.535-7.03c5.314-1.22,10.835-1.21,16.147.01Z" transform="translate(132.882321 167.175015)" fill="#5385a6"/><path d="M716.885,816.967c12.34,3.768,23.267,11.148,31.37,21.189-6.838.711-13.498,2.621-19.675,5.641-18.024,8.53-34.535,17.887-56.274,14.722-3.031,3.337-5.494,7.149-7.293,11.282-10.67-2.472-20.702-7.16-29.444-13.759c1.223-3.183,2.696-6.266,4.403-9.218l-6.329-3.44c8.831-13.181,21.876-22.974,36.999-27.773s31.427-4.321,46.243,1.356Z" transform="translate(132.88232 167.175014)" fill="#5385a6"/><path d="M640.247,884.662c16.786,3.027,18.575,26.83,19.125,71.547c0,38.8,16.373,76.771,7.155,78.701-9.219,1.93-19.125-33.43-26.83-73.335-7.705-39.901-15.135-79.664.55-76.913Z" transform="translate(132.882321 167.175015)" fill="#fff"/><path d="M684.003,1063.25c22.702,1.79,62.603,34.81,70.033,71.96c2.477,12.39-37.699,41.28-85.168,27.52-47.468-13.76-33.572-103.05,15.135-99.48Z" transform="translate(132.882321 167.175015)" fill="#e4ecf1"/><g style="mix-blend-mode:multiply" transform="translate(132.882321 167.175015)" opacity="0.8"><path d="M653.593,1153.93c11.528,2.35,23.507.95,34.179-4c10.673-4.96,19.478-13.2,25.123-23.52c10.869-21.74-1.514-44.31-10.595-56.69c12.629,6.84,23.738,16.17,32.655,27.43c8.916,11.25,15.454,24.2,19.217,38.06c2.476,12.39-37.7,41.28-85.169,27.52-5.76-1.68-11.041-4.69-15.41-8.8Z" fill="#c2e0f2"/></g><g style="mix-blend-mode:multiply" transform="translate(132.882321 167.175015)" opacity="0.8"><path d="M653.593,1153.93c11.528,2.35,23.507.95,34.179-4c10.673-4.96,19.478-13.2,25.123-23.52c10.869-21.74-1.514-44.31-10.595-56.69c12.629,6.84,23.738,16.17,32.655,27.43c8.916,11.25,15.454,24.2,19.217,38.06c2.476,12.39-37.7,41.28-85.169,27.52-5.76-1.68-11.041-4.69-15.41-8.8Z" fill="#c2e0f2"/></g><path d="M677.396,1071.92c19.263,8.39-1.101,55.04-20.501,44.85-19.4-10.18,4.128-52,20.501-44.85Z" transform="translate(132.882321 167.175015)" fill="#fff"/><path d="M691.845,542.336c20.639-7.98,63.567,7.843,70.721,33.985c11.558,42.928-2.751,220.969-10.732,238.856-7.98,17.887-60.814,36.736-80.49,31.37-19.675-5.366-48.431-15.272-57.375-33.159-8.943-17.886-3.439-89.433,8.256-154.651c11.695-65.217,47.743-107.733,69.62-116.401Z" transform="translate(132.882321 167.175014)" fill="#e4ecf1"/><g style="mix-blend-mode:multiply" transform="translate(132.882321 167.175014)" opacity="0.8"><path d="M751.834,815.178c-8.118,17.887-60.815,36.737-80.49,31.371-19.676-5.366-48.432-15.273-57.375-33.159-.76-1.778-1.358-3.62-1.789-5.504c20.363,18.299,50.496,23.941,55.036,16.236c4.541-7.706,6.192-98.377,13.759-159.192s24.353-90.397,45.68-98.377c6.247-2.218,13.023-2.471,19.418-.724c6.395,1.746,12.103,5.408,16.355,10.493c11.695,42.928-2.614,220.969-10.594,238.856Z" fill="#c2e0f2"/></g><path d="M700.787,554.032c13.759,8.943-21.464,36.599-42.928,84.893-25.179,56.687-28.618,162.769-35.773,161.943-7.155-.825-6.329-71.547,8.943-140.479c15.273-68.933,54.348-115.851,69.758-106.357Z" transform="translate(132.882321 167.175014)" fill="#fff"/><g id="eD6RYlCr2ZB24" transform="translate(.000024 0.000002)"><path d="M378,1045.5c18.3,10.05,45.405,26.28,55.036,46.51c9.632,20.22,13.071,97.82-2.339,155.06s-33.434,104.84-70.446,115.58c-37.012,10.73-56.825,0-93.011-21.47-42.928-26.14-39.35-52.42-28.618-79.8s30.682-46.64,41.277-88.33c6.657-31.31,14.877-62.26,24.628-92.74c9.356-29.44,43.066-51.59,73.473-34.81Z" transform="translate(132.88232 167.175014)" fill="#e4ecf1"/><g style="mix-blend-mode:multiply" transform="translate(132.882321 167.175014)" opacity="0.8"><path d="M238.484,1260.97l3.302-7.7c5.941-2.09,12.3-2.7,18.53-1.79c6.231.91,12.148,3.31,17.244,7.01c28.618,18.85,34.81,51.32,40.176,43.89c12.661-21.04,20.901-44.45,24.216-68.79c7.98-41.28,15.272-97.41,9.769-107.32-5.504-9.91-41.277-26.42-52.422-32.06c1.238-4.4,2.752-8.94,4.403-13.76c9.631-29.44,43.891-51.59,74.298-34.81c18.3,10.05,45.405,26.28,55.036,46.51c9.632,20.22,13.071,97.82-2.339,155.06s-33.434,104.84-70.446,115.58c-37.012,10.73-56.825,0-93.011-21.47-43.065-26.28-39.488-52.83-28.756-80.35Z" fill="#c2e0f2"/></g><path d="M421.754,1076.46c-9.81,2.16-19.326,5.48-28.344,9.91-23.665,11.14-29.581,21.05-51.458,12.1-13.099-5.18-25.833-11.25-38.113-18.16c9.494-29.44,43.754-51.59,74.161-34.81c16.001,8.16,30.738,18.59,43.754,30.96Z" transform="translate(132.882321 167.175014)" fill="#5385a6"/><path d="M319.936,1365.81c-18.959-4.93-36.862-13.28-52.834-24.62-41.277-25.46-39.489-50.91-29.444-77.47c5.541-2.76,11.691-4.06,17.875-3.8s12.2,2.09,17.485,5.32c32.609,17.61,47.331,67.14,46.918,100.57Z" transform="translate(132.882321 167.175015)" fill="#5385a6"/><g style="mix-blend-mode:multiply" transform="translate(132.88232 167.175014)"><path d="M405.52,1103.02c11.832,2.89,17.336,21.05,12.52,41.27-4.815,20.23-18.299,33.16-29.994,30.14-11.695-3.03-17.337-21.06-12.521-41.28c4.816-20.23,18.3-33.02,29.995-30.13Z" fill="#b5cbd8"/></g><path d="M373.186,1080.04c-7.115,1.84-13.787,5.1-19.624,9.56-5.837,4.47-10.72,10.06-14.361,16.44l-26.693-13.76c-.525-6.96,1.318-13.89,5.229-19.67c9.122-3.52,18.984-4.68,28.675-3.39c9.692,1.3,18.899,5.02,26.774,10.82Z" transform="translate(132.88232 167.175015)" fill="#5385a6"/><path d="M308.794,1113.2c10.595,4.13,2.477,35.08-2.614,71.54-6.329,44.72,1.376,57.24-4.953,67.01-3.302,5.37-13.759-1.24-22.84-6.19s-15.548-2.2-16.098-8.94c-.55-6.75,16.648-24.63,26.005-60.41c6.741-25.31,11.832-66.59,20.5-63.01Z" transform="translate(132.882321 167.175015)" fill="#fff"/><path d="M266.83,1272.39c20.913,9.22,47.331,53.66,41.277,91.22-1.789,12.52-49.12,25.87-89.434-2.75s3.44-108.15,48.157-88.47Z" transform="translate(132.88232 167.175014)" fill="#e4ecf1"/><g style="mix-blend-mode:multiply" transform="translate(132.882321 167.175015)" opacity="0.8"><path d="M207.803,1347.65c10.114,6.07,21.912,8.74,33.654,7.6s22.807-6.02,31.564-13.93c17.474-16.92,13.759-42.24,9.081-57.1c9.571,10.75,16.869,23.33,21.456,36.97s6.368,28.07,5.236,42.42c-1.788,12.52-49.119,25.87-89.433-2.75-4.811-3.46-8.764-7.98-11.558-13.21Z" fill="#c2e0f2"/></g><path d="M257.749,1278.17c15.272,13.76-19.4,51.59-34.26,35.63s21.602-47.74,34.26-35.63Z" transform="translate(132.88232 167.175015)" fill="#fff"/></g><g id="eD6RYlCr2ZB38" transform="translate(-.105 0.015249)"><path d="M306.729,771.011c23.665-11.145,63.154,4.678,77.188,34.947c14.034,30.27,50.22,193.59,51.321,226.612c1.101,33.02-67.694,65.35-92.185,56.14-24.94-7.08-47.029-21.81-63.154-42.11-15.135-22.15-32.609-247.659,26.83-275.589Z" transform="translate(132.882321 167.175015)" fill="#e4ecf1"/><g style="mix-blend-mode:multiply" transform="translate(132.88232 167.175015)" opacity="0.8"><path d="M343.053,1088.71c-24.94-7.08-47.029-21.81-63.154-42.11-2.105-3.88-3.634-8.05-4.541-12.38c18.025,17.61,46.368,36.05,57.1,33.44c13.759-3.58-1.101-60.82-7.017-116.818-5.916-55.999-10.457-114.475,11.695-144.883c22.152-30.407,46.781,0,46.781,0c13.759,30.408,50.22,193.865,51.321,226.611c1.101,32.75-67.694,65.36-92.185,56.14Z" fill="#c2e0f2"/></g><path d="M319.387,784.358c18.299,2.339-6.329,33.159-14.997,51.734-13.595,34.462-19.738,71.413-18.025,108.421c1.651,35.085,5.229,82.557,0,82.557-5.228,0-15.823-78.843-12.245-130.439c3.577-51.596,18.024-115.713,45.267-112.273Z" transform="translate(132.882321 167.175015)" fill="#fff"/></g><g id="eD6RYlCr2ZB43" transform="matrix(.984808-.173648 0.173648 0.984808-118.08542 196.897999)"><path d="M1036.23,371.451c-18.02-12.383,25.6,138.415-108.417,224.822l-21.464-14.998c146.671-79.802,79.802-273.116,132.361-243.259c52.56,29.857,79.94,200.331-62.052,292.242l-23.253-15.961c125.615-87.92,117.225-220.144,82.825-242.846Z" transform="translate(132.882321 167.175014)" fill="#5385a6"/><g style="mix-blend-mode:multiply" transform="translate(132.882321 167.175014)"><path d="M999.908,601.638c26.372-26.001,46.842-57.374,60.022-91.989c13.18-34.614,18.75-71.658,16.34-108.617c9.2,43.82,4.56,89.417-13.29,130.482-17.85,41.066-48.01,75.571-86.325,98.743l-23.253-15.96c10.397-7.244,20.281-15.197,29.582-23.803c7.843,5.228,16.924,11.144,16.924,11.144Z" fill="#b5cbd8"/></g><g style="mix-blend-mode:multiply" transform="translate(132.88232 167.175014)"><path d="M906.347,581.275c11.192-6.231,21.705-13.609,31.371-22.014l13.759,6.053c81.313-66.18,68.793-158.09,72.093-189.323c2.07-19.538,14.59-5.366,18.85,0-1.68-1.993-3.62-3.751-5.77-5.229-18.03-12.383,25.59,138.416-108.426,224.822l-21.877-14.309Z" fill="#b5cbd8"/></g></g><g id="eD6RYlCr2ZB49" transform="translate(.000005 0.000011)"><path d="M946.799,575.358c67.141,41.277,94.251,103.743,84.751,207.486-2.47,29.389-12.01,57.747-27.79,82.661-15.788,24.913-37.359,45.645-62.878,60.432-43.616,27.518-90.809,44.304-120.391,84.613-86.131,117.51-231.426,200.47-374.52,110.08-31.707-19.18-58.06-46.05-76.617-78.12-18.558-32.08-28.719-68.316-29.542-105.362s7.718-73.701,24.832-106.567c17.115-32.866,42.248-60.88,73.072-81.447c90.534-61.915,134.7-42.928,192.626-78.701c50.77-31.784,64.667-60.265,110.897-88.196c78.014-47.468,153.138-39.075,205.56-6.879Z" transform="translate(132.882321 167.175014)" fill="#e4ecf1"/><g style="mix-blend-mode:multiply" transform="translate(132.882321 167.175015)" opacity="0.8"><path d="M351.858,1003.54c79.114,118.6,163.319,89.16,163.319,49.94c0-57.234,10.733-128.78,78.702-174.047c67.969-45.268,140.754-13.759,192.626-45.267c51.871-31.509,86.406-137.315,155.614-172.951c40.039-20.776,67.011-8.531,84.621,21.739c7.02,32.814,8.65,66.553,4.81,99.89-2.47,29.39-12.01,57.748-27.79,82.662-15.79,24.913-37.36,45.645-62.879,60.432-43.616,27.518-90.81,44.304-120.391,84.622-86.132,117.5-231.427,200.46-374.52,110.07-43.898-27.05-77.134-68.4-94.112-117.09Z" fill="#c2e0f2"/></g><g style="mix-blend-mode:multiply" transform="translate(132.882321 167.175015)" opacity="0.5"><path d="M392.036,1073.57c104.706,94.94,171.987,32.47,171.987,32.47L699.137,944.514c11.832,60.816,25.041,84.616,44.028,85.856c18.988,1.24,27.518-21.46,84.756-71.547c36.324-31.783,60.815-48.982,60.815-48.982-7.783-13.386-12.847-28.176-14.901-43.523-2.054-15.348-1.058-30.949,2.93-45.91l152.585-25.042c-4.15,27.027-14.31,52.781-29.711,75.375-15.403,22.593-35.668,41.453-59.307,55.198-43.616,27.518-90.81,44.304-120.391,84.621-86.132,117.5-231.427,200.47-374.52,110.07-20.045-12.93-38.04-28.79-53.385-47.06Z" fill="#c2e0f2"/></g><path d="M835.898,564.627c64.392-8.393,95.488,23.803,78.702,42.928s-75.124,35.773-114.475,46.505c-54.073,14.722-86.269,16.098-134.701,62.053-44.166,41.277-89.02,84.618-137.59,84.618-85.856,0-82.554-58.475-2.339-81.04c59.714-16.924,120.392-35.774,155.064-65.631c34.673-29.857,101.129-82.416,155.339-89.433Z" transform="translate(132.882321 167.175014)" fill="#fff"/><path d="M994.818,675.112c36.872,13.759,48.292,74.849,25.312,136.489-22.973,61.64-71.542,100.441-108.416,86.682s-48.432-74.849-25.454-136.489c22.977-61.641,71.546-100.441,108.558-86.682Z" transform="translate(132.88232 167.175014)" fill="#364a5b"/><path d="M986.561,696.851c29.859,11.008,38.939,60.127,20.499,110.072-18.435,49.945-57.511,80.628-87.781,69.483-30.27-11.144-38.938-60.127-20.501-110.072s58.063-80.49,87.783-69.483Z" transform="translate(132.882321 167.175014)" fill="#2e3c4d"/><path d="M663.223,881.909c39.488,14.722,51.734,79.94,27.518,145.841-24.216,65.91-76.362,107.19-115.851,92.46-39.488-14.72-52.009-79.38-27.105-145.703c24.904-66.318,75.95-107.32,115.438-92.598Z" transform="translate(132.882321 167.175016)" fill="#364a5b"/><path d="M654.557,905.3c31.783,11.695,41.277,64.254,21.877,117.23-19.4,52.97-61.503,86.27-93.148,74.43-31.646-11.83-41.278-64.39-21.877-117.224c19.4-52.834,61.365-86.269,93.148-74.436Z" transform="translate(132.882321 167.175015)" fill="#2e3c4d"/><path d="M593.879,756.564c55.036,43.479-24.216,63.567-78.977,120.804-47.193,49.257-30.682,151.352-99.89,109.384-73.473-44.304-40.589-137.59-2.339-178.867s128.784-93.011,181.206-51.321Z" transform="translate(132.882321 167.175014)" fill="#2e3c4d"/><path d="M412.674,807.886c38.112-40.589,128.784-93.011,181.205-51.321c18.438,14.722,21.602,26.692,15.686,38.25-2.952-8.686-8.713-16.142-16.373-21.189-48.432-38.525-132.087,9.906-167.31,47.331-35.223,37.424-65.63,123.831,2.202,165.108c6.964,4.697,14.924,7.711,23.252,8.806-6.267,1.585-12.819,1.677-19.128.267-6.31-1.41-12.2-4.282-17.195-8.385-73.611-44.304-40.589-138.553-2.339-178.867Z" transform="translate(132.882321 167.175015)" fill="#364a5b"/></g><g id="eD6RYlCr2ZB62" transform="translate(-2.593255 7.062116)"><path d="M692.808,1225.33c18.3,10.05,45.405,26.15,55.036,46.51c9.632,20.36,13.759,97.69-2.339,154.92-16.098,57.24-33.434,104.99-70.446,115.72-37.011,10.73-56.687,0-93.011-21.47-42.928-26.28-39.35-52.42-28.618-79.94c10.732-27.51,30.682-46.64,40.589-88.19c6.629-31.37,14.896-62.37,24.766-92.87c9.494-29.45,43.616-51.46,74.023-34.68Z" transform="translate(132.882321 167.175015)" fill="#e4ecf1"/><g style="mix-blend-mode:multiply" transform="translate(132.882321 167.175015)" opacity="0.8"><path d="M553.292,1441.07c1.101-2.61,2.202-5.09,3.44-7.56c5.914-2.11,12.256-2.74,18.469-1.83s12.107,3.34,17.167,7.06c28.618,18.71,34.81,51.32,40.314,43.75c12.551-21.09,20.739-44.48,24.078-68.8c8.118-41.27,15.272-97.55,9.906-107.32s-41.277-26.41-52.559-32.19c1.238-4.27,2.752-8.95,4.54-13.76c9.632-29.45,43.754-51.46,74.161-34.67c18.3,10.04,45.405,26.14,55.036,46.5c9.632,20.36,13.759,97.69-2.339,154.93s-33.434,104.98-70.446,115.71c-37.011,10.73-56.687,0-93.011-21.46-43.065-26.56-39.488-52.84-28.756-80.36Z" fill="#c2e0f2"/></g><path d="M736.56,1256.29c-9.791,2.16-19.301,5.44-28.343,9.77-23.666,11.28-29.582,21.05-51.459,12.11-13.124-5.13-25.861-11.2-38.113-18.16c9.632-29.45,43.754-51.46,74.161-34.68c16.031,8.11,30.774,18.54,43.754,30.96Z" transform="translate(132.88232 167.175015)" fill="#5385a6"/><path d="M634.744,1545.5c-18.955-4.88-36.86-13.18-52.835-24.49-41.277-25.45-39.488-50.9-29.444-77.46c5.566-2.76,11.738-4.06,17.944-3.8c6.205.26,12.244,2.09,17.554,5.31c32.609,17.48,47.194,67.01,46.781,100.44Z" transform="translate(132.88232 167.175014)" fill="#5385a6"/><g style="mix-blend-mode:multiply" transform="translate(132.882321 167.175015)"><path d="M720.462,1282.71c11.696,3.03,17.199,21.19,12.383,41.28-4.815,20.08-18.299,33.02-29.994,30.13s-17.336-21.19-12.521-41.28c4.816-20.09,18.3-33.02,30.132-30.13Z" fill="#b5cbd8"/></g><path d="M688.129,1259.87c-7.133,1.75-13.83,4.96-19.676,9.4-5.846,4.45-10.716,10.06-14.308,16.47l-27.518-13.76c-.518-6.98,1.376-13.93,5.366-19.68c9.222-3.65,19.227-4.87,29.056-3.55c9.829,1.33,19.154,5.16,27.08,11.12Z" transform="translate(132.88232 167.175014)" fill="#5385a6"/><path d="M623.738,1292.89c10.457,4.27,2.339,35.09-2.752,71.55-6.191,44.71,1.376,57.23-4.953,67.14-3.302,5.23-13.759-1.24-22.702-6.33-8.944-5.09-15.686-2.2-16.098-8.94-.413-6.74,16.51-24.49,25.866-60.27c6.742-26.28,11.696-66.73,20.639-63.15Z" transform="translate(132.882321 167.175016)" fill="#fff"/><path d="M581.634,1452.22c20.914,9.08,47.469,53.66,41.965,91.22-1.789,12.39-49.12,25.87-89.433-2.75-40.314-28.62,2.751-108.28,47.468-88.47Z" transform="translate(132.882321 167.175015)" fill="#e4ecf1"/><g style="mix-blend-mode:multiply" transform="translate(132.882321 167.175014)" opacity="0.8"><path d="M522.608,1527.34c10.113,6.08,21.911,8.74,33.653,7.6s22.808-6.02,31.564-13.93c17.612-16.78,13.759-42.24,9.081-56.96c9.591,10.74,16.902,23.31,21.49,36.96c4.589,13.65,6.358,28.08,5.203,42.43-1.789,12.38-49.12,25.87-89.434-2.75-4.847-3.48-8.807-8.05-11.557-13.35Z" fill="#c2e0f2"/></g><path d="M572.554,1458c15.41,14.44-19.4,51.46-34.26,35.49-14.86-15.96,21.326-47.74,34.26-35.49Z" transform="translate(132.882321 167.175014)" fill="#fff"/></g><g id="eD6RYlCr2ZB76" transform="translate(-.898523 9.057812)"><path d="M621.672,950.704c23.528-11.145,63.016,4.678,77.051,35.085c14.034,30.411,50.22,193.861,51.321,226.611c1.1,32.75-67.695,65.36-92.186,56-24.921-7.04-47.008-21.72-63.153-41.97-15.135-22.29-33.16-247.658,26.967-275.726Z" transform="translate(132.882321 167.175015)" fill="#e4ecf1"/><g style="mix-blend-mode:multiply" transform="translate(132.882321 167.175014)" opacity="0.8"><path d="M657.86,1268.4c-24.922-7.04-47.009-21.72-63.154-41.97-2.1-3.93-3.628-8.15-4.541-12.52c18.025,17.75,46.506,36.19,57.1,33.44c13.759-3.44-1.1-60.68-7.017-116.82-5.916-56.13-9.906-114.33,11.695-144.741c21.602-30.407,47.194,0,47.194,0c13.759,30.411,50.22,193.861,51.321,226.611c1.1,32.75-68.107,65.36-92.598,56Z" fill="#c2e0f2"/></g><path d="M634.195,964.188c18.299,2.339-6.33,33.159-14.86,51.592-13.601,34.19-19.882,70.84-18.437,107.6c1.788,34.95,5.228,82.55,0,82.55-5.229,0-15.823-78.84-12.246-130.57c3.578-51.73,18.437-114.749,45.543-111.172Z" transform="translate(132.88232 167.175014)" fill="#fff"/></g><path d="M1009.13,990.606c20.5,7.017,41.27,20.634,50.63,67.834c10.32,40.47,29.07,78.31,55.04,111.03c25.04,33.99,41.27,73.34,21.46,102.92s-79.53,60.82-131.4,32.2-56.41-69.76-68.793-113.65-24.767-105.67-21.464-139.52c.474-11,3.583-21.73,9.066-31.28c5.483-9.56,13.179-17.65,22.442-23.612c9.263-5.96,19.821-9.608,30.787-10.638c10.965-1.031,22.018.587,32.232,4.716Z" transform="translate(132.882321 167.175014)" fill="#e4ecf1"/><g style="mix-blend-mode:multiply" transform="translate(132.882321 167.175015)" opacity="0.8"><path d="M969.776,1063.94c-16.293-11.41-33.835-20.92-52.284-28.34c2.644-9.25,7.198-17.85,13.369-25.23s13.821-13.38,22.457-17.62c8.635-4.239,18.064-6.621,27.677-6.991c9.613-.369,19.195,1.281,28.135,4.846c20.5,7.017,41.27,20.635,50.63,67.835c10.32,40.47,29.07,78.31,55.04,111.03c25.04,33.99,41.27,73.34,21.46,102.92s-79.53,60.81-131.4,32.19c-14.262-7.52-26.78-17.96-36.737-30.64-9.957-12.69-17.13-27.32-21.049-42.97c27.518-29.16,64.116,8.67,64.946,1.11.82-7.57-17.89-41.97-26.834-82.56-8.943-40.59-6.467-75.67-15.41-85.58Z" fill="#c2e0f2"/></g><g style="mix-blend-mode:multiply" transform="translate(132.882321 167.175014)"><path d="M1022.89,1035.87c11.97.83,20.63,17.89,19.12,37.98s-12.66,35.77-24.49,34.67-20.638-17.89-19.125-37.98c1.514-20.08,12.385-35.63,24.495-34.67Z" fill="#b5cbd8"/></g><path d="M980.784,1230.7c31.646,5.92,49.396,29.31,65.626,55.04c6.19,9.7,13.14,18.9,20.78,27.51-21.29,4.24-43.39.88-62.47-9.49-13.13-6.96-24.756-16.45-34.203-27.93-9.446-11.48-16.525-24.71-20.828-38.94c4.358-3.35,9.431-5.65,14.824-6.73c5.393-1.07,10.961-.89,16.271.54Z" transform="translate(132.882319 167.175014)" fill="#5385a6"/><path d="M1009.13,990.606c12.34,3.768,23.26,11.144,31.37,21.184-6.84.72-13.5,2.63-19.68,5.65-18.02,8.66-34.397,17.88-56.274,14.72-3.031,3.34-5.494,7.15-7.292,11.28-10.66-2.5-20.686-7.19-29.445-13.76c1.209-3.23,2.681-6.36,4.403-9.35l-6.329-3.44c8.851-13.16,21.904-22.926,37.026-27.7c15.121-4.774,31.415-4.275,46.221,1.416Z" transform="translate(132.88232 167.175015)" fill="#5385a6"/><path d="M933.041,1058.3c16.786,3.03,18.575,27.52,19.125,71.55c0,38.8,16.373,76.91,7.155,78.7-9.219,1.79-19.125-33.3-26.83-73.34-7.706-40.04-15.548-79.66.55-76.91Z" transform="translate(132.882321 167.175014)" fill="#fff"/><path d="M976.242,1237.03c22.703,1.65,62.608,34.67,70.168,71.82c2.48,12.38-37.7,41.28-85.303,27.52-47.606-13.76-33.572-102.92,15.135-99.34Z" transform="translate(132.88232 167.175015)" fill="#e4ecf1"/><g style="mix-blend-mode:multiply" transform="translate(132.882321 167.175016)" opacity="0.8"><path d="M945.835,1327.56c11.528,2.36,23.507.96,34.179-4c10.673-4.95,19.477-13.19,25.126-23.52c10.87-21.73-1.38-44.3-10.598-56.68c12.628,6.9,23.738,16.28,32.658,27.58c8.91,11.3,15.45,24.29,19.21,38.19c2.48,12.38-37.7,41.27-85.303,27.51-5.788-1.66-11.049-4.79-15.272-9.08Z" fill="#c2e0f2"/></g><path d="M969.641,1245.56c19.262,8.39-1.101,55.04-20.364,44.85-19.262-10.18,4.128-52.01,20.364-44.85Z" transform="translate(132.88232 167.175015)" fill="#fff"/><path d="M984.084,716.112c20.636-8.117,63.566,7.705,70.726,33.985c11.55,42.928-2.76,220.144-10.74,238.719-7.98,18.574-60.812,36.734-80.487,31.374-19.675-5.37-48.294-15.28-57.237-33.163-8.944-17.887-3.44-89.296,8.117-154.651c11.558-65.355,47.744-108.008,69.621-116.264Z" transform="translate(132.882322 167.175014)" fill="#e4ecf1"/><g style="mix-blend-mode:multiply" transform="translate(132.88232 167.175014)" opacity="0.8"><path d="M1044.07,988.817c-8.11,17.883-60.812,36.733-80.487,31.373-19.675-5.37-48.294-15.27-57.237-33.161-.812-1.724-1.457-3.52-1.927-5.366c20.364,17.886,50.633,23.807,56.137,16.098c5.504-7.705,6.192-98.377,13.759-159.192s23.253-90.259,44.715-98.377c6.27-2.163,13.04-2.374,19.43-.605s12.09,5.434,16.35,10.512c11.55,43.065-2.76,220.832-10.74,238.718Z" fill="#c2e0f2"/></g><path d="M993.031,727.671c13.759,8.944-21.465,36.737-42.929,85.031-25.178,56.687-28.618,162.769-35.773,161.806s-6.191-71.547,8.943-140.342c15.135-68.795,54.624-115.988,69.759-106.495Z" transform="translate(132.882321 167.175015)" fill="#fff"/><g id="eD6RYlCr2ZB97" transform="translate(0 0.000005)"><path d="M404.967,455.243c0,0-4.403-51.458-52.559-21.189-46.357,33-82.076,78.809-102.78,131.811l50.221-41.277c0,0,25.866-51.321,62.603-71.546c22.427-12.383,22.427,15.547,22.427,15.547l20.088-13.346Z" transform="translate(132.882321 167.175014)" fill="#5385a6"/><g style="mix-blend-mode:multiply" transform="translate(132.88232 167.175014)"><path d="M376.486,431.164c4.585-.223,9.165.532,13.435,2.217c4.271,1.684,8.133,4.259,11.331,7.552c1.888,4.385,3.139,9.019,3.715,13.759l-20.088,13.759c0,0,0-27.518-22.427-15.548-36.737,20.226-62.603,71.547-62.603,71.547l-34.123,27.518c39.213-86.544,91.773-119.153,110.76-120.804Z" fill="#b5cbd8"/></g><path d="M527.973,466.387c105.944,64.117,121.905,167.722,91.635,258.256s-231.426,206.11-325.263,229.225c-93.836,23.115-143.368-15.823-166.759-35.911-48.8442-41.277-52.4215-125.069-5.503-197.717c49.67-76.913,142.543-189.324,195.653-228.124c82.829-60.402,162.218-54.761,210.237-25.729Z" transform="translate(132.88232 167.175014)" fill="#e4ecf1"/><g style="mix-blend-mode:multiply" transform="translate(132.88232 167.175014)" opacity="0.8"><path d="M203.811,915.893L515.728,636.31c0,0,24.628-69.758-7.843-123.005-10.015-17-23.675-31.567-39.996-42.654s-34.897-18.417-54.391-21.463c39.042-8.388,79.806-2.067,114.475,17.749c105.944,64.117,121.905,167.722,91.635,258.256-30.27,90.535-231.426,205.56-325.263,228.675-93.836,23.115-143.368-15.823-166.759-35.911-6.074-5.172-11.523-11.037-16.235-17.474c55.448,35.361,92.46,15.41,92.46,15.41Z" fill="#c2e0f2"/></g><path d="M429.597,472.028c59.989,33.985-80.49,130.711-114.062,96.313-33.572-34.397,72.648-119.152,114.062-96.313Z" transform="translate(132.882321 167.175014)" fill="#fff"/><path d="M122.085,720.241c50.444-76.867,109.332-147.846,175.564-211.614c59.714-18.162,162.357-5.779,218.08,127.684c0,0-53.247,114.75-68.794,151.349-15.548,36.599-28.619,49.67-70.446,76.087-41.828,26.417-89.434,55.036-140.893,60.402-41.277,4.403-117.226-28.756-145.5698-86.957-2.1835-41.419,9.06-82.436,32.0588-116.951Z" transform="translate(132.882321 167.175014)" fill="#19212c"/><path d="M496.741,635.21c0,0-67.144-144.745-196.616-110.622c0,0-78.151,82.553-138.553,163.181s-58.201,145.295-58.201,145.295c26.902-48.473,59.564-93.516,97.277-134.15c51.183-50.22,158.503-155.339,296.093-63.704Z" transform="translate(132.882321 167.175014)" fill="#2e3c4d"/><g id="eD6RYlCr2ZB107" transform="matrix(.984808 0.173648-.173648 0.984808 138.689497-107.877046)"><path d="M554.804,555.82c64.53-40.039,136.351,29.169,169.923,115.163s22.428,169.924-37.974,203.495c-66.319,36.875-80.766-55.036-110.072-130.848-33.022-81.59-86.682-147.496-21.877-187.81Zm48.019,175.978c23.94,59.989,35.911,137.59,79.527,114.75c39.901-21.464,48.019-99.203,21.326-167.722-26.692-68.52-85.718-126.858-128.371-104.018-52.972,27.93,1.651,92.047,27.518,156.99Z" transform="translate(132.882321 167.175014)" fill="#5385a6"/><g style="mix-blend-mode:multiply" transform="translate(132.882321 167.175014)"><path d="M569.939,678.553c-24.354-50.358-24.354-71.272-19.263-87.232c5.091-15.961,32.609-38.525,69.483-20.914c19.792,9.847,36.111,25.494,46.781,44.854-28.344-35.223-64.117-55.999-91.635-40.451-52.56,27.518,2.064,92.048,27.518,156.99c13.759,34.123,23.39,74.024,37.287,97.827c8.943,18.574,24.628,33.847,50.495,18.574c49.808-27.518,31.921-119.29,31.921-119.29c0-52.147-25.867-105.807-42.24-134.563c18.796,23.019,33.799,48.89,44.441,76.637c33.572,86.132,22.428,169.924-37.974,203.496-48.432,27.518-68.795-14.997-88.471-68.795c1.764-44.121-8.005-87.94-28.343-127.133Z" fill="#b5cbd8"/></g></g><g id="eD6RYlCr2ZB111" opacity="0.35"><path d="M309.27,626.061c-13.261,19.919-32.046,30.314-45.995,21.046-13.95-9.269-12.865-32.066.396-51.985s33.675-29.425,47.619-20.144s11.24,31.168-2.02,51.083Z" transform="translate(132.882321 167.175014)" fill="#0096f0"/><path d="M434.369,666.829c-13.313,22.326-35.411,33.289-52.647,23.011-17.237-10.278-19.085-36.115-5.768-58.442c13.316-22.327,36.149-31.356,53.389-21.085s18.342,34.189,5.026,56.516Z" transform="translate(132.882321 167.175014)" fill="#0096f0"/><g transform="translate(132.882321 167.175014)" filter="url(#eD6RYlCr2ZB114-filter)"><path d="M309.27,626.061c-13.261,19.919-32.046,30.314-45.995,21.046-13.95-9.269-12.865-32.066.396-51.985s33.675-29.425,47.619-20.144s11.24,31.168-2.02,51.083Z" fill="#4390be" fill-opacity="0.83"/></g><g transform="translate(132.882321 167.175014)" filter="url(#eD6RYlCr2ZB116-filter)"><path d="M434.369,666.829c-13.313,22.326-35.411,33.289-52.647,23.011-17.237-10.278-19.085-36.115-5.768-58.442c13.316-22.327,36.149-31.356,53.389-21.085s18.342,34.189,5.026,56.516Z" fill="#4390be" fill-opacity="0.83"/></g></g></g><g id="eD6RYlCr2ZB118" transform="translate(-41.549686 42.941207)"><path d="M354.504,346.657c-14.877,0-27.946-2.211-39.204-6.634-11.259-4.222-20.005-11.158-26.237-20.809-6.233-9.65-9.349-22.517-9.349-38.601s2.614-31.766,7.841-47.045c5.428-15.481,12.867-29.856,22.316-43.125c9.45-13.27,20.507-24.93,33.173-34.983c12.868-10.052,26.74-17.893,41.617-23.523c14.878-5.629,30.359-8.444,46.443-8.444c17.893,0,32.469,3.016,43.728,9.048c11.259,6.031,19.502,14.274,24.729,24.729c5.428,10.253,8.142,21.813,8.142,34.68c0,17.09-4.121,34.983-12.364,53.68-8.444,19.1-19.502,36.29-33.173,51.569-13.672,15.28-29.655,27.343-47.95,36.189-18.095,8.846-37.999,13.269-59.712,13.269Zm27.443-15.983c11.862-3.217,23.523-9.148,34.983-17.793s21.814-18.999,31.062-31.062s16.586-24.729,22.015-37.998c8.444-20.306,12.666-39.406,12.666-57.299c0-2.815-.201-5.529-.603-8.142-.201-2.614-.503-5.127-.905-7.54-2.212-12.264-7.338-20.909-15.38-25.935s-17.09-7.539-27.142-7.539c-10.454,0-21.11,2.111-31.967,6.333-10.856,4.021-20.205,9.047-28.046,15.078-9.65,7.64-18.597,16.386-26.84,26.237-8.243,9.852-15.179,20.306-20.809,31.364-4.825,9.65-8.745,20.205-11.761,31.665-2.815,11.259-4.222,22.216-4.222,32.871c0,9.651,1.407,18.497,4.222,26.539s7.439,14.576,13.872,19.602c6.434,4.825,14.979,7.238,25.634,7.238c6.836,0,14.576-1.206,23.221-3.619Zm138.182,8.143c-5.629,0-9.851-2.011-12.666-6.032-2.815-4.222-4.222-9.851-4.222-16.888c0-1.005,0-2.011,0-3.016s.1-2.01.301-3.015c1.006-7.64,2.715-16.285,5.127-25.936c2.614-9.65,5.63-19.803,9.047-30.459c2.011-6.031,4.524-13.57,7.54-22.618c3.217-9.248,6.936-19.099,11.158-29.554c4.222-10.655,8.846-21.21,13.872-31.665c5.228-10.454,10.957-19.904,17.19-28.348c6.232-8.645,12.767-15.581,19.602-20.808c7.037-5.228,14.476-7.841,22.317-7.841c6.433,0,10.856,1.608,13.269,4.825c2.412,3.016,3.619,6.635,3.619,10.857c0,4.423-.804,8.946-2.413,13.57-1.608,4.423-3.217,8.143-4.825,11.159-3.619,7.237-8.344,15.38-14.174,24.427s-11.962,17.491-18.396,25.332c-3.82,5.026-8.544,10.656-14.174,16.888-5.629,6.233-10.957,11.963-15.983,17.19-4.825,5.227-8.344,8.846-10.555,10.856l-4.825,13.873c-1.408,3.82-2.815,8.343-4.222,13.571-1.207,5.227-2.313,10.454-3.318,15.681-.804,5.027-1.508,9.45-2.111,13.27-.201.804-.301,1.608-.301,2.412s0,1.508,0,2.111c0,6.032,2.312,9.047,6.936,9.047c2.814,0,6.333-1.306,10.555-3.92c4.021-2.413,7.841-5.529,11.46-9.349c3.82-4.021,6.534-7.037,8.142-9.047c4.021-5.227,7.841-10.756,11.46-16.587c3.619-6.031,6.735-11.56,9.349-16.586c1.005-1.608,1.709-2.413,2.111-2.413c1.206,0,1.809,1.709,1.809,5.127c0,1.609-.301,3.518-.905,5.73-.402,2.01-1.105,3.92-2.111,5.73-2.814,4.825-6.132,10.153-9.952,15.983-3.819,5.831-7.74,11.46-11.761,16.888-3.016,4.021-7.238,8.344-12.666,12.968s-11.259,8.545-17.491,11.761c-6.233,3.217-12.164,4.826-17.793,4.826Zm31.665-108.265c10.053-11.862,20.206-24.528,30.459-37.998c10.455-13.672,19.1-27.544,25.935-41.617.402-1.006,1.307-3.016,2.714-6.032c1.408-3.016,2.715-6.333,3.921-9.952c1.206-3.82,1.809-7.037,1.809-9.65c0-3.418-1.306-5.127-3.92-5.127h-2.111c-2.614,0-5.73,1.809-9.349,5.428-3.418,3.619-6.936,8.444-10.555,14.476-4.624,7.64-9.148,16.486-13.571,26.538-4.423,9.852-8.745,20.306-12.967,31.364s-8.344,21.914-12.365,32.57Zm92.906-38.3c-5.227-1.809-7.841-5.227-7.841-10.253c0-4.625,1.809-9.349,5.428-14.174c3.82-5.027,7.942-8.243,12.365-9.651c1.005-.402,1.809-.603,2.412-.603.805,0,1.609,0,2.413,0c3.418,0,6.232,1.005,8.444,3.016c2.212,2.01,3.317,4.322,3.317,6.936c0,3.619-1.91,6.635-5.73,9.047-3.015-.402-5.931.302-8.745,2.111-2.815,1.81-5.328,4.021-7.54,6.635-2.01,2.613-3.518,4.926-4.523,6.936ZM592.829,338.817c-2.613,0-5.126-.604-7.539-1.81-2.413-1.005-4.423-3.116-6.031-6.333-2.212-4.825-3.318-10.555-3.318-17.19c0-7.237,1.106-15.279,3.318-24.125c2.211-9.048,5.126-18.296,8.745-27.745c1.407-3.418,3.217-7.64,5.428-12.666c2.212-5.026,4.826-10.053,7.841-15.079c3.016-5.026,6.434-9.148,10.254-12.364c4.021-3.418,8.343-5.127,12.967-5.127c2.212,0,5.328.1,9.349.301s6.936.201,8.746,0c-1.206.805-2.614,2.413-4.222,4.826-1.609,2.412-3.116,4.925-4.524,7.539-1.407,2.413-2.513,4.322-3.317,5.73-5.227,10.454-10.153,20.808-14.777,31.062-4.624,10.253-8.143,20.105-10.555,29.554-.402,1.608-.704,3.217-.905,4.825-.201,1.609-.301,3.116-.301,4.524c0,5.83,1.909,8.745,5.729,8.745c1.609,0,3.318-.402,5.127-1.206c2.011-1.005,4.323-2.513,6.936-4.524c4.624-3.618,8.645-7.74,12.063-12.364c4.021-5.227,7.841-10.756,11.46-16.587c3.619-6.031,6.735-11.56,9.349-16.586c1.005-1.608,1.709-2.413,2.111-2.413c1.206,0,1.809,1.709,1.809,5.127c0,1.609-.301,3.518-.904,5.73-.403,2.01-1.106,3.92-2.112,5.73-2.814,4.825-6.131,10.153-9.951,15.983-3.82,5.831-7.741,11.46-11.762,16.888-2.814,3.82-6.534,8.042-11.158,12.666-4.624,4.625-9.55,8.646-14.777,12.063-5.227,3.217-10.254,4.826-15.079,4.826Zm65.079.301c-5.227,0-9.449-2.815-12.666-8.444s-4.423-13.068-3.619-22.316c.402-5.831,1.709-13.169,3.92-22.015c2.413-9.047,5.429-18.095,9.048-27.142c3.618-9.248,7.438-17.089,11.459-23.522c5.228-8.243,11.058-13.571,17.492-15.984c6.634-2.412,14.877-3.619,24.729-3.619.804,0,1.206.402,1.206,1.207c0,.804-.603,1.809-1.81,3.015-2.814,2.413-6.132,6.836-9.952,13.27-3.819,6.433-7.539,13.47-11.158,21.11-3.418,7.639-6.433,14.676-9.047,21.11-2.01,5.227-3.92,10.655-5.73,16.285-1.608,5.629-2.412,10.655-2.412,15.078c0,3.619.703,6.534,2.111,8.746c1.608,2.212,4.322,3.317,8.142,3.317c4.021-.201,8.444-3.116,13.269-8.745c4.825-5.63,9.45-12.566,13.873-20.809s8.042-16.285,10.856-24.126c-.402-2.211-.804-4.523-1.206-6.936-.201-2.412-.302-4.926-.302-7.539c0-3.619.302-7.339.905-11.158.804-4.021,1.91-7.942,3.317-11.762c2.614-6.634,6.233-10.555,10.857-11.761.804-.201,1.508-.302,2.111-.302.804-.201,1.608-.301,2.413-.301c3.82,0,6.333,1.407,7.539,4.222c1.407,2.613,2.111,5.73,2.111,9.349c0,3.618-.402,7.237-1.206,10.856-.804,3.418-1.508,6.032-2.111,7.841-1.408,3.82-3.016,7.539-4.825,11.158-1.81,3.418-3.619,6.836-5.429,10.254.402,6.232,2.011,11.057,4.825,14.475c3.016,3.418,6.534,5.127,10.555,5.127c5.027,0,10.053-2.212,15.079-6.635c2.815-2.412,5.328-5.428,7.539-9.047c2.413-3.82,4.524-7.338,6.333-10.555c1.006-1.809,1.709-2.211,2.111-1.206.403,1.005.604,2.613.604,4.825c0,1.809-.201,3.82-.604,6.031-.201,2.011-.703,3.619-1.507,4.826-2.815,5.026-6.032,9.248-9.651,12.666-3.619,3.216-7.439,5.629-11.46,7.237-3.216,1.207-6.534,1.81-9.951,1.81-4.625,0-8.947-1.307-12.968-3.921-3.82-2.814-6.836-7.036-9.047-12.666-4.222,6.233-8.143,11.963-11.762,17.19-3.417,5.026-6.031,8.645-7.84,10.857-6.032,7.64-12.968,14.375-20.809,20.205-7.64,5.629-16.084,8.444-25.332,8.444Zm166.539-6.333c-9.248,4.825-18.999,7.238-29.253,7.238-8.645,0-16.687-2.111-24.126-6.333-7.438-4.222-12.465-10.957-15.078-20.206-1.207-4.222-1.81-8.645-1.81-13.269c0-7.64,1.307-15.481,3.921-23.523c2.814-8.243,6.433-15.782,10.856-22.618c6.836-10.655,15.481-19.501,25.936-26.538c10.454-7.037,22.014-10.555,34.681-10.555c9.449,0,16.787,2.413,22.014,7.238c5.228,4.825,7.841,10.454,7.841,16.888c0,7.64-2.613,14.375-7.841,20.205-5.026,5.63-11.66,9.952-19.903,12.968-4.021,1.407-8.344,2.513-12.968,3.317-4.423.603-8.645.905-12.666.905-8.243,0-14.576-1.106-18.999-3.317-3.82,9.851-5.73,18.898-5.73,27.141c0,7.439,1.709,13.571,5.127,18.396c3.417,4.624,8.846,6.936,16.285,6.936c6.232,0,12.364-1.709,18.396-5.126c6.232-3.418,11.962-7.64,17.189-12.666c5.428-5.027,9.952-9.852,13.571-14.476c2.815-3.418,5.227-6.635,7.238-9.65c2.01-3.016,4.121-6.434,6.333-10.254c2.211-4.021,4.825-8.946,7.841-14.777.804-1.407,1.508-2.111,2.111-2.111c1.206,0,1.809,1.608,1.809,4.825c0,1.81-.301,3.82-.905,6.032-.402,2.01-1.206,4.121-2.412,6.333-2.815,5.026-6.233,10.555-10.254,16.586-3.82,5.831-7.74,11.46-11.761,16.888-3.619,4.826-7.74,9.249-12.365,13.27-4.624,4.021-9.65,7.438-15.078,10.253ZM797.004,268.55c1.005.603,2.111,1.005,3.317,1.206s2.413.302,3.619.302c4.021,0,8.042-.905,12.063-2.714c4.021-2.011,7.439-4.021,10.253-6.032c4.624-3.217,8.545-7.036,11.762-11.46c3.216-4.423,5.026-9.449,5.428-15.078.201-2.413-.402-4.423-1.81-6.032-1.206-1.809-3.417-2.714-6.634-2.714-1.609,0-3.619.302-6.032.905-3.216.804-6.433,2.312-9.65,4.524-3.217,2.211-6.333,4.825-9.349,7.84-1.005,1.006-2.814,3.016-5.428,6.032-2.413,2.815-4.725,6.031-6.936,9.65-2.212,3.418-3.317,6.434-3.317,9.047c0,2.212.904,3.72,2.714,4.524Zm115.019,70.568c-6.433,0-11.058-2.714-13.872-8.142-2.212-4.826-3.317-10.555-3.317-17.19c0-7.439,1.105-15.682,3.317-24.729c2.211-9.047,5.227-18.295,9.047-27.745c1.407-3.418,3.217-7.74,5.428-12.967c2.413-5.228,5.228-10.354,8.444-15.381-2.814,2.413-6.132,4.423-9.952,6.032-3.819,1.407-7.539,2.111-11.158,2.111-2.814,0-5.126-.402-6.936-1.206-1.608,3.216-4.222,8.444-7.841,15.681-3.619,7.238-8.444,15.783-14.475,25.634-.603,1.005-1.207,1.005-1.81,0-.402-1.206-.603-2.815-.603-4.825c0-1.608.201-3.317.603-5.127.402-1.809,1.005-3.518,1.81-5.127c2.01-3.82,4.021-7.74,6.031-11.761c2.011-4.222,3.82-7.941,5.428-11.158c1.609-3.217,2.514-5.227,2.715-6.032-3.619-1.809-6.333-4.322-8.143-7.539-1.809-3.418-2.714-6.735-2.714-9.952s.704-6.132,2.111-8.745c1.608-2.614,3.92-4.625,6.936-6.032c1.81-.603,3.519-.905,5.127-.905c4.423,0,8.042,1.408,10.857,4.222-.202.805-.403,1.709-.604,2.715c0,.804,0,1.708,0,2.714c0,6.232,2.513,10.856,7.54,13.872c5.026,3.016,10.454,4.122,16.285,3.317c2.814-4.021,6.031-7.539,9.65-10.555c3.619-3.015,7.539-4.523,11.761-4.523c2.212,0,5.328.1,9.349.301c4.222.201,7.238.201,9.047,0-1.206.804-2.613,2.413-4.222,4.825-1.608,2.413-3.116,4.926-4.523,7.54-1.408,2.613-2.513,4.624-3.318,6.031-5.428,10.455-10.454,20.909-15.078,31.364-4.624,10.253-8.143,20.105-10.555,29.554-.402,1.809-.805,3.518-1.207,5.127-.201,1.407-.301,2.915-.301,4.523c0,6.032,2.01,9.048,6.031,9.048c2.815,0,6.836-2.011,12.063-6.032c4.624-3.82,8.746-8.042,12.365-12.666c4.021-5.227,7.841-10.857,11.459-16.888c3.619-6.032,6.736-11.56,9.349-16.587c1.005-1.608,1.709-2.412,2.111-2.412c1.207,0,1.81,1.809,1.81,5.428c0,1.407-.201,3.116-.603,5.127-.403,2.01-1.106,3.92-2.111,5.73-3.016,5.026-6.434,10.555-10.254,16.586-3.82,5.831-7.74,11.561-11.761,17.19-2.614,3.619-6.333,7.74-11.159,12.364-4.624,4.625-9.65,8.646-15.078,12.063-5.227,3.418-10.254,5.127-15.079,5.127Z" transform="translate(132.882321 167.175014)" fill="#0276ff"/><path id="eD6RYlCr2ZB120" d="M431.829,192.799c9.116,1.725,17.488,10.471,18.813,19.653c1.363,9.447-5.356,15.879-14.734,14.104-9.116-1.724-17.488-10.47-18.813-19.653-1.363-9.446,5.356-15.878,14.734-14.104Zm-38.936-5.484c9.116,1.725,17.488,10.47,18.813,19.653c1.363,9.446-5.356,15.878-14.734,14.104-9.116-1.725-17.488-10.47-18.813-19.653-1.363-9.446,5.356-15.878,14.734-14.104Zm-24.292,23.27c9.116,1.725,17.488,10.471,18.813,19.653c1.363,9.447-5.356,15.879-14.734,14.105-9.116-1.725-17.488-10.471-18.813-19.653-1.363-9.447,5.356-15.879,14.734-14.105Zm4.395,39.53c9.116,1.725,17.488,10.47,18.813,19.653c1.363,9.446-5.356,15.878-14.734,14.104-9.116-1.725-17.488-10.47-18.813-19.653-1.363-9.446,5.356-15.878,14.734-14.104Z" transform="translate(132.882321 167.175014)" opacity="0"/><path id="eD6RYlCr2ZB121" d="M971.432,215.947c8.034,11.366,24.973,7.568,24.907-6.649-.097-21.169-3.491-33.751-11.675-38.635-8.184-4.885-20.869-1.9-39.547,8.063-12.545,6.691-7.847,23.403,5.97,25.078c6.31.765,16.677,6.953,20.345,12.143Zm-24.073-83.365c-8.5,3.719-14.705,14.115-13.944,23.361.784,9.513,8.771,14.28,17.515,10.454c8.499-3.719,14.704-14.115,13.943-23.362-.783-9.512-8.77-14.279-17.514-10.453Zm36.724-14.05c-8.5,3.719-14.705,14.115-13.943,23.361.783,9.512,8.77,14.279,17.514,10.453c8.5-3.719,14.706-14.115,13.946-23.361-.79-9.512-8.773-14.279-17.517-10.453Zm28.877,17.25c-8.5,3.719-14.702,14.115-13.94,23.362.783,9.512,8.77,14.279,17.51,10.453c8.5-3.719,14.71-14.115,13.95-23.361-.79-9.513-8.77-14.28-17.52-10.454Zm4.56,39.512c-8.5,3.719-14.71,14.115-13.95,23.362.79,9.512,8.77,14.279,17.52,10.453c8.5-3.719,14.7-14.115,13.94-23.362-.78-9.512-8.77-14.279-17.51-10.453Z" transform="translate(132.88232 167.175014)" opacity="0"/><path id="eD6RYlCr2ZB122" d="M402.02,106.883c-.996.739-2.417,1.52-4.26,2.341-1.786.779-3.833,1.388-6.141,1.828-2.251.396-4.571.391-6.963-.016l-41.282-6.598c1.822,3.192,3.68,6.312,5.576,9.358c1.896,3.047,3.581,5.749,5.057,8.108.333.571.389,1.075.167,1.511-.221.437-.596.851-1.123,1.242-.938.696-2.132,1.353-3.58,1.973-1.39.577-2.946.867-4.669.872-1.766-.053-3.558-.632-5.377-1.737-1.862-1.163-3.705-3.159-5.529-5.986-2.069-3.281-4.5-7.112-7.294-11.492-2.793-4.38-5.811-9.0015-9.054-13.8656-3.244-4.8641-6.516-9.7065-9.818-14.5271s-6.496-9.3122-9.582-13.4748c-.231-.556-.118-1.1393.338-1.7499.412-.6692.999-1.2863,1.762-1.8515c1.407-1.0433,3.104-1.7566,5.091-2.1398c2.003-.4854,4.111-.2767,6.325.6258c2.229.8005,4.408,2.6371,6.538,5.5099c1.87,2.521,3.795,5.3634,5.778,8.5273c1.939,3.1053,4.081,6.4233,6.427,9.9541.54-5.3981.796-10.8123.767-16.2427-.028-5.4304-.263-10.5262-.704-15.2873-.382-4.8047-.893-8.9239-1.531-12.3578c3.225-2.3909,6.039-3.2514,8.444-2.5813c2.464.6266,4.717,2.3176,6.76,5.0731c1.087,1.4657,1.841,3.7689,2.262,6.9097.377,3.0821.467,6.6954.269,10.84-.14,4.1011-.477,8.4858-1.014,13.154-.536,4.6683-1.175,9.3213-1.916,13.9593l57.092,14.5016c.758.164,1.333.511,1.724,1.038.695.938.516,1.799-.54,2.581Z" transform="matrix(.854378 0.519652-.519652 0.854378 320.660054-5.395301)" opacity="0"/><path id="eD6RYlCr2ZB123" d="M311.198,152.461c-5.488,6.155-10.867,9.72-16.136,10.694-5.22.919-9.573-.176-13.06-3.284-1.797-1.603-2.946-3.166-3.447-4.688-.507-1.625-.226-3.037.843-4.235c2.921.453,5.915.385,8.983-.205c3.062-.692,5.873-1.706,8.433-3.041c2.505-1.385,4.438-2.839,5.798-4.365c1.068-1.198,1.701-2.346,1.896-3.442.19-1.2-.233-2.262-1.268-3.184-.708-.632-1.483-1.079-2.325-1.341-.794-.316-1.979-.248-3.555.204-1.583.349-3.778,1.276-6.587,2.781l-3.54,1.831c-3.918,1.982-7.251,3.362-9.998,4.139-2.698.724-5.123.811-7.274.262-2.102-.603-4.188-1.828-6.258-3.674-1.961-1.748-3.827-4.097-5.599-7.045-1.723-3.003-3.23-6.303-4.521-9.899-1.243-3.651-2.101-7.35-2.574-11.096-.473-3.747-.416-7.265.171-10.555.587-3.2907,1.9-6.0798,3.94-8.3678c1.7-1.9066,3.351-3.3193,4.953-4.2381c1.547-.9674,3.645-1.346,6.293-1.1358c1.747-1.0823,3.527-1.5978,5.339-1.5465c1.758.0028,3.352.2992,4.781.8894c1.375.5415,2.444,1.1523,3.207,1.8324c1.416,1.2629,2.78,2.9682,4.092,5.1159s2.603,4.3741,3.872,6.6795c1.269,2.305,2.5,4.38,3.691,6.224.393.546.656,1.074.788,1.583.133.51-.068,1.064-.602,1.663-.778.872-2.133,1.57-4.068,2.094-1.94.421-4.004.488-6.191.2-2.188-.289-3.99-1.064-5.406-2.327-1.09-.972-2.118-2.231-3.086-3.778-.967-1.547-1.853-3.021-2.657-4.423-.858-1.45-1.587-2.442-2.186-2.976-.382-.34-.705-.5799-.972-.7198-.266-.1398-.57-.019-.91.3623-.825.9265-1.17,2.5745-1.035,4.9445.13,2.267.614,4.85,1.452,7.748.832,2.796,1.97,5.522,3.415,8.179c1.39,2.608,2.957,4.69,4.7,6.244.926.826,2.241,1.216,3.944,1.17c1.752-.1,4.159-.936,7.223-2.507l3.239-1.659c5.022-2.562,9.092-4.165,12.208-4.809c3.062-.692,5.544-.679,7.446.039c1.897.615,3.58,1.579,5.051,2.89c4.358,3.886,6.281,8.583,5.77,14.092-.464,5.454-3.221,11.014-8.273,16.68Z" transform="matrix(.777364 0.629051-.629051 0.777364 449.466008-35.126933)" opacity="0"/><path id="eD6RYlCr2ZB124" d="M268.871,222.255c-1.365,2.072-3.382,3.409-6.05,4.011-2.568.581-5.436-.172-8.606-2.26-1.28-.843-2.592-1.969-3.936-3.379-1.536.474-3.033.624-4.491.45-1.52-.214-2.676-.582-3.468-1.104-.447-.382-.563-1.07-.345-2.063.257-1.054.926-2.667,2.007-4.839-3.976-5.241-8.29-11.098-12.942-17.57-4.611-6.533-9.51-13.824-14.696-21.872-1.103-1.775-1.233-3.303-.39-4.583.362-.548.895-1.027,1.602-1.436-1.848-1.042-3.666-2.064-5.453-3.066-1.503-.903-2.389-1.88-2.658-2.931-.229-1.112-.022-2.156.621-3.131.802-1.219,2.123-2.228,3.96-3.028c1.838-.8,3.921-1.176,6.249-1.128s4.671.804,7.027,2.269c2.356,1.464,5.463,3.249,9.321,5.353c3.837,2.003,8.019,4.146,12.546,6.428c4.466,2.243,8.891,4.414,13.275,6.515c1.026-1.159,2.347-2.168,3.961-3.028c1.594-.96,3.261-1.566,5-1.819c1.679-.293,3.189.003,4.529.886.976.642,1.364,1.379,1.167,2.21-.198.831-.638,1.765-1.321,2.801l-1.445,2.194c-.201.305-.402.61-.602.914-.161.244-.342.519-.542.823c3.186,1.4,5.894,2.528,8.126,3.386c2.231.858,3.772,1.305,4.623,1.341.85.036,1.299.681,1.346,1.936.048,1.255-.29,2.431-1.012,3.528-1.365,2.072-3.301,3.419-5.808,4.04s-6.023-.078-10.548-2.097c-.629-.24-1.268-.53-1.918-.87l-8.61,18.843c1.631,2.036,3.231,4.051,4.801,6.047c1.264,1.531,2.332,2.628,3.207,3.292.914.602,1.503,1.034,1.768,1.295.325.302.227.849-.295,1.642Zm-32.405-44.942c2.45,3.711,4.878,7.321,7.287,10.83c2.408,3.509,4.775,6.947,7.101,10.315l5.793-12.178c-3.409-1.459-6.787-2.898-10.135-4.316-3.308-1.48-6.657-3.03-10.046-4.651Z" transform="matrix(.589484 0.80778-.80778 0.589484 587.148635-73.489921)" opacity="0"/></g>
<script><![CDATA[
!function(t,e){"object"==typeof exports&&"undefined"!=typeof module?module.exports=e():"function"==typeof __SVGATOR_DEFINE__&&__SVGATOR_DEFINE__.amd?__SVGATOR_DEFINE__(e):((t="undefined"!=typeof globalThis?globalThis:t||self).__SVGATOR_PLAYER__=t.__SVGATOR_PLAYER__||{},t.__SVGATOR_PLAYER__["91c80d77"]=e())}(this,(function(){"use strict";const t=n(Math.pow(10,-6)),e=n(Math.pow(10,-2));function n(t,e=6){return function(t,e,n){if(Number.isInteger(t))return t;const r=Math.pow(10,e);return Math[n]((+t+Number.EPSILON)*r)/r}(t,e,"round")}function r(e,n,r=t){return Math.abs(e-n)<r}n(Math.pow(10,-4));const i=Math.PI/180;function s(t){return t*i}function o(t){return t/i}function u(t){return"number"!=typeof t&&(t=Number(t)),isNaN(t)||!isFinite(t)?0:t}let l={iD:!1};function a(t){return`${t}`.replace(/['"]/g,"")}function c(t,e="px"){return t.endsWith(e)?t:`${t}${e}`}function f(t=""){return l.iD?t:void 0}function h(t){const e=["^","\\s*","(matrix\\()","(?<a>-?[0-9]*\\.?[0-9]+)","\\s*",",?","\\s*","(?<b>-?[0-9]*\\.?[0-9]+)","\\s*",",?","\\s*","(?<c>-?[0-9]*\\.?[0-9]+)","\\s*",",?","\\s*","(?<d>-?[0-9]*\\.?[0-9]+)","\\s*",",?","\\s*","(?<e>-?[0-9]*\\.?[0-9]+)","\\s*",",?","\\s*","(?<f>-?[0-9]*\\.?[0-9]+)","\\)"].join(""),n=t.match(new RegExp(e,"i"));if(n)return[u(n.groups.a),u(n.groups.b),u(n.groups.c),u(n.groups.d),u(n.groups.e),u(n.groups.f)]}function d(t,e="inline"){return t&&t!==e?(t=a(t))===e?f(e):t:f(e)}function g(t,e="1px"){if(!t||t===e)return f(e);if(t.endsWith("px")||t.endsWith("%"))return t;const n=c(t=`${u(t)}`);return n===e?f(e):n}function p(t,e="none"){return t&&t!==e?(t=a(t))===e?f(e):t.startsWith("url(#")?t:function(t){const e=["^","\\s*","url\\(","#","(?<maskId>[a-zA-Z0-9\\-_]+)","\\)"].join(""),n=t.match(new RegExp(e,"i"));if(n)return`url(#${n.groups.maskId})`}(t):f(e)}function y(t,e="rgb(0, 0, 0)"){if(!t||t===e)return f(e);if((t=a(t))===e)return f(e);if(t.startsWith("rgb"))return t;const n=function(t){const e=["^","\\s*","#","(?<red>[0-9A-Z]{1,2})","(?<green>[0-9A-Z]{1,2})","(?<blue>[0-9A-Z]{1,2})"].join(""),n=t.match(new RegExp(e,"i"));if(!n)return t;const r=t=>parseInt(t.length>1?t:`${t}${t}`,16);return`rgb(${r(n.groups.red)}, ${r(n.groups.green)}, ${r(n.groups.blue)})`}(t);return n===e?f(e):n}function m(t,e="1"){return t&&t!==e?(t=`${n(u(t),3)}`)===e?f(e):t:f(e)}let v={};const b={fill:"none",stroke:"none",opacity:"0.01",transform:"matrix(0.001 0 0 0.001 -10000 -10000)"};function w({element:t,tagType:e="path",property:n="d",attributeValue:r}){return v[r]||(v[r]=function({element:t,tagType:e="path",property:n="d",attributeValue:r}){const i=t.ownerSVGElement,s=document.createElementNS(i.namespaceURI,e);s.setAttributeNS(null,n,r);for(const t in b)s.setAttributeNS(null,t,b[t]);i.appendChild(s);const o=getComputedStyle(s)[n];return s.remove(),o}({element:t,tagType:e,property:n,attributeValue:r})),v[r]}const x=()=>{v={}};"object"==typeof window&&(window.removeEventListener("resize",x),window.addEventListener("resize",x));const A={include:(t,e)=>["path"].includes(e),formatter:t=>function(t,e=""){return t&&t!==e?(t=a(t))===e?f(e):t.startsWith("path(")?t:`path('${t}')`:f(e)}(t)},_={include:(t,e)=>["rect","mask"].includes(e),formatter:(t,e,n)=>g(t,function(t,e){var n;return(null===(n={mask:{x:"-150%",y:"-150%",width:"400%",height:"400%"}}[e])||void 0===n?void 0:n[t])||(["x","y"].includes(t)?"0px":"100%")}(e,n))},k=Object.freeze({d:A,display:t=>d(t),height:_,fill:t=>y(t),"fill-opacity":t=>m(t),filter:t=>d(t,"none"),mask:t=>p(t),opacity:t=>m(t),stroke:t=>y(t,"none"),"stroke-opacity":t=>m(t),"stroke-width":t=>g(t),transform:t=>function(t,e="none"){if(!t||t===e)return f(e);const n=h(t);return n?`matrix(${n.join(", ")})`:t}(t),"transform-origin":t=>function(t,e="0px 0px"){if(!t||t===e)return f(e);const n=["^","\\s*","(?<x>[0-9]+)","(px)?","\\s*",",","\\s*","(?<y>[0-9]+)","(px)?"].join(""),r=t.match(new RegExp(n,"i"));if(!r)return t;let i=`${u(r.groups.x)}`;i=c(i);let s=`${u(r.groups.y)}`;s=c(s);const o=`${i} ${s}`;return o===e?f(e):o}(t),visibility:t=>d(t,"visible"),width:_,x:_,y:_}),S=Object.keys(k),E=e;function M(t,e,n,i,s=window){var o,u;const l=t.getAttribute(e),a="transform"===e?"none":"",c=s.safari&&!s.chrome&&(null===(o=i.getPropertyValue)||void 0===o?void 0:o.call(i,e))===a||"mask"===n?l:null===(u=i.getPropertyValue)||void 0===u?void 0:u.call(i,e);if(l&&c){if(l===c)return l;switch(e){case"transform":return function(t,e){const n=h(t),i=h(e);if((null==n?void 0:n.length)===(null==i?void 0:i.length)){for(let t=0,e=n.length;t<e;t++)if(n[t]!==i[t]&&(s=i[t],!r(((o=n[t])-s)/(o||1)*100,0,E)))return;var s,o;return t}}(l,c);case"d":return function(t,e,n){return w({element:t,attributeValue:e})===n?e:void 0}(t,l,c);default:return c}}}function O(t,e,n,r){var i,s,o,u;const l="transform"===e||["mask","path"].includes(n)&&["x","y","width","height","d"].includes(e);return r&&l?M(t,e,n,r):(null===(i=r.getPropertyValue)||void 0===i?void 0:i.call(r,e))??(null===(s=t.attrs)||void 0===s||null===(o=s.style)||void 0===o?void 0:o[e])??(null===(u=t.attrs)||void 0===u?void 0:u[e])}function I(t,e,n=!1){l.iD=n;const r="undefined"!=typeof window&&getComputedStyle(t),i={};for(let l=0,a=S.length;l<a;l++){var s,o,u;const a=S[l],c=t.type||t.nodeName;if(!1===(null===(s=(o=k[a]).include)||void 0===s?void 0:s.call(o,a,c)))continue;const f=k[a].formatter||k[a];if(null!=e&&null!==(u=e[t.id])&&void 0!==u&&u[a])continue;const h=O(t,a,c,r);if(null==h&&!n)continue;const d=f.call(this,h,a,c);d&&(i[a]=d)}return i}function j(t){var e,n;if(null==t||null===(e=t.wD)||void 0===e||!e.length)return;this.h=t.wD.shift();const r=null===(n=t.rootId)||void 0===n?void 0:n.slice(0,-1);this.wIs=t.wD.map((t=>`${r}${t}`))}function B(t){const e=new j(t),n=t.svg,r=e.wIs,i=t.originalAnimations[0].elements,s=e.h;function o(t,e,s){var u;if(e[t])return;const l=n.querySelector("#"+t),a=null==l||null===(u=l.parentElement)||void 0===u?void 0:u.id;if(l&&a){if(r.includes(a))return e[a]||o(a,e,s),e[a].children??=[],e[t]=I(l,i),void e[a].children.push(e[t]);e[t]=I(l,i),s.push(e[t])}}async function u(){const t=function(){let t=[],e={};for(let n=0,i=r.length;n<i;n++)o(r[n],e,t);return t}();return await async function(t){var e,n;const r=JSON.stringify(t),i=(new TextEncoder).encode(r),o=await(null===(e=window.crypto)||void 0===e||null===(n=e.subtle)||void 0===n?void 0:n.digest("SHA-256",i));return o&&Array.from(new Uint8Array(o)).map((t=>t.toString(16).padStart(2,"0"))).join("")||s}(t)}this.vH=async function(){await u()!==s&&requestAnimationFrame((()=>t.stop()))}}function N(t){let e=0,n=0;const r=new B(t);this.cF=function(i,s){return t.wD?(e++,function(t){return!(t-n<300)&&(t-n>=500||e>=3)}(i)?(e=0,n=i,window.requestAnimationFrame((()=>r.vH())),s()):s()):s()}}function T(t){return t}function P(t,e,n){const r=1-n;return 3*n*r*(t*r+e*n)+n*n*n}function F(t=0,e=0,n=1,i=1){return t<0||t>1||n<0||n>1?null:r(t,e)&&r(n,i)?T:s=>{if(s<=0)return t>0?s*e/t:0===e&&n>0?s*i/n:0;if(s>=1)return n<1?1+(s-1)*(i-1)/(n-1):1===n&&t<1?1+(s-1)*(e-1)/(t-1):1;let o,u=0,l=1;for(;u<l;){o=(u+l)/2;const e=P(t,n,o);if(r(s,e))break;e<s?u=o:l=o}return P(e,i,o)}}function R(){return 1}function V(t){return 1===t?1:0}function C(t=1,e=0){if(1===t){if(0===e)return V;if(1===e)return R}const n=1/t;return t=>t>=1?1:(t+=e*n)-t%n}Number.isInteger||(Number.isInteger=function(t){return"number"==typeof t&&isFinite(t)&&Math.floor(t)===t}),Number.EPSILON||(Number.EPSILON=2220446049250313e-31);const D=Math.sin,L=Math.cos,$=Math.acos,q=Math.asin,z=Math.tan,G=Math.atan2,W=Math.sqrt;function Y(t,e){return{a:t[0]*e[0]+t[2]*e[1],b:t[1]*e[0]+t[3]*e[1],c:t[0]*e[2]+t[2]*e[3],d:t[1]*e[2]+t[3]*e[3],tx:t[0]*e[4]+t[2]*e[5]+t[4],ty:t[1]*e[4]+t[3]*e[5]+t[5]}}function U(t,e,n){return t>=.5?n:e}function H(t,e,n){return 0===t||e===n?e:t*(n-e)+e}function Z(t,e,n){const r=H(t,e,n);return r<=0?0:r}function J(t,e,n){const r=H(t,e,n);return r<=0?0:r>=1?1:r}function Q(t,e,n){return 0===t?e:1===t?n:{x:H(t,e.x,n.x),y:H(t,e.y,n.y)}}function X(t,e,n){return 0===t?e:1===t?n:{x:Z(t,e.x,n.x),y:Z(t,e.y,n.y)}}function K(t,e,n){const r=function(t,e,n){return Math.round(H(t,e,n))}(t,e,n);return r<=0?0:r>=255?255:r}function tt(t,e,n){return 0===t?e:1===t?n:{r:K(t,e.r,n.r),g:K(t,e.g,n.g),b:K(t,e.b,n.b),a:H(t,null==e.a?1:e.a,null==n.a?1:n.a)}}function et(t,e,n){let r=e.length;if(r!==n.length)return U(t,e,n);let i=new Array(r);for(let s=0;s<r;s++)i[s]=H(t,e[s],n[s]);return i}function nt(t,e){const n=[];for(let r=0;r<t;r++)n.push(e);return n}function rt(t,e){if(--e<=0)return t;const n=(t=Object.assign([],t)).length;do{for(let e=0;e<n;e++)t.push(t[e])}while(--e>0);return t}class it{constructor(t){this.list=t,this.length=t.length}setAttribute(t,e){const n=this.list;for(let r=0;r<this.length;r++)n[r].setAttribute(t,e)}removeAttribute(t){const e=this.list;for(let n=0;n<this.length;n++)e[n].removeAttribute(t)}style(t,e){const n=this.list;for(let r=0;r<this.length;r++)n[r].style[t]=e}}const st=/-./g,ot=(t,e)=>e.toUpperCase();let ut;function lt(t){return"function"==typeof t?t:U}function at(t){return t?"function"==typeof t?t:Array.isArray(t)?function(t,e=T){if(!Array.isArray(t))return e;switch(t.length){case 1:return C(t[0])||e;case 2:return C(t[0],t[1])||e;case 4:return F(t[0],t[1],t[2],t[3])||e}return e}(t,null):function(t,e,n=T){switch(t){case"linear":return T;case"steps":return C(e.steps||1,e.jump||0)||n;case"bezier":case"cubic-bezier":return F(e.x1||0,e.y1||0,e.x2||0,e.y2||0)||n}return n}(t.type,t.value,null):null}function ct(t,e,n,r=!1){const i=e.length-1;if(t<=e[0].t)return r?[0,0,e[0].v]:e[0].v;if(t>=e[i].t)return r?[i,1,e[i].v]:e[i].v;let s,o=e[0],u=null;for(s=1;s<=i;s++){if(!(t>e[s].t)){u=e[s];break}o=e[s]}return null==u?r?[i,1,e[i].v]:e[i].v:o.t===u.t?r?[s,1,u.v]:u.v:(t=(t-o.t)/(u.t-o.t),o.e&&(t=o.e(t)),r?[s,t,n(t,o.v,u.v)]:n(t,o.v,u.v))}function ft(t,e,n=null){return t&&t.length?"function"!=typeof e?null:("function"!=typeof n&&(n=null),r=>{let i=ct(r,t,e);return null!=i&&n&&(i=n(i)),i}):null}function ht(t,e){return t.t-e.t}function dt(t,e,n,r,i){const s="@"===n[0],o="#"===n[0];let u=ut[n],l=U;var a;switch(s?(a=n.substr(1),n=a.replace(st,ot)):o&&(n=n.substr(1)),typeof u){case"function":if(l=u(r,i,ct,at,n,s,e,t),o)return l;break;case"string":l=ft(r,lt(u));break;case"object":if(l=ft(r,lt(u.i),u.f),l&&"function"==typeof u.u)return u.u(e,l,n,s,t)}return l?function(t,e,n,r=!1){if(r)return t instanceof it?r=>t.style(e,n(r)):r=>t.style[e]=n(r);if(Array.isArray(e)){const r=e.length;return i=>{const s=n(i);if(null==s)for(let n=0;n<r;n++)t[n].removeAttribute(e);else for(let n=0;n<r;n++)t[n].setAttribute(e,s)}}return r=>{const i=n(r);null==i?t.removeAttribute(e):t.setAttribute(e,i)}}(e,n,l,s):null}function gt(t,e,n,r){if(!r||"object"!=typeof r)return null;let i=null,s=null;return Array.isArray(r)?s=function(t){if(!t||!t.length)return null;for(let e=0;e<t.length;e++)t[e].e&&(t[e].e=at(t[e].e));return t.sort(ht)}(r):(s=r.keys,i=r.data||null),s?dt(t,e,n,s,i):null}function pt(t,e,n){if(!n)return null;const r=[];for(const i in n)if(n.hasOwnProperty(i)){const s=gt(t,e,i,n[i]);s&&r.push(s)}return r.length?r:null}function yt(t,e){if(!e.settings.duration||e.settings.duration<0)return null;const n=function(t,e){if(!e)return null;let n=[];if(Array.isArray(e)){const r=e.length;for(let i=0;i<r;i++){const r=e[i];if(2!==r.length)continue;let s=null;if("string"==typeof r[0])s=t.getElementById(r[0]);else if(Array.isArray(r[0])){s=[];for(let e=0;e<r[0].length;e++)if("string"==typeof r[0][e]){const n=t.getElementById(r[0][e]);n&&s.push(n)}s=s.length?1===s.length?s[0]:new it(s):null}if(!s)continue;const o=pt(t,s,r[1]);o&&(n=n.concat(o))}}else for(const r in e){if(!e.hasOwnProperty(r))continue;const i=t.getElementById(r);if(!i)continue;const s=pt(t,i,e[r]);s&&(n=n.concat(s))}return n.length?n:null}(t,e.elements);return n?function(t,e){const n=e.duration,r=t.length;let i=null;return(s,o)=>{const u=e.iterations||1/0,l=(e.alternate&&u%2==0)^e.direction>0?n:0;let a=s%n,c=1+(s-a)/n;o*=e.direction,e.alternate&&c%2==0&&(o=-o);let f=!1;if(c>u)a=l,f=!0,-1===e.fill&&(a=e.direction>0?0:n);else if(o<0&&(a=n-a),a===i)return!1;i=a;for(let e=0;e<r;e++)t[e](a);return f}}(n,e.settings):null}function mt(t,e=document,n=0){const r=function(t,e){const n=e.querySelectorAll("svg");for(let e=0;e<n.length;e++)if(n[e].id===t.root&&!n[e].svgatorAnimation)return n[e].svgatorAnimation=!0,n[e];return null}(t,e);if(r)return r;if(n>=20)return null;const i=function(t){const e=t=>t.shadowRoot;return document?Array.from(t.querySelectorAll(":not("+["a","area","audio","br","canvas","circle","datalist","embed","g","head","hr","iframe","img","input","link","object","path","polygon","rect","script","source","style","svg","title","track","video"].join()+")")).filter(e).map(e):[]}(e);for(let e=0;e<i.length;e++){const r=mt(t,i[e],n+1);if(r)return r}return null}function vt(t,e=null,n=Number,r="undefined"!=typeof BigInt&&BigInt){const i="0x"+(t.replace(/[^0-9a-fA-F]+/g,"")||27);return e&&r&&n.isSafeInteger&&!n.isSafeInteger(+i)?n(r(i))%e+e:+i}function bt(t,e=27){return!t||t%e?t%e:[0,1].includes(e)?e:bt(t/e,e)}function wt(t,e,n){if(!t||!t.length)return;const r=vt(n),i=bt(r)+5;let s=function(t,e,n){let r="";for(;t&&n&&e<=t.length;)r+=t.substring(0,e),t=t.substring(e+1),e=n;return r+t}(t,bt(r,5),i);return s=s.replace(/\x7c$/g,"==").replace(/\x2f$/g,"="),s=atob(s),s=s.replace(/[\x41-\x5A]/g,""),s=function(t,e,n){const r=+("0x"+t.substring(0,4));t=t.substring(4);const i=vt(e,r)%r+n%27,s=[];for(let e=0;e<t.length;e+=2){if("|"===t[e]){const n=+("0x"+t.substring(e+1,e+1+4))-i;e+=3,s.push(n);continue}const n=+("0x"+t[e]+t[e+1])-i;s.push(n)}return String.fromCharCode(...s)}(s,e,r),s=JSON.parse(s),s}const xt=[{key:"alternate",def:!1},{key:"fill",def:1},{key:"iterations",def:0},{key:"direction",def:1},{key:"speed",def:1},{key:"fps",def:100}];function At(t){return n(t)+""}function _t(t,e=" "){return t&&t.length?t.map(At).join(e):""}function kt(t){return At(t.x)+","+At(t.y)}function St(t){return t?null==t.a||t.a>=1?function(t){if(!t)return"transparent";const e=t=>parseInt(t).toString(16).padStart(2,"0");return function(t){const e=[];let n="#"===t[0]?e.push("#"):0;for(;n<t.length;n+=2){if(t[n]!==t[n+1])return t;e.push(t[n])}return e.join("")}("#"+e(t.r)+e(t.g)+e(t.b)+(null==t.a||t.a>=1?"":e(255*t.a)))}(t):"rgba("+t.r+","+t.g+","+t.b+","+t.a+")":"transparent"}function Et(t){return t?"url(#"+t+")":"none"}!function(){for(var t=0,e=["ms","moz","webkit","o"],n=0;n<e.length&&!window.requestAnimationFrame;++n)window.requestAnimationFrame=window[e[n]+"RequestAnimationFrame"],window.cancelAnimationFrame=window[e[n]+"CancelAnimationFrame"]||window[e[n]+"CancelRequestAnimationFrame"];window.requestAnimationFrame||(window.requestAnimationFrame=function(e){var n=Date.now(),r=Math.max(0,16-(n-t)),i=window.setTimeout((function(){e(n+r)}),r);return t=n+r,i},window.cancelAnimationFrame=window.clearTimeout)}();var Mt={f:null,i:X,u:(t,e)=>n=>{const r=e(n);t.setAttribute("rx",At(r.x)),t.setAttribute("ry",At(r.y))}},Ot={f:null,i:function(t,e,n){return 0===t?e:1===t?n:{width:Z(t,e.width,n.width),height:Z(t,e.height,n.height)}},u:(t,e)=>n=>{const r=e(n);t.setAttribute("width",At(r.width)),t.setAttribute("height",At(r.height))}};Object.freeze({M:2,L:2,Z:0,H:1,V:1,C:6,Q:4,T:2,S:4,A:7});let It={},jt=null;function Bt(t){let e=function(){if(jt)return jt;if("object"!=typeof document||!document.createElementNS)return{};let t=document.createElementNS("http://www.w3.org/2000/svg","svg");return t&&t.style?(t.style.position="absolute",t.style.opacity="0.01",t.style.zIndex="-9999",t.style.left="-9999px",t.style.width="1px",t.style.height="1px",jt={svg:t},jt):{}}().svg;if(!e)return function(t){return null};let n=document.createElementNS(e.namespaceURI,"path");n.setAttributeNS(null,"d",t),n.setAttributeNS(null,"fill","none"),n.setAttributeNS(null,"stroke","none"),e.appendChild(n);let r=n.getTotalLength();return function(t){let e=n.getPointAtLength(r*t);return{x:e.x,y:e.y}}}function Nt(t,e,n,r,i=1){let s=function(t){return It[t]?It[t]:It[t]=Bt(t)}(function(t,e,n,r){if(!t||!r)return!1;let i=["M",t.x,t.y];if(e&&n&&(i.push("C"),i.push(e.x),i.push(e.y),i.push(n.x),i.push(n.y)),e?!n:n){let t=e||n;i.push("Q"),i.push(t.x),i.push(t.y)}return e||n||i.push("L"),i.push(r.x),i.push(r.y),i.join(" ")}(t,e,n,r));try{return s(i)}catch(t){return null}}function Tt(t,e,n){return t+(e-t)*n}function Pt(t,e,n,r=!1){const i={x:Tt(t.x,e.x,n),y:Tt(t.y,e.y,n)};return r&&(i.a=function(t,e){return Math.atan2(e.y-t.y,e.x-t.x)}(t,e)),i}function Ft(t,e,n,r){const i=1-r;return i*i*t+2*i*r*e+r*r*n}function Rt(t,e,n,r){return 2*(1-r)*(e-t)+2*r*(n-e)}function Vt(t,e,n,r,i=!1){let s=Nt(t,e,null,n,r);return s||(s={x:Ft(t.x,e.x,n.x,r),y:Ft(t.y,e.y,n.y,r)}),i&&(s.a=function(t,e,n,r){return Math.atan2(Rt(t.y,e.y,n.y,r),Rt(t.x,e.x,n.x,r))}(t,e,n,r)),s}function Ct(t,e,n,r,i){const s=i*i;return i*s*(r-t+3*(e-n))+3*s*(t+n-2*e)+3*i*(e-t)+t}function Dt(t,e,n,r,i){const s=1-i;return 3*(s*s*(e-t)+2*s*i*(n-e)+i*i*(r-n))}function Lt(t,e,n,r,i,s=!1){let o=Nt(t,e,n,r,i);return o||(o={x:Ct(t.x,e.x,n.x,r.x,i),y:Ct(t.y,e.y,n.y,r.y,i)}),s&&(o.a=function(t,e,n,r,i){return Math.atan2(Dt(t.y,e.y,n.y,r.y,i),Dt(t.x,e.x,n.x,r.x,i))}(t,e,n,r,i)),o}function $t(t,e,n,r=!1){if(zt(e)){if(Gt(n))return Vt(e,n.start,n,t,r)}else if(zt(n)){if(Wt(e))return Vt(e,e.end,n,t,r)}else{if(Wt(e))return Gt(n)?Lt(e,e.end,n.start,n,t,r):Vt(e,e.end,n,t,r);if(Gt(n))return Vt(e,n.start,n,t,r)}return Pt(e,n,t,r)}function qt(t,e,n){const r=$t(t,e,n,!0);return r.a=o(function(t,e=!1){return e?t+Math.PI:t}(r.a)),r}function zt(t){return!t.type||"corner"===t.type}function Gt(t){return null!=t.start&&!zt(t)}function Wt(t){return null!=t.end&&!zt(t)}const Yt=new class{constructor(t=1,e=0,n=0,r=1,i=0,s=0){this.m=[t,e,n,r,i,s],this.i=null,this.w=null,this.s=null}get determinant(){const t=this.m;return t[0]*t[3]-t[1]*t[2]}get isIdentity(){if(null===this.i){const t=this.m;this.i=1===t[0]&&0===t[1]&&0===t[2]&&1===t[3]&&0===t[4]&&0===t[5]}return this.i}point(t,e){const n=this.m;return{x:n[0]*t+n[2]*e+n[4],y:n[1]*t+n[3]*e+n[5]}}translateSelf(t=0,e=0){if(!t&&!e)return this;const n=this.m;return n[4]+=n[0]*t+n[2]*e,n[5]+=n[1]*t+n[3]*e,this.w=this.s=this.i=null,this}rotateSelf(t=0){if(t%=360){t=s(t);const e=D(t),n=L(t),r=this.m,i=r[0],o=r[1];r[0]=i*n+r[2]*e,r[1]=o*n+r[3]*e,r[2]=r[2]*n-i*e,r[3]=r[3]*n-o*e,this.w=this.s=this.i=null}return this}scaleSelf(t=1,e=1){if(1!==t||1!==e){const n=this.m;n[0]*=t,n[1]*=t,n[2]*=e,n[3]*=e,this.w=this.s=this.i=null}return this}skewSelf(t,e){if(e%=360,(t%=360)||e){const n=this.m,r=n[0],i=n[1],o=n[2],u=n[3];t&&(t=z(s(t)),n[2]+=r*t,n[3]+=i*t),e&&(e=z(s(e)),n[0]+=o*e,n[1]+=u*e),this.w=this.s=this.i=null}return this}resetSelf(t=1,e=0,n=0,r=1,i=0,s=0){const o=this.m;return o[0]=t,o[1]=e,o[2]=n,o[3]=r,o[4]=i,o[5]=s,this.w=this.s=this.i=null,this}recomposeSelf(t=null,e=null,n=null,r=null,i=null){return this.isIdentity||this.resetSelf(),t&&(t.x||t.y)&&this.translateSelf(t.x,t.y),e&&this.rotateSelf(e),n&&(n.x&&this.skewSelf(n.x,0),n.y&&this.skewSelf(0,n.y)),!r||1===r.x&&1===r.y||this.scaleSelf(r.x,r.y),i&&(i.x||i.y)&&this.translateSelf(i.x,i.y),this}decompose(t=0,e=0){const r=this.m,i=r[0]*r[0]+r[1]*r[1],s=[[r[0],r[1]],[r[2],r[3]]];let u=W(i);if(0===u)return{origin:{x:n(r[4]),y:n(r[5])},translate:{x:n(t),y:n(e)},scale:{x:0,y:0},skew:{x:0,y:0},rotate:0};s[0][0]/=u,s[0][1]/=u;const l=r[0]*r[3]-r[1]*r[2]<0;l&&(u=-u);let a=s[0][0]*s[1][0]+s[0][1]*s[1][1];s[1][0]-=s[0][0]*a,s[1][1]-=s[0][1]*a;let c,f=W(s[1][0]*s[1][0]+s[1][1]*s[1][1]);return 0===f?{origin:{x:n(r[4]),y:n(r[5])},translate:{x:n(t),y:n(e)},scale:{x:n(u),y:0},skew:{x:0,y:0},rotate:0}:(s[1][0]/=f,s[1][1]/=f,a/=f,s[1][1]<0?(c=o($(s[1][1])),s[0][1]<0&&(c=360-c)):c=o(q(s[0][1])),l&&(c=-c),a=o(G(a,W(s[0][0]*s[0][0]+s[0][1]*s[0][1]))),l&&(a=-a),{origin:{x:n(r[4]),y:n(r[5])},translate:{x:n(t),y:n(e)},scale:{x:n(u),y:n(f)},skew:{x:n(a),y:0},rotate:n(c)})}multiply(t){return this.clone().multiplySelf(t)}preMultiply(t){return t.multiply(this)}multiplySelf(t){const{a:e,b:n,c:r,d:i,tx:s,ty:o}=Y(this.m,t.m);return this.resetSelf(e,n,r,i,s,o),this}preMultiplySelf(t){const{a:e,b:n,c:r,d:i,tx:s,ty:o}=Y(t.m,this.m);return this.resetSelf(e,n,r,i,s,o),this}clone(){const t=this.m;return new this.constructor(t[0],t[1],t[2],t[3],t[4],t[5])}static create(t){return t?Array.isArray(t)?new this(...t):t instanceof this?t.clone():(new this).recomposeSelf(t.origin,t.rotate,t.skew,t.scale,t.translate):new this}toString(t=" ",e=!1){if(null===this.s){let r=this.m.map((t=>n(t)));e||1!==r[0]||0!==r[1]||0!==r[2]||1!==r[3]?this.s="matrix("+r.join(t)+")":this.s="translate("+r[4]+t+r[5]+")"}return this.s}};var Ut={f:function(t){return t?t.join(" "):""},i:function(t,e,n){if(0===t)return e;if(1===t)return n;let r=e.length;if(r!==n.length)return U(t,e,n);let i,s=new Array(r);for(let o=0;o<r;o++){if(i=typeof e[o],i!==typeof n[o])return U(t,e,n);if("number"===i)s[o]=H(t,e[o],n[o]);else{if(e[o]!==n[o])return U(t,e,n);s[o]=e[o]}}return s}},Ht={f:null,i:et,u:(t,e)=>n=>{const r=e(n);t.setAttribute("x1",At(r[0])),t.setAttribute("y1",At(r[1])),t.setAttribute("x2",At(r[2])),t.setAttribute("y2",At(r[3]))}},Zt={f:At,i:H},Jt={f:At,i:J},Qt={f:function(t,e=" "){return t&&t.length>0&&(t=t.map((t=>n(t,4)))),_t(t,e)},i:function(t,e,r){let i=e.length,s=r.length;if(i!==s)if(0===i)i=s,e=nt(i,0);else if(0===s)s=i,r=nt(i,0);else{const t=function(t,e){const n=t*e/function(t,e){let n;for(;e;)n=e,e=t%e,t=n;return t||1}(t,e);return n<0?-n:n}(i,s);e=rt(e,Math.floor(t/i)),r=rt(r,Math.floor(t/s)),i=s=t}let o=[];for(let s=0;s<i;s++)o.push(n(Z(t,e[s],r[s])));return o}};function Xt(t,e,r){return t.map((t=>function(t,e,r){let i=t.v;if(!i||"g"!==i.t||i.s||!i.v||!i.r)return t;const s=r.getElementById(i.r),o=s&&s.querySelectorAll("stop")||[];return i.s=i.v.map(((t,e)=>{let r=o[e]&&o[e].getAttribute("offset");return r=n(parseInt(r)/100),{c:t,o:r}})),delete i.v,t}(t,0,r)))}const Kt={gt:"gradientTransform",c:{x:"cx",y:"cy"},rd:"r",f:{x:"x1",y:"y1"},to:{x:"x2",y:"y2"}};function te(t,e,n,r,i,s,o,u){return Xt(t,0,u),e=function(t,e,n){let r,i,s;const o=t.length-1,u={};for(let l=0;l<=o;l++)r=t[l],r.e&&(r.e=e(r.e)),r.v&&(i=r.v,"g"===i.t&&i.r&&(s=n.getElementById(i.r),s&&(u[i.r]={e:s,s:s.querySelectorAll("stop")})));return u}(t,r,u),r=>{const i=n(r,t,ee);if(!i)return"none";if("c"===i.t)return St(i.v);if("g"===i.t){if(!e[i.r])return Et(i.r);const t=e[i.r];return function(t,e){let n=t.s;for(let r=n.length;r<e.length;r++){const e=n[n.length-1].cloneNode();e.id=ie(e.id),t.e.appendChild(e),n=t.s=t.e.querySelectorAll("stop")}for(let t=0,r=n.length,i=e.length-1;t<r;t++)n[t].setAttribute("stop-color",St(e[Math.min(t,i)].c)),n[t].setAttribute("offset",e[Math.min(t,i)].o)}(t,i.s),Object.keys(Kt).forEach((e=>{if(void 0===i[e])return;if("object"==typeof Kt[e])return void Object.keys(Kt[e]).forEach((n=>{if(void 0===i[e][n])return;const r=i[e][n],s=Kt[e][n];t.e.setAttribute(s,r)}));const n="gt"===e?(r=i[e],Array.isArray(r)?"matrix("+r.join(" ")+")":""):i[e];var r;const s=Kt[e];t.e.setAttribute(s,n)})),Et(i.r)}return"none"}}function ee(t,e,n){if(0===t)return e;if(1===t)return n;if(e&&n){const r=e.t;if(r===n.t)switch(e.t){case"c":return{t:r,v:tt(t,e.v,n.v)};case"g":if(e.r===n.r){const i={t:r,s:ne(t,e.s,n.s),r:e.r};return e.gt&&n.gt&&(i.gt=et(t,e.gt,n.gt)),e.c?(i.c=Q(t,e.c,n.c),i.rd=Z(t,e.rd,n.rd)):e.f&&(i.f=Q(t,e.f,n.f),i.to=Q(t,e.to,n.to)),i}}if("c"===e.t&&"g"===n.t||"c"===n.t&&"g"===e.t){const r="c"===e.t?e:n,i="g"===e.t?{...e}:{...n},s=i.s.map((t=>({c:r.v,o:t.o})));return i.s="c"===e.t?ne(t,s,i.s):ne(t,i.s,s),i}}return U(t,e,n)}function ne(t,e,n){if(e.length===n.length)return e.map(((e,r)=>re(t,e,n[r])));const r=Math.max(e.length,n.length),i=[];for(let s=0;s<r;s++){const r=re(t,e[Math.min(s,e.length-1)],n[Math.min(s,n.length-1)]);i.push(r)}return i}function re(t,e,n){return{o:J(t,e.o,n.o||0),c:tt(t,e.c,n.c||{})}}function ie(t){return t.replace(/-fill-([0-9]+)$/,((t,e)=>"-fill-"+(+e+1)))}function se(t,e,n){return 0===t?e:1===t?n:{blur:X(t,e.blur,n.blur),offset:Q(t,e.offset,n.offset),color:tt(t,e.color,n.color)}}const oe={blur:X,brightness:Z,contrast:Z,"drop-shadow":se,"inner-shadow":se,grayscale:Z,"hue-rotate":H,invert:Z,opacity:Z,saturate:Z,sepia:Z};function ue(t,e,n){if(0===t)return e;if(1===t)return n;const r=e.length;if(r!==n.length)return U(t,e,n);const i=[];let s;for(let o=0;o<r;o++){if(e[o].type!==n[o].type)return e;if(s=oe[e[o].type],!s)return U(t,e,n);i.push({type:e.type,value:s(t,e[o].value,n[o].value)})}return i}const le={blur:t=>t?e=>{t.setAttribute("stdDeviation",kt(e))}:null,brightness:(t,e,n)=>(t=ce(n,e))?e=>{e=At(e),t.map((t=>t.setAttribute("slope",e)))}:null,contrast:(t,e,n)=>(t=ce(n,e))?e=>{const n=At((1-e)/2);e=At(e),t.map((t=>{t.setAttribute("slope",e),t.setAttribute("intercept",n)}))}:null,"drop-shadow"(t,e,n){const r=n.getElementById(e+"-blur");if(!r)return null;const i=n.getElementById(e+"-offset");if(!i)return null;const s=n.getElementById(e+"-flood");return s?t=>{r.setAttribute("stdDeviation",kt(t.blur)),i.setAttribute("dx",At(t.offset.x)),i.setAttribute("dy",At(t.offset.y)),s.setAttribute("flood-color",St(t.color))}:null},"inner-shadow"(t,e,n){const r=n.getElementById(e+"-blur");if(!r)return null;const i=n.getElementById(e+"-offset");if(!i)return null;const s=n.getElementById(e+"-color-matrix");return s?t=>{r.setAttribute("stdDeviation",kt(t.blur)),i.setAttribute("dx",At(t.offset.x)),i.setAttribute("dy",At(t.offset.y));const e=[0,0,0,0,t.color.r/255,0,0,0,0,t.color.g/255,0,0,0,0,t.color.b/255,0,0,0,t.color.a,0];s.setAttribute("values",_t(e))}:null},grayscale:t=>t?e=>{t.setAttribute("values",_t(function(t){return[.2126+.7874*(t=1-t),.7152-.7152*t,.0722-.0722*t,0,0,.2126-.2126*t,.7152+.2848*t,.0722-.0722*t,0,0,.2126-.2126*t,.7152-.7152*t,.0722+.9278*t,0,0,0,0,0,1,0]}(e)))}:null,"hue-rotate":t=>t?e=>t.setAttribute("values",At(e)):null,invert:(t,e,n)=>(t=ce(n,e))?e=>{e=At(e)+" "+At(1-e),t.map((t=>t.setAttribute("tableValues",e)))}:null,opacity:(t,e,n)=>(t=n.getElementById(e+"-A"))?e=>t.setAttribute("tableValues","0 "+At(e)):null,saturate:t=>t?e=>t.setAttribute("values",At(e)):null,sepia:t=>t?e=>t.setAttribute("values",_t(function(t){return[.393+.607*(t=1-t),.769-.769*t,.189-.189*t,0,0,.349-.349*t,.686+.314*t,.168-.168*t,0,0,.272-.272*t,.534-.534*t,.131+.869*t,0,0,0,0,0,1,0]}(e))):null};const ae=["R","G","B"];function ce(t,e){const n=ae.map((n=>t.getElementById(e+"-"+n)||null));return-1!==n.indexOf(null)?null:n}var fe={fill:te,"fill-opacity":Jt,stroke:te,"stroke-opacity":Jt,"stroke-width":Zt,"stroke-dashoffset":{f:At,i:H},"stroke-dasharray":Qt,opacity:Jt,transform:function(t,e,n,r){if(!(t=function(t,e){if(!t||"object"!=typeof t)return null;let n=!1;for(const r in t)t.hasOwnProperty(r)&&(t[r]&&t[r].length?(t[r].forEach((t=>{t.e&&(t.e=e(t.e))})),n=!0):delete t[r]);return n?t:null}(t,r)))return null;const i=(r,i,s,o=null)=>t[r]?n(i,t[r],s):e&&e[r]?e[r]:o;return e&&e.a&&t.o?e=>{const r=n(e,t.o,qt);return Yt.recomposeSelf(r,i("r",e,H,0)+r.a,i("k",e,Q),i("s",e,Q),i("t",e,Q)).toString()}:t=>Yt.recomposeSelf(i("o",t,$t,null),i("r",t,H,0),i("k",t,Q),i("s",t,Q),i("t",t,Q)).toString()},"#filter":function(t,e,n,r,i,s,o,u){if(!e.items||!t||!t.length)return null;const l=function(t,e){const n=(t=t.map((t=>t&&le[t[0]]?(e.getElementById(t[1]),le[t[0]](e.getElementById(t[1]),t[1],e)):null))).length;return e=>{for(let r=0;r<n;r++)t[r]&&t[r](e[r].value)}}(e.items,u);return l?(t=function(t,e){return t.map((t=>(t.e=e(t.e),t)))}(t,r),e=>{l(n(e,t,ue))}):null},"#line":Ht,points:{f:_t,i:et},d:Ut,r:Zt,"#size":Ot,"#radius":Mt,_(t,e){if(Array.isArray(t))for(let n=0;n<t.length;n++)this[t[n]]=e;else this[t]=e}};const he={currentTime:"offset",duration:"duration",hasEnded:function(){return this.reachedToEnd()},isAlternate:"alternate",isPlaying:"_running",isRollingBack:"_rollingBack",state:function(t,e){return e.isPlaying?e.isRollingBack?"rollback":"playing":e.hasEnded?"ended":"paused"},totalTime:"maxFiniteDuration",iterations:"iterations",direction:"direction",fill:"fill",isReversed:function(t,e){return-1===e.direction},isBackwards:function(t,e){return-1===e.fill},isInfinite:function(t,e){return 0===e.iterations},speed:"speed",fps:"fps"},de={destruct:"destruct",pause:"pause",play:function(t,e){return ge(t,e.hasEnded?"restart":"play",e)},restart:"restart",reverse:function(t,e){return ge(t,"reverse",e,[!0])},seek:"seek",seekBy:"seekBy",seekTo:"seekTo",stop:"stop",toggle:"toggle",togglePlay:"toggle",set:"set"};function ge(t,e,n,r=[]){return function(){const i=[...arguments];return i.unshift(...r),t[e].call(t,...i),n}}class pe{constructor(t){const e={},n=["on","off"],r={get:function(t,r,i){return he[r]?"function"==typeof he[r]?he[r].call(t,t,i):t[he[r]]:de[r]?"function"==typeof de[r]?de[r].call(t,t,i):ge(t,de[r],i):-1!==n.indexOf(r)?e[r]:"ready"===r?t=>(t&&t.call(i,i),i):void 0},set:function(t,r,i){return-1!==n.indexOf(r)&&(e[r]=i)},ownKeys:function(t){return Object.keys(he)},has:function(t,e){return void 0!==he[e]}};if("function"==typeof Proxy)return new Proxy(t,r);const i=Object.keys(he).concat(Object.keys(de)).concat(n),s={};return i.forEach((e=>{const i={enumerable:!1,configurable:!1,get:()=>r.get(t,e,s)};-1!==n.indexOf(e)&&(i.set=n=>r.set(t,e,n)),Object.defineProperty(s,e,i)})),s}}function ye(t){t||(t=this);let e={};this.on=function(t,n,r=!1){return"function"==typeof n&&(t.split(/[, ]+/g).forEach((t=>(e[t]=e[t]||[],r?e[t].unshift(n):e[t].push(n)))),!0)},this.off=function(t,n){for(let r in e)if(e.hasOwnProperty(r)&&r.substr(0,t.length)===t)if(n)for(let t=0;t<e[r].length;t++)e[r][t]===n&&(e[r][t]=null);else e[r]=null},this.trigger=function(){let n,[r,...i]=[...arguments];t:for(let s in e)if(e.hasOwnProperty(s)&&e[s]&&(s===r||s.substr(0,r.length+1)===r+"."))for(let r=0;r<(e[s]||[]).length;r++)if(e[s][r]&&(n=e[s][r].apply(t,i),!1===n))break t;return n}}let me=function(t,e,n=n){let r=!1,i=null;return function(s){r&&clearTimeout(r),r=setTimeout((()=>function(){let s=0,o=n.innerHeight,u=0,l=n.innerWidth,a=t.parentNode;for(;a instanceof Element;){let t=n.getComputedStyle(a);if("visible"!==t.overflowY||"visible"!==t.overflowX){let e=a.getBoundingClientRect();"visible"!==t.overflowY&&(s=Math.max(s,e.top),o=Math.min(o,e.bottom)),"visible"!==t.overflowX&&(u=Math.max(u,e.left),l=Math.min(l,e.right))}if(a===a.parentNode)break;a=a.parentNode}r=!1;let c=t.getBoundingClientRect(),f=Math.min(c.height,Math.max(0,s-c.top)),h=Math.min(c.height,Math.max(0,c.bottom-o)),d=Math.min(c.width,Math.max(0,u-c.left)),g=Math.min(c.width,Math.max(0,c.right-l)),p=(c.height-f-h)/c.height,y=(c.width-d-g)/c.width,m=Math.round(p*y*100);null!==i&&i===m||(i=m,e(m))}()),100)}};class ve{constructor(t,e,n){const r=function(t){var e,n;const r=t&&1===(null===(e=t.ownerDocument)||void 0===e||null===(n=e.childNodes)||void 0===n?void 0:n.length)&&window.parent!==window,i={el:t,window:window};if(!r)return i;let s;try{s=window.parent.document}catch(t){return i}return i.window=window.parent,i.el=Array.from(s.querySelectorAll("iframe,object")).filter((t=>t.contentWindow===window))[0]||i.el,i}(t);e=Math.max(1,e||1),e=Math.min(e,100),this.el=r.el,this._handlers=[],this.onThresholdChange=n&&n.call?n:()=>{},this.thresholdPercent=e||1,this.currentVisibility=null,this.visibilityCalculator=me(this.el,this.onVisibilityUpdate.bind(this),r.window),this.bindScrollWatchers(),this.visibilityCalculator()}bindScrollWatchers(){let t=this.el.parentNode;for(;t&&(this._handlers.push({element:t,event:"scroll",handler:this.visibilityCalculator}),t.addEventListener("scroll",this.visibilityCalculator),t!==t.parentNode&&t!==document);)t=t.parentNode}onVisibilityUpdate(t){let e=this.currentVisibility>=this.thresholdPercent,n=t>=this.thresholdPercent;if(null===this.currentVisibility||e!==n)return this.currentVisibility=t,void this.onThresholdChange(n);this.currentVisibility=t}destruct(){this._handlers.forEach((t=>{t.element.removeEventListener(t.event,t.handler)}))}}class be{static adjustLink(t){var e,n;const r=t&&1===(null===(e=t.ownerDocument)||void 0===e||null===(n=e.childNodes)||void 0===n?void 0:n.length)&&window.parent!==window,i=null==t?void 0:t.firstElementChild;r&&i&&"a"===i.tagName&&!i.getAttribute("target")&&i.setAttributeNS(null,"target","_parent")}static autoPlay(t,e,n,r=[]){if("click"===n.start){const i=()=>{switch(n.click){case"freeze":return!t._running&&t.reachedToEnd()?t.restart():t.toggle();case"restart":return t.offset>0?t.restart():t.play();case"reverse":return t._running?t.reverse():t.reachedToEnd()?1===t.fill?t.reverse(!0):t.restart():t.play();case"none":default:if(t._running)return;return t.reachedToEnd()?t.restart():t.play()}};return r.push({element:e,event:"click",handler:i}),void e.addEventListener("click",i)}if("hover"===n.start){const i=()=>t.reachedToEnd()?t.restart():t._rollingBack?t.reverse():t.play();r.push({element:e,event:"mouseenter",handler:i}),e.addEventListener("mouseenter",i);const s=()=>{switch(n.hover){case"freeze":return t.pause();case"reset":return t.stop();case"reverse":if(t.reverse(),t._running)return;return t.play();case"none":default:return}};return r.push({element:e,event:"mouseleave",handler:s}),void e.addEventListener("mouseleave",s)}if("scroll"!==n.start)"programmatic"!==n.start&&t.play();else{const i=new ve(e,n.scroll||25,(function(e){e?t.reachedToEnd()?t.restart():t.play():t.pause()}));r.push({callback:()=>i.destruct()})}}}const we=!0,xe=["iterations","speed","fps","direction","fill","alternate"];class Ae extends class{_svg;_rootId;constructor(t){this._id=0,this._running=!1,this._rollingBack=!1,this._animations=t.animations,this._settings=t.animationSettings,t.version<"2022-05-02"&&delete this._settings.speed,xt.forEach((t=>{this._settings[t.key]=this._settings[t.key]||t.def})),this.duration=t.animationSettings.duration,this.offset=t.animationSettings.offset||0,this.rollbackStartOffset=0,this._rootId=t.root,this._svg=t.svg,this._originalAnimations=t.originalAnimations,this._fTC=new N(this)}get svg(){return this._svg}get rootId(){return this._rootId}get alternate(){return this._settings.alternate}get fill(){return this._settings.fill}get iterations(){return this._settings.iterations}get direction(){return this._settings.direction}get speed(){return this._settings.speed}get fps(){return this._settings.fps}get wD(){return this._settings.w}get originalAnimations(){return this._originalAnimations}get maxFiniteDuration(){return this.iterations>0?this.iterations*this.duration:this.duration}static build(t,e){if(delete t.animationSettings,t.options=wt(t.options,t.root,"91c80d77"),t.animations.map((e=>{e.settings=wt(e.s,t.root,"91c80d77"),delete e.s,t.animationSettings||(t.animationSettings=e.settings)})),Object.assign(t,{originalAnimations:t.animations},function(t,e){if(ut=e,!t||!t.root||!Array.isArray(t.animations))return null;const n=mt(t);if(!n)return null;const r=t.animations.map((t=>yt(n,t))).filter((t=>!!t));return r.length?{svg:n,animations:r}:null}(t,e)),!t)return null;const n=t.options||{},r=new this(t);return{el:t.svg,options:n,player:r}}static push(t){return this.build(t)}static init(){const t=window.__SVGATOR_PLAYER__&&window.__SVGATOR_PLAYER__["91c80d77"];Array.isArray(t)&&t.splice(0).forEach((t=>this.build(t)))}_apply(t,e={}){const n=this._animations,r=n.length;let i=0;for(let s=0;s<r;s++)e[s]?i++:(e[s]=n[s](t,1),e[s]&&i++);return i}_rollback(t){let e=1/0,n=null;this.rollbackStartOffset=t,this._rollingBack=!0,this._running=!0;const r=i=>{if(!this._rollingBack)return;null==n&&(n=i);let s=Math.round(t-(i-n)*this.speed);if(s>this.duration&&e!==1/0){const t=!!this.alternate&&s/this.duration%2>1;let e=s%this.duration;e+=t?this.duration:0,s=e||this.duration}const o=(this.fps?1e3/this.fps:0)*this.speed,u=Math.max(0,s);u<=e-o&&(this.offset=u,e=u,this._apply(u));const l=this.iterations>0&&-1===this.fill&&s>=this.maxFiniteDuration;(s<=0||this.offset<s||l)&&this.stop(),this._id=window.requestAnimationFrame(r)};this._id=window.requestAnimationFrame(r)}_start(t=0){let e,n=-1/0;const r={};this._running=!0;const i=s=>{e??=s;const o=Math.round((s-e)*this.speed+t),u=(this.fps?1e3/this.fps:0)*this.speed;o>=n+u&&!this._rollingBack&&this._fTC.cF(s,(()=>{this.offset=o,n=o;if(this._apply(o,r)===this._animations.length)return this.pause(!0),!0}))||(this._id=window.requestAnimationFrame(i))};this._id=window.requestAnimationFrame(i)}_pause(){this._id&&window.cancelAnimationFrame(this._id),this._running=!1}play(){if(!this._running)return this._rollingBack?this._rollback(this.offset):this._start(this.offset)}stop(){this._pause(),this.offset=0,this.rollbackStartOffset=0,this._rollingBack=!1,this._apply(0)}reachedToEnd(){return this.iterations>0&&this.offset>=this.iterations*this.duration}restart(t=!1){this.stop(t),this.play(t)}pause(){this._pause()}toggle(){return this._running?this.pause():this.reachedToEnd()?this.restart():this.play()}trigger(t,e){}_adjustOffset(t=!1){const e=this.alternate?2*this.duration:this.duration;if(t){if(!this._rollingBack&&0===this.offset)return void(this.offset=e);this._rollingBack&&(this.offset,this.maxFiniteDuration)}!this._rollingBack||this.rollbackStartOffset<=this.duration?0!==this.iterations&&(this.offset=Math.min(this.offset,this.maxFiniteDuration)):(this.offset=this.rollbackStartOffset-(this.rollbackStartOffset-this.offset)%e,this.rollbackStartOffset=0)}reverse(t=!1){if(!this._running)return this._adjustOffset(t),this._rollingBack=!this._rollingBack,t&&this.play(!1),void this.trigger("reverse",this.offset);this.pause(!1,!1),this._adjustOffset(),this._rollingBack=!this._rollingBack,this.play(!1),this.trigger("reverse",this.offset)}}{constructor(t){super(t),this._handlers=[]}static build(t){let e=super.build(t,fe);if(!e)return null;let{el:n,options:r,player:i}=e;const s=new pe(i),o=new ye(s);s.on=o.on,s.off=o.off,i.trigger=o.trigger;const u=n.svgatorPlayer&&n.svgatorPlayer.ready&&n.svgatorPlayer.ready.call&&n.svgatorPlayer.ready.call();n.svgatorPlayer=s,be.adjustLink(n),be.autoPlay(i,n,r,i._handlers),function(t,e,n){let r;"function"==typeof Event?r=new Event("ready"):(r=document.createEvent("Event"),r.initEvent("ready",!0,!0));if(t.dispatchEvent(r),!n||!n.length)return;n.forEach((t=>e.ready(t)))}(n,n.svgatorPlayer,u)}play(t=true){const e=super.play();return t===we&&this.trigger("play",this.offset),e}pause(t=!1,e=true){const n=super.pause();return e===we&&this.trigger(t?"end":"pause",this.offset),n}restart(){const t=super.restart(!1);return this.trigger("restart",this.offset),t}stop(t=true){const e=super.stop();return t===we&&this.trigger("stop",this.offset),e}_apply(t,e={},n=true){const r=super._apply(t);if(n===we){const e=()=>this.trigger("keyframe",t);window.requestAnimationFrame(e)}return r}seekTo(t){const e=this._running;var n,r,i;e&&this.pause(!1,!1),this.offset=this.iterations>0?(n=t,r=0,i=this.maxFiniteDuration,n<r?r:n>i?i:n):Math.max(t,0),this._apply(this.offset),e&&this.play(!1)}seek(t){return this.seekTo(Math.round(t/100*this.maxFiniteDuration))}seekBy(t){return this.seekTo(this.offset+t)}set(t,e){if(!xe.includes(t))return;const n=this._running;n&&this.pause(!1,!1),this._settings[t]=e,n?this.play(!1):this._apply(this.offset,{},!1)}destruct(){this.stop(),this._handlers.forEach((t=>{t.element?t.element.removeEventListener(t.event,t.handler):t.callback&&t.callback.call&&t.callback.call()}));const t=()=>{},e=Object.getOwnPropertyNames(Object.getPrototypeOf(this));e.push(...Object.getOwnPropertyNames(this)),e.forEach((e=>{"function"==typeof this[e]?this[e]=t:delete this[e]}))}}return Ae.init(),Ae}));
(function(s,i,o,w,d,a,b){(a=Array.from(d.querySelectorAll('svg#' + i.root)).filter(n=> !n.svgatorPlayer)[0]||{}).svgatorPlayer={ready:(function(a){b=[];return function(c){return c?(b.push(c),a.svgatorPlayer):b}})(a)};w[o]=w[o]||{};w[o][s]=w[o][s]||[];w[o][s].push(i);})('91c80d77',{"root":"eD6RYlCr2ZB1","version":"2025-04-07","animations":[{"elements":{"eD6RYlCr2ZB24":{"transform":{"data":{"o":{"x":364.714909,"y":1528.724069,"type":"corner"},"t":{"x":-364.714885,"y":-1528.724067}},"keys":{"r":[{"t":0,"v":0,"e":[0.42,0,0.58,1]},{"t":1000,"v":5,"e":[0.42,0,0.58,1]},{"t":2000,"v":0,"e":[0.42,0,0.58,1]},{"t":3000,"v":5,"e":[0.42,0,0.58,1]},{"t":4000,"v":0,"e":[0.42,0,0.58,1]},{"t":5000,"v":5,"e":[0.42,0,0.58,1]},{"t":6000,"v":0}]}}},"eD6RYlCr2ZB38":{"transform":{"data":{"t":{"x":-482.738537,"y":-1236.879766}},"keys":{"o":[{"t":0,"v":{"x":482.633537,"y":1236.895015,"type":"corner"},"e":[0.42,0,0.58,1]},{"t":1000,"v":{"x":509.103807,"y":1247.330366,"type":"corner"},"e":[0.42,0,0.58,1]},{"t":2000,"v":{"x":482.518127,"y":1236.895015,"type":"corner"},"e":[0.42,0,0.58,1]},{"t":3000,"v":{"x":509.20884,"y":1247.315121,"type":"corner"},"e":[0.42,0,0.58,1]},{"t":4000,"v":{"x":482.552591,"y":1236.815122,"type":"corner"},"e":[0.42,0,0.58,1]},{"t":5000,"v":{"x":509.20884,"y":1247.315122,"type":"corner"},"e":[0.42,0,0.58,1]},{"t":6000,"v":{"x":482.521336,"y":1236.783874,"type":"corner"}}]}}},"eD6RYlCr2ZB43":{"transform":{"data":{"o":{"x":1066.234493,"y":773.310268,"type":"corner"},"t":{"x":-1066.234492,"y":-773.310266}},"keys":{"r":[{"t":0,"v":-10,"e":[0.42,0,0.58,1]},{"t":300,"v":10,"e":[0.42,0,0.58,1]},{"t":600,"v":-10,"e":[0.42,0,0.58,1]},{"t":900,"v":10,"e":[0.42,0,0.58,1]},{"t":1200,"v":-10,"e":[0.42,0,0.58,1]},{"t":1500,"v":10,"e":[0.42,0,0.58,1]},{"t":1800,"v":-10,"e":[0.42,0,0.58,1]},{"t":2100,"v":10,"e":[0.42,0,0.58,1]},{"t":2400,"v":-10,"e":[0.42,0,0.58,1]},{"t":2700,"v":10,"e":[0.42,0,0.58,1]},{"t":3000,"v":-10,"e":[0.42,0,0.58,1]},{"t":3300,"v":10,"e":[0.42,0,0.58,1]},{"t":3600,"v":-10,"e":[0.42,0,0.58,1]},{"t":3900,"v":10,"e":[0.42,0,0.58,1]},{"t":4200,"v":-10,"e":[0.42,0,0.58,1]},{"t":4500,"v":10,"e":[0.42,0,0.58,1]},{"t":4800,"v":-10,"e":[0.42,0,0.58,1]},{"t":5100,"v":10,"e":[0.42,0,0.58,1]},{"t":5400,"v":-10,"e":[0.42,0,0.58,1]},{"t":5700,"v":10,"e":[0.42,0,0.58,1]},{"t":6000,"v":-10}]}}},"eD6RYlCr2ZB49":{"transform":{"data":{"o":{"x":1057.412778,"y":778.138698,"type":"corner"},"t":{"x":-1057.412773,"y":-778.138687}},"keys":{"r":[{"t":0,"v":0,"e":[0.42,0,0.58,1]},{"t":1000,"v":-2,"e":[0.42,0,0.58,1]},{"t":2000,"v":0,"e":[0.42,0,0.58,1]},{"t":3000,"v":-2,"e":[0.42,0,0.58,1]},{"t":4000,"v":0,"e":[0.42,0,0.58,1]},{"t":5000,"v":-2,"e":[0.42,0,0.58,1]},{"t":6000,"v":0}]}}},"eD6RYlCr2ZB62":{"transform":{"data":{"o":{"x":677.484566,"y":1712.541728,"type":"corner"},"t":{"x":-680.077821,"y":-1705.479612}},"keys":{"r":[{"t":0,"v":0,"e":[0.42,0,0.58,1]},{"t":1000,"v":5,"e":[0.42,0,0.58,1]},{"t":2000,"v":0,"e":[0.42,0,0.58,1]},{"t":3000,"v":5,"e":[0.42,0,0.58,1]},{"t":4000,"v":0,"e":[0.42,0,0.58,1]},{"t":5000,"v":5,"e":[0.42,0,0.58,1]},{"t":6000,"v":0}]}}},"eD6RYlCr2ZB76":{"transform":{"data":{"t":{"x":-801.429064,"y":-1412.430155}},"keys":{"o":[{"t":0,"v":{"x":800.530541,"y":1421.487967,"type":"corner"},"e":[0.42,0,0.58,1]},{"t":1000,"v":{"x":825.76549,"y":1434.055862,"type":"corner"},"e":[0.42,0,0.58,1]},{"t":2000,"v":{"x":800.530541,"y":1421.487967,"type":"corner"},"e":[0.42,0,0.58,1]},{"t":3000,"v":{"x":825.76549,"y":1434.055862,"type":"corner"},"e":[0.42,0,0.58,1]},{"t":4000,"v":{"x":800.530541,"y":1421.487967,"type":"corner"},"e":[0.42,0,0.58,1]},{"t":5000,"v":{"x":825.76549,"y":1434.055862,"type":"corner"},"e":[0.42,0,0.58,1]},{"t":6000,"v":{"x":800.530541,"y":1421.487967,"type":"corner"}}],"r":[{"t":0,"v":0,"e":[0.42,0,0.58,1]},{"t":1000,"v":-5,"e":[0.42,0,0.58,1]},{"t":2000,"v":0,"e":[0.42,0,0.58,1]},{"t":3000,"v":-5,"e":[0.42,0,0.58,1]},{"t":4000,"v":0,"e":[0.42,0,0.58,1]},{"t":5000,"v":-5,"e":[0.42,0,0.58,1]},{"t":6000,"v":0}]}}},"eD6RYlCr2ZB97":{"transform":{"data":{"o":{"x":613.201625,"y":1014.599941,"type":"corner"},"t":{"x":-613.201625,"y":-1014.599936}},"keys":{"r":[{"t":0,"v":0,"e":[0.42,0,0.58,1]},{"t":1000,"v":13,"e":[0.42,0,0.58,1]},{"t":2000,"v":0,"e":[0.42,0,0.58,1]},{"t":3000,"v":-13,"e":[0.42,0,0.58,1]},{"t":4000,"v":13,"e":[0.42,0,0.58,1]},{"t":5000,"v":-13,"e":[0.42,0,0.58,1]},{"t":6000,"v":0}]}}},"eD6RYlCr2ZB107":{"transform":{"data":{"o":{"x":685.864902,"y":738.675563,"type":"corner"},"t":{"x":-685.864899,"y":-738.675561}},"keys":{"r":[{"t":0,"v":10,"e":[0.42,0,0.58,1]},{"t":1000,"v":-20,"e":[0.42,0,0.58,1]},{"t":2000,"v":10,"e":[0.42,0,0.58,1]},{"t":3000,"v":20,"e":[0.42,0,0.58,1]},{"t":4000,"v":-20,"e":[0.42,0,0.58,1]},{"t":5000,"v":20,"e":[0.42,0,0.58,1]},{"t":6000,"v":10}]}}},"eD6RYlCr2ZB111":{"opacity":[{"t":0,"v":0.35,"e":[0.42,0,0.58,1]},{"t":1000,"v":1,"e":[0.42,0,0.58,1]},{"t":2000,"v":0.35,"e":[0.42,0,0.58,1]},{"t":3000,"v":1,"e":[0.42,0,0.58,1]},{"t":4000,"v":0.35,"e":[0.42,0,0.58,1]},{"t":5000,"v":1,"e":[0.42,0,0.58,1]},{"t":6000,"v":0.35}]},"eD6RYlCr2ZB118":{"transform":{"data":{"t":{"x":-755.106232,"y":-359.806671}},"keys":{"o":[{"t":0,"v":{"x":713.556546,"y":402.747878,"type":"corner"},"e":[0.42,0,0.58,1]},{"t":1000,"v":{"x":713.556546,"y":372.747878,"type":"corner"},"e":[0.42,0,0.58,1]},{"t":2000,"v":{"x":713.556546,"y":402.747878,"type":"corner"},"e":[0.42,0,0.58,1]},{"t":3000,"v":{"x":713.556546,"y":372.747878,"type":"corner"},"e":[0.42,0,0.58,1]},{"t":4000,"v":{"x":713.556546,"y":402.747878,"type":"corner"},"e":[0.42,0,0.58,1]},{"t":5000,"v":{"x":713.556546,"y":372.747878,"type":"corner"},"e":[0.42,0,0.58,1]},{"t":6000,"v":{"x":713.556546,"y":402.747878,"type":"corner"}}]}}},"eD6RYlCr2ZB120":{"opacity":[{"t":0,"v":0,"e":[0.42,0,0.58,1]},{"t":1500,"v":1,"e":[0.42,0,0.58,1]},{"t":3000,"v":0,"e":[0.42,0,0.58,1]},{"t":4500,"v":1,"e":[0.42,0,0.58,1]},{"t":6000,"v":0}]},"eD6RYlCr2ZB121":{"opacity":[{"t":0,"v":0,"e":[0.42,0,0.58,1]},{"t":1000,"v":1,"e":[0.42,0,0.58,1]},{"t":2000,"v":0,"e":[0.42,0,0.58,1]},{"t":3000,"v":1,"e":[0.42,0,0.58,1]},{"t":4000,"v":0,"e":[0.42,0,0.58,1]},{"t":5000,"v":1,"e":[0.42,0,0.58,1]},{"t":6000,"v":0}]},"eD6RYlCr2ZB122":{"transform":{"data":{"t":{"x":-350.50296,"y":-83.054134}},"keys":{"o":[{"t":1000,"v":{"x":576.962771,"y":247.703951,"type":"cusp","end":{"x":547.678306,"y":231.600388}}},{"t":2000,"v":{"x":483.38528,"y":250.229148,"type":"cusp","start":{"x":500.694541,"y":232.277929}}}],"r":[{"t":1000,"v":31.308925},{"t":1500,"v":16.002613},{"t":2000,"v":-0.459676}]}},"opacity":[{"t":1500,"v":0},{"t":2000,"v":1}]},"eD6RYlCr2ZB123":{"transform":{"data":{"t":{"x":-285.121925,"y":-125.247925}},"keys":{"o":[{"t":500,"v":{"x":592.322175,"y":241.592547,"type":"cusp","end":{"x":526.835617,"y":234.684268}},"e":[0.42,0,0.58,1]},{"t":1500,"v":{"x":418.004245,"y":292.422939,"type":"cusp","start":{"x":438.494019,"y":258.979075}}}],"r":[{"t":500,"v":38.980148,"e":[0.42,0,0.58,1]},{"t":1000,"v":18.009476,"e":[0.42,0,0.58,1]},{"t":1500,"v":-12.380472}]}},"opacity":[{"t":1000,"v":0,"e":[0.42,0,0.58,1]},{"t":1500,"v":1}]},"eD6RYlCr2ZB124":{"transform":{"data":{"t":{"x":-248.322647,"y":-190.388855}},"keys":{"o":[{"t":0,"v":{"x":579.7385,"y":239.331343,"type":"cusp","end":{"x":509.377505,"y":225.980623}},"e":[0.42,0,0.58,1]},{"t":1000,"v":{"x":378.886158,"y":349.677962,"type":"cusp","start":{"x":404.105796,"y":266.61732}}}],"r":[{"t":0,"v":53.879608,"e":[0.42,0,0.58,1]},{"t":500,"v":23.74774,"e":[0.42,0,0.58,1]},{"t":1000,"v":-5.520059}]}},"opacity":[{"t":500,"v":0,"e":[0.42,0,0.58,1]},{"t":1000,"v":1}]}},"s":"MDAA1ZmRhODFjMA2Q0ZDFjMGQzEYzhjZWNkWTgMxOTk5NThmOGBZLOGY4YjgxYXzNjOGQxYzRjXMmQzYzhjZWNHkODE5OTkwOGYI4MWM4ZDNCYTzRkMWMwZDNUHYzhjZWNkZDIP4MTk5OGY4YjAgxYzVUYzhjYFmNiODE5OTkwIOGI4MWMwQWNNiZDNjNGQxY2LRjMGQzYzQ4MFTk5YzVjMGNiXQmQyYzRFOGIT4MWQyY2ZBYzKRjNGMzODE5ORTkwOGRZOTE4SYjgxVWM1Y2ZPkMjgxOTlROTKA4ZjhmSWRj"}],"options":"MDVAxMDgyMjk3YNTdiNjg3OTdiJMjk0MTI5NzMA3NjY4NmIyOTYg0"},'__SVGATOR_PLAYER__',window,document)
]]></script>
</svg>
