<svg id="Layer_1" data-name="Layer 1" xmlns="http://www.w3.org/2000/svg" viewBox="0 0 480.79 447.34"><defs><style>.cls-1{fill:#1565c0;}.cls-2{fill:#ffc14f;}.cls-3{fill:#fff04a;}.cls-4{fill:#76b6fa;}.cls-5{fill:#55a4f9;}.cls-6{fill:#fff5f5;}.cls-7{fill:#1380e2;}.cls-8{fill:#fcfcfc;}.cls-9{fill:#f29500;}.cls-10{fill:#c8e2fd;}.cls-11{fill:#86befb;}.cls-12{fill:#a7d0fc;}.cls-13{fill:#5db33a;}.cls-14{fill:#6dc54a;}</style></defs><rect class="cls-1" y="28.62" width="480.79" height="401.8" rx="9.44"/><path class="cls-2" d="M73.32,346.11V185.85a17.17,17.17,0,0,1,17.17-17.17H293.11a17.17,17.17,0,0,1,17.17,17.17V346.11a17.17,17.17,0,0,1-17.17,17.17H90.49A17.17,17.17,0,0,1,73.32,346.11Z" transform="translate(-16.08 -51.92)"/><path class="cls-3" d="M182.66,266a97.3,97.3,0,0,1,97.3-97.3h165.4a17.17,17.17,0,0,1,17.17,17.17V346.11a17.16,17.16,0,0,1-17.17,17.17H280A97.3,97.3,0,0,1,182.66,266Z" transform="translate(-16.08 -51.92)"/><path class="cls-4" d="M496.88,74.81v57.24H16.08V74.81A22.89,22.89,0,0,1,39,51.92H474A22.89,22.89,0,0,1,496.88,74.81Z" transform="translate(-16.08 -51.92)"/><path class="cls-5" d="M73.32,51.92A22.89,22.89,0,0,0,50.43,74.81v57.24H16.08V74.81A22.89,22.89,0,0,1,39,51.92Z" transform="translate(-16.08 -51.92)"/><path class="cls-6" d="M158,92a11.45,11.45,0,0,1,11.45-11.45H467.11a11.45,11.45,0,0,1,0,22.9H169.48A11.45,11.45,0,0,1,158,92Z" transform="translate(-16.08 -51.92)"/><path class="cls-7" d="M55,92A11.45,11.45,0,1,1,43.56,80.53,11.45,11.45,0,0,1,55,92ZM83.62,80.53A11.45,11.45,0,1,0,95.07,92,11.45,11.45,0,0,0,83.62,80.53Zm40.07,0A11.45,11.45,0,1,0,135.14,92,11.45,11.45,0,0,0,123.69,80.53Z" transform="translate(-16.08 -51.92)"/><path class="cls-8" d="M151.16,420.52a27.47,27.47,0,1,1-27.47-27.47A27.47,27.47,0,0,1,151.16,420.52ZM277.94,396.2h-93a8.59,8.59,0,0,0,0,17.17h93a8.59,8.59,0,1,0,0-17.17Zm-41.49,31.48H184.93a8.59,8.59,0,0,0,0,17.17h51.52a8.59,8.59,0,0,0,0-17.17Z" transform="translate(-16.08 -51.92)"/><path class="cls-9" d="M176.35,297.46a8.6,8.6,0,0,1-8.59,8.59H116.25a8.59,8.59,0,1,1,0-17.17h51.51A8.59,8.59,0,0,1,176.35,297.46Zm-60.1-60.1h97.3a8.59,8.59,0,1,0,0-17.17h-97.3a8.59,8.59,0,1,0,0,17.17Zm97.3,17.17h-97.3a8.59,8.59,0,0,0,0,17.18h97.3a8.59,8.59,0,0,0,0-17.18Z" transform="translate(-16.08 -51.92)"/><path class="cls-10" d="M349.67,499.25H327.51A41.27,41.27,0,0,1,286.24,458V388.78a41.27,41.27,0,0,1,41.27-41.27h22.16a41.27,41.27,0,0,1,41.27,41.27V458A41.26,41.26,0,0,1,349.67,499.25Z" transform="translate(-16.08 -51.92)"/><path class="cls-6" d="M354.87,499.25h-8A41.26,41.26,0,0,1,305.64,458V388.78a41.27,41.27,0,0,1,41.26-41.27h8a41.27,41.27,0,0,1,41.27,41.27V458A41.27,41.27,0,0,1,354.87,499.25Z" transform="translate(-16.08 -51.92)"/><path class="cls-11" d="M331,398.94V368.47a10.16,10.16,0,1,1,20.32,0v30.47a10.16,10.16,0,0,1-20.32,0Z" transform="translate(-16.08 -51.92)"/><path class="cls-12" d="M331,379.89V368.47a10.16,10.16,0,1,1,20.32,0v11.42a10.16,10.16,0,1,1-20.32,0Z" transform="translate(-16.08 -51.92)"/><path class="cls-13" d="M284,184.79h82.5a45.79,45.79,0,0,1,45.79,45.79v33.3a45.79,45.79,0,0,1-45.79,45.79H284a45.8,45.8,0,0,1-45.79-45.79v-33.3A45.8,45.8,0,0,1,284,184.79Z" transform="translate(-16.08 -51.92)"/><path class="cls-14" d="M332,184.79h82.49a45.79,45.79,0,0,1,45.79,45.79v33.3a45.79,45.79,0,0,1-45.79,45.79H332a45.79,45.79,0,0,1-45.79-45.79v-33.3A45.79,45.79,0,0,1,332,184.79Z" transform="translate(-16.08 -51.92)"/><path class="cls-6" d="M420.77,243.18a5.72,5.72,0,0,1,0,8.1L394.35,277.7a5.72,5.72,0,0,1-8.09-8.09L402.91,253H278.23a5.73,5.73,0,0,1,0-11.45H402.91l-16.66-16.65a5.72,5.72,0,0,1,8.1-8.09ZM205.58,169.05a5.72,5.72,0,0,0-8.09,8.09l16.18,16.19a5.72,5.72,0,1,0,8.1-8.09Zm7.4,37.41H190.09a5.72,5.72,0,1,0,0,11.44H213a5.72,5.72,0,0,0,0-11.44Zm22.89-57.24a5.72,5.72,0,0,0-5.72,5.72v22.9a5.73,5.73,0,0,0,11.45,0v-22.9A5.72,5.72,0,0,0,235.87,149.22Zm230.55,171.1a5.72,5.72,0,0,0-8.1,8.09l16.19,16.19a5.73,5.73,0,0,0,8.1-8.1ZM490,295.74h-22.9a5.73,5.73,0,0,0,0,11.45H490a5.73,5.73,0,0,0,0-11.45Zm-45.79,34.35a5.73,5.73,0,0,0-5.73,5.72v22.9a5.73,5.73,0,0,0,11.45,0v-22.9A5.72,5.72,0,0,0,444.22,330.09Z" transform="translate(-16.08 -51.92)"/></svg>