<svg clip-rule="evenodd" fill-rule="evenodd" height="512" image-rendering="optimizeQuality" shape-rendering="geometricPrecision" text-rendering="geometricPrecision" viewBox="0 0 850 850" width="512" xmlns="http://www.w3.org/2000/svg" xmlns:xlink="http://www.w3.org/1999/xlink"><linearGradient id="id0" gradientUnits="userSpaceOnUse" x1="425" x2="425" y1="850" y2="0"><stop offset="0" stop-color="#1aa8dc"/><stop offset=".490196" stop-color="#ae3b89"/><stop offset="1" stop-color="#f26270"/></linearGradient><g id="Layer_x0020_1"><circle cx="425" cy="425" fill="url(#id0)" r="425"/><g id="_476486776"><g><g><path d="m292 672c-21 0-42-6-61-17-26-15-45-38-55-67 0 0 0 0 0-1-1 0-1-2-1-3-4-12-6-24-6-37 0-25 6-47 17-63l134-191c2-3 6-4 10-1 3 2 4 6 1 10l-133 190c-10 14-14 33-14 55 0 12 1 23 5 33 0 1 1 1 1 2 8 26 26 47 49 60 17 10 36 15 55 15h263c20 0 38-5 55-15 23-12 40-34 49-59 0-1 1-1 1-1 0-1 0-1 0-1 3-11 5-23 5-34 0-22-5-40-14-54l-134-190c-3-4-2-8 1-10 4-3 8-2 10 1l134 191c11 16 17 37 17 62 0 13-2 25-6 38 0 0 0 1-1 2-10 29-30 53-56 68-18 12-40 17-62 17h-262c-1 0-1 0-2 0z" fill="#fff"/></g><g><path d="m525 305h-200c-3 0-5-1-7-4l-51-113c-1-2-1-5 0-7s4-3 6-3h304c2 0 5 1 6 3s2 5 0 7l-51 113c-2 3-4 4-7 4zm-195-14h190l45-98h-280z" fill="#fff"/></g><g><g><path d="m425 628c-4 0-7-3-7-7v-252c0-4 3-8 7-8s8 4 8 8v252c0 4-4 7-8 7z" fill="#fff"/></g><g><path d="m425 593c-19 0-36-10-45-26-2-4-1-8 2-10s8-1 10 2c7 12 20 19 33 19 21 0 38-17 38-38s-17-38-38-38c-29 0-52-24-52-52 0-29 23-53 52-53 19 0 36 10 45 26 2 4 1 8-2 10s-8 1-10-2c-7-12-20-19-33-19-21 0-38 17-38 38s17 37 38 37c29 0 52 24 52 53s-23 53-52 53z" fill="#fff"/></g></g><g><path d="m647 389c-2 0-5-1-6-3-43-60-113-79-114-79-3-1-6-5-5-9 1-3 5-6 9-5 3 1 76 21 121 85 3 4 2 8-1 10-1 1-3 1-4 1z" fill="#fff"/></g><g><path d="m640 420c-2 0-4-2-5-3-44-62-109-111-110-112-3-2-4-7-1-10 2-3 7-4 10-1 3 2 68 51 113 114 2 4 1 8-2 10-2 1-3 2-5 2z" fill="#fff"/></g></g></g></g></svg>