<svg width="30" height="29" viewBox="0 0 30 29" fill="none" xmlns="http://www.w3.org/2000/svg">
<path d="M15.0354 6.62378C10.565 6.62378 6.93555 10.2532 6.93555 14.7236C6.93555 17.6006 8.44044 20.2563 10.9191 21.7169V26.63C10.9191 27.7365 11.8043 28.6217 12.9108 28.6217H17.2042C18.3107 28.6217 19.196 27.7365 19.196 26.63V21.6727C21.6746 20.212 23.1795 17.6006 23.1795 14.6794C23.1352 10.2532 19.5058 6.62378 15.0354 6.62378ZM17.3812 24.1513H12.6895V23.2661H17.3812V24.1513ZM17.1599 26.807H12.8666C12.7781 26.807 12.6453 26.7185 12.6453 26.5857V25.9218H17.337V26.5857C17.3812 26.7185 17.2927 26.807 17.1599 26.807ZM17.8681 20.3891L17.3812 20.6547V21.5399H12.6895V20.6547L12.2027 20.3891C10.0338 19.3268 8.706 17.158 8.706 14.7236C8.706 11.227 11.5387 8.39424 15.0354 8.39424C18.532 8.39424 21.3648 11.227 21.3648 14.7236C21.3648 17.1137 20.0369 19.2826 17.8681 20.3891Z" fill="#007BFF"/>
<path d="M15.0356 5.33988C15.5225 5.33988 15.9208 4.94153 15.9208 4.45465V1.40061C15.9208 0.913734 15.5225 0.515381 15.0356 0.515381C14.5487 0.515381 14.1504 0.913734 14.1504 1.40061V4.45465C14.1504 4.94153 14.5487 5.33988 15.0356 5.33988Z" fill="#007BFF"/>
<path d="M28.3572 13.7498H25.3032C24.8163 13.7498 24.418 14.1481 24.418 14.635C24.418 15.1219 24.8163 15.5202 25.3032 15.5202H28.3572C28.8441 15.5202 29.2425 15.1219 29.2425 14.635C29.2425 14.1481 28.8441 13.7498 28.3572 13.7498Z" fill="#007BFF"/>
<path d="M4.76544 13.7498H1.7114C1.22452 13.7498 0.826172 14.1481 0.826172 14.635C0.826172 15.1219 1.22452 15.5202 1.7114 15.5202H4.76544C5.25232 15.5202 5.65067 15.1219 5.65067 14.635C5.65067 14.1481 5.25232 13.7498 4.76544 13.7498Z" fill="#007BFF"/>
<path d="M7.24401 6.00396L5.0752 3.83515C4.72111 3.48106 4.18997 3.48106 3.83588 3.83515C3.48179 4.18924 3.48179 4.72038 3.83588 5.07447L6.00469 7.24328C6.18174 7.42033 6.40304 7.50885 6.62435 7.50885C6.84566 7.50885 7.06697 7.42033 7.24401 7.24328C7.5981 6.88919 7.5981 6.35805 7.24401 6.00396Z" fill="#007BFF"/>
<path d="M26.2342 3.83515C25.8802 3.48106 25.349 3.48106 24.9949 3.83515L22.8261 6.00396C22.472 6.35805 22.472 6.88919 22.8261 7.24328C23.0032 7.42033 23.2245 7.50885 23.4458 7.50885C23.6671 7.50885 23.8884 7.42033 24.0654 7.24328L26.2342 5.07447C26.5883 4.72038 26.5883 4.18924 26.2342 3.83515Z" fill="#007BFF"/>
</svg>
