<svg width="115" height="115" viewBox="0 0 115 115" fill="none" xmlns="http://www.w3.org/2000/svg">
<circle cx="57.8159" cy="57.8931" r="57.1069" fill="#DCE9FE"/>
<path d="M57.0075 83.2688V95.456H44.8203H69.1947" stroke="#222222" stroke-width="5" stroke-linecap="round" stroke-linejoin="round"/>
<rect x="43.3828" y="25.8474" width="27.1631" height="45.2341" rx="10.3608" fill="#0276FF"/>
<path d="M61.0699 27.0887C59.7993 26.6396 58.4319 26.3953 57.0075 26.3953C50.2767 26.3953 44.8203 31.8517 44.8203 38.5825V58.8944C44.8203 65.6252 50.2767 71.0816 57.0075 71.0816C62.3139 71.0816 68.5012 68.7384 68.5012 58.8944V51.2484" stroke="#222222" stroke-width="5" stroke-linecap="round"/>
<path d="M27.555 27.1027C27.904 26.1594 29.2382 26.1594 29.5872 27.1027C30.6846 30.0683 33.0228 32.4066 35.9884 33.5039C36.9317 33.853 36.9317 35.1871 35.9884 35.5362C33.0228 36.6336 30.6846 38.9718 29.5872 41.9374C29.2382 42.8807 27.904 42.8807 27.555 41.9374C26.4576 38.9718 24.1194 36.6336 21.1537 35.5362C20.2105 35.1871 20.2105 33.853 21.1537 33.5039C24.1194 32.4066 26.4576 30.0683 27.555 27.1027Z" fill="#222222"/>
<path d="M32.6338 58.8945C32.6338 72.3561 43.5466 83.2689 57.0082 83.2689C67.6209 83.2689 76.6495 76.4863 79.9956 67.0193" stroke="#222222" stroke-width="5" stroke-linecap="round"/>
<path d="M78.9951 23.875C81.4964 29.5108 86.004 34.018 91.6396 36.5195C86.0041 39.0209 81.4965 43.5285 78.9951 49.1641C76.4935 43.5284 71.9864 39.0208 66.3506 36.5195C71.9865 34.0181 76.4937 29.5109 78.9951 23.875Z" fill="#FFD500" stroke="black" stroke-width="5" stroke-linejoin="round"/>
</svg>
