<svg width="38" height="38" viewBox="0 0 38 38" fill="none" xmlns="http://www.w3.org/2000/svg">
<circle cx="19.3013" cy="19.2612" r="18.0245" fill="#0276FF" stroke="#0276FF" stroke-width="1.2"/>
<path d="M9.55609 23.2703C9.09371 20.7504 10.346 17.1535 11.0299 15.6701C10.6251 13.7823 11.0879 12.1535 11.3699 11.5751C12.2167 10.0974 12.9818 8.21799 13.2586 7.463C14.0223 5.38537 15.5692 7.99661 16.2472 9.56193C16.6125 10.94 17.1881 11.1185 17.4302 11.0355C18.4762 10.8196 20.5364 10.9456 21.4358 11.0355C21.9837 11.0023 22.4173 9.94941 22.5657 9.42712C23.1996 7.92473 24.6525 5.42857 25.3923 7.463C26.317 10.006 27.2996 10.9308 27.6753 12.0867C27.9758 13.0114 27.8005 14.8609 27.6753 15.6701C28.1665 16.1324 29.412 20.1493 29.0941 23.2703M9.55609 23.2703C10.1341 26.4202 13.1693 32.028 19.3526 31.8241C27.2418 31.564 28.8052 24.484 29.0941 23.2703M9.55609 23.2703C9.86322 22.6096 10.7763 21.0557 11.6397 20.7901C12.7189 20.458 12.885 19.0259 12.6774 18.5901M29.0941 23.2703C28.6168 22.2014 27.4545 21.1636 26.6659 20.7901C26.2162 20.6171 25.7942 19.9497 25.7942 18.5901C25.7942 16.9297 24.3004 15.5496 22.5657 15.5392C20.8199 15.5287 19.5471 16.1992 19.2981 18.5901C19.1182 17.6285 18.4679 15.6701 16.1019 15.5392C14.5005 15.4506 13.1963 16.7568 13.0718 17.4486M15.0019 19.1712C15.2233 18.7492 15.9068 18.0961 16.8698 18.8599M23.6986 19.1712C23.4772 18.7492 22.7937 18.0961 21.8307 18.8599M14.8566 22.9693C15.0252 24.239 15.6352 26.3288 16.8698 26.8059M23.6986 22.9693C23.5243 25.3586 22.6589 26.3374 21.8307 26.6512M19.2981 25.3768L19.3526 28.0748M16.8698 26.8059C17.2564 26.9553 17.7042 26.9465 18.2189 26.7051L19.2981 26.2069L20.6679 26.7051C20.9764 26.7976 21.3985 26.8149 21.8307 26.6512M16.8698 26.8059C16.8767 28.3773 17.3357 31.1413 19.2981 31.2088C21.3331 31.2787 21.789 28.0666 21.8307 26.6512M24.1397 9.79949L23.3184 11.4823C23.2466 11.6366 23.2062 12.0016 23.6184 12.227C24.0306 12.4524 25.0185 13.1103 25.461 13.4111C25.6206 13.5141 25.9306 13.581 25.8935 13.0248C25.8472 12.3296 25.7391 11.5881 25.3296 11.1246C25.0021 10.7538 24.8481 10.2491 24.8121 10.0431C24.8121 9.88864 24.4052 9.36975 24.1397 9.79949ZM14.5719 9.79949L15.3932 11.4823C15.4649 11.6366 15.5054 12.0016 15.0932 12.227C14.681 12.4524 13.6931 13.1103 13.2506 13.4111C13.091 13.5141 12.781 13.581 12.818 13.0248C12.8644 12.3296 12.9725 11.5881 13.3819 11.1246C13.7095 10.7538 13.8634 10.2491 13.8995 10.0431C13.8995 9.88864 14.3064 9.36975 14.5719 9.79949ZM18.6062 22.9693H20.0588C20.2676 22.9569 20.7395 23.1002 20.956 23.7724V24.456C20.9038 24.7313 20.6313 25.3275 19.9591 25.5098H18.7059C18.4543 25.4149 17.9083 25.0712 17.7375 24.456V23.7724C17.8182 23.5047 18.1049 22.9693 18.6062 22.9693Z" stroke="white" stroke-linecap="round" stroke-linejoin="round"/>
</svg>
