<svg width="104" height="49" viewBox="0 0 104 49" fill="none" xmlns="http://www.w3.org/2000/svg">
<path d="M21.184 38.8053C19.4425 38.8053 17.9128 38.5464 16.5949 38.0287C15.277 37.5345 14.2533 36.7225 13.5238 35.5929C12.7942 34.4633 12.4295 32.9572 12.4295 31.0745C12.4295 29.1918 12.7354 27.3562 13.3473 25.5676C13.9827 23.7555 14.8534 22.0729 15.9595 20.5197C17.0656 18.9664 18.3599 17.6015 19.8426 16.4248C21.3487 15.2481 22.9725 14.3303 24.714 13.6714C26.4555 13.0124 28.2676 12.683 30.1503 12.683C32.2448 12.683 33.9509 13.036 35.2688 13.742C36.5867 14.448 37.5516 15.4129 38.1635 16.6366C38.7989 17.8368 39.1166 19.19 39.1166 20.6962C39.1166 22.6965 38.6341 24.791 37.6693 26.9796C36.6808 29.2153 35.3865 31.2275 33.7862 33.016C32.1859 34.8046 30.315 36.2166 28.1734 37.2521C26.0554 38.2875 23.7256 38.8053 21.184 38.8053ZM24.3963 36.9344C25.7848 36.5578 27.1497 35.8636 28.4911 34.8516C29.8326 33.8397 31.0445 32.6277 32.1271 31.2157C33.2096 29.8037 34.0686 28.3211 34.704 26.7678C35.6924 24.3909 36.1866 22.1553 36.1866 20.0608C36.1866 19.7313 36.1631 19.4136 36.116 19.1077C36.0925 18.8017 36.0572 18.5075 36.0101 18.2251C35.7513 16.7896 35.1512 15.7776 34.2098 15.1893C33.2685 14.601 32.2095 14.3068 31.0328 14.3068C29.809 14.3068 28.5618 14.5539 27.2909 15.0481C26.0201 15.5188 24.9258 16.1071 24.008 16.8131C22.8784 17.7074 21.8311 18.7311 20.8663 19.8843C19.9014 21.0374 19.0895 22.2612 18.4305 23.5555C17.8657 24.6851 17.4068 25.9206 17.0538 27.262C16.7243 28.5799 16.5596 29.8625 16.5596 31.1098C16.5596 32.2394 16.7243 33.2749 17.0538 34.2162C17.3833 35.1576 17.9246 35.9224 18.6776 36.5107C19.4307 37.0756 20.4309 37.358 21.6782 37.358C22.4783 37.358 23.3844 37.2168 24.3963 36.9344ZM40.5711 37.8875C39.9121 37.8875 39.4179 37.6521 39.0884 37.1815C38.759 36.6872 38.5942 36.0283 38.5942 35.2046C38.5942 35.087 38.5942 34.9693 38.5942 34.8516C38.5942 34.734 38.606 34.6163 38.6295 34.4986C38.7472 33.6043 38.9472 32.5924 39.2296 31.4628C39.5356 30.3332 39.8886 29.1447 40.2887 27.8974C40.524 27.1914 40.8182 26.3089 41.1712 25.2499C41.5477 24.1674 41.9831 23.0142 42.4773 21.7905C42.9715 20.5432 43.5128 19.3077 44.1011 18.0839C44.713 16.8602 45.3837 15.7541 46.1132 14.7657C46.8428 13.7538 47.6076 12.9418 48.4077 12.33C49.2314 11.7181 50.1022 11.4122 51.02 11.4122C51.773 11.4122 52.2908 11.6004 52.5732 11.977C52.8556 12.33 52.9968 12.7536 52.9968 13.2478C52.9968 13.7655 52.9027 14.295 52.7144 14.8363C52.5261 15.354 52.3379 15.7894 52.1496 16.1424C51.726 16.9896 51.1729 17.9427 50.4905 19.0017C49.808 20.0608 49.0902 21.0492 48.3371 21.967C47.89 22.5553 47.337 23.2143 46.678 23.9438C46.0191 24.6733 45.3954 25.3441 44.8071 25.9559C44.2423 26.5678 43.8305 26.9914 43.5716 27.2267L43.0068 28.8506C42.842 29.2977 42.6773 29.8272 42.5126 30.4391C42.3714 31.051 42.2419 31.6628 42.1243 32.2747C42.0301 32.863 41.9478 33.3808 41.8772 33.8279C41.8536 33.9221 41.8419 34.0162 41.8419 34.1103C41.8419 34.2045 41.8419 34.2868 41.8419 34.3574C41.8419 35.0634 42.1125 35.4164 42.6538 35.4164C42.9832 35.4164 43.3951 35.2635 43.8893 34.9575C44.36 34.6751 44.8071 34.3104 45.2307 33.8632C45.6778 33.3925 45.9955 33.0395 46.1838 32.8042C46.6545 32.1923 47.1016 31.5452 47.5252 30.8627C47.9488 30.1567 48.3136 29.5095 48.6195 28.9212C48.7372 28.7329 48.8196 28.6388 48.8666 28.6388C49.0078 28.6388 49.0785 28.8388 49.0785 29.2389C49.0785 29.4271 49.0431 29.6507 48.9725 29.9096C48.9255 30.1449 48.8431 30.3685 48.7254 30.5803C48.396 31.1451 48.0077 31.7687 47.5605 32.4512C47.1134 33.1337 46.6545 33.7926 46.1838 34.428C45.8308 34.8987 45.3366 35.4047 44.7012 35.9459C44.0658 36.4872 43.3833 36.9461 42.6538 37.3227C41.9242 37.6992 41.23 37.8875 40.5711 37.8875ZM44.2776 25.2146C45.4543 23.8261 46.6427 22.3435 47.8429 20.7668C49.0667 19.1665 50.0786 17.5427 50.8788 15.8953C50.9258 15.7776 51.0317 15.5423 51.1965 15.1893C51.3612 14.8363 51.5142 14.448 51.6554 14.0244C51.7966 13.5773 51.8672 13.2007 51.8672 12.8948C51.8672 12.4947 51.7142 12.2947 51.4083 12.2947H51.1612C50.8552 12.2947 50.4905 12.5065 50.0669 12.9301C49.6668 13.3537 49.255 13.9185 48.8313 14.6245C48.2901 15.5188 47.7606 16.5543 47.2428 17.7309C46.7251 18.8841 46.2191 20.1078 45.7249 21.4022C45.2307 22.6965 44.7483 23.9673 44.2776 25.2146ZM55.1526 20.7315C54.5407 20.5197 54.2348 20.1196 54.2348 19.5313C54.2348 18.99 54.4466 18.4369 54.8702 17.8721C55.3173 17.2838 55.7998 16.9073 56.3175 16.7425C56.4352 16.6955 56.5293 16.6719 56.5999 16.6719C56.6941 16.6719 56.7882 16.6719 56.8823 16.6719C57.2824 16.6719 57.6119 16.7896 57.8707 17.0249C58.1296 17.2603 58.259 17.5309 58.259 17.8368C58.259 18.2604 58.0355 18.6134 57.5883 18.8958C57.2353 18.8488 56.8941 18.9311 56.5646 19.143C56.2351 19.3548 55.941 19.6136 55.6821 19.9196C55.4468 20.2255 55.2703 20.4961 55.1526 20.7315ZM49.0809 37.8875C48.775 37.8875 48.4808 37.8169 48.1984 37.6757C47.916 37.558 47.6807 37.3109 47.4924 36.9344C47.2335 36.3695 47.1041 35.6988 47.1041 34.9222C47.1041 34.075 47.2335 33.1337 47.4924 32.0982C47.7513 31.0392 48.0925 29.9566 48.5161 28.8506C48.6809 28.4505 48.8927 27.9563 49.1515 27.3679C49.4104 26.7796 49.7163 26.1913 50.0693 25.6029C50.4223 25.0146 50.8224 24.5321 51.2696 24.1556C51.7402 23.7555 52.2462 23.5555 52.7875 23.5555C53.0463 23.5555 53.4111 23.5673 53.8818 23.5908C54.3525 23.6143 54.6937 23.6143 54.9055 23.5908C54.7643 23.6849 54.5996 23.8732 54.4113 24.1556C54.223 24.438 54.0465 24.7322 53.8818 25.0381C53.7171 25.3205 53.5876 25.5441 53.4935 25.7088C52.8816 26.9326 52.305 28.1446 51.7638 29.3448C51.2225 30.545 50.8107 31.6981 50.5282 32.8042C50.4812 32.9925 50.4459 33.1807 50.4223 33.369C50.3988 33.5573 50.387 33.7338 50.387 33.8985C50.387 34.581 50.6106 34.9222 51.0578 34.9222C51.246 34.9222 51.4461 34.8752 51.6579 34.781C51.8932 34.6634 52.1638 34.4869 52.4698 34.2515C53.011 33.8279 53.4817 33.3455 53.8818 32.8042C54.3525 32.1923 54.7996 31.5452 55.2232 30.8627C55.6468 30.1567 56.0116 29.5095 56.3175 28.9212C56.4352 28.7329 56.5175 28.6388 56.5646 28.6388C56.7058 28.6388 56.7764 28.8388 56.7764 29.2389C56.7764 29.4271 56.7411 29.6507 56.6705 29.9096C56.6234 30.1449 56.5411 30.3685 56.4234 30.5803C56.0939 31.1451 55.7056 31.7687 55.2585 32.4512C54.8114 33.1337 54.3525 33.7926 53.8818 34.428C53.5523 34.8752 53.1169 35.3694 52.5757 35.9106C52.0344 36.4519 51.4578 36.9226 50.846 37.3227C50.2341 37.6992 49.6457 37.8875 49.0809 37.8875ZM56.6986 37.9228C56.0868 37.9228 55.5926 37.5933 55.216 36.9344C54.8395 36.2754 54.6983 35.4047 54.7924 34.3221C54.8395 33.6396 54.9925 32.7807 55.2513 31.7452C55.5337 30.6862 55.8867 29.6272 56.3103 28.5682C56.7339 27.4856 57.1811 26.5678 57.6518 25.8147C58.2636 24.8498 58.9461 24.2262 59.6992 23.9438C60.4758 23.6614 61.4407 23.5202 62.5938 23.5202C62.6879 23.5202 62.735 23.5673 62.735 23.6614C62.735 23.7555 62.6644 23.8732 62.5232 24.0144C62.1937 24.2968 61.8054 24.8145 61.3583 25.5676C60.9112 26.3207 60.4758 27.1444 60.0522 28.0387C59.6521 28.9329 59.2991 29.7566 58.9932 30.5097C58.7578 31.1216 58.5343 31.757 58.3225 32.4159C58.1342 33.0748 58.0401 33.6632 58.0401 34.1809C58.0401 34.6045 58.1224 34.9458 58.2872 35.2046C58.4754 35.4635 58.7931 35.5929 59.2403 35.5929C59.7109 35.5694 60.2287 35.2282 60.7935 34.5692C61.3583 33.9103 61.8996 33.0984 62.4173 32.1335C62.935 31.1686 63.3587 30.2273 63.6881 29.3095C63.6411 29.0506 63.594 28.78 63.5469 28.4976C63.5234 28.2152 63.5116 27.921 63.5116 27.615C63.5116 27.1914 63.5469 26.7561 63.6175 26.3089C63.7117 25.8383 63.8411 25.3794 64.0058 24.9322C64.3118 24.1556 64.7354 23.6967 65.2766 23.5555C65.3708 23.532 65.4531 23.5202 65.5237 23.5202C65.6179 23.4967 65.712 23.4849 65.8061 23.4849C66.2533 23.4849 66.5475 23.6496 66.6887 23.9791C66.8534 24.285 66.9358 24.6498 66.9358 25.0734C66.9358 25.497 66.8887 25.9206 66.7946 26.3442C66.7004 26.7443 66.6181 27.0502 66.5475 27.262C66.3827 27.7092 66.1945 28.1446 65.9827 28.5682C65.7708 28.9682 65.559 29.3683 65.3472 29.7684C65.3943 30.4979 65.5826 31.0627 65.9121 31.4628C66.2651 31.8629 66.6769 32.0629 67.1476 32.0629C67.7359 32.0629 68.3242 31.804 68.9126 31.2863C69.2421 31.0039 69.5362 30.6509 69.7951 30.2273C70.0775 29.7801 70.3246 29.3683 70.5364 28.9918C70.6541 28.78 70.7364 28.7329 70.7835 28.8506C70.8306 28.9682 70.8541 29.1565 70.8541 29.4154C70.8541 29.6272 70.8306 29.8625 70.7835 30.1214C70.76 30.3567 70.7011 30.545 70.607 30.6862C70.2775 31.2745 69.901 31.7687 69.4774 32.1688C69.0538 32.5453 68.6066 32.8277 68.136 33.016C67.7594 33.1572 67.3711 33.2278 66.9711 33.2278C66.4298 33.2278 65.9238 33.0748 65.4531 32.7689C65.006 32.4394 64.653 31.9452 64.3941 31.2863C63.8999 32.0158 63.441 32.6865 63.0174 33.2984C62.6173 33.8867 62.3114 34.3104 62.0996 34.5692C61.3936 35.4635 60.5817 36.2519 59.6639 36.9344C58.7696 37.5933 57.7812 37.9228 56.6986 37.9228ZM76.1927 37.1815C75.1102 37.7463 73.9688 38.0287 72.7686 38.0287C71.7567 38.0287 70.8153 37.7816 69.9446 37.2874C69.0738 36.7931 68.4855 36.0048 68.1795 34.9222C68.0383 34.428 67.9677 33.9103 67.9677 33.369C67.9677 32.4747 68.1207 31.5569 68.4267 30.6156C68.7561 29.6507 69.1797 28.7682 69.6975 27.9681C70.4976 26.7208 71.5096 25.6853 72.7333 24.8616C73.957 24.0379 75.3102 23.6261 76.7928 23.6261C77.8989 23.6261 78.7579 23.9085 79.3698 24.4733C79.9816 25.0381 80.2876 25.6971 80.2876 26.4501C80.2876 27.3444 79.9816 28.1328 79.3698 28.8153C78.7814 29.4742 78.0048 29.9802 77.0399 30.3332C76.5693 30.4979 76.0633 30.6273 75.522 30.7215C75.0043 30.7921 74.5101 30.8274 74.0394 30.8274C73.0745 30.8274 72.3332 30.6979 71.8155 30.4391C71.3684 31.5922 71.1448 32.6512 71.1448 33.6161C71.1448 34.4869 71.3448 35.2046 71.7449 35.7694C72.145 36.3107 72.7804 36.5813 73.6511 36.5813C74.3807 36.5813 75.0984 36.3813 75.8044 35.9812C76.534 35.5812 77.2047 35.087 77.8166 34.4986C78.452 33.9103 78.9815 33.3455 79.4051 32.8042C79.7345 32.4041 80.0169 32.0276 80.2523 31.6746C80.4876 31.3216 80.7347 30.9215 80.9936 30.4744C81.2525 30.0037 81.5584 29.4271 81.9114 28.7447C82.0055 28.5799 82.0879 28.4976 82.1585 28.4976C82.2997 28.4976 82.3703 28.6858 82.3703 29.0624C82.3703 29.2742 82.335 29.5095 82.2644 29.7684C82.2173 30.0037 82.1232 30.2508 81.982 30.5097C81.6525 31.098 81.2525 31.7452 80.7818 32.4512C80.3347 33.1337 79.8757 33.7926 79.4051 34.428C78.9815 34.9928 78.499 35.5106 77.9578 35.9812C77.4165 36.4519 76.8281 36.852 76.1927 37.1815ZM72.9804 29.6625C73.0981 29.7331 73.2275 29.7801 73.3687 29.8037C73.5099 29.8272 73.6511 29.839 73.7923 29.839C74.263 29.839 74.7337 29.7331 75.2043 29.5213C75.675 29.2859 76.0751 29.0506 76.4045 28.8153C76.9458 28.4387 77.4047 27.9916 77.7813 27.4738C78.1578 26.9561 78.3696 26.3678 78.4167 25.7088C78.4402 25.4264 78.3696 25.1911 78.2049 25.0028C78.0637 24.791 77.8048 24.6851 77.4283 24.6851C77.24 24.6851 77.0046 24.7204 76.7222 24.791C76.3457 24.8851 75.9692 25.0617 75.5926 25.3205C75.2161 25.5794 74.8513 25.8853 74.4983 26.2383C74.3807 26.356 74.1688 26.5913 73.8629 26.9443C73.5805 27.2738 73.3099 27.6503 73.051 28.074C72.7921 28.474 72.6627 28.827 72.6627 29.133C72.6627 29.3918 72.7686 29.5683 72.9804 29.6625ZM86.4439 37.9228C85.6908 37.9228 85.1496 37.6051 84.8201 36.9697C84.5612 36.4048 84.4318 35.7341 84.4318 34.9575C84.4318 34.0868 84.5612 33.1219 84.8201 32.0629C85.079 31.0039 85.432 29.9213 85.8791 28.8153C86.0438 28.4152 86.2556 27.9092 86.5145 27.2973C86.7969 26.6855 87.1264 26.0854 87.5029 25.497C87.1735 25.7794 86.7852 26.0148 86.338 26.203C85.8909 26.3678 85.4555 26.4501 85.0319 26.4501C84.7024 26.4501 84.4318 26.4031 84.22 26.3089C84.0317 26.6855 83.7258 27.2973 83.3022 28.1446C82.8786 28.9918 82.3138 29.9919 81.6078 31.1451C81.5372 31.2628 81.4666 31.2628 81.396 31.1451C81.3489 31.0039 81.3254 30.8156 81.3254 30.5803C81.3254 30.392 81.3489 30.192 81.396 29.9802C81.443 29.7684 81.5136 29.5683 81.6078 29.3801C81.8431 28.9329 82.0784 28.474 82.3138 28.0034C82.5491 27.5091 82.7609 27.0738 82.9492 26.6972C83.1374 26.3207 83.2433 26.0854 83.2669 25.9912C82.8433 25.7794 82.5256 25.4853 82.3138 25.1087C82.102 24.7086 81.9961 24.3203 81.9961 23.9438C81.9961 23.5673 82.0784 23.226 82.2432 22.9201C82.4314 22.6142 82.7021 22.3788 83.0551 22.2141C83.2669 22.1435 83.4669 22.1082 83.6552 22.1082C84.1729 22.1082 84.5965 22.2729 84.926 22.6024C84.9025 22.6965 84.8789 22.8024 84.8554 22.9201C84.8554 23.0142 84.8554 23.1201 84.8554 23.2378C84.8554 23.9673 85.1496 24.5086 85.7379 24.8616C86.3262 25.2146 86.9617 25.3441 87.6441 25.2499C87.9736 24.7792 88.3501 24.3674 88.7737 24.0144C89.1973 23.6614 89.6563 23.4849 90.1505 23.4849C90.4093 23.4849 90.7741 23.4967 91.2448 23.5202C91.739 23.5437 92.092 23.5437 92.3038 23.5202C92.1626 23.6143 91.9978 23.8026 91.8096 24.085C91.6213 24.3674 91.4448 24.6616 91.2801 24.9675C91.1153 25.2735 90.9859 25.5088 90.8918 25.6735C90.2564 26.8973 89.668 28.121 89.1267 29.3448C88.5855 30.545 88.1736 31.6981 87.8912 32.8042C87.8442 33.016 87.7971 33.216 87.75 33.4043C87.7265 33.569 87.7147 33.7455 87.7147 33.9338C87.7147 34.6398 87.9501 34.9928 88.4207 34.9928C88.7502 34.9928 89.2209 34.7575 89.8328 34.2868C90.374 33.8397 90.8565 33.3455 91.2801 32.8042C91.7507 32.1923 92.1979 31.5334 92.6215 30.8274C93.0451 30.1214 93.4099 29.4742 93.7158 28.8859C93.8335 28.6976 93.9158 28.6035 93.9629 28.6035C94.1041 28.6035 94.1747 28.8153 94.1747 29.2389C94.1747 29.4036 94.1512 29.6036 94.1041 29.839C94.057 30.0743 93.9747 30.2979 93.857 30.5097C93.504 31.098 93.1039 31.7452 92.6568 32.4512C92.2096 33.1337 91.7507 33.8044 91.2801 34.4633C90.9741 34.8869 90.5388 35.3694 89.974 35.9106C89.4327 36.4519 88.8443 36.9226 88.2089 37.3227C87.5971 37.7227 87.0087 37.9228 86.4439 37.9228Z" fill="#0276FF"/>
<path d="M30.2351 21.3901C31.3021 21.5919 32.2821 22.6157 32.4372 23.6905C32.5968 24.7963 31.8103 25.5492 30.7126 25.3415C29.6455 25.1396 28.6655 24.1159 28.5104 23.041C28.3508 21.9353 29.1373 21.1824 30.2351 21.3901ZM25.6775 20.7481C26.7445 20.95 27.7245 21.9737 27.8796 23.0486C28.0392 24.1543 27.2527 24.9072 26.155 24.6995C25.0879 24.4976 24.1079 23.4739 23.9528 22.399C23.7932 21.2933 24.5797 20.5404 25.6775 20.7481ZM22.8339 23.472C23.901 23.6739 24.881 24.6976 25.0361 25.7725C25.1956 26.8782 24.4091 27.6311 23.3114 27.4234C22.2443 27.2215 21.2644 26.1978 21.1093 25.1229C20.9497 24.0172 21.7362 23.2643 22.8339 23.472ZM23.3484 28.0991C24.4155 28.301 25.3954 29.3247 25.5505 30.3996C25.7101 31.5053 24.9236 32.2582 23.8259 32.0505C22.7588 31.8486 21.7788 30.8249 21.6237 29.75C21.4642 28.6443 22.2507 27.8914 23.3484 28.0991Z" fill="black"/>
<path d="M93.3979 24.0997C94.3383 25.4302 96.3211 24.9856 96.3134 23.3214C96.302 20.8435 95.9047 19.3708 94.9467 18.799C93.9888 18.2273 92.5039 18.5766 90.3176 19.7428C88.8492 20.526 89.399 22.4822 91.0164 22.6784C91.755 22.7679 92.9685 23.4922 93.3979 24.0997ZM90.58 14.3415C89.585 14.7768 88.8588 15.9937 88.9479 17.0761C89.0396 18.1895 89.9745 18.7475 90.998 18.2997C91.9929 17.8643 92.7192 16.6474 92.6301 15.5651C92.5384 14.4517 91.6035 13.8937 90.58 14.3415ZM94.8787 12.6969C93.8838 13.1322 93.1575 14.3491 93.2466 15.4314C93.3383 16.5449 94.2732 17.1029 95.2967 16.655C96.2916 16.2197 97.0179 15.0028 96.9288 13.9204C96.8371 12.807 95.9022 12.249 94.8787 12.6969ZM98.2592 14.7161C97.2643 15.1515 96.538 16.3683 96.6271 17.4507C96.7188 18.5641 97.6537 19.1221 98.6772 18.6743C99.6722 18.239 100.398 17.0221 100.309 15.9397C100.218 14.8263 99.2828 14.2683 98.2592 14.7161ZM98.7923 19.3411C97.7973 19.7765 97.071 20.9933 97.1601 22.0757C97.2518 23.1891 98.1867 23.7471 99.2102 23.2993C100.205 22.8639 100.931 21.6471 100.842 20.5647C100.751 19.4513 99.8158 18.8933 98.7923 19.3411Z" fill="black"/>
</svg>
