<svg width="106" height="96" viewBox="0 0 106 96" fill="none" xmlns="http://www.w3.org/2000/svg">
<g opacity="0.83" filter="url(#filter0_f_53_1122)">
<ellipse cx="53.1667" cy="71.0375" rx="33.1198" ry="4.68402" fill="#D92D20"/>
</g>
<path fill-rule="evenodd" clip-rule="evenodd" d="M44.2932 0.967773H64.9449L82.2685 18.2914V51.1955C82.2685 55.351 78.6722 58.713 74.2424 58.713H44.1138C39.6686 58.713 36.0723 55.351 36.0723 51.1955V8.48525C36.0722 4.32968 39.8479 0.967773 44.2932 0.967773Z" fill="#FFB6B0"/>
<path d="M64.9833 12.7478V0.967773L82.2699 18.2914H70.7455C65.5595 18.2914 64.7432 14.5957 64.9833 12.7478Z" fill="#D92D20"/>
<path fill-rule="evenodd" clip-rule="evenodd" d="M32.5149 8.18555H53.1666L70.4902 25.5091V58.4132C70.4902 62.5688 66.8939 65.9308 62.4641 65.9308H32.3354C27.8902 65.9308 24.2939 62.5688 24.2939 58.4132V15.703C24.2939 11.5475 28.0696 8.18555 32.5149 8.18555Z" fill="#D92D20"/>
<path d="M53.204 19.9656V8.18555L70.4906 25.5091H58.9662C53.7802 25.5091 52.9639 21.8134 53.204 19.9656Z" fill="white" fill-opacity="0.3"/>
<path d="M32.6758 47.417V36.4782H36.9915C37.8212 36.4782 38.528 36.6367 39.112 36.9536C39.6959 37.267 40.141 37.7031 40.4472 38.2622C40.757 38.8177 40.9119 39.4586 40.9119 40.185C40.9119 40.9114 40.7553 41.5524 40.4419 42.1078C40.1286 42.6633 39.6746 43.096 39.0799 43.4058C38.4888 43.7155 37.7731 43.8704 36.9327 43.8704H34.182V42.017H36.5589C37.004 42.017 37.3707 41.9405 37.6591 41.7874C37.9511 41.6307 38.1683 41.4153 38.3108 41.1411C38.4568 40.8634 38.5298 40.5447 38.5298 40.185C38.5298 39.8218 38.4568 39.5049 38.3108 39.2343C38.1683 38.9601 37.9511 38.7482 37.6591 38.5987C37.3672 38.4456 36.9968 38.369 36.5482 38.369H34.9886V47.417H32.6758ZM46.2918 47.417H42.4141V36.4782H46.3239C47.4242 36.4782 48.3713 36.6972 49.1654 37.1352C49.9595 37.5696 50.5701 38.1945 50.9974 39.01C51.4283 39.8254 51.6437 40.801 51.6437 41.9369C51.6437 43.0764 51.4283 44.0556 50.9974 44.8746C50.5701 45.6936 49.9559 46.322 49.1547 46.76C48.3571 47.198 47.4028 47.417 46.2918 47.417ZM44.7269 45.4354H46.1957C46.8794 45.4354 47.4544 45.3143 47.9209 45.0722C48.3909 44.8265 48.7435 44.4473 48.9785 43.9345C49.217 43.4182 49.3363 42.7524 49.3363 41.9369C49.3363 41.1286 49.217 40.4681 48.9785 39.9554C48.7435 39.4426 48.3927 39.0652 47.9263 38.823C47.4598 38.5809 46.8847 38.4598 46.201 38.4598H44.7269V45.4354ZM53.3569 47.417V36.4782H60.5996V38.385H55.6696V40.9915H60.1189V42.8983H55.6696V47.417H53.3569Z" fill="white"/>
<defs>
<filter id="filter0_f_53_1122" x="0.732065" y="47.0387" width="104.869" height="47.9978" filterUnits="userSpaceOnUse" color-interpolation-filters="sRGB">
<feFlood flood-opacity="0" result="BackgroundImageFix"/>
<feBlend mode="normal" in="SourceGraphic" in2="BackgroundImageFix" result="shape"/>
<feGaussianBlur stdDeviation="9.6574" result="effect1_foregroundBlur_53_1122"/>
</filter>
</defs>
</svg>
