<svg width="20" height="25" viewBox="0 0 20 25" fill="none" xmlns="http://www.w3.org/2000/svg">
<path d="M0.948677 16.1076C0.524634 13.7966 1.67307 10.498 2.30029 9.13759C1.92904 7.40638 2.35347 5.91264 2.6121 5.38217C3.38867 4.02698 4.09037 2.30341 4.34415 1.61102C5.04458 -0.294343 6.46321 2.10038 7.08497 3.53591C7.41996 4.79973 7.94783 4.96342 8.16988 4.88729C9.12917 4.68934 11.0186 4.80481 11.8433 4.88729C12.3458 4.85684 12.7435 3.89126 12.8796 3.41228C13.461 2.03447 14.7934 -0.254728 15.4718 1.61102C16.3199 3.9432 17.2209 4.79124 17.5655 5.85132C17.8411 6.69939 17.6803 8.39553 17.5655 9.13759C18.016 9.56161 19.1582 13.2454 18.8667 16.1076M0.948677 16.1076C1.47873 18.9963 4.26229 24.1392 9.93288 23.9522C17.1679 23.7137 18.6017 17.2207 18.8667 16.1076M0.948677 16.1076C1.23034 15.5017 2.06774 14.0767 2.85953 13.833C3.84928 13.5285 4.00155 12.2152 3.81121 11.8155M18.8667 16.1076C18.4289 15.1273 17.3631 14.1757 16.6398 13.833C16.2274 13.6744 15.8404 13.0623 15.8404 11.8155C15.8404 10.2928 14.4704 9.02712 12.8796 9.01757C11.2785 9.00796 10.1113 9.62284 9.8829 11.8155C9.71794 10.9336 9.12156 9.13759 6.95174 9.01757C5.4831 8.93634 4.28705 10.1342 4.17285 10.7687M5.94296 12.3484C6.14599 11.9614 6.77282 11.3625 7.65598 12.0629M13.9185 12.3484C13.7155 11.9614 13.0887 11.3625 12.2055 12.0629M5.80973 15.8316C5.96434 16.996 6.52371 18.9126 7.65598 19.3501M13.9185 15.8316C13.7587 18.0228 12.9651 18.9205 12.2055 19.2082M9.8829 18.0395L9.93288 20.5138M7.65598 19.3501C8.01049 19.4871 8.42116 19.4791 8.89316 19.2576L9.8829 18.8008L11.1391 19.2576C11.422 19.3424 11.8091 19.3584 12.2055 19.2082M7.65598 19.3501C7.66232 20.7912 8.08319 23.326 9.8829 23.3879C11.7491 23.452 12.1673 20.5063 12.2055 19.2082M14.3231 3.75377L13.5698 5.29702C13.5041 5.43854 13.467 5.77326 13.845 5.97998C14.223 6.18671 15.129 6.79007 15.5348 7.06591C15.6812 7.16036 15.9655 7.22176 15.9315 6.7117C15.889 6.07412 15.7898 5.39404 15.4144 4.96899C15.114 4.62896 14.9728 4.16612 14.9397 3.97721C14.9397 3.83553 14.5665 3.35966 14.3231 3.75377ZM5.54856 3.75377L6.3018 5.29702C6.36759 5.43854 6.40467 5.77326 6.02665 5.97998C5.64864 6.18671 4.74262 6.79007 4.33686 7.06591C4.19045 7.16036 3.90614 7.22176 3.94015 6.7117C3.98265 6.07412 4.08183 5.39404 4.45729 4.96899C4.75766 4.62896 4.89887 4.16612 4.93193 3.97721C4.93193 3.83553 5.30511 3.35966 5.54856 3.75377ZM9.24836 15.8316H10.5805C10.7721 15.8202 11.2048 15.9517 11.4033 16.5681V17.195C11.3554 17.4475 11.1055 17.9943 10.4891 18.1615H9.33978C9.10905 18.0744 8.6084 17.7592 8.45167 17.195V16.5681C8.52568 16.3226 8.78863 15.8316 9.24836 15.8316Z" stroke="#5BB2F5" stroke-width="1.08779" stroke-linecap="round" stroke-linejoin="round"/>
</svg>
