<svg width="83" height="132" viewBox="0 0 83 132" fill="none" xmlns="http://www.w3.org/2000/svg">
<g clip-path="url(#clip0_170_2840)">
<g opacity="0.83" filter="url(#filter0_f_170_2840)">
<ellipse cx="42.0913" cy="104.334" rx="28.4231" ry="7.61045" transform="rotate(-18.042 42.0913 104.334)" fill="#0F558B"/>
</g>
<path d="M49.2751 58.2855C50.8464 58.8233 52.4388 59.8673 53.1559 63.4845C53.9469 66.5867 55.3844 69.4869 57.3742 71.9949C59.2935 74.5996 60.5379 77.6157 59.0193 79.883C57.5008 82.1504 52.9239 84.5442 48.9482 82.3507C44.9725 80.1572 44.6245 77.0041 43.6753 73.64C42.7262 70.2759 41.7771 65.5409 42.0302 62.9467C42.0666 62.1033 42.3049 61.2809 42.7251 60.5488C43.1454 59.8166 43.7353 59.1961 44.4452 58.7393C45.1552 58.2825 45.9644 58.0029 46.8049 57.9239C47.6453 57.845 48.4925 57.9689 49.2751 58.2855Z" fill="#E4ECF1"/>
<g style="mix-blend-mode:multiply" opacity="0.8">
<path d="M46.259 63.9062C45.0064 63.0381 43.6627 62.3096 42.2517 61.7337C42.4555 61.0257 42.8054 60.3683 43.2789 59.8038C43.7523 59.2393 44.3388 58.7803 45.0006 58.4564C45.6623 58.1325 46.3846 57.9509 47.1208 57.9232C47.8571 57.8956 48.5909 58.0225 49.2751 58.2958C50.8464 58.8337 52.4388 59.8777 53.1559 63.4949C53.9469 66.5971 55.3844 69.4973 57.3742 72.0053C59.2935 74.61 60.5379 77.6261 59.0193 79.8934C57.5008 82.1608 52.9239 84.5546 48.9482 82.3611C47.8534 81.7853 46.8922 80.9853 46.1272 80.0132C45.3623 79.0411 44.8107 77.9187 44.5085 76.7192C46.6176 74.4835 49.4333 77.373 49.4966 76.8036C49.5598 76.2341 48.1256 73.6398 47.4402 70.4761C46.7547 67.3124 46.9445 64.6655 46.259 63.9062Z" fill="#C2E0F2"/>
</g>
<g style="mix-blend-mode:multiply" opacity="0.8">
<path d="M46.259 63.9062C45.0064 63.0381 43.6627 62.3096 42.2517 61.7337C42.4555 61.0257 42.8054 60.3683 43.2789 59.8038C43.7523 59.2393 44.3388 58.7803 45.0006 58.4564C45.6623 58.1325 46.3846 57.9509 47.1208 57.9232C47.8571 57.8956 48.5909 58.0225 49.2751 58.2958C50.8464 58.8337 52.4388 59.8777 53.1559 63.4949C53.9469 66.5971 55.3844 69.4973 57.3742 72.0053C59.2935 74.61 60.5379 77.6261 59.0193 79.8934C57.5008 82.1608 52.9239 84.5546 48.9482 82.3611C47.8534 81.7853 46.8922 80.9853 46.1272 80.0132C45.3623 79.0411 44.8107 77.9187 44.5085 76.7192C46.6176 74.4835 49.4333 77.373 49.4966 76.8036C49.5598 76.2341 48.1256 73.6398 47.4402 70.4761C46.7547 67.3124 46.9445 64.6655 46.259 63.9062Z" fill="#C2E0F2"/>
</g>
<g style="mix-blend-mode:multiply">
<path d="M50.3296 61.7338C51.2471 61.8076 51.9009 63.1047 51.7955 64.6444C51.69 66.1841 50.8358 67.3863 49.9184 67.3124C49.0009 67.2386 48.3365 65.9415 48.4525 64.4018C48.5685 62.8622 49.4016 61.7338 50.3296 61.7338Z" fill="#B5CBD8"/>
</g>
<path d="M47.1024 76.677C49.5279 77.1411 50.8883 78.9233 52.1327 80.8953C52.6019 81.6429 53.1346 82.3485 53.7251 83.0045C52.1117 83.3394 50.4321 83.1085 48.969 82.3506C47.9594 81.8184 47.0663 81.09 46.342 80.2081C45.6176 79.3262 45.0766 78.3086 44.7507 77.2149C45.0765 76.9532 45.4574 76.7689 45.8648 76.6757C46.2721 76.5826 46.6953 76.583 47.1024 76.677Z" fill="#5385A6"/>
<path d="M49.2753 58.2854C50.2211 58.5742 51.0586 59.1399 51.6797 59.9094C51.1555 59.964 50.6451 60.1103 50.1717 60.3418C48.7902 60.9956 47.5247 61.7127 45.8585 61.4702C45.6262 61.726 45.4374 62.0181 45.2995 62.3349C44.4817 62.1454 43.7128 61.7861 43.0428 61.2804C43.1365 61.0363 43.2494 60.8001 43.3802 60.5738L42.8951 60.3102C43.572 59.2998 44.5718 58.5493 45.7309 58.1815C46.89 57.8136 48.1397 57.8503 49.2753 58.2854Z" fill="#5385A6"/>
<path d="M43.4009 63.4739C44.6874 63.7059 44.8245 65.5303 44.8667 68.9576C44.8667 71.9315 46.1217 74.8421 45.4151 74.9898C44.7085 75.1374 43.9492 72.4271 43.3587 69.3689C42.7681 66.3106 42.1987 63.2629 43.4009 63.4739Z" fill="white"/>
<path d="M46.7548 77.1622C48.4948 77.2993 51.5531 79.8303 52.1225 82.6776C52.3123 83.6267 49.233 85.8413 45.5947 84.7867C41.9565 83.7322 43.0216 76.888 46.7548 77.1622Z" fill="#E4ECF1"/>
<g style="mix-blend-mode:multiply" opacity="0.8">
<path d="M44.4239 84.1117C45.3074 84.2922 46.2256 84.1848 47.0436 83.8052C47.8616 83.4256 48.5364 82.7938 48.9691 82.0026C49.8022 80.3364 48.8531 78.6069 48.1571 77.6578C49.125 78.1818 49.9765 78.8969 50.6599 79.7598C51.3433 80.6226 51.8444 81.6153 52.1328 82.6775C52.3226 83.6266 49.2433 85.8412 45.605 84.7867C45.1635 84.6581 44.7587 84.4269 44.4239 84.1117Z" fill="#C2E0F2"/>
</g>
<g style="mix-blend-mode:multiply" opacity="0.8">
<path d="M44.4239 84.1117C45.3074 84.2922 46.2256 84.1848 47.0436 83.8052C47.8616 83.4256 48.5364 82.7938 48.9691 82.0026C49.8022 80.3364 48.8531 78.6069 48.1571 77.6578C49.125 78.1818 49.9765 78.8969 50.6599 79.7598C51.3433 80.6226 51.8444 81.6153 52.1328 82.6775C52.3226 83.6266 49.2433 85.8412 45.605 84.7867C45.1635 84.6581 44.7587 84.4269 44.4239 84.1117Z" fill="#C2E0F2"/>
</g>
<path d="M46.2485 77.8265C47.7249 78.4698 46.1642 82.0448 44.6772 81.2644C43.1903 80.484 44.9936 77.2781 46.2485 77.8265Z" fill="white"/>
<path d="M47.3559 37.2361C48.9377 36.6245 52.228 37.8372 52.7764 39.8409C53.6622 43.1312 52.5655 56.7773 51.9538 58.1482C51.3422 59.5192 47.2926 60.9639 45.7846 60.5527C44.2765 60.1414 42.0725 59.3821 41.387 58.0112C40.7015 56.6402 41.1234 51.1565 42.0198 46.1578C42.9161 41.1591 45.6791 37.9005 47.3559 37.2361Z" fill="#E4ECF1"/>
<g style="mix-blend-mode:multiply" opacity="0.8">
<path d="M51.9535 58.1482C51.3313 59.5192 47.2923 60.9639 45.7843 60.5527C44.2763 60.1414 42.0722 59.3821 41.3867 58.0112C41.3285 57.8749 41.2826 57.7337 41.2496 57.5893C42.8104 58.9919 45.1199 59.4243 45.4679 58.8337C45.8159 58.2432 45.9425 51.2935 46.5225 46.6323C47.1025 41.9711 48.3891 39.7038 50.0237 39.0922C50.5025 38.9222 51.0218 38.9028 51.512 39.0366C52.0021 39.1705 52.4396 39.4512 52.7655 39.8409C53.6619 43.1312 52.5652 56.7773 51.9535 58.1482Z" fill="#C2E0F2"/>
</g>
<path d="M48.0411 38.1325C49.0957 38.818 46.396 40.9376 44.7508 44.6392C42.821 48.984 42.5573 57.1147 42.009 57.0515C41.4606 56.9882 41.5239 51.5677 42.6944 46.2843C43.865 41.0009 46.86 37.4048 48.0411 38.1325Z" fill="white"/>
<path d="M23.3007 75.8016C24.7033 76.5715 26.7808 77.8159 27.519 79.3661C28.2572 80.9163 28.5208 86.8641 27.3397 91.2511C26.1586 95.6381 24.7771 99.2869 21.9403 100.109C19.1035 100.932 17.5849 100.109 14.8114 98.4644C11.5211 96.4607 11.7953 94.4464 12.6179 92.3479C13.4405 90.2493 14.9696 88.7729 15.7816 85.5775C16.2919 83.1782 16.9219 80.806 17.6693 78.4697C18.3864 76.2129 20.9701 74.5151 23.3007 75.8016Z" fill="#E4ECF1"/>
<g style="mix-blend-mode:multiply" opacity="0.8">
<path d="M12.6073 92.3163L12.8604 91.7257C13.3158 91.5658 13.8032 91.5188 14.2807 91.5886C14.7583 91.6584 15.2118 91.8429 15.6023 92.1265C17.7958 93.5712 18.2704 96.06 18.6817 95.4905C19.6521 93.8773 20.2836 92.0831 20.5377 90.2177C21.1494 87.054 21.7083 82.7513 21.2865 81.992C20.8646 81.2328 18.1227 79.9673 17.2685 79.5349C17.3635 79.1974 17.4795 78.8494 17.606 78.4803C18.3442 76.2236 20.9701 74.5257 23.3007 75.8123C24.7033 76.5821 26.7808 77.8265 27.519 79.3767C28.2572 80.9269 28.5208 86.8747 27.3397 91.2617C26.1586 95.6487 24.7771 99.2975 21.9403 100.12C19.1035 100.943 17.5849 100.12 14.8114 98.475C11.5106 96.4607 11.7848 94.4254 12.6073 92.3163Z" fill="#C2E0F2"/>
</g>
<path d="M26.6543 78.1744C25.9024 78.3397 25.173 78.5946 24.4819 78.9337C22.668 79.7879 22.2146 80.5472 20.5378 79.8617C19.5338 79.4642 18.5578 78.9991 17.6166 78.4697C18.3443 76.2129 20.9702 74.5151 23.3008 75.8016C24.5271 76.4268 25.6567 77.226 26.6543 78.1744Z" fill="#5385A6"/>
<path d="M18.8504 100.352C17.3973 99.9737 16.0251 99.3341 14.8009 98.4645C11.6372 96.5135 11.7743 94.5626 12.5441 92.5272C12.9688 92.3158 13.4402 92.2156 13.9142 92.2358C14.3882 92.2561 14.8493 92.3963 15.2543 92.6432C17.7537 93.9931 18.8821 97.7895 18.8504 100.352Z" fill="#5385A6"/>
<g style="mix-blend-mode:multiply">
<path d="M25.4099 80.2099C26.3168 80.4313 26.7387 81.8234 26.3696 83.3736C26.0005 84.9238 24.967 85.9151 24.0706 85.6831C23.1742 85.4511 22.7419 84.0696 23.111 82.5194C23.4801 80.9692 24.5135 79.9884 25.4099 80.2099Z" fill="#B5CBD8"/>
</g>
<path d="M22.9316 78.4487C22.3864 78.5902 21.875 78.8394 21.4276 79.1817C20.9802 79.5241 20.6059 79.9525 20.3269 80.4418L18.281 79.3873C18.2407 78.8538 18.382 78.3224 18.6817 77.8792C19.3809 77.6095 20.1368 77.5203 20.8796 77.6198C21.6224 77.7194 22.3281 78.0044 22.9316 78.4487Z" fill="#5385A6"/>
<path d="M17.9964 80.9903C18.8085 81.3067 18.1863 83.6794 17.7961 86.474C17.311 89.9014 17.9015 90.8611 17.4164 91.6098C17.1633 92.0211 16.3619 91.5149 15.6658 91.1352C14.9698 90.7556 14.4742 90.9665 14.432 90.4498C14.3898 89.933 15.708 88.5621 16.4251 85.8202C16.9419 83.8798 17.3321 80.7161 17.9964 80.9903Z" fill="white"/>
<path d="M17.8383 54.7631C19.6521 53.9089 22.6788 55.1217 23.7544 57.4417C24.8301 59.7618 27.6036 72.2795 27.688 74.8105C27.7723 77.3414 22.4995 79.8197 20.6224 79.1131C18.7109 78.5707 17.0178 77.4419 15.7819 75.8861C14.6218 74.1883 13.2825 56.9039 17.8383 54.7631Z" fill="#E4ECF1"/>
<g style="mix-blend-mode:multiply" opacity="0.8">
<path d="M20.6224 79.1131C18.7108 78.5707 17.0178 77.4419 15.7819 75.8861C15.6206 75.5883 15.5033 75.2686 15.4339 74.937C16.8153 76.2869 18.9878 77.7 19.8103 77.4996C20.8649 77.2254 19.726 72.8384 19.2725 68.5463C18.819 64.2542 18.471 59.7723 20.1689 57.4417C21.8667 55.1111 23.7544 57.4417 23.7544 57.4417C24.809 59.7723 27.6036 72.3006 27.688 74.8105C27.7723 77.3203 22.4995 79.8197 20.6224 79.1131Z" fill="#C2E0F2"/>
</g>
<path d="M18.8084 55.786C20.211 55.9653 18.3233 58.3275 17.6589 59.7512C16.6169 62.3926 16.1461 65.2247 16.2774 68.0612C16.404 70.7503 16.6781 74.3886 16.2774 74.3886C15.8767 74.3886 15.0646 68.3459 15.3388 64.3913C15.613 60.4366 16.7203 55.5223 18.8084 55.786Z" fill="white"/>
<path d="M14.7801 93.1916C16.383 93.8982 18.4078 97.3044 17.9438 100.183C17.8067 101.143 14.179 102.166 11.0891 99.9725C7.99918 97.779 11.3527 91.6836 14.7801 93.1916Z" fill="#E4ECF1"/>
<g style="mix-blend-mode:multiply" opacity="0.8">
<path d="M10.2556 98.9601C11.0308 99.4256 11.935 99.6298 12.835 99.5425C13.735 99.4551 14.5831 99.0809 15.2543 98.475C16.5936 97.1778 16.3088 95.2374 15.9503 94.0985C16.6838 94.9225 17.2432 95.8863 17.5948 96.932C17.9464 97.9776 18.0829 99.0836 17.9961 100.183C17.8591 101.143 14.2313 102.166 11.1414 99.9725C10.7727 99.7071 10.4697 99.3608 10.2556 98.9601Z" fill="#C2E0F2"/>
</g>
<path d="M14.084 93.6345C15.2546 94.6891 12.597 97.5892 11.4581 96.3659C10.3192 95.1426 13.1138 92.7065 14.084 93.6345Z" fill="white"/>
<path d="M73.7516 24.1384C72.3701 23.1893 75.7131 34.7473 65.4416 41.37L63.7965 40.2206C75.0382 34.104 69.913 19.2873 73.9415 21.5758C77.9699 23.8642 80.0685 36.9303 69.1853 43.9748L67.4031 42.7515C77.0313 36.0128 76.3881 25.8784 73.7516 24.1384Z" fill="#5385A6"/>
<g style="mix-blend-mode:multiply">
<path d="M70.9672 41.7814C72.9888 39.7885 74.5578 37.3839 75.5677 34.7308C76.5776 32.0778 77.0047 29.2385 76.8201 26.4058C77.5252 29.7644 77.1693 33.2592 75.8014 36.4067C74.4336 39.5542 72.1215 42.1988 69.185 43.9749L67.4027 42.7516C68.1996 42.1964 68.9572 41.5868 69.6701 40.9272C70.2712 41.3279 70.9672 41.7814 70.9672 41.7814Z" fill="#B5CBD8"/>
</g>
<g style="mix-blend-mode:multiply">
<path d="M63.7964 40.2206C64.6542 39.743 65.46 39.1775 66.2008 38.5333L67.2554 38.9973C73.4879 33.9248 72.5282 26.8803 72.7813 24.4864C72.9395 22.9889 73.8992 24.0751 74.2261 24.4864C74.0969 24.3337 73.948 24.199 73.7832 24.0857C72.4017 23.1366 75.7447 34.6947 65.4731 41.3174L63.7964 40.2206Z" fill="#B5CBD8"/>
</g>
<path d="M66.897 39.7671C72.0433 42.9308 74.1208 47.7185 73.3932 55.67C73.2036 57.9226 72.4727 60.0961 71.2628 62.0056C70.0528 63.9151 68.3995 65.5042 66.4436 66.6375C63.1006 68.7467 59.4834 70.0332 57.2161 73.1231C50.6145 82.1292 39.4782 88.4882 28.5107 81.5597C26.0805 80.0898 24.0606 78.0303 22.6383 75.5721C21.2159 73.1138 20.4371 70.3362 20.374 67.4968C20.3109 64.6574 20.9656 61.8479 22.2773 59.3289C23.5891 56.8098 25.5155 54.6626 27.878 53.0863C34.817 48.3407 38.2022 49.796 42.6419 47.0542C46.5333 44.6181 47.5984 42.4351 51.1418 40.2944C57.1212 36.6561 62.8791 37.2994 66.897 39.7671Z" fill="#E4ECF1"/>
<g style="mix-blend-mode:multiply" opacity="0.8">
<path d="M21.2972 72.5854C27.3609 81.6757 33.8149 79.419 33.8149 76.4134C33.8149 72.0264 34.6375 66.5427 39.847 63.0731C45.0566 59.6036 50.6353 62.0186 54.611 59.6036C58.5867 57.1886 61.2337 49.079 66.5382 46.3477C69.607 44.7553 71.674 45.6938 73.0238 48.0139C73.5621 50.5289 73.6867 53.1149 73.3929 55.6701C73.2033 57.9227 72.4724 60.0962 71.2625 62.0057C70.0525 63.9152 68.3992 65.5042 66.4433 66.6376C63.1003 68.7467 59.4831 70.0333 57.2158 73.1232C50.6142 82.1292 39.4779 88.4883 28.5104 81.5597C25.1458 79.4864 22.5984 76.3171 21.2972 72.5854Z" fill="#C2E0F2"/>
</g>
<g style="mix-blend-mode:multiply" opacity="0.5">
<path d="M24.3765 77.9531C32.4017 85.2296 37.5586 80.4419 37.5586 80.4419L47.9145 68.0612C48.8214 72.7224 49.8338 74.5468 51.2891 74.6417C52.7444 74.7367 53.3982 72.9966 57.7852 69.158C60.5693 66.7219 62.4464 65.4037 62.4464 65.4037C61.8499 64.3778 61.4618 63.2441 61.3044 62.0678C61.1469 60.8915 61.2232 59.6957 61.5289 58.549L73.2241 56.6297C72.9055 58.7012 72.1273 60.6751 70.9467 62.4068C69.7661 64.1385 68.2129 65.5841 66.4011 66.6376C63.0581 68.7467 59.4409 70.0333 57.1736 73.1232C50.572 82.1292 39.4357 88.4882 28.4682 81.5597C26.9318 80.5686 25.5526 79.3529 24.3765 77.9531Z" fill="#C2E0F2"/>
</g>
<path d="M58.3967 38.9446C63.3321 38.3013 65.7155 40.769 64.4289 42.2348C63.1423 43.7007 58.6709 44.9767 55.6549 45.7993C51.5104 46.9277 49.0427 47.0331 45.3306 50.5554C41.9455 53.7191 38.5076 57.041 34.7849 57.041C28.2044 57.041 28.4575 52.5591 34.6056 50.8296C39.1825 49.5325 43.8331 48.0877 46.4907 45.7993C49.1482 43.5109 54.2417 39.4824 58.3967 38.9446Z" fill="white"/>
<path d="M70.5771 47.4127C73.4034 48.4672 74.2787 53.1495 72.5176 57.874C70.7564 62.5985 67.0338 65.5724 64.2075 64.5178C61.3813 63.4632 60.4955 58.7809 62.2566 54.0565C64.0177 49.332 67.7404 46.3581 70.5771 47.4127Z" fill="#364A5B"/>
<path d="M69.9444 49.079C72.2329 49.9227 72.9289 53.6875 71.5158 57.5156C70.1026 61.3437 67.1077 63.6953 64.7876 62.8411C62.4675 61.9869 61.8032 58.2327 63.2163 54.4046C64.6294 50.5765 67.6666 48.2354 69.9444 49.079Z" fill="#2E3C4D"/>
<path d="M45.1618 63.263C48.1884 64.3914 49.127 69.39 47.271 74.4414C45.4149 79.4928 41.4181 82.6565 38.3915 81.5281C35.3649 80.3997 34.4052 75.4432 36.314 70.3602C38.2228 65.2772 42.1352 62.1346 45.1618 63.263Z" fill="#364A5B"/>
<path d="M44.498 65.0557C46.934 65.9521 47.6617 69.9805 46.1747 74.0406C44.6878 78.1007 41.4608 80.6528 39.0353 79.7458C36.6098 78.8389 35.8716 74.8104 37.3585 70.7609C38.8455 66.7113 42.0619 64.1487 44.498 65.0557Z" fill="#2E3C4D"/>
<path d="M39.847 53.6558C44.0653 56.9882 37.991 58.5279 33.7938 62.9149C30.1766 66.6902 31.4421 74.5151 26.1376 71.2987C20.5062 67.903 23.0267 60.753 25.9584 57.5893C28.8901 54.4256 35.8291 50.4604 39.847 53.6558Z" fill="#2E3C4D"/>
<path d="M25.9585 57.5894C28.8797 54.4784 35.8293 50.4605 39.8472 53.6558C41.2603 54.7842 41.5029 55.7017 41.0494 56.5875C40.8232 55.9218 40.3816 55.3503 39.7945 54.9635C36.0824 52.0107 29.6706 55.7228 26.9709 58.5912C24.2712 61.4596 21.9406 68.0823 27.1396 71.2461C27.6734 71.6061 28.2835 71.8371 28.9219 71.921C28.4415 72.0425 27.9393 72.0496 27.4557 71.9415C26.9721 71.8334 26.5207 71.6133 26.1378 71.2988C20.4958 67.9031 23.0268 60.6793 25.9585 57.5894Z" fill="#364A5B"/>
<path d="M47.4298 89.585C48.8324 90.3548 50.9099 91.5886 51.6481 93.1494C52.3863 94.7102 52.7026 100.637 51.4688 105.024C50.2349 109.411 48.9062 113.07 46.0694 113.893C43.2326 114.715 41.7246 113.893 38.9405 112.248C35.6502 110.233 35.9244 108.23 36.747 106.121C37.5696 104.011 39.0987 102.546 39.858 99.3608C40.3661 96.9566 40.9997 94.5805 41.7562 92.2425C42.4839 89.9857 45.0992 88.2984 47.4298 89.585Z" fill="#E4ECF1"/>
<g style="mix-blend-mode:multiply" opacity="0.8">
<path d="M36.7364 106.121C36.8208 105.92 36.9052 105.73 37.0001 105.541C37.4534 105.379 37.9395 105.331 38.4157 105.401C38.8919 105.471 39.3437 105.656 39.7314 105.941C41.9249 107.376 42.3995 109.875 42.8213 109.295C43.7833 107.679 44.4109 105.886 44.6668 104.022C45.289 100.858 45.8374 96.5452 45.4261 95.7964C45.0148 95.0477 42.2624 93.7716 41.3976 93.3287C41.4926 93.0018 41.6086 92.6433 41.7457 92.2742C42.4839 90.0174 45.0992 88.3301 47.4298 89.6166C48.8324 90.3865 50.9099 91.6203 51.6481 93.1811C52.3863 94.7419 52.7026 100.669 51.4688 105.056C50.2349 109.443 48.9062 113.102 46.0694 113.924C43.2326 114.747 41.7246 113.924 38.9405 112.279C35.6397 110.244 35.9139 108.23 36.7364 106.121Z" fill="#C2E0F2"/>
</g>
<path d="M50.7832 91.9578C50.0328 92.1233 49.3039 92.3745 48.6108 92.7065C46.7969 93.5712 46.3435 94.32 44.6667 93.6345C43.6608 93.2413 42.6845 92.7761 41.7455 92.2425C42.4837 89.9857 45.0991 88.2984 47.4297 89.585C48.6583 90.2064 49.7884 91.0059 50.7832 91.9578Z" fill="#5385A6"/>
<path d="M42.9793 114.125C41.5265 113.751 40.1542 113.115 38.9298 112.248C35.7661 110.297 35.9032 108.346 36.673 106.31C37.0996 106.099 37.5726 105.999 38.0483 106.019C38.5239 106.039 38.9868 106.18 39.3938 106.426C41.8931 107.766 43.011 111.562 42.9793 114.125Z" fill="#5385A6"/>
<g style="mix-blend-mode:multiply">
<path d="M49.5492 93.9825C50.4456 94.2145 50.8674 95.6066 50.4983 97.1462C50.1292 98.6859 49.0957 99.6772 48.1994 99.4557C47.303 99.2343 46.8706 97.8317 47.2397 96.292C47.6088 94.7523 48.6423 93.7611 49.5492 93.9825Z" fill="#B5CBD8"/>
</g>
<path d="M47.0708 92.2319C46.524 92.3664 46.0107 92.6118 45.5627 92.9529C45.1146 93.2939 44.7414 93.7233 44.466 94.2145L42.3569 93.1599C42.3172 92.625 42.4623 92.0926 42.7682 91.6519C43.475 91.3721 44.2418 91.2785 44.9952 91.3801C45.7486 91.4816 46.4633 91.7749 47.0708 92.2319Z" fill="#5385A6"/>
<path d="M42.1355 94.7629C42.937 95.0898 42.3148 97.4521 41.9246 100.247C41.45 103.674 42.0301 104.634 41.545 105.393C41.2919 105.794 40.4904 105.298 39.8049 104.908C39.1194 104.518 38.6027 104.739 38.5711 104.222C38.5394 103.706 39.8366 102.345 40.5537 99.6034C41.0704 97.5892 41.45 94.4887 42.1355 94.7629Z" fill="white"/>
<path d="M41.9773 68.5358C43.7806 67.6816 46.8072 68.8944 47.8828 71.225C48.9585 73.5556 51.732 86.0839 51.8164 88.5937C51.9007 91.1036 46.6279 93.6029 44.7508 92.8858C42.8406 92.3462 41.1478 91.2213 39.9103 89.6694C38.7503 87.961 37.3688 70.6871 41.9773 68.5358Z" fill="#E4ECF1"/>
<g style="mix-blend-mode:multiply" opacity="0.8">
<path d="M44.7509 92.8858C42.8407 92.3461 41.1479 91.2212 39.9104 89.6693C39.7495 89.3676 39.6323 89.0444 39.5624 88.7097C40.9439 90.0701 43.1268 91.4832 43.9389 91.2723C44.9934 91.0086 43.8545 86.6216 43.401 82.319C42.9476 78.0163 42.6417 73.5555 44.2974 71.2249C45.9531 68.8943 47.9146 71.2249 47.9146 71.2249C48.9691 73.5555 51.7638 86.0838 51.8481 88.5937C51.9325 91.1035 46.628 93.6029 44.7509 92.8858Z" fill="#C2E0F2"/>
</g>
<path d="M42.9371 69.5693C44.3397 69.7485 42.452 72.1108 41.7982 73.5239C40.7557 76.1438 40.2743 78.9532 40.385 81.7706C40.5221 84.4492 40.7858 88.0981 40.385 88.0981C39.9843 88.0981 39.1723 82.0554 39.4465 78.0902C39.7207 74.125 40.8596 69.2951 42.9371 69.5693Z" fill="white"/>
<path d="M38.9084 106.975C40.5114 107.671 42.5467 111.088 42.1249 113.967C41.9878 114.916 38.36 115.949 35.2702 113.756C32.1803 111.562 35.4811 105.456 38.9084 106.975Z" fill="#E4ECF1"/>
<g style="mix-blend-mode:multiply" opacity="0.8">
<path d="M34.3845 112.733C35.1597 113.198 36.0639 113.402 36.9639 113.315C37.8639 113.228 38.712 112.854 39.3832 112.248C40.733 110.961 40.4377 109.01 40.0792 107.882C40.8143 108.705 41.3747 109.668 41.7263 110.714C42.078 111.76 42.2136 112.867 42.1251 113.967C41.988 114.916 38.3602 115.949 35.2704 113.756C34.8988 113.489 34.5953 113.139 34.3845 112.733Z" fill="#C2E0F2"/>
</g>
<path d="M38.2125 107.418C39.3937 108.525 36.7256 111.362 35.5867 110.139C34.4477 108.915 37.2212 106.479 38.2125 107.418Z" fill="white"/>
<path d="M71.674 71.594C73.2453 72.1319 74.8377 73.1759 75.5549 76.7931C76.3458 79.8953 77.7833 82.7954 79.7731 85.3034C81.6924 87.9082 82.9368 90.9243 81.4183 93.1916C79.8997 95.459 75.3228 97.8528 71.3471 95.6593C67.3714 93.4658 67.0234 90.3127 66.0743 86.9486C65.1252 83.5845 64.176 78.8495 64.4291 76.2552C64.4655 75.4118 64.7038 74.5895 65.1241 73.8573C65.5443 73.1252 66.1342 72.5047 66.8441 72.0479C67.5541 71.5911 68.3633 71.3115 69.2038 71.2325C70.0443 71.1536 70.8914 71.2775 71.674 71.594Z" fill="#E4ECF1"/>
<g style="mix-blend-mode:multiply" opacity="0.8">
<path d="M68.658 77.2149C67.4092 76.3407 66.0647 75.6118 64.6506 75.0425C64.8532 74.3335 65.2023 73.6749 65.6753 73.1093C66.1483 72.5436 66.7346 72.0835 67.3965 71.7585C68.0584 71.4335 68.781 71.251 69.5178 71.2226C70.2546 71.1943 70.9892 71.3208 71.674 71.594C73.2453 72.1318 74.8377 73.1759 75.5549 76.793C76.3458 79.8953 77.7833 82.7954 79.7731 85.3034C81.6924 87.9082 82.9368 90.9243 81.4183 93.1916C79.8997 95.4589 75.3228 97.8528 71.3471 95.6593C70.2539 95.0829 69.2944 94.2825 68.5312 93.3104C67.7681 92.3382 67.2184 91.2162 66.9179 90.0174C69.0271 87.7817 71.8322 90.6817 71.8955 90.1017C71.9588 89.5217 70.5246 86.8853 69.8391 83.7743C69.1536 80.6633 69.3434 77.9742 68.658 77.2149Z" fill="#C2E0F2"/>
</g>
<g style="mix-blend-mode:multiply">
<path d="M72.7285 75.0636C73.646 75.1268 74.3104 76.4345 74.1944 77.9742C74.0784 79.5138 73.2242 80.716 72.3172 80.6317C71.4103 80.5473 70.7354 79.2607 70.8514 77.7211C70.9674 76.1814 71.8005 74.9897 72.7285 75.0636Z" fill="#B5CBD8"/>
</g>
<path d="M69.5018 89.9963C71.9273 90.4497 73.2877 92.2425 74.5321 94.2145C75.0065 94.9585 75.5389 95.6637 76.1245 96.3237C74.4926 96.6481 72.7986 96.3907 71.3368 95.596C70.33 95.0626 69.4389 94.3351 68.7149 93.4554C67.9909 92.5757 67.4483 91.5613 67.1185 90.4708C67.4526 90.2139 67.8414 90.0374 68.2547 89.9551C68.668 89.8728 69.0948 89.8869 69.5018 89.9963Z" fill="#5385A6"/>
<path d="M71.6737 71.5941C72.6195 71.8828 73.457 72.4485 74.0781 73.2181C73.554 73.2727 73.0435 73.419 72.5701 73.6505C71.1886 74.3148 69.9337 75.0214 68.2569 74.7789C68.0246 75.0347 67.8358 75.3268 67.698 75.6436C66.8809 75.4518 66.1125 75.0927 65.4412 74.589C65.5338 74.3411 65.6467 74.1013 65.7787 73.8719L65.2936 73.6083C65.9719 72.5998 66.9724 71.8514 68.1314 71.4855C69.2904 71.1196 70.5393 71.1579 71.6737 71.5941Z" fill="#5385A6"/>
<path d="M65.8423 76.7825C67.1288 77.0145 67.2659 78.8916 67.3081 82.2662C67.3081 85.2401 68.5631 88.1613 67.8565 88.2984C67.1499 88.4355 66.3906 85.7463 65.8001 82.6775C65.2095 79.6087 64.6084 76.5716 65.8423 76.7825Z" fill="white"/>
<path d="M69.1534 90.4814C70.8934 90.6079 73.9517 93.1389 74.5317 95.9862C74.7215 96.9353 71.6422 99.1499 67.9934 98.0953C64.3446 97.0408 65.4202 90.2072 69.1534 90.4814Z" fill="#E4ECF1"/>
<g style="mix-blend-mode:multiply" opacity="0.8">
<path d="M66.8228 97.4204C67.7064 97.6008 68.6245 97.4934 69.4425 97.1138C70.2605 96.7342 70.9353 96.1025 71.368 95.3113C72.2011 93.645 71.2625 91.9155 70.556 90.9664C71.5242 91.4953 72.3756 92.2144 73.0588 93.0807C73.742 93.947 74.243 94.9424 74.5317 96.0073C74.7215 96.9564 71.6422 99.171 67.9934 98.1164C67.5497 97.9891 67.1465 97.7494 66.8228 97.4204Z" fill="#C2E0F2"/>
</g>
<path d="M68.6477 91.1352C70.1241 91.7785 68.5633 95.3535 67.0869 94.5731C65.6105 93.7928 67.4033 90.5869 68.6477 91.1352Z" fill="white"/>
<path d="M69.7548 50.5553C71.3367 49.9331 74.6269 51.1459 75.1753 53.1601C76.0611 56.4504 74.9644 70.0332 74.3527 71.4569C73.7411 72.8806 69.6915 74.2726 68.1835 73.8613C66.6755 73.45 64.482 72.6907 63.7965 71.3198C63.111 69.9489 63.5328 64.4756 64.4187 59.4664C65.3045 54.4572 68.078 51.1881 69.7548 50.5553Z" fill="#E4ECF1"/>
<g style="mix-blend-mode:multiply" opacity="0.8">
<path d="M74.3527 71.457C73.7305 72.8279 69.6915 74.2727 68.1835 73.8614C66.6755 73.4501 64.482 72.6908 63.7965 71.3199C63.7343 71.1878 63.6848 71.0501 63.6488 70.9086C65.2096 72.2795 67.5297 72.733 67.9515 72.1424C68.3733 71.5519 68.426 64.6023 69.0061 59.9411C69.5861 55.2799 70.7883 53.0231 72.4334 52.4009C72.9136 52.2351 73.4328 52.2189 73.9223 52.3545C74.4119 52.4901 74.8488 52.771 75.1753 53.1602C76.0611 56.461 74.9644 70.086 74.3527 71.457Z" fill="#C2E0F2"/>
</g>
<path d="M70.44 51.4412C71.4946 52.1267 68.7949 54.2569 67.1498 57.9584C65.2199 62.3033 64.9563 70.434 64.4079 70.3602C63.8595 70.2863 63.9333 64.8764 65.0934 59.6036C66.2534 54.3307 69.28 50.7135 70.44 51.4412Z" fill="white"/>
<path d="M25.3677 30.5607C25.3677 30.5607 25.0302 26.6166 21.3392 28.9367C17.7862 31.466 15.0484 34.9771 13.4616 39.0395L17.3108 35.8758C17.3108 35.8758 19.2934 31.9422 22.1091 30.392C23.828 29.4429 23.828 31.5837 23.828 31.5837L25.3677 30.5607Z" fill="#5385A6"/>
<g style="mix-blend-mode:multiply">
<path d="M23.1847 28.7152C23.5361 28.6981 23.8872 28.756 24.2145 28.8851C24.5418 29.0142 24.8378 29.2116 25.0829 29.464C25.2276 29.8001 25.3235 30.1552 25.3677 30.5185L23.828 31.5731C23.828 31.5731 23.828 29.464 22.1091 30.3814C19.2933 31.9316 17.3108 35.8652 17.3108 35.8652L14.6954 37.9743C17.701 31.3411 21.7294 28.8418 23.1847 28.7152Z" fill="#B5CBD8"/>
</g>
<path d="M34.7957 31.4149C42.9158 36.3292 44.1392 44.2701 41.8191 51.2091C39.499 58.1482 24.0812 67.0066 16.8891 68.7783C9.69691 70.55 5.90046 67.5655 4.10769 66.0259C0.363964 62.8621 0.0897751 56.4398 3.68586 50.8717C7.49286 44.9766 14.6112 36.3608 18.6818 33.3869C25.0303 28.7574 31.1152 29.1897 34.7957 31.4149Z" fill="#E4ECF1"/>
<g style="mix-blend-mode:multiply" opacity="0.8">
<path d="M9.95 65.8676L33.8571 44.4388C33.8571 44.4388 35.7448 39.0921 33.256 35.0109C32.4884 33.708 31.4414 32.5914 30.1905 31.7417C28.9396 30.8919 27.5158 30.3301 26.0216 30.0966C29.014 29.4537 32.1384 29.9382 34.7957 31.457C42.9158 36.3713 44.1392 44.3122 41.8191 51.2513C39.499 58.1903 24.0812 67.0065 16.8891 68.7782C9.69691 70.5499 5.90046 67.5655 4.10769 66.0258C3.64212 65.6294 3.22449 65.1799 2.86329 64.6865C7.11321 67.3967 9.95 65.8676 9.95 65.8676Z" fill="#C2E0F2"/>
</g>
<path d="M27.2555 31.8473C31.8535 34.4521 21.0863 41.8657 18.5132 39.2293C15.94 36.5929 24.0813 30.0967 27.2555 31.8473Z" fill="white"/>
<path d="M3.68618 50.8717C7.5525 44.9802 12.066 39.54 17.1425 34.6525C21.7193 33.2604 29.5864 34.2095 33.8574 44.4389C33.8574 44.4389 29.7762 53.234 28.5846 56.0391C27.3929 58.8443 26.3911 59.8461 23.1852 61.8709C19.9793 63.8957 16.3305 66.0892 12.3864 66.5005C9.22267 66.8379 3.40145 64.2964 1.22904 59.8356C1.06168 56.661 1.92345 53.5172 3.68618 50.8717Z" fill="#19212C"/>
<path d="M32.4019 44.3545C32.4019 44.3545 27.2556 33.2604 17.3321 35.8757C17.3321 35.8757 11.3421 42.2031 6.71254 48.3829C2.08298 54.5627 2.25171 59.5192 2.25171 59.5192C4.31361 55.8039 6.81704 52.3516 9.70751 49.2371C13.6305 45.388 21.8562 37.331 32.4019 44.3545Z" fill="#2E3C4D"/>
<path d="M36.8522 38.2696C41.7981 35.2008 47.303 40.5053 49.8761 47.0963C52.4493 53.6874 51.5951 60.1203 46.9655 62.6934C41.8825 65.5197 40.7752 58.4751 38.529 52.6645C35.998 46.4109 31.8852 41.3595 36.8522 38.2696ZM40.5327 51.7575C42.3676 56.3555 43.2851 62.3032 46.6281 60.5526C49.6863 58.9075 50.3085 52.9492 48.2627 47.6974C46.2168 42.4457 41.6927 37.9743 38.4235 39.7249C34.3634 41.8657 38.5501 46.78 40.5327 51.7575Z" fill="#5385A6"/>
<g style="mix-blend-mode:multiply">
<path d="M38.0122 47.6764C36.1457 43.8167 36.1457 42.2137 36.5358 40.9904C36.926 39.7671 39.0352 38.0376 41.8614 39.3875C43.3784 40.1422 44.6292 41.3415 45.447 42.8254C43.2745 40.1257 40.5327 38.5333 38.4235 39.725C34.3951 41.8341 38.5817 46.78 40.5327 51.7576C41.5872 54.3729 42.3254 57.4312 43.3905 59.2556C44.076 60.6793 45.2782 61.8498 47.2608 60.6793C51.0784 58.5701 49.7074 51.5361 49.7074 51.5361C49.7074 47.5393 47.7248 43.4265 46.4699 41.2224C47.9106 42.9867 49.0605 44.9697 49.8761 47.0964C52.4493 53.698 51.5951 60.1203 46.9655 62.6935C43.2535 64.8026 41.6927 61.544 40.1847 57.4206C40.3198 54.0389 39.5711 50.6804 38.0122 47.6764Z" fill="#B5CBD8"/>
</g>
</g>
<defs>
<filter id="filter0_f_170_2840" x="-9.58487" y="68.392" width="103.353" height="71.8846" filterUnits="userSpaceOnUse" color-interpolation-filters="sRGB">
<feFlood flood-opacity="0" result="BackgroundImageFix"/>
<feBlend mode="normal" in="SourceGraphic" in2="BackgroundImageFix" result="shape"/>
<feGaussianBlur stdDeviation="12.2733" result="effect1_foregroundBlur_170_2840"/>
</filter>
<clipPath id="clip0_170_2840">
<rect width="81.3955" height="131.137" fill="white" transform="matrix(-1 0 0 1 82.3135 0)"/>
</clipPath>
</defs>
</svg>
