<svg width="83" height="132" viewBox="0 0 83 132" fill="none" xmlns="http://www.w3.org/2000/svg">
<mask id="mask0_1037_130" style="mask-type:luminance" maskUnits="userSpaceOnUse" x="0" y="0" width="83" height="132">
<path d="M0.917976 0.0136719H82.3135V131.151H0.917976V0.0136719Z" fill="white"/>
</mask>
<g mask="url(#mask0_1037_130)">
<g opacity="0.83" filter="url(#filter0_f_1037_130)">
<path d="M44.4484 111.584C59.3742 106.722 70.4186 99.5412 69.1169 95.5447C67.8151 91.5483 54.6601 92.2497 39.7343 97.1115C24.8085 101.973 13.764 109.154 15.0658 113.151C16.3676 117.147 29.5226 116.446 44.4484 111.584Z" fill="#0F558B"/>
</g>
<path d="M49.2752 58.2992C50.8465 58.837 52.4389 59.881 53.156 63.4982C53.947 66.6004 55.3845 69.5007 57.3743 72.0087C59.2936 74.6133 60.538 77.6295 59.0194 79.8968C57.5009 82.1642 52.924 84.5579 48.9483 82.3644C44.9726 80.1709 44.6246 77.0178 43.6754 73.6537C42.7263 70.2896 41.7772 65.5546 42.0303 62.9604C42.0667 62.117 42.305 61.2946 42.7252 60.5625C43.1455 59.8303 43.7354 59.2098 44.4453 58.753C45.1553 58.2962 45.9645 58.0166 46.805 57.9376C47.6454 57.8587 48.4926 57.9826 49.2752 58.2992Z" fill="#E4ECF1"/>
<g style="mix-blend-mode:multiply" opacity="0.8">
<path d="M46.259 63.9201C45.0064 63.052 43.6627 62.3235 42.2517 61.7476C42.4555 61.0396 42.8054 60.3822 43.2789 59.8177C43.7523 59.2532 44.3388 58.7942 45.0006 58.4703C45.6623 58.1464 46.3846 57.9648 47.1208 57.9371C47.8571 57.9095 48.5909 58.0364 49.2751 58.3097C50.8464 58.8476 52.4388 59.8916 53.1559 63.5088C53.9469 66.611 55.3844 69.5112 57.3742 72.0192C59.2935 74.6239 60.5379 77.64 59.0193 79.9073C57.5008 82.1747 52.9239 84.5685 48.9482 82.375C47.8534 81.7992 46.8922 80.9992 46.1272 80.0271C45.3623 79.055 44.8107 77.9326 44.5085 76.7331C46.6176 74.4974 49.4333 77.3869 49.4966 76.8175C49.5598 76.248 48.1256 73.6537 47.4402 70.49C46.7547 67.3263 46.9445 64.6794 46.259 63.9201Z" fill="#C2E0F2"/>
</g>
<g style="mix-blend-mode:multiply" opacity="0.8">
<path d="M46.259 63.9201C45.0064 63.052 43.6627 62.3235 42.2517 61.7476C42.4555 61.0396 42.8054 60.3822 43.2789 59.8177C43.7523 59.2532 44.3388 58.7942 45.0006 58.4703C45.6623 58.1464 46.3846 57.9648 47.1208 57.9371C47.8571 57.9095 48.5909 58.0364 49.2751 58.3097C50.8464 58.8476 52.4388 59.8916 53.1559 63.5088C53.9469 66.611 55.3844 69.5112 57.3742 72.0192C59.2935 74.6239 60.5379 77.64 59.0193 79.9073C57.5008 82.1747 52.9239 84.5685 48.9482 82.375C47.8534 81.7992 46.8922 80.9992 46.1272 80.0271C45.3623 79.055 44.8107 77.9326 44.5085 76.7331C46.6176 74.4974 49.4333 77.3869 49.4966 76.8175C49.5598 76.248 48.1256 73.6537 47.4402 70.49C46.7547 67.3263 46.9445 64.6794 46.259 63.9201Z" fill="#C2E0F2"/>
</g>
<g style="mix-blend-mode:multiply">
<path d="M50.3296 61.7476C51.2471 61.8214 51.9009 63.1185 51.7955 64.6582C51.69 66.1979 50.8358 67.4001 49.9184 67.3262C49.0009 67.2524 48.3365 65.9553 48.4525 64.4156C48.5685 62.876 49.4016 61.7476 50.3296 61.7476Z" fill="#B5CBD8"/>
</g>
<path d="M47.1024 76.6907C49.5279 77.1548 50.8883 78.937 52.1327 80.909C52.6019 81.6566 53.1346 82.3622 53.7251 83.0182C52.1117 83.3531 50.4321 83.1222 48.969 82.3643C47.9594 81.8321 47.0663 81.1037 46.342 80.2218C45.6176 79.3399 45.0766 78.3223 44.7507 77.2286C45.0765 76.9669 45.4574 76.7826 45.8648 76.6894C46.2721 76.5963 46.6953 76.5967 47.1024 76.6907Z" fill="#5385A6"/>
<path d="M49.2753 58.2992C50.2211 58.588 51.0586 59.1537 51.6797 59.9232C51.1555 59.9778 50.6451 60.1241 50.1717 60.3556C48.7902 61.0094 47.5247 61.7265 45.8585 61.484C45.6262 61.7398 45.4374 62.0319 45.2995 62.3487C44.4817 62.1592 43.7128 61.7999 43.0428 61.2942C43.1365 61.0501 43.2494 60.8139 43.3802 60.5876L42.8951 60.324C43.572 59.3136 44.5718 58.5631 45.7309 58.1953C46.89 57.8274 48.1397 57.8641 49.2753 58.2992Z" fill="#5385A6"/>
<path d="M43.4009 63.4877C44.6874 63.7197 44.8245 65.5441 44.8667 68.9714C44.8667 71.9453 46.1217 74.8559 45.4151 75.0036C44.7085 75.1512 43.9492 72.4409 43.3587 69.3827C42.7681 66.3244 42.1987 63.2767 43.4009 63.4877Z" fill="white"/>
<path d="M46.7548 77.176C48.4948 77.3131 51.5531 79.8441 52.1225 82.6914C52.3123 83.6405 49.233 85.8551 45.5947 84.8005C41.9565 83.746 43.0216 76.9018 46.7548 77.176Z" fill="#E4ECF1"/>
<g style="mix-blend-mode:multiply" opacity="0.8">
<path d="M44.424 84.1255C45.3075 84.306 46.2256 84.1986 47.0436 83.819C47.8616 83.4394 48.5365 82.8076 48.9692 82.0164C49.8023 80.3502 48.8532 78.6207 48.1572 77.6716C49.1251 78.1956 49.9766 78.9107 50.66 79.7736C51.3434 80.6364 51.8445 81.6291 52.1329 82.6913C52.3227 83.6404 49.2433 85.855 45.605 84.8005C45.1635 84.6719 44.7588 84.4407 44.424 84.1255Z" fill="#C2E0F2"/>
</g>
<g style="mix-blend-mode:multiply" opacity="0.8">
<path d="M44.424 84.1255C45.3075 84.306 46.2256 84.1986 47.0436 83.819C47.8616 83.4394 48.5365 82.8076 48.9692 82.0164C49.8023 80.3502 48.8532 78.6207 48.1572 77.6716C49.1251 78.1956 49.9766 78.9107 50.66 79.7736C51.3434 80.6364 51.8445 81.6291 52.1329 82.6913C52.3227 83.6404 49.2433 85.855 45.605 84.8005C45.1635 84.6719 44.7588 84.4407 44.424 84.1255Z" fill="#C2E0F2"/>
</g>
<path d="M46.2485 77.8403C47.7249 78.4836 46.1642 82.0586 44.6772 81.2782C43.1903 80.4978 44.9936 77.2919 46.2485 77.8403Z" fill="white"/>
<path d="M47.356 37.2499C48.9378 36.6383 52.2281 37.851 52.7765 39.8547C53.6623 43.145 52.5656 56.7911 51.9539 58.162C51.3423 59.533 47.2927 60.9777 45.7847 60.5665C44.2766 60.1552 42.0726 59.3959 41.3871 58.025C40.7016 56.654 41.1235 51.1702 42.0199 46.1715C42.9162 41.1728 45.6792 37.9143 47.356 37.2499Z" fill="#E4ECF1"/>
<g style="mix-blend-mode:multiply" opacity="0.8">
<path d="M51.9535 58.1619C51.3313 59.5329 47.2923 60.9776 45.7843 60.5664C44.2763 60.1551 42.0722 59.3958 41.3867 58.0249C41.3285 57.8886 41.2826 57.7474 41.2496 57.603C42.8104 59.0056 45.1199 59.438 45.4679 58.8474C45.8159 58.2569 45.9425 51.3072 46.5225 46.646C47.1025 41.9848 48.3891 39.7175 50.0237 39.1059C50.5025 38.9359 51.0218 38.9165 51.512 39.0503C52.0021 39.1842 52.4396 39.4649 52.7655 39.8546C53.6619 43.1449 52.5652 56.791 51.9535 58.1619Z" fill="#C2E0F2"/>
</g>
<path d="M48.0411 38.1462C49.0957 38.8317 46.396 40.9513 44.7508 44.6529C42.821 48.9977 42.5573 57.1284 42.009 57.0652C41.4606 57.0019 41.5239 51.5814 42.6944 46.298C43.865 41.0146 46.86 37.4185 48.0411 38.1462Z" fill="white"/>
<path d="M23.3008 75.8155C24.7034 76.5854 26.7809 77.8298 27.5191 79.38C28.2573 80.9302 28.5209 86.878 27.3398 91.265C26.1587 95.652 24.7772 99.3008 21.9404 100.123C19.1036 100.946 17.585 100.123 14.8115 98.4783C11.5212 96.4746 11.7954 94.4603 12.618 92.3618C13.4406 90.2632 14.9697 88.7868 15.7817 85.5914C16.292 83.1921 16.922 80.8199 17.6694 78.4836C18.3865 76.2268 20.9702 74.529 23.3008 75.8155Z" fill="#E4ECF1"/>
<g style="mix-blend-mode:multiply" opacity="0.8">
<path d="M12.6074 92.33L12.8605 91.7394C13.3159 91.5795 13.8033 91.5325 14.2808 91.6023C14.7584 91.6721 15.2119 91.8566 15.6024 92.1402C17.7959 93.5849 18.2705 96.0737 18.6818 95.5042C19.6522 93.891 20.2837 92.0968 20.5378 90.2314C21.1495 87.0677 21.7084 82.765 21.2866 82.0057C20.8647 81.2465 18.1228 79.981 17.2686 79.5486C17.3636 79.2111 17.4796 78.8631 17.6061 78.494C18.3443 76.2373 20.9702 74.5394 23.3008 75.826C24.7034 76.5958 26.7809 77.8402 27.5191 79.3904C28.2573 80.9406 28.5209 86.8884 27.3398 91.2754C26.1587 95.6624 24.7772 99.3112 21.9404 100.134C19.1036 100.957 17.585 100.134 14.8115 98.4887C11.5107 96.4744 11.7849 94.4391 12.6074 92.33Z" fill="#C2E0F2"/>
</g>
<path d="M26.6543 78.1883C25.9024 78.3536 25.173 78.6085 24.4819 78.9476C22.668 79.8018 22.2146 80.5611 20.5378 79.8756C19.5338 79.4781 18.5578 79.013 17.6166 78.4836C18.3443 76.2268 20.9702 74.529 23.3008 75.8155C24.5271 76.4407 25.6567 77.2399 26.6543 78.1883Z" fill="#5385A6"/>
<path d="M18.8504 100.366C17.3973 99.9875 16.0251 99.3479 14.8009 98.4783C11.6372 96.5273 11.7743 94.5764 12.5441 92.541C12.9688 92.3296 13.4402 92.2294 13.9142 92.2496C14.3882 92.2699 14.8493 92.4101 15.2543 92.657C17.7537 94.0069 18.8821 97.8033 18.8504 100.366Z" fill="#5385A6"/>
<g style="mix-blend-mode:multiply">
<path d="M25.41 80.2237C26.3169 80.4451 26.7388 81.8372 26.3697 83.3874C26.0006 84.9376 24.9671 85.9289 24.0707 85.6969C23.1743 85.4649 22.742 84.0834 23.1111 82.5332C23.4802 80.983 24.5136 80.0022 25.41 80.2237Z" fill="#B5CBD8"/>
</g>
<path d="M22.9316 78.4624C22.3864 78.6039 21.875 78.8531 21.4276 79.1954C20.9802 79.5378 20.6059 79.9662 20.3269 80.4555L18.281 79.401C18.2407 78.8675 18.382 78.3361 18.6817 77.8929C19.3809 77.6232 20.1368 77.534 20.8796 77.6335C21.6224 77.7331 22.3281 78.0181 22.9316 78.4624Z" fill="#5385A6"/>
<path d="M17.9964 81.004C18.8085 81.3204 18.1863 83.6931 17.7961 86.4877C17.311 89.9151 17.9015 90.8748 17.4164 91.6235C17.1633 92.0348 16.3619 91.5286 15.6658 91.1489C14.9698 90.7693 14.4742 90.9802 14.432 90.4635C14.3898 89.9467 15.708 88.5758 16.4251 85.8339C16.9419 83.8935 17.3321 80.7298 17.9964 81.004Z" fill="white"/>
<path d="M17.8384 54.7768C19.6522 53.9226 22.6789 55.1354 23.7545 57.4554C24.8302 59.7755 27.6037 72.2932 27.6881 74.8242C27.7724 77.3551 22.4996 79.8334 20.6225 79.1268C18.711 78.5844 17.0179 77.4556 15.782 75.8998C14.6219 74.202 13.2826 56.9176 17.8384 54.7768Z" fill="#E4ECF1"/>
<g style="mix-blend-mode:multiply" opacity="0.8">
<path d="M20.6225 79.1269C18.7109 78.5845 17.0179 77.4557 15.782 75.8999C15.6207 75.6021 15.5034 75.2824 15.434 74.9508C16.8154 76.3007 18.9879 77.7138 19.8104 77.5134C20.865 77.2392 19.7261 72.8522 19.2726 68.5601C18.8191 64.268 18.4711 59.7861 20.169 57.4555C21.8668 55.1249 23.7545 57.4555 23.7545 57.4555C24.8091 59.7861 27.6037 72.3144 27.6881 74.8243C27.7724 77.3341 22.4996 79.8335 20.6225 79.1269Z" fill="#C2E0F2"/>
</g>
<path d="M18.8084 55.7997C20.211 55.979 18.3233 58.3412 17.6589 59.7649C16.6169 62.4063 16.1461 65.2384 16.2774 68.0749C16.404 70.764 16.6781 74.4023 16.2774 74.4023C15.8767 74.4023 15.0646 68.3596 15.3388 64.405C15.613 60.4503 16.7203 55.536 18.8084 55.7997Z" fill="white"/>
<path d="M14.7801 93.2053C16.383 93.9119 18.4078 97.3181 17.9438 100.197C17.8067 101.157 14.179 102.18 11.0891 99.9862C7.99914 97.7927 11.3527 91.6973 14.7801 93.2053Z" fill="#E4ECF1"/>
<g style="mix-blend-mode:multiply" opacity="0.8">
<path d="M10.2556 98.9739C11.0308 99.4394 11.935 99.6436 12.835 99.5563C13.735 99.4689 14.5831 99.0947 15.2543 98.4888C16.5936 97.1916 16.3088 95.2512 15.9503 94.1123C16.6838 94.9363 17.2432 95.9001 17.5948 96.9458C17.9464 97.9914 18.0829 99.0974 17.9961 100.197C17.8591 101.157 14.2313 102.18 11.1414 99.9863C10.7727 99.7209 10.4697 99.3746 10.2556 98.9739Z" fill="#C2E0F2"/>
</g>
<path d="M14.0841 93.6482C15.2547 94.7028 12.5971 97.6029 11.4582 96.3796C10.3193 95.1563 13.1139 92.7202 14.0841 93.6482Z" fill="white"/>
<path d="M73.7516 24.1522C72.3701 23.2031 75.7131 34.7611 65.4416 41.3838L63.7965 40.2344C75.0382 34.1178 69.913 19.3011 73.9415 21.5896C77.9699 23.878 80.0685 36.9441 69.1853 43.9886L67.4031 42.7653C77.0313 36.0266 76.3881 25.8922 73.7516 24.1522Z" fill="#5385A6"/>
<g style="mix-blend-mode:multiply">
<path d="M70.9672 41.7953C72.9888 39.8024 74.5578 37.3978 75.5677 34.7447C76.5776 32.0917 77.0047 29.2524 76.8201 26.4197C77.5252 29.7783 77.1693 33.2731 75.8014 36.4206C74.4336 39.5681 72.1215 42.2127 69.185 43.9888L67.4027 42.7655C68.1996 42.2103 68.9572 41.6007 69.6701 40.9411C70.2712 41.3418 70.9672 41.7953 70.9672 41.7953Z" fill="#B5CBD8"/>
</g>
<g style="mix-blend-mode:multiply">
<path d="M63.7964 40.2343C64.6542 39.7567 65.46 39.1912 66.2008 38.547L67.2554 39.011C73.4879 33.9385 72.5282 26.894 72.7813 24.5001C72.9395 23.0026 73.8992 24.0888 74.2261 24.5001C74.0969 24.3474 73.948 24.2127 73.7832 24.0994C72.4017 23.1503 75.7447 34.7084 65.4731 41.3311L63.7964 40.2343Z" fill="#B5CBD8"/>
</g>
<path d="M66.897 39.7809C72.0433 42.9446 74.1208 47.7323 73.3932 55.6838C73.2036 57.9364 72.4727 60.1099 71.2628 62.0194C70.0528 63.9289 68.3995 65.518 66.4436 66.6513C63.1006 68.7605 59.4834 70.047 57.2161 73.1369C50.6145 82.143 39.4782 88.502 28.5107 81.5735C26.0805 80.1036 24.0606 78.0441 22.6383 75.5859C21.2159 73.1276 20.4371 70.35 20.374 67.5106C20.3109 64.6712 20.9656 61.8617 22.2773 59.3427C23.5891 56.8236 25.5155 54.6764 27.878 53.1001C34.817 48.3545 38.2022 49.8098 42.6419 47.068C46.5333 44.6319 47.5984 42.4489 51.1418 40.3082C57.1212 36.6699 62.8791 37.3132 66.897 39.7809Z" fill="#E4ECF1"/>
<g style="mix-blend-mode:multiply" opacity="0.8">
<path d="M21.2972 72.5992C27.3609 81.6895 33.8149 79.4328 33.8149 76.4272C33.8149 72.0402 34.6375 66.5565 39.847 63.0869C45.0566 59.6174 50.6353 62.0324 54.611 59.6174C58.5867 57.2024 61.2337 49.0928 66.5382 46.3615C69.607 44.7691 71.674 45.7076 73.0238 48.0277C73.5621 50.5427 73.6867 53.1287 73.3929 55.6839C73.2033 57.9365 72.4724 60.11 71.2625 62.0195C70.0525 63.929 68.3992 65.518 66.4433 66.6514C63.1003 68.7605 59.4831 70.0471 57.2158 73.137C50.6142 82.143 39.4779 88.5021 28.5104 81.5735C25.1458 79.5002 22.5984 76.3309 21.2972 72.5992Z" fill="#C2E0F2"/>
</g>
<g style="mix-blend-mode:multiply" opacity="0.5">
<path d="M24.3765 77.967C32.4017 85.2435 37.5586 80.4558 37.5586 80.4558L47.9145 68.0751C48.8214 72.7363 49.8338 74.5607 51.2891 74.6556C52.7444 74.7506 53.3982 73.0105 57.7852 69.1719C60.5693 66.7358 62.4464 65.4176 62.4464 65.4176C61.8499 64.3917 61.4618 63.258 61.3044 62.0817C61.1469 60.9054 61.2232 59.7096 61.5289 58.5629L73.2241 56.6436C72.9055 58.7151 72.1273 60.689 70.9467 62.4207C69.7661 64.1524 68.2129 65.598 66.4011 66.6515C63.0581 68.7606 59.4409 70.0472 57.1736 73.1371C50.572 82.1431 39.4357 88.5021 28.4682 81.5736C26.9318 80.5825 25.5526 79.3668 24.3765 77.967Z" fill="#C2E0F2"/>
</g>
<path d="M58.3967 38.9584C63.3321 38.3151 65.7155 40.7828 64.4289 42.2486C63.1423 43.7145 58.6709 44.9905 55.6549 45.8131C51.5104 46.9415 49.0427 47.0469 45.3306 50.5692C41.9455 53.7329 38.5076 57.0548 34.7849 57.0548C28.2044 57.0548 28.4575 52.5729 34.6056 50.8434C39.1825 49.5463 43.8331 48.1015 46.4907 45.8131C49.1482 43.5247 54.2417 39.4962 58.3967 38.9584Z" fill="white"/>
<path d="M70.5771 47.4266C73.4034 48.4811 74.2787 53.1634 72.5176 57.8879C70.7564 62.6124 67.0338 65.5863 64.2075 64.5317C61.3813 63.4771 60.4955 58.7948 62.2566 54.0704C64.0177 49.3459 67.7404 46.372 70.5771 47.4266Z" fill="#364A5B"/>
<path d="M69.9444 49.0927C72.2329 49.9364 72.9289 53.7012 71.5158 57.5293C70.1026 61.3574 67.1077 63.709 64.7876 62.8548C62.4675 62.0006 61.8032 58.2464 63.2163 54.4183C64.6294 50.5902 67.6666 48.2491 69.9444 49.0927Z" fill="#2E3C4D"/>
<path d="M45.1618 63.2769C48.1884 64.4053 49.127 69.4039 47.271 74.4553C45.4149 79.5067 41.4181 82.6704 38.3915 81.542C35.3649 80.4136 34.4052 75.4571 36.314 70.3741C38.2228 65.2911 42.1352 62.1485 45.1618 63.2769Z" fill="#364A5B"/>
<path d="M44.498 65.0695C46.934 65.9659 47.6617 69.9943 46.1747 74.0544C44.6878 78.1145 41.4608 80.6666 39.0353 79.7596C36.6098 78.8527 35.8716 74.8242 37.3585 70.7747C38.8455 66.7251 42.0619 64.1625 44.498 65.0695Z" fill="#2E3C4D"/>
<path d="M39.847 53.6695C44.0653 57.0019 37.991 58.5416 33.7938 62.9286C30.1766 66.7039 31.4421 74.5288 26.1376 71.3124C20.5062 67.9167 23.0267 60.7667 25.9584 57.603C28.8901 54.4393 35.8291 50.4741 39.847 53.6695Z" fill="#2E3C4D"/>
<path d="M25.9586 57.6031C28.8798 54.4921 35.8294 50.4742 39.8473 53.6695C41.2604 54.7979 41.503 55.7154 41.0495 56.6012C40.8233 55.9355 40.3817 55.364 39.7946 54.9772C36.0825 52.0244 29.6707 55.7365 26.971 58.6049C24.2713 61.4733 21.9407 68.096 27.1397 71.2598C27.6735 71.6198 28.2836 71.8508 28.922 71.9347C28.4416 72.0562 27.9394 72.0633 27.4558 71.9552C26.9722 71.8471 26.5208 71.627 26.1379 71.3125C20.4959 67.9168 23.0269 60.693 25.9586 57.6031Z" fill="#364A5B"/>
<path d="M47.4298 89.5988C48.8324 90.3686 50.9099 91.6024 51.6481 93.1632C52.3863 94.724 52.7026 100.651 51.4688 105.038C50.2349 109.425 48.9062 113.084 46.0694 113.907C43.2326 114.729 41.7246 113.907 38.9405 112.262C35.6502 110.247 35.9244 108.244 36.747 106.135C37.5696 104.025 39.0987 102.56 39.858 99.3746C40.3661 96.9704 40.9997 94.5943 41.7562 92.2563C42.4839 89.9995 45.0992 88.3122 47.4298 89.5988Z" fill="#E4ECF1"/>
<g style="mix-blend-mode:multiply" opacity="0.8">
<path d="M36.7364 106.135C36.8208 105.934 36.9052 105.744 37.0001 105.555C37.4534 105.393 37.9395 105.345 38.4157 105.415C38.8919 105.485 39.3437 105.67 39.7314 105.955C41.9249 107.39 42.3995 109.889 42.8213 109.309C43.7833 107.693 44.4109 105.9 44.6668 104.036C45.289 100.872 45.8374 96.5591 45.4261 95.8103C45.0148 95.0616 42.2624 93.7855 41.3976 93.3426C41.4926 93.0157 41.6086 92.6572 41.7457 92.2881C42.4839 90.0313 45.0992 88.344 47.4298 89.6305C48.8324 90.4004 50.9099 91.6342 51.6481 93.195C52.3863 94.7558 52.7026 100.683 51.4688 105.07C50.2349 109.457 48.9062 113.116 46.0694 113.938C43.2326 114.761 41.7246 113.938 38.9405 112.293C35.6397 110.258 35.9139 108.244 36.7364 106.135Z" fill="#C2E0F2"/>
</g>
<path d="M50.7832 91.9716C50.0328 92.1371 49.3039 92.3883 48.6108 92.7203C46.7969 93.585 46.3435 94.3338 44.6667 93.6483C43.6608 93.2551 42.6845 92.7899 41.7455 92.2563C42.4837 89.9995 45.0991 88.3122 47.4297 89.5988C48.6583 90.2202 49.7884 91.0197 50.7832 91.9716Z" fill="#5385A6"/>
<path d="M42.9793 114.139C41.5265 113.765 40.1542 113.129 38.9298 112.262C35.7661 110.311 35.9032 108.36 36.673 106.324C37.0996 106.113 37.5726 106.013 38.0483 106.033C38.5239 106.053 38.9868 106.194 39.3938 106.44C41.8931 107.78 43.011 111.576 42.9793 114.139Z" fill="#5385A6"/>
<g style="mix-blend-mode:multiply">
<path d="M49.5492 93.9962C50.4456 94.2282 50.8674 95.6203 50.4983 97.1599C50.1292 98.6996 49.0957 99.6909 48.1994 99.4694C47.303 99.248 46.8706 97.8454 47.2397 96.3057C47.6088 94.766 48.6423 93.7748 49.5492 93.9962Z" fill="#B5CBD8"/>
</g>
<path d="M47.0708 92.2456C46.524 92.3801 46.0107 92.6255 45.5627 92.9666C45.1146 93.3076 44.7414 93.737 44.466 94.2282L42.3569 93.1736C42.3172 92.6387 42.4623 92.1063 42.7682 91.6656C43.475 91.3858 44.2418 91.2922 44.9952 91.3938C45.7486 91.4953 46.4633 91.7886 47.0708 92.2456Z" fill="#5385A6"/>
<path d="M42.1355 94.7768C42.937 95.1037 42.3148 97.466 41.9246 100.261C41.45 103.688 42.0301 104.648 41.545 105.407C41.2919 105.808 40.4904 105.312 39.8049 104.922C39.1194 104.532 38.6027 104.753 38.5711 104.236C38.5394 103.72 39.8366 102.359 40.5537 99.6173C41.0704 97.6031 41.45 94.5026 42.1355 94.7768Z" fill="white"/>
<path d="M41.9773 68.5497C43.7806 67.6955 46.8072 68.9083 47.8828 71.2389C48.9585 73.5695 51.732 86.0978 51.8164 88.6076C51.9007 91.1175 46.6279 93.6168 44.7508 92.8997C42.8406 92.3601 41.1478 91.2352 39.9103 89.6833C38.7503 87.9749 37.3688 70.701 41.9773 68.5497Z" fill="#E4ECF1"/>
<g style="mix-blend-mode:multiply" opacity="0.8">
<path d="M44.7509 92.8996C42.8407 92.3599 41.1479 91.235 39.9104 89.6831C39.7495 89.3814 39.6323 89.0582 39.5624 88.7235C40.9439 90.0839 43.1268 91.497 43.9389 91.2861C44.9934 91.0224 43.8545 86.6354 43.401 82.3328C42.9476 78.0301 42.6417 73.5693 44.2974 71.2387C45.9531 68.9081 47.9146 71.2387 47.9146 71.2387C48.9691 73.5693 51.7638 86.0976 51.8481 88.6075C51.9325 91.1173 46.628 93.6167 44.7509 92.8996Z" fill="#C2E0F2"/>
</g>
<path d="M42.9371 69.5829C44.3397 69.7621 42.452 72.1244 41.7982 73.5375C40.7557 76.1574 40.2743 78.9668 40.385 81.7842C40.5221 84.4628 40.7858 88.1117 40.385 88.1117C39.9843 88.1117 39.1723 82.069 39.4465 78.1038C39.7207 74.1386 40.8596 69.3087 42.9371 69.5829Z" fill="white"/>
<path d="M38.9084 106.989C40.5114 107.685 42.5467 111.102 42.1249 113.981C41.9878 114.93 38.36 115.963 35.2702 113.77C32.1803 111.576 35.4811 105.47 38.9084 106.989Z" fill="#E4ECF1"/>
<g style="mix-blend-mode:multiply" opacity="0.8">
<path d="M34.3845 112.747C35.1597 113.212 36.0639 113.416 36.9639 113.329C37.8639 113.242 38.712 112.868 39.3832 112.262C40.733 110.975 40.4377 109.024 40.0792 107.896C40.8143 108.719 41.3747 109.682 41.7263 110.728C42.078 111.774 42.2136 112.881 42.1251 113.981C41.988 114.93 38.3602 115.963 35.2704 113.77C34.8988 113.503 34.5953 113.153 34.3845 112.747Z" fill="#C2E0F2"/>
</g>
<path d="M38.2125 107.432C39.3937 108.539 36.7256 111.376 35.5867 110.153C34.4477 108.929 37.2212 106.493 38.2125 107.432Z" fill="white"/>
<path d="M71.674 71.6077C73.2453 72.1456 74.8377 73.1896 75.5549 76.8068C76.3458 79.909 77.7833 82.8091 79.7731 85.3171C81.6924 87.9219 82.9368 90.938 81.4183 93.2053C79.8997 95.4727 75.3228 97.8665 71.3471 95.673C67.3714 93.4795 67.0234 90.3264 66.0743 86.9623C65.1252 83.5982 64.176 78.8632 64.4291 76.2689C64.4655 75.4255 64.7038 74.6032 65.1241 73.871C65.5443 73.1389 66.1342 72.5184 66.8441 72.0616C67.5541 71.6048 68.3633 71.3252 69.2038 71.2462C70.0443 71.1673 70.8914 71.2912 71.674 71.6077Z" fill="#E4ECF1"/>
<g style="mix-blend-mode:multiply" opacity="0.8">
<path d="M68.658 77.2286C67.4092 76.3544 66.0647 75.6255 64.6506 75.0562C64.8532 74.3472 65.2023 73.6886 65.6753 73.123C66.1483 72.5573 66.7346 72.0972 67.3965 71.7722C68.0584 71.4472 68.781 71.2647 69.5178 71.2363C70.2546 71.208 70.9892 71.3345 71.674 71.6077C73.2453 72.1455 74.8377 73.1896 75.5549 76.8067C76.3458 79.909 77.7833 82.8091 79.7731 85.3171C81.6924 87.9219 82.9368 90.938 81.4183 93.2053C79.8997 95.4726 75.3228 97.8665 71.3471 95.673C70.2539 95.0966 69.2944 94.2962 68.5312 93.3241C67.7681 92.3519 67.2184 91.2299 66.9179 90.0311C69.0271 87.7954 71.8322 90.6954 71.8955 90.1154C71.9588 89.5354 70.5246 86.899 69.8391 83.788C69.1536 80.677 69.3434 77.9879 68.658 77.2286Z" fill="#C2E0F2"/>
</g>
<g style="mix-blend-mode:multiply">
<path d="M72.7285 75.0775C73.646 75.1407 74.3104 76.4484 74.1944 77.9881C74.0784 79.5277 73.2242 80.7299 72.3172 80.6456C71.4103 80.5612 70.7354 79.2746 70.8514 77.735C70.9674 76.1953 71.8005 75.0036 72.7285 75.0775Z" fill="#B5CBD8"/>
</g>
<path d="M69.5018 90.01C71.9273 90.4634 73.2877 92.2562 74.5321 94.2282C75.0065 94.9722 75.5389 95.6774 76.1245 96.3374C74.4926 96.6618 72.7986 96.4044 71.3368 95.6097C70.33 95.0763 69.4389 94.3488 68.7149 93.4691C67.9909 92.5894 67.4483 91.575 67.1185 90.4845C67.4526 90.2276 67.8414 90.0511 68.2547 89.9688C68.668 89.8865 69.0948 89.9006 69.5018 90.01Z" fill="#5385A6"/>
<path d="M71.6737 71.6079C72.6195 71.8966 73.457 72.4623 74.0781 73.2319C73.554 73.2865 73.0435 73.4328 72.5701 73.6643C71.1886 74.3286 69.9337 75.0352 68.2569 74.7927C68.0246 75.0485 67.8358 75.3406 67.698 75.6574C66.8809 75.4656 66.1125 75.1065 65.4412 74.6028C65.5338 74.3549 65.6467 74.1151 65.7787 73.8857L65.2936 73.6221C65.9719 72.6136 66.9724 71.8652 68.1314 71.4993C69.2904 71.1334 70.5393 71.1717 71.6737 71.6079Z" fill="#5385A6"/>
<path d="M65.8423 76.7963C67.1288 77.0283 67.2659 78.9054 67.3081 82.28C67.3081 85.2539 68.5631 88.1751 67.8565 88.3122C67.1499 88.4493 66.3906 85.7601 65.8001 82.6913C65.2095 79.6225 64.6084 76.5854 65.8423 76.7963Z" fill="white"/>
<path d="M69.1534 90.4951C70.8934 90.6216 73.9517 93.1526 74.5317 95.9999C74.7215 96.949 71.6422 99.1636 67.9934 98.109C64.3446 97.0545 65.4202 90.2209 69.1534 90.4951Z" fill="#E4ECF1"/>
<g style="mix-blend-mode:multiply" opacity="0.8">
<path d="M66.8229 97.4342C67.7065 97.6146 68.6246 97.5072 69.4426 97.1276C70.2606 96.748 70.9354 96.1163 71.3681 95.3251C72.2012 93.6588 71.2626 91.9293 70.5561 90.9802C71.5243 91.5091 72.3757 92.2282 73.0589 93.0945C73.7421 93.9608 74.2431 94.9562 74.5318 96.0211C74.7216 96.9702 71.6423 99.1848 67.9935 98.1302C67.5498 98.0029 67.1466 97.7632 66.8229 97.4342Z" fill="#C2E0F2"/>
</g>
<path d="M68.6478 91.1489C70.1242 91.7922 68.5634 95.3672 67.087 94.5868C65.6106 93.8065 67.4034 90.6006 68.6478 91.1489Z" fill="white"/>
<path d="M69.7549 50.5692C71.3368 49.947 74.627 51.1598 75.1754 53.174C76.0612 56.4643 74.9645 70.0471 74.3528 71.4708C73.7412 72.8945 69.6916 74.2865 68.1836 73.8752C66.6756 73.4639 64.4821 72.7046 63.7966 71.3337C63.1111 69.9628 63.5329 64.4895 64.4188 59.4803C65.3046 54.4711 68.0781 51.202 69.7549 50.5692Z" fill="#E4ECF1"/>
<g style="mix-blend-mode:multiply" opacity="0.8">
<path d="M74.3527 71.4709C73.7305 72.8418 69.6915 74.2866 68.1835 73.8753C66.6755 73.464 64.482 72.7047 63.7965 71.3338C63.7343 71.2017 63.6848 71.064 63.6488 70.9225C65.2096 72.2934 67.5297 72.7469 67.9515 72.1563C68.3733 71.5658 68.426 64.6162 69.0061 59.955C69.5861 55.2938 70.7883 53.037 72.4334 52.4148C72.9136 52.249 73.4328 52.2328 73.9223 52.3684C74.4119 52.504 74.8488 52.7849 75.1753 53.1741C76.0611 56.4749 74.9644 70.0999 74.3527 71.4709Z" fill="#C2E0F2"/>
</g>
<path d="M70.44 51.4549C71.4946 52.1404 68.7949 54.2706 67.1498 57.9721C65.2199 62.317 64.9563 70.4477 64.4079 70.3739C63.8595 70.3 63.9333 64.8901 65.0934 59.6173C66.2534 54.3444 69.28 50.7272 70.44 51.4549Z" fill="white"/>
<path d="M25.3678 30.5745C25.3678 30.5745 25.0303 26.6304 21.3393 28.9505C17.7863 31.4798 15.0485 34.9909 13.4617 39.0533L17.3109 35.8896C17.3109 35.8896 19.2935 31.956 22.1092 30.4058C23.8281 29.4567 23.8281 31.5975 23.8281 31.5975L25.3678 30.5745Z" fill="#5385A6"/>
<g style="mix-blend-mode:multiply">
<path d="M23.1847 28.729C23.5361 28.7119 23.8872 28.7698 24.2145 28.8989C24.5418 29.028 24.8378 29.2254 25.0829 29.4778C25.2276 29.8139 25.3235 30.169 25.3677 30.5323L23.828 31.5869C23.828 31.5869 23.828 29.4778 22.1091 30.3952C19.2933 31.9454 17.3108 35.879 17.3108 35.879L14.6954 37.9881C17.701 31.3549 21.7294 28.8556 23.1847 28.729Z" fill="#B5CBD8"/>
</g>
<path d="M34.7957 31.4286C42.9158 36.3429 44.1392 44.2838 41.8191 51.2228C39.499 58.1619 24.0812 67.0203 16.8891 68.792C9.69693 70.5637 5.90048 67.5792 4.10771 66.0396C0.363984 62.8758 0.0897951 56.4535 3.68588 50.8854C7.49288 44.9903 14.6112 36.3745 18.6818 33.4006C25.0303 28.7711 31.1152 29.2034 34.7957 31.4286Z" fill="#E4ECF1"/>
<g style="mix-blend-mode:multiply" opacity="0.8">
<path d="M9.94999 65.8814L33.8571 44.4526C33.8571 44.4526 35.7448 39.1059 33.256 35.0247C32.4884 33.7218 31.4414 32.6052 30.1905 31.7555C28.9396 30.9057 27.5158 30.3439 26.0216 30.1104C29.014 29.4675 32.1384 29.952 34.7957 31.4708C42.9158 36.3851 44.1392 44.326 41.8191 51.2651C39.499 58.2041 24.0812 67.0203 16.8891 68.792C9.6969 70.5637 5.90045 67.5793 4.10768 66.0396C3.64211 65.6432 3.22448 65.1937 2.86328 64.7003C7.1132 67.4105 9.94999 65.8814 9.94999 65.8814Z" fill="#C2E0F2"/>
</g>
<path d="M27.2555 31.8611C31.8535 34.4659 21.0863 41.8795 18.5132 39.2431C15.94 36.6067 24.0813 30.1105 27.2555 31.8611Z" fill="white"/>
<path d="M3.68624 50.8854C7.55256 44.9939 12.0661 39.5537 17.1426 34.6662C21.7194 33.2741 29.5865 34.2232 33.8575 44.4526C33.8575 44.4526 29.7763 53.2477 28.5847 56.0528C27.393 58.858 26.3912 59.8598 23.1853 61.8846C19.9794 63.9094 16.3306 66.1029 12.3865 66.5142C9.22273 66.8516 3.40151 64.3101 1.2291 59.8493C1.06174 56.6747 1.92351 53.5309 3.68624 50.8854Z" fill="#19212C"/>
<path d="M32.4019 44.3684C32.4019 44.3684 27.2556 33.2743 17.3321 35.8896C17.3321 35.8896 11.3421 42.217 6.71259 48.3968C2.08303 54.5766 2.25176 59.5331 2.25176 59.5331C4.31366 55.8178 6.81709 52.3655 9.70756 49.251C13.6305 45.4019 21.8562 37.3449 32.4019 44.3684Z" fill="#2E3C4D"/>
<path d="M16.6226 45.284C15.5051 46.9627 13.922 47.8387 12.7464 47.0576C11.5708 46.2765 11.6622 44.3553 12.7798 42.6767C13.8973 40.998 15.6178 40.1969 16.7929 40.979C17.968 41.7612 17.7401 43.6056 16.6226 45.284Z" fill="#0096F0"/>
<path d="M27.1653 48.7193C26.0434 50.6008 24.1811 51.5247 22.7285 50.6586C21.2759 49.7924 21.1202 47.615 22.2424 45.7334C23.3646 43.8518 25.2889 43.0908 26.7418 43.9564C28.1947 44.822 28.2875 46.8377 27.1653 48.7193Z" fill="#0096F0"/>
<g filter="url(#filter1_f_1037_130)">
<path d="M16.6226 45.284C15.5051 46.9627 13.922 47.8387 12.7464 47.0576C11.5708 46.2765 11.6622 44.3553 12.7798 42.6767C13.8973 40.998 15.6178 40.1969 16.7929 40.979C17.968 41.7612 17.7401 43.6056 16.6226 45.284Z" fill="#4390BE" fill-opacity="0.83"/>
</g>
<g filter="url(#filter2_f_1037_130)">
<path d="M27.1653 48.7193C26.0434 50.6008 24.1811 51.5247 22.7285 50.6586C21.2759 49.7924 21.1202 47.615 22.2424 45.7334C23.3646 43.8518 25.2889 43.0908 26.7418 43.9564C28.1947 44.822 28.2875 46.8377 27.1653 48.7193Z" fill="#4390BE" fill-opacity="0.83"/>
</g>
<path d="M36.8522 38.2833C41.7981 35.2145 47.303 40.519 49.8761 47.11C52.4493 53.7011 51.5951 60.134 46.9655 62.7071C41.8825 65.5334 40.7752 58.4888 38.529 52.6782C35.998 46.4246 31.8852 41.3732 36.8522 38.2833ZM40.5327 51.7712C42.3676 56.3692 43.2851 62.3169 46.6281 60.5663C49.6863 58.9212 50.3085 52.9629 48.2627 47.7111C46.2168 42.4594 41.6927 37.988 38.4235 39.7386C34.3634 41.8794 38.5501 46.7937 40.5327 51.7712Z" fill="#5385A6"/>
<g style="mix-blend-mode:multiply">
<path d="M38.0122 47.6903C36.1457 43.8306 36.1457 42.2276 36.5358 41.0043C36.926 39.781 39.0352 38.0515 41.8614 39.4014C43.3784 40.1561 44.6292 41.3554 45.447 42.8393C43.2745 40.1396 40.5327 38.5472 38.4235 39.7389C34.3951 41.848 38.5817 46.7939 40.5327 51.7715C41.5872 54.3868 42.3254 57.4451 43.3905 59.2695C44.076 60.6932 45.2782 61.8637 47.2608 60.6932C51.0784 58.584 49.7074 51.55 49.7074 51.55C49.7074 47.5532 47.7248 43.4404 46.4699 41.2363C47.9106 43.0006 49.0605 44.9836 49.8761 47.1103C52.4493 53.7119 51.5951 60.1342 46.9655 62.7074C43.2535 64.8165 41.6927 61.5579 40.1847 57.4345C40.3198 54.0528 39.5711 50.6943 38.0122 47.6903Z" fill="#B5CBD8"/>
</g>
</g>
<defs>
<filter id="filter0_f_1037_130" x="-9.58505" y="68.4053" width="103.353" height="71.8849" filterUnits="userSpaceOnUse" color-interpolation-filters="sRGB">
<feFlood flood-opacity="0" result="BackgroundImageFix"/>
<feBlend mode="normal" in="SourceGraphic" in2="BackgroundImageFix" result="shape"/>
<feGaussianBlur stdDeviation="12.2733" result="effect1_foregroundBlur_1037_130"/>
</filter>
<filter id="filter1_f_1037_130" x="10.0821" y="38.8574" width="9.31204" height="10.3091" filterUnits="userSpaceOnUse" color-interpolation-filters="sRGB">
<feFlood flood-opacity="0" result="BackgroundImageFix"/>
<feBlend mode="normal" in="SourceGraphic" in2="BackgroundImageFix" result="shape"/>
<feGaussianBlur stdDeviation="0.910164" result="effect1_foregroundBlur_1037_130"/>
</filter>
<filter id="filter2_f_1037_130" x="19.6846" y="41.7805" width="10.0647" height="11.0257" filterUnits="userSpaceOnUse" color-interpolation-filters="sRGB">
<feFlood flood-opacity="0" result="BackgroundImageFix"/>
<feBlend mode="normal" in="SourceGraphic" in2="BackgroundImageFix" result="shape"/>
<feGaussianBlur stdDeviation="0.910164" result="effect1_foregroundBlur_1037_130"/>
</filter>
</defs>
</svg>
