<svg width="115" height="115" viewBox="0 0 115 115" fill="none" xmlns="http://www.w3.org/2000/svg">
<circle cx="57.8286" cy="57.2771" r="57.1069" fill="#DCE9FE"/>
<path d="M60.1266 49.8926L37.4753 49.8927C33.3323 49.8927 29.9738 53.2512 29.9738 57.3941L29.9737 75.931C29.9737 80.074 33.3322 83.4325 37.4752 83.4325H60.1266L60.1266 49.8926Z" fill="#0276FF" stroke="#222222" stroke-width="4.28659"/>
<path d="M82.7275 52.6633C85.0361 58.1063 89.3707 62.4403 94.8135 64.7493C89.3709 67.058 85.0363 71.3926 82.7275 76.8352C80.4186 71.3925 76.0845 67.0579 70.6416 64.7493C76.0847 62.4405 80.4187 58.1064 82.7275 52.6633Z" fill="#FFD400" stroke="#222222" stroke-width="4.28659" stroke-linejoin="round"/>
<path d="M67.7819 83.4324H52.8359" stroke="#222222" stroke-width="4.28659" stroke-linecap="round" stroke-linejoin="round"/>
<path d="M37.8906 38.5946V34.8581C37.8906 32.7945 39.5635 31.1216 41.6271 31.1216H53.0234H60.3095H67.8199H78.992C81.0556 31.1216 82.7284 32.7945 82.7284 34.8581V38.5946" stroke="#222222" stroke-width="4.28659" stroke-linecap="round" stroke-linejoin="round"/>
<path d="M60.3096 83.4324V31.1216" stroke="#222222" stroke-width="4.28659" stroke-linecap="round" stroke-linejoin="round"/>
<path d="M37.891 75.6584L42.377 75.6584" stroke="#222222" stroke-width="4.28659" stroke-linecap="round" stroke-linejoin="round"/>
<path d="M37.8917 59.0364L51.2148 59.0364" stroke="#222222" stroke-width="4.28659" stroke-linecap="round" stroke-linejoin="round"/>
<path d="M37.8906 67.3474L51.3486 67.3474" stroke="#222222" stroke-width="4.28659" stroke-linecap="round" stroke-linejoin="round"/>
<path d="M26.2653 37.1906L26.5343 37.9208C27.5336 40.5726 29.6088 42.6863 32.299 43.6855L33.0292 43.9545C33.5672 44.1467 33.5672 44.8769 33.0292 45.069L32.299 45.3381C29.6473 46.3373 27.5336 48.4125 26.5343 51.1027L26.2653 51.8329C26.0732 52.371 25.343 52.371 25.1508 51.8329L24.8818 51.1027C23.8826 48.451 21.8073 46.3373 19.1171 45.3381L18.3869 45.069C17.8489 44.8769 17.8489 44.1467 18.3869 43.9545L19.1171 43.6855C21.7689 42.6863 23.8826 40.611 24.8818 37.9208L25.1508 37.1906C25.343 36.6526 26.0732 36.6526 26.2653 37.1906Z" fill="#222222"/>
</svg>
