<svg width="115" height="116" viewBox="0 0 115 116" fill="none" xmlns="http://www.w3.org/2000/svg">
<circle cx="57.8286" cy="57.9602" r="57.1069" fill="#DCE9FE"/>
<path d="M32.7314 66.341V60.0001V45.0877L38.5798 45.719L48.1104 36.3046L42.1828 30.1753H86.7446V64.2274L82.9871 68.8068H36.8406L32.7314 66.341Z" fill="#0276FF"/>
<path d="M36.5391 23.5713C38.9173 29.5531 43.6551 34.2923 49.6367 36.6709C43.6556 39.0494 38.9175 43.7875 36.5391 49.7686C34.1604 43.7869 29.4212 39.0492 23.4395 36.6709C29.4218 34.2924 34.1606 29.5536 36.5391 23.5713Z" fill="#FFD400" stroke="#222222" stroke-width="4" stroke-linejoin="round"/>
<path d="M86.8593 28.9292V60.8634C86.8593 64.6181 83.8401 67.6373 80.0854 67.6373H39.4419C35.6872 67.6373 32.668 64.6181 32.668 60.8634V59.8957" stroke="#222222" stroke-width="4" stroke-linecap="round" stroke-linejoin="round"/>
<path d="M59.7637 67.6372V94.7329" stroke="#222222" stroke-width="4" stroke-linecap="round" stroke-linejoin="round"/>
<path d="M40.4092 94.7329H79.1173" stroke="#222222" stroke-width="4" stroke-linecap="round" stroke-linejoin="round"/>
<path d="M94.6017 28.9292L55.8936 28.9292" stroke="#222222" stroke-width="4" stroke-linecap="round" stroke-linejoin="round"/>
<path d="M48.1504 56.0248L59.7628 44.4124L67.5044 52.154L75.2461 44.4124" stroke="#222222" stroke-width="4" stroke-linecap="round" stroke-linejoin="round"/>
<path d="M75.2458 72.5652C74.9891 72.5652 74.7325 72.6942 74.6041 72.9951L74.3047 73.8119C73.1925 76.7784 70.8824 79.1429 67.8879 80.2607L67.0751 80.5616C66.4763 80.7766 66.4763 81.5934 67.0751 81.8084L67.8879 82.1093C70.8396 83.2271 73.1925 85.5487 74.3047 88.5581L74.6041 89.3749C74.7325 89.6759 74.9891 89.8049 75.2458 89.8049C75.5025 89.8049 75.7592 89.6759 75.8875 89.3749L76.1869 88.5581C77.2992 85.5917 79.6092 83.2271 82.6037 82.1093L83.4165 81.8084C84.0154 81.5934 84.0154 80.7766 83.4165 80.5616L82.6037 80.2607C79.652 79.1429 77.2992 76.8214 76.1869 73.8119L75.8875 72.9951C75.7592 72.6942 75.5025 72.5652 75.2458 72.5652Z" fill="black"/>
</svg>
