<svg width="43" height="43" viewBox="0 0 43 43" fill="none" xmlns="http://www.w3.org/2000/svg">
<g clip-path="url(#clip0_170_1090)">
<path d="M6.12598 5.53526V5.53524C6.12593 3.15475 8.33024 1.06744 11.1055 1.06744H25.7122L37.7267 13.0819V36.6004C37.7267 39.0095 35.6219 41.0683 32.8889 41.0683H10.9749C8.22948 41.0683 6.12598 39.0083 6.12598 36.6004V5.53526Z" fill="#EAF3FF" stroke="#0276FF" stroke-width="2"/>
<path d="M27.1451 8.76448L27.1534 8.70032V8.63563V2.48532L36.3162 11.6677H30.3445C28.7224 11.6677 27.962 11.1071 27.5836 10.5757C27.1658 9.98894 27.0818 9.25131 27.1451 8.76448Z" fill="white" fill-opacity="0.3" stroke="#0276FF" stroke-width="2"/>
<path d="M23.0604 15.2685C22.6699 14.878 22.0368 14.878 21.6462 15.2685L15.2823 21.6325C14.8917 22.023 14.8917 22.6562 15.2823 23.0467C15.6728 23.4372 16.306 23.4372 16.6965 23.0467L22.3533 17.3899L28.0102 23.0467C28.4007 23.4372 29.0339 23.4372 29.4244 23.0467C29.8149 22.6562 29.8149 22.023 29.4244 21.6325L23.0604 15.2685ZM21.3533 28.9328C21.3533 29.4851 21.8011 29.9328 22.3533 29.9328C22.9056 29.9328 23.3533 29.4851 23.3533 28.9328H21.3533ZM15.6655 28.6585C15.6655 28.1063 15.2178 27.6585 14.6655 27.6585C14.1132 27.6585 13.6655 28.1063 13.6655 28.6585H15.6655ZM30.1875 28.6585C30.1875 28.1063 29.7398 27.6585 29.1875 27.6585C28.6352 27.6585 28.1875 28.1063 28.1875 28.6585H30.1875ZM21.3533 15.9756V28.9328H23.3533V15.9756H21.3533ZM13.6655 28.6585V33.9669H15.6655V28.6585H13.6655ZM16.6655 36.9669H27.1875V34.9669H16.6655V36.9669ZM30.1875 33.9669V28.6585H28.1875V33.9669H30.1875ZM27.1875 36.9669C28.8443 36.9669 30.1875 35.6238 30.1875 33.9669H28.1875C28.1875 34.5192 27.7398 34.9669 27.1875 34.9669V36.9669ZM13.6655 33.9669C13.6655 35.6238 15.0087 36.9669 16.6655 36.9669V34.9669C16.1132 34.9669 15.6655 34.5192 15.6655 33.9669H13.6655Z" fill="#0276FF"/>
</g>
<defs>
<clipPath id="clip0_170_1090">
<rect width="42.0009" height="42.0009" fill="white" transform="translate(0.925781 0.0674438)"/>
</clipPath>
</defs>
</svg>
