<svg width="116" height="115" viewBox="0 0 116 115" fill="none" xmlns="http://www.w3.org/2000/svg">
<circle cx="57.9272" cy="57.2771" r="57.1069" fill="#DCE9FE"/>
<path d="M41.0879 27.1421C43.4546 33.0744 48.1558 37.7749 54.0879 40.1421C48.156 42.5091 43.4549 47.2102 41.0879 53.1421C38.7207 47.21 34.0202 42.5088 28.0879 40.1421C34.0204 37.7751 38.7209 33.0746 41.0879 27.1421Z" fill="#FFD400" stroke="#222222" stroke-width="4" stroke-linejoin="round"/>
<path d="M82.924 44.6392C85.3341 42.2291 85.3341 38.3359 82.924 35.9258L82.3678 35.3696C79.9577 32.9595 76.0645 32.9595 73.6544 35.3696L34.753 74.271L31.6631 86.6305L44.0226 83.5406L82.924 44.6392Z" fill="#0276FF" stroke="#222222" stroke-width="4" stroke-linecap="round" stroke-linejoin="round"/>
<path d="M80.114 71.5852L80.383 72.3154C81.3822 74.9671 83.4575 77.0808 86.1477 78.08L86.8778 78.3491C87.4159 78.5412 87.4159 79.2714 86.8778 79.4636L86.1477 79.7326C83.4959 80.7318 81.3822 82.8071 80.383 85.4973L80.114 86.2275C79.9218 86.7655 79.1916 86.7655 78.9995 86.2275L78.7304 85.4973C77.7312 82.8455 75.6559 80.7318 72.9658 79.7326L72.2356 79.4636C71.6975 79.2714 71.6975 78.5412 72.2356 78.3491L72.9658 78.08C75.6175 77.0808 77.7312 75.0055 78.7304 72.3154L78.9995 71.5852C79.1916 71.0471 79.9218 71.0471 80.114 71.5852Z" fill="#222222"/>
</svg>
