<svg clip-rule="evenodd" fill-rule="evenodd" height="512" image-rendering="optimizeQuality" shape-rendering="geometricPrecision" text-rendering="geometricPrecision" viewBox="0 0 850 850" width="512" xmlns="http://www.w3.org/2000/svg" xmlns:xlink="http://www.w3.org/1999/xlink" xmlns:xodm="http://www.corel.com/coreldraw/odm/2003"><linearGradient id="id0" gradientUnits="userSpaceOnUse" x1="425" x2="425" y1="849.998" y2=".002"><stop offset="0" stop-color="#1aa8dc"/><stop offset=".490196" stop-color="#ae3b89"/><stop offset="1" stop-color="#f26270"/></linearGradient><g id="Layer_x0020_1"><circle cx="425" cy="425" fill="url(#id0)" r="425.001"/><g id="_512539720"><g><g><g><path d="m653.916 622.484h-457.732c-14.891 0-26.884-12.093-26.884-26.884v-314.216c0-29.683 24.186-53.868 53.868-53.868h403.764c29.682 0 53.868 24.185 53.868 53.868v314.216c0 14.791-12.093 26.884-26.884 26.884zm-430.848-380.977c-21.987 0-39.876 17.89-39.876 39.877v314.216c0 7.096 5.796 12.893 12.892 12.893l457.732-.001c7.096 0 12.893-5.796 12.893-12.892v-314.216c0-21.987-17.89-39.877-39.877-39.877z" fill="#fefefe"/></g><g><path d="m673.804 331.055h-497.608c-3.898 0-6.996-3.098-6.996-6.996s3.098-6.996 6.996-6.996h497.608c3.898 0 6.996 3.098 6.996 6.996s-3.098 6.996-6.996 6.996z" fill="#fefefe"/></g><g><path d="m639.624 437.992h-429.348c-3.898 0-6.996-3.098-6.996-6.996v-69.659c0-3.897 3.098-6.996 6.996-6.996h429.348c3.898 0 6.996 3.099 6.996 6.996v69.659c0 3.898-3.098 6.996-6.996 6.996zm-422.352-13.991h415.357v-55.668h-415.357z" fill="#fefefe"/></g><g><path d="m505.603 474.271h-295.327c-3.898 0-6.996-3.098-6.996-6.996s3.098-6.996 6.996-6.996h295.327c3.898 0 6.996 3.098 6.996 6.996s-3.098 6.996-6.996 6.996z" fill="#fefefe"/></g><g><path d="m639.624 474.271h-93.045c-3.898 0-6.996-3.098-6.996-6.996s3.098-6.996 6.996-6.996h93.045c3.898 0 6.996 3.098 6.996 6.996s-3.098 6.996-6.996 6.996z" fill="#fefefe"/></g><g><path d="m460.529 514.148h-250.253c-3.898 0-6.996-3.099-6.996-6.996 0-3.898 3.098-6.996 6.996-6.996h250.253c3.898 0 6.996 3.098 6.996 6.996 0 3.897-3.098 6.996-6.996 6.996z" fill="#fefefe"/></g><g><path d="m397.966 553.925h-187.69c-3.898 0-6.996-3.099-6.996-6.996 0-3.898 3.098-6.996 6.996-6.996h187.69c3.898 0 6.996 3.098 6.996 6.996 0 3.897-3.098 6.996-6.996 6.996z" fill="#fefefe"/></g><g><path d="m462.628 593.701h-252.352c-3.898 0-6.996-3.098-6.996-6.996 0-3.897 3.098-6.996 6.996-6.996h252.352c3.898 0 6.996 3.099 6.996 6.996 0 3.898-3.098 6.996-6.996 6.996z" fill="#fefefe"/></g><g><path d="m639.624 514.148h-134.021c-3.898 0-6.996-3.099-6.996-6.996 0-3.898 3.098-6.996 6.996-6.996h134.021c3.898 0 6.996 3.098 6.996 6.996 0 3.897-3.098 6.996-6.996 6.996z" fill="#fefefe"/></g><g><path d="m639.624 553.925h-197.584c-3.897 0-6.996-3.099-6.996-6.996 0-3.898 3.099-6.996 6.996-6.996h197.584c3.898 0 6.996 3.098 6.996 6.996 0 3.897-3.098 6.996-6.996 6.996z" fill="#fefefe"/></g><g><path d="m639.624 593.701h-131.523c-3.897 0-6.996-3.098-6.996-6.996 0-3.897 3.099-6.996 6.996-6.996h131.523c3.898 0 6.996 3.099 6.996 6.996 0 3.898-3.098 6.996-6.996 6.996z" fill="#fefefe"/></g></g><g><path d="m230.664 302.572c-12.893 0-23.386-10.494-23.386-23.287 0-12.792 10.493-23.286 23.386-23.286 12.892 0 23.286 10.494 23.286 23.286 0 12.793-10.394 23.287-23.286 23.287zm0-32.681c-5.197 0-9.395 4.197-9.395 9.294s4.198 9.295 9.395 9.295 9.295-4.198 9.295-9.295-4.198-9.294-9.295-9.294z" fill="#fefefe"/></g><g><path d="m292.828 302.572c-12.893 0-23.287-10.494-23.287-23.287 0-12.792 10.494-23.286 23.287-23.286 12.892 0 23.386 10.494 23.386 23.286 0 12.793-10.494 23.287-23.386 23.287zm0-32.681c-5.198 0-9.295 4.197-9.295 9.294s4.198 9.295 9.295 9.295c5.197 0 9.394-4.198 9.394-9.295s-4.197-9.294-9.394-9.294z" fill="#fefefe"/></g><g><path d="m355.091 302.572c-12.892 0-23.286-10.494-23.286-23.287 0-12.792 10.494-23.286 23.286-23.286 12.793 0 23.286 10.494 23.286 23.286 0 12.793-10.493 23.287-23.286 23.287zm0-32.681c-5.197 0-9.294 4.197-9.294 9.294 0 5.197 4.097 9.295 9.294 9.295s9.295-4.198 9.295-9.295-4.198-9.294-9.295-9.294z" fill="#fefefe"/></g></g></g></g></svg>