<svg width="56" height="56" viewBox="0 0 56 56" fill="none" xmlns="http://www.w3.org/2000/svg">
<g clip-path="url(#clip0_512_1109)">
<path fill-rule="evenodd" clip-rule="evenodd" d="M13.5285 0.213867H33.1664L49.6395 16.687V47.9757C49.6395 51.9273 46.2197 55.1242 42.0074 55.1242H13.3579C9.13092 55.1242 5.71118 51.9273 5.71118 47.9757V7.36228C5.71111 3.41072 9.30148 0.213867 13.5285 0.213867Z" fill="#D92D20"/>
<path d="M33.201 11.4156V0.213867L49.6389 16.687H38.6803C33.7489 16.687 32.9727 13.1727 33.201 11.4156Z" fill="white" fill-opacity="0.3"/>
<path d="M16.3488 43.415V34.4297H19.8938C20.5753 34.4297 21.1559 34.5599 21.6356 34.8202C22.1153 35.0776 22.4809 35.4359 22.7324 35.8951C22.9869 36.3514 23.1141 36.8779 23.1141 37.4745C23.1141 38.0712 22.9854 38.5977 22.728 39.054C22.4706 39.5103 22.0977 39.8657 21.6093 40.1201C21.1237 40.3746 20.5358 40.5018 19.8455 40.5018H17.586V38.9794H19.5384C19.904 38.9794 20.2053 38.9165 20.4422 38.7907C20.6821 38.6621 20.8605 38.4851 20.9775 38.2599C21.0974 38.0317 21.1574 37.77 21.1574 37.4745C21.1574 37.1762 21.0974 36.9159 20.9775 36.6936C20.8605 36.4684 20.6821 36.2943 20.4422 36.1715C20.2024 36.0457 19.8982 35.9828 19.5296 35.9828H18.2485V43.415H16.3488ZM27.5333 43.415H24.3481V34.4297H27.5596C28.4634 34.4297 29.2415 34.6096 29.8937 34.9693C30.546 35.3262 31.0476 35.8395 31.3986 36.5093C31.7525 37.1791 31.9294 37.9805 31.9294 38.9136C31.9294 39.8496 31.7525 40.6539 31.3986 41.3266C31.0476 41.9994 30.543 42.5156 29.8849 42.8754C29.2298 43.2352 28.4459 43.415 27.5333 43.415ZM26.2478 41.7873H27.4543C28.0159 41.7873 28.4883 41.6879 28.8714 41.489C29.2575 41.2872 29.5471 40.9757 29.7401 40.5545C29.9361 40.1304 30.0341 39.5834 30.0341 38.9136C30.0341 38.2496 29.9361 37.7071 29.7401 37.2859C29.5471 36.8647 29.259 36.5547 28.8758 36.3558C28.4927 36.1569 28.0203 36.0574 27.4587 36.0574H26.2478V41.7873ZM33.3367 43.415V34.4297H39.286V35.996H35.2364V38.137H38.8911V39.7033H35.2364V43.415H33.3367Z" fill="white"/>
</g>
<defs>
<clipPath id="clip0_512_1109">
<rect width="54.9104" height="54.9104" fill="white" transform="translate(0.220215 0.213867)"/>
</clipPath>
</defs>
</svg>
