<svg width="38" height="38" viewBox="0 0 38 38" fill="none" xmlns="http://www.w3.org/2000/svg">
<circle cx="19.3013" cy="19.2612" r="18.0245" fill="#0276FF" stroke="#0276FF" stroke-width="1.2"/>
<mask id="path-2-inside-1_185_1044" fill="white">
<path d="M8.68151 11.8311H7.87305V17.0425H8.68151V11.8311Z"/>
</mask>
<path d="M8.68151 11.8311H7.87305V17.0425H8.68151V11.8311Z" fill="#D2EAFF"/>
<path d="M7.87305 11.8311V10.6459H6.68788V11.8311H7.87305ZM8.68151 11.8311H9.86668V10.6459H8.68151V11.8311ZM8.68151 17.0425V18.2276H9.86668V17.0425H8.68151ZM7.87305 17.0425H6.68788V18.2276H7.87305V17.0425ZM7.87305 13.0162H8.68151V10.6459H7.87305V13.0162ZM7.49634 11.8311V17.0425H9.86668V11.8311H7.49634ZM8.68151 15.8573H7.87305V18.2276H8.68151V15.8573ZM9.05822 17.0425V11.8311H6.68788V17.0425H9.05822Z" fill="white" mask="url(#path-2-inside-1_185_1044)"/>
<mask id="path-4-inside-2_185_1044" fill="white">
<path d="M29.92 11.8311H30.7285V17.0425H29.92V11.8311Z"/>
</mask>
<path d="M29.92 11.8311H30.7285V17.0425H29.92V11.8311Z" fill="#D2EAFF"/>
<path d="M30.7285 11.8311V10.6459H31.9137V11.8311H30.7285ZM29.92 11.8311H28.7349V10.6459H29.92V11.8311ZM29.92 17.0425V18.2276H28.7349V17.0425H29.92ZM30.7285 17.0425H31.9137V18.2276H30.7285V17.0425ZM30.7285 13.0162H29.92V10.6459H30.7285V13.0162ZM31.1052 11.8311V17.0425H28.7349V11.8311H31.1052ZM29.92 15.8573H30.7285V18.2276H29.92V15.8573ZM29.5433 17.0425V11.8311H31.9137V17.0425H29.5433Z" fill="white" mask="url(#path-4-inside-2_185_1044)"/>
<path d="M9.13003 11.127V11.1272C9.13005 11.2391 9.10801 11.35 9.06518 11.4534C9.02235 11.5569 8.95956 11.6509 8.8804 11.73C8.80124 11.8092 8.70726 11.872 8.60383 11.9148C8.50039 11.9576 8.38953 11.9797 8.27758 11.9796H8.27741C8.10875 11.9797 7.94388 11.9297 7.80364 11.836C7.6634 11.7423 7.55409 11.6091 7.48954 11.4533C7.42499 11.2975 7.4081 11.126 7.441 10.9606C7.4739 10.7952 7.55511 10.6432 7.67437 10.524C7.79363 10.4047 7.94557 10.3235 8.11099 10.2906C8.2764 10.2577 8.44786 10.2746 8.60368 10.3392C8.75949 10.4037 8.89266 10.513 8.98635 10.6532C9.08004 10.7935 9.13004 10.9584 9.13003 11.127Z" fill="#0276FF" stroke="white" stroke-width="1.18517"/>
<path d="M29.4725 11.127V11.1272C29.4725 11.2391 29.4945 11.35 29.5374 11.4534C29.5802 11.5569 29.643 11.6509 29.7221 11.73C29.8013 11.8092 29.8953 11.872 29.9987 11.9148C30.1021 11.9576 30.213 11.9797 30.325 11.9796H30.3251C30.4938 11.9797 30.6587 11.9297 30.7989 11.836C30.9391 11.7423 31.0484 11.6091 31.113 11.4533C31.1775 11.2975 31.1944 11.126 31.1615 10.9606C31.1286 10.7952 31.0474 10.6432 30.9282 10.524C30.8089 10.4047 30.657 10.3235 30.4916 10.2906C30.3261 10.2577 30.1547 10.2746 29.9989 10.3392C29.843 10.4037 29.7099 10.513 29.6162 10.6532C29.5225 10.7935 29.4725 10.9584 29.4725 11.127Z" fill="#0276FF" stroke="white" stroke-width="1.18517"/>
<path d="M29.7458 18.4207C29.7563 18.613 29.7619 19.9481 29.7619 20.1434C29.7619 20.3311 29.7569 21.6589 29.7469 21.8446C29.456 27.3618 24.8898 30.6049 19.2999 30.6049C13.71 30.6049 9.14422 27.3619 8.85329 21.8446L29.7458 18.4207ZM29.7458 18.4207C29.4443 12.9128 24.883 9.68164 19.3003 9.68164M29.7458 18.4207L19.3003 9.68164M19.3003 9.68164C13.7177 9.68164 9.15648 12.9126 8.85502 18.4207L19.3003 9.68164ZM29.1541 18.4531L29.1541 18.4531C29.1635 18.6246 29.1694 19.937 29.1694 20.1434C29.1694 20.3424 29.1641 21.6477 29.1552 21.8128L29.1552 21.8134C28.8855 26.928 24.6708 30.0123 19.2999 30.0123C13.9292 30.0123 9.71502 26.9284 9.44508 21.8138C9.43658 21.6462 9.43145 20.3415 9.43145 20.1434C9.43145 19.9366 9.4372 18.6247 9.4467 18.4536L9.44672 18.4531C9.72618 13.3471 13.9361 10.2742 19.3003 10.2742C24.6645 10.2742 28.8746 13.3472 29.1541 18.4531Z" fill="#0276FF" stroke="white" stroke-width="1.18517"/>
<path d="M10.2243 20.5995C10.1706 22.0155 9.37989 22.6493 8.57976 22.6493C8.12117 22.6493 7.73741 22.4938 7.4604 22.2093C7.18196 21.9233 6.96193 21.4552 6.93521 20.7434L6.93518 20.7426C6.93526 20.7446 6.93525 20.7439 6.93519 20.7392C6.93512 20.7339 6.93499 20.7236 6.93485 20.7065L6.93421 20.6001C6.93381 20.5143 6.93348 20.4041 6.93321 20.2935C6.93269 20.0722 6.93243 19.8513 6.93243 19.8241C6.93243 19.7959 6.93273 19.6463 6.93333 19.4962C6.93362 19.4212 6.93399 19.3468 6.93442 19.2878L6.93509 19.2141C6.93527 19.1998 6.93541 19.192 6.93547 19.1889C6.9355 19.1872 6.93551 19.1868 6.93548 19.1875C6.96331 18.4769 7.18349 18.0102 7.4616 17.7253C7.73828 17.4418 8.12147 17.2869 8.57976 17.2869C9.00902 17.2869 9.3917 17.4569 9.68102 17.7793C9.97381 18.1056 10.196 18.6186 10.2241 19.3308C10.2241 19.3308 10.2241 19.3308 10.2241 19.3308C10.2241 19.3309 10.2241 19.331 10.2241 19.3312C10.2242 19.3328 10.2243 19.3394 10.2245 19.3535L10.2252 19.4105C10.2256 19.4558 10.2259 19.5121 10.2262 19.5689C10.2268 19.6829 10.2271 19.7963 10.2271 19.8241C10.2271 19.8511 10.2268 20.0358 10.2263 20.2211C10.226 20.3136 10.2257 20.4057 10.2253 20.478L10.2247 20.5679C10.2245 20.5838 10.2244 20.593 10.2243 20.5972C10.2243 20.6002 10.2243 20.6007 10.2243 20.5995ZM10.2243 20.5995C10.2243 20.5993 10.2243 20.5992 10.2243 20.5991L10.8165 20.6214M10.2243 20.5995L10.8165 20.6214M10.8165 20.6214C10.7541 22.2718 9.77664 23.2418 8.57976 23.2418C7.38289 23.2418 6.40499 22.4161 6.34304 20.7657L10.8165 20.6214ZM6.34393 19.1643L6.34393 19.1643L6.34393 19.1643Z" fill="white" stroke="white" stroke-width="1.18517"/>
<path d="M28.3773 20.5995C28.4309 22.0155 29.2217 22.6493 30.0218 22.6493C30.4804 22.6493 30.8642 22.4938 31.1412 22.2093C31.4196 21.9233 31.6396 21.4552 31.6663 20.7434L31.6664 20.7426C31.6663 20.7446 31.6663 20.7439 31.6664 20.7392C31.6664 20.7339 31.6666 20.7236 31.6667 20.7065L31.6674 20.6001C31.6678 20.5143 31.6681 20.4041 31.6683 20.2935C31.6689 20.0722 31.6691 19.8513 31.6691 19.8241C31.6691 19.7959 31.6688 19.6463 31.6682 19.4962C31.6679 19.4212 31.6676 19.3468 31.6671 19.2878L31.6665 19.2141C31.6663 19.1998 31.6661 19.192 31.6661 19.1889C31.6661 19.1872 31.6661 19.1868 31.6661 19.1875C31.6383 18.4769 31.4181 18.0102 31.14 17.7253C30.8633 17.4418 30.4801 17.2869 30.0218 17.2869C29.5925 17.2869 29.2099 17.4569 28.9205 17.7793C28.6278 18.1056 28.4055 18.6186 28.3775 19.3308C28.3775 19.3308 28.3775 19.3308 28.3775 19.3308C28.3775 19.3309 28.3775 19.331 28.3774 19.3312C28.3774 19.3328 28.3772 19.3394 28.377 19.3535L28.3764 19.4105C28.376 19.4558 28.3756 19.5121 28.3753 19.5689C28.3748 19.6829 28.3745 19.7963 28.3745 19.8241C28.3745 19.8511 28.3747 20.0358 28.3753 20.2211C28.3756 20.3136 28.3759 20.4057 28.3763 20.478L28.3769 20.5679C28.3771 20.5838 28.3772 20.593 28.3773 20.5972C28.3773 20.6002 28.3773 20.6007 28.3773 20.5995ZM28.3773 20.5995C28.3773 20.5993 28.3773 20.5992 28.3772 20.5991L27.7851 20.6214M28.3773 20.5995L27.7851 20.6214M27.7851 20.6214C27.8474 22.2718 28.8249 23.2418 30.0218 23.2418C31.2187 23.2418 32.1966 22.4161 32.2585 20.7657L27.7851 20.6214ZM32.2576 19.1643L32.2576 19.1643L32.2576 19.1643Z" fill="white" stroke="white" stroke-width="1.18517"/>
<path d="M19.2989 26.9963C17.6607 26.9963 15.8987 26.6056 14.5349 25.704C13.196 24.819 12.2174 23.4301 12.102 21.3353C12.096 21.1309 12.0906 20.4293 12.0906 20.1424C12.0906 19.8598 12.0965 18.7924 12.1029 18.579C12.2222 16.509 13.1814 15.3638 14.4848 14.6986C15.8411 14.0064 17.6063 13.8201 19.2999 13.8201C20.9935 13.8201 22.7589 14.0064 24.1153 14.6985C25.4189 15.3636 26.378 16.5087 26.4968 18.5784C26.5034 18.7927 26.5094 19.8605 26.5094 20.1424C26.5094 20.4207 26.5037 21.1309 26.4978 21.3363C26.3809 23.4311 25.4016 24.8197 24.0626 25.7045C22.6986 26.6059 20.9368 26.9963 19.2989 26.9963Z" fill="#0276FF" stroke="white" stroke-width="1.18517"/>
<path d="M14.3662 18.6993C15.171 17.6281 17.0668 17.7404 17.7879 18.6993" stroke="white" stroke-width="1.18517" stroke-linecap="round"/>
<path d="M20.8154 18.6993C21.6202 17.6281 23.516 17.7404 24.2371 18.6993" stroke="white" stroke-width="1.18517" stroke-linecap="round"/>
<path d="M21.0107 23.0468C20.206 24.118 18.3101 24.0057 17.589 23.0468" stroke="white" stroke-width="1.18517" stroke-linecap="round"/>
</svg>
