<svg width="28" height="28" viewBox="0 0 28 28" fill="none" xmlns="http://www.w3.org/2000/svg">
<g clip-path="url(#clip0_40_858)">
<path fill-rule="evenodd" clip-rule="evenodd" d="M7.10555 0.129883H16.7861L24.9066 8.25039V23.6743C24.9066 25.6223 23.2209 27.1982 21.1444 27.1982H7.02143C4.93773 27.1982 3.25195 25.6223 3.25195 23.6743V3.65373C3.25192 1.70579 5.02181 0.129883 7.10555 0.129883Z" fill="#D92D20"/>
<path d="M16.8035 5.65183V0.129883L24.9066 8.25039H19.5045C17.0736 8.25039 16.6909 6.51802 16.8035 5.65183Z" fill="white" fill-opacity="0.3"/>
<path d="M8.49582 22.0176V17.5882H10.2433C10.5793 17.5882 10.8655 17.6524 11.102 17.7807C11.3384 17.9076 11.5187 18.0842 11.6427 18.3106C11.7681 18.5355 11.8308 18.795 11.8308 19.0892C11.8308 19.3833 11.7674 19.6428 11.6405 19.8678C11.5136 20.0927 11.3298 20.2679 11.089 20.3933C10.8496 20.5188 10.5598 20.5815 10.2196 20.5815H9.10572V19.831H10.0682C10.2484 19.831 10.3969 19.8 10.5137 19.738C10.6319 19.6746 10.7199 19.5873 10.7775 19.4763C10.8367 19.3639 10.8662 19.2348 10.8662 19.0892C10.8662 18.9421 10.8367 18.8138 10.7775 18.7042C10.7199 18.5932 10.6319 18.5074 10.5137 18.4468C10.3955 18.3848 10.2455 18.3538 10.0638 18.3538H9.4323V22.0176H8.49582ZM14.0093 22.0176H12.4391V17.5882H14.0223C14.4678 17.5882 14.8513 17.6769 15.1729 17.8542C15.4944 18.0301 15.7417 18.2832 15.9147 18.6134C16.0891 18.9436 16.1764 19.3386 16.1764 19.7986C16.1764 20.26 16.0891 20.6565 15.9147 20.9881C15.7417 21.3197 15.4929 21.5742 15.1685 21.7516C14.8456 21.9289 14.4591 22.0176 14.0093 22.0176ZM13.3756 21.2152H13.9703C14.2472 21.2152 14.48 21.1662 14.6689 21.0681C14.8592 20.9686 15.002 20.8151 15.0972 20.6074C15.1938 20.3984 15.2421 20.1288 15.2421 19.7986C15.2421 19.4713 15.1938 19.2038 15.0972 18.9962C15.002 18.7886 14.86 18.6357 14.6711 18.5377C14.4822 18.4396 14.2493 18.3906 13.9725 18.3906H13.3756V21.2152ZM16.8701 22.0176V17.5882H19.8028V18.3603H17.8066V19.4158H19.6082V20.1879H17.8066V22.0176H16.8701Z" fill="white"/>
</g>
<defs>
<clipPath id="clip0_40_858">
<rect width="27.0684" height="27.0684" fill="white" transform="translate(0.544922 0.129883)"/>
</clipPath>
</defs>
</svg>
