<svg clip-rule="evenodd" fill-rule="evenodd" height="512" image-rendering="optimizeQuality" shape-rendering="geometricPrecision" text-rendering="geometricPrecision" viewBox="0 0 2833 2833" width="512" xmlns="http://www.w3.org/2000/svg" xmlns:xlink="http://www.w3.org/1999/xlink"><linearGradient id="id0" gradientUnits="userSpaceOnUse" x1="1416.67" x2="1416.67" y1="2833.33" y2="0"><stop offset="0" stop-color="#1aa8dc"/><stop offset=".490196" stop-color="#ae3b89"/><stop offset="1" stop-color="#f26270"/></linearGradient><g id="Layer_x0020_1"><circle cx="1417" cy="1417" fill="url(#id0)" r="1417"/><g id="_405413176"><g><path d="m1417 1906c-8 0-16-4-21-11-6-12-2-26 9-32 3-2 81-46 203-81 107-31 267-61 439-30v-953c-27-4-84-11-162-8-104 4-267 27-459 113-11 6-25 0-30-11-6-12 0-26 11-31 200-89 370-113 478-117 118-5 188 12 191 12 10 3 17 12 17 23v1000c0 7-3 14-8 18-6 4-13 6-20 5-331-71-634 99-637 100-3 2-7 3-11 3z" fill="#fff"/></g><g><path d="m1417 1906c-4 0-8-1-12-3 0 0-78-43-195-77-107-31-271-60-442-23-7 1-14-1-19-5-6-4-9-11-9-18v-1000c0-11 7-20 18-23 3-1 73-17 190-13 108 5 278 28 478 118 8 3 14 12 14 21v1000c0 8-5 16-12 20-3 2-7 3-11 3zm-483-167c113 0 215 21 290 42 76 22 135 47 169 64v-947c-186-81-344-103-444-107-79-3-135 4-162 8v952c50-9 100-12 147-12z" fill="#fff"/></g><g><path d="m1417 2090c-5 0-9-2-13-4-1-1-93-58-239-102-135-41-343-79-573-28-7 1-14-1-20-5-5-4-9-11-9-18v-1003c0-13 11-24 24-24h176c13 0 24 11 24 24s-11 23-24 23h-153v951c229-43 435-5 570 36 122 37 206 82 237 99 30-17 115-62 237-99 134-41 340-80 569-36v-951h-153c-13 0-23-10-23-23s10-24 23-24h177c13 0 23 11 23 24v1003c0 7-3 14-9 18-5 5-12 6-19 5-231-50-439-12-573 28-146 45-239 102-240 102-4 2-8 4-12 4z" fill="#fff"/></g><g><path d="m1337 1720c-4 0-8-1-12-3-2-2-229-129-478-84-12 2-24-6-27-19-2-13 6-25 19-27 266-48 500 83 509 89 12 6 15 21 9 32-4 7-12 12-20 12z" fill="#fff"/></g><g><path d="m1337 1560c-4 0-8-1-12-4-2-1-229-131-477-87-13 2-25-6-27-19-3-13 6-25 19-27 265-48 499 87 509 93 11 6 15 20 8 32-5 8-12 12-20 12z" fill="#fff"/></g><g><path d="m1337 1396c-4 0-8-1-12-3-2-1-229-128-478-84-12 3-24-6-27-19-2-12 6-24 19-27 266-47 500 84 509 90 12 6 15 20 9 32-4 7-12 11-20 11z" fill="#fff"/></g><g><path d="m1337 1233c-4 0-8-1-12-3-2-1-229-129-478-84-12 2-24-6-27-19-2-13 6-25 19-27 266-48 500 84 509 89 12 7 15 21 9 32-4 8-12 12-20 12z" fill="#fff"/></g><g><path d="m1337 1073c-4 0-8-1-12-3-2-1-229-129-478-84-12 2-24-6-27-19-2-13 6-25 19-27 266-48 500 84 509 89 12 7 15 21 9 32-4 8-12 12-20 12z" fill="#fff"/></g><g><path d="m1497 1720c-8 0-16-5-21-12-6-11-2-25 9-32 9-6 240-137 509-89 12 2 21 14 19 27-3 12-15 21-27 19-252-45-476 82-478 84-3 2-7 3-11 3z" fill="#fff"/></g><g><path d="m1497 1560c-8 0-16-4-20-12-7-11-3-25 8-32 9-5 240-140 509-93 13 3 21 15 19 27-2 13-14 21-27 19-251-44-475 86-477 87-4 3-8 4-12 4z" fill="#fff"/></g><g><path d="m1497 1396c-8 0-16-4-21-11-6-11-2-26 9-32 9-6 240-137 509-90 12 3 21 15 19 27-3 13-15 21-27 19-252-44-476 83-478 84-3 2-7 3-11 3z" fill="#fff"/></g><g><path d="m1497 1233c-8 0-16-4-21-12-6-11-2-25 9-32 9-5 240-137 509-89 12 2 21 14 19 27-3 13-15 21-27 19-252-45-476 83-478 84-3 2-7 3-11 3z" fill="#fff"/></g><g><path d="m1497 1073c-8 0-16-4-21-12-6-11-2-25 9-32 9-5 240-137 509-89 12 2 21 14 19 27-3 13-15 21-27 19-252-45-476 83-478 84-3 2-7 3-11 3z" fill="#fff"/></g></g></g></svg>