<svg id="Layer_1" data-name="Layer 1" xmlns="http://www.w3.org/2000/svg" viewBox="0 0 480.78 481.88"><defs><style>.cls-1{fill:#ffa300;}.cls-2{fill:#e5e8ef;}.cls-3{fill:#ffd80c;}.cls-4{fill:#1565c0;}.cls-5{fill:#cdd4df;}</style></defs><path class="cls-1" d="M496.39,206.12v241.3a50.4,50.4,0,0,1-7.37,26,49.13,49.13,0,0,1-42.37,23.49H65.35a49.23,49.23,0,0,1-42.14-23.49,48.42,48.42,0,0,1-7.6-26l.23-241.3a49.76,49.76,0,0,1,20-40.07L226.53,24.91a49.36,49.36,0,0,1,59.17,0L476.35,166.05a48.21,48.21,0,0,1,9.68,9.67A49,49,0,0,1,496.39,206.12Z" transform="translate(-15.61 -15.06)"/><path class="cls-2" d="M432,84.79V369.37H80V84.79a28.85,28.85,0,0,1,28.85-28.85H403.18A28.85,28.85,0,0,1,432,84.79Z" transform="translate(-15.61 -15.06)"/><path class="cls-1" d="M489,473.45a49.13,49.13,0,0,1-42.37,23.49H65.35a49.23,49.23,0,0,1-42.14-23.49l211.15-192a32.42,32.42,0,0,1,43.28,0Z" transform="translate(-15.61 -15.06)"/><path class="cls-3" d="M496.39,206.12v241.3a50.4,50.4,0,0,1-7.37,26L326.92,326.09,486,175.72A49,49,0,0,1,496.39,206.12Z" transform="translate(-15.61 -15.06)"/><path class="cls-3" d="M15.61,206.12v241.3a50.4,50.4,0,0,0,7.37,26l162.1-147.36L26,175.72a49,49,0,0,0-10.36,30.4Z" transform="translate(-15.61 -15.06)"/><path class="cls-3" d="M223.61,419.39A7.56,7.56,0,0,1,216,427H203.17a7.58,7.58,0,1,1,0-15.16H216A7.58,7.58,0,0,1,223.61,419.39Z" transform="translate(-15.61 -15.06)"/><path class="cls-3" d="M323.83,419.39a7.58,7.58,0,0,1-7.58,7.58h-70a7.58,7.58,0,1,1,0-15.16h70A7.58,7.58,0,0,1,323.83,419.39Z" transform="translate(-15.61 -15.06)"/><path class="cls-3" d="M302.27,454a7.56,7.56,0,0,1-7.58,7.58h-70a7.58,7.58,0,1,1,0-15.15h70A7.57,7.57,0,0,1,302.27,454Z" transform="translate(-15.61 -15.06)"/><path class="cls-4" d="M332.4,117.11A78,78,0,0,0,302,90.23a90.59,90.59,0,0,0-41.46-9.69,87.92,87.92,0,0,0-45.84,12.73,96.61,96.61,0,0,0-33.8,34,89,89,0,0,0-12.63,45.94,76.84,76.84,0,0,0,9.51,37.27,72.68,72.68,0,0,0,27,27.81c11.62,6.89,25.15,10.39,40.2,10.39a110.92,110.92,0,0,0,50.06-11.49,7.49,7.49,0,0,0,3-2.82,7.56,7.56,0,0,0,1.16-4,7,7,0,0,0-2.11-5.13c-2-2-4.53-2.86-8.48-1.54A182.14,182.14,0,0,1,267.05,231a90.05,90.05,0,0,1-22,2.38c-12.71,0-23.81-2.89-33-8.61a58.16,58.16,0,0,1-21.13-22.45,61.88,61.88,0,0,1-7.29-29.07A74,74,0,0,1,194.18,135a80.45,80.45,0,0,1,28.27-28.37,73.5,73.5,0,0,1,38.12-10.54,79,79,0,0,1,32.6,7,61.08,61.08,0,0,1,25.16,20.64c6.37,9,9.6,19.93,9.6,32.45s-2.29,22.63-6.8,29.9c-4.37,7-10.42,10.47-18.48,10.47-2.85,0-4.81-1-6.19-3a15.24,15.24,0,0,1-2.29-8.68,74.45,74.45,0,0,1,1.45-13.45l7-40.56.23-2.53a9.79,9.79,0,0,0-2.86-7.15,10,10,0,0,0-13.54-.43,9.59,9.59,0,0,0-3.36,5.78,40,40,0,0,0-25.75-8.85,53.91,53.91,0,0,0-25.56,6.42,50.41,50.41,0,0,0-19.52,18.63c-4.94,8.09-7.44,17.76-7.44,28.75,0,11.55,3.41,21.12,10.13,28.44s16.24,11.11,28.15,11.11A50.66,50.66,0,0,0,263.33,207a42.68,42.68,0,0,0,14-9.73,22,22,0,0,0,6.8,8.49c4.33,3.41,10.35,5.13,17.9,5.13,9.56,0,17.58-2.75,23.84-8.17a47.18,47.18,0,0,0,13.58-20.47,78.81,78.81,0,0,0,4.27-26A70.09,70.09,0,0,0,332.4,117.11ZM280,145.47l-3.22,18.68h0c-3.22,18.82-12.68,28-28.91,28-6.74,0-12-1.86-16.19-5.7s-6.11-9.45-6.11-17c0-6.79,1.53-12.66,4.56-17.45a30.1,30.1,0,0,1,12-11,35.35,35.35,0,0,1,16.14-3.81C267.09,137.11,274.21,139.85,280,145.47Z" transform="translate(-15.61 -15.06)"/><path class="cls-5" d="M126.73,94a6.9,6.9,0,0,1-6.9,6.9h-4.19a6.9,6.9,0,1,1,0-13.8h4.19A6.89,6.89,0,0,1,126.73,94Z" transform="translate(-15.61 -15.06)"/><path class="cls-5" d="M180.34,94a6.9,6.9,0,0,1-6.9,6.9H147.38a6.9,6.9,0,1,1,0-13.8h26.06A6.89,6.89,0,0,1,180.34,94Z" transform="translate(-15.61 -15.06)"/><path class="cls-5" d="M141.59,121.13a6.88,6.88,0,0,1-6.9,6.9H116.16a6.9,6.9,0,1,1,0-13.8h18.53A6.9,6.9,0,0,1,141.59,121.13Z" transform="translate(-15.61 -15.06)"/></svg>