<svg id="Layer_1" data-name="Layer 1" xmlns="http://www.w3.org/2000/svg" viewBox="0 0 510.81 511"><defs><style>.cls-1{fill:#ffd80c;}.cls-2{fill:#64e8ff;}.cls-3{fill:#0fd9ff;}.cls-4{fill:#6193ff;}.cls-5{fill:#407bff;}.cls-6{fill:#ff6969;}.cls-7{fill:#ff4848;}.cls-8{fill:#ff95c2;}.cls-9{fill:#ff758e;}.cls-10{fill:#fff;}.cls-11{fill:#83a7c5;}.cls-12{fill:#29b6f6;}.cls-13{fill:#e5f4ff;}.cls-14{fill:#1565c0;}</style></defs><path class="cls-1" d="M256.4,461.39c-114.13,0-207-92.85-207-207s92.85-207,207-207,207,92.85,207,207S370.53,461.39,256.4,461.39Zm0-397.11c-104.84,0-190.12,85.29-190.12,190.12S151.56,444.53,256.4,444.53,446.52,359.24,446.52,254.4,361.23,64.28,256.4,64.28Z" transform="translate(-1 1)"/><path class="cls-2" d="M191.88,94.44A95.44,95.44,0,1,1,96.44-1,95.45,95.45,0,0,1,191.88,94.44Z" transform="translate(-1 1)"/><path class="cls-3" d="M96.44-1A95.86,95.86,0,0,0,80.17.39a95.45,95.45,0,0,1,0,188.11A95.45,95.45,0,1,0,96.44-1Z" transform="translate(-1 1)"/><path class="cls-4" d="M511.81,94.44A95.44,95.44,0,1,1,416.36-1,95.45,95.45,0,0,1,511.81,94.44Z" transform="translate(-1 1)"/><path class="cls-5" d="M511.77,91.71A95.44,95.44,0,0,0,413.64-1,97.49,97.49,0,0,0,398.91.6a95.45,95.45,0,0,1,0,187.68A95.45,95.45,0,0,0,511.77,91.71Z" transform="translate(-1 1)"/><path class="cls-6" d="M191.88,414.56a95.44,95.44,0,1,1-95.44-95.44A95.44,95.44,0,0,1,191.88,414.56Z" transform="translate(-1 1)"/><path class="cls-7" d="M96.44,319.12a95.81,95.81,0,0,0-21.5,2.43,95.47,95.47,0,0,1,0,186,95.45,95.45,0,1,0,21.5-188.45Z" transform="translate(-1 1)"/><path class="cls-8" d="M511.81,414.56a95.44,95.44,0,1,1-95.45-95.44A95.44,95.44,0,0,1,511.81,414.56Z" transform="translate(-1 1)"/><path class="cls-9" d="M416.37,319.12a96,96,0,0,0-19.24,1.94,95.46,95.46,0,0,1,0,187,95.45,95.45,0,1,0,19.24-188.94Z" transform="translate(-1 1)"/><path class="cls-10" d="M141.54,57.3a51.23,51.23,0,0,1-11.62,5.16,21,21,0,0,0-36.76,14v4.67A49.85,49.85,0,0,1,52.52,61.94a1.36,1.36,0,0,0-2.35.38C47,71.41,38.31,104.71,74.45,120.78a54.5,54.5,0,0,1-27.23,9.29,1.37,1.37,0,0,0-.51,2.6c41.06,19,88.54-4.65,88.54-56.33a21.07,21.07,0,0,0-.37-3.88,36.25,36.25,0,0,0,8.64-13.53A1.37,1.37,0,0,0,141.54,57.3Z" transform="translate(-1 1)"/><path class="cls-10" d="M409.64,154.94a8.43,8.43,0,0,1-8.43-8.43v-83A29.61,29.61,0,0,1,430.79,34h10a8.43,8.43,0,1,1,0,16.86h-10a12.74,12.74,0,0,0-12.73,12.72v83A8.43,8.43,0,0,1,409.64,154.94Z" transform="translate(-1 1)"/><path class="cls-10" d="M429.25,101.24H391a8.43,8.43,0,1,1,0-16.85h38.25a8.43,8.43,0,1,1,0,16.85Z" transform="translate(-1 1)"/><path class="cls-10" d="M76.05,413.52V383.2a2.89,2.89,0,0,1,4.34-2.51l26.25,15.16L132.88,411a2.91,2.91,0,0,1,0,5l-26.24,15.16L80.39,446.35a2.9,2.9,0,0,1-4.34-2.52Z" transform="translate(-1 1)"/><path class="cls-10" d="M449.87,469.89h-67A21.85,21.85,0,0,1,361,448.06v-67a21.85,21.85,0,0,1,21.82-21.83h67a21.86,21.86,0,0,1,21.83,21.83v67A21.86,21.86,0,0,1,449.87,469.89Zm-67-93.81a5,5,0,0,0-5,5v67a5,5,0,0,0,5,5h67a5,5,0,0,0,5-5v-67a5,5,0,0,0-5-5Z" transform="translate(-1 1)"/><path class="cls-10" d="M416.36,438.59a24,24,0,1,1,24-24A24.06,24.06,0,0,1,416.36,438.59Zm0-31.2a7.17,7.17,0,1,0,7.17,7.17A7.17,7.17,0,0,0,416.36,407.39Z" transform="translate(-1 1)"/><path class="cls-11" d="M226.61,331.17l-3.05-58.73a8.43,8.43,0,0,0-16.83.88l3.05,58.73a8.42,8.42,0,0,0,8.41,8h.44A8.42,8.42,0,0,0,226.61,331.17Z" transform="translate(-1 1)"/><path class="cls-12" d="M236.07,272.88H200.76a7.75,7.75,0,0,1-7.75-7.75v-40.5a7.76,7.76,0,0,1,7.75-7.76h35.31a1.21,1.21,0,0,1,1.21,1.21v53.6A1.21,1.21,0,0,1,236.07,272.88Z" transform="translate(-1 1)"/><path class="cls-13" d="M312.2,299.82a239,239,0,0,0-74.92-30v-50a237,237,0,0,0,36-10.67,236.77,236.77,0,0,0,39-19.29Z" transform="translate(-1 1)"/><path class="cls-14" d="M312.2,316.07a8.43,8.43,0,0,1-8.43-8.43V182.11a8.43,8.43,0,1,1,16.86,0V307.64A8.42,8.42,0,0,1,312.2,316.07Z" transform="translate(-1 1)"/></svg>