<svg clip-rule="evenodd" fill-rule="evenodd" height="512" image-rendering="optimizeQuality" shape-rendering="geometricPrecision" text-rendering="geometricPrecision" viewBox="0 0 850 850" width="512" xmlns="http://www.w3.org/2000/svg" xmlns:xlink="http://www.w3.org/1999/xlink"><linearGradient id="id0" gradientUnits="userSpaceOnUse" x1="425" x2="425" y1="850" y2="0"><stop offset="0" stop-color="#1aa8dc"/><stop offset=".490196" stop-color="#ae3b89"/><stop offset="1" stop-color="#f26270"/></linearGradient><g id="Layer_x0020_1"><circle cx="425" cy="425" fill="url(#id0)" r="425"/><path d="m674 677h-497c-5 0-8-4-8-8v-370c0-2 0-5 2-6 2-2 4-3 7-3h122c4-65 58-117 125-117 66 0 120 52 124 117h125c4 0 7 3 7 8v371c0 5-4 8-7 8zm-374-372h-106l231 230 231-230h-107c-3 65-58 118-124 118s-121-52-125-118zm125-118c-61 0-110 50-110 111 0 60 49 110 110 110s110-50 110-110c0-61-49-111-110-111zm-26 137-54-29c-6-3-5-11 0-13l141-55c7-2 12 4 10 10l-55 140c-2 6-10 7-13 1zm60-71-94 37 38 19zm-45 67 19 37 37-94zm-230 333 176-162-176-176zm187-151-176 161h460l-176-161-49 49c-2 3-8 2-10 0zm118-11 177 162v-338z" fill="#fff"/></g></svg>