<svg clip-rule="evenodd" fill-rule="evenodd" height="512" image-rendering="optimizeQuality" shape-rendering="geometricPrecision" text-rendering="geometricPrecision" viewBox="0 0 850 850" width="512" xmlns="http://www.w3.org/2000/svg" xmlns:xlink="http://www.w3.org/1999/xlink"><linearGradient id="id0" gradientUnits="userSpaceOnUse" x1="425" x2="425" y1="850" y2="0"><stop offset="0" stop-color="#1aa8dc"/><stop offset=".490196" stop-color="#ae3b89"/><stop offset="1" stop-color="#f26270"/></linearGradient><g id="Layer_x0020_1"><circle cx="425" cy="425" fill="url(#id0)" r="425"/><g id="_555490072"><g><g><g><path d="m405 516h-21c-4 0-7-4-7-8v-43c0-4 3-7 7-7h21c5 0 8 3 8 7v43c0 4-3 8-8 8zm-13-15h6v-28h-6z" fill="#fff"/></g><g><path d="m443 516h-21c-4 0-7-4-7-8v-68c0-5 3-8 7-8h21c4 0 8 3 8 8v68c0 4-4 8-8 8zm-13-15h6v-54h-6z" fill="#fff"/></g><g><path d="m481 516h-21c-4 0-8-4-8-8v-43c0-4 4-8 8-8h21c4 0 8 4 8 8v43c-1 4-4 8-8 8zm-14-15h7v-29h-7z" fill="#fff"/></g><g><path d="m519 516h-21c-4 0-8-4-8-8v-92c0-4 4-7 8-7h21c4 0 8 3 8 7v93c0 3-4 7-8 7zm-14-15h7v-78h-7z" fill="#fff"/></g><g><path d="m389 434c-2 0-4-2-6-4-2-3-1-7 2-10l38-26c2-1 6-1 8 0l32 22 34-43c3-4 7-4 10-2 4 3 4 7 2 11l-38 49c-3 3-7 4-10 1l-34-22-34 22c-1 1-2 2-4 2z" fill="#fff"/></g><g><path d="m505 410c-4 0-8-3-8-7l-1-18-17 1c-4 1-8-3-8-6-1-5 3-8 6-8l25-2c3 0 4 0 6 2 2 1 2 3 2 5l2 25c0 4-3 7-7 8z" fill="#fff"/></g></g><g><path d="m499 668h-290c-22 0-40-18-40-40v-410c0-22 18-40 40-40h225c2 0 4 1 5 2l98 98c1 1 2 3 2 5v80c0 4-3 7-7 7-5 0-8-3-8-7v-77l-93-93h-222c-14 0-26 11-26 25v410c0 14 12 25 26 25h290c14 0 26-11 26-25v-105c0-4 3-8 7-8s8 4 8 8v105c-1 22-19 40-41 40z" fill="#fff"/></g><g><path d="m452 563c-31 0-62-11-86-35-47-47-47-123 0-170 23-23 54-36 86-36s62 13 85 36c47 47 47 123 0 170-23 24-54 35-85 35zm0-226c-29 0-55 11-75 31-42 41-42 108 0 150 41 41 108 41 150 0 41-41 41-108 0-150-20-20-47-31-75-31z" fill="#fff"/></g><g><path d="m569 567c-2 0-4 0-5-2l-37-37c-3-3-3-8 0-11 3-2 7-2 10 0l37 38c3 2 3 7 0 10-2 2-3 2-5 2z" fill="#fff"/></g><g><path d="m651 672c-7 0-15-3-21-9l-66-66c-12-12-12-31 0-42 12-12 31-12 43 0l65 66c12 12 12 31 0 43-5 5-13 8-21 8zm-77-107c-6 6-6 16 0 22l66 66c6 6 16 6 22 0s6-16 0-21l-66-67c-6-6-16-6-22 0z" fill="#fff"/></g><g><path d="m444 600h-179c-5 0-8-3-8-7s3-8 8-8h179c4 0 7 4 7 8s-4 7-7 7z" fill="#fff"/></g><g><path d="m444 276h-179c-5 0-8-3-8-7s3-8 8-8h179c4 0 7 4 7 8s-4 7-7 7z" fill="#fff"/></g><g><path d="m324 387h-116c-4 0-8-3-8-7 0-5 4-8 8-8h116c4 0 8 3 8 8 0 4-4 7-8 7z" fill="#fff"/></g><g><path d="m300 450h-91c-4 0-8-3-8-8 0-4 4-7 8-7h91c4 0 7 3 7 7 0 5-3 8-7 8z" fill="#fff"/></g><g><path d="m324 512h-116c-4 0-8-3-8-7s4-8 8-8h116c4 0 8 4 8 8s-4 7-8 7z" fill="#fff"/></g></g></g></g></svg>