<svg width="72" height="72" viewBox="0 0 72 72" fill="none" xmlns="http://www.w3.org/2000/svg">
<path fill-rule="evenodd" clip-rule="evenodd" d="M53.1775 38.6758C61.1694 38.6758 67.6481 45.1545 67.6481 53.1463C67.6481 61.1382 61.1694 67.6169 53.1775 67.6169C45.1857 67.6169 38.707 61.1382 38.707 53.1463C38.707 45.1545 45.1857 38.6758 53.1775 38.6758ZM46.6045 49.7365C47.6228 49.7365 48.5374 50.18 49.1661 50.8843L53.4005 48.7326C53.3506 48.4997 53.3241 48.2581 53.3241 48.0103C53.3241 46.1144 54.8611 44.5774 56.757 44.5774C58.653 44.5774 60.1899 46.1144 60.1899 48.0103C60.1899 49.6024 59.106 50.9412 57.636 51.3294V55.0094C59.106 55.3976 60.1899 56.7363 60.1899 58.3285C60.1899 60.2244 58.653 61.7614 56.757 61.7614C54.8611 61.7614 53.3241 60.2244 53.3241 58.3285C53.3241 58.0807 53.3506 57.8391 53.4005 57.6062L49.1661 55.4545C48.5374 56.1588 47.6228 56.6023 46.6045 56.6023C44.7085 56.6023 43.1716 55.0653 43.1716 53.1694C43.1716 51.2735 44.7085 49.7365 46.6045 49.7365ZM49.961 52.4471C50.0109 52.68 50.0374 52.9216 50.0374 53.1694C50.0374 53.4172 50.0109 53.6588 49.961 53.8917L54.1954 56.0434C54.6365 55.5492 55.2184 55.1836 55.8781 55.0094V51.3294C55.2184 51.1552 54.6365 50.7896 54.1954 50.2954L49.961 52.4471Z" fill="white"/>
<path fill-rule="evenodd" clip-rule="evenodd" d="M21.1223 4.38281H9.68528C9.07149 4.38281 8.56822 4.88599 8.56822 5.49983V9.09059C8.56822 10.4249 7.51673 11.5342 6.18479 11.6082C5.6753 11.6366 5.21626 11.8646 4.88495 12.215C4.55538 12.5635 4.35254 13.0336 4.35254 13.5486V50.5995C4.35254 52.1533 4.9506 53.5977 5.93599 54.6612C8.09428 56.9903 11.5833 56.9238 13.9936 55.0095C15.0636 54.1598 15.8203 52.9619 15.9815 51.5167L19.3074 21.714C19.4026 20.8598 19.8074 19.9285 20.4363 19.25C21.0126 18.628 21.7771 18.2053 22.6764 18.2053H52.7149V13.5486C52.7149 13.0156 52.4961 12.5304 52.1438 12.1781C51.7914 11.8257 51.306 11.6069 50.7731 11.6069H25.7795C24.6163 11.6069 23.6174 10.8261 23.3333 9.69857L22.2061 5.2254C22.0776 4.71487 21.648 4.38281 21.1223 4.38281Z" fill="white"/>
<path fill-rule="evenodd" clip-rule="evenodd" d="M22.6762 19.6133C22.208 19.6133 21.7911 19.8537 21.4633 20.2074C21.0396 20.6646 20.7668 21.2929 20.7025 21.8694L17.3766 51.6721C17.1707 53.5177 16.2156 55.0386 14.8669 56.1098C14.7242 56.2231 14.577 56.3313 14.4258 56.4343L37.6405 56.4327C37.4176 55.3732 37.3005 54.2747 37.3005 53.149C37.3005 44.381 44.4092 37.2722 53.1772 37.2722C55.0938 37.2722 56.9311 37.6119 58.6322 38.2343L61.2924 21.4452C61.3645 20.988 61.1621 20.5499 60.8403 20.2319C60.4456 19.8418 59.8945 19.6133 59.3396 19.6133H22.6762ZM23.4041 45.6706H35.0811L34.1437 50.5154H22.4666L23.4041 45.6706Z" fill="white"/>
</svg>
