<svg width="72" height="72" viewBox="0 0 72 72" fill="none" xmlns="http://www.w3.org/2000/svg">
<path fill-rule="evenodd" clip-rule="evenodd" d="M34.0391 62.5172H67.6828C69.0899 62.5172 70.2419 61.3652 70.2419 59.9581V21.7341L58.0082 21.7421L57.9923 9.48438H29.8894C28.4823 9.48438 27.3303 10.6364 27.3303 12.0435V19.7409C27.6732 19.7209 28.0159 19.713 28.3548 19.713C32.7954 19.713 37.4473 21.1879 40.6164 24.3968C42.9604 26.7727 44.188 29.7822 44.3316 33.1067C44.5189 37.364 42.9245 41.6293 40.8876 45.3006C40.1223 46.6798 39.2174 47.8757 38.2885 49.1433C37.7584 49.8688 37.0966 50.7737 36.8415 51.6426C36.7418 51.9855 36.7059 52.3242 36.7339 52.683L36.8934 54.7997H35.7095V56.155C35.7095 57.3748 35.1395 58.467 34.2546 59.1766V61.4647C34.2546 61.5165 34.2506 61.5643 34.2465 61.6162V61.6242C34.2426 61.6481 34.2426 61.672 34.2385 61.6959V61.6998C34.2385 61.7237 34.2344 61.7517 34.2305 61.7756C34.2266 61.8035 34.2225 61.8275 34.2186 61.8514V61.8554C34.2146 61.8793 34.2105 61.9032 34.2066 61.9271V61.931C34.2027 61.9549 34.1986 61.9829 34.1906 62.0068C34.1866 62.0307 34.1826 62.0546 34.1747 62.0785V62.0866C34.1707 62.1105 34.1627 62.1304 34.1586 62.1543V62.1583C34.1506 62.1822 34.1428 62.2061 34.1387 62.23L34.1347 62.2339C34.1308 62.2539 34.1228 62.2778 34.1148 62.3017V62.3057C34.1068 62.3296 34.0989 62.3495 34.0909 62.3734V62.3774C34.0829 62.4013 34.0748 62.4212 34.067 62.4412L34.063 62.4532C34.055 62.4731 34.0511 62.493 34.0431 62.5129L34.0391 62.5169V62.5172ZM17.5441 44.344C19.5291 47.9156 22.1761 49.7573 21.9409 52.8308H27.3701V44.651C27.3662 44.6072 27.3621 44.5633 27.3621 44.5195C27.3621 43.9734 27.8045 43.5349 28.3466 43.5349H28.3546C28.8967 43.5349 29.3391 43.9734 29.3391 44.5195V52.8308H34.7684C34.5333 49.7574 37.1801 47.9158 39.1652 44.344C55.9351 14.1285 0.773992 14.1285 17.5441 44.344ZM25.0501 41.6135C24.508 41.6135 24.0654 41.1751 24.0654 40.629C24.0654 40.0869 24.5078 39.6445 25.0501 39.6445H31.5197C31.5636 39.6404 31.6074 39.6365 31.6512 39.6365C32.1933 39.6365 32.6358 40.0789 32.6358 40.6211V40.6292C32.6358 41.1753 32.1934 41.6137 31.6512 41.6137H25.0499L25.0501 41.6135ZM25.0501 37.7269C24.508 37.7269 24.0654 37.2845 24.0654 36.7424C24.0654 36.2003 24.5078 35.7578 25.0501 35.7578H31.5197C31.5636 35.7538 31.6074 35.7497 31.6512 35.7497C32.1933 35.7497 32.6358 36.1882 32.6358 36.7343V36.7423C32.6358 37.2844 32.1934 37.7268 31.6512 37.7268H25.0499L25.0501 37.7269ZM24.8747 58.0606H31.8347C32.883 58.0606 33.7401 57.2036 33.7401 56.1551V54.7998H22.9694V56.1551C22.9694 57.2035 23.8262 58.0606 24.8747 58.0606ZM25.5563 62.5172H31.1531C31.7749 62.5172 32.2851 62.007 32.2851 61.381V60.0018C32.1376 60.0178 31.9901 60.0296 31.8347 60.0296H24.8747C24.7233 60.0296 24.5718 60.0177 24.4243 60.0018V61.381C24.4243 62.0068 24.9345 62.5172 25.5563 62.5172ZM14.6981 13.1079C14.427 12.6414 14.5865 12.0395 15.0569 11.7685C15.5272 11.4974 16.1252 11.6569 16.3962 12.1233L20.2828 18.856C20.5578 19.3264 20.3944 19.9244 19.928 20.1994C19.4576 20.4704 18.8557 20.3111 18.5846 19.8407L14.698 13.108L14.6981 13.1079ZM5.68518 22.8422C5.21479 22.5712 5.05532 21.9733 5.32251 21.5029C5.59349 21.0366 6.19143 20.873 6.66182 21.1442L13.3906 25.0307C13.861 25.2978 14.0244 25.8957 13.7534 26.3661C13.4864 26.8365 12.8845 26.9999 12.4141 26.7289L5.68532 22.8423L5.68518 22.8422ZM2.7433 35.7815C2.19726 35.7815 1.75879 35.3431 1.75879 34.8009C1.75879 34.2549 2.19726 33.8164 2.7433 33.8164H10.5124C11.0586 33.8164 11.4971 34.2549 11.4971 34.8009C11.4971 35.3431 11.0586 35.7815 10.5124 35.7815H2.7433ZM70.242 19.7649L59.9735 19.7729L59.9615 9.48452L70.2419 19.7649H70.242ZM46.2291 31.0101H63.306V24.6681H46.2291V31.0101ZM46.2291 38.3368C45.6829 38.3368 45.2444 37.8944 45.2444 37.3523C45.2444 36.8061 45.6829 36.3677 46.2291 36.3677H63.306C63.852 36.3677 64.2905 36.8061 64.2905 37.3523C64.2905 37.8944 63.852 38.3368 63.306 38.3368H46.2291ZM39.4764 58.6029C38.9343 58.6029 38.4919 58.1604 38.4919 57.6182C38.4919 57.0722 38.9343 56.6337 39.4764 56.6337H63.306C63.852 56.6337 64.2905 57.0722 64.2905 57.6182C64.2905 58.1603 63.852 58.6029 63.306 58.6029H39.4764ZM39.4764 51.8462C38.9343 51.8462 38.4919 51.4038 38.4919 50.8617C38.4919 50.3196 38.9343 49.8771 39.4764 49.8771H63.306C63.852 49.8771 64.2905 50.3195 64.2905 50.8617C64.2905 51.404 63.852 51.8462 63.306 51.8462H39.4764ZM46.2291 45.0896C45.6829 45.0896 45.2444 44.6512 45.2444 44.105C45.2444 43.5629 45.6829 43.1205 46.2291 43.1205H63.306C63.852 43.1205 64.2905 43.5629 64.2905 44.105C64.2905 44.6512 63.852 45.0896 63.306 45.0896H46.2291Z" fill="white"/>
</svg>
