<svg width="72" height="72" viewBox="0 0 72 72" fill="none" xmlns="http://www.w3.org/2000/svg">
<path d="M20.25 16.5C18.594 16.5 17.25 15.156 17.25 13.5V3C17.25 1.344 18.594 0 20.25 0C21.906 0 23.25 1.344 23.25 3V13.5C23.25 15.156 21.906 16.5 20.25 16.5Z" fill="#4CAF50"/>
<path d="M34.5 16.5C32.844 16.5 31.5 15.156 31.5 13.5V3C31.5 1.344 32.844 0 34.5 0C36.156 0 37.5 1.344 37.5 3V13.5C37.5 15.156 36.156 16.5 34.5 16.5Z" fill="#4CAF50"/>
<path d="M48.75 16.5C47.094 16.5 45.75 15.156 45.75 13.5V3C45.75 1.344 47.094 0 48.75 0C50.406 0 51.75 1.344 51.75 3V13.5C51.75 15.156 50.406 16.5 48.75 16.5Z" fill="#4CAF50"/>
<path d="M54.75 6.75H14.25C9.699 6.75 6 10.449 6 15V63.75C6 68.301 9.699 72 14.25 72H54.75C59.301 72 63 68.301 63 63.75V15C63 10.449 59.301 6.75 54.75 6.75ZM21 24H36C37.656 24 39 25.344 39 27C39 28.656 37.656 30 36 30H21C19.344 30 18 28.656 18 27C18 25.344 19.344 24 21 24ZM51 54H21C19.344 54 18 52.656 18 51C18 49.344 19.344 48 21 48H51C52.656 48 54 49.344 54 51C54 52.656 52.656 54 51 54ZM51 42H21C19.344 42 18 40.656 18 39C18 37.344 19.344 36 21 36H51C52.656 36 54 37.344 54 39C54 40.656 52.656 42 51 42Z" fill="#4CAF50"/>
</svg>
