<svg height="512" viewBox="0 0 152 152" width="512" xmlns="http://www.w3.org/2000/svg" xmlns:xlink="http://www.w3.org/1999/xlink"><radialGradient id="radial-gradient" cx="76" cy="76" gradientUnits="userSpaceOnUse" r="76"><stop offset="0" stop-color="#42a5f5"/><stop offset="1" stop-color="#1565c0"/></radialGradient><g id="Layer_2" data-name="Layer 2"><g id="Circle"><g id="_01._Facebook" data-name="01. Facebook"><rect id="Background" fill="url(#radial-gradient)" height="152" rx="76" width="152"/><g fill="#fff"><path id="Shade" d="m133.2 26c-11.08 20.34-26.75 41.32-46.33 60.9s-40.56 35.22-60.87 46.3q-1.91-1.66-3.71-3.46a76 76 0 1 1 107.45-107.48q1.8 1.8 3.46 3.74z" opacity=".1"/><path id="Icon" d="m66.44 81.17h-9.94c-1.57 0-2.12-.57-2.12-2.14q0-6.06 0-12.13c0-1.56.59-2.15 2.13-2.15h9.93v-8.75a21.89 21.89 0 0 1 2.73-11.26 16.51 16.51 0 0 1 8.93-7.42 21.91 21.91 0 0 1 7.65-1.32h9.83c1.41 0 2 .62 2 2v11.41c0 1.43-.6 2-2 2-2.69 0-5.38 0-8.06.11s-4.14 1.33-4.14 4.13c-.06 3 0 5.94 0 9h11.55c1.64 0 2.2.56 2.2 2.21q0 6 0 12.06c0 1.63-.52 2.15-2.17 2.15h-11.64v32.54c0 1.74-.55 2.29-2.26 2.29h-12.52c-1.51 0-2.1-.59-2.1-2.1z"/></g></g></g></g></svg>