<svg id="Layer_1" data-name="Layer 1" xmlns="http://www.w3.org/2000/svg" xmlns:xlink="http://www.w3.org/1999/xlink" viewBox="0 0 506.38 505.94"><defs><style>.cls-1{fill:url(#radial-gradient);}.cls-2,.cls-3,.cls-4{fill:#fff;}.cls-2{isolation:isolate;opacity:0.1;}.cls-4{fill-rule:evenodd;}</style><radialGradient id="radial-gradient" cx="-418.26" cy="636.54" r="75.1" gradientTransform="matrix(3.37, 0, 0, -3.37, 1665, 2401.63)" gradientUnits="userSpaceOnUse"><stop offset="0" stop-color="#42a5f5"/><stop offset="1" stop-color="#1565c0"/></radialGradient></defs><path id="Background" class="cls-1" d="M256.11,4.53h0c139.72,0,253,113.26,253,253h0c0,139.71-113.25,253-253,253h0c-139.71,0-253-113.26-253-253h0C3.14,117.79,116.4,4.53,256.11,4.53Z" transform="translate(-2.7 -4.53)"/><path id="Shade" class="cls-2" d="M449,94.09c-36.88,67.7-89,137.53-154.22,202.71S159.81,414,92.2,450.91q-6.35-5.52-12.34-11.52C-20.6,342.29-23.32,182.14,73.78,81.69S331-21.48,431.49,75.62q3.06,3,6,6,6,6,11.52,12.45Z" transform="translate(-2.7 -4.53)"/><rect class="cls-3" x="124.63" y="210.12" width="52.74" height="178" rx="13.19"/><circle class="cls-3" cx="151" cy="150.78" r="32.96"/><path class="cls-4" d="M272.37,238.65a60.77,60.77,0,0,1,52.75-30.59c33.53,0,65.92,19.78,65.92,72.52v98.89a13.18,13.18,0,0,1-13.17,13.19H351.49a13.19,13.19,0,0,1-13.19-13.18h0v-92.3a33,33,0,0,0-65.93,0v92.3a13.18,13.18,0,0,1-13.17,13.19H232.82a13.19,13.19,0,0,1-13.19-13.18h0V227.84a13.19,13.19,0,0,1,13.18-13.19h26.38a13.18,13.18,0,0,1,13.18,13.18h0Z" transform="translate(-2.7 -4.53)"/></svg>