<svg id="Layer_1" data-name="Layer 1" xmlns="http://www.w3.org/2000/svg" xmlns:xlink="http://www.w3.org/1999/xlink" viewBox="0 0 506.38 505.94"><defs><style>.cls-1{fill:url(#radial-gradient);}.cls-2{fill:#00a1e0;}.cls-3,.cls-4{fill:#fff;}.cls-3{isolation:isolate;opacity:0.1;}</style><radialGradient id="radial-gradient" cx="-417.88" cy="636.54" r="75.1" gradientTransform="matrix(3.37, 0, 0, -3.37, 1665, 2401.63)" gradientUnits="userSpaceOnUse"><stop offset="0" stop-color="#42a5f5"/><stop offset="1" stop-color="#1565c0"/></radialGradient></defs><path id="Background" class="cls-1" d="M257.41,4.53h0c139.72,0,253,113.26,253,253h0c0,139.71-113.25,253-253,253h0c-139.71,0-253-113.26-253-253h0C4.44,117.79,117.7,4.53,257.41,4.53Z" transform="translate(-4 -4.53)"/><path class="cls-2" d="M220.69,140.8a84.1,84.1,0,0,1,60.87-26.13c31.68,0,59.33,17.67,74.05,43.89a102.4,102.4,0,0,1,41.85-8.89c57.15,0,103.48,46.73,103.48,104.38S454.61,358.44,397.46,358.44a102.23,102.23,0,0,1-20.38-2A75.64,75.64,0,0,1,278,387.54a86.31,86.31,0,0,1-160.44-3.9,79,79,0,0,1-16.46,1.72c-44.25,0-80.12-36.24-80.12-80.95A81,81,0,0,1,61,234.29,93.22,93.22,0,0,1,220.69,140.8" transform="translate(-4 -4.53)"/><path id="Shade" class="cls-3" d="M450.33,94.09c-36.88,67.7-89,137.53-154.22,202.71S161.11,414,93.5,450.91q-6.34-5.52-12.34-11.52C-19.3,342.29-22,182.14,75.08,81.69S332.33-21.48,432.79,75.62q3.06,3,6,6,6,6,11.52,12.45Z" transform="translate(-4 -4.53)"/><path class="cls-4" d="M90.46,278.39c-.3.78.11.95.21,1.08a28.16,28.16,0,0,0,2.74,1.66,29.2,29.2,0,0,0,14.35,3.36c9.85,0,16-5.24,16-13.67v-.17c0-7.79-6.9-10.62-13.37-12.67l-.84-.27c-4.89-1.59-9.1-2.95-9.1-6.17v-.17c0-2.75,2.46-4.77,6.28-4.77a28.39,28.39,0,0,1,12.51,3.2s1,.61,1.3-.31c.19-.49,1.83-4.91,2-5.39A.91.91,0,0,0,122,243a27.87,27.87,0,0,0-14.1-3.78h-1c-9,0-15.3,5.45-15.3,13.25v.16c0,8.23,6.94,10.89,13.44,12.75l1.05.33c4.74,1.45,8.82,2.7,8.82,6v.16c0,3.05-2.65,5.32-6.93,5.32a23.28,23.28,0,0,1-12.69-3.65c-.69-.4-1.09-.69-1.62-1a.79.79,0,0,0-1.3.45l-1.94,5.39Z" transform="translate(-4 -4.53)"/><path class="cls-4" d="M234.61,278.39c-.3.78.11.95.2,1.08a28.16,28.16,0,0,0,2.74,1.66,29.23,29.23,0,0,0,14.36,3.36c9.84,0,16-5.24,16-13.67v-.17c0-7.79-6.9-10.62-13.38-12.67l-.84-.27c-4.88-1.59-9.09-2.95-9.09-6.17v-.17c0-2.75,2.46-4.77,6.27-4.77a28.47,28.47,0,0,1,12.52,3.2s.95.61,1.3-.31c.19-.49,1.83-4.91,2-5.39a.93.93,0,0,0-.48-1.11,27.91,27.91,0,0,0-14.11-3.78h-1c-9,0-15.3,5.45-15.3,13.25v.16c0,8.23,6.94,10.89,13.44,12.75l1.05.33c4.73,1.45,8.82,2.7,8.82,6v.16c0,3.05-2.66,5.32-6.94,5.32a23.24,23.24,0,0,1-12.68-3.65c-.69-.4-1.1-.68-1.62-1a.85.85,0,0,0-1.3.45l-1.94,5.39Z" transform="translate(-4 -4.53)"/><path class="cls-4" d="M333,261.87c0,4.77-.89,8.52-2.64,11.17s-4.35,3.91-8,3.91-6.26-1.27-8-3.91-2.6-6.4-2.6-11.17.87-8.5,2.6-11.13,4.3-3.86,8-3.86,6.27,1.26,8,3.86,2.63,6.37,2.63,11.13m8.22-8.83a19.87,19.87,0,0,0-3.74-7.14,18.23,18.23,0,0,0-6.31-4.8,22.81,22.81,0,0,0-17.62,0,18.17,18.17,0,0,0-6.32,4.8A20,20,0,0,0,303.5,253a33.12,33.12,0,0,0,0,17.67,19.7,19.7,0,0,0,3.75,7.13,17.57,17.57,0,0,0,6.31,4.76,23.3,23.3,0,0,0,17.62,0,17.66,17.66,0,0,0,6.31-4.76,19.91,19.91,0,0,0,3.74-7.13,32.86,32.86,0,0,0,0-17.67" transform="translate(-4 -4.53)"/><path class="cls-4" d="M408.72,275.68a.77.77,0,0,0-1-.5,18.64,18.64,0,0,1-3.83,1.09,29.86,29.86,0,0,1-4.5.32c-4,0-7.14-1.18-9.4-3.52s-3.55-6.12-3.53-11.23c0-4.66,1.13-8.16,3.15-10.83s5.05-4,9.12-4a27.51,27.51,0,0,1,8.69,1.24s.65.28.95-.56c.72-2,1.25-3.43,2-5.62a.74.74,0,0,0-.51-1,31.86,31.86,0,0,0-5.48-1.38,41.65,41.65,0,0,0-6.17-.42,22.28,22.28,0,0,0-9.16,1.77,19,19,0,0,0-6.62,4.79,20.55,20.55,0,0,0-4,7.14,28.35,28.35,0,0,0-1.34,8.85c0,6.81,1.84,12.33,5.47,16.36s9.1,6.11,16.23,6.11a33.48,33.48,0,0,0,11.63-2.08.75.75,0,0,0,.34-1l-2-5.57Z" transform="translate(-4 -4.53)"/><path class="cls-4" d="M423.1,257.31a16.17,16.17,0,0,1,2.25-6.57,8.86,8.86,0,0,1,7.95-4,8.63,8.63,0,0,1,7.8,4,13.8,13.8,0,0,1,1.85,6.57Zm27.67-5.82a17.07,17.07,0,0,0-3.56-6.51,16.26,16.26,0,0,0-5.28-4,20.35,20.35,0,0,0-8-1.61,21.76,21.76,0,0,0-9.18,1.78,18.25,18.25,0,0,0-6.41,4.89,20.15,20.15,0,0,0-3.77,7.22,31.35,31.35,0,0,0-1.22,8.88,29.84,29.84,0,0,0,1.26,8.89,18.52,18.52,0,0,0,4,7.07,18.29,18.29,0,0,0,7,4.63,28.2,28.2,0,0,0,10.1,1.64c8,0,12.27-1.82,14-2.79.31-.17.61-.47.24-1.33l-1.82-5.09a.8.8,0,0,0-1.05-.48,26.9,26.9,0,0,1-11.42,2.05c-4.31,0-7.51-1.28-9.52-3.27s-3.06-5-3.24-9.26l27.83,0a.81.81,0,0,0,.8-.73,29.67,29.67,0,0,0-.83-12Z" transform="translate(-4 -4.53)"/><path class="cls-4" d="M200.28,257.31a16.47,16.47,0,0,1,2.25-6.57,8.89,8.89,0,0,1,8-4,8.65,8.65,0,0,1,7.8,4,13.91,13.91,0,0,1,1.84,6.57ZM228,251.49a17.21,17.21,0,0,0-3.56-6.51,16.34,16.34,0,0,0-5.27-4,20.41,20.41,0,0,0-8-1.61,21.8,21.8,0,0,0-9.18,1.78,18.34,18.34,0,0,0-6.41,4.89,20,20,0,0,0-3.76,7.22,31.34,31.34,0,0,0-1.23,8.88,29.84,29.84,0,0,0,1.27,8.89,17.81,17.81,0,0,0,11,11.7A28.11,28.11,0,0,0,213,284.34c8,0,12.27-1.82,14-2.79.3-.17.6-.47.23-1.33l-1.81-5.09a.81.81,0,0,0-1.06-.48,26.86,26.86,0,0,1-11.42,2.05c-4.31,0-7.51-1.28-9.51-3.27s-3.07-5-3.25-9.26l27.83,0a.81.81,0,0,0,.8-.73,29.67,29.67,0,0,0-.83-12Z" transform="translate(-4 -4.53)"/><path class="cls-4" d="M140.15,275.52a5.54,5.54,0,0,1-1.61-1.64,6.73,6.73,0,0,1-.83-3.62,6.1,6.1,0,0,1,2.48-5.39s2.4-2.08,8.07-2a58.38,58.38,0,0,1,7.55.64v12.65h0a56.64,56.64,0,0,1-7.52,1c-5.66.34-8.17-1.63-8.15-1.63M151.22,256c-1.13-.08-2.59-.12-4.35-.12a26.46,26.46,0,0,0-6.85.88,17.92,17.92,0,0,0-5.81,2.69,13,13,0,0,0-5.52,11,14.57,14.57,0,0,0,1.28,6.36,11.34,11.34,0,0,0,3.63,4.34,15.16,15.16,0,0,0,5.66,2.46,33.28,33.28,0,0,0,7.37.75,50.45,50.45,0,0,0,8.45-.7c2.73-.47,6.08-1.15,7-1.36s1.95-.5,1.95-.5a.87.87,0,0,0,.63-.91V255.42c0-5.58-1.49-9.72-4.42-12.28s-7.22-3.85-12.78-3.85A46.19,46.19,0,0,0,140,240s-6.08,1.18-8.58,3.13a.87.87,0,0,0-.24,1.11l2,5.29a.7.7,0,0,0,.91.45,3.18,3.18,0,0,0,.46-.22c5.36-2.91,12.13-2.82,12.13-2.82,3,0,5.32.6,6.87,1.79s2.3,2.92,2.3,6.63v1.18c-2.4-.35-4.59-.55-4.59-.55" transform="translate(-4 -4.53)"/><path class="cls-4" d="M375.62,241.64a.76.76,0,0,0-.42-1,24.84,24.84,0,0,0-4.66-.8,13.89,13.89,0,0,0-7.18,1.16,12.66,12.66,0,0,0-4.7,3.46v-3.38a.81.81,0,0,0-.8-.85h-7.13a.81.81,0,0,0-.8.85v41.5a.85.85,0,0,0,.85.84h7.31a.85.85,0,0,0,.84-.84V261.84a24.17,24.17,0,0,1,.92-7.3,10.49,10.49,0,0,1,2.43-4.09,8.54,8.54,0,0,1,3.44-2.07,13.34,13.34,0,0,1,3.74-.53,15.44,15.44,0,0,1,3.05.38.93.93,0,0,0,1-.75c.48-1.27,1.84-5.08,2.1-5.84" transform="translate(-4 -4.53)"/><path class="cls-4" d="M307,222.41a23.15,23.15,0,0,0-2.75-.66,21.93,21.93,0,0,0-3.78-.29c-5,0-9,1.42-11.78,4.23s-4.65,7-5.6,12.62l-.34,1.88h-6.32a.94.94,0,0,0-.93.81l-1,5.79c-.08.55.16.9.9.9h6.15l-6.24,34.81a42.68,42.68,0,0,1-1.66,6.86,14,14,0,0,1-1.95,4,5.18,5.18,0,0,1-2.54,2,10.43,10.43,0,0,1-3.28.47,12.78,12.78,0,0,1-2.22-.24,6.69,6.69,0,0,1-1.51-.49.76.76,0,0,0-1,.45c-.23.59-1.87,5.1-2.07,5.65a.84.84,0,0,0,.43,1.12A25.07,25.07,0,0,0,262,303a16.94,16.94,0,0,0,4.07.38,20.29,20.29,0,0,0,6.83-1.06,12.77,12.77,0,0,0,5.14-3.58,18.28,18.28,0,0,0,3.61-6.23,52.53,52.53,0,0,0,2.45-9.34l6.27-35.46h9.16a.94.94,0,0,0,.93-.82l1-5.78c.07-.56-.16-.9-.91-.9h-8.89a38.76,38.76,0,0,1,1.47-6.28,8.16,8.16,0,0,1,2-3,5.75,5.75,0,0,1,2.33-1.45,9.6,9.6,0,0,1,3-.43,11.62,11.62,0,0,1,2.28.23,13.69,13.69,0,0,1,1.42.35c.91.27,1,0,1.21-.43l2.13-5.84a.74.74,0,0,0-.51-1" transform="translate(-4 -4.53)"/><path class="cls-4" d="M182.71,282.58a.81.81,0,0,1-.8.84h-7.37a.81.81,0,0,1-.8-.84V223.2a.8.8,0,0,1,.8-.84h7.37a.8.8,0,0,1,.8.84v59.38Z" transform="translate(-4 -4.53)"/></svg>