<svg width="40" height="40" viewBox="0 0 40 40" fill="none" xmlns="http://www.w3.org/2000/svg">
<g clip-path="url(#clip0_57925_3184)">
<path fill-rule="evenodd" clip-rule="evenodd" d="M9.57031 0L24 0.185897L36 12V34.7926C36 37.6712 33.5088 40 30.4403 40H9.57031C6.49114 40 4 37.6712 4 34.7926V5.20738C3.99995 2.32883 6.49108 0 9.57031 0Z" fill="#155EEF"/>
<path d="M14.1121 32H12.6292L14.8888 25.4545H16.6721L18.9285 32H17.4456L15.806 26.9503H15.7549L14.1121 32ZM14.0194 29.4272H17.5223V30.5075H14.0194V29.4272ZM20.0815 25.4545L21.6635 30.4276H21.7243L23.3095 25.4545H24.8436L22.5872 32H20.8038L18.5442 25.4545H20.0815ZM27.0153 25.4545V32H25.6314V25.4545H27.0153Z" fill="white"/>
<path d="M24.0257 8.16V0L36 12H28.0171C24.4248 12 23.8593 9.44 24.0257 8.16Z" fill="white" fill-opacity="0.3"/>
</g>
<defs>
<clipPath id="clip0_57925_3184">
<rect width="40" height="40" fill="white"/>
</clipPath>
</defs>
</svg>
