<svg width="49" height="49" viewBox="0 0 49 49" fill="none" xmlns="http://www.w3.org/2000/svg">
<path d="M26.6957 4.29395H27.2398C33.7467 4.29395 37.0001 4.29395 39.2595 5.88582C39.9069 6.34191 40.4816 6.88281 40.9662 7.49209C42.6576 9.61858 42.6576 12.6806 42.6576 18.8048V23.8835C42.6576 29.7958 42.6576 32.7519 41.7219 35.1129C40.2177 38.9085 37.0367 41.9024 33.0039 43.3181C30.4953 44.1987 27.3545 44.1987 21.0727 44.1987C17.4832 44.1987 15.6884 44.1987 14.2549 43.6955C11.9504 42.8865 10.1327 41.1757 9.27318 39.0068C8.73853 37.6577 8.73853 35.9685 8.73853 32.59V24.2463" stroke="#3276E8" stroke-width="3.19238" stroke-linecap="round" stroke-linejoin="round"/>
<path d="M42.6577 24.2461C42.6577 27.9192 39.68 30.8969 36.0069 30.8969C34.6785 30.8969 33.1124 30.6641 31.8208 31.0102C30.6733 31.3177 29.7769 32.214 29.4694 33.3616C29.1233 34.6532 29.3561 36.2193 29.3561 37.5477C29.3561 41.2208 26.3785 44.1985 22.7053 44.1985" stroke="#3276E8" stroke-width="3.19238" stroke-linecap="round" stroke-linejoin="round"/>
<path d="M22.7051 12.2749L6.74316 12.2749M14.7241 4.29395V20.2558" stroke="#3276E8" stroke-width="3.19238" stroke-linecap="round"/>
</svg>
