<svg width="40" height="40" viewBox="0 0 40 40" fill="none" xmlns="http://www.w3.org/2000/svg">
<g clip-path="url(#clip0_57925_3782)">
<path fill-rule="evenodd" clip-rule="evenodd" d="M9.57031 0H24L36 12V34.7926C36 37.6712 33.5088 40 30.4403 40H9.57031C6.49114 40 4 37.6712 4 34.7926V5.20738C3.99995 2.32883 6.49108 0 9.57031 0Z" fill="#D92D20"/>
<path d="M24 8.16406V0L36 12H28.0171C24.4248 12 24 9.47141 24 8.16406Z" fill="white" fill-opacity="0.3"/>
<g clip-path="url(#clip1_57925_3782)">
<path d="M26.8905 25.832C25.8148 24.6816 22.8777 25.1503 22.1745 25.2355C21.1403 24.213 20.4371 22.9775 20.1889 22.5515C20.5612 21.4011 20.8093 20.2508 20.8507 19.0154C20.8507 17.9503 20.4371 16.8 19.2787 16.8C18.865 16.8 18.4927 17.0556 18.2858 17.3964C17.7894 18.2912 17.9962 20.0805 18.7822 21.9125C18.3272 23.2332 17.9135 24.5113 16.7552 26.7693C15.5555 27.2804 13.032 28.4734 12.8251 29.7516C12.7424 30.1349 12.8665 30.5185 13.1561 30.8166C13.4457 31.0723 13.8179 31.2 14.1903 31.2C15.7209 31.2 17.2102 29.0274 18.2444 27.1952C19.1132 26.8971 20.4783 26.471 21.8435 26.2154C23.4568 27.6639 24.8634 27.8769 25.6081 27.8769C26.6009 27.8769 26.9732 27.4509 27.0973 27.0674C27.3041 26.6415 27.18 26.1728 26.8905 25.832ZM25.8562 26.5563C25.8148 26.8545 25.4426 27.1526 24.7807 26.9823C23.9946 26.7693 23.2914 26.3858 22.6709 25.8745C23.2087 25.7893 24.4083 25.6615 25.2771 25.832C25.6081 25.9171 25.939 26.1302 25.8562 26.5563ZM18.9477 17.7798C19.0305 17.652 19.1546 17.5669 19.2787 17.5669C19.651 17.5669 19.7337 18.0355 19.7337 18.419C19.6923 19.3137 19.5268 20.2083 19.2373 21.0604C18.6167 19.3562 18.7409 18.1632 18.9477 17.7798ZM18.865 26.045C19.196 25.3634 19.6511 24.1704 19.8165 23.6591C20.1888 24.298 20.8093 25.065 21.1403 25.4059C21.1403 25.4485 19.8578 25.7041 18.865 26.045ZM16.4242 27.7492C15.4728 29.3681 14.4799 30.3905 13.9421 30.3905C13.8594 30.3905 13.7766 30.348 13.6939 30.3054C13.5697 30.2201 13.5284 30.0923 13.5697 29.922C13.6939 29.3255 14.7695 28.516 16.4242 27.7492Z" fill="white"/>
</g>
</g>
<defs>
<clipPath id="clip0_57925_3782">
<rect width="40" height="40" fill="white"/>
</clipPath>
<clipPath id="clip1_57925_3782">
<rect width="16" height="16" fill="white" transform="translate(12 16)"/>
</clipPath>
</defs>
</svg>
