<svg width="40" height="40" viewBox="0 0 40 40" fill="none" xmlns="http://www.w3.org/2000/svg">
<g clip-path="url(#clip0_8_30)">
<mask id="mask0_8_30" style="mask-type:luminance" maskUnits="userSpaceOnUse" x="0" y="0" width="40" height="40">
<path d="M40 0H0V40H40V0Z" fill="white"/>
</mask>
<g mask="url(#mask0_8_30)">
<path fill-rule="evenodd" clip-rule="evenodd" d="M9.57031 0L24 0.185897L36 12V34.7926C36 37.6712 33.5088 40 30.4403 40H9.57031C6.49114 40 4 37.6712 4 34.7926V5.20738C3.99995 2.32883 6.49108 0 9.57031 0Z" fill="#E62E05"/>
<path d="M24.0257 8.16V0L36 12H28.0171C24.4248 12 23.8593 9.44 24.0257 8.16Z" fill="white" fill-opacity="0.3"/>
</g>
<path d="M13.1787 23.8613C14.0999 23.8613 14.7721 24.0599 15.1953 24.457C15.6185 24.8509 15.8301 25.3945 15.8301 26.0879C15.8301 26.4004 15.7829 26.6999 15.6885 26.9863C15.5941 27.2695 15.4395 27.5218 15.2246 27.7432C15.013 27.9645 14.7298 28.1403 14.375 28.2705C14.0202 28.3975 13.5824 28.4609 13.0615 28.4609H12.4121V31H10.8984V23.8613H13.1787ZM13.1006 25.1016H12.4121V27.2207H12.9102C13.1934 27.2207 13.4391 27.1833 13.6475 27.1084C13.8558 27.0335 14.0169 26.9163 14.1309 26.7568C14.2448 26.5973 14.3018 26.3923 14.3018 26.1416C14.3018 25.79 14.2041 25.5296 14.0088 25.3604C13.8135 25.1878 13.5107 25.1016 13.1006 25.1016ZM19.458 23.8613C20.3792 23.8613 21.0514 24.0599 21.4746 24.457C21.8978 24.8509 22.1094 25.3945 22.1094 26.0879C22.1094 26.4004 22.0622 26.6999 21.9678 26.9863C21.8734 27.2695 21.7188 27.5218 21.5039 27.7432C21.2923 27.9645 21.0091 28.1403 20.6543 28.2705C20.2995 28.3975 19.8617 28.4609 19.3408 28.4609H18.6914V31H17.1777V23.8613H19.458ZM19.3799 25.1016H18.6914V27.2207H19.1895C19.4727 27.2207 19.7184 27.1833 19.9268 27.1084C20.1351 27.0335 20.2962 26.9163 20.4102 26.7568C20.5241 26.5973 20.5811 26.3923 20.5811 26.1416C20.5811 25.79 20.4834 25.5296 20.2881 25.3604C20.0928 25.1878 19.79 25.1016 19.3799 25.1016ZM26.2109 31H24.6973V25.1211H22.7588V23.8613H28.1494V25.1211H26.2109V31Z" fill="white"/>
</g>
<defs>
<clipPath id="clip0_8_30">
<rect width="40" height="40" fill="white"/>
</clipPath>
</defs>
</svg>
