<svg width="40" height="40" viewBox="0 0 40 40" fill="none" xmlns="http://www.w3.org/2000/svg">
<g clip-path="url(#clip0_57925_3764)">
<path fill-rule="evenodd" clip-rule="evenodd" d="M9.5703 0H24L36 12V34.7926C36 37.6712 33.5088 40 30.4403 40H9.5703C6.49112 40 3.99998 37.6712 3.99998 34.7926V5.20738C3.99993 2.32883 6.49107 0 9.5703 0Z" fill="#155EEF"/>
<path d="M24 8.16406V0L36 12H28.0171C24.4248 12 24 9.47141 24 8.16406Z" fill="white" fill-opacity="0.3"/>
<path d="M23.7122 25.6509L26.2969 27.4702C26.373 27.5041 26.4564 27.5184 26.5394 27.5118C26.6225 27.5052 26.7026 27.478 26.7724 27.4326C26.8423 27.3872 26.8997 27.3251 26.9394 27.2519C26.9792 27.1787 27 27.0967 27 27.0134V20.9896C27 20.9063 26.9792 20.8243 26.9394 20.7511C26.8997 20.6779 26.8423 20.6158 26.7724 20.5704C26.7026 20.525 26.6225 20.4978 26.5394 20.4912C26.4564 20.4846 26.373 20.4989 26.2969 20.5327L23.7122 22.3521C23.6466 22.3983 23.5932 22.4595 23.5562 22.5306C23.5193 22.6017 23.5 22.6807 23.5 22.7609V25.2421C23.5 25.3223 23.5193 25.4012 23.5562 25.4724C23.5932 25.5435 23.6466 25.6047 23.7122 25.6509Z" stroke="white" stroke-width="1.5" stroke-linecap="round" stroke-linejoin="round"/>
<path d="M20.375 28H14.625C14.1944 27.9988 13.7818 27.8272 13.4773 27.5227C13.1728 27.2182 13.0012 26.8056 13 26.375V21.625C13.0012 21.1944 13.1728 20.7818 13.4773 20.4773C13.7818 20.1728 14.1944 20.0012 14.625 20H20.39C20.8166 20.0013 21.2253 20.1714 21.527 20.473C21.8286 20.7747 21.9987 21.1834 22 21.61V26.375C21.9988 26.8056 21.8272 27.2182 21.5227 27.5227C21.2182 27.8272 20.8056 27.9988 20.375 28Z" stroke="white" stroke-width="1.5" stroke-miterlimit="10"/>
</g>
<defs>
<clipPath id="clip0_57925_3764">
<rect width="40" height="40" fill="white"/>
</clipPath>
</defs>
</svg>
