<svg width="40" height="40" viewBox="0 0 40 40" fill="none" xmlns="http://www.w3.org/2000/svg">
<g clip-path="url(#clip0_7_21)">
<mask id="mask0_7_21" style="mask-type:luminance" maskUnits="userSpaceOnUse" x="0" y="0" width="40" height="40">
<path d="M40 0H0V40H40V0Z" fill="white"/>
</mask>
<g mask="url(#mask0_7_21)">
<path fill-rule="evenodd" clip-rule="evenodd" d="M9.57031 0L24 0.185897L36 12V34.7926C36 37.6712 33.5088 40 30.4403 40H9.57031C6.49114 40 4 37.6712 4 34.7926V5.20738C3.99995 2.32883 6.49108 0 9.57031 0Z" fill="#079455"/>
<path d="M24.0257 8.16V0L36 12H28.0171C24.4248 12 23.8593 9.44 24.0257 8.16Z" fill="white" fill-opacity="0.3"/>
</g>
<path d="M15.3359 30H13.9531L12.625 27.8398L11.2969 30H10L11.8945 27.0547L10.1211 24.2891H11.457L12.6875 26.3438L13.8945 24.2891H15.1992L13.4062 27.1211L15.3359 30ZM16.0547 30V24.2891H17.2656V29H19.582V30H16.0547ZM23.9492 28.4141C23.9492 28.7526 23.8672 29.0469 23.7031 29.2969C23.5391 29.5469 23.2995 29.7396 22.9844 29.875C22.6719 30.0104 22.2917 30.0781 21.8438 30.0781C21.6458 30.0781 21.4518 30.0651 21.2617 30.0391C21.0742 30.013 20.8932 29.9753 20.7188 29.9258C20.5469 29.8737 20.3828 29.8099 20.2266 29.7344V28.6094C20.4974 28.7292 20.7786 28.8372 21.0703 28.9336C21.362 29.0299 21.651 29.0781 21.9375 29.0781C22.1354 29.0781 22.2943 29.0521 22.4141 29C22.5365 28.9479 22.625 28.8763 22.6797 28.7852C22.7344 28.694 22.7617 28.5898 22.7617 28.4727C22.7617 28.3294 22.7135 28.207 22.6172 28.1055C22.5208 28.0039 22.388 27.9089 22.2188 27.8203C22.0521 27.7318 21.8633 27.6367 21.6523 27.5352C21.5195 27.4727 21.375 27.3971 21.2188 27.3086C21.0625 27.2174 20.9141 27.1068 20.7734 26.9766C20.6328 26.8464 20.5169 26.6888 20.4258 26.5039C20.3372 26.3164 20.293 26.0924 20.293 25.832C20.293 25.4909 20.3711 25.1992 20.5273 24.957C20.6836 24.7148 20.9062 24.5299 21.1953 24.4023C21.487 24.2721 21.8307 24.207 22.2266 24.207C22.5234 24.207 22.806 24.2422 23.0742 24.3125C23.3451 24.3802 23.6276 24.4792 23.9219 24.6094L23.5312 25.5508C23.2682 25.444 23.0326 25.362 22.8242 25.3047C22.6159 25.2448 22.4036 25.2148 22.1875 25.2148C22.0365 25.2148 21.9076 25.2396 21.8008 25.2891C21.694 25.3359 21.6133 25.4036 21.5586 25.4922C21.5039 25.5781 21.4766 25.6784 21.4766 25.793C21.4766 25.9284 21.5156 26.043 21.5938 26.1367C21.6745 26.2279 21.7943 26.3164 21.9531 26.4023C22.1146 26.4883 22.3151 26.5885 22.5547 26.7031C22.8464 26.8411 23.0951 26.9857 23.3008 27.1367C23.5091 27.2852 23.6693 27.4609 23.7812 27.6641C23.8932 27.8646 23.9492 28.1146 23.9492 28.4141ZM29.6016 30H28.2188L26.8906 27.8398L25.5625 30H24.2656L26.1602 27.0547L24.3867 24.2891H25.7227L26.9531 26.3438L28.1602 24.2891H29.4648L27.6719 27.1211L29.6016 30Z" fill="white"/>
</g>
<defs>
<clipPath id="clip0_7_21">
<rect width="40" height="40" fill="white"/>
</clipPath>
</defs>
</svg>
