<svg id="Layer_1" data-name="Layer 1" xmlns="http://www.w3.org/2000/svg" viewBox="0 0 512 512"><defs><style>.cls-1{fill:#1565c0;}.cls-2{fill:#efefef;}.cls-3{fill:#29b6f6;}.cls-4{fill:#ffd80c;}.cls-5{fill:#fff;}.cls-6{fill:#ffa300;}</style></defs><path class="cls-1" d="M32,16H384a32,32,0,0,1,32,32V480a32,32,0,0,1-32,32H32A32,32,0,0,1,0,480V48A32,32,0,0,1,32,16Z" transform="translate(0 0)"/><path class="cls-2" d="M32,374.63V48H384V480H137.38Z" transform="translate(0 0)"/><path class="cls-3" d="M137.38,374.63V480L32,374.63Z" transform="translate(0 0)"/><path class="cls-3" d="M128,64V0H288V64a32,32,0,0,1-32,32H160A32,32,0,0,1,128,64Z" transform="translate(0 0)"/><path class="cls-4" d="M512,368A144,144,0,1,1,368,224,144,144,0,0,1,512,368Z" transform="translate(0 0)"/><path class="cls-5" d="M335,429.65l-31-31A16,16,0,1,1,326.62,376L337,386.35,409.46,326A16,16,0,1,1,430,350.54Z" transform="translate(0 0)"/><path class="cls-6" d="M176,128H304a16,16,0,0,1,0,32H176a16,16,0,0,1,0-32Z" transform="translate(0 0)"/><path class="cls-6" d="M96,128h32v32H96Z" transform="translate(0 0)"/><path class="cls-6" d="M96,192h32v32H96Z" transform="translate(0 0)"/><path class="cls-6" d="M96,256h32v32H96Z" transform="translate(0 0)"/><path class="cls-6" d="M96,320h32v32H96Z" transform="translate(0 0)"/><path class="cls-6" d="M176,192h96a16,16,0,0,1,0,32H176a16,16,0,0,1,0-32Z" transform="translate(0 0)"/><path class="cls-6" d="M176,256h32a16,16,0,0,1,0,32H176a16,16,0,0,1,0-32Z" transform="translate(0 0)"/></svg>