<svg id="Layer_1" data-name="Layer 1" xmlns="http://www.w3.org/2000/svg" viewBox="0 0 480.78 481.88"><defs><style>.cls-1{fill:#ffa300;}.cls-2{fill:#ecf0f1;}.cls-3{fill:#e64c3c;}.cls-4{fill:#cdd4df;}.cls-5{fill:#ffd80c;}</style></defs><path class="cls-1" d="M496.39,206.12v241.3a50.4,50.4,0,0,1-7.37,26,49.13,49.13,0,0,1-42.37,23.49H65.35a49.23,49.23,0,0,1-42.14-23.49,48.42,48.42,0,0,1-7.6-26l.23-241.3a49.76,49.76,0,0,1,20-40.07L226.53,24.91a49.36,49.36,0,0,1,59.17,0L476.35,166.05a48.21,48.21,0,0,1,9.68,9.67A49,49,0,0,1,496.39,206.12Z" transform="translate(-15.61 -15.06)"/><path id="Shape" class="cls-2" d="M431.19,70.93v199.9L293.77,375l-23.48,17.77a24.64,24.64,0,0,1-30.35,0L216.46,375,79,270.83V70.93A16.77,16.77,0,0,1,95.8,54.16H414.42a16.77,16.77,0,0,1,16.77,16.77Z" transform="translate(-15.61 -15.06)"/><path id="Shape-2" data-name="Shape" class="cls-2" d="M431.19,70.93v141.2L293.77,316.27l-23.48,17.78a24.64,24.64,0,0,1-30.35,0l-23.48-17.78L79,212.13V70.93A16.77,16.77,0,0,1,95.8,54.16H414.42a16.77,16.77,0,0,1,16.77,16.77Z" transform="translate(-15.61 -15.06)"/><rect id="Rectangle-path" class="cls-3" x="138.88" y="106.18" width="201.24" height="134.16" rx="8.38"/><path id="Shape-3" data-name="Shape" class="cls-4" d="M171.26,96.09H154.49a8.39,8.39,0,0,1,0-16.77h16.77a8.39,8.39,0,1,1,0,16.77Z" transform="translate(-15.61 -15.06)"/><path id="Shape-4" data-name="Shape" class="cls-4" d="M263.5,96.09H204.8a8.39,8.39,0,0,1,0-16.77h58.7a8.39,8.39,0,0,1,0,16.77Z" transform="translate(-15.61 -15.06)"/><path id="Shape-5" data-name="Shape" class="cls-2" d="M238.34,170.46v35.72a8.39,8.39,0,0,0,13,7l26.83-17.86a8.38,8.38,0,0,0,0-13.92l-26.83-18.19a8.38,8.38,0,0,0-13,7.29Z" transform="translate(-15.61 -15.06)"/><path class="cls-1" d="M489,473.45a49.13,49.13,0,0,1-42.37,23.49H65.35a49.23,49.23,0,0,1-42.14-23.49l211.15-192a32.42,32.42,0,0,1,43.28,0Z" transform="translate(-15.61 -15.06)"/><path class="cls-5" d="M496.39,206.12v241.3a50.4,50.4,0,0,1-7.37,26L326.92,326.09,486,175.72A49,49,0,0,1,496.39,206.12Z" transform="translate(-15.61 -15.06)"/><path class="cls-5" d="M15.61,206.12v241.3a50.4,50.4,0,0,0,7.37,26l162.1-147.36L26,175.72a49,49,0,0,0-10.36,30.4Z" transform="translate(-15.61 -15.06)"/><path class="cls-5" d="M223.61,419.39A7.56,7.56,0,0,1,216,427H203.17a7.58,7.58,0,1,1,0-15.16H216A7.58,7.58,0,0,1,223.61,419.39Z" transform="translate(-15.61 -15.06)"/><path class="cls-5" d="M323.83,419.39a7.58,7.58,0,0,1-7.58,7.58h-70a7.58,7.58,0,1,1,0-15.16h70A7.58,7.58,0,0,1,323.83,419.39Z" transform="translate(-15.61 -15.06)"/><path class="cls-5" d="M302.27,454a7.56,7.56,0,0,1-7.58,7.58h-70a7.58,7.58,0,1,1,0-15.15h70A7.57,7.57,0,0,1,302.27,454Z" transform="translate(-15.61 -15.06)"/></svg>