<svg id="Layer_1" data-name="Layer 1" xmlns="http://www.w3.org/2000/svg" viewBox="0 0 619.77 373.19"><defs><style>.cls-1{fill:#e0e0e0;}.cls-2{fill:#fafafa;}.cls-3{fill:#ebebeb;}.cls-4{fill:#f5f5f5;}.cls-5{fill:#263238;}.cls-6{fill:#455a64;}.cls-7{fill:#e8505b;}.cls-8{opacity:0.3;}.cls-14,.cls-9{fill:#fff;}.cls-10{fill:#ffbe9d;}.cls-11{fill:#eb996e;}.cls-12,.cls-14{opacity:0.6;}.cls-13{fill:none;stroke:#839198;stroke-miterlimit:10;stroke-width:0.05px;}.cls-15{opacity:0.1;}.cls-16{fill:#b78876;}.cls-17{fill:#aa6550;}.cls-18{opacity:0.4;}</style></defs><rect class="cls-1" x="413.55" y="236.84" width="5.14" height="38.47" transform="translate(157.14 649.08) rotate(-90)"/><path class="cls-2" d="M402.12,253.72a11.74,11.74,0,0,1,0,4.82,12.22,12.22,0,0,1,0-4.82Z" transform="translate(-2.9 -23.12)"/><path class="cls-2" d="M401.29,253.62a6.32,6.32,0,0,1,.24,2.41,6.25,6.25,0,0,1-.24,2.4,6,6,0,0,1-.24-2.4A6.1,6.1,0,0,1,401.29,253.62Z" transform="translate(-2.9 -23.12)"/><path class="cls-2" d="M432.38,253.72a12.22,12.22,0,0,1,0,4.82,12.22,12.22,0,0,1,0-4.82Z" transform="translate(-2.9 -23.12)"/><ellipse class="cls-2" cx="428.64" cy="232.91" rx="0.24" ry="2.41"/><path class="cls-2" d="M426.52,256.23a96.44,96.44,0,0,1-9.84.25,96.28,96.28,0,0,1-9.84-.25c0-.13,4.4-.24,9.84-.24S426.52,256.1,426.52,256.23Z" transform="translate(-2.9 -23.12)"/><rect class="cls-1" x="410.81" y="262.55" width="10.28" height="38.47" transform="translate(131.26 674.62) rotate(-90)"/><path class="cls-2" d="M435.68,284l-.21.12c-.14.07-.35.17-.64.29a11.62,11.62,0,0,1-2.61.75,6.83,6.83,0,0,1-4.23-.6,5.71,5.71,0,0,1-2-1.83,4.25,4.25,0,0,1-.7-3,3.12,3.12,0,0,1,.71-1.53,2,2,0,0,1,1.62-.73,2.27,2.27,0,0,1,1.63.87,3.21,3.21,0,0,1,.75,1.76,4.68,4.68,0,0,1-1.33,3.64,5.88,5.88,0,0,1-3.7,1.81,9.75,9.75,0,0,1-4.29-.54,7.93,7.93,0,0,1-3.75-2.51,4.12,4.12,0,0,1-.87-2.22,2.88,2.88,0,0,1,.82-2.31,1.84,1.84,0,0,1,1.2-.53,2.22,2.22,0,0,1,1.26.35,3.34,3.34,0,0,1,1.41,2.08,4.83,4.83,0,0,1-1.51,4.52,7.6,7.6,0,0,1-4.34,1.77,10.76,10.76,0,0,1-4.49-.44,6.18,6.18,0,0,1-3.41-2.66,4.53,4.53,0,0,1-.43-4.08,2.14,2.14,0,0,1,1.57-1.33,2.48,2.48,0,0,1,1.94.47,3.2,3.2,0,0,1,.91,3.46,6,6,0,0,1-1.93,2.73,8.76,8.76,0,0,1-5.28,2.05,8.47,8.47,0,0,1-4.18-.95,8.59,8.59,0,0,1-2.18-1.61,6.17,6.17,0,0,1-.46-.54,1.17,1.17,0,0,1-.14-.2,9.9,9.9,0,0,0,2.86,2.18,8.32,8.32,0,0,0,9.15-1.19,5.7,5.7,0,0,0,1.81-2.58,2.83,2.83,0,0,0-.8-3,2,2,0,0,0-1.62-.38,1.71,1.71,0,0,0-1.26,1.09,4.15,4.15,0,0,0,.42,3.68,5.82,5.82,0,0,0,3.18,2.45,10.28,10.28,0,0,0,4.29.41,7.14,7.14,0,0,0,4.06-1.65,4.36,4.36,0,0,0,1.37-4.06,2.87,2.87,0,0,0-1.2-1.78,1.47,1.47,0,0,0-1.87.12,2.41,2.41,0,0,0-.68,1.92,3.74,3.74,0,0,0,.78,2,7.44,7.44,0,0,0,3.52,2.37,9.33,9.33,0,0,0,4.09.52,5.37,5.37,0,0,0,3.44-1.65,4.24,4.24,0,0,0,1.24-3.31,2.46,2.46,0,0,0-2-2.3,1.64,1.64,0,0,0-1.33.6,2.69,2.69,0,0,0-.64,1.35,3.93,3.93,0,0,0,.62,2.74,5.39,5.39,0,0,0,1.88,1.75,6.74,6.74,0,0,0,4.08.65,12.56,12.56,0,0,0,2.6-.65C435.38,284.15,435.67,284,435.68,284Z" transform="translate(-2.9 -23.12)"/><rect class="cls-3" x="408.75" y="250.2" width="17.83" height="35.04" transform="translate(147.06 662.27) rotate(-90)"/><path class="cls-1" d="M406,259.41a74.13,74.13,0,0,1,.25,8.63,74.13,74.13,0,0,1-.25,8.63,78.49,78.49,0,0,1-.24-8.63A78.49,78.49,0,0,1,406,259.41Z" transform="translate(-2.9 -23.12)"/><path class="cls-1" d="M408.63,259.19a76.49,76.49,0,0,1,.24,8.52,76.49,76.49,0,0,1-.24,8.52,76.49,76.49,0,0,1-.24-8.52A76.49,76.49,0,0,1,408.63,259.19Z" transform="translate(-2.9 -23.12)"/><path class="cls-1" d="M431.23,258.62a84.74,84.74,0,0,1,.24,9,84.9,84.9,0,0,1-.24,9,81.79,81.79,0,0,1-.24-9A81.64,81.64,0,0,1,431.23,258.62Z" transform="translate(-2.9 -23.12)"/><path class="cls-1" d="M428.11,258.86a80.51,80.51,0,0,1,.24,8.74,80.51,80.51,0,0,1-.24,8.74,76,76,0,0,1-.25-8.74A76,76,0,0,1,428.11,258.86Z" transform="translate(-2.9 -23.12)"/><rect class="cls-1" x="188.65" y="32.63" width="236.19" height="156.67"/><path class="cls-4" d="M2.91,67.2a40,40,0,1,1,40.65,39.55A40.16,40.16,0,0,1,2.91,67.2Zm59.14-1A19.13,19.13,0,1,0,43.23,85.77,19.2,19.2,0,0,0,62.05,66.24Z" transform="translate(-2.9 -23.12)"/><path class="cls-1" d="M2.91,67.2A40.16,40.16,0,0,1,42.28,26.35l.33,21a19.22,19.22,0,0,0,.62,38.44l.33,21A40.14,40.14,0,0,1,2.91,67.2Z" transform="translate(-2.9 -23.12)"/><path class="cls-3" d="M38.69,23.12c25.81-.41,46.4,19.62,46.82,45.55l-24.43.4c-.2-12.4-9.64-20.21-22-20Z" transform="translate(-2.9 -23.12)"/><path class="cls-4" d="M194.35,389.65c-1-.88-3.32-3.68-1.55-6.93.65-1.19,2-1.78,3.27-2.3a13.59,13.59,0,0,0,3.59-1.86c2-1.66,2.49-4.41,3.78-6.62a8.28,8.28,0,0,1,7.17-4.3c3.35.15,6.14,2.89,7.41,6s1.31,6.58,1.34,9.94c0,1.87-.07,4-1.44,5.22s-3.16,1.18-4.87,1.12l-18.3-.56" transform="translate(-2.9 -23.12)"/><path class="cls-1" d="M229.36,339.33H181.23L189.9,391a5.76,5.76,0,0,0,4.11,4.6l.17.05.42.11a6.39,6.39,0,0,0,1,.11v.05l.23,0h21.46a6.45,6.45,0,0,0,1.17-.11,5.79,5.79,0,0,0,4.87-5.06l4.18-35.61.19-1.42h0l1.65-14.11Zm-9.08,33h-4.94l.5-15h5.72Zm1.76-15h4.73l-1.76,15h-4.25Zm-14.11,31.63-.3-13h7.11l-.43,13Zm-7.69-13h6.91l.3,13h-6.2Zm.53,13H195c-.55-3.52-1.27-8.09-2-13h6.82ZM200,372.3l-1.17-15h7.93l.35,15Zm7.58,0-.34-15h8.16l-.5,15Zm-.42-18.6-.32-13.89h9.14l-.46,13.89Zm-.48,0h-8.13l-1.08-13.89h8.89Zm-8.61,0h-8.59c-.31-1.92-.6-3.74-.86-5.37-.89-5.62-1.23-7.73-1.42-8.52H197Zm.28,3.6,1.17,15h-7.11c-.24-1.52-.48-3.06-.72-4.6-.56-3.54-1.12-7.09-1.64-10.4Zm-6.42,15h-4.65l-2.51-15h4.79C190.26,361.93,191.07,367.09,191.89,372.3Zm.56,3.6c.71,4.51,1.41,9,2,13H190l-2.18-13Zm22.33,13,.44-13H220l-1.11,13ZM216,353.7l.46-13.89h6.63l-1.18,13.89Zm-29.25-13.89c.19,1,1.07,6.47,2.24,13.89h-4.83l-2.33-13.89Zm36.34,49.12h-3.72l1.12-13h4.13Zm4.14-35.23h-4.85l1.19-13.89h5.29Z" transform="translate(-2.9 -23.12)"/><rect class="cls-1" x="564.37" y="57.05" width="10.36" height="41.4"/><rect class="cls-1" x="579.61" y="66.08" width="10.36" height="32.37"/><rect class="cls-1" x="595.08" y="73.47" width="10.36" height="24.97"/><rect class="cls-1" x="609.41" y="83.62" width="10.36" height="14.83"/><path class="cls-4" d="M606,173a35.86,35.86,0,0,0-50.41,1.71,35.34,35.34,0,0,0,1.72,50.11,35.85,35.85,0,0,0,50.41-1.71A35.33,35.33,0,0,0,606,173Zm-11.88,37.48a17.15,17.15,0,0,1-24.11.82,16.9,16.9,0,0,1-.82-24,17.15,17.15,0,0,1,24.11-.82A16.9,16.9,0,0,1,594.11,210.52Z" transform="translate(-2.9 -23.12)"/><path class="cls-3" d="M555.58,174.75A35.86,35.86,0,0,1,606,173l-12.7,13.52a17.15,17.15,0,0,0-24.11.82,16.9,16.9,0,0,0,.82,24l-12.7,13.52A35.34,35.34,0,0,1,555.58,174.75Z" transform="translate(-2.9 -23.12)"/><path class="cls-2" d="M604.54,167.25c17.6,16.35,19.71,42.92,3.27,60.42L589.94,212.2c7.87-8.37,9.58-19.54,1.16-27.36Z" transform="translate(-2.9 -23.12)"/><rect class="cls-1" x="118.2" y="208.57" width="101.07" height="28.47" rx="2.96"/><ellipse class="cls-4" cx="134.7" cy="223.68" rx="6.16" ry="6.19"/><path class="cls-1" d="M141.06,244.7a24.7,24.7,0,0,1-3.31,3.58l-.81.79-.17.16-.16-.16a17,17,0,0,1-2.47-2.82,17.68,17.68,0,0,1,2.8,2.49h-.33l.81-.8A25.86,25.86,0,0,1,141.06,244.7Z" transform="translate(-2.9 -23.12)"/><path class="cls-2" d="M212.22,243.75c0,.13-13.57.24-30.3.24s-30.29-.11-30.29-.24,13.56-.24,30.29-.24S212.22,243.62,212.22,243.75Z" transform="translate(-2.9 -23.12)"/><path class="cls-2" d="M212.49,248.9c0,.13-13.57.24-30.3.24s-30.3-.11-30.3-.24,13.57-.24,30.3-.24S212.49,248.77,212.49,248.9Z" transform="translate(-2.9 -23.12)"/><polygon class="cls-4" points="528.74 229.54 526.89 373.19 609.54 373.19 609.54 231.5 528.74 229.54"/><polygon class="cls-1" points="573.27 230.62 572.54 373.19 609.54 373.19 609.54 231.5 573.27 230.62"/><polygon class="cls-1" points="531.34 232.12 531.34 261.5 570.49 261.5 570.49 233.51 531.34 232.12"/><polygon class="cls-4" points="544.84 240.21 544.84 244.54 556.81 244.54 556.81 239.81 544.84 240.21"/><rect class="cls-4" x="544.83" y="248.19" width="12.37" height="1.78"/><polygon class="cls-1" points="531.34 335.09 531.34 364.47 570.49 364.47 570.49 336.48 531.34 335.09"/><polygon class="cls-4" points="544.84 343.17 544.84 347.51 556.81 347.51 556.81 342.77 544.84 343.17"/><rect class="cls-4" x="544.83" y="351.16" width="12.37" height="1.78"/><polygon class="cls-1" points="531.34 265.25 531.34 294.63 570.49 294.63 570.49 266.63 531.34 265.25"/><polygon class="cls-4" points="544.84 273.33 544.84 277.67 556.81 277.67 556.81 272.93 544.84 273.33"/><rect class="cls-4" x="544.83" y="281.32" width="12.37" height="1.78"/><rect class="cls-1" x="530.83" y="300.43" width="39.15" height="29.38"/><polygon class="cls-4" points="544.59 313.67 544.59 317.75 555.85 317.75 555.85 313.3 544.59 313.67"/><rect class="cls-4" x="544.59" y="321.18" width="11.63" height="1.67"/><path class="cls-5" d="M615.55,395.07c0,.13-135.52.23-302.65.23s-302.67-.1-302.67-.23,135.49-.24,302.67-.24S615.55,394.93,615.55,395.07Z" transform="translate(-2.9 -23.12)"/><rect class="cls-2" x="174.5" y="36.56" width="244.61" height="160.44"/><path class="cls-5" d="M422,220.12c0-1.54-.07-62.58-.19-160.44l.19.19-244.59.05h0l.23-.24c0,57.06,0,111.36,0,160.44l-.21-.21,244.6.21-244.6.22h-.22v-.22c0-49.08,0-103.38,0-160.44v-.24h.25L422,59.49h.19v.19C422.08,157.54,422,218.58,422,220.12Z" transform="translate(-2.9 -23.12)"/><path class="cls-6" d="M252.15,148.28l24.06.33c-.18,12.83-11,23.28-24.06,23.28H252Z" transform="translate(-2.9 -23.12)"/><path class="cls-5" d="M291.93,180.86a2.6,2.6,0,0,1-.51,0l-1.47,0-5.38.06h-.07l0-.05-7.94-10-6.4-8.16.13.06-7.08-.07-2,0a3.81,3.81,0,0,1-.7-.05,3.81,3.81,0,0,1,.7-.05l2,0,7.08-.07h.07l.05.06,6.44,8.13c3,3.82,5.74,7.33,7.87,10.05l-.11-.05,5.38.06,1.47,0A1.88,1.88,0,0,1,291.93,180.86Z" transform="translate(-2.9 -23.12)"/><path class="cls-5" d="M300.56,183.63c0,.1-3.48.19-7.78.19s-7.79-.09-7.79-.19,3.49-.18,7.79-.18S300.56,183.53,300.56,183.63Z" transform="translate(-2.9 -23.12)"/><path class="cls-5" d="M300.56,186.52c0,.1-3.48.18-7.78.18s-7.79-.08-7.79-.18,3.49-.19,7.79-.19S300.56,186.41,300.56,186.52Z" transform="translate(-2.9 -23.12)"/><path class="cls-7" d="M248.34,144.86l-.33,23.6c-13.07-.18-23.73-10.78-23.73-23.6s10.87-23.6,24.06-23.6,24.07,10.65,24.07,23.6Z" transform="translate(-2.9 -23.12)"/><path class="cls-5" d="M239,137.14a1.34,1.34,0,0,1-.42.1l-1.19.19L233,138h-.07l-.05-.06-5.77-5.6c-2.76-2.72-5.26-5.19-7.05-7L218,123.24a5.62,5.62,0,0,1-.73-.82,7.07,7.07,0,0,1,.83.72l2.19,2.07c1.84,1.75,4.36,4.2,7.13,6.91l5.72,5.66-.12,0,4.33-.48,1.21-.11A1.41,1.41,0,0,1,239,137.14Z" transform="translate(-2.9 -23.12)"/><path class="cls-5" d="M211.13,121.38c0,.1-3.48.18-7.78.18s-7.79-.08-7.79-.18,3.49-.19,7.79-.19S211.13,121.28,211.13,121.38Z" transform="translate(-2.9 -23.12)"/><path class="cls-5" d="M211.13,124.26c0,.1-3.48.19-7.78.19s-7.79-.09-7.79-.19,3.49-.18,7.79-.18S211.13,124.16,211.13,124.26Z" transform="translate(-2.9 -23.12)"/><path class="cls-7" d="M332.52,98.23l-.1-14.67a18.77,18.77,0,0,0-12.1,4.72,17.36,17.36,0,0,0-5.83,15.19c.08.7.19,1.41.34,2.13a.11.11,0,0,1,0,.05h0l17.67-4Z" transform="translate(-2.9 -23.12)"/><g class="cls-8"><path class="cls-9" d="M332.52,98.23l-.1-14.67a18.77,18.77,0,0,0-12.1,4.72,17.36,17.36,0,0,0-5.83,15.19c.08.7.19,1.41.34,2.13a.11.11,0,0,1,0,.05h0l17.67-4Z" transform="translate(-2.9 -23.12)"/></g><path class="cls-7" d="M350.73,93.72a17.4,17.4,0,0,0-14.26-10l-.56,0-.36,0-1.06,0h-.1l.1,14.67,0,3.45,17.68,3.85h0a17.26,17.26,0,0,0,.39-3.8A18.93,18.93,0,0,0,350.73,93.72Z" transform="translate(-2.9 -23.12)"/><g class="cls-8"><path d="M350.73,93.72a17.4,17.4,0,0,0-14.26-10l-.56,0-.36,0-1.06,0h-.1l.1,14.67,0,3.45,17.68,3.85h0a17.26,17.26,0,0,0,.39-3.8A18.93,18.93,0,0,0,350.73,93.72Z" transform="translate(-2.9 -23.12)"/></g><path class="cls-7" d="M333.46,103.51l-17.67,4a18.11,18.11,0,0,0,35.37-.11l-17.67-3.86" transform="translate(-2.9 -23.12)"/><path class="cls-5" d="M402.25,100.87c0,.13-9.13.24-20.4.24s-20.41-.11-20.41-.24,9.14-.24,20.41-.24S402.25,100.74,402.25,100.87Z" transform="translate(-2.9 -23.12)"/><path class="cls-5" d="M402.25,96.22c0,.13-9.13.23-20.4.23s-20.41-.1-20.41-.23,9.14-.24,20.41-.24S402.25,96.08,402.25,96.22Z" transform="translate(-2.9 -23.12)"/><path class="cls-5" d="M402.25,91.56c0,.14-9.13.24-20.4.24s-20.41-.1-20.41-.24,9.14-.23,20.41-.23S402.25,91.43,402.25,91.56Z" transform="translate(-2.9 -23.12)"/><path class="cls-5" d="M402.25,105.2c0,.13-9.13.23-20.4.23s-20.41-.1-20.41-.23,9.14-.24,20.41-.24S402.25,105.06,402.25,105.2Z" transform="translate(-2.9 -23.12)"/><path class="cls-5" d="M389.62,109.91c0,.13-6.28.23-14,.23s-14-.1-14-.23,6.28-.24,14-.24S389.62,109.77,389.62,109.91Z" transform="translate(-2.9 -23.12)"/><rect class="cls-7" x="315.74" y="120.46" width="4.2" height="46.95"/><rect class="cls-7" x="323.86" y="136.41" width="4.2" height="31"/><rect class="cls-7" x="331.97" y="126.3" width="4.2" height="41.35"/><rect class="cls-7" x="340.09" y="122.27" width="4.2" height="45.13"/><rect class="cls-7" x="348.2" y="137.36" width="4.2" height="30.05"/><rect class="cls-7" x="356.32" y="143.25" width="4.2" height="24.16"/><rect class="cls-7" x="364.44" y="125.28" width="4.2" height="42.13"/><rect class="cls-7" x="372.55" y="132.88" width="4.2" height="34.53"/><rect class="cls-7" x="380.67" y="126.81" width="4.2" height="40.6"/><rect class="cls-7" x="388.78" y="139.75" width="4.2" height="27.66"/><rect class="cls-7" x="396.9" y="134.48" width="4.2" height="32.93"/><path class="cls-5" d="M405.72,193.8c0,.09-19.94.17-44.53.17s-44.54-.08-44.54-.17,19.94-.18,44.54-.18S405.72,193.7,405.72,193.8Z" transform="translate(-2.9 -23.12)"/><path class="cls-5" d="M324.64,197.49a27.13,27.13,0,0,1-6.24,0,28.72,28.72,0,0,1,6.24,0Z" transform="translate(-2.9 -23.12)"/><path class="cls-5" d="M335,197.68a41,41,0,0,1-7.46,0,41,41,0,0,1,7.46,0Z" transform="translate(-2.9 -23.12)"/><path class="cls-5" d="M343.81,197.68a41,41,0,0,1-7.46,0,41,41,0,0,1,7.46,0Z" transform="translate(-2.9 -23.12)"/><path class="cls-5" d="M352.64,197.68a41,41,0,0,1-7.46,0,41,41,0,0,1,7.46,0Z" transform="translate(-2.9 -23.12)"/><path class="cls-5" d="M361.46,197.68a40.9,40.9,0,0,1-7.45,0,40.9,40.9,0,0,1,7.45,0Z" transform="translate(-2.9 -23.12)"/><path class="cls-5" d="M370.29,197.68a41,41,0,0,1-7.46,0,41,41,0,0,1,7.46,0Z" transform="translate(-2.9 -23.12)"/><path class="cls-5" d="M379.12,197.68a41,41,0,0,1-7.46,0,41,41,0,0,1,7.46,0Z" transform="translate(-2.9 -23.12)"/><path class="cls-5" d="M387.94,197.68a40.9,40.9,0,0,1-7.45,0,40.9,40.9,0,0,1,7.45,0Z" transform="translate(-2.9 -23.12)"/><path class="cls-5" d="M396.77,197.68a41,41,0,0,1-7.46,0,41,41,0,0,1,7.46,0Z" transform="translate(-2.9 -23.12)"/><path class="cls-5" d="M405.59,197.68a40.9,40.9,0,0,1-7.45,0,40.9,40.9,0,0,1,7.45,0Z" transform="translate(-2.9 -23.12)"/><g class="cls-8"><rect class="cls-9" x="323.86" y="136.41" width="4.2" height="31"/></g><g class="cls-8"><rect class="cls-9" x="340.09" y="122.27" width="4.2" height="45.13"/></g><g class="cls-8"><rect class="cls-9" x="356.32" y="143.25" width="4.2" height="24.16"/></g><g class="cls-8"><rect class="cls-9" x="372.55" y="132.88" width="4.2" height="34.53"/></g><g class="cls-8"><rect class="cls-9" x="388.78" y="139.75" width="4.2" height="27.66"/></g><path class="cls-7" d="M207.11,89.84a4,4,0,1,1-4-4A4.05,4.05,0,0,1,207.11,89.84Z" transform="translate(-2.9 -23.12)"/><path class="cls-7" d="M276.68,86.65c0,.13-13.64.24-30.47.24s-30.47-.11-30.47-.24,13.64-.24,30.47-.24S276.68,86.52,276.68,86.65Z" transform="translate(-2.9 -23.12)"/><path class="cls-7" d="M240.2,91.54a3.94,3.94,0,0,1-.94.09c-.61,0-1.49.06-2.57.08-2.18,0-5.18.07-8.5.07s-6.32,0-8.49-.07c-1.09,0-2,0-2.57-.08a4.09,4.09,0,0,1-.95-.09,4.09,4.09,0,0,1,.95-.09c.61,0,1.48-.06,2.57-.08,2.17,0,5.18-.07,8.49-.07s6.32,0,8.5.07c1.08,0,2,0,2.57.08A3.94,3.94,0,0,1,240.2,91.54Z" transform="translate(-2.9 -23.12)"/><rect class="cls-2" x="41.49" y="51.09" width="128.02" height="146.11"/><path class="cls-5" d="M172.41,220.31s0-.24,0-.69v-2c0-1.8,0-4.44,0-7.89,0-6.9,0-17-.05-29.81,0-25.62-.06-62.12-.11-105.68l.21.21-128,0h0l.24-.23c0,53.86,0,104.09,0,146.1l-.21-.2,92.86.1,26,.06,6.84,0,2.36,0s-.78,0-2.31,0l-6.81,0-25.91,0-93,.1h-.2v-.2c0-42,0-92.24,0-146.1V74h.25l128,0h.21v.21c0,43.62-.08,80.17-.1,105.82,0,12.79,0,22.87-.06,29.76,0,3.43,0,6.06,0,7.84,0,.88,0,1.55,0,2S172.41,220.31,172.41,220.31Z" transform="translate(-2.9 -23.12)"/><path class="cls-7" d="M161.41,148.81c0,.09-1.42-.71-4.12-1.56a26.17,26.17,0,0,0-19.59,1.62,36.65,36.65,0,0,0-7.66,5.51c-2.51,2.21-5,4.73-7.87,7.05a27.24,27.24,0,0,1-10.06,5.45,15.32,15.32,0,0,1-5.87.35,19.14,19.14,0,0,1-5.44-1.68,96.13,96.13,0,0,1-9.11-5.42,28.61,28.61,0,0,0-8.57-3.84,25.45,25.45,0,0,0-8.15-.63,26.21,26.21,0,0,0-11.25,3.67c-2.42,1.47-3.56,2.58-3.62,2.51a5.12,5.12,0,0,1,.82-.81,19.14,19.14,0,0,1,2.62-2,25.6,25.6,0,0,1,11.37-4,25.87,25.87,0,0,1,8.38.53,29.05,29.05,0,0,1,8.82,3.86,99.77,99.77,0,0,0,9,5.33A15.51,15.51,0,0,0,111.9,166a26.7,26.7,0,0,0,9.73-5.26c2.83-2.28,5.33-4.78,7.88-7a37.38,37.38,0,0,1,7.86-5.55,26.07,26.07,0,0,1,8-2.46,25.78,25.78,0,0,1,12,1.16,21.66,21.66,0,0,1,3,1.3A5.71,5.71,0,0,1,161.41,148.81Z" transform="translate(-2.9 -23.12)"/><rect class="cls-7" x="76.73" y="145.31" width="10.88" height="29.44"/><rect class="cls-7" x="122.91" y="145.31" width="10.88" height="29.44"/><rect class="cls-7" x="138.31" y="128.03" width="10.88" height="46.72"/><rect class="cls-7" x="62.65" y="165.48" width="10.88" height="9.91"/><rect class="cls-7" x="92.13" y="158.61" width="10.88" height="16.14"/><rect class="cls-7" x="107.52" y="154.9" width="10.88" height="19.85"/><path class="cls-5" d="M91,201.34c0,.24-2.63.43-5.88.43s-5.88-.19-5.88-.43,2.64-.44,5.88-.44S91,201.1,91,201.34Z" transform="translate(-2.9 -23.12)"/><path class="cls-5" d="M77.41,201.34c0,.24-2.63.43-5.88.43s-5.88-.19-5.88-.43,2.63-.44,5.88-.44S77.41,201.1,77.41,201.34Z" transform="translate(-2.9 -23.12)"/><path class="cls-5" d="M154.24,201.34c0,.24-3,.43-6.65.43s-6.65-.19-6.65-.43,3-.44,6.65-.44S154.24,201.1,154.24,201.34Z" transform="translate(-2.9 -23.12)"/><ellipse class="cls-5" cx="128.52" cy="178.22" rx="6.65" ry="0.44"/><path class="cls-5" d="M121.3,201.34c0,.24-2.63.44-5.88.44s-5.88-.2-5.88-.44,2.64-.44,5.88-.44S121.3,201.1,121.3,201.34Z" transform="translate(-2.9 -23.12)"/><path class="cls-5" d="M105.4,201.34c0,.24-2.64.44-5.88.44s-5.88-.2-5.88-.44,2.63-.44,5.88-.44S105.4,201.1,105.4,201.34Z" transform="translate(-2.9 -23.12)"/><rect class="cls-1" x="62.39" y="72.39" width="88.95" height="36.94"/><path class="cls-5" d="M83.77,107.18A4.15,4.15,0,1,1,79.62,103,4.15,4.15,0,0,1,83.77,107.18Z" transform="translate(-2.9 -23.12)"/><rect class="cls-5" x="85.02" y="81.2" width="28.89" height="1.6"/><rect class="cls-9" x="85.02" y="84.84" width="56.2" height="1.6"/><path class="cls-7" d="M83.77,119.93a4.15,4.15,0,1,1-4.15-4.15A4.15,4.15,0,0,1,83.77,119.93Z" transform="translate(-2.9 -23.12)"/><rect class="cls-7" x="85.02" y="93.95" width="14.75" height="1.6"/><rect class="cls-9" x="85.02" y="97.59" width="56.2" height="1.6"/><rect class="cls-2" x="431.1" y="24.86" width="140.58" height="160.44"/><path class="cls-5" d="M574.58,208.42s0-.26,0-.76,0-1.25,0-2.23c0-2,0-4.87,0-8.66,0-7.57,0-18.65,0-32.73,0-28.13-.06-68.22-.11-116.06l.21.21L434,48.22h0l.24-.24c0,59.15,0,114.31,0,160.44l-.2-.2,102,.1,28.51.05,7.51,0,2.59,0s-.86,0-2.54,0l-7.48,0-28.46.05-102.1.1h-.2v-.2c0-46.13,0-101.29,0-160.44v-.24H434l140.56,0h.21V48c0,47.9-.08,88-.1,116.2,0,14,0,25.12-.06,32.68,0,3.77,0,6.66,0,8.62v2.2C574.59,208.18,574.58,208.42,574.58,208.42Z" transform="translate(-2.9 -23.12)"/><rect class="cls-1" x="442.35" y="37.69" width="113.89" height="91.36"/><rect class="cls-5" x="450.31" y="112.8" width="3.74" height="1.08"/><rect class="cls-5" x="458.76" y="118.56" width="4.78" height="1.08"/><rect class="cls-5" x="475.4" y="118.56" width="4.78" height="1.08"/><rect class="cls-5" x="492.04" y="118.56" width="4.78" height="1.08"/><rect class="cls-5" x="508.68" y="118.56" width="4.78" height="1.08"/><rect class="cls-5" x="525.32" y="118.56" width="4.78" height="1.08"/><rect class="cls-5" x="541.96" y="118.56" width="4.78" height="1.08"/><rect class="cls-5" x="450.31" y="98.42" width="3.74" height="1.08"/><rect class="cls-5" x="450.31" y="71.35" width="3.74" height="1.08"/><rect class="cls-5" x="450.31" y="57.74" width="3.74" height="1.08"/><rect class="cls-5" x="450.5" y="84.88" width="3.74" height="1.08"/><path class="cls-5" d="M549.51,137a1.79,1.79,0,0,1-.4,0l-1.18,0-4.52,0-16.64.08-54.87.07H458.66V137c0-18.34.06-34.49.08-46.07,0-5.77.05-10.4.07-13.61,0-1.57,0-2.8,0-3.66,0-.4,0-.71,0-1a1.34,1.34,0,0,1,0-.32s0,.11,0,.32,0,.55,0,1c0,.86,0,2.09,0,3.66,0,3.21,0,7.84.07,13.61,0,11.58.05,27.73.08,46.07l-.23-.24h13l54.87.07,16.64.08,4.52,0,1.18,0A1.79,1.79,0,0,1,549.51,137Z" transform="translate(-2.9 -23.12)"/><path class="cls-5" d="M550.56,108.54c0,.13-19.71.24-44,.24s-44-.11-44-.24,19.71-.24,44-.24S550.56,108.41,550.56,108.54Z" transform="translate(-2.9 -23.12)"/><path class="cls-5" d="M550.56,95c0,.13-19.71.24-44,.24s-44-.11-44-.24,19.71-.24,44-.24S550.56,94.87,550.56,95Z" transform="translate(-2.9 -23.12)"/><path class="cls-5" d="M550.56,81.4c0,.13-19.71.23-44,.23s-44-.1-44-.23,19.71-.24,44-.24S550.56,81.26,550.56,81.4Z" transform="translate(-2.9 -23.12)"/><path class="cls-5" d="M550.56,122.08c0,.13-19.71.23-44,.23s-44-.1-44-.23,19.71-.24,44-.24S550.56,121.94,550.56,122.08Z" transform="translate(-2.9 -23.12)"/><path class="cls-6" d="M463.42,134.09v-12l7.48-11.63,5.08,3.9,10.43-16.19,6.15,4.33,8.56-14.95,6.95,5.67,10.42-19.82,11.23,22.15,9.09-11.08,10.7-3.06v52.69Z" transform="translate(-2.9 -23.12)"/><path class="cls-7" d="M550.56,77.13s-.06,0-.19,0l-.56,0-2.17,0-8.2.06.1-.05-8.78,11.5-.06.08h-.09l-22,0,.2-.11c-2.9,4.82-6,10-9.25,15.41l-9.09,15.1-.18.3-.21-.28-11.91-16.4h.32c-4.54,7-8.28,12.86-10.9,16.93-1.3,2-2.33,3.58-3.05,4.68-.34.52-.61.93-.81,1.22a4.3,4.3,0,0,1-.29.41,4.2,4.2,0,0,1,.24-.44l.77-1.25,2.95-4.74,10.76-17,.15-.24.17.23,12,16.36-.39,0,9.08-15.12c3.24-5.37,6.37-10.58,9.27-15.4l.07-.11h.12l22,0-.15.08,8.87-11.44,0,0h.07l8.2.06,2.17,0h.56Z" transform="translate(-2.9 -23.12)"/><path class="cls-7" d="M481.91,106.58a.85.85,0,1,1-.84-.81A.83.83,0,0,1,481.91,106.58Z" transform="translate(-2.9 -23.12)"/><path class="cls-7" d="M507.31,92.15a.85.85,0,1,1-.85-.82A.83.83,0,0,1,507.31,92.15Z" transform="translate(-2.9 -23.12)"/><path class="cls-7" d="M527.05,88.6a.85.85,0,1,1-.85-.81A.83.83,0,0,1,527.05,88.6Z" transform="translate(-2.9 -23.12)"/><path class="cls-5" d="M554,165.75c0,.13-24,.24-53.67.24s-53.67-.11-53.67-.24,24-.24,53.67-.24S554,165.62,554,165.75Z" transform="translate(-2.9 -23.12)"/><path class="cls-5" d="M554,171.55c0,.13-24,.24-53.67.24s-53.67-.11-53.67-.24,24-.24,53.67-.24S554,171.42,554,171.55Z" transform="translate(-2.9 -23.12)"/><path class="cls-5" d="M554,177.35c0,.14-24,.24-53.67.24s-53.67-.1-53.67-.24,24-.23,53.67-.23S554,177.22,554,177.35Z" transform="translate(-2.9 -23.12)"/><path class="cls-5" d="M554,183.16c0,.13-24,.24-53.67.24s-53.67-.11-53.67-.24,24-.24,53.67-.24S554,183,554,183.16Z" transform="translate(-2.9 -23.12)"/><path class="cls-5" d="M511.61,180.88c2.94-4.93,3.8-11.51,4.55-17.19.36-2.68,1-6.49-.9-8.17s-2.2-4.57-4.51-6a7.12,7.12,0,0,0-7.65.06" transform="translate(-2.9 -23.12)"/><path class="cls-10" d="M503.46,198.35h0a7.93,7.93,0,0,1-8.52-7.6c-.17-4.31-.31-8.67-.31-8.67s-6.54-.62-7-7.09-.26-21.4-.26-21.4h0a22.51,22.51,0,0,1,22.78,1.47l-.4,22.76v12.25C509.7,194.18,507.56,198,503.46,198.35Z" transform="translate(-2.9 -23.12)"/><path class="cls-5" d="M494.07,167.1a3.31,3.31,0,0,1,4.42-1,3.76,3.76,0,0,1,1.25,4.7,4.92,4.92,0,0,1-3.17,2.4,2.49,2.49,0,0,0-1.95,2.68c.19,1.62,2.89,2.23,4.11,3.57,1.89,2.1,6,3,8.86,3.31s2.42.35,4-1.91a8.72,8.72,0,0,0,1.58-5.25q.13-7.15.29-14.31a20.56,20.56,0,0,0-.32-5.14,6.93,6.93,0,0,0-2.71-4.24c-1.58-1-3.57-1.12-5.36-1.7-2.24-.73-4.14-2.22-6.24-3.29s-4.67-1.71-6.77-.65c-1.51.75-2.52,2.26-4,3.1-2.09,1.19-4.94.92-6,4a5.22,5.22,0,0,0,0,3.29c1.42,4.19,6.6,5.87,10.33,4.06.08.71-.62,2.29.12,4.53.24.72.33,1.81,1.45,1.83" transform="translate(-2.9 -23.12)"/><path class="cls-11" d="M495.22,171.13s.27.35.81.31a1.49,1.49,0,0,0,1.21-1.47,1.61,1.61,0,0,0-1.11-1.61c-.53-.2-.91-.1-.93-.17s.36-.3,1-.16a1.93,1.93,0,0,1,1,.59,1.86,1.86,0,0,1,.48,1.37,1.79,1.79,0,0,1-1.69,1.79,1,1,0,0,1-.72-.36C495.2,171.26,495.2,171.15,495.22,171.13Z" transform="translate(-2.9 -23.12)"/><path class="cls-6" d="M502,151.63s.14-.25.54-.55a4.37,4.37,0,0,1,2-.76,5.62,5.62,0,0,1,3.1.47,7.06,7.06,0,0,1,2.85,2.55,14.46,14.46,0,0,1,2,6.55,16.81,16.81,0,0,1,.17,2.83,16.28,16.28,0,0,1-.5-2.79,15.72,15.72,0,0,0-2.07-6.32,6.9,6.9,0,0,0-2.65-2.42,5.53,5.53,0,0,0-2.87-.54A5.37,5.37,0,0,0,502,151.63Z" transform="translate(-2.9 -23.12)"/><path class="cls-6" d="M483.74,158.25a.6.6,0,0,1-.25,0,2,2,0,0,1-.64-.29,2.4,2.4,0,0,1-.75-.84,2.14,2.14,0,0,1-.2-1.5,2.43,2.43,0,0,1,1.05-1.51,3.48,3.48,0,0,1,2-.4,2.83,2.83,0,0,0,1.95-.5,13.87,13.87,0,0,0,1.59-1.7,8,8,0,0,1,4-2.33,8.48,8.48,0,0,1,3.8-.08,7.38,7.38,0,0,1,2.38.91,2.74,2.74,0,0,1,.74.58,11.15,11.15,0,0,0-3.18-1.16,8.46,8.46,0,0,0-3.63.18,7.83,7.83,0,0,0-3.78,2.22,13.71,13.71,0,0,1-1.66,1.76,2.67,2.67,0,0,1-1.11.5,6.2,6.2,0,0,1-1.12.06,3.13,3.13,0,0,0-1.83.29,2.15,2.15,0,0,0-.94,1.26,2.11,2.11,0,0,0,.74,2.11A5.13,5.13,0,0,0,483.74,158.25Z" transform="translate(-2.9 -23.12)"/><path class="cls-6" d="M501.05,176.25s.32-.17.85-.52a5.45,5.45,0,0,0,1.77-2A4.94,4.94,0,0,0,504,170a4.77,4.77,0,0,0-1.17-1.94,9.66,9.66,0,0,0-2-1.48c-.76-.44-1.53-.85-2.23-1.33a7.61,7.61,0,0,1-1.79-1.69,7.83,7.83,0,0,1-1.52-3.82,7,7,0,0,1,.22-2.77,4.59,4.59,0,0,1,.25-.71c.08-.15.12-.23.14-.22a9.48,9.48,0,0,0-.27,3.65,7.77,7.77,0,0,0,1.53,3.61,7.35,7.35,0,0,0,1.7,1.57c.68.45,1.44.85,2.21,1.3a9.61,9.61,0,0,1,2.11,1.56,5.23,5.23,0,0,1,1.26,2.14,5.17,5.17,0,0,1-2.38,6A2.36,2.36,0,0,1,501.05,176.25Z" transform="translate(-2.9 -23.12)"/><path class="cls-6" d="M512.26,166.75a2.53,2.53,0,0,1-.83.19,12.39,12.39,0,0,1-2.33.07,14.33,14.33,0,0,1-7.21-2.48,11.49,11.49,0,0,1-4.74-6,4.87,4.87,0,0,1-.09-2.34,1.9,1.9,0,0,1,.32-.8,5.72,5.72,0,0,0,.1,3,11.65,11.65,0,0,0,4.68,5.65,15.09,15.09,0,0,0,7,2.54C511.05,166.88,512.25,166.66,512.26,166.75Z" transform="translate(-2.9 -23.12)"/><path class="cls-5" d="M513.29,162.32a11.44,11.44,0,0,1,8.92-4,8.21,8.21,0,0,1,7.48,5.8c.62,2.46-.13,5-.45,7.55s0,5.47,2,7c1.24.9,2.85,1.07,4.34,1.43s3.07,1.11,3.59,2.55c.58,1.66-.62,3.54-2.23,4.24a8.19,8.19,0,0,1-5.18.07,4.34,4.34,0,0,1-1.92,5.19,5.73,5.73,0,0,1-5.74-.25,8.55,8.55,0,0,1-3.51-4.75c-1.11,1.94-4,2.35-5.88,1.12a6.17,6.17,0,0,1-2.38-5.92,11.47,11.47,0,0,1,3-5.91,15.08,15.08,0,0,0,2.08-2.65,3.4,3.4,0,0,0,.13-3.24,2,2,0,0,0-2.88-.57" transform="translate(-2.9 -23.12)"/><path class="cls-7" d="M517.18,169.11a2.24,2.24,0,0,1-1.94,0,4.69,4.69,0,0,1-2.82-3.69,4.75,4.75,0,0,1,.31-2.62A4.92,4.92,0,0,1,514,161a3.22,3.22,0,0,1,1.7-1,17.57,17.57,0,0,0-1.47,1.19,4.82,4.82,0,0,0-1.31,4.07,4.56,4.56,0,0,0,2.48,3.45A4.66,4.66,0,0,0,517.18,169.11Z" transform="translate(-2.9 -23.12)"/><path class="cls-11" d="M494.41,182a3.09,3.09,0,0,1-1.47-.15,7.9,7.9,0,0,1-3.16-1.7,8,8,0,0,1-2.08-2.92,3.1,3.1,0,0,1-.33-1.45,10.48,10.48,0,0,1,.63,1.31,9.4,9.4,0,0,0,2.1,2.7A9.53,9.53,0,0,0,493,181.5,8.68,8.68,0,0,1,494.41,182Z" transform="translate(-2.9 -23.12)"/><path class="cls-6" d="M519.32,187.27s-.11,0-.32-.05a3.06,3.06,0,0,1-.84-.37,4.59,4.59,0,0,1-1.84-2.8,5.91,5.91,0,0,1-.08-2.35,9.42,9.42,0,0,1,.86-2.54c.81-1.71,2.1-3.33,3-5.21a9.31,9.31,0,0,0,1-2.88,5.6,5.6,0,0,0-3.6-6,6.06,6.06,0,0,0-3.2-.2c-.76.16-1.15.38-1.16.33s.08-.07.26-.17a4.35,4.35,0,0,1,.86-.34,5.73,5.73,0,0,1,6.93,3.47,5.9,5.9,0,0,1,.37,3,9.4,9.4,0,0,1-1,3c-1,2-2.27,3.55-3.08,5.19a6.94,6.94,0,0,0-.84,4.63,4.65,4.65,0,0,0,1.61,2.72A9.37,9.37,0,0,0,519.32,187.27Z" transform="translate(-2.9 -23.12)"/><path class="cls-6" d="M529.08,192s-.14,0-.41,0a5.05,5.05,0,0,1-1.15-.21,6.48,6.48,0,0,1-3.37-2.63,10,10,0,0,1-1.46-6.16,64.06,64.06,0,0,1,1.25-7.66,17.7,17.7,0,0,0,.27-3.94,9.93,9.93,0,0,0-.83-3.54,6.48,6.48,0,0,0-4.54-3.79,9.5,9.5,0,0,0-4.16,0c-1,.22-1.49.43-1.51.39a1.82,1.82,0,0,1,.36-.19,7.64,7.64,0,0,1,1.11-.38,9,9,0,0,1,4.28-.16,6.69,6.69,0,0,1,2.73,1.22,6.9,6.9,0,0,1,2.13,2.71,10.37,10.37,0,0,1,.9,3.69,18,18,0,0,1-.27,4,69.33,69.33,0,0,0-1.28,7.6,9.81,9.81,0,0,0,1.3,6,6.43,6.43,0,0,0,3.15,2.63A8.48,8.48,0,0,0,529.08,192Z" transform="translate(-2.9 -23.12)"/><polygon class="cls-10" points="528.13 198.35 514.35 209.09 520.13 218.59 536.72 206.36 528.13 198.35"/><path class="cls-10" d="M494.17,185.36s.07-1.15-2.94-1.32a33.24,33.24,0,0,0-3.34-.11,7.6,7.6,0,0,1-1.43-2.79,8.26,8.26,0,0,1,.64-2.83l3-.28-.82-2.06-2.15.15-6.05.72-2.41,10.6-16.52,30.84a8,8,0,0,0,3.16,11.59h0c4.27,2.06,10-2.32,11.57-6.79l9.14-34.3,3.22-2.51,4.61-.85" transform="translate(-2.9 -23.12)"/><path class="cls-10" d="M456.51,390.6,479,261.21h0l.15-.56v0h0c3.83-15.17,9.73-20,9.73-20l34.42,2.16c2.93,5.26,3.3,17.88,3.3,17.88.4,1.55-7.28,126.93-7.28,126.93l-11.51-.32L501.54,268.6,468,391.09Z" transform="translate(-2.9 -23.12)"/><path class="cls-7" d="M456.24,391.76l.05-1.17,11.84.35-.1,3.85-.74,0c-3.25.08-16.57.2-18.72-.47C446.16,393.59,456.24,391.76,456.24,391.76Z" transform="translate(-2.9 -23.12)"/><g class="cls-12"><path class="cls-9" d="M463.76,394.59a3.79,3.79,0,0,1,1.57-2.3,4.2,4.2,0,0,1,2.78-.72l-.09,3.06Z" transform="translate(-2.9 -23.12)"/></g><g class="cls-12"><path class="cls-9" d="M451.31,392.82s-3.54.84-3.12,1.39,13.89.91,19.84.58l0-.25-15.7-.28S452,392.86,451.31,392.82Z" transform="translate(-2.9 -23.12)"/></g><path class="cls-5" d="M468.2,394.54l-.2,0-.59,0-2.14,0c-1.81,0-4.32,0-7.08-.07s-5.26-.18-7.07-.29L449,394.1l-.58,0a1.12,1.12,0,0,1-.2,0h.2l.58,0,2.15.1c1.8.08,4.3.18,7.07.25s5.26.1,7.07.11h2.93Z" transform="translate(-2.9 -23.12)"/><path class="cls-5" d="M452.31,394.43a3.77,3.77,0,0,0-.37-1,4.6,4.6,0,0,0-.71-.79,1.58,1.58,0,0,1,.83.72A1.37,1.37,0,0,1,452.31,394.43Z" transform="translate(-2.9 -23.12)"/><path class="cls-5" d="M455.84,392.88s-.2-.18-.36-.43-.27-.48-.24-.5.2.17.36.43S455.87,392.86,455.84,392.88Z" transform="translate(-2.9 -23.12)"/><path class="cls-5" d="M456.81,392.43s-.21-.09-.41-.26-.34-.34-.31-.37.21.09.41.27S456.83,392.41,456.81,392.43Z" transform="translate(-2.9 -23.12)"/><path class="cls-5" d="M457.44,391.42a1.59,1.59,0,0,1-.62.05,1.55,1.55,0,0,1-.61-.07,1.34,1.34,0,0,1,.62-.06A1.28,1.28,0,0,1,457.44,391.42Z" transform="translate(-2.9 -23.12)"/><path class="cls-5" d="M457.67,390.69a1.32,1.32,0,0,1-.69.17,1.2,1.2,0,0,1-.71-.11,3.41,3.41,0,0,1,.7,0A3.56,3.56,0,0,1,457.67,390.69Z" transform="translate(-2.9 -23.12)"/><path class="cls-5" d="M455.47,391.91a2.25,2.25,0,0,1-.76,0,5,5,0,0,1-.8-.19,2,2,0,0,1-.46-.19.4.4,0,0,1-.18-.22.26.26,0,0,1,.13-.28,1.45,1.45,0,0,1,1.7.42,1.14,1.14,0,0,1,.23.48c0,.12,0,.19,0,.19a1.91,1.91,0,0,0-.33-.61,1.41,1.41,0,0,0-.63-.41,1.3,1.3,0,0,0-.91,0c-.12.08-.08.22,0,.3s.29.12.42.18a6.42,6.42,0,0,0,.78.2C455.18,391.88,455.47,391.89,455.47,391.91Z" transform="translate(-2.9 -23.12)"/><path class="cls-5" d="M455.27,391.94a.62.62,0,0,1-.07-.49,1.07,1.07,0,0,1,.22-.51.79.79,0,0,1,.64-.34.28.28,0,0,1,.23.33.74.74,0,0,1-.14.31,2.63,2.63,0,0,1-.37.42,1.13,1.13,0,0,1-.45.27s.16-.12.37-.34a2.36,2.36,0,0,0,.33-.41c.11-.15.19-.41,0-.45a.69.69,0,0,0-.5.28,1,1,0,0,0-.23.46A2.68,2.68,0,0,0,455.27,391.94Z" transform="translate(-2.9 -23.12)"/><path class="cls-5" d="M468.05,391.54s-.34,0-.87,0a4,4,0,0,0-1.92.68,3.64,3.64,0,0,0-1.24,1.53c-.19.47-.22.78-.25.78a.92.92,0,0,1,0-.22,2.67,2.67,0,0,1,.15-.59,3.37,3.37,0,0,1,1.24-1.6,3.78,3.78,0,0,1,2.65-.64A.79.79,0,0,1,468.05,391.54Z" transform="translate(-2.9 -23.12)"/><path class="cls-5" d="M462.3,393.48a7,7,0,0,1-1.72.12,6.84,6.84,0,0,1-1.72-.18s.77,0,1.72,0S462.3,393.44,462.3,393.48Z" transform="translate(-2.9 -23.12)"/><path class="cls-5" d="M464.61,393.54s-.06.15-.15.31-.13.31-.17.3-.05-.17,0-.36S464.59,393.51,464.61,393.54Z" transform="translate(-2.9 -23.12)"/><path class="cls-5" d="M465.52,392.55s-.06.14-.18.26-.25.18-.28.15.05-.14.18-.25S465.49,392.53,465.52,392.55Z" transform="translate(-2.9 -23.12)"/><path class="cls-5" d="M466.78,392.13s-.17,0-.35.08-.3.14-.33.11.08-.17.29-.24S466.79,392.09,466.78,392.13Z" transform="translate(-2.9 -23.12)"/><path class="cls-5" d="M467.67,391.93s-.06.09-.16.13-.19,0-.2,0,.06-.09.16-.12S467.66,391.9,467.67,391.93Z" transform="translate(-2.9 -23.12)"/><path class="cls-5" d="M514.07,189a22.8,22.8,0,0,1,9.11,3.59c10.88,7.06,29.08,22,27.58,28.88-1.29,5.89-15.49,13-15.49,13l-9.22-11.09,5.66-3.23-13.9-9.25Z" transform="translate(-2.9 -23.12)"/><path class="cls-5" d="M520.28,211.46l-.46,1.65-1.6,7.65-.39,11.2c8.25,10.63,8.38,19.58,8.38,19.58l-41.7,4.87c0-8.23,3-18.61,3-18.61,2.42-4.09,2.3-16.33,1.85-16.78-2.61-2.58-3.24-4.47-1.16-7.78,0,0-12.93,13.58-14.26,14.8-4.56,4.19-9,3-11,1.2-5.71-5.1.16-11.67.16-11.67l21.77-24.95a10.83,10.83,0,0,1,5.66-3.45c2.32-.55,4.66-.83,4.66-.83l14.54.13a24.18,24.18,0,0,1,4.33.52,10.42,10.42,0,0,1,6.35,7.87C521.72,203.11,520.28,211.46,520.28,211.46Z" transform="translate(-2.9 -23.12)"/><path class="cls-6" d="M520.73,201.46a6.54,6.54,0,0,1,.09,1.21c0,.78,0,1.91-.08,3.3a88.66,88.66,0,0,1-1.43,10.78c-.28,1.42-.56,2.79-.86,4.06v-.05c-.13,3.24-.25,6-.36,8l-.15,2.34a3.52,3.52,0,0,1-.11.83,3.43,3.43,0,0,1-.05-.84c0-.63,0-1.41,0-2.34,0-2,.09-4.79.19-8v-.05c.29-1.26.57-2.63.84-4,.79-4.16,1.32-8,1.57-10.72.12-1.38.19-2.5.23-3.27A6.54,6.54,0,0,1,520.73,201.46Z" transform="translate(-2.9 -23.12)"/><path class="cls-6" d="M520.87,212.67a83.86,83.86,0,0,1,7.61,5,89.12,89.12,0,0,1,7.35,5.37,84.75,84.75,0,0,1-7.62-5A87.82,87.82,0,0,1,520.87,212.67Z" transform="translate(-2.9 -23.12)"/><path class="cls-6" d="M493.92,196.33s.08,0,.21.16a3.93,3.93,0,0,1,.52.57,6.24,6.24,0,0,1,1.13,2.58,8.57,8.57,0,0,1-.24,4.18,16.79,16.79,0,0,1-2.34,4.54,16.29,16.29,0,0,1-1.72,2c-.61.61-1.25,1.12-1.82,1.64-1.15,1-2.15,2-3,2.85s-1.47,1.53-1.92,2a4.46,4.46,0,0,1-.73.72,4.21,4.21,0,0,1,.59-.84c.41-.52,1-1.25,1.82-2.12s1.77-1.89,2.91-3c.58-.54,1.21-1,1.79-1.64a16.93,16.93,0,0,0,1.66-2,17.45,17.45,0,0,0,2.31-4.4,8.4,8.4,0,0,0,.32-4A7.59,7.59,0,0,0,493.92,196.33Z" transform="translate(-2.9 -23.12)"/><polygon class="cls-6" points="486.16 210.07 486.64 204.47 515.08 204.47 514.93 208.85 486.16 210.07"/><path class="cls-13" d="M465.78,217.16" transform="translate(-2.9 -23.12)"/><path class="cls-6" d="M464.8,216.47a21.21,21.21,0,0,0-1.57,1.65,7.56,7.56,0,0,0,.4,9.93c.94,1,1.75,1.44,1.7,1.52a1.62,1.62,0,0,1-.58-.25,6.61,6.61,0,0,1-1.36-1A7.51,7.51,0,0,1,463,217.9a6.28,6.28,0,0,1,1.27-1.14C464.58,216.53,464.79,216.44,464.8,216.47Z" transform="translate(-2.9 -23.12)"/><polygon class="cls-7" points="516.39 364.42 519.62 371.92 505.19 371.75 504.88 364.1 516.39 364.42"/><path class="cls-5" d="M508,393.57a13.13,13.13,0,0,0,2,.1c1.25,0,3,0,4.88,0l4.87-.1a14.94,14.94,0,0,0,2-.1,13.13,13.13,0,0,0-2-.1c-1.25,0-3,0-4.88,0l-4.87.09A14.94,14.94,0,0,0,508,393.57Z" transform="translate(-2.9 -23.12)"/><path class="cls-5" d="M514,387.37a9.89,9.89,0,0,0-.06,3.05,10.65,10.65,0,0,0,.39,3,9.89,9.89,0,0,0,.06-3.05A10.65,10.65,0,0,0,514,387.37Z" transform="translate(-2.9 -23.12)"/><polyline class="cls-14" points="519.6 372.08 505.17 371.6 505.08 370.23 518.87 370.35 519.6 371.92"/><path class="cls-7" d="M525.29,244.32c10.86,34.26-3.14,75.86.22,115.79.33,3.92,1.92,8.61-1.75,10.85a6.08,6.08,0,0,1-3.31.81c-2.93-.1-5.38-1.62-8-2.67a23.79,23.79,0,0,0-15.73-.61c-3.47,1.08-6.9,3-10.49,2.45-4.77-.72-7.86-5.43-12.24-7.43-4.11-1.86-8.85-1.17-13.36-1.28h-.13a10.12,10.12,0,0,1-9.35-12.82c6.55-24,28.29-102,37.91-116.22L517.83,232C520.48,235.17,523.89,240,525.29,244.32Z" transform="translate(-2.9 -23.12)"/><path class="cls-5" d="M515.21,260.45a13.45,13.45,0,0,1-1.56,2,46.27,46.27,0,0,1-4.25,4.34,28.62,28.62,0,0,1-5,3.44,10.91,10.91,0,0,1-2.29,1.06c-.09-.16,3.42-1.8,7-4.86,1.77-1.54,3.22-3.11,4.31-4.21A13.53,13.53,0,0,1,515.21,260.45Z" transform="translate(-2.9 -23.12)"/><g class="cls-15"><path d="M502.51,273.38a122.56,122.56,0,0,0-4.82,73.35c.51,2.09,1,4.47-.15,6.27-1.54,2.33-5.28,2.17-7.4.34s-3-4.7-3.48-7.44c-4-20.45,3.2-41,10.93-60.32" transform="translate(-2.9 -23.12)"/></g><rect class="cls-5" x="281.92" y="261.81" width="54.52" height="2.65"/><polygon class="cls-5" points="273.48 264.46 263.25 226.14 305.82 226.14 315.08 264.46 273.48 264.46"/><polygon class="cls-4" points="312.53 261.56 274.5 261.56 265.64 227.91 303.87 227.91 312.53 261.56"/><path class="cls-3" d="M269.18,253.45h38.23l-.64-2.42H268.55Z" transform="translate(-2.9 -23.12)"/><path class="cls-2" d="M273.31,252.24a.42.42,0,0,0,.84,0,.42.42,0,1,0-.84,0Z" transform="translate(-2.9 -23.12)"/><path class="cls-2" d="M271.87,252.24a.42.42,0,0,0,.84,0,.42.42,0,1,0-.84,0Z" transform="translate(-2.9 -23.12)"/><path class="cls-2" d="M270.43,252.24a.42.42,0,0,0,.84,0,.42.42,0,1,0-.84,0Z" transform="translate(-2.9 -23.12)"/><path class="cls-7" d="M297.91,268.19,302.1,273a5.9,5.9,0,0,0,2.57-4.81c0-3.35-3.07-6.1-6.78-6.08s-6.75,2.78-6.73,6.13Z" transform="translate(-2.9 -23.12)"/><path class="cls-5" d="M297.38,269a8.58,8.58,0,0,1,1.2,1.2c.74.8,1.81,2,3.09,3.4l.15.16-.18.14a7.25,7.25,0,0,1-7.06.69,6.9,6.9,0,0,1-2.91-2.34,5.89,5.89,0,0,1-1.07-3.14v-.21h.21c2,0,3.66,0,4.81,0a10,10,0,0,1,1.77.09,11.86,11.86,0,0,1-1.84.14l-4.74.17.21-.22a5.54,5.54,0,0,0,1,2.9,6.51,6.51,0,0,0,2.72,2.16,6.91,6.91,0,0,0,6.63-.58l0,.3c-1.21-1.42-2.21-2.62-2.91-3.47A13.43,13.43,0,0,1,297.38,269Z" transform="translate(-2.9 -23.12)"/><path class="cls-5" d="M294.65,264.58a.37.37,0,0,0,.38.37.38.38,0,0,0,.38-.38.39.39,0,0,0-.39-.37A.38.38,0,0,0,294.65,264.58Z" transform="translate(-2.9 -23.12)"/><path class="cls-5" d="M287.12,261.83a22.05,22.05,0,0,1,4.52-.25h.7l.07.07a18.05,18.05,0,0,1,2.62,2.93,18,18,0,0,1-2.95-2.6l.16.07h-.6A20.94,20.94,0,0,1,287.12,261.83Z" transform="translate(-2.9 -23.12)"/><path class="cls-5" d="M278.55,266.63a16.51,16.51,0,0,1-.43-1.77c-.25-1.16-.62-2.86-1-4.94l0-.23h.24l9.46-.08c-.05,0,.44.37.23.2h0v.09l0,.11,0,.23.08.44c.06.3.12.6.17.89.11.59.22,1.16.32,1.73l.6,3.23,0,.26H288c-2.84,0-5.24-.05-6.9-.08l-1.92-.05a3.14,3.14,0,0,1-.65-.05,4.16,4.16,0,0,1,.74-.06l2-.07c1.67,0,4-.1,6.77-.13l-.21.26-.63-3.22c-.11-.57-.22-1.14-.33-1.73-.06-.29-.12-.59-.17-.89l-.09-.45,0-.22,0-.11v-.09h0c-.21-.17.28.24.23.2h-9.46l.19-.23c.36,2,.63,3.68.82,4.87A15.64,15.64,0,0,1,278.55,266.63Z" transform="translate(-2.9 -23.12)"/><path class="cls-5" d="M294.08,272.2a.39.39,0,0,0,.39.37.38.38,0,0,0,.37-.38.37.37,0,0,0-.38-.37A.38.38,0,0,0,294.08,272.2Z" transform="translate(-2.9 -23.12)"/><path class="cls-5" d="M287.59,272.22A12.88,12.88,0,0,1,291,272a12.64,12.64,0,0,1,3.43.22,12.07,12.07,0,0,1-3.43.26A12.91,12.91,0,0,1,287.59,272.22Z" transform="translate(-2.9 -23.12)"/><path class="cls-5" d="M278.59,275.21a7.65,7.65,0,0,1-.42-1.27c-.25-.84-.6-2.08-1-3.64l-.06-.22h.24c2.57-.05,6-.08,9.75-.1-.2-.16.29.22.24.18h0v.06l0,.08,0,.17.08.32.17.65c.11.42.21.84.32,1.26l.6,2.39.07.28h-.28c-2.9,0-5.36,0-7.09-.07l-2-.05a2.68,2.68,0,0,1-.68-.06,4.14,4.14,0,0,1,.76-.06l2-.07c1.73-.05,4.14-.11,7-.13l-.22.28-.63-2.4c-.1-.41-.21-.83-.32-1.26l-.17-.64-.08-.33,0-.16,0-.08,0,0v0h0s.44.34.24.18c-3.76,0-7.19,0-9.76,0l.17-.23c.36,1.5.64,2.73.83,3.6A11.42,11.42,0,0,1,278.59,275.21Z" transform="translate(-2.9 -23.12)"/><path class="cls-5" d="M279.3,262a11.45,11.45,0,0,1,3.24-.25,11.05,11.05,0,0,1,3.24.23,11.45,11.45,0,0,1-3.24.25A11.05,11.05,0,0,1,279.3,262Z" transform="translate(-2.9 -23.12)"/><path class="cls-5" d="M279.38,263a11.59,11.59,0,0,1,3.26-.25,10.8,10.8,0,0,1,3.26.23,22.26,22.26,0,0,1-6.52,0Z" transform="translate(-2.9 -23.12)"/><path class="cls-5" d="M279.58,264a20.66,20.66,0,0,1,6.28,0,10.74,10.74,0,0,1-3.14.25A10,10,0,0,1,279.58,264Z" transform="translate(-2.9 -23.12)"/><path class="cls-5" d="M279.5,272.14a9.64,9.64,0,0,1,3.08-.25,10.31,10.31,0,0,1,3.09.22,10,10,0,0,1-3.09.25A10.21,10.21,0,0,1,279.5,272.14Z" transform="translate(-2.9 -23.12)"/><path class="cls-5" d="M279.88,273.31a7.63,7.63,0,0,1,2.63-.25,7.36,7.36,0,0,1,2.63.23,14.53,14.53,0,0,1-5.26,0Z" transform="translate(-2.9 -23.12)"/><polygon class="cls-5" points="217.36 264.34 217.36 269.36 220.65 269.36 220.65 371.12 227.4 371.12 227.4 269.36 263.24 269.36 263.24 371.12 270 371.12 270 269.36 425.48 269.36 425.48 371.1 432.24 371.1 432.24 269.36 435.16 269.36 435.16 264.34 217.36 264.34"/><path class="cls-5" d="M366.69,325.37a50.81,50.81,0,0,0,8.78,0,53.62,53.62,0,0,0-8.78,0Z" transform="translate(-2.9 -23.12)"/><ellipse class="cls-6" cx="299.83" cy="303.17" rx="0.24" ry="0.12"/><path class="cls-16" d="M345.76,235.84l-25.23-25.63-.54-2.78c-.11-.5-.21-1.07-.31-1.71a6.86,6.86,0,0,1,0-2.26,10.2,10.2,0,0,1,.78-2.69c.42-.74-.26-1.63-1-1.33s-1.92,2.32-2.19,5.09-2.62-.9-3.5-2.23S310,197,309.43,197c-.89-.07-1.12.9-.21,2.2s3.39,5.39,2.69,5.83h0a3.29,3.29,0,0,0-3.48,1.73c-.64,1.22-1.35,3-.77,3.75a45.72,45.72,0,0,0,4,4.26l.85.73s21.82,31.62,26.58,32.65c2.95.64,48.69,4.43,48.69,4.43l3.45-12.6Z" transform="translate(-2.9 -23.12)"/><path class="cls-16" d="M307.44,210l2.33,2.24a2.65,2.65,0,0,0,.88.65,1,1,0,0,0,1-.17.94.94,0,0,0,.13-.93,2.5,2.5,0,0,0-.53-.83L309,208.18" transform="translate(-2.9 -23.12)"/><path class="cls-17" d="M309,208.18c.05,0,.49.39,1.16,1.13l1.15,1.3a4.36,4.36,0,0,1,.64.87,1.25,1.25,0,0,1-.06,1.3,1.14,1.14,0,0,1-1.28.29,2.51,2.51,0,0,1-.91-.64l-1.22-1.24c-.69-.72-1.09-1.19-1-1.24a5.92,5.92,0,0,1,1.27,1l1.29,1.17a2.3,2.3,0,0,0,.76.52.71.71,0,0,0,.76-.15.81.81,0,0,0,0-.8,4.41,4.41,0,0,0-.56-.79c-.37-.47-.73-.92-1.07-1.37A5.69,5.69,0,0,1,309,208.18Z" transform="translate(-2.9 -23.12)"/><path class="cls-16" d="M309.09,208.32l2.34,2.24a2.61,2.61,0,0,0,.87.65.94.94,0,0,0,1-.17.92.92,0,0,0,.14-.93,2.53,2.53,0,0,0-.54-.83l-2.26-2.73" transform="translate(-2.9 -23.12)"/><path class="cls-17" d="M310.66,206.55s.48.39,1.15,1.13L313,209a4.46,4.46,0,0,1,.64.87,1.25,1.25,0,0,1-.06,1.3,1.14,1.14,0,0,1-1.28.29,2.56,2.56,0,0,1-.92-.64l-1.22-1.25a5.6,5.6,0,0,1-1-1.23,5.55,5.55,0,0,1,1.28,1l1.29,1.17a2.11,2.11,0,0,0,.76.52.69.69,0,0,0,.75-.15.78.78,0,0,0,0-.8,5,5,0,0,0-.56-.79l-1.08-1.37A5.42,5.42,0,0,1,310.66,206.55Z" transform="translate(-2.9 -23.12)"/><path class="cls-16" d="M310.91,207l2.33,2.25a2.88,2.88,0,0,0,.88.64,1,1,0,0,0,1-.16.94.94,0,0,0,.14-.94,2.83,2.83,0,0,0-.54-.83l-2.27-2.73" transform="translate(-2.9 -23.12)"/><path class="cls-17" d="M312.47,205.21s.49.39,1.16,1.13l1.15,1.3a4.57,4.57,0,0,1,.65.88,1.23,1.23,0,0,1-.07,1.29,1.12,1.12,0,0,1-1.27.29,2.47,2.47,0,0,1-.92-.64L312,208.22c-.69-.72-1.09-1.19-1-1.24a6.06,6.06,0,0,1,1.27,1l1.29,1.17a2.23,2.23,0,0,0,.77.52.69.69,0,0,0,.75-.14.79.79,0,0,0,0-.8,4,4,0,0,0-.55-.79l-1.08-1.38A5.69,5.69,0,0,1,312.47,205.21Z" transform="translate(-2.9 -23.12)"/><path class="cls-17" d="M314.6,210.86c0-.07.58-.19,1.42.07l-.27.23a4.12,4.12,0,0,1,.81-3.55c.36-.42.67-.59.71-.55a8.34,8.34,0,0,0-1.11,2.57,4.71,4.71,0,0,0,0,1.45l.05.36-.32-.13C315.15,211,314.59,211,314.6,210.86Z" transform="translate(-2.9 -23.12)"/><path class="cls-16" d="M378.8,197.42l.11,35.1-13.69.65-.55-8.41s-6.61,1-8-4c-.88-3.17-.66-27.69-.66-27.69Z" transform="translate(-2.9 -23.12)"/><path class="cls-5" d="M352.62,196.56c1,2.1,5.85,5.93,5.85,5.93l2.18,5.85c1.89-1.48,4.44-1.4,4.92,1.93.35,2.41-2.64,2.9-2.64,2.9,1.74,3,2.92,5.36,5.46,8.18,2.74,3.05,4.28,3.36,7.26,3.41h3.28s6.72-5.61,5.39-20.4-14.62-10.47-17.79-14.17C361.36,184.18,349.23,189.56,352.62,196.56Z" transform="translate(-2.9 -23.12)"/><path class="cls-6" d="M383.57,216.72a4.67,4.67,0,0,1-1.62-.07,8.47,8.47,0,0,1-3.92-2,21.19,21.19,0,0,1-4-5.24c-1.28-2.09-2.67-4.53-5-6.15s-5.18-1.92-7.58-2.41a14.31,14.31,0,0,1-6.12-2.33,6.64,6.64,0,0,1-2.46-3.64,3.75,3.75,0,0,1-.06-1.62,5.23,5.23,0,0,0,.13,1.6,6.57,6.57,0,0,0,2.47,3.55,14.19,14.19,0,0,0,6.07,2.26c2.4.49,5.22.8,7.66,2.43s3.8,4.12,5.07,6.22a21.78,21.78,0,0,0,3.91,5.23,8.63,8.63,0,0,0,3.84,2.05,7.62,7.62,0,0,0,1.19.14Z" transform="translate(-2.9 -23.12)"/><path class="cls-6" d="M384.35,204.7l-.71-.22a11.41,11.41,0,0,0-2.06-.46,4.68,4.68,0,0,0-3.17.71,2.63,2.63,0,0,0-1.1,1.67,2.28,2.28,0,0,0,.64,2.09,1.74,1.74,0,0,0,1.1.44,2.33,2.33,0,0,0,1.22-.33,3.76,3.76,0,0,0,1.66-2.11,5.25,5.25,0,0,0-4.42-6.88,9.3,9.3,0,0,0-3.4.45,25.11,25.11,0,0,1-3.52.85,14.62,14.62,0,0,1-3.74,0,12.58,12.58,0,0,1-3.6-1,4.35,4.35,0,0,1-2.46-2.6,3.39,3.39,0,0,1,.83-3.31,2.93,2.93,0,0,1,3.22-.48,2.45,2.45,0,0,1,1.19,1.12,2.63,2.63,0,0,1,.25,1.58,3.58,3.58,0,0,1-1.6,2.51,5.23,5.23,0,0,1-2.7.75,8,8,0,0,1-2.57-.4,9.13,9.13,0,0,1-3.76-2.32,9.45,9.45,0,0,1-1.93-2.75,9.81,9.81,0,0,1-.68-2c-.08-.48-.11-.73-.11-.73l.15.73a10.16,10.16,0,0,0,.71,2,9.69,9.69,0,0,0,1.93,2.7,9.08,9.08,0,0,0,3.73,2.27,7.75,7.75,0,0,0,2.53.38,5,5,0,0,0,2.62-.74,3.44,3.44,0,0,0,1.52-2.39,2.36,2.36,0,0,0-1.35-2.52,2.74,2.74,0,0,0-3,.45,3.21,3.21,0,0,0-.78,3.13,4.18,4.18,0,0,0,2.36,2.48,12.14,12.14,0,0,0,3.55,1,14.16,14.16,0,0,0,3.68,0,23.81,23.81,0,0,0,3.5-.84,9.38,9.38,0,0,1,3.47-.45,5.42,5.42,0,0,1,4.55,7.11,3.91,3.91,0,0,1-1.74,2.19,2.44,2.44,0,0,1-1.29.34,1.87,1.87,0,0,1-1.19-.48,2.43,2.43,0,0,1-.67-2.21,2.69,2.69,0,0,1,1.16-1.73,4.66,4.66,0,0,1,3.24-.7,10,10,0,0,1,2.06.5C384.11,204.6,384.35,204.7,384.35,204.7Z" transform="translate(-2.9 -23.12)"/><path class="cls-7" d="M367,385.67l-4.47-5.74,10.7-8.45,6.63,8.33-.63.56c-2.82,2.5-14.53,12.49-17,13.45C359.48,394.89,367,385.67,367,385.67Z" transform="translate(-2.9 -23.12)"/><g class="cls-18"><path class="cls-9" d="M363.42,390.33s-2.46,3.44-1.64,3.65,13-9.44,18-14.17l-.21-.23L365.46,391S364.07,389.87,363.42,390.33Z" transform="translate(-2.9 -23.12)"/></g><path class="cls-5" d="M379.77,379.44l-.17.17-.5.45-1.88,1.62c-1.6,1.35-3.82,3.2-6.33,5.18s-4.81,3.73-6.5,5l-2,1.45-.55.39c-.13.09-.19.13-.2.12l.18-.15.54-.41,2-1.5c1.67-1.26,4-3,6.47-5s4.74-3.82,6.35-5.15l1.91-1.58.53-.43Z" transform="translate(-2.9 -23.12)"/><path class="cls-5" d="M365.59,391.13a4.74,4.74,0,0,0-1.09-.64,5.46,5.46,0,0,0-1.25-.22,1.81,1.81,0,0,1,1.3.06A1.83,1.83,0,0,1,365.59,391.13Z" transform="translate(-2.9 -23.12)"/><path class="cls-5" d="M367.48,387c0,.05-.31,0-.66-.14a.34.34,0,1,1,.06-.16C367.23,386.86,367.5,387,367.48,387Z" transform="translate(-2.9 -23.12)"/><path class="cls-5" d="M368,385.89c0,.05-.26.07-.58.05s-.57-.08-.56-.12.26-.07.57-.05S368,385.84,368,385.89Z" transform="translate(-2.9 -23.12)"/><path class="cls-5" d="M367.74,384.45s-.2.26-.51.51-.57.42-.6.38.19-.26.5-.51S367.71,384.41,367.74,384.45Z" transform="translate(-2.9 -23.12)"/><path class="cls-5" d="M367.36,383.59s-.14.36-.48.67a1.31,1.31,0,0,1-.71.42s.28-.24.6-.54S367.32,383.56,367.36,383.59Z" transform="translate(-2.9 -23.12)"/><path class="cls-5" d="M366.38,386.39a2.66,2.66,0,0,1-.69.54,5.35,5.35,0,0,1-.86.41,2.21,2.21,0,0,1-.55.16.44.44,0,0,1-.34-.08.33.33,0,0,1-.11-.36,1.6,1.6,0,0,1,1.85-.86,1.64,1.64,0,0,1,.58.28,1,1,0,0,1,.17.17,2.55,2.55,0,0,0-.78-.33,1.48,1.48,0,0,0-.89.08,1.33,1.33,0,0,0-.77.7c-.05.17.1.26.27.24a3.07,3.07,0,0,0,.52-.14,5.77,5.77,0,0,0,.85-.38C366.1,386.57,366.37,386.36,366.38,386.39Z" transform="translate(-2.9 -23.12)"/><path class="cls-5" d="M366.23,386.56s-.24-.08-.46-.41a1.39,1.39,0,0,1-.2-.65.9.9,0,0,1,.29-.81.35.35,0,0,1,.46.15.94.94,0,0,1,.13.4,2.56,2.56,0,0,1,0,.68,1.19,1.19,0,0,1-.17.58s0-.23.06-.59a2.89,2.89,0,0,0,0-.64c0-.22-.16-.54-.36-.43a.75.75,0,0,0-.22.65,1.36,1.36,0,0,0,.16.6A3.4,3.4,0,0,0,366.23,386.56Z" transform="translate(-2.9 -23.12)"/><path class="cls-5" d="M377.24,376.69s-.33.21-.77.65a4.29,4.29,0,0,0-1,4.45c.2.59.43.91.4.92s-.07-.07-.17-.21a4.07,4.07,0,0,1-.34-.67,4.12,4.12,0,0,1,1.07-4.57,3,3,0,0,1,.6-.45C377.14,376.72,377.23,376.68,377.24,376.69Z" transform="translate(-2.9 -23.12)"/><path class="cls-5" d="M372.61,373.12a46.12,46.12,0,0,1,3.53,4.35,24.44,24.44,0,0,1-1.83-2.13A23.31,23.31,0,0,1,372.61,373.12Z" transform="translate(-2.9 -23.12)"/><path class="cls-5" d="M373.69,382.81a7.49,7.49,0,0,1-1.43,1.39,7.81,7.81,0,0,1-1.67,1.11s.71-.55,1.56-1.24S373.66,382.77,373.69,382.81Z" transform="translate(-2.9 -23.12)"/><path class="cls-5" d="M375.79,381.15s.06.19.11.41.13.39.09.41-.19-.12-.25-.37S375.74,381.14,375.79,381.15Z" transform="translate(-2.9 -23.12)"/><path class="cls-5" d="M375.8,379.54c.05,0,.07.17,0,.37s-.07.36-.12.35-.06-.17,0-.37S375.76,379.54,375.8,379.54Z" transform="translate(-2.9 -23.12)"/><path class="cls-5" d="M376.58,378.2s-.13.15-.24.33-.16.35-.21.35-.07-.22.07-.44S376.56,378.16,376.58,378.2Z" transform="translate(-2.9 -23.12)"/><path class="cls-5" d="M377.21,377.35s0,.13,0,.23-.14.17-.18.15,0-.13,0-.23S377.17,377.33,377.21,377.35Z" transform="translate(-2.9 -23.12)"/><g class="cls-8"><polygon points="374.09 353.3 363.27 361.56 362.27 360.26 373.64 352.55 374.09 353.3"/></g><path class="cls-7" d="M317.75,391.43l0-7.28,13.63,0,.09,10.65-.85.06c-3.76.22-19.14.87-21.65.11C306.18,394.08,317.75,391.43,317.75,391.43Z" transform="translate(-2.9 -23.12)"/><g class="cls-18"><path class="cls-9" d="M312.1,392.93s-4.06,1.18-3.55,1.85,16.08.6,22.94,0l0-.3-18.16.23S312.89,393,312.1,392.93Z" transform="translate(-2.9 -23.12)"/></g><path class="cls-5" d="M331.68,394.44l-.23,0-.68.05-2.48.11c-2.09.09-5,.17-8.18.18s-6.08,0-8.18-.09l-2.48-.1-.67,0-.23,0h.91l2.47,0c2.1,0,5,.06,8.18.05s6.09-.08,8.18-.13l2.48-.07h.91Z" transform="translate(-2.9 -23.12)"/><path class="cls-5" d="M313.32,394.89a7.25,7.25,0,0,0-.47-1.18,5.69,5.69,0,0,0-.85-.94,1.79,1.79,0,0,1,1,.85A1.87,1.87,0,0,1,313.32,394.89Z" transform="translate(-2.9 -23.12)"/><path class="cls-5" d="M317.33,392.83s-.23-.21-.43-.52a1.6,1.6,0,0,1-.3-.61s.24.21.44.52S317.37,392.81,317.33,392.83Z" transform="translate(-2.9 -23.12)"/><path class="cls-5" d="M318.43,392.24s-.25-.1-.48-.31-.4-.41-.37-.45.24.11.48.32S318.46,392.21,318.43,392.24Z" transform="translate(-2.9 -23.12)"/><path class="cls-5" d="M319.12,391a1.56,1.56,0,0,1-.71.1,1.84,1.84,0,0,1-.71-.07,1.56,1.56,0,0,1,.71-.1A1.84,1.84,0,0,1,319.12,391Z" transform="translate(-2.9 -23.12)"/><path class="cls-5" d="M319.36,390.05a1.37,1.37,0,0,1-.79.23,1.27,1.27,0,0,1-.82-.11,4.77,4.77,0,0,1,.8-.05A3.5,3.5,0,0,1,319.36,390.05Z" transform="translate(-2.9 -23.12)"/><path class="cls-5" d="M316.86,391.65a2.7,2.7,0,0,1-.87,0,5,5,0,0,1-.94-.2,2.13,2.13,0,0,1-.53-.22.41.41,0,0,1-.22-.27.33.33,0,0,1,.13-.35,1.62,1.62,0,0,1,2,.46,1.66,1.66,0,0,1,.29.59c0,.15,0,.23,0,.23a2.57,2.57,0,0,0-.4-.74,1.51,1.51,0,0,0-.75-.48,1.33,1.33,0,0,0-1.05.07c-.13.1-.08.27.08.36a2.68,2.68,0,0,0,.49.21,7,7,0,0,0,.9.23C316.53,391.62,316.86,391.62,316.86,391.65Z" transform="translate(-2.9 -23.12)"/><path class="cls-5" d="M316.63,391.69a.88.88,0,0,1-.1-.61,1.41,1.41,0,0,1,.24-.64.89.89,0,0,1,.72-.45.35.35,0,0,1,.28.4,1.11,1.11,0,0,1-.15.4,3.05,3.05,0,0,1-.41.53,1.45,1.45,0,0,1-.5.36s.17-.16.41-.44a3.47,3.47,0,0,0,.37-.53c.12-.18.2-.52,0-.56s-.44.2-.58.38a1.46,1.46,0,0,0-.24.57A3.32,3.32,0,0,0,316.63,391.69Z" transform="translate(-2.9 -23.12)"/><path class="cls-5" d="M331.39,390.71s-.4,0-1,0a4.36,4.36,0,0,0-2.19.91,4.43,4.43,0,0,0-1.37,1.95c-.21.59-.22,1-.25,1a.7.7,0,0,1,0-.27,4.15,4.15,0,0,1,1.52-2.78,4.26,4.26,0,0,1,2.29-.9,3.46,3.46,0,0,1,.75,0A.75.75,0,0,1,331.39,390.71Z" transform="translate(-2.9 -23.12)"/><path class="cls-5" d="M330,385a26.52,26.52,0,0,1,.13,2.8,23.51,23.51,0,0,1,0,2.8,26.52,26.52,0,0,1-.13-2.8A23.61,23.61,0,0,1,330,385Z" transform="translate(-2.9 -23.12)"/><path class="cls-5" d="M324.82,393.34a8.06,8.06,0,0,1-2,.21,8.36,8.36,0,0,1-2-.15s.9,0,2,0S324.82,393.29,324.82,393.34Z" transform="translate(-2.9 -23.12)"/><path class="cls-5" d="M327.5,393.33s-.08.18-.17.39-.14.38-.18.38-.07-.21,0-.45S327.47,393.29,327.5,393.33Z" transform="translate(-2.9 -23.12)"/><path class="cls-5" d="M328.5,392.07s-.06.17-.2.32-.28.23-.31.2.05-.18.19-.32S328.46,392,328.5,392.07Z" transform="translate(-2.9 -23.12)"/><path class="cls-5" d="M329.94,391.49c0,.05-.19,0-.39.12s-.35.17-.38.14.07-.22.32-.3S330,391.45,329.94,391.49Z" transform="translate(-2.9 -23.12)"/><path class="cls-5" d="M331,391.21c0,.05-.06.12-.17.16s-.22.05-.24,0,.06-.12.18-.16S330.94,391.17,331,391.21Z" transform="translate(-2.9 -23.12)"/><g class="cls-8"><polygon points="328.59 367.04 314.85 367.06 314.86 365.42 328.54 365.32 328.59 367.04"/></g><path class="cls-16" d="M351.4,265.82l-5.46,16.44c-1.47,4.43-5.35,5.19-10,5.19H305.55v-6.81l27.74-4,6.61-16.89Z" transform="translate(-2.9 -23.12)"/><path class="cls-16" d="M302.21,279.23l-2.41-1.14s-2.6-5-3.19-4.82-.77,1.68.27,4l-3.2-.91s-6.94,3.2-6.63,3.64a1.6,1.6,0,0,0,2.38.68c1.51-.78,3.49-1.68,3.49-1.68l3.74,1.07-4.82.61-4.53,4.12a2.21,2.21,0,0,0,2.77-.06l11.78,2.53,3.69.2v-6.81Z" transform="translate(-2.9 -23.12)"/><path class="cls-17" d="M290.08,284.72c.05,0,.27-.32.69-.78a3.83,3.83,0,0,1,.86-.67,3.58,3.58,0,0,1,1.27-.33,17.65,17.65,0,0,0,3.54-.6,17.15,17.15,0,0,0-3.58.24,3.44,3.44,0,0,0-1.4.4,3.28,3.28,0,0,0-.88.79A2.17,2.17,0,0,0,290.08,284.72Z" transform="translate(-2.9 -23.12)"/><path class="cls-17" d="M291.92,285.19c.05,0,.08-.25.42-.32s.87-.12,1.43-.18a10.73,10.73,0,0,0,2.07-.21,4.23,4.23,0,0,0-2.11-.16,6.36,6.36,0,0,0-1.48.31.61.61,0,0,0-.36.37C291.86,285.13,291.9,285.19,291.92,285.19Z" transform="translate(-2.9 -23.12)"/><path class="cls-7" d="M354,262.23l-2.34,7.91-14.82-6.71c.53-1.65,3-9,7.68-20.74a20.12,20.12,0,0,1,15.36-12.38,87,87,0,0,1,14.19-1.39c8.31.09,20.55,5.28,22.19,13.43,1.25,6.22,0,17.2,0,30.54l-1.08,25.49-42.59,1.44Z" transform="translate(-2.9 -23.12)"/><g class="cls-8"><path d="M396.24,267c-5.18,1.06-10.5,0-15.78-.32-3.21-.19-6.76-.54-9.29,1.43-2,1.56-2.82,4.19-3.4,6.66-2.21,9.44-2.61,15.77-3.1,25.45l25.63,1.55Z" transform="translate(-2.9 -23.12)"/></g><path class="cls-5" d="M352.88,234.57s.43.06,1.14.34a5.89,5.89,0,0,1,2.45,2,8.25,8.25,0,0,1,1.46,4.44,28,28,0,0,1-.44,5.84,100.24,100.24,0,0,1-2.38,10.44l-.86,3.14a8.61,8.61,0,0,0-.28,1.16,6.38,6.38,0,0,0,.41-1.12c.24-.73.58-1.79,1-3.11a80.85,80.85,0,0,0,2.49-10.45,26.62,26.62,0,0,0,.42-5.92,8.34,8.34,0,0,0-1.59-4.57,5.86,5.86,0,0,0-2.61-2,4.14,4.14,0,0,0-.88-.19A1,1,0,0,0,352.88,234.57Z" transform="translate(-2.9 -23.12)"/><path class="cls-5" d="M337.28,261.42a15.45,15.45,0,0,0,2.09,1.19c1.32.69,3.16,1.6,5.23,2.53s4,1.71,5.35,2.24a14.49,14.49,0,0,0,2.28.78,15.92,15.92,0,0,0-2.18-1c-1.36-.59-3.24-1.4-5.3-2.33s-3.92-1.8-5.26-2.43A15.61,15.61,0,0,0,337.28,261.42Z" transform="translate(-2.9 -23.12)"/><path class="cls-5" d="M330.49,301.76a15.19,15.19,0,0,0-6.2,20.33l37.07,63.64,17.11-10.33-28.79-57.46,20.86-13.62" transform="translate(-2.9 -23.12)"/><path class="cls-5" d="M375.63,298.61l-50.89,1.8a15.17,15.17,0,0,0-14.64,15.4l2.11,72.68,21.4-.05-.71-68.71,42.73-1.13Z" transform="translate(-2.9 -23.12)"/><path class="cls-6" d="M332.9,322.21a2.94,2.94,0,0,1,.06.67c0,.49.05,1.13.08,1.93.07,1.68.13,4.1.2,7.1.12,6,.21,14.27.26,23.41s.08,17.38.12,23.42c0,3,0,5.37,0,7.1,0,.8,0,1.44,0,1.93a3.16,3.16,0,0,1,0,.67,5.93,5.93,0,0,1-.06-.67c0-.49-.05-1.13-.08-1.93-.06-1.67-.13-4.1-.19-7.09-.13-6-.22-14.28-.26-23.42s-.09-17.38-.12-23.42c0-3,0-5.37,0-7.09,0-.81,0-1.45,0-1.93A2.94,2.94,0,0,1,332.9,322.21Z" transform="translate(-2.9 -23.12)"/><path class="cls-6" d="M397.67,252.48H382.28a11.23,11.23,0,0,0-11.23,11.22v53.72H340.3a7.76,7.76,0,0,0-7.77,7.77h70.22v-.05a6.4,6.4,0,0,0,6.14-6.4v-55A11.22,11.22,0,0,0,397.67,252.48Z" transform="translate(-2.9 -23.12)"/><path class="cls-5" d="M375.53,254.26c.13,0,.24,15.78.24,35.25s-.11,35.25-.24,35.25-.24-15.78-.24-35.25S375.4,254.26,375.53,254.26Z" transform="translate(-2.9 -23.12)"/><path class="cls-6" d="M373.58,381.56V325.22h-5v56.34c-3.06,6-10.24,10.1-19,13.44h44.62C385.15,391.32,377,388.49,373.58,381.56Z" transform="translate(-2.9 -23.12)"/><path class="cls-5" d="M91.71,374.27a1.6,1.6,0,0,1,.14-.34l.45-.95a24.48,24.48,0,0,0,1.31-3.83,33.62,33.62,0,0,0-.11-14.78,78.89,78.89,0,0,0-2.74-9.92c-1.16-3.53-2.51-7.26-3.61-11.31a43.5,43.5,0,0,1-1.78-13c.17-4.6,1.53-9.18,3-13.75s3-9,3.51-13.54a20.64,20.64,0,0,0-2.49-12.51c-2-3.65-4.47-6.77-6.34-10a34.85,34.85,0,0,1-3.8-9.62,35.91,35.91,0,0,1-.25-14.9,27.82,27.82,0,0,1,1.56-5.26,3.11,3.11,0,0,1-.09.35c-.08.25-.19.58-.32,1a37.46,37.46,0,0,0-1,3.94,36.29,36.29,0,0,0,.38,14.78,35.08,35.08,0,0,0,3.82,9.5c1.86,3.19,4.37,6.3,6.39,10a21.05,21.05,0,0,1,2.56,12.76c-.47,4.58-2,9.08-3.51,13.65s-2.84,9.1-3,13.62A43.5,43.5,0,0,0,87.57,333c1.09,4,2.42,7.76,3.56,11.29a77.13,77.13,0,0,1,2.7,10,33.25,33.25,0,0,1,0,14.89A22.07,22.07,0,0,1,92.38,373l-.49.94A1.73,1.73,0,0,1,91.71,374.27Z" transform="translate(-2.9 -23.12)"/><path class="cls-7" d="M85.61,273.54s-3.79-12.11,3-19.2a.42.42,0,0,1,.72.2C89.7,256.54,90.15,262.64,85.61,273.54Z" transform="translate(-2.9 -23.12)"/><path class="cls-5" d="M87.88,258.37a12,12,0,0,1-.26,2.24c-.25,1.53-.54,3.34-.86,5.34s-.61,3.8-.85,5.34a12.53,12.53,0,0,1-.4,2.21,9.1,9.1,0,0,1,.07-2.25c.12-1.39.37-3.29.71-5.38s.71-4,1-5.33A9.92,9.92,0,0,1,87.88,258.37Z" transform="translate(-2.9 -23.12)"/><path class="cls-7" d="M90.06,302.1s2.31-12.48,11.63-15.57a.42.42,0,0,1,.54.52C101.62,289,99.17,294.59,90.06,302.1Z" transform="translate(-2.9 -23.12)"/><path class="cls-5" d="M99.15,289.76a10.32,10.32,0,0,1-1.27,1.85l-3.26,4.32-3.24,4.32A12.75,12.75,0,0,1,90,302a8.78,8.78,0,0,1,1.11-2c.76-1.16,1.86-2.73,3.14-4.42s2.49-3.18,3.38-4.24A9.72,9.72,0,0,1,99.15,289.76Z" transform="translate(-2.9 -23.12)"/><path class="cls-7" d="M87.54,333.4s-1.41-12.61,6.61-18.28a.42.42,0,0,1,.67.34C94.79,317.5,94.08,323.56,87.54,333.4Z" transform="translate(-2.9 -23.12)"/><path class="cls-5" d="M92.66,318.94a11.24,11.24,0,0,1-.68,2.15l-1.87,5.07c-.69,1.9-1.31,3.62-1.85,5.09a12.72,12.72,0,0,1-.81,2.09,9.4,9.4,0,0,1,.49-2.2c.39-1.33,1-3.15,1.73-5.14s1.45-3.76,2-5A10.47,10.47,0,0,1,92.66,318.94Z" transform="translate(-2.9 -23.12)"/><path class="cls-7" d="M94.56,364.88s-1-12.66,7.26-18a.42.42,0,0,1,.66.37C102.38,349.25,101.45,355.28,94.56,364.88Z" transform="translate(-2.9 -23.12)"/><path class="cls-5" d="M100.19,350.61a10.3,10.3,0,0,1-.75,2.12c-.59,1.45-1.28,3.14-2,5s-1.44,3.57-2,5a11.84,11.84,0,0,1-.89,2.07,9,9,0,0,1,.58-2.18c.43-1.32,1.1-3.12,1.9-5.08s1.59-3.71,2.18-5A11.16,11.16,0,0,1,100.19,350.61Z" transform="translate(-2.9 -23.12)"/><path class="cls-7" d="M80.17,262.9S68.92,257,68.7,247.21a.42.42,0,0,1,.65-.37C71,248,75.66,252,80.17,262.9Z" transform="translate(-2.9 -23.12)"/><path class="cls-5" d="M71,250.58a10.47,10.47,0,0,1,1.4,1.76c.92,1.26,2,2.74,3.17,4.38l3.19,4.37a12.53,12.53,0,0,1,1.28,1.85,9.27,9.27,0,0,1-1.55-1.64c-.89-1.06-2.06-2.58-3.3-4.3s-2.31-3.31-3.06-4.47A11.08,11.08,0,0,1,71,250.58Z" transform="translate(-2.9 -23.12)"/><path class="cls-7" d="M92.24,288.9s-11.58-5.18-12.4-15a.42.42,0,0,1,.64-.4C82.21,274.59,87.08,278.28,92.24,288.9Z" transform="translate(-2.9 -23.12)"/><path class="cls-5" d="M82.38,277.16a11.31,11.31,0,0,1,1.5,1.67L87.32,283l3.44,4.17A12.79,12.79,0,0,1,92.15,289a8.53,8.53,0,0,1-1.64-1.54c-1-1-2.22-2.45-3.56-4.09s-2.51-3.16-3.33-4.28A10.17,10.17,0,0,1,82.38,277.16Z" transform="translate(-2.9 -23.12)"/><path class="cls-7" d="M85.58,317.92s-8-9.89-4.23-19a.43.43,0,0,1,.75-.07C83.17,300.6,85.82,306.11,85.58,317.92Z" transform="translate(-2.9 -23.12)"/><path class="cls-5" d="M82.14,303a10.33,10.33,0,0,1,.58,2.17c.33,1.53.72,3.31,1.15,5.29s.83,3.76,1.17,5.28a12.26,12.26,0,0,1,.43,2.21,9.49,9.49,0,0,1-.76-2.12c-.39-1.34-.86-3.2-1.3-5.27s-.8-3.95-1-5.32A10.51,10.51,0,0,1,82.14,303Z" transform="translate(-2.9 -23.12)"/><path class="cls-7" d="M93.46,352.05S82,346.68,81.31,336.88a.42.42,0,0,1,.64-.39C83.67,337.57,88.47,341.35,93.46,352.05Z" transform="translate(-2.9 -23.12)"/><path class="cls-5" d="M83.79,340.15a11,11,0,0,1,1.48,1.69l3.36,4.25L92,350.31a12.18,12.18,0,0,1,1.36,1.79,9.43,9.43,0,0,1-1.62-1.57c-.93-1-2.17-2.49-3.48-4.15s-2.46-3.2-3.26-4.33A10.6,10.6,0,0,1,83.79,340.15Z" transform="translate(-2.9 -23.12)"/><path class="cls-5" d="M116.35,302.17a.84.84,0,0,1,0,.28c0,.22,0,.48,0,.81,0,.76-.08,1.79-.14,3.07-.15,2.71-.36,6.48-.6,11h0v0c-.82,4.59-3.16,9.68-6.3,14.62-2.3,3.64-4.72,6.95-6.8,10a72,72,0,0,0-5.1,8.43A35.4,35.4,0,0,0,95,356.61c-.21.76-.36,1.35-.45,1.76a4.22,4.22,0,0,1-.16.61,2.92,2.92,0,0,1,.07-.63c.06-.42.18-1,.36-1.78a32.61,32.61,0,0,1,2.26-6.29,66.83,66.83,0,0,1,5-8.53c2.07-3.1,4.47-6.41,6.76-10,3.13-4.92,5.45-9.93,6.3-14.45v0c.32-4.51.58-8.28.77-11,.11-1.28.19-2.31.25-3.07,0-.32.06-.59.08-.81A.84.84,0,0,1,116.35,302.17Z" transform="translate(-2.9 -23.12)"/><path class="cls-7" d="M109.51,331s4.86-11.71-1.26-19.39a.42.42,0,0,0-.73.14C107,313.73,106,319.76,109.51,331Z" transform="translate(-2.9 -23.12)"/><path class="cls-5" d="M108.62,315.72a10.1,10.1,0,0,1,.39,2.21c.17,1.38.36,3.29.51,5.4s.23,4,.22,5.42a9.56,9.56,0,0,1-.13,2.25,12,12,0,0,1-.2-2.24c-.1-1.56-.23-3.38-.36-5.4s-.27-3.84-.38-5.4A11.07,11.07,0,0,1,108.62,315.72Z" transform="translate(-2.9 -23.12)"/><g class="cls-8"><path d="M109.51,331s4.86-11.71-1.26-19.39a.42.42,0,0,0-.73.14C107,313.73,106,319.76,109.51,331Z" transform="translate(-2.9 -23.12)"/></g><path class="cls-7" d="M94.43,359.26s3.9-12.07-2.83-19.23a.42.42,0,0,0-.72.2C90.5,342.23,90,348.32,94.43,359.26Z" transform="translate(-2.9 -23.12)"/><path class="cls-5" d="M92.3,344.08a9.16,9.16,0,0,1,.57,2.17c.28,1.36.63,3.25.95,5.34s.55,4,.66,5.38a9.56,9.56,0,0,1,0,2.25,11.44,11.44,0,0,1-.38-2.21l-.8-5.35c-.3-2-.58-3.81-.81-5.35A11.71,11.71,0,0,1,92.3,344.08Z" transform="translate(-2.9 -23.12)"/><g class="cls-8"><path d="M94.43,359.26s3.9-12.07-2.83-19.23a.42.42,0,0,0-.72.2C90.5,342.23,90,348.32,94.43,359.26Z" transform="translate(-2.9 -23.12)"/></g><path class="cls-7" d="M115.71,316.7s10.39-7.27,9.34-17a.42.42,0,0,0-.7-.27C122.85,300.75,118.77,305.3,115.71,316.7Z" transform="translate(-2.9 -23.12)"/><g class="cls-8"><path d="M115.71,316.7s10.39-7.27,9.34-17a.42.42,0,0,0-.7-.27C122.85,300.75,118.77,305.3,115.71,316.7Z" transform="translate(-2.9 -23.12)"/></g><path class="cls-5" d="M123.17,303.31a10.21,10.21,0,0,1-.86,2.08c-.6,1.25-1.46,3-2.46,4.83s-2,3.52-2.72,4.69a9.24,9.24,0,0,1-1.32,1.82,12.45,12.45,0,0,1,1-2l2.59-4.75c1-1.78,1.84-3.38,2.58-4.76A11.13,11.13,0,0,1,123.17,303.31Z" transform="translate(-2.9 -23.12)"/><path class="cls-7" d="M98.62,347.29s12.54-2,15.9-11.18a.42.42,0,0,0-.51-.55C112.06,336.11,106.39,338.4,98.62,347.29Z" transform="translate(-2.9 -23.12)"/><g class="cls-8"><path d="M98.62,347.29s12.54-2,15.9-11.18a.42.42,0,0,0-.51-.55C112.06,336.11,106.39,338.4,98.62,347.29Z" transform="translate(-2.9 -23.12)"/></g><path class="cls-5" d="M111.22,338.55a9.58,9.58,0,0,1-1.69,1.49c-1.08.86-2.61,2-4.33,3.25s-3.33,2.29-4.51,3a9,9,0,0,1-2,1.05,12.19,12.19,0,0,1,1.8-1.33l4.42-3.12,4.41-3.14A12.21,12.21,0,0,1,111.22,338.55Z" transform="translate(-2.9 -23.12)"/><polygon class="cls-6" points="83.76 347.25 80.1 371.86 102.89 371.86 99.94 347.25 83.76 347.25"/><path class="cls-5" d="M103.75,378a89,89,0,0,1-9.19.24,89,89,0,0,1-9.19-.24,89,89,0,0,1,9.19-.24A89,89,0,0,1,103.75,378Z" transform="translate(-2.9 -23.12)"/><path class="cls-5" d="M104.2,380c0,.13-4.25.24-9.49.24s-9.49-.11-9.49-.24,4.25-.24,9.49-.24S104.2,379.82,104.2,380Z" transform="translate(-2.9 -23.12)"/></svg>