<svg id="Layer_1" data-name="Layer 1" xmlns="http://www.w3.org/2000/svg" viewBox="0 0 618.91 387.47"><defs><style>.cls-1{fill:#e0e0e0;}.cls-2{fill:#ebebeb;}.cls-3{fill:#f5f5f5;}.cls-4{fill:#e8505b;}.cls-5{fill:#263238;}.cls-6{fill:#455a64;}.cls-7{fill:#fafafa;}.cls-8{opacity:0.3;}.cls-9{opacity:0.5;}.cls-10{fill:#ffbe9d;}.cls-11{opacity:0.2;}.cls-12{opacity:0.6;}.cls-13{fill:#fff;}.cls-14{fill:#eb996e;}</style></defs><path class="cls-1" d="M234.93,383.15a51,51,0,0,0-24.87-25.55c-11-5.15-35.55-2.76-35.55-2.76l-64.5-.13c1.32,5.66,5.52,20.21,8.66,25.11s7.78,9,13.37,10.61c6.85,1.93,14.11-.07,21.21-.53,12.5-.81,24.74,3.23,36.78,6.7s24.8,6.43,37,3.48c3.46-.84,7.08-2.38,8.76-5.52C237.63,391.08,236.51,386.77,234.93,383.15Z" transform="translate(-3 -13.82)"/><path class="cls-2" d="M36.86,154.46s-7.34-.53-6.66,15.93,2.35,25.23,2.35,25.23-.21,3.65-3,2.93-8.14-4.27-10.77-1.61-1.75,7,1.86,11.95,11.13,16.16,11.8,17.18.93,2.86-1.07,2.68S15.8,224,14,230.54s10.55,18.75,11.87,20.11,1.4,2.22.86,3-4.94-1.15-8.84-2.29-8.62-1.79-9.33,2.07,4.71,15.17,25.07,27.06l9.79,4.89,9.27-5.91C71.77,265.64,76.05,253.85,75,250.08s-5.74-2.66-9.5-1.13-8,3.93-8.57,3.16-.63-1.62.55-3.11,12.24-14.86,9.8-21.2-15.43-.42-17.41,0-1.89-1.51-1.33-2.56,6.93-13,10-18.28,3.64-9.61.65-12.07-7.81,1.68-10.55,2.68-3.32-2.62-3.32-2.62.79-8.89-.18-25.33-8.4-15.12-8.4-15.12" transform="translate(-3 -13.82)"/><path class="cls-1" d="M37.44,169.2s0,.12,0,.35,0,.58.08,1c.06.9.15,2.21.26,3.88.23,3.38.52,8.27.85,14.31.67,12.08,1.45,28.77,2.26,47.21s1.55,35.14,2.15,47.23c.31,6,.56,10.91.73,14.3.08,1.68.15,3,.19,3.89,0,.44,0,.77,0,1s0,.34,0,.34,0-.11,0-.34,0-.58-.08-1c-.06-.91-.15-2.21-.27-3.89-.22-3.37-.51-8.26-.84-14.3-.67-12.08-1.46-28.78-2.26-47.22S39,200.84,38.4,188.76c-.3-6-.55-10.91-.72-14.31-.09-1.67-.15-3-.2-3.89,0-.43,0-.77,0-1A3.09,3.09,0,0,1,37.44,169.2Z" transform="translate(-3 -13.82)"/><path class="cls-1" d="M26,202.21a3.19,3.19,0,0,1,.61.5c.38.35.91.86,1.55,1.5,1.3,1.28,3,3.09,4.91,5.13l4.79,5.24,1.46,1.58a2.76,2.76,0,0,1,.51.61,3.19,3.19,0,0,1-.61-.5c-.38-.35-.91-.86-1.55-1.51-1.28-1.29-3-3.13-4.87-5.16L28,204.39l-1.46-1.57A3.06,3.06,0,0,1,26,202.21Z" transform="translate(-3 -13.82)"/><path class="cls-1" d="M40.78,216.45c-.07-.08,3.51-3.83,8-8.38S57,199.88,57.05,200s-3.51,3.82-8,8.37S40.86,216.52,40.78,216.45Z" transform="translate(-3 -13.82)"/><path class="cls-1" d="M40.74,244.82a3.77,3.77,0,0,1,.69-.43l1.91-1.08c1.62-.9,3.84-2.17,6.25-3.65s4.55-2.88,6.09-3.91l1.83-1.22a2.85,2.85,0,0,1,.7-.41,4,4,0,0,1-.61.53c-.41.32-1,.77-1.77,1.32-1.5,1.08-3.62,2.53-6,4s-4.67,2.72-6.32,3.57c-.83.42-1.51.75-2,1A2.74,2.74,0,0,1,40.74,244.82Z" transform="translate(-3 -13.82)"/><path class="cls-1" d="M24.52,234.89a3.05,3.05,0,0,1,.68.32c.42.23,1,.56,1.77,1,1.49.84,3.54,2,5.79,3.37s4.27,2.57,5.73,3.48c.73.45,1.31.82,1.71,1.08a2.77,2.77,0,0,1,.6.45,2.9,2.9,0,0,1-.67-.32c-.43-.23-1-.56-1.78-1-1.49-.84-3.54-2-5.78-3.37s-4.28-2.57-5.73-3.48l-1.72-1.08A3.16,3.16,0,0,1,24.52,234.89Z" transform="translate(-3 -13.82)"/><path class="cls-1" d="M21.3,259.94a5.13,5.13,0,0,1,.86.42l2.28,1.26c1.92,1.07,4.55,2.58,7.45,4.27s5.51,3.23,7.39,4.36l2.22,1.36a5.46,5.46,0,0,1,.79.54,3.83,3.83,0,0,1-.86-.41l-2.28-1.26c-1.92-1.08-4.55-2.58-7.45-4.27s-5.51-3.23-7.39-4.37l-2.22-1.36A4.61,4.61,0,0,1,21.3,259.94Z" transform="translate(-3 -13.82)"/><path class="cls-1" d="M41.87,271.72a6.19,6.19,0,0,1,.85-.57l2.38-1.45c2-1.22,4.78-2.92,7.79-4.88s5.68-3.8,7.61-5.15l2.29-1.59a4.13,4.13,0,0,1,.87-.54,6,6,0,0,1-.78.66c-.52.41-1.27,1-2.22,1.69-1.89,1.4-4.55,3.28-7.57,5.24s-5.81,3.63-7.85,4.8c-1,.58-1.86,1-2.44,1.35A6.59,6.59,0,0,1,41.87,271.72Z" transform="translate(-3 -13.82)"/><polygon class="cls-1" points="53.59 274.81 26.49 274.81 35.34 341.74 44.74 341.74 53.59 274.81"/><path class="cls-3" d="M30.9,296.85s0,.09.15.24a1.72,1.72,0,0,0,.65.47,3.26,3.26,0,0,0,2.86-.36c1.1-.6,2-1.78,3.52-2.31a7.75,7.75,0,0,1,5,.1,21.73,21.73,0,0,1,4.64,2.25,31.15,31.15,0,0,0,3.77,2,10.56,10.56,0,0,0,2.78.81,5.13,5.13,0,0,0,.79.05.8.8,0,0,0,.27,0A14.49,14.49,0,0,1,51.6,299a35.6,35.6,0,0,1-3.69-2.09,20.75,20.75,0,0,0-4.72-2.32,8,8,0,0,0-5.26-.06,6.86,6.86,0,0,0-2,1.23,17.72,17.72,0,0,1-1.55,1.2,3.17,3.17,0,0,1-2.64.45A2.83,2.83,0,0,1,30.9,296.85Z" transform="translate(-3 -13.82)"/><path class="cls-3" d="M31.89,309.18s.22-.28.64-.72a6,6,0,0,1,2.16-1.37,9.78,9.78,0,0,1,3.77-.57,40.68,40.68,0,0,1,4.72.64,16.18,16.18,0,0,0,4.82.2,13.4,13.4,0,0,0,3.8-1.08,11.58,11.58,0,0,0,2.28-1.36,3.53,3.53,0,0,0,.73-.65A24.28,24.28,0,0,1,51.68,306,13.76,13.76,0,0,1,48,307a16.51,16.51,0,0,1-4.7-.23,35.84,35.84,0,0,0-4.78-.62,9.47,9.47,0,0,0-3.89.69,5.68,5.68,0,0,0-2.18,1.54,5,5,0,0,0-.41.6C31.91,309.09,31.88,309.17,31.89,309.18Z" transform="translate(-3 -13.82)"/><path class="cls-3" d="M53.52,315.78a2.3,2.3,0,0,0-.75-.39,8,8,0,0,0-2.24-.48,14.15,14.15,0,0,0-3.4.19c-1.26.21-2.61.56-4,.86a16.75,16.75,0,0,1-4,.45,8.65,8.65,0,0,1-3.2-.69,7.13,7.13,0,0,1-2.43-1.81,1.92,1.92,0,0,0,.46.71A5.47,5.47,0,0,0,35.72,316a8.57,8.57,0,0,0,3.32.82,16.34,16.34,0,0,0,4.14-.43c1.44-.3,2.79-.66,4-.89a16.39,16.39,0,0,1,3.31-.28A12.16,12.16,0,0,1,53.52,315.78Z" transform="translate(-3 -13.82)"/><path class="cls-3" d="M34.29,325.06a4.37,4.37,0,0,1,2.63-.26,12.79,12.79,0,0,1,2.75,1,10.32,10.32,0,0,0,3.57,1,10.74,10.74,0,0,0,6.48-1.51,9,9,0,0,0,1.61-1.24c.33-.35.5-.55.48-.57A21.28,21.28,0,0,1,49.56,325a11.07,11.07,0,0,1-6.28,1.34c-2.57-.15-4.53-1.68-6.31-1.88a4.1,4.1,0,0,0-2,.17A1.33,1.33,0,0,0,34.29,325.06Z" transform="translate(-3 -13.82)"/><path class="cls-3" d="M35.79,337.91a5.29,5.29,0,0,0,2.26-.45c1.37-.45,3.05-1.5,5-2.28a8,8,0,0,1,2.88-.6,5.29,5.29,0,0,1,2.31.52,5,5,0,0,1,1.68,1.45,1.26,1.26,0,0,0-.26-.57,3.64,3.64,0,0,0-1.27-1.15,5.37,5.37,0,0,0-2.46-.66,8.06,8.06,0,0,0-3,.6c-2,.81-3.67,1.88-5,2.4S35.78,337.84,35.79,337.91Z" transform="translate(-3 -13.82)"/><path class="cls-3" d="M37.12,343.89a6.55,6.55,0,0,0,1.72.55,30.87,30.87,0,0,0,4.29.73,30.54,30.54,0,0,0,4.34.12,6,6,0,0,0,1.79-.21c0-.13-2.74,0-6.09-.35S37.16,343.76,37.12,343.89Z" transform="translate(-3 -13.82)"/><rect class="cls-3" x="464.92" y="184.19" width="84.52" height="56.97" transform="translate(-37.64 104.52) rotate(-12.87)"/><path class="cls-1" d="M542.45,176.1a6,6,0,0,1-.6.91c-.46.64-1.07,1.49-1.84,2.54l-6.86,9.24-22.94,30.4-.19.25-.28-.14-.69-.33-34.71-16.86-10.49-5.18c-1.17-.61-2.12-1.09-2.83-1.45a6.12,6.12,0,0,1-1-.55,7.08,7.08,0,0,1,1,.41l2.89,1.32,10.59,5,34.82,16.66.68.33-.47.11,23.12-30.25c2.94-3.8,5.34-6.89,7.06-9.1l2-2.45A5.72,5.72,0,0,1,542.45,176.1Z" transform="translate(-3 -13.82)"/><path class="cls-1" d="M472.75,250.46c-.19-.09,4.26-9.12,9.95-20.16s10.44-19.91,10.63-19.81-4.26,9.12-9.95,20.16S472.93,250.56,472.75,250.46Z" transform="translate(-3 -13.82)"/><path class="cls-1" d="M520.56,203.53c.14-.16,8,6,17.53,13.76s17.18,14.18,17,14.35-8-6-17.53-13.76S520.43,203.7,520.56,203.53Z" transform="translate(-3 -13.82)"/><rect class="cls-3" x="178.72" y="21.58" width="33.59" height="49.83" transform="translate(103.22 212.72) rotate(-77)"/><path class="cls-1" d="M223.64,36.17a4.5,4.5,0,0,1-.56.33l-1.62.87-6,3.14-20,10.22-.17.08-.11-.14-.28-.35c-5.48-7-10.45-13.27-14.08-17.88-1.76-2.27-3.2-4.12-4.22-5.45l-1.14-1.49a4.87,4.87,0,0,1-.37-.54,2.59,2.59,0,0,1,.45.48l1.19,1.44,4.34,5.36L195.25,50l.27.35-.28-.06,20-10.1,6.09-3,1.66-.8A3.67,3.67,0,0,1,223.64,36.17Z" transform="translate(-3 -13.82)"/><path class="cls-1" d="M167.53,57.68c-.08-.1,4.61-3.74,10.46-8.13s10.67-7.88,10.74-7.78-4.61,3.74-10.46,8.14S167.6,57.78,167.53,57.68Z" transform="translate(-3 -13.82)"/><path class="cls-1" d="M205,45.09c.11-.05,2.69,5.23,5.76,11.81s5.46,11.94,5.35,12-2.69-5.24-5.76-11.81S204.86,45.14,205,45.09Z" transform="translate(-3 -13.82)"/><rect class="cls-3" x="450.88" y="39.26" width="38.61" height="26.03" transform="translate(14.56 176.07) rotate(-23.25)"/><path class="cls-1" d="M483,32.93a2.86,2.86,0,0,1-.19.46c-.16.33-.36.76-.62,1.29-.56,1.15-1.35,2.75-2.32,4.72L472.08,55l-.06.13-.14,0-.34-.09-17-4.72-5.13-1.47-1.4-.41a2.6,2.6,0,0,1-.47-.17,2.6,2.6,0,0,1,.49.1l1.41.35L454.62,50l17,4.62.33.09-.2.09c3.08-6,5.86-11.51,7.9-15.5l2.42-4.67.67-1.26A4,4,0,0,1,483,32.93Z" transform="translate(-3 -13.82)"/><path class="cls-1" d="M457.82,72.09c-.09,0,1.17-4.45,2.81-9.88s3.06-9.81,3.15-9.78-1.17,4.45-2.81,9.88S457.91,72.12,457.82,72.09Z" transform="translate(-3 -13.82)"/><path class="cls-1" d="M475.44,47.06c.05-.08,4.09,2,9,4.74s8.89,5,8.85,5-4.08-2-9-4.73S475.4,47.15,475.44,47.06Z" transform="translate(-3 -13.82)"/><path class="cls-4" d="M529.76,274.59a29.48,29.48,0,0,0-12.56-4.32c-2.05-.21-4.29-.15-5.93,1.09a1.23,1.23,0,0,0-.61,1.09,1.31,1.31,0,0,0,.58.74,18,18,0,0,0,18.52,1.4" transform="translate(-3 -13.82)"/><path class="cls-4" d="M529.43,274.24a61.22,61.22,0,0,1-8.1-7.14,20.5,20.5,0,0,1-5.09-9.4,3.8,3.8,0,0,1,.41-3.14c6.46,5,11.53,11.57,12.78,19.68" transform="translate(-3 -13.82)"/><path class="cls-4" d="M529.69,274.54a29.26,29.26,0,0,1,.15-10.64,14.4,14.4,0,0,1,5.67-8.79c1.12,2.61.64,5.62-.15,8.35a40.77,40.77,0,0,1-5.62,11.84" transform="translate(-3 -13.82)"/><path class="cls-4" d="M536,285.89A18.57,18.57,0,0,0,526,291a19.07,19.07,0,0,0-5.76,9.88c3.77-.23,7-2.89,9.29-5.87s3.93-6.26,6.48-9.05" transform="translate(-3 -13.82)"/><path class="cls-4" d="M537.4,287.71a24.84,24.84,0,0,1,2.87-23.49c2.19,7.8,1.38,16.6-2.87,23.49" transform="translate(-3 -13.82)"/><path class="cls-4" d="M545.77,297.68a17.94,17.94,0,0,0-17.16,9.88c-.22.42-.41,1-.12,1.34a1.28,1.28,0,0,0,1.14.34c3.38-.22,6.38-2.26,8.85-4.57s4.63-5,7.37-7" transform="translate(-3 -13.82)"/><path class="cls-4" d="M545.5,297.13a31.91,31.91,0,0,1-.31-17.86c.62-2.29,1.68-4.72,3.81-5.79a.72.72,0,0,1,.58-.11.83.83,0,0,1,.37.43,11,11,0,0,1,.9,5.13,31.36,31.36,0,0,1-.81,5.18c-.67,3.17-1,6.58-2.76,9.31a19.26,19.26,0,0,0-1.11,2.05c-.33.69-.33.94-.63,1.49" transform="translate(-3 -13.82)"/><path class="cls-4" d="M567.66,300.43a23,23,0,0,1,4-18.93c.29-.38.67-.78,1.14-.74.73.07.92,1,.88,1.76a34.16,34.16,0,0,1-6.06,17.91" transform="translate(-3 -13.82)"/><path class="cls-4" d="M569.66,301.8a27.53,27.53,0,0,0,22.6-4.6A18.37,18.37,0,0,0,580,295.7c-4.08.94-7.82,2.77-10.36,6.1" transform="translate(-3 -13.82)"/><path class="cls-4" d="M571.34,297.64a26.14,26.14,0,0,1,20.51-11.86c-.93,3.3-3.64,5.87-6.7,7.42a37.47,37.47,0,0,1-9.85,2.88c-1.31.25-3.11.53-4,1.56" transform="translate(-3 -13.82)"/><path class="cls-4" d="M568.08,277.47a59.94,59.94,0,0,0,2.63-12,20,20,0,0,0-2.4-11.89c-4,7.68-4.37,16.66-.35,24.31" transform="translate(-3 -13.82)"/><path class="cls-4" d="M581.45,270.71c4.64-8.43,14.11-15.17,23.69-16.11-3.7,9.2-13.78,16.31-23.69,16.11" transform="translate(-3 -13.82)"/><path class="cls-4" d="M578.53,272.37c6.92,1.05,12.82,5.47,19.28,8.15a8.64,8.64,0,0,0,4.36.84,3.41,3.41,0,0,0,2.14-6,9.33,9.33,0,0,0-3.17-1.92c-7-2.94-14.6-3-22-1.23" transform="translate(-3 -13.82)"/><path class="cls-4" d="M574.52,277.22c1.57.45,2.1,1.26,3.34,2.32a36.09,36.09,0,0,0,14.63,7.51c.56.14,1.29.2,1.57-.31s-.07-1-.38-1.37a20.21,20.21,0,0,0-8.83-6c-3.38-1.26-6.3-2.77-10.33-2.45" transform="translate(-3 -13.82)"/><path class="cls-4" d="M570,247.9a27.7,27.7,0,0,0,21.22,7.22,1.44,1.44,0,0,0,1-.35c.53-.58-.11-1.47-.73-2-6.24-4.86-13.8-6.88-21.46-4.91" transform="translate(-3 -13.82)"/><path class="cls-4" d="M575.36,245.94a29.58,29.58,0,0,1,26.48-4.37,21,21,0,0,1-12.62,5.54,40,40,0,0,1-13.86-1.17" transform="translate(-3 -13.82)"/><path class="cls-4" d="M573.23,232.47c-.61-6.23-.22-11.15-.65-17.4,0-.5-.14-1.11-.61-1.29-.65-.25-1.19.55-1.4,1.22a19.91,19.91,0,0,0,2.65,17.33" transform="translate(-3 -13.82)"/><path class="cls-4" d="M572.78,233.15a36.73,36.73,0,0,0,10.32-10c2-2.79,3.75-6.13,3.29-9.55a9.87,9.87,0,0,0-7.44,3.69,20.71,20.71,0,0,0-3.79,7.63c-.83,2.74-1.41,5.56-2.38,8.25" transform="translate(-3 -13.82)"/><path class="cls-4" d="M582.92,230.34a83.22,83.22,0,0,0,25.38-15c-3-1.22-6.5-.49-9.53.73a30.11,30.11,0,0,0-16,14.17" transform="translate(-3 -13.82)"/><path class="cls-4" d="M575.63,236.56a51.62,51.62,0,0,0,14.1.07c4.57-.76,8.89-2.58,13.16-4.37a1.54,1.54,0,0,0,.89-.68,1,1,0,0,0-.32-1.13,2.68,2.68,0,0,0-1.12-.52,24.35,24.35,0,0,0-14.22.84,66.78,66.78,0,0,0-12.49,5.79" transform="translate(-3 -13.82)"/><path class="cls-4" d="M548.87,248.11a24.92,24.92,0,0,1-.23-20.63c2,3,2.19,6.73,1.83,10.26s-1.43,7.15-1.5,10.69" transform="translate(-3 -13.82)"/><path class="cls-4" d="M536.1,241.67a28.81,28.81,0,0,0-21.39,9.11,20,20,0,0,0,11.71-2.17,59,59,0,0,0,10-6.72" transform="translate(-3 -13.82)"/><path class="cls-4" d="M527.51,238.8c-3.9-.32-7.66-.8-11.42.35a13.69,13.69,0,0,0-8.7,7.38,20.69,20.69,0,0,0,10.7-2,61.55,61.55,0,0,0,9.42-5.71" transform="translate(-3 -13.82)"/><path class="cls-4" d="M540.23,238.93c-3.52-2.3-7.13-4.65-11.22-5.6s-8.83-.25-11.68,2.83c3.31,2,7.33,2.18,11.17,2.17s8.54,0,12.16,1.24" transform="translate(-3 -13.82)"/><path class="cls-4" d="M540.25,239.12c-6-5.9-8.29-16.5-5.87-24.56a37.41,37.41,0,0,1,5.87,24.56" transform="translate(-3 -13.82)"/><path class="cls-4" d="M556.76,222.41c1.13-2.64,1.93-5.4,3-8.08a23.14,23.14,0,0,1,4.2-7.45,11,11,0,0,1,7.44-3.85,30,30,0,0,1-14.44,19.42" transform="translate(-3 -13.82)"/><path class="cls-4" d="M553.77,225.89c-1.87-2.58-4-6.09-6.58-8s-5.85-3.09-9-2.35a20.85,20.85,0,0,0,15.53,10.36" transform="translate(-3 -13.82)"/><path class="cls-4" d="M554.37,222.62a44.06,44.06,0,0,1-3-9.6,14.91,14.91,0,0,1,1.5-9.75c3.3,6.23,4.36,12.92,1.63,19.42" transform="translate(-3 -13.82)"/><path class="cls-4" d="M556.79,203.27c1.87-6.18,7.53-10.73,13.63-12.82a5.19,5.19,0,0,1,2.39-.36,2.1,2.1,0,0,1,1.77,1.47c.22,1.06-.65,2-1.47,2.7a46.43,46.43,0,0,1-16.32,9" transform="translate(-3 -13.82)"/><path class="cls-4" d="M556.86,198.21c.24-4,.49-8,1.78-11.79s3.79-7.32,7.43-9c.61,4-1.16,8-3.3,11.49s-4.72,6.73-6,10.59" transform="translate(-3 -13.82)"/><path class="cls-4" d="M556.76,201c-1.54-4.51-1.7-10.23-4.4-14.15-1.88-2.74-4.9-4.61-6.52-7.51a11.42,11.42,0,0,0,.38,8.53,24.62,24.62,0,0,0,5,7.14c2,2.13,3.71,3.73,5.56,6" transform="translate(-3 -13.82)"/><path class="cls-5" d="M556.79,333.56c-.12,0-.22-30-.23-67.09s.08-67.08.2-67.08.23,30,.23,67.08S556.91,333.56,556.79,333.56Z" transform="translate(-3 -13.82)"/><path class="cls-5" d="M583,243.58a5.78,5.78,0,0,1-1.13.42l-3.11,1.05c-2.62.9-6.22,2.19-10.12,3.79s-7.52,3-9.6,4.81a7.12,7.12,0,0,0-1.93,2.55c-.3.7-.35,1.13-.39,1.13a1.13,1.13,0,0,1,0-.32,5,5,0,0,1,.23-.87,6.73,6.73,0,0,1,1.88-2.72,16.78,16.78,0,0,1,4.16-2.59c1.67-.78,3.51-1.59,5.47-2.39,3.92-1.61,7.55-2.86,10.2-3.68,1.32-.41,2.4-.72,3.15-.92A6.77,6.77,0,0,1,583,243.58Z" transform="translate(-3 -13.82)"/><path class="cls-5" d="M591.64,222.45a1.67,1.67,0,0,1-.31.33l-1,.91L586.77,227l-12,10.66c-4.68,4.16-8.72,8.14-11.51,11.13-1.41,1.5-2.51,2.74-3.26,3.6-.36.4-.64.73-.87,1a4,4,0,0,1-.33.33,1.87,1.87,0,0,1,.26-.39c.18-.24.44-.6.81-1,.71-.9,1.78-2.17,3.16-3.69A151.69,151.69,0,0,1,574.5,237.3c4.69-4.15,9-7.88,12.06-10.57l3.69-3.17,1-.84A2,2,0,0,1,591.64,222.45Z" transform="translate(-3 -13.82)"/><path class="cls-5" d="M569.74,241.85c-.12,0,.86-2.31,1.83-5.16s1.44-5.26,1.57-5.24a17.55,17.55,0,0,1-1.16,5.38,36.65,36.65,0,0,1-1.45,3.61A5.24,5.24,0,0,1,569.74,241.85Z" transform="translate(-3 -13.82)"/><path class="cls-5" d="M556.82,260a5.51,5.51,0,0,1-.72-.83l-1.85-2.37c-1.55-2-3.69-4.77-6.09-7.8s-4.61-5.74-6.21-7.7L540.06,239a5.34,5.34,0,0,1-.65-.89,5.53,5.53,0,0,1,.78.78c.48.52,1.16,1.29,2,2.25,1.66,1.92,3.91,4.6,6.32,7.63s4.51,5.83,6,7.89c.74,1,1.34,1.86,1.74,2.45A6.68,6.68,0,0,1,556.82,260Z" transform="translate(-3 -13.82)"/><path class="cls-5" d="M551.06,252.65a10.75,10.75,0,0,1-2.41-4.52,12.75,12.75,0,0,1-.54-4.55l.19,0c-.09.34-.15.53-.18.52s0-.2,0-.55h.19a20.6,20.6,0,0,0,.77,4.43A35.89,35.89,0,0,0,551.06,252.65Z" transform="translate(-3 -13.82)"/><path class="cls-5" d="M543.63,243.3a7.77,7.77,0,0,0-1.68-1,11.32,11.32,0,0,0-4.67-.37,29.53,29.53,0,0,0-4.71.76,14.43,14.43,0,0,1-1.94.46,7.18,7.18,0,0,1,1.86-.76,21.66,21.66,0,0,1,4.75-.89,10.11,10.11,0,0,1,4.83.52A3,3,0,0,1,543.63,243.3Z" transform="translate(-3 -13.82)"/><path class="cls-5" d="M541.87,241c0,.07-1-.39-2.58-.94a26,26,0,0,0-13-1c-1.67.3-2.67.61-2.69.54a2.32,2.32,0,0,1,.68-.29,15.5,15.5,0,0,1,2-.55,23,23,0,0,1,13.16,1,16.84,16.84,0,0,1,1.84.83A2.64,2.64,0,0,1,541.87,241Z" transform="translate(-3 -13.82)"/><path class="cls-5" d="M556.76,231.45a53.88,53.88,0,0,1-1.88-6.53,53.17,53.17,0,0,1-1.46-6.64,52.3,52.3,0,0,1,1.88,6.54A53.25,53.25,0,0,1,556.76,231.45Z" transform="translate(-3 -13.82)"/><path class="cls-5" d="M556.88,231.45a32.62,32.62,0,0,0-2.08-3.91,17.36,17.36,0,0,0-3.07-3.16,2.73,2.73,0,0,1,1.18.61,9.46,9.46,0,0,1,2.24,2.3A8.61,8.61,0,0,1,556.88,231.45Z" transform="translate(-3 -13.82)"/><path class="cls-5" d="M556.79,317.54s-.13-.72-.47-2a28.8,28.8,0,0,0-2-5.2,71.61,71.61,0,0,0-10.65-15c-2.38-2.71-4.68-5.28-6.64-7.73a55.13,55.13,0,0,1-4.75-6.85,33.81,33.81,0,0,1-2.4-5.08c-.22-.63-.38-1.12-.47-1.46a2.1,2.1,0,0,1-.12-.52s.26.69.75,1.91a36.32,36.32,0,0,0,2.5,5,58.83,58.83,0,0,0,4.8,6.76c2,2.43,4.28,5,6.66,7.7a68.22,68.22,0,0,1,10.6,15.15,26,26,0,0,1,1.89,5.29,14.24,14.24,0,0,1,.27,1.51A2.12,2.12,0,0,1,556.79,317.54Z" transform="translate(-3 -13.82)"/><path class="cls-5" d="M580.51,290.75a11.27,11.27,0,0,1-1.24.7,27.91,27.91,0,0,0-3.23,2.13,38.06,38.06,0,0,0-4.23,3.86c-1.49,1.57-3,3.4-4.58,5.35-3.12,3.92-6.05,7.39-7.8,10.16-.88,1.37-1.53,2.53-1.95,3.34a10.24,10.24,0,0,1-.69,1.25,1.7,1.7,0,0,1,.12-.35c.09-.22.22-.56.41-1a32.66,32.66,0,0,1,1.85-3.44,112.19,112.19,0,0,1,7.72-10.26c1.57-2,3.12-3.79,4.63-5.35a34.35,34.35,0,0,1,4.34-3.83,22.21,22.21,0,0,1,3.33-2c.41-.21.75-.33,1-.43A1.5,1.5,0,0,1,580.51,290.75Z" transform="translate(-3 -13.82)"/><path class="cls-5" d="M581,299.44a17.12,17.12,0,0,1-2.63.39,33.54,33.54,0,0,0-6.23,1.22,18.94,18.94,0,0,0-5.58,2.93c-1.29,1-1.9,1.82-2,1.77a2.13,2.13,0,0,1,.39-.61,11.43,11.43,0,0,1,1.37-1.4,17.07,17.07,0,0,1,5.64-3.1,27.74,27.74,0,0,1,6.34-1.12A15.42,15.42,0,0,1,581,299.44Z" transform="translate(-3 -13.82)"/><path class="cls-5" d="M565.35,304.79c-.14-.07,1-1.88,2-4.32s1.06-4.6,1.22-4.58a4.43,4.43,0,0,1,0,1.41,15.23,15.23,0,0,1-.76,3.32,16.2,16.2,0,0,1-1.53,3.05A4.2,4.2,0,0,1,565.35,304.79Z" transform="translate(-3 -13.82)"/><path class="cls-5" d="M588.19,267.42a2,2,0,0,1-.42.22l-1.23.56c-.54.24-1.2.53-1.94.92s-1.61.78-2.51,1.32l-1.43.81c-.5.29-1,.63-1.51,1-1.06.64-2.12,1.43-3.25,2.23a55.92,55.92,0,0,0-12.5,12.94c-.77,1.15-1.52,2.24-2.12,3.32-.31.53-.63,1-.9,1.54l-.77,1.46c-.51.92-.87,1.8-1.23,2.55s-.64,1.42-.85,2l-.52,1.25c-.12.29-.19.44-.21.43a2.2,2.2,0,0,1,.13-.45c.12-.34.26-.77.44-1.29a20.33,20.33,0,0,1,.79-2c.33-.77.68-1.66,1.18-2.6l.74-1.48c.26-.51.58-1,.89-1.57.59-1.09,1.34-2.19,2.1-3.36a53.62,53.62,0,0,1,12.59-13c1.15-.8,2.22-1.59,3.29-2.22.53-.32,1-.65,1.54-.93l1.45-.8c.92-.53,1.8-.91,2.56-1.27s1.42-.64,2-.85l1.27-.49A2,2,0,0,1,588.19,267.42Z" transform="translate(-3 -13.82)"/><path class="cls-5" d="M569.42,280a3,3,0,0,1,1-1.54,6.57,6.57,0,0,1,4.16-1.6,11.39,11.39,0,0,1,4.38.86,6,6,0,0,1,1.65.8,9.69,9.69,0,0,1-1.75-.51,13.06,13.06,0,0,0-4.26-.71,6.82,6.82,0,0,0-4,1.39A11.31,11.31,0,0,0,569.42,280Z" transform="translate(-3 -13.82)"/><path class="cls-5" d="M566.62,282.89a16.08,16.08,0,0,0,1.18-3.84,15.82,15.82,0,0,0-.27-4,2.46,2.46,0,0,1,.49,1.12,7.91,7.91,0,0,1-.67,5.75C567,282.58,566.66,282.92,566.62,282.89Z" transform="translate(-3 -13.82)"/><path class="cls-6" d="M536.05,321.85c.64,11.48,4.1,23.15,9.42,34.95h23.14c5.07-11.68,8.29-23.34,8.87-34.95Z" transform="translate(-3 -13.82)"/><path class="cls-7" d="M573.73,340.42c0,.12-7.62.22-17,.22s-17-.1-17-.22,7.62-.22,17-.22S573.73,340.3,573.73,340.42Z" transform="translate(-3 -13.82)"/><path class="cls-7" d="M573.21,344.58c0,.12-7.14.22-16,.22s-16-.1-16-.22,7.14-.22,16-.22S573.21,344.46,573.21,344.58Z" transform="translate(-3 -13.82)"/><rect class="cls-6" x="124.97" y="101.91" width="356.28" height="235.6" rx="14.57"/><path class="cls-6" d="M111,322.3H497a0,0,0,0,1,0,0v2.82a17.8,17.8,0,0,1-17.8,17.8H128.84a17.8,17.8,0,0,1-17.8-17.8V322.3A0,0,0,0,1,111,322.3Z"/><rect class="cls-5" x="134.53" y="111.27" width="336.16" height="198.96"/><polygon class="cls-5" points="267.99 320.09 272.77 327.71 340.18 327.71 344.62 320.09 267.99 320.09"/><rect class="cls-2" x="141.45" y="118.01" width="323" height="191.59" rx="3.27"/><polygon class="cls-7" points="464.11 309.88 141.11 309.88 141.46 132.33 464.11 132.33 464.11 309.88"/><path class="cls-5" d="M171,139.22a2.58,2.58,0,1,1-2.58-2.58A2.57,2.57,0,0,1,171,139.22Z" transform="translate(-3 -13.82)"/><path class="cls-5" d="M155.32,139.22a2.58,2.58,0,1,1-2.58-2.58A2.58,2.58,0,0,1,155.32,139.22Z" transform="translate(-3 -13.82)"/><path class="cls-5" d="M162.82,139.22a2.58,2.58,0,1,1-2.58-2.58A2.57,2.57,0,0,1,162.82,139.22Z" transform="translate(-3 -13.82)"/><path class="cls-5" d="M481.19,333.91c0,.12-79.08.23-176.6.23S128,334,128,333.91s79.06-.23,176.62-.23S481.19,333.78,481.19,333.91Z" transform="translate(-3 -13.82)"/><polygon class="cls-4" points="244.88 201.69 376.3 200.46 380.14 289.79 244.07 288.81 244.88 201.69"/><path class="cls-4" d="M247.89,215.5,310,165.05a7.14,7.14,0,0,1,9,0l60.3,49.21" transform="translate(-3 -13.82)"/><g class="cls-8"><path d="M247.89,215.5,310,165.05a7.14,7.14,0,0,1,9,0l60.3,49.21" transform="translate(-3 -13.82)"/></g><path class="cls-5" d="M247.07,302.63c-.16-.15,10.34-11.66,23.45-25.7s23.87-25.3,24-25.15-10.33,11.66-23.44,25.7S247.24,302.78,247.07,302.63Z" transform="translate(-3 -13.82)"/><path class="cls-5" d="M383.15,303.61c-.17.15-10.44-11.08-22.94-25.09S337.72,253,337.89,252.89,348.32,264,360.82,278,383.32,303.46,383.15,303.61Z" transform="translate(-3 -13.82)"/><g class="cls-9"><polyline points="376.3 200.46 310.42 253.31 244.88 201.69"/></g><polygon class="cls-7" points="251.51 206.55 251.22 165.51 366.29 163.91 367.68 207.09 310.41 252.62 251.51 206.55"/><path class="cls-5" d="M254.52,220.37s.38.27,1.09.82l3.14,2.42,11.91,9.25,42.88,33.42h-.25l57.24-45.56-.09.2c-.26-8.24-.54-16.88-.83-25.68-.19-5.92-.37-11.77-.56-17.51l.25.24-115.07,1.51.15-.15c.06,12.9.11,23.15.14,30.18,0,3.51,0,6.22,0,8.06,0,.91,0,1.61,0,2.09s0,.71,0,.71,0-.23,0-.69,0-1.17,0-2.07c0-1.84-.06-4.54-.1-8-.07-7-.16-17.31-.29-30.24v-.16h.16l115.06-1.68h.23v.24c.19,5.74.38,11.59.57,17.51.28,8.79.55,17.43.82,25.67V221l-.09.08-57.29,45.49-.13.1-.12-.1L270.47,233l-11.83-9.32-3.08-2.44C254.86,220.66,254.52,220.37,254.52,220.37Z" transform="translate(-3 -13.82)"/><path class="cls-5" d="M351.15,198.43c0,.13-17.6.38-39.3.56s-39.3.21-39.3.08,17.59-.38,39.3-.56S351.15,198.3,351.15,198.43Z" transform="translate(-3 -13.82)"/><path class="cls-5" d="M351.17,210c0,.14-17.59.39-39.29.56s-39.31.22-39.31.08,17.59-.38,39.3-.56S351.17,209.89,351.17,210Z" transform="translate(-3 -13.82)"/><path class="cls-5" d="M351.2,223.38c0,.14-17.59.39-39.3.57s-39.3.21-39.3.08,17.59-.39,39.3-.57S351.2,223.25,351.2,223.38Z" transform="translate(-3 -13.82)"/><path class="cls-5" d="M351.23,236.75c0,.13-16.79.38-37.49.54s-37.5.2-37.5.07,16.78-.38,37.49-.55S351.23,236.61,351.23,236.75Z" transform="translate(-3 -13.82)"/><path class="cls-5" d="M336.54,248.51a2.43,2.43,0,0,1-.46.05l-1.33.06-4.86.12-16,.29c-6.27.12-11.94.15-16.05.15l-4.86,0-1.32,0a2.1,2.1,0,0,1-.46,0,1.43,1.43,0,0,1,.46-.06l1.32,0,4.86-.12,16-.29c6.26-.12,11.93-.16,16-.15l4.86,0,1.33,0A1.31,1.31,0,0,1,336.54,248.51Z" transform="translate(-3 -13.82)"/><path class="cls-5" d="M321.75,259.81a73.77,73.77,0,0,1-8.38.26,74.32,74.32,0,0,1-8.38-.22,71.08,71.08,0,0,1,8.38-.26A74.46,74.46,0,0,1,321.75,259.81Z" transform="translate(-3 -13.82)"/><path class="cls-5" d="M621.91,355.94c0,.13-138.56.24-309.44.24S3,356.07,3,355.94s138.53-.24,309.47-.24S621.91,355.81,621.91,355.94Z" transform="translate(-3 -13.82)"/><path class="cls-5" d="M337.25,177.37c.13,0,.19.54.13,1.17s-.22,1.14-.36,1.13-.19-.54-.12-1.17S337.12,177.35,337.25,177.37Z" transform="translate(-3 -13.82)"/><path class="cls-5" d="M338.49,168.34a5.68,5.68,0,0,1-.11,2.29,5.62,5.62,0,0,1-.58,2.21,5.51,5.51,0,0,1,.1-2.28A5.36,5.36,0,0,1,338.49,168.34Z" transform="translate(-3 -13.82)"/><path class="cls-5" d="M340.31,159.42a5.63,5.63,0,0,1-.26,2.27,5.49,5.49,0,0,1-.73,2.17,10.89,10.89,0,0,1,1-4.44Z" transform="translate(-3 -13.82)"/><path class="cls-5" d="M342.77,150.65a5.43,5.43,0,0,1-.43,2.25,5.58,5.58,0,0,1-.89,2.11,5.84,5.84,0,0,1,.43-2.25A5.77,5.77,0,0,1,342.77,150.65Z" transform="translate(-3 -13.82)"/><path class="cls-5" d="M346,142.11a5.45,5.45,0,0,1-.61,2.21,5.77,5.77,0,0,1-1.07,2,11.06,11.06,0,0,1,1.68-4.24Z" transform="translate(-3 -13.82)"/><path class="cls-5" d="M349.9,133.91a5.54,5.54,0,0,1-.82,2.14c-.57,1.11-1.13,2-1.25,1.91a5.64,5.64,0,0,1,.82-2.13C349.22,134.71,349.78,133.85,349.9,133.91Z" transform="translate(-3 -13.82)"/><path class="cls-5" d="M354.66,126.15a5.61,5.61,0,0,1-1.06,2c-.67,1.07-1.31,1.87-1.42,1.8a5.51,5.51,0,0,1,1-2.06C353.89,126.86,354.55,126.07,354.66,126.15Z" transform="translate(-3 -13.82)"/><path class="cls-5" d="M360.28,119a5.77,5.77,0,0,1-1.27,1.9c-.81,1-1.54,1.68-1.65,1.6a5.79,5.79,0,0,1,1.27-1.9C359.44,119.61,360.18,118.89,360.28,119Z" transform="translate(-3 -13.82)"/><path class="cls-5" d="M366.69,112.52c.09.1-.57.88-1.48,1.74s-1.73,1.49-1.82,1.39.57-.87,1.49-1.74S366.61,112.42,366.69,112.52Z" transform="translate(-3 -13.82)"/><path class="cls-5" d="M373.86,106.91c.08.11-.68.8-1.69,1.54a5.72,5.72,0,0,1-2,1.15c-.08-.1.68-.79,1.69-1.54A5.52,5.52,0,0,1,373.86,106.91Z" transform="translate(-3 -13.82)"/><path class="cls-5" d="M381.72,102.3a11.17,11.17,0,0,1-4,2.17c-.07-.12.78-.7,1.89-1.3A5.53,5.53,0,0,1,381.72,102.3Z" transform="translate(-3 -13.82)"/><path class="cls-5" d="M390.15,98.87a5.83,5.83,0,0,1-2.06,1,5.44,5.44,0,0,1-2.22.55,5.61,5.61,0,0,1,2.06-1A5.47,5.47,0,0,1,390.15,98.87Z" transform="translate(-3 -13.82)"/><path class="cls-5" d="M399,96.8a13.16,13.16,0,0,1-4.47.85,5.68,5.68,0,0,1,2.18-.71A5.6,5.6,0,0,1,399,96.8Z" transform="translate(-3 -13.82)"/><path class="cls-5" d="M408.1,96.3a5.79,5.79,0,0,1-2.27.27,5.47,5.47,0,0,1-2.28-.22,11.13,11.13,0,0,1,4.55,0Z" transform="translate(-3 -13.82)"/><path class="cls-5" d="M417.14,97.37a5.71,5.71,0,0,1-2.29-.13,5.78,5.78,0,0,1-2.21-.6,11,11,0,0,1,4.5.73Z" transform="translate(-3 -13.82)"/><path class="cls-5" d="M425.86,100a5.72,5.72,0,0,1-2.23-.52,5.6,5.6,0,0,1-2.07-1,5.44,5.44,0,0,1,2.23.52A5.57,5.57,0,0,1,425.86,100Z" transform="translate(-3 -13.82)"/><path class="cls-5" d="M434,104.1a5.47,5.47,0,0,1-2.1-.92c-1.09-.62-1.92-1.21-1.86-1.33a5.48,5.48,0,0,1,2.1.92C433.21,103.39,434,104,434,104.1Z" transform="translate(-3 -13.82)"/><path class="cls-5" d="M441.1,109.74a5.86,5.86,0,0,1-1.87-1.32c-.94-.82-1.63-1.58-1.55-1.68s.92.48,1.87,1.32S441.2,109.65,441.1,109.74Z" transform="translate(-3 -13.82)"/><path class="cls-5" d="M445.61,114.93c-.11.08-.52-.27-.9-.77s-.63-1-.52-1.06.5.26.9.76S445.71,114.85,445.61,114.93Z" transform="translate(-3 -13.82)"/><path class="cls-5" d="M488.45,170.75a5.55,5.55,0,0,1-2.2-.75,5.73,5.73,0,0,1-2-1.2,5.72,5.72,0,0,1,2.2.76A5.8,5.8,0,0,1,488.45,170.75Z" transform="translate(-3 -13.82)"/><path class="cls-5" d="M497.2,173.8a11.35,11.35,0,0,1-4.43-1.36,6,6,0,0,1,2.29.45A5.8,5.8,0,0,1,497.2,173.8Z" transform="translate(-3 -13.82)"/><path class="cls-5" d="M506.34,175.26a5.88,5.88,0,0,1-2.33,0,5.8,5.8,0,0,1-2.28-.49,5.83,5.83,0,0,1,2.33,0A5.69,5.69,0,0,1,506.34,175.26Z" transform="translate(-3 -13.82)"/><path class="cls-5" d="M515.59,175a5.66,5.66,0,0,1-2.29.41,5.78,5.78,0,0,1-2.33-.06,5.72,5.72,0,0,1,2.29-.42A5.56,5.56,0,0,1,515.59,175Z" transform="translate(-3 -13.82)"/><path class="cls-5" d="M524.69,173.26a5.85,5.85,0,0,1-2.2.79,5.43,5.43,0,0,1-2.32.22,5.94,5.94,0,0,1,2.22-.69A5.62,5.62,0,0,1,524.69,173.26Z" transform="translate(-3 -13.82)"/><path class="cls-5" d="M533.29,169.85a11.14,11.14,0,0,1-4.21,1.94,5.7,5.7,0,0,1,2-1.19A5.88,5.88,0,0,1,533.29,169.85Z" transform="translate(-3 -13.82)"/><path class="cls-5" d="M541,164.69c.09.1-.63.86-1.66,1.64a5.25,5.25,0,0,1-2,1.15c-.08-.12.73-.77,1.74-1.54A6.94,6.94,0,0,1,541,164.69Z" transform="translate(-3 -13.82)"/><path class="cls-5" d="M547.27,157.92a5.06,5.06,0,0,1-1.24,2c-.82,1-1.62,1.68-1.71,1.59s.54-.92,1.34-1.9S547.16,157.84,547.27,157.92Z" transform="translate(-3 -13.82)"/><path class="cls-5" d="M551.61,149.77A5,5,0,0,1,551,152a4.85,4.85,0,0,1-1.24,2,17,17,0,0,1,1.89-4.23Z" transform="translate(-3 -13.82)"/><path class="cls-5" d="M553.32,140.7a4.92,4.92,0,0,1,.1,2.34,4.75,4.75,0,0,1-.58,2.27,7.72,7.72,0,0,1,.1-2.32A7,7,0,0,1,553.32,140.7Z" transform="translate(-3 -13.82)"/><path class="cls-5" d="M552,131.57a4.92,4.92,0,0,1,.84,2.19,4.86,4.86,0,0,1,.19,2.33,7.23,7.23,0,0,1-.66-2.23A7.06,7.06,0,0,1,552,131.57Z" transform="translate(-3 -13.82)"/><path class="cls-5" d="M548,123.26c.11-.07.81.72,1.45,1.84a4.78,4.78,0,0,1,.88,2.17,7.34,7.34,0,0,1-1.29-1.93A7.09,7.09,0,0,1,548,123.26Z" transform="translate(-3 -13.82)"/><path class="cls-5" d="M541.52,116.66c.08-.11,1,.4,2,1.25s1.62,1.68,1.52,1.77-.88-.58-1.84-1.41S541.45,116.77,541.52,116.66Z" transform="translate(-3 -13.82)"/><path class="cls-5" d="M533.12,112.89a4.64,4.64,0,0,1,2.32.38,4.54,4.54,0,0,1,2.08,1.07,8,8,0,0,1-2.24-.61A7.59,7.59,0,0,1,533.12,112.89Z" transform="translate(-3 -13.82)"/><path class="cls-5" d="M523.94,113.05a4.45,4.45,0,0,1,2.24-.68,4.58,4.58,0,0,1,2.34.07,7.51,7.51,0,0,1-2.28.41A8.17,8.17,0,0,1,523.94,113.05Z" transform="translate(-3 -13.82)"/><path class="cls-5" d="M516,117.52c-.1-.09.54-1,1.58-1.74a4.26,4.26,0,0,1,2.09-1.06c.07.12-.79.69-1.79,1.45S516.05,117.61,516,117.52Z" transform="translate(-3 -13.82)"/><path class="cls-5" d="M512.28,125.83a4.28,4.28,0,0,1,.14-2.34,4.13,4.13,0,0,1,1-2.14,10.07,10.07,0,0,1-.5,2.25A8.85,8.85,0,0,1,512.28,125.83Z" transform="translate(-3 -13.82)"/><path class="cls-5" d="M514.09,134.81a4.45,4.45,0,0,1-1.13-2.05,4.51,4.51,0,0,1-.38-2.32,9,9,0,0,1,.84,2.16A8.36,8.36,0,0,1,514.09,134.81Z" transform="translate(-3 -13.82)"/><path class="cls-5" d="M520.15,141.71a4.77,4.77,0,0,1-2-1.26c-1-.86-1.58-1.73-1.48-1.81s.85.61,1.8,1.45S520.23,141.59,520.15,141.71Z" transform="translate(-3 -13.82)"/><path class="cls-5" d="M528.56,145.47a8,8,0,0,1-4.38-1.49,6.78,6.78,0,0,1,2.23.61A7.35,7.35,0,0,1,528.56,145.47Z" transform="translate(-3 -13.82)"/><path class="cls-5" d="M537.75,146.35a8.54,8.54,0,0,1-4.63-.1,7,7,0,0,1,2.32-.11A6.78,6.78,0,0,1,537.75,146.35Z" transform="translate(-3 -13.82)"/><path class="cls-5" d="M546.83,144.67a8.76,8.76,0,0,1-4.48,1.14,6.42,6.42,0,0,1,2.2-.73A6.5,6.5,0,0,1,546.83,144.67Z" transform="translate(-3 -13.82)"/><path class="cls-5" d="M555.24,140.82a5.94,5.94,0,0,1-1.94,1.29,5.76,5.76,0,0,1-2.16.87,5.87,5.87,0,0,1,1.94-1.29A5.58,5.58,0,0,1,555.24,140.82Z" transform="translate(-3 -13.82)"/><path class="cls-5" d="M562.66,135.3c.09.1-.64.84-1.63,1.65a5.91,5.91,0,0,1-1.95,1.29c-.08-.11.66-.85,1.64-1.66A5.68,5.68,0,0,1,562.66,135.3Z" transform="translate(-3 -13.82)"/><path class="cls-5" d="M569,128.52c.11.09-.48.94-1.32,1.92s-1.59,1.7-1.69,1.61a5.93,5.93,0,0,1,1.33-1.92C568.11,129.16,568.87,128.44,569,128.52Z" transform="translate(-3 -13.82)"/><path class="cls-5" d="M574.07,120.79a5.9,5.9,0,0,1-1,2.11c-.66,1.11-1.29,1.94-1.4,1.86a5.9,5.9,0,0,1,1-2.11C573.32,121.56,574,120.73,574.07,120.79Z" transform="translate(-3 -13.82)"/><path class="cls-5" d="M577.82,112.33a5.59,5.59,0,0,1-.62,2.24c-.46,1.2-1,2.12-1.09,2.06a6.77,6.77,0,0,1,.64-2.23A5.91,5.91,0,0,1,577.82,112.33Z" transform="translate(-3 -13.82)"/><path class="cls-5" d="M580.41,103.44a5.67,5.67,0,0,1-.34,2.3,5.79,5.79,0,0,1-.82,2.18,5.76,5.76,0,0,1,.35-2.3A5.86,5.86,0,0,1,580.41,103.44Z" transform="translate(-3 -13.82)"/><path class="cls-5" d="M582,94.32a5.73,5.73,0,0,1-.12,2.32,5.55,5.55,0,0,1-.59,2.26,5.79,5.79,0,0,1,.12-2.33A5.54,5.54,0,0,1,582,94.32Z" transform="translate(-3 -13.82)"/><path class="cls-5" d="M582.89,85.09a5.93,5.93,0,0,1,.07,2.33,5.87,5.87,0,0,1-.41,2.29,5.48,5.48,0,0,1-.07-2.32A5.84,5.84,0,0,1,582.89,85.09Z" transform="translate(-3 -13.82)"/><path class="cls-5" d="M583.18,75.84a5.67,5.67,0,0,1,.2,2.32,5.5,5.5,0,0,1-.29,2.31,5.85,5.85,0,0,1-.19-2.32A5.8,5.8,0,0,1,583.18,75.84Z" transform="translate(-3 -13.82)"/><path class="cls-5" d="M583.12,66.57a5.91,5.91,0,0,1,.27,2.31,5.57,5.57,0,0,1-.21,2.32,5.91,5.91,0,0,1-.27-2.31A5.57,5.57,0,0,1,583.12,66.57Z" transform="translate(-3 -13.82)"/><path class="cls-5" d="M583,60.87c.13,0,.25.23.25.53s-.09.53-.22.54-.25-.23-.26-.53S582.85,60.88,583,60.87Z" transform="translate(-3 -13.82)"/><rect class="cls-4" x="542.42" y="36.68" width="63.35" height="42.7" transform="translate(-5.91 48.51) rotate(-6.2)"/><path class="cls-5" d="M544.89,82.7v0l-4.62-42.47h0l63-6.84v0l4.62,42.48h0Zm-4.57-42.45,4.61,42.4,62.94-6.83-4.61-42.41Z" transform="translate(-3 -13.82)"/><path class="cls-5" d="M603.54,33.88a4.94,4.94,0,0,1-.53.62l-1.58,1.73-5.92,6.28L575.78,63.15l-.16.17-.2-.13-.48-.31L550.56,47.31l-7.35-4.78-2-1.32a4.87,4.87,0,0,1-.67-.49,4.45,4.45,0,0,1,.73.39l2,1.23L550.78,47,575.25,62.4l.48.3-.36,0,19.85-20.52,6-6.15,1.66-1.66A3.6,3.6,0,0,1,603.54,33.88Z" transform="translate(-3 -13.82)"/><path class="cls-5" d="M545.17,83.17c-.14-.09,4-6.42,9.16-14.15S563.84,55.11,564,55.2s-4,6.42-9.17,14.14S545.3,83.26,545.17,83.17Z" transform="translate(-3 -13.82)"/><path class="cls-5" d="M584.85,52.39c.12-.11,5.43,5.16,11.86,11.77s11.55,12.06,11.44,12.17-5.42-5.16-11.86-11.77S584.74,52.5,584.85,52.39Z" transform="translate(-3 -13.82)"/><path class="cls-5" d="M315.67,162.1c.14,0,.33.47.44,1.1s.08,1.16-.05,1.18-.32-.47-.43-1.1S315.54,162.12,315.67,162.1Z" transform="translate(-3 -13.82)"/><path class="cls-5" d="M314.19,153.06a5.65,5.65,0,0,1,.6,2.22,5.54,5.54,0,0,1,.13,2.3,5.65,5.65,0,0,1-.6-2.22A5.75,5.75,0,0,1,314.19,153.06Z" transform="translate(-3 -13.82)"/><path class="cls-5" d="M312.87,144a5.87,5.87,0,0,1,.56,2.24,5.7,5.7,0,0,1,.07,2.3,11.2,11.2,0,0,1-.63-4.54Z" transform="translate(-3 -13.82)"/><path class="cls-5" d="M311.83,134.89a5.91,5.91,0,0,1,.48,2.25,5.8,5.8,0,0,1,0,2.31,5.5,5.5,0,0,1-.48-2.25A5.38,5.38,0,0,1,311.83,134.89Z" transform="translate(-3 -13.82)"/><path class="cls-5" d="M311.19,125.75a11.07,11.07,0,0,1,.26,4.58,5.68,5.68,0,0,1-.37-2.28A5.77,5.77,0,0,1,311.19,125.75Z" transform="translate(-3 -13.82)"/><path class="cls-5" d="M311.09,116.59a5.51,5.51,0,0,1,.23,2.3,5.89,5.89,0,0,1-.25,2.29,5.47,5.47,0,0,1-.23-2.3A5.81,5.81,0,0,1,311.09,116.59Z" transform="translate(-3 -13.82)"/><path class="cls-5" d="M311.67,107.45a11,11,0,0,1-.38,4.57,5.39,5.39,0,0,1-.05-2.3A5.62,5.62,0,0,1,311.67,107.45Z" transform="translate(-3 -13.82)"/><path class="cls-5" d="M313.05,98.4a5.68,5.68,0,0,1-.16,2.3,5.67,5.67,0,0,1-.64,2.21,5.67,5.67,0,0,1,.16-2.3A5.52,5.52,0,0,1,313.05,98.4Z" transform="translate(-3 -13.82)"/><path class="cls-5" d="M315.38,89.55a5.57,5.57,0,0,1-.42,2.26,5.76,5.76,0,0,1-.88,2.13,5.62,5.62,0,0,1,.42-2.27A5.66,5.66,0,0,1,315.38,89.55Z" transform="translate(-3 -13.82)"/><path class="cls-5" d="M318.81,81.06a5.84,5.84,0,0,1-.7,2.19,5.62,5.62,0,0,1-1.15,2,5.74,5.74,0,0,1,.7-2.2A5.62,5.62,0,0,1,318.81,81.06Z" transform="translate(-3 -13.82)"/><path class="cls-5" d="M323.28,73.06a5.73,5.73,0,0,1-1,2.09c-.65,1.08-1.27,1.9-1.39,1.84a5.68,5.68,0,0,1,1-2.09C322.54,73.81,323.16,73,323.28,73.06Z" transform="translate(-3 -13.82)"/><path class="cls-5" d="M328.77,65.74a5.69,5.69,0,0,1-1.25,1.93c-.79,1-1.52,1.72-1.63,1.64a5.88,5.88,0,0,1,1.25-1.94C327.94,66.38,328.67,65.65,328.77,65.74Z" transform="translate(-3 -13.82)"/><path class="cls-5" d="M335.28,59.3c.08.1-.6.88-1.53,1.73s-1.76,1.46-1.85,1.36.59-.86,1.53-1.72S335.19,59.2,335.28,59.3Z" transform="translate(-3 -13.82)"/><path class="cls-5" d="M342.76,54c.07.12-.74.76-1.8,1.43a5.6,5.6,0,0,1-2.06,1c-.07-.1.73-.75,1.8-1.43A5.53,5.53,0,0,1,342.76,54Z" transform="translate(-3 -13.82)"/><path class="cls-5" d="M351.11,50.28a5.75,5.75,0,0,1-2.05,1.06,5.67,5.67,0,0,1-2.22.61,11,11,0,0,1,4.27-1.67Z" transform="translate(-3 -13.82)"/><path class="cls-5" d="M357.8,48.64c0,.13-.47.33-1.09.45s-1.15.11-1.18,0,.46-.33,1.09-.46S357.78,48.5,357.8,48.64Z" transform="translate(-3 -13.82)"/><rect class="cls-4" x="309.05" y="13.48" width="46.43" height="68.88" transform="translate(164.73 326.72) rotate(-68.86)"/><path class="cls-5" d="M356,82h0L291.74,57.16v0L308.5,13.82h0l64.27,24.86v0ZM291.8,57.14,356,82,372.73,38.7,308.52,13.88Z" transform="translate(-3 -13.82)"/><path class="cls-5" d="M372.76,39.29a4.13,4.13,0,0,1-.82.34l-2.39.88-8.86,3.11L331.34,53.7l-.24.08-.13-.22-.31-.53c-6.15-10.61-11.71-20.2-15.77-27.22l-4.72-8.28-1.25-2.27a4.8,4.8,0,0,1-.4-.81,5.05,5.05,0,0,1,.51.74l1.35,2.21,4.89,8.19L331.2,52.71l.31.54-.37-.14,29.41-9.9,8.92-2.93,2.43-.76A5.13,5.13,0,0,1,372.76,39.29Z" transform="translate(-3 -13.82)"/><path class="cls-5" d="M291.77,57.75c-.08-.15,7-4.22,15.92-9.08S323.82,40,323.9,40.13s-7,4.22-15.91,9.08S291.85,57.9,291.77,57.75Z" transform="translate(-3 -13.82)"/><path class="cls-5" d="M345.47,47.85c.17-.05,2.66,7.68,5.57,17.28s5.14,17.41,5,17.46-2.66-7.68-5.58-17.28S345.31,47.9,345.47,47.85Z" transform="translate(-3 -13.82)"/><path class="cls-5" d="M288.69,172.24c.13,0,.2.53.15,1.17s-.2,1.15-.34,1.14-.19-.54-.14-1.17S288.56,172.23,288.69,172.24Z" transform="translate(-3 -13.82)"/><path class="cls-5" d="M288.93,162.82a5.86,5.86,0,0,1,.23,2.35,6,6,0,0,1-.24,2.36,5.86,5.86,0,0,1-.24-2.36A5.73,5.73,0,0,1,288.93,162.82Z" transform="translate(-3 -13.82)"/><path class="cls-5" d="M288.29,153.41a6.14,6.14,0,0,1,.45,2.33,6.05,6.05,0,0,1,0,2.37,6.09,6.09,0,0,1-.46-2.33A5.77,5.77,0,0,1,288.29,153.41Z" transform="translate(-3 -13.82)"/><path class="cls-5" d="M286.71,144.12a5.87,5.87,0,0,1,.69,2.27,6,6,0,0,1,.22,2.36,6.11,6.11,0,0,1-.69-2.27A6,6,0,0,1,286.71,144.12Z" transform="translate(-3 -13.82)"/><path class="cls-5" d="M284.15,135.05a5.74,5.74,0,0,1,.94,2.18,5.82,5.82,0,0,1,.47,2.32,5.93,5.93,0,0,1-.93-2.18A6.17,6.17,0,0,1,284.15,135.05Z" transform="translate(-3 -13.82)"/><path class="cls-5" d="M280.55,126.34a6.1,6.1,0,0,1,1.19,2,6.23,6.23,0,0,1,.75,2.25,5.74,5.74,0,0,1-1.19-2A6.06,6.06,0,0,1,280.55,126.34Z" transform="translate(-3 -13.82)"/><path class="cls-5" d="M275.87,118.17c.11-.08.78.75,1.48,1.86a6.07,6.07,0,0,1,1,2.15c-.12.07-.75-.78-1.41-1.9A6.13,6.13,0,0,1,275.87,118.17Z" transform="translate(-3 -13.82)"/><path class="cls-5" d="M270.1,110.72c.1-.09.85.65,1.69,1.66a6,6,0,0,1,1.33,2c-.11.08-.87-.66-1.7-1.66A5.88,5.88,0,0,1,270.1,110.72Z" transform="translate(-3 -13.82)"/><path class="cls-5" d="M263.33,104.16a6.14,6.14,0,0,1,1.91,1.4c1,.88,1.68,1.67,1.59,1.76s-.95-.53-1.91-1.4S263.24,104.27,263.33,104.16Z" transform="translate(-3 -13.82)"/><path class="cls-5" d="M255.68,98.66a5.83,5.83,0,0,1,2.1,1.1c1.09.73,1.91,1.4,1.83,1.51a6,6,0,0,1-2.1-1.11A6.3,6.3,0,0,1,255.68,98.66Z" transform="translate(-3 -13.82)"/><path class="cls-5" d="M247.29,94.38a11.39,11.39,0,0,1,4.28,2,11.82,11.82,0,0,1-4.28-2Z" transform="translate(-3 -13.82)"/><path class="cls-5" d="M238.31,91.54a5.73,5.73,0,0,1,2.34.38,6.11,6.11,0,0,1,2.21.84,5.89,5.89,0,0,1-2.34-.38A6.1,6.1,0,0,1,238.31,91.54Z" transform="translate(-3 -13.82)"/><path class="cls-5" d="M229,90.34a5.84,5.84,0,0,1,2.37-.11,6.15,6.15,0,0,1,2.33.49,6,6,0,0,1-2.37,0A5.8,5.8,0,0,1,229,90.34Z" transform="translate(-3 -13.82)"/><path class="cls-5" d="M219.57,91a5.91,5.91,0,0,1,2.32-.52,6,6,0,0,1,2.36,0,5.75,5.75,0,0,1-2.31.52A6.16,6.16,0,0,1,219.57,91Z" transform="translate(-3 -13.82)"/><path class="cls-5" d="M210.47,93.41a5.92,5.92,0,0,1,2.18-.94A6.07,6.07,0,0,1,215,92a6,6,0,0,1-2.18,1A6.11,6.11,0,0,1,210.47,93.41Z" transform="translate(-3 -13.82)"/><path class="cls-5" d="M202,97.5c-.07-.12.8-.72,1.95-1.34a6.1,6.1,0,0,1,2.19-.91,6,6,0,0,1-2,1.34A6.18,6.18,0,0,1,202,97.5Z" transform="translate(-3 -13.82)"/><path class="cls-5" d="M194.46,103.15c-.09-.09.65-.85,1.65-1.69a6.13,6.13,0,0,1,2-1.33c.08.11-.66.87-1.66,1.7A5.88,5.88,0,0,1,194.46,103.15Z" transform="translate(-3 -13.82)"/><path class="cls-5" d="M188.3,110.26a5.22,5.22,0,0,1,1.2-2.05c.8-1,1.58-1.76,1.68-1.67a7,7,0,0,1-1.3,2C189.09,109.53,188.41,110.34,188.3,110.26Z" transform="translate(-3 -13.82)"/><path class="cls-5" d="M184.86,116.38c-.12,0,0-.57.29-1.14s.6-1,.72-.94,0,.57-.29,1.15S185,116.44,184.86,116.38Z" transform="translate(-3 -13.82)"/><path class="cls-5" d="M126,171.06c0-.13.49-.3,1.12-.38s1.16,0,1.18.1-.48.31-1.12.38S126,171.2,126,171.06Z" transform="translate(-3 -13.82)"/><path class="cls-5" d="M116.81,170a7.44,7.44,0,0,1,2.3.35,7.65,7.65,0,0,1,2.24.6,4.71,4.71,0,0,1-2.34-.13A4.78,4.78,0,0,1,116.81,170Z" transform="translate(-3 -13.82)"/><path class="cls-5" d="M108.52,165.92a6.87,6.87,0,0,1,2.07,1.05c1.09.66,2,1.2,1.91,1.33a5.25,5.25,0,0,1-2.16-.91C109.23,166.73,108.44,166,108.52,165.92Z" transform="translate(-3 -13.82)"/><path class="cls-5" d="M101.62,159.73c.1-.09.86.62,1.76,1.53s1.6,1.67,1.51,1.77-1-.51-1.85-1.43S101.52,159.82,101.62,159.73Z" transform="translate(-3 -13.82)"/><path class="cls-5" d="M96.17,152.23c.12-.07.78.74,1.48,1.8a6.21,6.21,0,0,1,1.07,2.08c-.11.08-.77-.73-1.48-1.81A6.05,6.05,0,0,1,96.17,152.23Z" transform="translate(-3 -13.82)"/><path class="cls-5" d="M92.17,143.86A11.36,11.36,0,0,1,94,148.13a5.7,5.7,0,0,1-1.13-2A5.62,5.62,0,0,1,92.17,143.86Z" transform="translate(-3 -13.82)"/><path class="cls-5" d="M89.51,135a6,6,0,0,1,.82,2.19,6.13,6.13,0,0,1,.36,2.3,5.61,5.61,0,0,1-.83-2.18A5.83,5.83,0,0,1,89.51,135Z" transform="translate(-3 -13.82)"/><path class="cls-5" d="M87.89,125.82a5.55,5.55,0,0,1,.59,2.26,5.88,5.88,0,0,1,.11,2.33,6,6,0,0,1-.59-2.26A5.88,5.88,0,0,1,87.89,125.82Z" transform="translate(-3 -13.82)"/><path class="cls-5" d="M87,116.58a5.52,5.52,0,0,1,.43,2.29,5.94,5.94,0,0,1-.05,2.33,5.66,5.66,0,0,1-.43-2.29A5.92,5.92,0,0,1,87,116.58Z" transform="translate(-3 -13.82)"/><path class="cls-5" d="M86.62,109.62c.13,0,.27.51.3,1.14s-.06,1.17-.19,1.17-.27-.5-.3-1.14S86.49,109.62,86.62,109.62Z" transform="translate(-3 -13.82)"/><rect class="cls-4" x="45.64" y="55.23" width="77.13" height="51.99" transform="translate(-6.74 -9.76) rotate(-2.7)"/><path class="cls-5" d="M46.89,109v0l-2.45-52h0l77.07-3.63v0l2.45,52h0ZM44.49,57.1,46.93,109l77-3.63-2.45-51.88Z" transform="translate(-3 -13.82)"/><path class="cls-5" d="M121.78,54.06a6.17,6.17,0,0,1-.68.72l-2.06,2L111.38,64l-25.5,23.6-.21.2-.23-.17-.57-.41L56.41,66.44c-3.58-2.65-6.5-4.8-8.58-6.35l-2.32-1.75a5.1,5.1,0,0,1-.77-.65,5.3,5.3,0,0,1,.86.53c.6.42,1.39,1,2.39,1.65L56.7,66,85.28,86.61l.57.41-.45,0,25.65-23.46,7.81-7L121,54.68A4.69,4.69,0,0,1,121.78,54.06Z" transform="translate(-3 -13.82)"/><path class="cls-5" d="M47.18,109.62c-.15-.12,5.31-7.51,12.19-16.51S72,76.91,72.12,77s-5.3,7.5-12.19,16.51S47.34,109.73,47.18,109.62Z" transform="translate(-3 -13.82)"/><path class="cls-5" d="M97.7,75.17c.15-.13,6.2,6.67,13.53,15.18s13.15,15.51,13,15.64S118,99.32,110.7,90.81,97.55,75.3,97.7,75.17Z" transform="translate(-3 -13.82)"/><path class="cls-10" d="M182.35,237.91a2.12,2.12,0,0,0-1.6-2.35l-2.07.14-7.38-2.57a2.21,2.21,0,0,0-2.8,2c0,2.12-.89,7.91-2.61,6.09l-.12-.12c-2.44-2.72-5.26-4-6.35-3.87a1.23,1.23,0,0,0-.53,2.18,1.45,1.45,0,0,0,.44.31c.08,0,.17.09.25.13a18.7,18.7,0,0,1,2.82,2.52,9.89,9.89,0,0,1,1.86,2.81c.5,1.15.89,2.16,1.19,3l.11,6.8-2.95,31.75S143.07,266.22,143.52,266l1.12,32,11.84,9.8a14.89,14.89,0,0,0,24.38-11.72L180.18,255l.48-5.39Z" transform="translate(-3 -13.82)"/><path class="cls-10" d="M72.58,283,51.19,332,34.26,367.33l-12.57,4.22s-10,2.89-10,4.95,2.63,1.59,2.63,1.59c.48,3.08,4.74,1.33,7.72,0s9.6-1.65,9.6-1.65a2.7,2.7,0,0,0-.18,4.32c1.05.73,2.89-.16,4.13-1.49s4.45-1.94,8-3.21S47.8,370,47.8,370l42.84-72.16Z" transform="translate(-3 -13.82)"/><path class="cls-4" d="M143.59,300.82l5.39,7.11,11.66-25.88s-11.32-13.81-15.46-19.61S138,255.7,138,255.7s-7.52-2.23-11.28-2.16l-18.59,1.11-18.87,8.24a26.22,26.22,0,0,0-11.37,9.57L60.12,301l25.16,10.76L93.72,360c1.62,7.24,3,14.07,9.71,17.4l46.68-44.85L144.64,324Z" transform="translate(-3 -13.82)"/><path class="cls-5" d="M99,292c.11.08-2.76,4.55-6.42,10s-6.72,9.79-6.83,9.72,2.77-4.55,6.43-10S98.86,291.9,99,292Z" transform="translate(-3 -13.82)"/><path class="cls-5" d="M138.1,337.78a9,9,0,0,1-1.24.74c-.81.45-2,1.08-3.47,1.84-2.95,1.53-7,3.58-11.64,5.74s-8.77,4-11.83,5.32c-1.53.65-2.77,1.16-3.63,1.5a9.43,9.43,0,0,1-1.36.49,7.67,7.67,0,0,1,1.28-.66l3.57-1.64c3-1.38,7.19-3.29,11.77-5.45s8.7-4.15,11.68-5.6l3.54-1.71A7.47,7.47,0,0,1,138.1,337.78Z" transform="translate(-3 -13.82)"/><path class="cls-5" d="M97.48,281.52a14.89,14.89,0,0,1-1.64-2.06,33.25,33.25,0,0,0-4.15-4.73,14.49,14.49,0,0,0-5.34-3.14c-1.53-.48-2.55-.46-2.55-.55a1.75,1.75,0,0,1,.72-.06,8.88,8.88,0,0,1,1.92.28A13.35,13.35,0,0,1,92,274.38a26.44,26.44,0,0,1,4.1,4.88A14.24,14.24,0,0,1,97.48,281.52Z" transform="translate(-3 -13.82)"/><path class="cls-5" d="M135.88,305a2.81,2.81,0,0,1,0,.51c0,.33,0,.83-.05,1.47a34.67,34.67,0,0,1-.74,5.34,38.3,38.3,0,0,1-21.57,26.89,34.85,34.85,0,0,1-5.06,1.89c-.61.19-1.1.28-1.42.36a1.61,1.61,0,0,1-.51.09s.67-.23,1.87-.63a42.23,42.23,0,0,0,5-2,39.27,39.27,0,0,0,21.38-26.66,43.36,43.36,0,0,0,.89-5.29A17.81,17.81,0,0,1,135.88,305Z" transform="translate(-3 -13.82)"/><g class="cls-8"><path d="M88.54,330.42c-.08-.46,6-31.83,6-31.83l-9.15,13.73" transform="translate(-3 -13.82)"/></g><path class="cls-5" d="M142.4,270.71a2.64,2.64,0,0,1,.06.54c0,.41.06.92.1,1.55.07,1.41.17,3.35.29,5.7.23,4.88.56,11.5.91,18.82s.63,14,.77,18.82c.07,2.41.12,4.36.13,5.71,0,.63,0,1.15,0,1.55a2,2,0,0,1,0,.55,2.18,2.18,0,0,1-.07-.54l-.09-1.55c-.07-1.41-.17-3.35-.29-5.7-.24-4.88-.56-11.5-.91-18.82s-.63-14-.77-18.82c-.08-2.41-.12-4.36-.14-5.71v-1.56A1.91,1.91,0,0,1,142.4,270.71Z" transform="translate(-3 -13.82)"/><g class="cls-11"><path d="M105.15,353.38c-1.5-1.25-1.16-3.78.16-5.21s3.28-2,5.13-2.64c8.87-2.87,17.78-6.93,23.63-14.19a14.07,14.07,0,0,1,2.62-2.82,3.61,3.61,0,0,1,3.64-.5c1.79.93,1.86,3.52,1.11,5.4a10.4,10.4,0,0,1-4.89,5.34" transform="translate(-3 -13.82)"/></g><g class="cls-11"><polygon points="139.59 262.46 144.76 292.52 140.73 287.19 139.59 262.46"/></g><path class="cls-4" d="M191.87,355.23l-8.76,30,37.31,11.09c.85-3.63-16.33-16.53-16.33-16.53l6.4-19Z" transform="translate(-3 -13.82)"/><g class="cls-12"><path class="cls-13" d="M193,374.79a1.59,1.59,0,0,0-1.57,1.43,1.53,1.53,0,0,0,1.4,1.56,1.68,1.68,0,0,0,1.66-1.51,1.61,1.61,0,0,0-1.64-1.48" transform="translate(-3 -13.82)"/></g><g class="cls-12"><path class="cls-13" d="M183.11,385.27l1-3L219.51,394s1.45,1.22.91,2.34Z" transform="translate(-3 -13.82)"/></g><path class="cls-5" d="M204.75,379.82c-.06.18-1,0-2.07.32s-1.77.94-1.92.82.44-1.1,1.74-1.46S204.84,379.67,204.75,379.82Z" transform="translate(-3 -13.82)"/><path class="cls-5" d="M208.18,382.61c0,.18-.89.26-1.74.85s-1.27,1.35-1.45,1.28,0-1.12,1.08-1.83S208.23,382.43,208.18,382.61Z" transform="translate(-3 -13.82)"/><path class="cls-5" d="M209,388c-.17,0-.16-1,.61-1.85s1.73-1,1.76-.83-.65.55-1.27,1.26S209.2,388,209,388Z" transform="translate(-3 -13.82)"/><path class="cls-5" d="M205.73,375.33c-.13.14-.89-.36-1.94-.59s-1.95-.15-2-.34.92-.6,2.15-.31S205.86,375.21,205.73,375.33Z" transform="translate(-3 -13.82)"/><path class="cls-5" d="M206.15,370.64a3.75,3.75,0,0,1-1.86-.57,8.8,8.8,0,0,1-1.78-1.18,9.41,9.41,0,0,1-.9-.89,2.52,2.52,0,0,1-.44-.6.85.85,0,0,1,.21-1,1,1,0,0,1,.92-.18,2.79,2.79,0,0,1,.67.31,7,7,0,0,1,1.05.74,7.07,7.07,0,0,1,1.38,1.64,3.28,3.28,0,0,1,.65,1.85c-.1,0-.35-.66-1-1.58a7.19,7.19,0,0,0-2.36-2.09c-.36-.22-.7-.32-.85-.18s-.07.08,0,.22a1.64,1.64,0,0,0,.32.45,9.62,9.62,0,0,0,.82.86,11.11,11.11,0,0,0,1.6,1.23C205.5,370.28,206.19,370.54,206.15,370.64Z" transform="translate(-3 -13.82)"/><path class="cls-5" d="M205.84,370.83a3.14,3.14,0,0,1,0-1.95,6.4,6.4,0,0,1,.87-2,6.13,6.13,0,0,1,.81-1,1.64,1.64,0,0,1,1.47-.59.93.93,0,0,1,.63.76,2.25,2.25,0,0,1,0,.74,4.2,4.2,0,0,1-.37,1.26,4.4,4.4,0,0,1-1.37,1.69,2.57,2.57,0,0,1-1.84.68c0-.11.71-.27,1.54-1a4.37,4.37,0,0,0,1.11-1.58,3.8,3.8,0,0,0,.29-1.09c.06-.41,0-.78-.15-.78s-.59.15-.84.42a6.76,6.76,0,0,0-.76.87,7,7,0,0,0-.92,1.76C206,370.09,206,370.83,205.84,370.83Z" transform="translate(-3 -13.82)"/><path class="cls-5" d="M230.18,310.51c.94,6.93-1.43,14.74-3.94,21.27l-16.36,38.48-18.11-2.78a23.34,23.34,0,0,1-8.61,5.81c-2.15.72-9.26,2.12-15.11-2.09h0s-8.27,11.52-21.29,15-32.73,5.41-42.27-9.82l45.42-43.78c.94.23,39.13-25.53,59.76-31.39C209.67,301.22,228.44,297.77,230.18,310.51Z" transform="translate(-3 -13.82)"/><path class="cls-6" d="M190.42,367.33s.08-.06.24-.15l.74-.4c.66-.34,1.63-.84,2.85-1.51a47.18,47.18,0,0,0,4.33-2.67,22.34,22.34,0,0,0,4.9-4.55,15.6,15.6,0,0,0,3.18-7.35,24.75,24.75,0,0,0-.38-9.26,15,15,0,0,0-5-8.7,18.89,18.89,0,0,0-10.23-3.64,30.88,30.88,0,0,0-5.61,0,41.12,41.12,0,0,0-5.38.94,63.73,63.73,0,0,0-9.77,3.38c-6.06,2.65-11.31,5.5-15.93,7.47a56.86,56.86,0,0,1-11.25,3.76c-.69.16-1.31.25-1.84.34s-1,.14-1.35.18l-.84.08a1.6,1.6,0,0,1-.29,0l.29-.06.82-.13c.37-.05.82-.12,1.35-.23s1.14-.2,1.82-.37a60.17,60.17,0,0,0,11.16-3.89c4.58-2,9.81-4.89,15.88-7.57a64.63,64.63,0,0,1,9.84-3.43,43.5,43.5,0,0,1,5.44-1,31.88,31.88,0,0,1,5.7-.05,19.18,19.18,0,0,1,10.48,3.75,13.22,13.22,0,0,1,3.41,4.14,18.91,18.91,0,0,1,1.73,4.83,25,25,0,0,1,.35,9.42,16.11,16.11,0,0,1-3.31,7.5,22.5,22.5,0,0,1-5,4.56,42.53,42.53,0,0,1-4.39,2.61c-1.24.66-2.23,1.12-2.89,1.44l-.77.35Z" transform="translate(-3 -13.82)"/><path class="cls-6" d="M201.78,316.84A54.82,54.82,0,0,1,198,323a54.73,54.73,0,0,1-4.19,5.93,53.06,53.06,0,0,1,3.79-6.19A55.57,55.57,0,0,1,201.78,316.84Z" transform="translate(-3 -13.82)"/><path class="cls-6" d="M188.72,364.27c0,.07-1.26.34-3.29.85s-4.83,1.27-7.84,2.33-5.68,2.19-7.58,3.06a29.23,29.23,0,0,1-3.11,1.39,3.58,3.58,0,0,1,.77-.51c.5-.3,1.25-.71,2.19-1.18a62.64,62.64,0,0,1,7.57-3.22,64.52,64.52,0,0,1,7.92-2.21c1-.21,1.87-.36,2.45-.43A3.19,3.19,0,0,1,188.72,364.27Z" transform="translate(-3 -13.82)"/><path class="cls-6" d="M209.56,367.74c-.09,0-.3-.82-1.07-2a7.83,7.83,0,0,0-9.33-3c-1.28.46-2,1-2,.95s.13-.18.44-.43a6.38,6.38,0,0,1,1.45-.84,7.71,7.71,0,0,1,9.74,3.16,6.81,6.81,0,0,1,.68,1.53C209.56,367.51,209.59,367.73,209.56,367.74Z" transform="translate(-3 -13.82)"/><path class="cls-6" d="M131.19,353.38a3.09,3.09,0,0,1,.24.86,14.31,14.31,0,0,1,.2,2.44,15,15,0,0,1-2.13,7.74,11.76,11.76,0,0,1-6.21,5,8.77,8.77,0,0,1-2.41.47,2.56,2.56,0,0,1-.9-.05,16.43,16.43,0,0,0,3.2-.74,12.12,12.12,0,0,0,5.91-5,15.75,15.75,0,0,0,2.2-7.49C131.38,354.64,131.1,353.39,131.19,353.38Z" transform="translate(-3 -13.82)"/><path class="cls-6" d="M110.75,374.16c-.1.09-.58-.33-1-1s-.69-1.23-.58-1.3.53.4,1,1S110.86,374.08,110.75,374.16Z" transform="translate(-3 -13.82)"/><path class="cls-6" d="M114.57,378.19c-.09.1-.61-.25-1.17-.79s-.93-1-.83-1.14.62.26,1.17.79S114.66,378.09,114.57,378.19Z" transform="translate(-3 -13.82)"/><path class="cls-6" d="M119.06,381.44c-.06.12-.64-.13-1.29-.55s-1.12-.85-1-1,.66.14,1.3.55S119.13,381.33,119.06,381.44Z" transform="translate(-3 -13.82)"/><path class="cls-6" d="M124.16,383.64c0,.12-.66,0-1.39-.25s-1.28-.58-1.22-.7.67,0,1.38.25S124.19,383.51,124.16,383.64Z" transform="translate(-3 -13.82)"/><path class="cls-6" d="M129.64,384.49c0,.14-.63.19-1.41.12s-1.38-.24-1.36-.37.65-.18,1.41-.11S129.64,384.36,129.64,384.49Z" transform="translate(-3 -13.82)"/><path class="cls-6" d="M135.18,384.19c0,.14-.6.29-1.37.34a5.77,5.77,0,0,1-1,0h0c-.23,0-.37-.06-.38-.13s.12-.13.34-.19h0a4.83,4.83,0,0,1,1-.15C134.54,384,135.16,384.06,135.18,384.19Z" transform="translate(-3 -13.82)"/><path class="cls-6" d="M140.64,383.21c0,.13-.55.36-1.31.52s-1.38.19-1.4.06.56-.37,1.3-.53S140.61,383.08,140.64,383.21Z" transform="translate(-3 -13.82)"/><path class="cls-6" d="M146,381.59c.05.12-.51.42-1.24.67s-1.36.34-1.39.21.51-.43,1.24-.67S145.9,381.46,146,381.59Z" transform="translate(-3 -13.82)"/><path class="cls-6" d="M151.06,379.42c.06.12-.46.48-1.16.79s-1.31.48-1.37.36.47-.48,1.17-.79S151,379.3,151.06,379.42Z" transform="translate(-3 -13.82)"/><path class="cls-6" d="M155.93,376.75c.07.11-.41.52-1.08.9s-1.26.61-1.32.49.42-.52,1.08-.9S155.86,376.63,155.93,376.75Z" transform="translate(-3 -13.82)"/><path class="cls-6" d="M160.52,373.62c.08.1-.36.55-1,1s-1.19.73-1.27.62.37-.56,1-1S160.44,373.51,160.52,373.62Z" transform="translate(-3 -13.82)"/><path class="cls-6" d="M164.8,370.08c.09.1-.31.59-.89,1.09s-1.13.83-1.21.73.31-.59.89-1.09S164.71,370,164.8,370.08Z" transform="translate(-3 -13.82)"/><path class="cls-6" d="M168.84,366.26c.09.1-.29.61-.84,1.13s-1.09.87-1.18.78.28-.6.84-1.13S168.76,366.16,168.84,366.26Z" transform="translate(-3 -13.82)"/><path class="cls-6" d="M173.24,362.85c.07.11-.37.56-1,1s-1.19.72-1.27.62.36-.56,1-1S173.16,362.74,173.24,362.85Z" transform="translate(-3 -13.82)"/><path class="cls-6" d="M178.11,360.16c0,.12-.46.5-1.14.83s-1.29.52-1.36.41.45-.49,1.14-.84S178.05,360,178.11,360.16Z" transform="translate(-3 -13.82)"/><path class="cls-6" d="M183.41,358.51c0,.13-.56.39-1.29.57s-1.37.23-1.41.11.54-.39,1.29-.58S183.38,358.38,183.41,358.51Z" transform="translate(-3 -13.82)"/><path class="cls-6" d="M188.94,358.23c0,.13-.63.18-1.39.17s-1.37-.09-1.38-.22.61-.28,1.39-.27S189,358.1,188.94,358.23Z" transform="translate(-3 -13.82)"/><path class="cls-6" d="M194.3,359.63c-.06.12-.65-.05-1.36-.3s-1.29-.5-1.25-.63.67-.09,1.41.17S194.36,359.52,194.3,359.63Z" transform="translate(-3 -13.82)"/><path class="cls-6" d="M193.13,363.67c-.08-.11.33-.57.82-1.12s.9-1,1-1-.12.68-.66,1.28S193.21,363.77,193.13,363.67Z" transform="translate(-3 -13.82)"/><path class="cls-6" d="M188.22,366.21c0-.12.49-.46,1.19-.75s1.32-.42,1.38-.31-.47.46-1.19.76S188.26,366.34,188.22,366.21Z" transform="translate(-3 -13.82)"/><path class="cls-6" d="M182.93,367.91c-.05-.12.51-.42,1.24-.67s1.35-.34,1.39-.21-.51.43-1.24.67S183,368,182.93,367.91Z" transform="translate(-3 -13.82)"/><path class="cls-6" d="M177.73,369.9c0-.13.49-.46,1.21-.74s1.33-.41,1.38-.28-.49.45-1.21.73S177.78,370,177.73,369.9Z" transform="translate(-3 -13.82)"/><path class="cls-6" d="M172.61,372.06c-.06-.12.47-.47,1.18-.77s1.32-.45,1.37-.33-.47.47-1.18.77S172.66,372.18,172.61,372.06Z" transform="translate(-3 -13.82)"/><path class="cls-6" d="M162.25,213.18s6.06-1.82,14.11-10.81S187.66,182,188.73,182s5.54-2.52,15.77,16,7.1,23.22,5.35,23.32-13.91-2.34-21.29-.94-16.64,6-16.64,6Z" transform="translate(-3 -13.82)"/><path class="cls-5" d="M149.94,224.6l2.4,3.84,1.08,1.72a5.22,5.22,0,0,0,7,1.8l12.86-5.58-9-17-12.67,8A5.23,5.23,0,0,0,149.94,224.6Z" transform="translate(-3 -13.82)"/><path class="cls-5" d="M158,230.43l4.82,7.93,2.06-.74,14.58,10.16,3.28-7.8s-8.38-2.9-10.1-5.68,0-3.57,0-3.57l-4.14-4.06Z" transform="translate(-3 -13.82)"/><path class="cls-5" d="M203.82,198.39c5.46,10,8.1,19.14,5.9,20.34s-8.42-6-13.89-16-8.1-19.15-5.89-20.35S198.36,188.35,203.82,198.39Z" transform="translate(-3 -13.82)"/><polygon class="cls-6" points="146.23 216.64 149.73 215.25 147.2 211.21 144.64 213.07 146.23 216.64"/><polygon class="cls-6" points="166.91 214.24 157.75 221.09 156.38 218.83 166.91 214.24"/><polygon class="cls-6" points="147.2 211.21 149.73 215.25 149.01 215.54 146.9 211.43 147.2 211.21"/><path class="cls-6" d="M152.74,225.81a20.23,20.23,0,0,0,3.88-1.85,20,20,0,0,0,3.65-2.25,19.9,19.9,0,0,0-3.87,1.85A20.36,20.36,0,0,0,152.74,225.81Z" transform="translate(-3 -13.82)"/><path class="cls-6" d="M151.46,223.38a16.75,16.75,0,0,0,3.49-1.79,17.14,17.14,0,0,0,3.27-2.19,17.29,17.29,0,0,0-3.5,1.79A16.47,16.47,0,0,0,151.46,223.38Z" transform="translate(-3 -13.82)"/><path class="cls-6" d="M154.33,228.34c0,.06.44-.07,1.1-.33l1.16-.48c.43-.2.87-.46,1.34-.72a15.93,15.93,0,0,0,3.27-2.16,18.16,18.16,0,0,0-3.49,1.76c-.47.25-.9.53-1.32.74s-.78.39-1.09.56C154.68,228,154.31,228.28,154.33,228.34Z" transform="translate(-3 -13.82)"/><path class="cls-6" d="M194.09,196.79s5.1-3.72,8.57,3.3-2.08,8.62-2.08,8.62A48,48,0,0,1,194.09,196.79Z" transform="translate(-3 -13.82)"/><path class="cls-5" d="M187.75,188.59a8,8,0,0,0,.31,1.37c.24.87.57,2.14,1,3.69.29.76.6,1.58.93,2.47l.52,1.38.27.72c.1.24.22.48.34.72l1.44,3c.12.27.25.53.38.8s.29.52.43.78c.31.52.61,1,.92,1.58l.92,1.58c.16.26.29.53.46.77l.51.72c.66,1,1.31,1.88,1.92,2.76.15.21.3.44.46.64l.49.6.94,1.13,1.7,2c1.11,1.16,2,2.08,2.68,2.71a8.29,8.29,0,0,0,1,.95,8.6,8.6,0,0,0-.91-1.07L202,215.14l-1.64-2L199.4,212l-.48-.6c-.16-.2-.3-.43-.45-.65L196.58,208l-.49-.72c-.17-.24-.3-.5-.46-.76l-.91-1.57-.91-1.57c-.15-.26-.31-.51-.44-.77s-.25-.53-.38-.79c-.5-1-1-2-1.46-3-.11-.24-.23-.47-.33-.71s-.19-.48-.29-.71l-.53-1.37-1-2.44c-.49-1.52-.88-2.75-1.17-3.63A9.22,9.22,0,0,0,187.75,188.59Z" transform="translate(-3 -13.82)"/><path class="cls-10" d="M174,230.75a1.58,1.58,0,0,1,1.08,1.9c-.4,1.57-1.05,4-1.57,5.56a3.79,3.79,0,0,1-.7,1.37,1.29,1.29,0,0,1-2.35-.67,4,4,0,0,1,.13-1.61c.33-1.47.93-3.68,1.45-5.48a1.57,1.57,0,0,1,2-1.07Z" transform="translate(-3 -13.82)"/><path class="cls-10" d="M176.49,233.31a1.58,1.58,0,0,1,1.08,1.9c-.4,1.57-1,4-1.57,5.56a4,4,0,0,1-.7,1.37,1.29,1.29,0,0,1-2.35-.67,4,4,0,0,1,.13-1.61c.33-1.47.92-3.68,1.44-5.48a1.58,1.58,0,0,1,2-1.07Z" transform="translate(-3 -13.82)"/><path class="cls-10" d="M178.91,234.84a1.38,1.38,0,0,1,.94,1.65c-.35,1.36-.91,3.51-1.37,4.82a3.22,3.22,0,0,1-.6,1.18,1.26,1.26,0,0,1-1.19.46,1.3,1.3,0,0,1-.85-1,3.69,3.69,0,0,1,.12-1.4c.28-1.28.8-3.19,1.25-4.75a1.37,1.37,0,0,1,1.7-.93Z" transform="translate(-3 -13.82)"/><path class="cls-10" d="M181.66,235.15a1.38,1.38,0,0,1,.94,1.66c-.35,1.37-.91,3.52-1.37,4.84a3.71,3.71,0,0,1-.6,1.19,1.28,1.28,0,0,1-1.2.46,1.26,1.26,0,0,1-.85-1,3.56,3.56,0,0,1,.11-1.41c.29-1.27.81-3.19,1.26-4.76a1.38,1.38,0,0,1,1.71-.94Z" transform="translate(-3 -13.82)"/><path class="cls-14" d="M173.1,239.61a18.86,18.86,0,0,1,1.83-5.78,9.88,9.88,0,0,1-.69,3A9.53,9.53,0,0,1,173.1,239.61Z" transform="translate(-3 -13.82)"/><path class="cls-14" d="M178.32,241.71a12.35,12.35,0,0,1,.75-2.94,12.71,12.71,0,0,1,1-2.88,13,13,0,0,1-1.73,5.82Z" transform="translate(-3 -13.82)"/><path class="cls-14" d="M175.74,241.38a12.62,12.62,0,0,1,.74-2.95,12.44,12.44,0,0,1,1-2.88,8,8,0,0,1-.52,3A8.16,8.16,0,0,1,175.74,241.38Z" transform="translate(-3 -13.82)"/><path class="cls-5" d="M222.81,163c.11.08-3.69,5.24-8.49,11.53s-8.76,11.31-8.86,11.23,3.69-5.24,8.48-11.53S222.7,162.94,222.81,163Z" transform="translate(-3 -13.82)"/><path class="cls-5" d="M247.67,177.73c.06.12-7.93,4-17.84,8.54s-18,8.24-18.05,8.12,7.93-3.95,17.85-8.55S247.62,177.61,247.67,177.73Z" transform="translate(-3 -13.82)"/><path class="cls-5" d="M244,208.33c0,.13-5.71-.31-12.72-1s-12.68-1.33-12.67-1.46,5.71.31,12.72,1S244,208.19,244,208.33Z" transform="translate(-3 -13.82)"/><path class="cls-10" d="M97.88,225.49l6.29,35.77a11.78,11.78,0,0,0,13.26,9.52h0a11.64,11.64,0,0,0,10-13.38l-1-6.16s8.81-2.39,7.89-11.22c-.45-4.26-2.08-13-3.65-20.81A16.87,16.87,0,0,0,111.37,206h0A16.46,16.46,0,0,0,97.88,225.49Z" transform="translate(-3 -13.82)"/><path class="cls-14" d="M126.43,251.26a21.29,21.29,0,0,1-12.06-1.95s3.5,6,12.35,4.23Z" transform="translate(-3 -13.82)"/><path class="cls-5" d="M128.73,225.17a1.26,1.26,0,0,1-1.08,1.41,1.22,1.22,0,0,1-1.45-1,1.27,1.27,0,0,1,1.08-1.41A1.23,1.23,0,0,1,128.73,225.17Z" transform="translate(-3 -13.82)"/><path class="cls-5" d="M129,223c-.14.18-1.19-.41-2.57-.25s-2.31.95-2.48.8,0-.38.45-.75a3.57,3.57,0,0,1,2-.84,3.39,3.39,0,0,1,2.07.41C128.92,222.67,129.1,223,129,223Z" transform="translate(-3 -13.82)"/><path class="cls-5" d="M115.78,226.73a1.27,1.27,0,0,1-1.08,1.41,1.22,1.22,0,0,1-1.45-1,1.27,1.27,0,0,1,1.08-1.42A1.24,1.24,0,0,1,115.78,226.73Z" transform="translate(-3 -13.82)"/><path class="cls-5" d="M115.73,224.82c-.14.18-1.2-.42-2.57-.26s-2.31.95-2.48.8,0-.38.45-.74a3.57,3.57,0,0,1,2-.85,3.48,3.48,0,0,1,2.07.41C115.62,224.45,115.79,224.73,115.73,224.82Z" transform="translate(-3 -13.82)"/><path class="cls-5" d="M121.89,235.12a9.85,9.85,0,0,1,2.19-.65c.35-.07.68-.18.71-.42a1.77,1.77,0,0,0-.36-1c-.42-.8-.87-1.64-1.34-2.52-1.89-3.59-3.29-6.56-3.14-6.64a46.9,46.9,0,0,1,3.67,6.37c.46.89.89,1.74,1.31,2.54a2,2,0,0,1,.34,1.34.87.87,0,0,1-.52.57,2.22,2.22,0,0,1-.59.15A8.53,8.53,0,0,1,121.89,235.12Z" transform="translate(-3 -13.82)"/><path class="cls-5" d="M118,236.52c.22,0,.4,1.43,1.8,2.33s3,.56,3,.77-.32.32-1,.42a3.87,3.87,0,0,1-2.51-.56,3.22,3.22,0,0,1-1.41-2C117.72,236.91,117.85,236.52,118,236.52Z" transform="translate(-3 -13.82)"/><path class="cls-5" d="M115.46,220.28c-.09.38-1.49.36-3.08.74s-2.85.95-3.1.64c-.12-.14.07-.52.56-.93a5.27,5.27,0,0,1,2.23-1.07,5.4,5.4,0,0,1,2.48,0C115.17,219.84,115.5,220.09,115.46,220.28Z" transform="translate(-3 -13.82)"/><path class="cls-5" d="M128.27,220c-.21.33-1.2.12-2.34.24s-2.08.44-2.34.14c-.12-.14,0-.47.39-.81a3.43,3.43,0,0,1,3.77-.31C128.19,219.51,128.35,219.82,128.27,220Z" transform="translate(-3 -13.82)"/><path class="cls-5" d="M130.69,204.1a3.11,3.11,0,0,0-4.06.25,2.81,2.81,0,0,0-.79-3.7,4.76,4.76,0,0,0-4-.59,14.06,14.06,0,0,0-3.79,1.86,1.43,1.43,0,0,0-.62-1.44,3.38,3.38,0,0,0-1.59-.5,12.12,12.12,0,0,0-6.68,1.5,41.85,41.85,0,0,0-6.19,4.2h0a29.27,29.27,0,0,0-5.65,6l-.07.06C95.9,213,94.8,216.47,95,218.2c.73,6.36,2.83,10,4,16.06a2.22,2.22,0,0,0,.45,1.12c.74.76,2.06.12,2.75-.68a11.41,11.41,0,0,0,2.35-7.16c.08-2.56-.28-5.11-.22-7.67v-.18a13.39,13.39,0,0,1,.19-1.95c.11-.42,1.19-4.07,4.71-4.67,3.72-.63,11.07,3,14.71,2.41s3.83-3.15,3.83-3.15l2.14,4.36a13.19,13.19,0,0,0,.35-5.44,6.14,6.14,0,0,0,1.8-3.18A4.07,4.07,0,0,0,130.69,204.1Z" transform="translate(-3 -13.82)"/><path class="cls-10" d="M101.38,229.29c-.16,0-6.36-1.1-5.47,4.91s6.85,3.88,6.83,3.71S101.38,229.29,101.38,229.29Z" transform="translate(-3 -13.82)"/><path class="cls-14" d="M100.54,235.9s-.1.09-.27.2a1.1,1.1,0,0,1-.79.13,2.62,2.62,0,0,1-1.56-2.15,3.43,3.43,0,0,1,.07-1.54,1.2,1.2,0,0,1,.68-.92.55.55,0,0,1,.67.2c.11.15.08.28.12.28s.11-.12,0-.36a.78.78,0,0,0-.3-.34.89.89,0,0,0-.61-.07,1.5,1.5,0,0,0-1,1.1,3.54,3.54,0,0,0-.12,1.73,2.77,2.77,0,0,0,1.94,2.37,1.18,1.18,0,0,0,.95-.3C100.55,236.05,100.56,235.91,100.54,235.9Z" transform="translate(-3 -13.82)"/><path class="cls-7" d="M87.67,272.83a1.06,1.06,0,0,1,.53-.09,2.11,2.11,0,0,1,1.37.68,3,3,0,0,1,.8,2.28,13,13,0,0,1-.7,3.12,4.27,4.27,0,0,0,.2,3.57c.66,1.14,2,2,2.56,3.63a4.29,4.29,0,0,1-3.85,5.62,9.22,9.22,0,0,1-2.68-.43,4.76,4.76,0,0,0-2.49-.16,3.65,3.65,0,0,0-1.85,1.5,13.45,13.45,0,0,1-1.58,2,3.16,3.16,0,0,1-2.34.86,4.71,4.71,0,0,1-3.7-2.46,9.07,9.07,0,0,1-.94-3.78c-.07-1.18,0-2.25,0-3.18a15,15,0,0,0-.21-2.36,13,13,0,0,0-.56-1.95,2,2,0,0,1,.27.46,7.34,7.34,0,0,1,.48,1.45,14.45,14.45,0,0,1,.29,2.39c0,.94,0,2,.12,3.17a8.91,8.91,0,0,0,1,3.61,4.27,4.27,0,0,0,3.37,2.2,2.7,2.7,0,0,0,2-.75,13.08,13.08,0,0,0,1.51-1.92,4.09,4.09,0,0,1,2.09-1.68,5.33,5.33,0,0,1,2.75.15,8.94,8.94,0,0,0,2.54.42,3.89,3.89,0,0,0,2.23-.86A3.85,3.85,0,0,0,92,286.15c-.46-1.41-1.76-2.31-2.48-3.56a3.77,3.77,0,0,1-.53-2,7.15,7.15,0,0,1,.34-1.85,13.34,13.34,0,0,0,.76-3,2.81,2.81,0,0,0-.67-2.14,2,2,0,0,0-1.24-.71A5.13,5.13,0,0,0,87.67,272.83Z" transform="translate(-3 -13.82)"/><path class="cls-7" d="M90.22,337.68s.06.22.28.57a2.49,2.49,0,0,0,1.44,1,2.89,2.89,0,0,0,2.64-.56,5.55,5.55,0,0,0,1.78-3.24c.29-1.38.24-3,.5-4.65a7.59,7.59,0,0,1,.86-2.53,4.24,4.24,0,0,1,2.13-1.91,6.1,6.1,0,0,1,3-.27c1,.11,2,.33,3,.46a7.16,7.16,0,0,0,3-.14,6.8,6.8,0,0,0,2.71-1.51,5.83,5.83,0,0,0,1.67-2.58,4.9,4.9,0,0,0-.06-3,5.09,5.09,0,0,0-4-3.58c-1.81-.2-3.52.69-5.27.73a5,5,0,0,1-2.44-.55,12,12,0,0,1-1.92-1.23,11.92,11.92,0,0,0-3.25-2,3.37,3.37,0,0,0-2.74.18,2.48,2.48,0,0,0-1.18,1.29c-.14.39-.12.62-.15.62a1.41,1.41,0,0,1,0-.65,2.51,2.51,0,0,1,1.19-1.42,3.28,3.28,0,0,1,1.29-.44,3.83,3.83,0,0,1,1.62.17,11.81,11.81,0,0,1,3.37,2,6.55,6.55,0,0,0,4.15,1.66,13.22,13.22,0,0,0,2.52-.47,8.13,8.13,0,0,1,2.82-.3,5.53,5.53,0,0,1,4.42,3.88,5.42,5.42,0,0,1,.07,3.24,6.45,6.45,0,0,1-1.8,2.8,7.34,7.34,0,0,1-2.91,1.61,7.6,7.6,0,0,1-3.21.15c-1-.14-2-.36-3-.47a5.66,5.66,0,0,0-2.76.22,3.82,3.82,0,0,0-1.92,1.71,7,7,0,0,0-.83,2.39c-.28,1.63-.25,3.23-.57,4.65a5.75,5.75,0,0,1-1.94,3.38,3.07,3.07,0,0,1-2.86.53,2.51,2.51,0,0,1-1.47-1.13A1.53,1.53,0,0,1,90.22,337.68Z" transform="translate(-3 -13.82)"/><path class="cls-7" d="M121.7,281.54a3.43,3.43,0,0,1,.64-.87,4.9,4.9,0,0,1,2.74-1.39,4.8,4.8,0,0,1,4.43,1.76,5.16,5.16,0,0,1,1.12,2.87,7.62,7.62,0,0,0,.7,3.22,2.5,2.5,0,0,0,1.36,1,6.74,6.74,0,0,0,1.83.28c.65,0,1.32,0,2,.11a3.72,3.72,0,0,1,2,.71,2.61,2.61,0,0,1,.71.9,2.55,2.55,0,0,1,.18,1.16,3.81,3.81,0,0,1-1,2.09,5.76,5.76,0,0,1-1.85,1.46c-.7.35-1.43.64-2.14,1a7.36,7.36,0,0,0-2,1.21,3.88,3.88,0,0,0-1.16,2c-.38,1.56,0,3.24-.11,5a6.52,6.52,0,0,1-.71,2.59,3,3,0,0,1-2.2,1.65,3.43,3.43,0,0,1-2.66-.87,8.55,8.55,0,0,1-1.77-2.16,22.56,22.56,0,0,0-1.43-2.28,4.18,4.18,0,0,0-2-1.53,3.58,3.58,0,0,0-2.43.15,13.58,13.58,0,0,0-2.25,1.21,13.66,13.66,0,0,1-2.31,1.2,7.17,7.17,0,0,1-2.54.42,8,8,0,0,1-4.64-1.63,6.6,6.6,0,0,1-2.54-3.92,4.53,4.53,0,0,1,1.1-4.23,4.39,4.39,0,0,1,1.91-1,18,18,0,0,1,2-.34,6.44,6.44,0,0,0,3.41-1.16,6.8,6.8,0,0,0,1.82-2.75c.39-1,.66-2,1-2.87a8.53,8.53,0,0,1,1.25-2.36,10.62,10.62,0,0,1,1.62-1.56,5.66,5.66,0,0,1,2.77-1.34,1.24,1.24,0,0,1,1,.29,1.62,1.62,0,0,0-1-.19,5.76,5.76,0,0,0-2.66,1.39,10.34,10.34,0,0,0-1.56,1.55,8.4,8.4,0,0,0-1.17,2.32c-.32.88-.58,1.87-1,2.89a7.11,7.11,0,0,1-1.88,2.9,6.84,6.84,0,0,1-3.58,1.26,6.46,6.46,0,0,0-3.67,1.25,4.13,4.13,0,0,0-1,3.86,6.23,6.23,0,0,0,2.4,3.65,7.58,7.58,0,0,0,4.38,1.52,6.64,6.64,0,0,0,2.37-.4,11.83,11.83,0,0,0,2.22-1.17,15.16,15.16,0,0,1,2.33-1.24,4,4,0,0,1,2.75-.17,4.64,4.64,0,0,1,2.2,1.7,21,21,0,0,1,1.47,2.32,7.65,7.65,0,0,0,1.66,2,2.9,2.9,0,0,0,2.27.78,2.57,2.57,0,0,0,1.86-1.41,6.06,6.06,0,0,0,.66-2.4c.09-1.66-.28-3.39.13-5.08a4.34,4.34,0,0,1,1.3-2.2,7.93,7.93,0,0,1,2.1-1.29c.73-.33,1.45-.61,2.13-1a5.36,5.36,0,0,0,1.71-1.34,3.39,3.39,0,0,0,.88-1.86,1.93,1.93,0,0,0-.15-.95,2.08,2.08,0,0,0-.58-.76,3.42,3.42,0,0,0-1.82-.64c-.66-.07-1.33-.08-2-.11a7.42,7.42,0,0,1-1.93-.32,2.81,2.81,0,0,1-1.52-1.16,7.71,7.71,0,0,1-.73-3.38,4.81,4.81,0,0,0-1-2.73,4.57,4.57,0,0,0-4.19-1.74,5,5,0,0,0-2.7,1.27A7.09,7.09,0,0,0,121.7,281.54Z" transform="translate(-3 -13.82)"/><path class="cls-7" d="M106.1,265.9a3.27,3.27,0,0,1-1.92.94,6.38,6.38,0,0,1-2.36,0,4.14,4.14,0,0,1-2.53-1.45,5.51,5.51,0,0,1-.91-2.76,7.44,7.44,0,0,1,.17-2.34,3.12,3.12,0,0,1,1-1.9,8.89,8.89,0,0,0-.65,2,8.49,8.49,0,0,0-.06,2.23,5.46,5.46,0,0,0,.86,2.52,3.81,3.81,0,0,0,2.23,1.3,6.22,6.22,0,0,0,2.21.08A9.69,9.69,0,0,0,106.1,265.9Z" transform="translate(-3 -13.82)"/><path class="cls-7" d="M146,263.53s0,.09-.06.26a2.73,2.73,0,0,1-.37.66,4.05,4.05,0,0,1-2.3,1.54,4.11,4.11,0,0,1-1.95,0,5.2,5.2,0,0,1-2-1,6.59,6.59,0,0,0-2-1.2,1.76,1.76,0,0,0-2,.78,17.07,17.07,0,0,0-1.14,2.26,4.67,4.67,0,0,1-1.64,1.87,4.45,4.45,0,0,1-4.06.44,4.39,4.39,0,0,1-2.12-1.78,2,2,0,0,1-.38-.94s.16.33.53.84a4.51,4.51,0,0,0,2.1,1.56,4.11,4.11,0,0,0,3.69-.5,4.18,4.18,0,0,0,1.45-1.7,16.48,16.48,0,0,1,1.18-2.33,2.43,2.43,0,0,1,1.1-.9,2.21,2.21,0,0,1,1.39-.05,6.72,6.72,0,0,1,2.1,1.29,4.8,4.8,0,0,0,1.79,1,3.83,3.83,0,0,0,1.78,0,4.08,4.08,0,0,0,2.24-1.32C145.82,263.85,146,263.51,146,263.53Z" transform="translate(-3 -13.82)"/><path class="cls-7" d="M152.6,299.91a5,5,0,0,1-1-.67A21.48,21.48,0,0,1,149,297a11.75,11.75,0,0,1-1.47-1.82,6.13,6.13,0,0,1-.92-2.54,5,5,0,0,1,.47-3,3.92,3.92,0,0,1,1-1.25,11.58,11.58,0,0,1,1.36-.87,5.78,5.78,0,0,0,1.24-.89,3,3,0,0,0,.71-1.22,7,7,0,0,0,.09-2.8,13.65,13.65,0,0,1-.19-2.67,3.23,3.23,0,0,1,.86-2.22,4.92,4.92,0,0,1,3.12-1.25c.84,0,1.18.43,1.15.43a2.1,2.1,0,0,0-1.15-.24,4.86,4.86,0,0,0-2.88,1.31,2.83,2.83,0,0,0-.7,2,14.21,14.21,0,0,0,.23,2.59,7.4,7.4,0,0,1-.08,3,3.33,3.33,0,0,1-.82,1.43,6.56,6.56,0,0,1-1.33,1,4.91,4.91,0,0,0-2.24,1.92,4.58,4.58,0,0,0-.45,2.7,7.47,7.47,0,0,0,2.2,4.19C151.2,298.84,152.66,299.84,152.6,299.91Z" transform="translate(-3 -13.82)"/><path class="cls-7" d="M133.22,318.29a1.21,1.21,0,0,1,.43,0c.29,0,.71,0,1.24.07a12.08,12.08,0,0,1,4.39,1.28,8,8,0,0,1,4.16,5.26,5.59,5.59,0,0,1-.58,4,5.45,5.45,0,0,1-3.48,2.61,4.85,4.85,0,0,1-2.25-.13,3.11,3.11,0,0,0-1.93,0,3.61,3.61,0,0,0-1.5,1.15,10.38,10.38,0,0,0-1,1.6,6.29,6.29,0,0,1-2.42,2.76,4.55,4.55,0,0,1-3.18.38,4,4,0,0,1-2.21-1.44A4.35,4.35,0,0,1,124,334a3.53,3.53,0,0,1-.07-1.25c0-.29.08-.43.1-.43a5.55,5.55,0,0,0,.15,1.63,4.41,4.41,0,0,0,.88,1.68,3.83,3.83,0,0,0,2.08,1.28,4.26,4.26,0,0,0,2.91-.4,5.92,5.92,0,0,0,2.22-2.62,5.91,5.91,0,0,1,2.75-3,3.48,3.48,0,0,1,2.21,0,4.41,4.41,0,0,0,2,.11,4.94,4.94,0,0,0,3.17-2.36A5.18,5.18,0,0,0,143,325a7.75,7.75,0,0,0-3.88-5,12.67,12.67,0,0,0-4.25-1.39C133.81,318.35,133.22,318.33,133.22,318.29Z" transform="translate(-3 -13.82)"/><path class="cls-7" d="M115.87,348.9A6,6,0,0,0,115,347a4.59,4.59,0,0,0-1.73-1.4,3.88,3.88,0,0,0-2.64-.29,4,4,0,0,0-2.14,1.57,4.56,4.56,0,0,0-.79,2.08,6.26,6.26,0,0,0,.2,2.09s-.15-.16-.3-.51a3.71,3.71,0,0,1-.24-1.61,4.62,4.62,0,0,1,.77-2.3,4,4,0,0,1,5.34-1.43,4.63,4.63,0,0,1,1.81,1.6,3.75,3.75,0,0,1,.6,1.51C115.93,348.68,115.9,348.9,115.87,348.9Z" transform="translate(-3 -13.82)"/><path class="cls-7" d="M118.84,362.38a11.64,11.64,0,0,0-.41-1.14,4.92,4.92,0,0,0-2.22-2.28,4.61,4.61,0,0,0-4.52.34,7.17,7.17,0,0,0-1.87,2.11,6.62,6.62,0,0,1-1.06,1.21,2.51,2.51,0,0,1-1.62.6,4,4,0,0,1-2.78-1.67,9.24,9.24,0,0,0-2-2.06,3.48,3.48,0,0,0-2.4-.43,4.84,4.84,0,0,0-2,.85,8.29,8.29,0,0,0-2.14,2.45,10.22,10.22,0,0,1-.63,1.05,4.17,4.17,0,0,1,.47-1.14,7.71,7.71,0,0,1,2.1-2.64,5,5,0,0,1,2.16-1,3.79,3.79,0,0,1,2.7.45,9.35,9.35,0,0,1,2.09,2.12,3.6,3.6,0,0,0,2.43,1.49,3,3,0,0,0,2.28-1.59,7.61,7.61,0,0,1,2-2.21,4.89,4.89,0,0,1,4.92-.27,4.84,4.84,0,0,1,2.24,2.51,4.3,4.3,0,0,1,.24.89C118.86,362.27,118.86,362.38,118.84,362.38Z" transform="translate(-3 -13.82)"/><path class="cls-7" d="M126,328.76a11,11,0,0,0-2.66-1.17,8.26,8.26,0,0,0-3.12-.17,7.46,7.46,0,0,0-3.52,1.37,6.31,6.31,0,0,0-2.22,3,6.53,6.53,0,0,0-.34,3.07,8.69,8.69,0,0,0,1,2.73s-.23-.18-.52-.62a5.61,5.61,0,0,1-.8-2.05,6.72,6.72,0,0,1,2.61-6.53,7.67,7.67,0,0,1,3.76-1.42,8.22,8.22,0,0,1,3.26.28,6.51,6.51,0,0,1,2,.95C125.78,328.53,126,328.74,126,328.76Z" transform="translate(-3 -13.82)"/></svg>