<svg id="Layer_1" data-name="Layer 1" xmlns="http://www.w3.org/2000/svg" viewBox="0 0 404.7 406.97"><defs><style>.cls-1{fill:#ebebeb;}.cls-2{fill:#fff;}.cls-3{fill:#e0e0e0;}.cls-4{fill:#f5f5f5;}.cls-5{fill:#fafafa;}.cls-6{fill:#455a64;}.cls-7{fill:#263238;}.cls-8{fill:#ff735d;}.cls-9{opacity:0.3;}.cls-10{fill:#ffbe9d;}.cls-11{fill:#eb996e;}</style></defs><rect class="cls-1" x="17.49" y="269.8" width="37.72" height="37.72" rx="4.47"/><path class="cls-2" d="M131.23,304.78l-.71-.59,7.63-9.06a2.67,2.67,0,0,1,3.66-.65l4.57,3,5.36-6.76a2.66,2.66,0,0,1,2-1,2.63,2.63,0,0,1,2.08.86l6.53,7.05-.68.63-6.53-7.05a1.76,1.76,0,0,0-2.68.1l-5.88,7.43-5.28-3.52a1.76,1.76,0,0,0-2.42.44Z" transform="translate(-110.1 -5)"/><path class="cls-2" d="M146.44,284.59a3.37,3.37,0,1,1-3.37-3.37A3.37,3.37,0,0,1,146.44,284.59Z" transform="translate(-110.1 -5)"/><path class="cls-1" d="M514.59,166.3a13.7,13.7,0,0,1-.36-3.12,24.82,24.82,0,0,0-.41-3.75,36.71,36.71,0,0,0-1-5,47.27,47.27,0,0,0-5.23-13,48.7,48.7,0,0,0-12.06-13.89,48,48,0,0,0-45.28-7.78A45.06,45.06,0,0,0,438,126a53,53,0,0,0-5.52,4.48,54.34,54.34,0,0,0-4.81,5.44,47.64,47.64,0,0,0-1.38,56.49,54.34,54.34,0,0,0,4.54,5.66,55.26,55.26,0,0,0,5.31,4.76,44.7,44.7,0,0,0,11.93,6.83,48.43,48.43,0,0,0,58.32-18.86,46.93,46.93,0,0,0,5.85-12.69,36.7,36.7,0,0,0,1.23-5,25.17,25.17,0,0,0,.6-3.72,13.26,13.26,0,0,1,.51-3.11,14.33,14.33,0,0,1,0,3.15,22.26,22.26,0,0,1-.35,3.81,35.55,35.55,0,0,1-1,5.14,46.6,46.6,0,0,1-5.59,13.21,49.8,49.8,0,0,1-34.13,23.07A50.32,50.32,0,0,1,447.17,212a47.24,47.24,0,0,1-12.61-7.12,57.09,57.09,0,0,1-5.61-5,56,56,0,0,1-4.82-6,50.07,50.07,0,0,1,1.45-59.62,56.74,56.74,0,0,1,5.1-5.71,55.21,55.21,0,0,1,5.85-4.7,47.08,47.08,0,0,1,12.94-6.5A50.25,50.25,0,0,1,475.94,116a49.79,49.79,0,0,1,33,24.69,46.35,46.35,0,0,1,4.95,13.48,34,34,0,0,1,.75,5.18,22.08,22.08,0,0,1,.17,3.82A14.25,14.25,0,0,1,514.59,166.3Z" transform="translate(-110.1 -5)"/><path class="cls-1" d="M504.76,135.61c.11.15-.78.92-2.49,2.2l-3.16,2.27c-.63.42-1.28.91-2,1.37l-2.42,1.26A55.37,55.37,0,0,1,465.8,150l-4.37-.19-4.2-.66c-.68-.11-1.37-.2-2-.34l-1.95-.52c-1.29-.36-2.57-.66-3.78-1.05a63.19,63.19,0,0,1-12.25-5.65c-6.59-4-9.79-7.6-9.54-7.83s3.84,2.73,10.47,6.17a74.69,74.69,0,0,0,12.06,4.94c1.18.34,2.41.59,3.65.91l1.88.47,1.95.3,4,.59,4.17.16a59.76,59.76,0,0,0,28-6.28l2.45-1.06c.75-.39,1.42-.81,2.07-1.17l3.36-1.84C503.56,135.94,504.65,135.46,504.76,135.61Z" transform="translate(-110.1 -5)"/><path class="cls-1" d="M426.17,195.34c-.11-.15.78-.92,2.49-2.2l3.16-2.26c.63-.43,1.28-.92,2-1.38l2.42-1.26A55.4,55.4,0,0,1,465.13,181l4.37.19,4.2.66c.69.11,1.37.21,2,.34l2,.52c1.28.36,2.56.66,3.77,1a63.31,63.31,0,0,1,12.26,5.65c6.58,4,9.78,7.6,9.53,7.83s-3.84-2.73-10.47-6.17a73.09,73.09,0,0,0-12.06-4.93c-1.18-.34-2.41-.6-3.65-.92l-1.88-.47-1.95-.29-4-.59-4.17-.17a59.79,59.79,0,0,0-28,6.28L434.66,191c-.74.39-1.42.81-2.07,1.17L429.24,194C427.37,195,426.28,195.49,426.17,195.34Z" transform="translate(-110.1 -5)"/><path class="cls-1" d="M514.56,167.44c0,.75-22,.82-49.14.16s-49.1-1.8-49.09-2.54,22-.82,49.15-.16S514.58,166.7,514.56,167.44Z" transform="translate(-110.1 -5)"/><path class="cls-1" d="M463.18,214.18c-.74,0-.81-22-.15-49.13S464.82,116,465.57,116s.81,22,.16,49.13S463.93,214.2,463.18,214.18Z" transform="translate(-110.1 -5)"/><path class="cls-1" d="M463.18,214.1c-.18.29-5.59-3.38-11.84-11.69a65.89,65.89,0,0,1-8.78-15.94,59.3,59.3,0,0,1-3.8-22,56.39,56.39,0,0,1,5-21.79,68.33,68.33,0,0,1,9.59-15.45c6.62-8,12.07-11.53,12.26-11.25s-4.68,4.33-10.75,12.43A73.74,73.74,0,0,0,446,143.66a56.7,56.7,0,0,0-4.54,20.85,60,60,0,0,0,3.44,21.11,71.14,71.14,0,0,0,8,15.69C458.59,209.68,463.46,213.81,463.18,214.1Z" transform="translate(-110.1 -5)"/><path class="cls-1" d="M466.67,116c.18-.29,5.59,3.38,11.84,11.69a66.08,66.08,0,0,1,8.78,15.94,59.1,59.1,0,0,1,3.8,22,56.21,56.21,0,0,1-5,21.79,68.33,68.33,0,0,1-9.59,15.45c-6.62,8-12.07,11.54-12.26,11.25S469,209.8,475,201.7a73.29,73.29,0,0,0,8.82-15.26,56.5,56.5,0,0,0,4.54-20.85,59.63,59.63,0,0,0-3.44-21.1,71,71,0,0,0-8-15.7C471.27,120.42,466.39,116.3,466.67,116Z" transform="translate(-110.1 -5)"/><path class="cls-3" d="M480.9,25.51H437.05a2.22,2.22,0,0,1-2.22-2.21h0a2.23,2.23,0,0,1,2.22-2.22H480.9a2.23,2.23,0,0,1,2.22,2.22h0A2.22,2.22,0,0,1,480.9,25.51Z" transform="translate(-110.1 -5)"/><path class="cls-3" d="M480.9,35.39H437.05a2.22,2.22,0,0,1-2.22-2.21h0A2.22,2.22,0,0,1,437.05,31H480.9a2.22,2.22,0,0,1,2.22,2.22h0A2.22,2.22,0,0,1,480.9,35.39Z" transform="translate(-110.1 -5)"/><path class="cls-3" d="M480.9,45.27H437.05a2.22,2.22,0,0,1-2.22-2.21h0a2.22,2.22,0,0,1,2.22-2.22H480.9a2.22,2.22,0,0,1,2.22,2.22h0A2.22,2.22,0,0,1,480.9,45.27Z" transform="translate(-110.1 -5)"/><path class="cls-4" d="M485.82,261.14H444a2.12,2.12,0,0,1-2.11-2.11h0a2.12,2.12,0,0,1,2.11-2.12h41.84a2.12,2.12,0,0,1,2.12,2.12h0A2.12,2.12,0,0,1,485.82,261.14Z" transform="translate(-110.1 -5)"/><path class="cls-4" d="M485.82,270.56H444a2.11,2.11,0,0,1-2.11-2.11h0a2.11,2.11,0,0,1,2.11-2.11h41.84a2.11,2.11,0,0,1,2.12,2.11h0A2.11,2.11,0,0,1,485.82,270.56Z" transform="translate(-110.1 -5)"/><path class="cls-4" d="M485.82,280H444a2.12,2.12,0,0,1-2.11-2.11h0a2.12,2.12,0,0,1,2.11-2.12h41.84a2.12,2.12,0,0,1,2.12,2.12h0A2.12,2.12,0,0,1,485.82,280Z" transform="translate(-110.1 -5)"/><path class="cls-1" d="M147.39,41.77a13.78,13.78,0,1,0-25.65,7h0l0,.05c.53.9,1.19,1.53,1.86,2.47l8,10.59a2.49,2.49,0,0,0,4,0l7.86-10.42a29.17,29.17,0,0,0,2-2.65l0,0h0A13.67,13.67,0,0,0,147.39,41.77Zm-13.78,6a6.07,6.07,0,1,1,6.06-6.06A6.06,6.06,0,0,1,133.61,47.77Z" transform="translate(-110.1 -5)"/><path class="cls-1" d="M150.56,346.58s-10.55,8-.45,18.64a1,1,0,0,0,.67.29l92.11-.54s7.87-8.82,1.34-19Z" transform="translate(-110.1 -5)"/><path class="cls-3" d="M222.53,355c0,.11-11.47.19-25.61.19s-25.62-.08-25.62-.19,11.47-.18,25.62-.18S222.53,354.86,222.53,355Z" transform="translate(-110.1 -5)"/><path class="cls-3" d="M208.21,358.29c0,.11-5.39.19-12.05.19s-12-.08-12-.19,5.39-.18,12-.18S208.21,358.19,208.21,358.29Z" transform="translate(-110.1 -5)"/><path class="cls-3" d="M232,364.67c-.06,0,.2-1.05.49-2.76a38.19,38.19,0,0,0-.13-13.43c-.31-1.7-.6-2.74-.54-2.75a2.54,2.54,0,0,1,.27.7c.15.47.34,1.15.53,2a32,32,0,0,1,.77,6.76,32.71,32.71,0,0,1-.64,6.77c-.18.85-.35,1.53-.49,2A2.38,2.38,0,0,1,232,364.67Z" transform="translate(-110.1 -5)"/><path class="cls-3" d="M238.83,345.86a4.1,4.1,0,0,1,.41.67,9.21,9.21,0,0,1,.41.83c.14.33.32.7.47,1.13a18.88,18.88,0,0,1,.87,3.05,21.12,21.12,0,0,1,.4,3.88,22.36,22.36,0,0,1-.33,3.88,20.57,20.57,0,0,1-.83,3.07c-.14.43-.32.8-.45,1.14s-.28.6-.4.83a3.75,3.75,0,0,1-.4.67c-.06,0,.45-1,1-2.72a23.19,23.19,0,0,0,.74-3.05,23.87,23.87,0,0,0,.3-3.82,24.66,24.66,0,0,0-.36-3.81,24.09,24.09,0,0,0-.79-3C239.29,346.88,238.76,345.9,238.83,345.86Z" transform="translate(-110.1 -5)"/><path class="cls-3" d="M165.09,364.8a3.48,3.48,0,0,1-.43-.62,7.12,7.12,0,0,1-.43-.77,10.8,10.8,0,0,1-.49-1.06,15.11,15.11,0,0,1-.9-2.9,18.75,18.75,0,0,1-.36-3.71,19,19,0,0,1,.46-3.7,15.07,15.07,0,0,1,1-2.88,9.35,9.35,0,0,1,.52-1.05,5.45,5.45,0,0,1,.45-.76,2.93,2.93,0,0,1,.44-.6c.07,0-.53.93-1.17,2.51a19,19,0,0,0-.89,2.85,19.27,19.27,0,0,0-.41,3.63,19.73,19.73,0,0,0,.32,3.64,18.87,18.87,0,0,0,.8,2.88C164.59,363.85,165.15,364.76,165.09,364.8Z" transform="translate(-110.1 -5)"/><path class="cls-3" d="M155.14,367a3.66,3.66,0,0,1-.47-.7,7,7,0,0,1-.48-.86c-.17-.35-.38-.73-.56-1.19a19.75,19.75,0,0,1-1-3.25,20.63,20.63,0,0,1-.19-8.33,20.27,20.27,0,0,1,.91-3.3c.16-.46.35-.85.51-1.21a7.17,7.17,0,0,1,.44-.88,3.6,3.6,0,0,1,.44-.72c.07,0-.52,1.08-1.14,2.9a22.21,22.21,0,0,0-.82,3.27,21.75,21.75,0,0,0,.18,8.2,21.52,21.52,0,0,0,1,3.22C154.57,366,155.21,367,155.14,367Z" transform="translate(-110.1 -5)"/><path class="cls-1" d="M239.51,393v17.63h-34.1V393Z" transform="translate(-110.1 -5)"/><path class="cls-3" d="M129.36,402c0,.15,0,.31,0,.46a10.1,10.1,0,0,0,10.15,9.46H241.1v-1.27H217a8.81,8.81,0,0,1-8.81-8.82h0A8.81,8.81,0,0,1,217,393H241.1v-1.87l-101.61.34A10.17,10.17,0,0,0,129.36,402Z" transform="translate(-110.1 -5)"/><path class="cls-3" d="M239.51,402.07c0,.1-7,.18-15.66.18s-15.66-.08-15.66-.18,7-.19,15.66-.19S239.51,402,239.51,402.07Z" transform="translate(-110.1 -5)"/><path class="cls-3" d="M239,406c0,.1-6.64.19-14.82.19s-14.82-.09-14.82-.19,6.63-.19,14.82-.19S239,405.94,239,406Z" transform="translate(-110.1 -5)"/><path class="cls-3" d="M239.51,409.67c0,.11-6,.19-13.32.19s-13.33-.08-13.33-.19,6-.18,13.33-.18S239.51,409.57,239.51,409.67Z" transform="translate(-110.1 -5)"/><path class="cls-3" d="M239.51,398.5c0,.1-6.87.19-15.34.19s-15.34-.09-15.34-.19,6.87-.19,15.34-.19S239.51,398.4,239.51,398.5Z" transform="translate(-110.1 -5)"/><path class="cls-3" d="M239,394.93c0,.1-6.12.19-13.66.19s-13.65-.09-13.65-.19,6.11-.18,13.65-.18S239,394.83,239,394.93Z" transform="translate(-110.1 -5)"/><path class="cls-4" d="M141.67,391.79a20.31,20.31,0,0,0-2.16,2.56,13,13,0,0,0,.18,15.11A23.59,23.59,0,0,0,141.9,412a3.51,3.51,0,0,1-.73-.54,11.61,11.61,0,0,1-1.7-1.82,12.88,12.88,0,0,1-.18-15.41,11.36,11.36,0,0,1,1.66-1.86A2.77,2.77,0,0,1,141.67,391.79Z" transform="translate(-110.1 -5)"/><path class="cls-4" d="M138.23,391.41a23.44,23.44,0,0,0-2.16,2.57,13.08,13.08,0,0,0,.18,15.1,22.51,22.51,0,0,0,2.22,2.52,4.11,4.11,0,0,1-.73-.55,11.45,11.45,0,0,1-1.7-1.81,12.84,12.84,0,0,1-.18-15.41,11.43,11.43,0,0,1,1.65-1.86A3.57,3.57,0,0,1,138.23,391.41Z" transform="translate(-110.1 -5)"/><path class="cls-4" d="M207.25,391.79a22.6,22.6,0,0,0-2.16,2.56,13.09,13.09,0,0,0,.18,15.11,22.87,22.87,0,0,0,2.22,2.51,3.22,3.22,0,0,1-.73-.54,11.61,11.61,0,0,1-1.7-1.82,12.84,12.84,0,0,1-.18-15.41,11.88,11.88,0,0,1,1.65-1.86A3.23,3.23,0,0,1,207.25,391.79Z" transform="translate(-110.1 -5)"/><path class="cls-4" d="M203.82,391.41a21,21,0,0,0-2.16,2.57,13,13,0,0,0,.18,15.1,23.2,23.2,0,0,0,2.21,2.52,4.6,4.6,0,0,1-.73-.55,11.45,11.45,0,0,1-1.7-1.81,12.88,12.88,0,0,1-.18-15.41A11.4,11.4,0,0,1,203.1,392,3.27,3.27,0,0,1,203.82,391.41Z" transform="translate(-110.1 -5)"/><path class="cls-4" d="M153.23,404.47q-.06-3.57-.1-7.16a5.21,5.21,0,0,0-.25-1.85,1.77,1.77,0,0,0-1.36-1.15c-.9-.39-2.3.35-2.93,1.39a6.86,6.86,0,0,0-.7,3.51,51,51,0,0,0,.27,5.66,6.54,6.54,0,0,0,.67,2.59,2.16,2.16,0,0,0,4.1-.34A7.15,7.15,0,0,0,153.23,404.47Z" transform="translate(-110.1 -5)"/><path class="cls-4" d="M192.68,402.41c0,.11-7.35.19-16.4.19s-16.41-.08-16.41-.19,7.35-.18,16.41-.18S192.68,402.31,192.68,402.41Z" transform="translate(-110.1 -5)"/><polygon class="cls-4" points="36.33 386.08 36.14 369.37 45.23 369.37 45.55 386.08 36.33 386.08"/><path class="cls-3" d="M154.79,377.35a24.9,24.9,0,0,1-4.23.18,24.82,24.82,0,0,1-4.22-.18,23.05,23.05,0,0,1,4.22-.19A23.12,23.12,0,0,1,154.79,377.35Z" transform="translate(-110.1 -5)"/><path class="cls-3" d="M154.79,379.93a24.9,24.9,0,0,1-4.23.18,24.82,24.82,0,0,1-4.22-.18,23.05,23.05,0,0,1,4.22-.19A23.12,23.12,0,0,1,154.79,379.93Z" transform="translate(-110.1 -5)"/><path class="cls-3" d="M154.79,382.5a23.12,23.12,0,0,1-4.23.19,23.05,23.05,0,0,1-4.22-.19,24.82,24.82,0,0,1,4.22-.18A24.9,24.9,0,0,1,154.79,382.5Z" transform="translate(-110.1 -5)"/><path class="cls-3" d="M154.79,385.08a23.12,23.12,0,0,1-4.23.19,23.05,23.05,0,0,1-4.22-.19,24.82,24.82,0,0,1,4.22-.18A24.9,24.9,0,0,1,154.79,385.08Z" transform="translate(-110.1 -5)"/><path class="cls-3" d="M154.79,387.66a24.24,24.24,0,0,1-4.23.19,24.17,24.17,0,0,1-4.22-.19,24.82,24.82,0,0,1,4.22-.18A24.9,24.9,0,0,1,154.79,387.66Z" transform="translate(-110.1 -5)"/><path class="cls-1" d="M145.75,373.93h100.8c1.24,5.53,1.07,11.62,0,18.06H146.18v-1.23h6.13a2.89,2.89,0,0,0,2.9-2.89v-10a2.89,2.89,0,0,0-2.9-2.89h-6.56Z" transform="translate(-110.1 -5)"/><path class="cls-5" d="M169.58,383h1.68a.35.35,0,0,1,.18,0,.33.33,0,0,1,.18.31.34.34,0,0,1,0,.11c0,.14-.07.29-.11.43a4.84,4.84,0,0,1-1.06,1.91,2,2,0,0,1-1.43.74l-.2,0a1.65,1.65,0,0,1-1.15-.82,3.84,3.84,0,0,1-.5-2,5.5,5.5,0,0,1,.2-1.44,4.74,4.74,0,0,1,1-1.95,2,2,0,0,1,1.51-.81,1.4,1.4,0,0,1,.64.15,2,2,0,0,1,1,1.23.32.32,0,0,1,0,.16.27.27,0,0,1-.05.18.33.33,0,0,1-.31.18h-.11a.33.33,0,0,1-.23-.23l0,0a1.66,1.66,0,0,0-.2-.4.9.9,0,0,0-1.36-.28,3,3,0,0,0-.92,1.32,4.91,4.91,0,0,0-.4,1.9,3.44,3.44,0,0,0,.29,1.49,1,1,0,0,0,.88.66,1.2,1.2,0,0,0,.81-.49,4.31,4.31,0,0,0,.86-1.56c-.77,0-1.17,0-1.2,0-.27,0-.4-.17-.41-.4a.34.34,0,0,1,0-.12A.38.38,0,0,1,169.58,383Z" transform="translate(-110.1 -5)"/><path class="cls-5" d="M175.3,379.69a.73.73,0,0,1,0,.12q.1.38,1.19,6.25a.28.28,0,0,1,0,.09.31.31,0,0,1-.05.18.32.32,0,0,1-.3.19h-.06a.31.31,0,0,1-.27-.25l-.41-2.07h-2.07l-1,2.08,0,.07a.41.41,0,0,1-.32.18.33.33,0,0,1-.19-.06.37.37,0,0,1-.17-.31.36.36,0,0,1,0-.1l.31-.69q2.17-4.74,2.6-5.6a.39.39,0,0,1,.35-.25A.35.35,0,0,1,175.3,379.69Zm-.45,1.4-1.12,2.35h1.58Z" transform="translate(-110.1 -5)"/><path class="cls-5" d="M180.93,386.52h-3a.36.36,0,0,1-.2-.06.61.61,0,0,1-.17-.38h0q0-.18.84-6.22a.59.59,0,0,1,0-.13.32.32,0,0,1,.32-.22.35.35,0,0,1,.36.36c0,.28-.09.84-.2,1.71-.35,2.65-.53,4.05-.55,4.2h2.58a.45.45,0,0,1,.2,0,.34.34,0,0,1,.23.34.38.38,0,0,1-.39.37Z" transform="translate(-110.1 -5)"/><path class="cls-5" d="M185.08,379.69a.83.83,0,0,1,0,.12c.08.25.47,2.33,1.19,6.25a.29.29,0,0,1,0,.09.41.41,0,0,1-.05.18.32.32,0,0,1-.3.19h-.06a.32.32,0,0,1-.28-.25l-.4-2.07h-2.07l-1,2.08a.21.21,0,0,1,0,.07.39.39,0,0,1-.31.18.36.36,0,0,1-.36-.37.36.36,0,0,1,0-.1c.06-.15.17-.38.31-.69,1.45-3.16,2.31-5,2.6-5.6a.39.39,0,0,1,.35-.25A.38.38,0,0,1,185.08,379.69Zm-.45,1.4-1.12,2.35h1.58Z" transform="translate(-110.1 -5)"/><path class="cls-5" d="M189.92,383.27l.55,1.53c.31.86.47,1.32.47,1.37a.32.32,0,0,1-.06.18.34.34,0,0,1-.3.17.34.34,0,0,1-.3-.25.77.77,0,0,1-.06-.15c-.17-.38-.44-1.09-.81-2.14l-1.72,2.35a.46.46,0,0,1-.32.19.41.41,0,0,1-.19,0,.33.33,0,0,1-.17-.31v-.07a1,1,0,0,1,.18-.3c.58-.74,1.21-1.63,1.91-2.66q-.1-.3-.21-.57c-.64-1.73-1-2.63-1-2.69a.41.41,0,0,1,.05-.18.31.31,0,0,1,.29-.18.36.36,0,0,1,.34.2l1,2.73,2-2.76a.45.45,0,0,1,.32-.17.47.47,0,0,1,.17,0,.35.35,0,0,1,.18.33.53.53,0,0,1,0,.16Z" transform="translate(-110.1 -5)"/><path class="cls-5" d="M197.44,379.53a.38.38,0,0,1,.17,0,.36.36,0,0,1,.19.31q-.75,5.89-.82,6.37a4,4,0,0,1-.65,1.66,2.34,2.34,0,0,1-3,.73,2.1,2.1,0,0,1-1.07-.94.35.35,0,0,1-.05-.18.41.41,0,0,1,.05-.18.36.36,0,0,1,.32-.18.39.39,0,0,1,.27.15,2,2,0,0,0,1.56.89,1.53,1.53,0,0,0,1.2-.61,3.31,3.31,0,0,0,.67-1.91,1.64,1.64,0,0,1-.44.47,1.83,1.83,0,0,1-1.09.36l-.21,0a1.61,1.61,0,0,1-1.15-.82,3.75,3.75,0,0,1-.51-2c0-.37,0-.75.05-1.14.06-.61.2-1.49.41-2.62a.42.42,0,0,1,0-.1.32.32,0,0,1,.32-.25.41.41,0,0,1,.18.05.33.33,0,0,1,.18.29c0,.19-.06.65-.17,1.39a19.05,19.05,0,0,0-.24,2.11,4.24,4.24,0,0,0,.27,1.65c.21.5.51.74.9.74H195a1.64,1.64,0,0,0,.9-.73,4.55,4.55,0,0,0,.76-1.67l.46-3.47a.42.42,0,0,1,0-.15A.34.34,0,0,1,197.44,379.53Z" transform="translate(-110.1 -5)"/><path class="cls-4" d="M242.76,392.23c-.1,0-.18-4.15-.18-9.27s.08-9.26.18-9.26.19,4.14.19,9.26S242.87,392.23,242.76,392.23Z" transform="translate(-110.1 -5)"/><path class="cls-3" d="M160.28,392.23c-.1,0-.19-4.15-.19-9.27s.09-9.26.19-9.26.19,4.14.19,9.26S160.38,392.23,160.28,392.23Z" transform="translate(-110.1 -5)"/><path class="cls-4" d="M244.53,392.23c-.1,0-.18-4.15-.18-9.27s.08-9.26.18-9.26.19,4.14.19,9.26S244.63,392.23,244.53,392.23Z" transform="translate(-110.1 -5)"/><path class="cls-3" d="M158.63,392.23c-.11,0-.19-4.15-.19-9.27s.08-9.26.19-9.26.18,4.14.18,9.26S158.73,392.23,158.63,392.23Z" transform="translate(-110.1 -5)"/><path class="cls-3" d="M218.32,376.75v0L229,385.31l.09.08-.11,0-1.42.37-9,2.36h0l-8.15-3.46-2.31-1-.61-.26-.15-.07-.06,0,.06,0,.16.06.61.25,2.32,1,8.17,3.42h0l9-2.38,1.42-.37,0,.11-10.63-8.63h0v0" transform="translate(-110.1 -5)"/><polygon class="cls-3" points="117.9 378.97 118.48 379.52 119.26 379.35 118.92 380.07 119.32 380.76 118.53 380.66 118 381.26 117.85 380.47 117.12 380.15 117.82 379.77 117.9 378.97"/><polygon class="cls-3" points="107.68 382.36 108.08 382.69 108.58 382.55 108.38 383.03 108.67 383.46 108.16 383.43 107.84 383.83 107.71 383.33 107.22 383.15 107.66 382.88 107.68 382.36"/><polygon class="cls-3" points="96.39 377.73 97.03 377.77 97.42 377.27 97.58 377.88 98.17 378.1 97.64 378.44 97.61 379.07 97.12 378.67 96.52 378.84 96.75 378.25 96.39 377.73"/><polygon class="cls-3" points="122.68 371.88 123.31 371.92 123.7 371.43 123.86 372.04 124.45 372.26 123.92 372.6 123.9 373.23 123.41 372.82 122.8 373 123.03 372.41 122.68 371.88"/><polygon class="cls-3" points="107.71 371.47 108.11 371.49 108.36 371.18 108.47 371.57 108.84 371.71 108.5 371.92 108.49 372.33 108.18 372.07 107.79 372.18 107.94 371.8 107.71 371.47"/><path class="cls-3" d="M233.66,377.33s-3.45-.08-7.7-.26-7.69-.36-7.69-.4,3.45.07,7.7.25S233.66,377.29,233.66,377.33Z" transform="translate(-110.1 -5)"/><path class="cls-3" d="M237.53,373.77H135.3c-1.34-3-1.67-5.92,0-8.51H237.53A9.86,9.86,0,0,1,237.53,373.77Z" transform="translate(-110.1 -5)"/><rect class="cls-1" x="46.37" y="362.7" width="55.39" height="3.1"/><path class="cls-3" d="M139.23,373.82s-.4-.32-.81-1a7.58,7.58,0,0,1-.94-3,7.47,7.47,0,0,1,.4-3.14,3.1,3.1,0,0,1,.61-1.15,9.28,9.28,0,0,1-.36,1.23,8.67,8.67,0,0,0,.52,6A11.77,11.77,0,0,1,139.23,373.82Z" transform="translate(-110.1 -5)"/><path class="cls-3" d="M141.44,373.82a2.86,2.86,0,0,1-.81-1,7.54,7.54,0,0,1-.54-6.16,3.1,3.1,0,0,1,.61-1.15,7.7,7.7,0,0,1-.36,1.23,8.87,8.87,0,0,0-.27,3,8.59,8.59,0,0,0,.79,2.93A9.49,9.49,0,0,1,141.44,373.82Z" transform="translate(-110.1 -5)"/><path class="cls-4" d="M233.4,373.62a18,18,0,0,0,.72-4.16,17,17,0,0,0-.68-4.17,8.64,8.64,0,0,1,0,8.33Z" transform="translate(-110.1 -5)"/><path class="cls-4" d="M231.49,373.6c-.11,0,.32-1.82.31-4.07s-.43-4-.32-4.08a12.46,12.46,0,0,1,0,8.15Z" transform="translate(-110.1 -5)"/><path class="cls-6" d="M447.36,368.55S425,342.76,416.49,317s-4.44-22.84-4.44-22.84,11.42,25.06,20.08,37.17,24.11,29.86,24.11,29.86Z" transform="translate(-110.1 -5)"/><path class="cls-6" d="M451.83,298.14a1.3,1.3,0,0,0-2.43.83c1.36,9.06,4.32,30.33,4.2,44.12-.15,17.92,0,24.84,0,24.84h9.33s-1.66-37-3.77-48.33C457.69,311.68,454.56,302.89,451.83,298.14Z" transform="translate(-110.1 -5)"/><path class="cls-6" d="M456.91,364.92a98.42,98.42,0,0,0,7.68-27.85c.77-6.6-.6-15.51-2.64-27.41a73.72,73.72,0,0,1-1.18-13.18,2.22,2.22,0,0,1,4.18-1c1.13,2,4.39,8.87,5.21,13.17,2.26,11.74,4.82,17.62,2.86,28.76s-9.18,28.3-9.18,28.3Z" transform="translate(-110.1 -5)"/><path class="cls-6" d="M465.32,365.67s24.61-52.88,26.31-60.73,7.51-25.93,8.19-24.9,1.71,10.57-2.73,21.49-23.37,65.76-23.37,65.76h-8.4" transform="translate(-110.1 -5)"/><path class="cls-7" d="M454.22,363.31a5.36,5.36,0,0,1-.69-.48c-.44-.33-1.1-.79-1.91-1.45-1.64-1.29-3.93-3.25-6.61-5.84a111.06,111.06,0,0,1-17.86-22.92A149.64,149.64,0,0,1,415,306.22c-1.24-3.51-2.14-6.38-2.73-8.38-.3-1-.51-1.78-.65-2.31a3.9,3.9,0,0,1-.19-.81,6.83,6.83,0,0,1,.29.78c.18.57.43,1.33.74,2.28.65,2,1.61,4.83,2.89,8.32a158.66,158.66,0,0,0,12.29,26.26,115.7,115.7,0,0,0,17.66,22.92c2.63,2.61,4.89,4.61,6.48,5.94.79.68,1.43,1.17,1.84,1.53A4.68,4.68,0,0,1,454.22,363.31Z" transform="translate(-110.1 -5)"/><path class="cls-7" d="M456.91,337.94a8.89,8.89,0,0,1-.22-1.56c-.12-1.09-.27-2.52-.45-4.24-.39-3.57-1-8.51-1.87-13.93s-1.84-10.3-2.59-13.82c-.37-1.69-.67-3.09-.9-4.16a10.3,10.3,0,0,1-.28-1.55,9.11,9.11,0,0,1,.48,1.5c.27,1,.64,2.38,1.06,4.13.84,3.51,1.87,8.38,2.75,13.82s1.42,10.39,1.72,14c.15,1.8.24,3.25.28,4.26A8.23,8.23,0,0,1,456.91,337.94Z" transform="translate(-110.1 -5)"/><path class="cls-7" d="M462.68,295a5.92,5.92,0,0,1,.29.67c.18.5.43,1.15.73,2s.7,1.9,1.06,3.15.84,2.64,1.2,4.23c.19.79.39,1.62.61,2.49s.35,1.78.54,2.72c.4,1.88.65,3.91.95,6.05a90.66,90.66,0,0,1-1,28c-.45,2.11-.84,4.12-1.38,6-.25.92-.46,1.82-.73,2.67s-.54,1.66-.79,2.44c-.47,1.56-1,2.93-1.49,4.14s-.9,2.24-1.28,3.06-.66,1.43-.88,1.91a3.1,3.1,0,0,1-.34.65,4.31,4.31,0,0,1,.25-.69c.19-.5.45-1.14.78-2s.78-1.86,1.19-3.09,1-2.58,1.42-4.14l.75-2.44c.26-.85.46-1.75.7-2.67.52-1.84.89-3.85,1.33-5.95a102.06,102.06,0,0,0,1.54-13.87,103.64,103.64,0,0,0-.54-13.94c-.29-2.13-.52-4.16-.9-6-.18-.94-.32-1.85-.51-2.72s-.39-1.69-.57-2.48c-.34-1.59-.78-3-1.12-4.24s-.67-2.31-1-3.17-.48-1.49-.64-2A2.88,2.88,0,0,1,462.68,295Z" transform="translate(-110.1 -5)"/><path class="cls-7" d="M499.54,281.1a.87.87,0,0,1,0,.24c0,.18-.07.41-.11.68-.11.61-.25,1.5-.49,2.64-.47,2.27-1.26,5.55-2.49,9.52s-2.91,8.63-4.9,13.75-4.3,10.7-6.48,16.63-3.93,11.72-5.54,17-3.1,10-4.56,13.87a87.11,87.11,0,0,1-3.88,9c-.51,1.05-1,1.83-1.25,2.37-.14.24-.25.44-.35.6a.82.82,0,0,1-.13.2s0-.08.09-.22.17-.38.29-.63c.27-.56.69-1.35,1.16-2.41,1-2.09,2.33-5.18,3.72-9.08s2.88-8.62,4.45-13.88,3.28-11.06,5.5-17,4.52-11.52,6.52-16.63,3.73-9.74,5-13.68,2.12-7.2,2.65-9.46c.27-1.13.44-2,.59-2.61.06-.27.11-.49.16-.67A.62.62,0,0,1,499.54,281.1Z" transform="translate(-110.1 -5)"/><path class="cls-6" d="M423.65,269.42a2.12,2.12,0,0,0-3.49,2.16,60.91,60.91,0,0,0,3.09,7.95c3.39,7.19,13.33,33,18,47.16s11.21,40.6,11.21,40.6l9.93-1.62s-9.09-43.42-18-59.07C437.26,294,430.13,275.85,423.65,269.42Z" transform="translate(-110.1 -5)"/><path class="cls-7" d="M444,335.55a6.38,6.38,0,0,1,.51,1.19c.29.78.69,1.91,1.14,3.33.92,2.84,2,6.8,3.17,11.19s2.06,8.4,2.71,11.3l.75,3.45a5.18,5.18,0,0,1,.2,1.28,7.55,7.55,0,0,1-.4-1.23c-.24-.91-.55-2.05-.91-3.41-.76-3-1.76-6.91-2.86-11.26s-2.19-8.35-3-11.21c-.39-1.35-.72-2.48-1-3.38A5.76,5.76,0,0,1,444,335.55Z" transform="translate(-110.1 -5)"/><path class="cls-7" d="M457.43,366.48a1,1,0,0,1-.06-.27c0-.2-.07-.46-.11-.78-.11-.68-.2-1.7-.41-3-.36-2.61-1-6.37-2.08-10.95a157.15,157.15,0,0,0-4.65-15.87c-2-5.89-4.6-12.25-7.49-18.83-5.85-13.15-11.69-24.81-15.52-33.43-1.94-4.3-3.44-7.82-4.43-10.26-.51-1.22-.87-2.18-1.12-2.83l-.27-.74a1,1,0,0,1-.08-.26,1.31,1.31,0,0,1,.13.24l.32.72c.29.68.7,1.61,1.21,2.79,1,2.42,2.6,5.9,4.58,10.18,3.92,8.58,9.8,20.21,15.66,33.38,2.9,6.59,5.45,13,7.46,18.88a148.75,148.75,0,0,1,4.56,15.94,110.78,110.78,0,0,1,1.92,11c.18,1.31.24,2.33.31,3,0,.32.05.58.06.79S457.43,366.48,457.43,366.48Z" transform="translate(-110.1 -5)"/><path class="cls-7" d="M462.37,365.67A10.56,10.56,0,0,1,462,364c-.19-1.17-.45-2.71-.77-4.57-.68-3.85-1.73-9.15-3.23-14.92s-3.17-10.92-4.46-14.61L452,325.55a11.33,11.33,0,0,1-.53-1.62,9.91,9.91,0,0,1,.72,1.55c.43,1,1,2.47,1.71,4.31a143.17,143.17,0,0,1,4.62,14.6,150.62,150.62,0,0,1,3.09,15c.28,1.94.5,3.51.61,4.6A9.65,9.65,0,0,1,462.37,365.67Z" transform="translate(-110.1 -5)"/><rect class="cls-8" x="333.89" y="359.25" width="38.78" height="47.24"/><g class="cls-9"><rect x="333.89" y="359.25" width="38.78" height="47.24"/></g><rect class="cls-8" x="325.89" y="359.25" width="34.4" height="47.24"/><path class="cls-8" d="M224.07,212.19h0S224.08,212.15,224.07,212.19Z" transform="translate(-110.1 -5)"/><path class="cls-8" d="M406.08,340.86c-.3-6.63-10.25-95.83-11.75-107.28-2.4-18.29-17.11-22.88-17.11-22.88h0l-50-17.26H277.73L224.1,212.18l0,.91q0-.75,0-.9c-.53.3-13.74,4.05-16.9,17.06-1.72,7.11-21.87,107.91-22.17,110.88s2.37,21,16.59,23.39c5.33.89,16.85.07,29.17-1.3l-9.62,49.43H376.58l-5.49-35.31c12.36-4.82,25.3-10.2,27.46-12.45C402.77,359.51,406.38,347.49,406.08,340.86Zm-175.85-25.4Z" transform="translate(-110.1 -5)"/><g class="cls-9"><path d="M270.88,330.38a28.27,28.27,0,0,0-2.29-9.22,11.31,11.31,0,0,0-6.92-6.15c-3.08-.79-6.77.49-8.13,3.37-5.61,15.74-.51,24.6,10.19,33.11,1.69,1.35,3.79,2.41,5.86,1.78s2.46-2.11,2.56-4.24C272.43,342.73,271.61,336.64,270.88,330.38Z" transform="translate(-110.1 -5)"/></g><path class="cls-1" d="M338.29,256.83Z" transform="translate(-110.1 -5)"/><path class="cls-1" d="M338.29,256.83Z" transform="translate(-110.1 -5)"/><path class="cls-7" d="M249,312.5a4.21,4.21,0,0,1-1,.16l-2.82.3c-2.4.24-5.76.54-9.59.86l.12,0c-.88.61-1.78,1.24-2.69,1.9a49.46,49.46,0,0,0-8.82,7.82,26.74,26.74,0,0,0-2.1,2.89,9.49,9.49,0,0,1-.68,1.13,5.68,5.68,0,0,1,.52-1.22,21.08,21.08,0,0,1,2-3,44.77,44.77,0,0,1,8.81-8c.91-.66,1.82-1.29,2.7-1.9l0,0h.07c3.83-.3,7.19-.54,9.59-.69l2.83-.16A4.51,4.51,0,0,1,249,312.5Z" transform="translate(-110.1 -5)"/><path class="cls-7" d="M273.15,329.78a.92.92,0,0,1,.08.28c0,.21.1.48.18.82.13.73.32,1.81.49,3.21a106,106,0,0,1,.64,11.92c0,1.26,0,2.58,0,3.95a5.8,5.8,0,0,1-1.39,4.08,6.27,6.27,0,0,1-4.13,2.07l-4.79.84c-6.55,1.15-13.74,2.54-21.33,3.76s-14.87,2.09-21.51,2.68a112,112,0,0,1-17.68.68,25.74,25.74,0,0,1-3.58-.5,10.1,10.1,0,0,1-3-1.22,23.84,23.84,0,0,1-4-3.22c-1-1-1.76-1.78-2.26-2.33l-.57-.62c-.12-.15-.19-.22-.18-.23l.22.19c.15.16.35.35.6.6.52.52,1.29,1.3,2.32,2.26a23.76,23.76,0,0,0,4,3.12,9.69,9.69,0,0,0,2.93,1.15,23.74,23.74,0,0,0,3.53.46,116.38,116.38,0,0,0,17.62-.78c6.63-.61,13.89-1.48,21.47-2.72s14.77-2.59,21.33-3.72l4.8-.81a5.84,5.84,0,0,0,3.9-1.92,5.47,5.47,0,0,0,1.32-3.83c0-1.37.06-2.69.06-3.94a112.76,112.76,0,0,0-.49-11.9c-.13-1.4-.3-2.48-.4-3.21-.05-.35-.09-.62-.13-.84Z" transform="translate(-110.1 -5)"/><path class="cls-7" d="M241.29,255c.13,0-1,13.14-2.64,29.31s-3,29.28-3.12,29.27,1.05-13.14,2.64-29.32S241.16,255,241.29,255Z" transform="translate(-110.1 -5)"/><path class="cls-7" d="M368.79,243.58a.65.65,0,0,1,0,.23c0,.17,0,.39,0,.65,0,.62-.05,1.46-.08,2.52-.07,2.18-.22,5.34-.43,9.25-.41,7.8-1.15,18.58-2.07,30.47s-1.72,22.66-2.22,30.46c-.24,3.86-.44,7-.58,9.23-.07,1.06-.12,1.9-.16,2.51,0,.27-.05.48-.06.66a.86.86,0,0,1,0,.22,2.07,2.07,0,0,1,0-.23v-.65c0-.62,0-1.46.08-2.52.07-2.18.22-5.34.42-9.24.42-7.81,1.16-18.59,2.08-30.48S367.46,264,368,256.21c.24-3.87.43-7,.57-9.24.08-1.06.13-1.9.17-2.51,0-.26,0-.48.06-.65A1.45,1.45,0,0,1,368.79,243.58Z" transform="translate(-110.1 -5)"/><path class="cls-7" d="M401.46,339.29a36.09,36.09,0,0,0-2.87-4.08,22.49,22.49,0,0,0-9.79-6.67,40,40,0,0,0-6.44-1.5,14.19,14.19,0,0,0-8.75,1.43,11.48,11.48,0,0,1-1.2.6s.08-.09.27-.22a8.85,8.85,0,0,1,.84-.55,13.59,13.59,0,0,1,3.42-1.41,14.82,14.82,0,0,1,5.47-.29,37.56,37.56,0,0,1,6.54,1.49,21.8,21.8,0,0,1,9.9,6.9,19.91,19.91,0,0,1,2,3.07A5.47,5.47,0,0,1,401.46,339.29Z" transform="translate(-110.1 -5)"/><path class="cls-7" d="M375.41,374.64a3.3,3.3,0,0,1-.54.28l-1.58.71c-1.38.6-3.38,1.49-5.86,2.54a57.9,57.9,0,0,1-9,3.15,13.48,13.48,0,0,1-5.64.16,10.87,10.87,0,0,1-5.28-3,15,15,0,0,1-3.27-5.1,34.9,34.9,0,0,1-1.74-5.34,78.38,78.38,0,0,1-1.66-9.35c-.33-2.68-.51-4.85-.64-6.35-.05-.71-.09-1.29-.13-1.73a2.82,2.82,0,0,1,0-.61,2.88,2.88,0,0,1,.11.6c.05.44.13,1,.22,1.72.18,1.49.41,3.66.78,6.33A85.64,85.64,0,0,0,343,368a34.42,34.42,0,0,0,1.74,5.26,14.7,14.7,0,0,0,3.17,4.94,10.53,10.53,0,0,0,5.05,2.85,13,13,0,0,0,5.45-.14,61.17,61.17,0,0,0,8.92-3l5.92-2.4,1.62-.62A2.6,2.6,0,0,1,375.41,374.64Z" transform="translate(-110.1 -5)"/><g class="cls-9"><path d="M273.25,353.62c-1.38,1.92-4.3,2.32-6.64,2.71-12.34,2.1-23.48,4.1-36,5.45l-1.59,8.16c12.63-2,25.62-4.68,37.53-9.31a14.77,14.77,0,0,0,4.55-2.47A5.64,5.64,0,0,0,273.25,353.62Z" transform="translate(-110.1 -5)"/></g><g class="cls-9"><path d="M344.76,352.73a46.7,46.7,0,0,0,5.7,19.29c.77,1.32,1.94,2.77,3.46,2.6,1.18-.13,2-1.19,2.62-2.2,2.39-3.85,4.56-7.52,5.3-12l-11.79-4.7Z" transform="translate(-110.1 -5)"/></g><path class="cls-7" d="M319.07,351.35c.08.1-8.88,7.14-20,15.71s-20.23,15.44-20.31,15.34,8.88-7.14,20-15.72S319,351.24,319.07,351.35Z" transform="translate(-110.1 -5)"/><path class="cls-7" d="M368.13,335.06a10.49,10.49,0,0,1,.12,1.53,15.76,15.76,0,0,1,0,1.81c0,.71-.1,1.51-.2,2.39a61.41,61.41,0,0,1-3.33,13.43,73.55,73.55,0,0,1-5.86,12.55,36.94,36.94,0,0,1-2.34,3.48,9.16,9.16,0,0,1-1,1.18,10.6,10.6,0,0,1,.85-1.29c.55-.81,1.33-2,2.2-3.55a83.45,83.45,0,0,0,5.7-12.53,69.42,69.42,0,0,0,3.45-13.31c.12-.87.23-1.66.26-2.36s.12-1.3.1-1.8A7.71,7.71,0,0,1,368.13,335.06Z" transform="translate(-110.1 -5)"/><path class="cls-10" d="M299.18,304.45s-13.7-21.88-24.45-17.58c0,0-5.47-4.48-9-1.62s-2.24,8.7-2.24,8.7-6.63-5.38-9.59-2.6-.8,7.52,0,9.85a42.59,42.59,0,0,1,1.26,7.26s-4-2.06-5.92,1.25,5.29,14.43,6.37,16,8,8.33,12.72,6.54,8.06-6.54,8.06-6.54Z" transform="translate(-110.1 -5)"/><path class="cls-11" d="M263.52,294.78a9.07,9.07,0,0,1,1.24.78l3.28,2.25,4.82,3.4a6.85,6.85,0,0,1,1.32,1.17,3,3,0,0,1,.73,1.74,3.58,3.58,0,0,1-2.09,3.18,6,6,0,0,1-3.81.4,13.43,13.43,0,0,1-3.31-1.24c-2-1-3.71-2-5.14-2.92s-2.56-1.65-3.32-2.2a7.82,7.82,0,0,1-1.15-.9,8.49,8.49,0,0,1,1.25.74c.8.5,2,1.22,3.39,2.07s3.19,1.82,5.17,2.81a13,13,0,0,0,3.2,1.18,5.68,5.68,0,0,0,3.51-.37,3.13,3.13,0,0,0,1.83-2.73,3.68,3.68,0,0,0-1.84-2.57l-4.76-3.48-3.19-2.38A8.38,8.38,0,0,1,263.52,294.78Z" transform="translate(-110.1 -5)"/><path class="cls-11" d="M263.7,294.12s.15.08.41.27l1.12.84c1,.73,2.36,1.81,4.13,3a28.39,28.39,0,0,0,6.62,3.64,16.6,16.6,0,0,0,4.32,1,9.49,9.49,0,0,0,4.62-.62,3.72,3.72,0,0,0,1.65-1.56,2.78,2.78,0,0,0,.19-2.13,10.76,10.76,0,0,0-2.47-3.6,49.74,49.74,0,0,0-5.66-5.06c-1.71-1.33-3.14-2.35-4.14-3.05l-1.14-.8a2.64,2.64,0,0,1-.39-.3,2,2,0,0,1,.44.22c.28.16.68.41,1.2.73,1,.65,2.49,1.63,4.23,2.93a47.4,47.4,0,0,1,5.78,5c.5.54,1,1.09,1.46,1.7a6.6,6.6,0,0,1,1.14,2.07,3.23,3.23,0,0,1-.22,2.49,4.19,4.19,0,0,1-1.86,1.77,9.7,9.7,0,0,1-4.86.66,16.47,16.47,0,0,1-4.44-1,27,27,0,0,1-6.66-3.78c-1.76-1.28-3.13-2.39-4.06-3.17l-1.06-.92A2,2,0,0,1,263.7,294.12Z" transform="translate(-110.1 -5)"/><path class="cls-10" d="M254.58,308.42l9.63,4.63c1.1.52,2.36,1.31,2.32,2.53a2.5,2.5,0,0,1-.7,1.48,7.84,7.84,0,0,1-6.4,2.32,23.19,23.19,0,0,1-6.79-1.83" transform="translate(-110.1 -5)"/><path class="cls-11" d="M252.64,317.56c0-.1,1.6.57,4.22,1.23a11.73,11.73,0,0,0,4.66.26,7.77,7.77,0,0,0,2.58-.89,5.15,5.15,0,0,0,2-2,1.44,1.44,0,0,0,0-1.28,2.74,2.74,0,0,0-.92-1,19.92,19.92,0,0,0-2.45-1.3l-4.29-2.12L255.61,309a5.88,5.88,0,0,1-1-.6,6.23,6.23,0,0,1,1.11.43l2.93,1.33,4.34,2a19.87,19.87,0,0,1,2.54,1.31,3.42,3.42,0,0,1,1.08,1.18,2,2,0,0,1,0,1.69,6.72,6.72,0,0,1-5,3.11,11.52,11.52,0,0,1-4.81-.37,24.47,24.47,0,0,1-3.06-1.06A5.48,5.48,0,0,1,252.64,317.56Z" transform="translate(-110.1 -5)"/><path class="cls-10" d="M269.59,331.65l-14.51,11s-7-9.8-2.37-21.7h3.5l-.8,3.91,6.62,1.38Z" transform="translate(-110.1 -5)"/><path class="cls-10" d="M252.41,320.64l5.33,6.95a11,11,0,0,0,2.07,2.24,3.79,3.79,0,0,0,2.86.81" transform="translate(-110.1 -5)"/><path class="cls-11" d="M262.67,330.64a2.59,2.59,0,0,1-2.18-.2,5.68,5.68,0,0,1-1.92-1.48c-.62-.67-1.19-1.46-1.82-2.27-1.25-1.63-2.37-3.12-3.15-4.21a9.76,9.76,0,0,1-1.19-1.84,10.15,10.15,0,0,1,1.46,1.63c.85,1,2,2.5,3.26,4.13.63.81,1.2,1.61,1.77,2.27a6,6,0,0,0,1.74,1.47A4.8,4.8,0,0,0,262.67,330.64Z" transform="translate(-110.1 -5)"/><path class="cls-3" d="M256.58,322.2l17.77-17a9,9,0,0,1,6.49-2.5l91.2,2.67a1.91,1.91,0,0,1,1.07,3.45L347.5,327.63a2.37,2.37,0,0,1-1.54.47l-88.61-3.85A1.19,1.19,0,0,1,256.58,322.2Z" transform="translate(-110.1 -5)"/><path class="cls-7" d="M373.86,307.66l-.32,0h-.94l-3.61-.05-13.27-.31L312,306.14l-24.09-.7-5.41-.16a19.92,19.92,0,0,0-2.56,0,6.34,6.34,0,0,0-2.31.75,8.44,8.44,0,0,0-1.86,1.46L274,309.06l-3.24,3c-4.11,3.78-7.45,6.84-9.78,9l-2.67,2.42-.71.63c-.16.13-.24.2-.25.19l.22-.23.67-.66,2.62-2.48,9.67-9.09c1-1,2.1-2,3.21-3l1.71-1.59a9.23,9.23,0,0,1,1.94-1.53,6.67,6.67,0,0,1,2.45-.8,19.09,19.09,0,0,1,2.62,0l5.41.15,24.1.66L355.73,307l13.26.45,3.61.15.94.05A1.34,1.34,0,0,1,373.86,307.66Z" transform="translate(-110.1 -5)"/><path class="cls-2" d="M391.93,259.7c.12.06-4.42,8.84-10.14,19.6s-10.46,19.43-10.58,19.37,4.43-8.84,10.15-19.6S391.82,259.64,391.93,259.7Z" transform="translate(-110.1 -5)"/><path class="cls-2" d="M358.53,257.89c.13,0-1.69,7.87-4.07,17.51s-4.41,17.43-4.54,17.4,1.7-7.87,4.07-17.51S358.4,257.86,358.53,257.89Z" transform="translate(-110.1 -5)"/><path class="cls-2" d="M219,272.23c.1-.09,5.68,6.13,12.47,13.89s12.2,14.12,12.1,14.2-5.68-6.13-12.47-13.88S218.9,272.32,219,272.23Z" transform="translate(-110.1 -5)"/><path class="cls-2" d="M241,241.37c.12,0,3,9.6,6.51,21.51s6.18,21.62,6.05,21.65-3-9.59-6.51-21.51S240.9,241.41,241,241.37Z" transform="translate(-110.1 -5)"/><path class="cls-2" d="M331.23,230.81a3.44,3.44,0,0,1,0,.66c0,.47,0,1.1,0,1.87,0,1.69,0,4,0,6.89,0,5.87-.1,13.89-.16,22.74s-.22,16.88-.3,22.74c-.06,2.87-.11,5.21-.14,6.9,0,.77,0,1.39-.07,1.87a4.66,4.66,0,0,1-.05.65,3,3,0,0,1,0-.65c0-.48,0-1.1,0-1.87,0-1.69,0-4,0-6.9,0-5.86.1-13.88.16-22.74s.22-16.87.3-22.74c.06-2.87.11-5.21.14-6.89,0-.77.05-1.4.07-1.87A5,5,0,0,1,331.23,230.81Z" transform="translate(-110.1 -5)"/><path class="cls-7" d="M362.38,118.09c-3.44-3.69-7.61-7.17-8.82-12.07-1.1-4.51.49-9.67-1.9-13.65-2.93-4.9-10.25-5.31-13.78-9.79-1.71-2.18-2.3-5.06-4-7.25-2.88-3.73-8.23-4.57-12.9-3.92s-9.12,2.48-13.8,3c-6.43.66-13.15-1.22-19.28.83-6.76,2.26-10.73,8.44-15,14.43l-5.57,7a25.86,25.86,0,0,1-3.76,3.26c-2.38,1.65-5.14,2.83-7.16,4.91-4.34,4.44-3.7,12.69,1.28,16.4a12.21,12.21,0,0,0-7.83,12.23c.26,2.86,1.53,5.5,2.48,8.21s1.56,5.73.5,8.4-4.35,4.57-6.89,3.25a12.84,12.84,0,0,0,7.27,8.32,7.73,7.73,0,0,1-5.08,2.46c5.63,12.1,20.06,18.08,33.4,17.7s25.94-5.86,38.15-11.26l35.6-10.54c3.13-.83,4.31-4.71,4.16-7.94s-1.09-6.58,0-9.64c1.45-4.19,6.19-6.56,7.71-10.73C368.87,126.89,365.83,121.77,362.38,118.09Z" transform="translate(-110.1 -5)"/><path class="cls-7" d="M278.52,153.72c-2.88-8-5.72-16.12-7.18-24.52s-1.45-17.21,1.28-25.28c.41-1.23,4-9.47,5.3-9.38.92.06-1.22,7.71-.73,8.5,4.66,7.48,6.14,16.61,5.69,25.41a115.4,115.4,0,0,1-4.36,25.27" transform="translate(-110.1 -5)"/><path class="cls-10" d="M310.05,80.62l-2,0c-21.38.74-32.69,19.3-31.36,40.65l.61,73.6a25,25,0,0,0,23.93,24.81h0a25.05,25.05,0,0,0,26.13-24.31c.11-3.86.2-6.57.21-6.57s20.59-2.7,21.34-23.21c.35-9.91-.57-30.37-1.62-48.88A38.24,38.24,0,0,0,310.05,80.62Z" transform="translate(-110.1 -5)"/><path class="cls-11" d="M327.59,188.76s-12.95.45-26.52-8.53c0,0,5.83,15.26,26.34,13.9Z" transform="translate(-110.1 -5)"/><path class="cls-7" d="M338.27,135.61a2.93,2.93,0,0,1-2.89,2.89,2.8,2.8,0,0,1-3-2.71,2.93,2.93,0,0,1,2.89-2.89A2.8,2.8,0,0,1,338.27,135.61Z" transform="translate(-110.1 -5)"/><path class="cls-7" d="M342.72,125.08c-.37.38-2.55-1.32-5.7-1.38s-5.5,1.45-5.83,1.06c-.17-.18.22-.86,1.24-1.57a8,8,0,0,1,4.68-1.32,7.73,7.73,0,0,1,4.53,1.58C342.6,124.22,342.91,124.92,342.72,125.08Z" transform="translate(-110.1 -5)"/><path class="cls-7" d="M309.74,135.61a2.93,2.93,0,0,1-2.9,2.89,2.8,2.8,0,0,1-3-2.71,2.94,2.94,0,0,1,2.9-2.89A2.8,2.8,0,0,1,309.74,135.61Z" transform="translate(-110.1 -5)"/><path class="cls-7" d="M311.81,125.62c-.37.38-2.55-1.32-5.7-1.38s-5.5,1.45-5.84,1.06c-.16-.18.22-.86,1.25-1.57a8.06,8.06,0,0,1,4.68-1.32,7.73,7.73,0,0,1,4.53,1.58C311.68,124.76,312,125.46,311.81,125.62Z" transform="translate(-110.1 -5)"/><path class="cls-7" d="M322.55,150.12c0-.18,1.95-.47,5.14-.8.81-.07,1.57-.21,1.72-.76a4.08,4.08,0,0,0-.48-2.39c-.71-2-1.45-4-2.24-6.19-3.09-8.81-5.32-16-5-16.16s3.16,6.91,6.25,15.72l2.14,6.22a4.67,4.67,0,0,1,.34,3.17,2,2,0,0,1-1.35,1.15,5.49,5.49,0,0,1-1.37.15C324.54,150.33,322.55,150.3,322.55,150.12Z" transform="translate(-110.1 -5)"/><path class="cls-7" d="M313.22,152.08c.51,0,.43,3.4,3.31,5.9s6.52,2.21,6.53,2.69c.05.21-.82.64-2.36.65a8.5,8.5,0,0,1-5.47-2,7.41,7.41,0,0,1-2.55-4.94C312.58,152.89,313,152.05,313.22,152.08Z" transform="translate(-110.1 -5)"/><path class="cls-7" d="M311.94,112.83c-.33.85-3.46.37-7.17.72s-6.73,1.3-7.2.52c-.21-.37.33-1.17,1.55-2a12.55,12.55,0,0,1,11-.95C311.42,111.73,312.09,112.42,311.94,112.83Z" transform="translate(-110.1 -5)"/><path class="cls-7" d="M341.67,114.57c-.57.71-2.72-.09-5.33-.19s-4.84.37-5.33-.39c-.21-.37.15-1.08,1.13-1.73a7.73,7.73,0,0,1,8.59.47C341.64,113.49,341.92,114.23,341.67,114.57Z" transform="translate(-110.1 -5)"/><path class="cls-10" d="M278,136.46c-.34-.16-14-4.51-13.88,9.53s14.18,11,14.2,10.62S278,136.46,278,136.46Z" transform="translate(-110.1 -5)"/><path class="cls-11" d="M274,151.33c-.06-.05-.24.17-.65.36a2.48,2.48,0,0,1-1.83.06c-1.49-.53-2.75-2.88-2.84-5.41a8.07,8.07,0,0,1,.65-3.5,2.84,2.84,0,0,1,1.83-1.9,1.26,1.26,0,0,1,1.45.66c.19.39.1.67.18.7s.29-.24.18-.82a1.53,1.53,0,0,0-.56-.87,1.82,1.82,0,0,0-1.36-.35,3.41,3.41,0,0,0-2.53,2.2,8.28,8.28,0,0,0-.82,3.92c.11,2.82,1.58,5.46,3.62,6a2.63,2.63,0,0,0,2.23-.39C274,151.67,274.06,151.35,274,151.33Z" transform="translate(-110.1 -5)"/><path class="cls-7" d="M337.84,93.58c2.25-1.29-4.69-8.53-10.32-11-8.5-3.69-21.42-5.82-29.16-3.49-9.32,2.82-17,7.61-21.58,16.21s-6.16,18.57-5.72,28.29c.14,3,.5,6.06,2.13,8.54,2,3.07,5.8,5,5.71,9.25a5.92,5.92,0,0,0,1.53,4.26c2.61,2.68,5.71.06,7.11-2.53,3-5.55,3.23-12.12,3.39-18.42.12-4.48.22-9.06-1.11-13.34-.73-2.32-1.87-4.52-2.47-6.88s-.56-5.06.88-7a9.48,9.48,0,0,1,1.12-1.18,14.65,14.65,0,0,1,14.47-3c7.95,2.67,21.52,6.61,25,3.87,5-3.94,6.18-6.48,6.18-6.48Z" transform="translate(-110.1 -5)"/><path class="cls-7" d="M299.06,77.21c7.67-2.71,16.45-2.73,23.73.89,3.87,1.93,7.38,5.05,8.62,9.18s-.45,9.28-4.42,11l-.27.17c-6,2.12-9.86,1.38-15.86-.58-5.06-1.65-9.58-4.68-14.64-6.31a28.54,28.54,0,0,0-16.7-.2C284.78,85.14,291.39,79.92,299.06,77.21Z" transform="translate(-110.1 -5)"/><path class="cls-6" d="M266.32,137.51a5.82,5.82,0,0,1-.7-.82,11.26,11.26,0,0,1-1.48-2.7,11.71,11.71,0,0,1,1.22-10.91,12.22,12.22,0,0,1,2.59-2.76,13.12,13.12,0,0,1,3.6-1.95c2.62-1,5.66-1.55,8.16-3.43a6.8,6.8,0,0,0,2.59-3.8,15.94,15.94,0,0,0,.27-5c-.24-3.4-.37-7.07.77-10.61a16.23,16.23,0,0,1,6.53-8.32A24.28,24.28,0,0,1,299,83.45a23.16,23.16,0,0,1,9,0,19.2,19.2,0,0,1,7.2,3,19,19,0,0,1,7,8.74,16,16,0,0,1,.84,3l.11.8a1.1,1.1,0,0,1,0,.27,23.19,23.19,0,0,0-1.14-4,19.38,19.38,0,0,0-14.12-11.47,22.72,22.72,0,0,0-8.81,0,24,24,0,0,0-9,3.76,15.74,15.74,0,0,0-6.34,8.08c-1.11,3.43-1,7-.76,10.44a16.07,16.07,0,0,1-.3,5.09,7.18,7.18,0,0,1-2.77,4c-2.62,2-5.7,2.46-8.28,3.45a12.07,12.07,0,0,0-6.05,4.54,11.6,11.6,0,0,0-2.05,5.92,12,12,0,0,0,.72,4.73A14,14,0,0,0,266.32,137.51Z" transform="translate(-110.1 -5)"/><path class="cls-6" d="M264.8,140.71a7.57,7.57,0,0,1-1.07-.63,13.87,13.87,0,0,1-2.71-2.34,15.21,15.21,0,0,1-2.9-4.85,14.22,14.22,0,0,1-.57-7.45,14.6,14.6,0,0,1,4.26-8c2.36-2.33,5.48-4,8.4-6.15a17.26,17.26,0,0,0,3.94-3.88,19,19,0,0,0,2.5-5.2c1.25-3.76,1.82-7.91,3.61-11.82a22.29,22.29,0,0,1,8.13-9.24,22.83,22.83,0,0,1,10.89-3.63,24.88,24.88,0,0,1,10.3,1.52,25.37,25.37,0,0,1,7.81,4.63,27.41,27.41,0,0,1,7.47,10.71,21.28,21.28,0,0,1,1.32,4.63.88.88,0,0,1-.1-.3l-.24-.89a29.44,29.44,0,0,0-1.15-3.37A27.83,27.83,0,0,0,317.17,84a25.17,25.17,0,0,0-7.72-4.52A24.71,24.71,0,0,0,299.31,78a22.5,22.5,0,0,0-10.67,3.58,22,22,0,0,0-7.95,9c-1.74,3.82-2.32,8-3.59,11.76a19.16,19.16,0,0,1-2.58,5.32,17.47,17.47,0,0,1-4,4c-3,2.19-6.08,3.82-8.39,6.08a14.29,14.29,0,0,0-4.21,7.73,14.13,14.13,0,0,0,.5,7.3,15,15,0,0,0,2.78,4.82,15.22,15.22,0,0,0,2.62,2.38C264.44,140.48,264.82,140.68,264.8,140.71Z" transform="translate(-110.1 -5)"/><path class="cls-10" d="M347.77,323.45s-38.12-8.87-43.95-9.31c-5.46-.4-6.89,3-6.89,3s-8.17-1-10,3.74c0,0-1.44,2.78,1.91,4.2s21.53,5.42,25.27,8.9,35.06,21.27,35.06,21.27l12.64,5.16s5.67-14.83,5.93-19.08a11.28,11.28,0,0,0-1.29-6.58s7.86-8,8.76-11.21,6.58-14.31,6.58-14.31-5.32-5.43-10.59.95-8.22,9.26-9.65,10.39C357.48,323.85,350.2,324.22,347.77,323.45Z" transform="translate(-110.1 -5)"/><path class="cls-11" d="M335.08,334.57s-.15,0-.41-.16l-1.11-.53-4.11-2c-3.48-1.63-8.34-3.77-13.85-5.79-2.75-1-5.39-1.9-7.82-2.66s-4.65-1.31-6.44-2.09a8.56,8.56,0,0,1-3.69-2.69,4.79,4.79,0,0,1-.6-1.1,2,2,0,0,1-.12-.42,14.1,14.1,0,0,0,.87,1.41,8.67,8.67,0,0,0,3.67,2.48c1.76.73,4,1.23,6.44,2s5.1,1.62,7.86,2.63a140.84,140.84,0,0,1,13.83,5.93c1.72.86,3.1,1.59,4,2.11l1.08.62A1.57,1.57,0,0,1,335.08,334.57Z" transform="translate(-110.1 -5)"/><path class="cls-11" d="M359.85,321.81a8.87,8.87,0,0,1-3.44,2.84,8.76,8.76,0,0,1-4.28,1.24c0-.14,1.93-.53,4.06-1.67S359.75,321.7,359.85,321.81Z" transform="translate(-110.1 -5)"/><path class="cls-7" d="M494,411.73c0,.14-82.23.24-183.64.24s-183.65-.1-183.65-.24,82.21-.24,183.65-.24S494,411.6,494,411.73Z" transform="translate(-110.1 -5)"/><polygon class="cls-2" points="121.71 104.79 0.24 104.79 0.24 154.77 109.48 154.77 116.93 162.22 116.93 154.77 121.71 154.77 121.71 104.79"/><path class="cls-7" d="M231.8,109.79s0,.28,0,.85,0,1.43,0,2.54c0,2.26,0,5.57,0,9.86,0,8.62.05,21.13.09,36.73v.17H227l.18-.17c0,2.3,0,4.84,0,7.45v.44l-.32-.32-7.45-7.43.14.05-104,0H110.1v-.24c0-17.54,0-34.4,0-50v-.23h.23l87.32.11,25.16.06,6.69,0,1.72,0h0l-1.74,0-6.74,0-25.21.06-87.17.11.22-.23c0,15.58,0,32.44,0,50l-.24-.24h5.27l104,.05h.08l.05,0,7.44,7.46-.31.13c0-2.61,0-5.15,0-7.45v-.17h5l-.16.17c0-15.56.07-28,.09-36.63,0-4.3,0-7.63,0-9.89,0-1.13,0-2,0-2.58S231.8,109.79,231.8,109.79Z" transform="translate(-110.1 -5)"/><rect class="cls-3" x="51.02" y="119.09" width="59.66" height="4.18" rx="2.09"/><rect class="cls-3" x="51.02" y="128.41" width="59.66" height="4.18" rx="2.09"/><rect class="cls-3" x="51.02" y="137.73" width="59.66" height="4.18" rx="2.09"/><rect class="cls-6" x="10.29" y="115.13" width="30.73" height="30.73" rx="4.47"/><path class="cls-2" d="M123.42,144.62l-.71-.6,6.22-7.38a2.24,2.24,0,0,1,3.09-.54l3.66,2.44,4.32-5.45a2.27,2.27,0,0,1,3.45-.13l5.32,5.74-.68.63-5.32-5.75a1.35,1.35,0,0,0-2.05.08l-4.84,6.12-4.37-2.92a1.35,1.35,0,0,0-1.85.35Z" transform="translate(-110.1 -5)"/><circle class="cls-2" cx="22.91" cy="123.11" r="2.75"/><polygon class="cls-2" points="340.43 195.38 230 195.38 230 242.43 241.39 242.43 242.6 252.79 251.1 242.43 340.43 242.43 340.43 195.38"/><path class="cls-7" d="M450.52,200.38s0,.27,0,.81,0,1.35,0,2.39c0,2.13,0,5.25,0,9.29,0,8.12,0,19.89.09,34.56v.17h-.17l-89.32.07.18-.09L352.88,258l-.36.43-.06-.56c-.39-3.28-.8-6.81-1.21-10.36l.24.21H339.86v-.24c0-16.52,0-32.39,0-47.05v-.22h.23l79.45.11,22.83.06,6.07,0h2.07l-.54,0h-1.59l-6.11,0-22.88.06-79.3.11.23-.23c0,14.66,0,30.53,0,47.05l-.24-.24h11.6l0,.21c.41,3.56.82,7.08,1.2,10.37l-.42-.13L361,247.28l.07-.09h.11l89.32.07-.16.17c0-14.62.07-26.36.09-34.46,0-4.05,0-7.19,0-9.32,0-1.06,0-1.87,0-2.43S450.52,200.38,450.52,200.38Z" transform="translate(-110.1 -5)"/><path class="cls-3" d="M437.37,215.23H393.52A2.22,2.22,0,0,1,391.3,213h0a2.22,2.22,0,0,1,2.22-2.21h43.85a2.22,2.22,0,0,1,2.22,2.21h0A2.22,2.22,0,0,1,437.37,215.23Z" transform="translate(-110.1 -5)"/><path class="cls-3" d="M437.37,225.11H393.52a2.22,2.22,0,0,1-2.22-2.22h0a2.22,2.22,0,0,1,2.22-2.21h43.85a2.22,2.22,0,0,1,2.22,2.21h0A2.22,2.22,0,0,1,437.37,225.11Z" transform="translate(-110.1 -5)"/><path class="cls-3" d="M437.37,235H393.52a2.22,2.22,0,0,1-2.22-2.22h0a2.22,2.22,0,0,1,2.22-2.21h43.85a2.22,2.22,0,0,1,2.22,2.21h0A2.22,2.22,0,0,1,437.37,235Z" transform="translate(-110.1 -5)"/><rect class="cls-1" x="238.03" y="201.6" width="32.58" height="32.58" rx="4.47"/><path class="cls-2" d="M351.32,232.54l-.7-.59,6.58-7.83a2.37,2.37,0,0,1,3.25-.57l3.9,2.6,4.59-5.8a2.39,2.39,0,0,1,3.62-.14l5.64,6.1-.68.63-5.64-6.1a1.45,1.45,0,0,0-2.22.09l-5.11,6.46-4.62-3.07a1.45,1.45,0,0,0-2,.37Z" transform="translate(-110.1 -5)"/><path class="cls-2" d="M364.41,215.06a2.91,2.91,0,1,1-2.91-2.91A2.91,2.91,0,0,1,364.41,215.06Z" transform="translate(-110.1 -5)"/><path class="cls-2" d="M223.35,190.33H135.44a5.79,5.79,0,0,0-5.79,5.79v51.15a5.07,5.07,0,0,0,5.08,5.07h71.64l11.27,11.27V252.34h4.17a6.12,6.12,0,0,0,6.12-6.12v-51.3A4.59,4.59,0,0,0,223.35,190.33Z" transform="translate(-110.1 -5)"/><path class="cls-3" d="M26.23,185.33H113a4.85,4.85,0,0,1,4.85,4.85v6.64a.56.56,0,0,1-.56.56H20.12a.56.56,0,0,1-.56-.56V192A6.67,6.67,0,0,1,26.23,185.33Z"/><rect class="cls-8" x="29.59" y="207.26" width="29.42" height="29.42" rx="4.47"/><g class="cls-9"><path d="M166.54,230.34a6.78,6.78,0,0,1-1-.92L163,226.79,161.29,225A1.54,1.54,0,0,0,159,225c-1.26,1.61-2.65,3.36-4.1,5.2-.1.14-.21.27-.32.4l-.13.18-.19-.13-3.18-2.12-.74-.5a1.5,1.5,0,0,0-2,.42h0l-4.37,5L142.74,235a2.7,2.7,0,0,1-.49.47,3.13,3.13,0,0,1,.38-.56l1.17-1.48,4.24-5.17h0a1.93,1.93,0,0,1,1.62-.82,1.79,1.79,0,0,1,.95.26c.28.17.51.33.77.5l3.19,2.11-.32,0,.32-.4,4.14-5.19a1.93,1.93,0,0,1,1.48-.66,1.9,1.9,0,0,1,1.4.62l1.69,1.87,2.43,2.73A7.87,7.87,0,0,1,166.54,230.34Z" transform="translate(-110.1 -5)"/></g><g class="cls-9"><path d="M154.4,219.9a2.63,2.63,0,1,1-2.63-2.63A2.63,2.63,0,0,1,154.4,219.9Z" transform="translate(-110.1 -5)"/></g><path class="cls-7" d="M223.35,190.33a3.79,3.79,0,0,1,1.3.16,4.61,4.61,0,0,1,2.87,2.4,5.42,5.42,0,0,1,.49,2.76c0,1,0,2.15,0,3.37,0,2.44,0,5.24,0,8.37,0,6.29,0,13.94,0,22.74,0,4.4,0,9.09,0,14a10.64,10.64,0,0,1-.38,3.78,6.79,6.79,0,0,1-6.05,4.57c-1.35,0-2.68,0-4.05,0l.2-.2c0,3.52,0,7.35,0,11.27v.5l-.36-.35L206.22,252.5l.15.06-64.23,0h-6.32a11.11,11.11,0,0,1-2.14-.1,5.31,5.31,0,0,1-4.21-4.46,18.56,18.56,0,0,1-.06-2.09q0-8.25,0-16.24c0-10.65,0-20.92,0-30.7v-1.83a16.39,16.39,0,0,1,.06-1.84,5.89,5.89,0,0,1,1.59-3.31,6,6,0,0,1,3.16-1.77,9.13,9.13,0,0,1,1.79-.12h1.75l13.48,0,24.2,0,35,.08,9.53,0,2.48,0,.84,0-.84,0-2.48,0-9.53.05-35,.07-24.2,0-13.48,0a24.57,24.57,0,0,0-3.45.11,5.58,5.58,0,0,0-2.94,1.64,5.48,5.48,0,0,0-1.46,3.08,14.84,14.84,0,0,0-.06,1.78V199c0,9.78,0,20,0,30.7v16.24a17,17,0,0,0,.06,2,4.82,4.82,0,0,0,3.82,4,10.61,10.61,0,0,0,2,.09h6.32l64.23,0h.09l.07.07,11.26,11.27-.36.15V252.14h.2c1.36,0,2.72,0,4,0a6.44,6.44,0,0,0,5.72-4.3,10.2,10.2,0,0,0,.36-3.66c0-4.95,0-9.64,0-14,0-8.8,0-16.45,0-22.74,0-3.13,0-5.93,0-8.37,0-1.22,0-2.34,0-3.37a5.43,5.43,0,0,0-.44-2.71,4.59,4.59,0,0,0-2.79-2.39A7.56,7.56,0,0,0,223.35,190.33Z" transform="translate(-110.1 -5)"/><path class="cls-2" d="M138.13,196.15a2.07,2.07,0,1,1-2.07-2.07A2.07,2.07,0,0,1,138.13,196.15Z" transform="translate(-110.1 -5)"/><path class="cls-2" d="M144.36,196.15a2.08,2.08,0,1,1-2.07-2.07A2.07,2.07,0,0,1,144.36,196.15Z" transform="translate(-110.1 -5)"/><path class="cls-2" d="M150.58,196.15a2.07,2.07,0,1,1-2.07-2.07A2.07,2.07,0,0,1,150.58,196.15Z" transform="translate(-110.1 -5)"/><path class="cls-7" d="M214.79,218c0,.14-8,.24-17.94.24s-17.95-.1-17.95-.24,8-.24,17.95-.24S214.79,217.88,214.79,218Z" transform="translate(-110.1 -5)"/><path class="cls-7" d="M214.79,224.81c0,.14-8,.24-17.94.24s-17.95-.1-17.95-.24,8-.24,17.95-.24S214.79,224.68,214.79,224.81Z" transform="translate(-110.1 -5)"/><path class="cls-7" d="M214.79,231.61c0,.14-8,.24-17.94.24s-17.95-.1-17.95-.24,8-.24,17.95-.24S214.79,231.48,214.79,231.61Z" transform="translate(-110.1 -5)"/><polygon class="cls-2" points="267.33 127.11 361.51 127.11 361.51 174.7 283.88 174.7 275.23 183.34 275.23 174.7 267.33 174.7 267.33 127.11"/><path class="cls-7" d="M377.43,132.11s0,.3,0,.86,0,1.39,0,2.47c0,2.17,0,5.36.05,9.47,0,8.21.05,20.08.09,34.79l-.17-.18h8.09v.19c0,2.69,0,5.63,0,8.64l-.34-.14,8.64-8.65.06-.06H394l71.5,0h6.12l-.24.24c0-16.79,0-32.83,0-47.59l.22.23-67.71-.11-19.46-.06-5.19,0h-1.35l-.46,0h1.75l5.15,0,19.41-.06,67.86-.11h.23v.22c0,14.76,0,30.8,0,47.59v.24h-6.36l-71.5,0,.14-.06-8.65,8.63-.34.34v-.48c0-3,0-6,0-8.64l.19.19-7.9,0h-.18v-.17c0-14.75.07-26.66.1-34.9,0-4.09,0-7.26,0-9.43,0-1.06,0-1.88,0-2.44S377.43,132.11,377.43,132.11Z" transform="translate(-110.1 -5)"/><path class="cls-7" d="M455.74,146.63c0,.13-14.07.24-31.44.24s-31.44-.11-31.44-.24,14.08-.24,31.44-.24S455.74,146.5,455.74,146.63Z" transform="translate(-110.1 -5)"/><path class="cls-7" d="M455.74,153.43c0,.13-14.07.24-31.44.24s-31.44-.11-31.44-.24,14.08-.24,31.44-.24S455.74,153.3,455.74,153.43Z" transform="translate(-110.1 -5)"/><path class="cls-7" d="M455.74,160.23c0,.13-14.07.24-31.44.24s-31.44-.11-31.44-.24,14.08-.24,31.44-.24S455.74,160.1,455.74,160.23Z" transform="translate(-110.1 -5)"/><polygon class="cls-2" points="126.1 37.4 59.34 37.4 59.34 84.98 109.55 84.98 118.2 93.63 118.2 84.98 126.1 84.98 126.1 37.4"/><path class="cls-7" d="M236.19,42.4s0,.27,0,.83,0,1.4,0,2.48c0,2.2,0,5.41,0,9.52,0,8.29.05,20.2.1,34.75v.19h-.2l-7.9,0,.2-.21c0,2.71,0,5.64,0,8.65v.51l-.37-.36-8.65-8.64.16.07H169.2V90c0-17.13,0-33.3,0-47.58v-.22h.22l48.33.11,13.62.06,3.59,0,.91,0h-1l-3.63,0-13.67.06-48.19.1.21-.21c0,14.28,0,30.45,0,47.58l-.24-.24h6.12l44.09,0h.09l.06.07,8.64,8.65-.36.15c0-3,0-5.94,0-8.65v-.2h8.1L236,90c.05-14.5.08-26.37.1-34.63,0-4.13,0-7.36.05-9.57,0-1.09,0-1.93,0-2.51S236.19,42.4,236.19,42.4Z" transform="translate(-110.1 -5)"/><path class="cls-7" d="M184.87,56.91c0-.13,8-.24,17.95-.24s17.94.11,17.94.24-8,.24-17.94.24S184.87,57.05,184.87,56.91Z" transform="translate(-110.1 -5)"/><path class="cls-7" d="M184.87,63.71c0-.13,8-.24,17.95-.24s17.94.11,17.94.24-8,.24-17.94.24S184.87,63.85,184.87,63.71Z" transform="translate(-110.1 -5)"/><path class="cls-7" d="M184.87,70.51c0-.13,8-.24,17.95-.24s17.94.11,17.94.24-8,.24-17.94.24S184.87,70.65,184.87,70.51Z" transform="translate(-110.1 -5)"/><polygon class="cls-2" points="201.55 0.4 155.44 0.4 155.44 46.52 159.85 46.52 159.85 53.38 166.72 46.52 201.55 46.52 201.55 0.4"/><path class="cls-7" d="M311.65,5.4s0,.27,0,.82,0,1.39,0,2.44c0,2.17,0,5.32.05,9.32,0,8.09.07,19.63.11,33.54v.2h-.21l-34.83,0,.17-.07-6.87,6.88-.41.4V51.52l.24.24h-4.65v-.24c0-16.94,0-32.7,0-46.12V5.2h.2l33.53.1,9.32.06,2.44,0,.83,0s-.31,0-.87,0l-2.48,0-9.37,0-33.4.11.21-.21c0,13.42,0,29.18,0,46.12l-.24-.24h4.65v7.11l-.41-.17,6.87-6.87.07-.07h.1l34.83,0-.2.21c0-13.85.08-25.35.11-33.41,0-4,0-7.19.05-9.37,0-1.07,0-1.89,0-2.47S311.65,5.4,311.65,5.4Z" transform="translate(-110.1 -5)"/><path class="cls-6" d="M291.05,28.46A7,7,0,0,0,295.21,22,6.55,6.55,0,1,0,282.13,22a7,7,0,0,0,4.17,6.51c-10.07,1.52-9.61,12.46-9.61,12.46l23.8.11S301,30,291.05,28.46Z" transform="translate(-110.1 -5)"/><polygon class="cls-2" points="300.94 61.8 347.05 61.8 347.05 107.92 342.64 107.92 342.64 114.79 335.77 107.92 300.94 107.92 300.94 61.8"/><path class="cls-7" d="M411,66.8s0,.31,0,.87,0,1.41,0,2.48c0,2.17,0,5.34.05,9.36,0,8.06.07,19.56.11,33.41l-.2-.21,34.83,0h.1l.07.07,6.87,6.87-.41.17v-7.11h4.65l-.24.24c0-16.93,0-32.7,0-46.12l.2.21-33.4-.11-9.37-.05-2.48,0-.86,0,.82,0,2.44,0,9.32-.05,33.53-.11h.2v.2c0,13.42,0,29.19,0,46.12v.24h-4.65l.24-.24v7.45l-.41-.41c-2.36-2.36-4.68-4.69-6.87-6.87l.17.07-34.83,0h-.21v-.2c0-13.9.08-25.45.11-33.54,0-4,0-7.15.05-9.32,0-1,0-1.86,0-2.44S411,66.8,411,66.8Z" transform="translate(-110.1 -5)"/><path class="cls-8" d="M445.31,87.08a11.22,11.22,0,1,0-20.88,5.66h0l0,0c.43.73,1,1.25,1.51,2l6.52,8.62a2,2,0,0,0,3.23,0l6.4-8.48a22.51,22.51,0,0,0,1.63-2.16l0,0h0A11.09,11.09,0,0,0,445.31,87.08ZM434.09,92A4.94,4.94,0,1,1,439,87,4.94,4.94,0,0,1,434.09,92Z" transform="translate(-110.1 -5)"/><path class="cls-2" d="M314,225.11H266a4.36,4.36,0,0,0-4.36,4.36v44.26a4.36,4.36,0,0,0,4.36,4.36h39.39l7.9,7.89v-7.89h.7a4.36,4.36,0,0,0,4.36-4.36V229.47A4.36,4.36,0,0,0,314,225.11Z" transform="translate(-110.1 -5)"/><path class="cls-7" d="M314,225.11a3.47,3.47,0,0,1,1.07.1A4.43,4.43,0,0,1,317.6,227a4.54,4.54,0,0,1,.78,2.18c0,.86,0,1.77,0,2.77,0,2,0,4.3,0,6.87,0,5.14,0,11.37.05,18.52,0,3.57,0,7.37,0,11.37v4.59a5.56,5.56,0,0,1-.15,1.61,4.61,4.61,0,0,1-1.89,2.66,4.46,4.46,0,0,1-1.55.66,7.93,7.93,0,0,1-1.67.1l.21-.21v8.42l-.38-.37-7.9-7.89.16.07H265.8a4.56,4.56,0,0,1-4.31-3.51,5.59,5.59,0,0,1-.13-1.45v-9.67c0-7.26,0-14.27,0-20.94q0-5,0-9.75v-3.52a4.32,4.32,0,0,1,.16-1.19,4.55,4.55,0,0,1,3.19-3.21,8.22,8.22,0,0,1,2.24-.17h6.38l7.92,0,23.9.07,6.5.05,1.69,0,.58,0-.58,0-1.69,0-6.5,0-23.9.08H267a8,8,0,0,0-2.14.16,4.15,4.15,0,0,0-2.89,2.93,8.78,8.78,0,0,0-.15,2.26c0,.77,0,1.56,0,2.35q0,4.74,0,9.75c0,6.67,0,13.68,0,20.94V272a15.37,15.37,0,0,0,.12,2.74,4.18,4.18,0,0,0,1.4,2.22,4.08,4.08,0,0,0,2.46.92h39.64l.06.07,7.89,7.9L313,286v-8.1h.22a7.43,7.43,0,0,0,1.58-.09,3.93,3.93,0,0,0,1.41-.6,4.16,4.16,0,0,0,1.73-2.41,5.38,5.38,0,0,0,.14-1.51v-1.55c0-1,0-2,0-3,0-4,0-7.8,0-11.37,0-7.15,0-13.38.05-18.52,0-2.57,0-4.87,0-6.87,0-1,0-1.93,0-2.76a4.32,4.32,0,0,0-3.21-3.88A6,6,0,0,0,314,225.11Z" transform="translate(-110.1 -5)"/><rect class="cls-6" x="160.92" y="230.73" width="38.62" height="32.5" rx="7.67"/><path class="cls-2" d="M287.78,259.12a1.51,1.51,0,0,1-2.26-1.3V246.14a1.51,1.51,0,0,1,2.26-1.31l5.06,2.92,5.06,2.92a1.51,1.51,0,0,1,0,2.61l-5.06,2.92Z" transform="translate(-110.1 -5)"/><circle class="cls-2" cx="373.86" cy="38.07" r="32.88" transform="translate(-91.58 155.35) rotate(-24.8)"/><path class="cls-7" d="M406.73,38.07s0-.18-.05-.53-.06-.89-.1-1.56c0-.34-.05-.73-.07-1.15s-.14-.87-.21-1.37a24.3,24.3,0,0,0-.69-3.39A31.48,31.48,0,0,0,402,21.35a32.67,32.67,0,0,0-8.33-9.27A32.32,32.32,0,0,0,379.89,6a31.06,31.06,0,0,0-4.13-.48c-.71,0-1.42-.09-2.13-.08l-2.17.11c-.36,0-.72,0-1.09.07l-1.09.17c-.72.12-1.46.2-2.19.36a34.82,34.82,0,0,0-4.36,1.27,34,34,0,0,0-4.25,1.88c-.69.37-1.35.81-2,1.21a17.28,17.28,0,0,0-2,1.36,37.61,37.61,0,0,0-3.7,3.15,36.49,36.49,0,0,0-3.2,3.78,31.61,31.61,0,0,0-4.66,9,34.83,34.83,0,0,0-1.69,10.3,35.15,35.15,0,0,0,1.68,10.3c.3.81.6,1.61.89,2.42l1.11,2.3a7.46,7.46,0,0,0,.61,1.11l.65,1.08.66,1.08.75,1a37.69,37.69,0,0,0,3.2,3.79,35.42,35.42,0,0,0,3.7,3.15,17.19,17.19,0,0,0,2,1.35c.68.41,1.35.84,2,1.22A35.92,35.92,0,0,0,367.09,70c.73.15,1.47.24,2.2.36l1.08.17c.37,0,.73,0,1.1.07l2.16.11c.71,0,1.42-.06,2.13-.08a31.06,31.06,0,0,0,4.13-.48A32.8,32.8,0,0,0,402,54.79a31.55,31.55,0,0,0,3.64-8.71,24.3,24.3,0,0,0,.69-3.39c.07-.5.16-1,.21-1.38s.05-.8.07-1.15c0-.67.08-1.19.1-1.55s.05-.54.05-.54,0,.18,0,.54,0,.89-.06,1.56c0,.35,0,.73,0,1.16s-.12.88-.19,1.38a22.84,22.84,0,0,1-.65,3.41,30.94,30.94,0,0,1-3.59,8.81A33,33,0,0,1,380,70.56a31.62,31.62,0,0,1-4.18.5c-.71,0-1.43.09-2.16.09L371.44,71c-.37,0-.74,0-1.11-.07l-1.1-.17c-.74-.12-1.49-.2-2.23-.36a34.09,34.09,0,0,1-4.42-1.28,37.23,37.23,0,0,1-4.32-1.89c-.7-.38-1.37-.82-2.06-1.23a16.85,16.85,0,0,1-2-1.37,37.75,37.75,0,0,1-3.76-3.19,36.41,36.41,0,0,1-3.25-3.84l-.76-1-.67-1.09-.67-1.09a8.21,8.21,0,0,1-.61-1.13L343.35,51l-.9-2.45a35.51,35.51,0,0,1-1.71-10.45,35.45,35.45,0,0,1,1.71-10.45,32.42,32.42,0,0,1,4.74-9.12,37.53,37.53,0,0,1,3.25-3.83,36.46,36.46,0,0,1,3.76-3.19,16.85,16.85,0,0,1,2-1.37c.69-.41,1.36-.85,2.06-1.23A34.1,34.1,0,0,1,362.58,7,35.8,35.8,0,0,1,367,5.7c.74-.15,1.49-.23,2.22-.35l1.11-.17c.37,0,.74,0,1.1-.07L373.62,5c.73,0,1.45.06,2.16.09a31.82,31.82,0,0,1,4.18.49A33.09,33.09,0,0,1,402.2,21.22a30.78,30.78,0,0,1,3.59,8.8,22.71,22.71,0,0,1,.65,3.42c.07.5.15,1,.19,1.38s0,.81,0,1.15c0,.68.05,1.2.06,1.57S406.73,38.07,406.73,38.07Z" transform="translate(-110.1 -5)"/><path class="cls-7" d="M367.85,50.78a5.54,5.54,0,0,0,3-.8c.41-.39.62-1.44.62-3.16V36.33a6.76,6.76,0,0,0-.2-2,1.33,1.33,0,0,0-1.39-.9,2.42,2.42,0,0,0-.47,0c-.15,0-.6.14-1.33.35v-.68l.95-.31q3.84-1.26,5.36-1.89a2.89,2.89,0,0,1,.79-.27,1.26,1.26,0,0,1,.05.33V46.82c0,1.68.2,2.72.6,3.15a4.47,4.47,0,0,0,2.74.81v.62H367.85Zm3.5-29.41a2.31,2.31,0,0,1,3.24,0,2.21,2.21,0,0,1,.67,1.63,2.29,2.29,0,0,1-3.91,1.61,2.2,2.2,0,0,1-.66-1.61A2.27,2.27,0,0,1,371.35,21.37Z" transform="translate(-110.1 -5)"/><path class="cls-2" d="M351.73,74.43a5.18,5.18,0,1,1-5.17-5.17A5.18,5.18,0,0,1,351.73,74.43Z" transform="translate(-110.1 -5)"/><path class="cls-7" d="M351.73,74.43c-.05,0,0-.46-.26-1.24a5.16,5.16,0,0,0-1.89-2.74,5,5,0,1,0,0,8,5.14,5.14,0,0,0,1.89-2.73c.22-.78.21-1.24.26-1.24a1.39,1.39,0,0,1,0,.33,4.22,4.22,0,0,1-.1.95,5.18,5.18,0,0,1-1.87,3,5.32,5.32,0,0,1-5.07.82,5.23,5.23,0,0,1-2.52-1.87,5.36,5.36,0,0,1,7.59-7.44,5.21,5.21,0,0,1,1.87,3,4.36,4.36,0,0,1,.1,1A1.5,1.5,0,0,1,351.73,74.43Z" transform="translate(-110.1 -5)"/></svg>