<svg id="Layer_1" data-name="Layer 1" xmlns="http://www.w3.org/2000/svg" viewBox="0 0 617.97 369.19"><defs><style>.cls-1{fill:#ebebeb;}.cls-2{fill:#f5f5f5;}.cls-3{fill:#e0e0e0;}.cls-4{fill:#263238;}.cls-5{fill:#c17560;}.cls-6{fill:#ffbe9d;}.cls-7{fill:#eb996e;}.cls-8{fill:#7c4236;}.cls-9{fill:#455a64;}.cls-10,.cls-12{opacity:0.3;}.cls-11{fill:#ff735d;}.cls-13{fill:#fff;}.cls-14{opacity:0.2;}</style></defs><path class="cls-1" d="M198.57,50.69a13.72,13.72,0,0,0-5.12,2.48,7.06,7.06,0,0,1-1.68,1l-6.67-27.2a3.74,3.74,0,0,0-4.52-2.73l-28.3,6.94.79,3.21a5.8,5.8,0,0,0,1,2.06,12.36,12.36,0,0,1-7.6,19.34,12.46,12.46,0,0,1-14.23-8.34,12.25,12.25,0,0,1-.35-6.19,6.17,6.17,0,0,0,0-2.67l-.56-2.25-28.69,6.94a4.59,4.59,0,0,0-3.36,5.55L105.37,74l-2,.48c-.22.06-.45.11-.68.15a15.08,15.08,0,1,0,4.67,24.88,5.86,5.86,0,0,1,1.15-.42l2.51-.62L118,126.64a4.57,4.57,0,0,0,5.54,3.36l78.3-19.21a3.73,3.73,0,0,0,2.74-4.51l-7-28.66a7.25,7.25,0,0,1,1.53.17,13.7,13.7,0,0,0,8.4-.86,13.91,13.91,0,0,0-8.89-26.24Z" transform="translate(-3.67 -24.1)"/><path class="cls-1" d="M547.24,201.06a8.75,8.75,0,0,0,3.5.8A5,5,0,0,1,552,202l-7.44,16a2.34,2.34,0,0,0,1.14,3.12l16.66,7.74.88-1.89a3.94,3.94,0,0,0,.34-1.39,7.58,7.58,0,0,1,.71-2.87,7.8,7.8,0,0,1,14.36,6.06,7.57,7.57,0,0,1-2.27,3.18,4,4,0,0,0-1,1.33l-.62,1.33,16.85,7.89a2.9,2.9,0,0,0,3.84-1.4l6.91-14.84,1.15.53.39.2A9.51,9.51,0,1,0,611.33,213a3.7,3.7,0,0,1-.73-.25l-1.48-.68,7.7-16.57a2.89,2.89,0,0,0-1.41-3.84l-46.08-21.41a2.36,2.36,0,0,0-3.13,1.14l-7.84,16.87a4.37,4.37,0,0,1-.68-.68,8.57,8.57,0,0,0-4.47-2.89,8.77,8.77,0,0,0-6,16.41Z" transform="translate(-3.67 -24.1)"/><path class="cls-2" d="M575.43,380.3a6.74,6.74,0,0,0,1.69-2.24,3.08,3.08,0,0,1,.51-.81l9.11,10.41a1.86,1.86,0,0,0,2.61.17l10.83-9.48-1.08-1.23a2.85,2.85,0,0,0-.89-.69,6,6,0,0,1-1.83-1.42,6.12,6.12,0,1,1,10.47-5.73,3,3,0,0,0,.62,1.16l.75.86,11-9.57a2.25,2.25,0,0,0,.21-3.19L611,348.87l.75-.65A2.75,2.75,0,0,1,612,348a7.46,7.46,0,1,0-7.7-9.85,3.47,3.47,0,0,1-.41.45l-1,.84-9.44-10.78a2.25,2.25,0,0,0-3.19-.21l-30,26.24a1.85,1.85,0,0,0-.17,2.6l9.6,11a2.89,2.89,0,0,1-.71.27,6.86,6.86,0,1,0,6.38,11.77Z" transform="translate(-3.67 -24.1)"/><path class="cls-2" d="M468.58,70.09a10.63,10.63,0,0,0-4.47-.27,6,6,0,0,1-1.53,0l5.9-21.27A2.94,2.94,0,0,0,466.43,45L444.3,38.8l-.7,2.51a4.7,4.7,0,0,0-.14,1.79,9.5,9.5,0,0,1-.29,3.69,9.75,9.75,0,1,1-16.81-8.94,4.85,4.85,0,0,0,1-1.85l.48-1.76-22.4-6.3A3.63,3.63,0,0,0,401,30.46l-5.5,19.72L394,49.76l-.52-.16a11.9,11.9,0,1,0-6.4,18.9,4.38,4.38,0,0,1,1,.16l2,.54-6.11,22a3.62,3.62,0,0,0,2.52,4.45l61.25,17a3,3,0,0,0,3.62-2l6.22-22.42a6.18,6.18,0,0,1,1,.71,10.74,10.74,0,0,0,6.1,2.65,11,11,0,0,0,4-21.47Z" transform="translate(-3.67 -24.1)"/><path class="cls-2" d="M10.32,299.2a10.26,10.26,0,0,0,4.17.62,5.28,5.28,0,0,1,1.43.1L8.68,319.35a2.78,2.78,0,0,0,1.63,3.56l20.22,7.53.85-2.3a4.26,4.26,0,0,0,.27-1.66,9.15,9.15,0,0,1,12.7-8.68,9.24,9.24,0,0,1,5.25,11,9.06,9.06,0,0,1-2.36,3.93,4.6,4.6,0,0,0-1.1,1.65l-.6,1.61L66,343.72a3.4,3.4,0,0,0,4.37-2l6.73-18,1.4.52.47.2a11.17,11.17,0,1,0,7.5-17.18,4.53,4.53,0,0,1-.88-.22l-1.79-.67,7.49-20.11a3.4,3.4,0,0,0-2-4.37L33.35,261a2.78,2.78,0,0,0-3.56,1.63l-7.62,20.48a5.66,5.66,0,0,1-.87-.74,10.1,10.1,0,0,0-5.5-3,10.3,10.3,0,0,0-5.48,19.77Z" transform="translate(-3.67 -24.1)"/><path class="cls-3" d="M302.78,255.73c5-.35,9.32,1,13.49,3a15,15,0,0,0,6.12,1.5l5.46-.13.07-60.74a10.42,10.42,0,0,0-10.45-10.39l-57.74.22v-1.25a16.06,16.06,0,0,1,1.69-7,31.91,31.91,0,0,0,2.74-19.51,32.47,32.47,0,0,0-64.42,5.56,31.79,31.79,0,0,0,2.76,13,16.11,16.11,0,0,1,1.44,6.5l.34,2.74H134.69a10.42,10.42,0,0,0-10.45,10.38v59.4h-5a15.22,15.22,0,0,1-6.64-1.61,31.32,31.32,0,0,0-18.8-2.59,30.72,30.72,0,0,0,5.26,61,30.17,30.17,0,0,0,12.28-2.61,15.06,15.06,0,0,1,6.15-1.37h6.37l.13,72.65a8.49,8.49,0,0,0,8.51,8.46H318.79c4.7,0,8.39-5.9,8.39-10.57v-66h-7.54a13.59,13.59,0,0,0-5.08,1A28.19,28.19,0,0,1,275.86,290C276.42,275.93,288.61,256.71,302.78,255.73Z" transform="translate(-3.67 -24.1)"/><path class="cls-4" d="M302.78,255.73l-.49.06a13.43,13.43,0,0,0-1.46.22,20,20,0,0,0-5.47,1.94c-4.54,2.32-10.5,7.62-15,16.46A39.22,39.22,0,0,0,276,290.18a28.79,28.79,0,0,0,1.29,9.33,27.51,27.51,0,0,0,4.78,9A27.92,27.92,0,0,0,301.64,319,27.57,27.57,0,0,0,314,317.29a14.6,14.6,0,0,1,6.46-1.22h6.9v.15q0,15.66,0,33.26,0,8.79,0,18v14.1a11.52,11.52,0,0,1-.83,4.77,12.34,12.34,0,0,1-2.59,4.15,7.72,7.72,0,0,1-4.32,2.41c-.85.09-1.66.05-2.5.06H245.6l-95,0H138c-2.11,0-4.19.05-6.35,0a8.75,8.75,0,0,1-7.86-8.93c0-2.14,0-4.28,0-6.43q0-6.44,0-12.95-.06-26-.1-53l.23.23h-4c-1.33,0-2.67-.06-4,.1a15.5,15.5,0,0,0-3.83,1,39.14,39.14,0,0,1-3.79,1.47A30.5,30.5,0,0,1,77.55,307a30.93,30.93,0,0,1-5.16-6.7,31.36,31.36,0,0,1-1.82-3.84c-.24-.67-.54-1.32-.74-2l-.56-2.06A31.35,31.35,0,0,1,71.16,272a30.77,30.77,0,0,1,23.69-17.7,31.8,31.8,0,0,1,10.12.24,31.27,31.27,0,0,1,4.87,1.32c.8.29,1.58.6,2.34,1s1.49.71,2.28,1c3.09,1.22,6.48.77,9.78.86l-.23.23V220.87q0-9.37,0-18.63a29,29,0,0,1,.18-4.64,10.3,10.3,0,0,1,1.84-4.28A10.67,10.67,0,0,1,134,189l70.33,0-.21.24c-.11-.93-.23-1.83-.34-2.73h0v0a15.37,15.37,0,0,0-.83-4.9c-.26-.79-.61-1.54-.94-2.32s-.61-1.58-.87-2.38a32,32,0,0,1-1.55-9.87l.13-2.48c0-.42,0-.83.09-1.24L200,162c.15-.81.22-1.64.44-2.43l.66-2.37a7.53,7.53,0,0,1,.39-1.16l.45-1.14a16.08,16.08,0,0,1,1-2.24L204,150.5l1.34-2a31.56,31.56,0,0,1,6.58-7l.93-.75,1-.66c.67-.42,1.32-.88,2-1.28a36.92,36.92,0,0,1,4.27-2,32.33,32.33,0,0,1,9-2.16,30.89,30.89,0,0,1,4.61-.07c.77.05,1.53.06,2.29.14l2.26.34A32.86,32.86,0,0,1,254.18,143,32.24,32.24,0,0,1,264,173.91a33.57,33.57,0,0,1-2.73,7.6,16.56,16.56,0,0,0-1.17,3.74,18.76,18.76,0,0,0-.25,3.89l-.17-.17,43.93-.14,10,0h2.44c.8,0,1.61,0,2.42.05a10.57,10.57,0,0,1,9.43,9,41.45,41.45,0,0,1,.11,4.44c0,1.45,0,2.89,0,4.31,0,22.71-.08,40.76-.11,53.45v.07h-.07c-2.2,0-4.24.13-6.16.09a15.46,15.46,0,0,1-5.11-1.33A33.72,33.72,0,0,0,309,256.2a23.74,23.74,0,0,0-4.7-.51c-.52,0-.91,0-1.16,0h-.39a12.8,12.8,0,0,1,1.55-.07,22.4,22.4,0,0,1,4.71.47,33.59,33.59,0,0,1,7.58,2.65,15.41,15.41,0,0,0,5.08,1.31c1.9,0,3.95-.07,6.15-.11l-.07.07c0-12.69,0-30.74,0-53.45v-4.31a40.4,40.4,0,0,0-.11-4.4,10.21,10.21,0,0,0-4.81-7.31,10.44,10.44,0,0,0-4.4-1.47c-.78-.06-1.58-.05-2.39,0h-2.44l-10,0-43.92.18h-.17v-.16a19.47,19.47,0,0,1,.25-3.95,17.26,17.26,0,0,1,1.19-3.82,33.54,33.54,0,0,0,2.7-7.54,31.87,31.87,0,0,0-9.77-30.58,32.45,32.45,0,0,0-15.66-7.82l-2.23-.34c-.75-.08-1.51-.09-2.27-.14a32.94,32.94,0,0,0-4.55.07,32,32,0,0,0-8.94,2.15,35.87,35.87,0,0,0-4.21,2c-.67.4-1.31.85-2,1.27l-1,.65-.91.74a31.26,31.26,0,0,0-6.5,6.88l-1.32,2-1.12,2.13a16.15,16.15,0,0,0-1,2.21l-.44,1.12a6.77,6.77,0,0,0-.39,1.15l-.65,2.34c-.22.78-.29,1.6-.44,2.4l-.2,1.21c0,.4,0,.81-.08,1.22l-.13,2.45a31.48,31.48,0,0,0,1.54,9.74c.25.79.54,1.58.86,2.35s.68,1.54,1,2.35a15.85,15.85,0,0,1,.85,5v0c.11.9.22,1.79.34,2.73l0,.24h-.24l-70.3.05a10.17,10.17,0,0,0-7.58,4.19,9.84,9.84,0,0,0-1.76,4.09,28.67,28.67,0,0,0-.17,4.56v56.91h-5.2a14.79,14.79,0,0,1-5-.89,25.07,25.07,0,0,1-2.31-1c-.75-.35-1.52-.66-2.3-.94a30.52,30.52,0,0,0-4.81-1.31,31.74,31.74,0,0,0-10-.23,30.35,30.35,0,0,0-23.33,17.44,30.81,30.81,0,0,0-1.86,20l.55,2c.2.67.5,1.31.74,2a29.59,29.59,0,0,0,1.78,3.78,30.66,30.66,0,0,0,19.35,14.56A30,30,0,0,0,108.2,314c1.29-.4,2.5-.93,3.76-1.46a15.93,15.93,0,0,1,4-1c1.36-.15,2.69-.07,4-.09h4.2v.23q0,26.94.09,53,0,6.51,0,12.95,0,3.22,0,6.43a8.28,8.28,0,0,0,7.46,8.48c2.06.09,4.21,0,6.3,0h12.56l95,0h71.51c.83,0,1.67,0,2.45-.06a7.26,7.26,0,0,0,4.11-2.3,12,12,0,0,0,2.52-4,11.3,11.3,0,0,0,.81-4.64v-4.76q0-4.72,0-9.34,0-9.24,0-18,0-17.58,0-33.26l.15.14h-6.76a14.31,14.31,0,0,0-6.36,1.19,27.86,27.86,0,0,1-12.45,1.7,28.25,28.25,0,0,1-19.77-10.57,27.83,27.83,0,0,1-4.8-9.1,29.19,29.19,0,0,1-1.28-9.4,39.38,39.38,0,0,1,4.47-15.83c4.52-8.86,10.53-14.15,15.1-16.46a19.83,19.83,0,0,1,5.49-1.91,12.48,12.48,0,0,1,1.47-.2Z" transform="translate(-3.67 -24.1)"/><path class="cls-2" d="M546.77,258.21a31.06,31.06,0,0,0-12.68,2.7,16.24,16.24,0,0,1-4.24,1.24V198.3a8.51,8.51,0,0,0-8.51-8.51H454.9v7.54a13.6,13.6,0,0,0,1,5.08,28.17,28.17,0,0,1-27.32,38.7,28.43,28.43,0,0,1-27-26.2A27.91,27.91,0,0,1,404.17,201a14.09,14.09,0,0,0,1.38-5.94v-5.29l-67.31-.21A10.45,10.45,0,0,0,327.79,200l-.07,59.22h-4.58c-.53,0-1.05,0-1.58-.06a34.39,34.39,0,1,0-3.19,57.64,13.1,13.1,0,0,1,2.79-.3h5.89v66.09a10.45,10.45,0,0,0,10.45,10.45H521.34a8.51,8.51,0,0,0,8.51-8.51V317.27a17.07,17.07,0,0,1,3.29,1.2,31.2,31.2,0,0,0,19.07,2.68,31.72,31.72,0,0,0-5.44-62.94Z" transform="translate(-3.67 -24.1)"/><path class="cls-4" d="M546.77,258.21l2,.09a15.64,15.64,0,0,1,2.46.24l1.58.25a10.53,10.53,0,0,1,1.78.41l2,.54c.69.23,1.4.54,2.15.83.37.15.76.29,1.15.46l1.15.59a23.33,23.33,0,0,1,2.4,1.35,31.82,31.82,0,0,1,14.83,24.83c0,.76.1,1.54.1,2.32s-.08,1.58-.13,2.38c0,.4,0,.81-.08,1.21l-.18,1.21c-.07.41-.13.81-.19,1.22s-.19.81-.29,1.22a31.6,31.6,0,0,1-4,9.58,31.47,31.47,0,0,1-18.2,13.64c-1,.31-2,.46-3,.7s-2.09.31-3.15.38a30.54,30.54,0,0,1-6.47-.19,30.86,30.86,0,0,1-6.47-1.58c-2.15-.72-4.09-2-6.33-2.48l.18-.14q0,15.5,0,32.87,0,8.67,0,17.78v16.26c0,.39,0,.8,0,1.2a9.53,9.53,0,0,1-.2,1.19,8.71,8.71,0,0,1-6.67,6.5,12.09,12.09,0,0,1-2.47.18H450.33l-93.3,0H338.5a15.22,15.22,0,0,1-3.15-.21,11.8,11.8,0,0,1-3-1.1,10.8,10.8,0,0,1-4.38-4.55,10.44,10.44,0,0,1-1-3,18,18,0,0,1-.16-3.19V316.53l.23.23H322.8c-.72,0-1.48,0-2.2,0a13.43,13.43,0,0,0-2.18.29l.07,0a34.49,34.49,0,0,1-14,4.42,34.56,34.56,0,0,1-35.9-23.21,35.66,35.66,0,0,1-1.9-11,37.16,37.16,0,0,1,1.67-10.94,34.62,34.62,0,0,1,5-9.78,37.6,37.6,0,0,1,3.57-4.19l2-1.84c.69-.61,1.45-1.11,2.17-1.67a35.82,35.82,0,0,1,9.72-4.9,37.84,37.84,0,0,1,10.71-1.59A34.42,34.42,0,0,1,321.69,259l-.11-.05c2,.1,4.1,0,6.14.06l-.23.22q0-19,.05-37.45,0-9.24,0-18.33v-2.27c0-.76,0-1.52.07-2.29a10.68,10.68,0,0,1,8.79-9.38,29.61,29.61,0,0,1,4.5-.15h4.45l8.84,0,17.44.06,33.9.11h.21v4.95a14.18,14.18,0,0,1-.67,4.71,21,21,0,0,1-.88,2.2c-.33.7-.61,1.42-.88,2.14a27.93,27.93,0,0,0-1.18,4.46,27.59,27.59,0,0,0,2.71,17.63,28.1,28.1,0,0,0,5.25,7.14,29.27,29.27,0,0,0,7.1,5.1,27.59,27.59,0,0,0,16.67,2.71,28,28,0,0,0,14.78-7.06,27.33,27.33,0,0,0,5.11-6.27,26.59,26.59,0,0,0,3.07-7.33,27.61,27.61,0,0,0-.33-15.33c-.35-1.22-.92-2.36-1.26-3.6a13.59,13.59,0,0,1-.52-3.79v-7.61h.17l48.62,0h16.2c.87,0,1.73,0,2.6.06a8.91,8.91,0,0,1,2.5.68,8.65,8.65,0,0,1,5.15,8q0,4.81,0,9.36c0,24.24,0,42.68-.06,54.43l-.06,0c3-.39,5.24-1.85,7.37-2.43a32,32,0,0,1,5.32-1.2,29.42,29.42,0,0,1,3.2-.25c.7,0,1,0,1,0l-1,0a28.53,28.53,0,0,0-3.19.28,30.78,30.78,0,0,0-5.3,1.22c-2.11.59-4.36,2.06-7.38,2.46h-.07v-.07c0-11.75,0-30.19-.06-54.43q0-4.54,0-9.36a8.41,8.41,0,0,0-7.43-8.38c-.83-.08-1.7,0-2.57,0h-16.2l-48.62,0,.17-.17v7.45a13.15,13.15,0,0,0,.51,3.69c.33,1.2.91,2.36,1.26,3.6a27.92,27.92,0,0,1,.35,15.52,27.42,27.42,0,0,1-3.1,7.43A28.38,28.38,0,0,1,433.93,241a28,28,0,0,1-16.9-2.73,29.57,29.57,0,0,1-7.19-5.17A28.38,28.38,0,0,1,401.75,208a27.39,27.39,0,0,1,1.2-4.52c.27-.74.55-1.47.88-2.19a19,19,0,0,0,.87-2.15,13.83,13.83,0,0,0,.64-4.58v-4.74l.21.21-33.9-.1-17.45-.05-8.83,0h-4.45a28.15,28.15,0,0,0-4.42.15,10.24,10.24,0,0,0-8.43,9c-.06.73-.07,1.48-.06,2.25v2.27q0,9.09,0,18.33,0,18.47,0,37.46v.23h-.23c-2.05,0-4.08,0-6.18-.06h-.06l-.06,0a34,34,0,0,0-19.83-6.55A37.93,37.93,0,0,0,291,254.4a35.37,35.37,0,0,0-9.58,4.83c-.72.56-1.47,1.06-2.15,1.65l-2,1.82a36.39,36.39,0,0,0-3.52,4.13,34.14,34.14,0,0,0-5,9.66,36.11,36.11,0,0,0-1.65,10.79,34.38,34.38,0,0,0,9.9,23.75,34.38,34.38,0,0,0,27.39,10,34.12,34.12,0,0,0,13.8-4.36l0,0h0a12.39,12.39,0,0,1,2.26-.3c.76,0,1.49,0,2.22,0h4.48v52.2q0,6.38,0,12.7a16.8,16.8,0,0,0,.16,3.11,9.71,9.71,0,0,0,.95,2.92,10.31,10.31,0,0,0,4.2,4.35,11.19,11.19,0,0,0,2.86,1.06,14.77,14.77,0,0,0,3.06.2H357l93.3,0h70.31a11.75,11.75,0,0,0,2.39-.18,8.34,8.34,0,0,0,6.41-6.22,9.39,9.39,0,0,0,.23-2.31v-7.05q0-4.67,0-9.21,0-9.1,0-17.78,0-17.36,0-32.87v-.19l.18.05c2.29.52,4.25,1.79,6.36,2.5a31.13,31.13,0,0,0,12.82,1.77c1.05-.07,2.09-.22,3.12-.38s2-.39,3-.69A31.69,31.69,0,0,0,565.8,315a32.07,32.07,0,0,0,7.48-8.22,31.45,31.45,0,0,0,4-9.51l.28-1.21c.07-.4.13-.81.19-1.21s.12-.8.19-1.2,0-.8.08-1.2c.05-.8.09-1.59.13-2.37s-.07-1.55-.1-2.31a31.61,31.61,0,0,0-14.69-24.73,21.6,21.6,0,0,0-2.39-1.36l-1.15-.6c-.38-.17-.77-.31-1.14-.46-.75-.29-1.45-.6-2.14-.83l-2-.56a11.6,11.6,0,0,0-1.78-.41l-1.57-.26a14.62,14.62,0,0,0-2.45-.26Z" transform="translate(-3.67 -24.1)"/><path class="cls-5" d="M322.75,270s3-1.55,5.68-1,12.34,6.89,12.34,6.89l7.8-1.45,4.59,22L322.75,309.1Z" transform="translate(-3.67 -24.1)"/><path class="cls-6" d="M300.26,277.67s7-.88,9.49-2.15,8.54-6.6,9.8-6.5,5.82,1,5.82,1l-1.84,5.53s9.12,5.54,11.84,7.57,11.25,11.17,11.64,13.4-.29,4.85-1.36,5.72-4.95-.87-4.95-.87a4.83,4.83,0,0,1-.87,4c-1.45,1.94-4.85,1.26-4.85,1.26s-.29,3.2-1.85,3.79-5-1.17-5-1.17-1.06,2.72-2.32,3-4.86-1.84-4.86-1.84-15.53-11.16-19-12.81a18,18,0,0,0-4.56-1.75Z" transform="translate(-3.67 -24.1)"/><path class="cls-7" d="M328.09,309.2c-.07,0-.12-.27-.28-.68A12.44,12.44,0,0,0,327,307a10,10,0,0,1-1.2-2.21,5.33,5.33,0,0,1,1.6,2,5.68,5.68,0,0,1,.7,1.69C328.22,308.9,328.15,309.21,328.09,309.2Z" transform="translate(-3.67 -24.1)"/><path class="cls-7" d="M334.54,307.31a22.63,22.63,0,0,1-2-2.93c-1.06-1.61-2.2-2.69-2.12-2.79a6.74,6.74,0,0,1,2.51,2.53A9.53,9.53,0,0,1,334.54,307.31Z" transform="translate(-3.67 -24.1)"/><path class="cls-7" d="M340.77,301.71c-.14,0-.57-1.64-1.64-3.45s-2.31-3-2.21-3.13a7.57,7.57,0,0,1,2.61,2.89A7.37,7.37,0,0,1,340.77,301.71Z" transform="translate(-3.67 -24.1)"/><path class="cls-7" d="M336.22,289.6a5.46,5.46,0,0,1,.52,2.6,5.75,5.75,0,0,1-.28,2.64,11.14,11.14,0,0,1-.19-2.62A11.78,11.78,0,0,1,336.22,289.6Z" transform="translate(-3.67 -24.1)"/><path class="cls-5" d="M313.63,280.86s2.42-7.76,3.3-8.73,9-3.11,9-3.11l2.51,6.5-1.8,1.91-3.88-.26S320.32,283.58,313.63,280.86Z" transform="translate(-3.67 -24.1)"/><path class="cls-5" d="M298.74,296.22s-1.11.85,0,2.89,4.11.58,5.08,0c0,0-1.45,3.39.39,4.46a7.26,7.26,0,0,0,4.08.78s-.1,2,2.52,3.4,3.3,0,3.3,0,.29,3.39,3.3,3.68,4.07-.74,4.07-.74l-1.35-2s1.75-3.57.39-5.12a4.67,4.67,0,0,0-3.59-1.36s.59-3.15-1.14-4a3.19,3.19,0,0,0-4.59,1.41s-.19-3.45-2.72-3.37a5.58,5.58,0,0,0-3.88,1.63Z" transform="translate(-3.67 -24.1)"/><path class="cls-8" d="M311.2,299.59a7.45,7.45,0,0,1-1.16,2.59,7.36,7.36,0,0,1-1.7,2.27,10.82,10.82,0,0,1,1.3-2.51A10.57,10.57,0,0,1,311.2,299.59Z" transform="translate(-3.67 -24.1)"/><path class="cls-8" d="M317,302.65a7,7,0,0,1-1.32,2.69,6.87,6.87,0,0,1-2,2.2,16.37,16.37,0,0,1,1.64-2.47A15.85,15.85,0,0,1,317,302.65Z" transform="translate(-3.67 -24.1)"/><path class="cls-4" d="M256.87,339.27H242.15l-3.77,53.54h14.76c2.52-8.15,8.8-50.64,8.8-50.64Z" transform="translate(-3.67 -24.1)"/><path class="cls-4" d="M173.5,339.27s-9.42,22.1-8.48,31,6.23,22.5,6.23,22.5h72.91a166.58,166.58,0,0,0,3.61-18.52c1.57-11,5.81-35,5.81-35Z" transform="translate(-3.67 -24.1)"/><path class="cls-4" d="M269.85,126.06c-2.46-3.11-5.51-6.1-6.14-10-.58-3.6,1-7.54-.62-10.81-2-4-7.69-4.81-10.16-8.55-1.2-1.81-1.49-4.11-2.67-5.93-2-3.1-6.15-4.1-9.85-3.89s-7.3,1.36-11,1.44c-5.07.11-10.22-1.8-15.14-.58-5.44,1.34-9,5.92-12.66,10.34l-4.81,5.11a20.39,20.39,0,0,1-3.15,2.31c-2,1.14-4.2,1.89-5.92,3.39a9,9,0,0,0,0,12.93,9.57,9.57,0,0,0-6.91,9.07c0,2.26.85,4.41,1.41,6.59s.86,4.59-.13,6.61-3.71,3.3-5.61,2.1a10.07,10.07,0,0,0,5.16,7,6,6,0,0,1-4.14,1.61c3.64,9.83,14.56,15.43,25,16s20.68-2.94,30.59-6.39l28.55-6c2.5-.45,3.68-3.41,3.76-5.95s-.43-5.21.59-7.54c1.4-3.2,5.26-4.75,6.72-7.92C274.37,133.37,272.31,129.17,269.85,126.06Z" transform="translate(-3.67 -24.1)"/><path class="cls-4" d="M201.9,148.62c-1.74-6.47-3.45-13-4.05-19.66s0-13.57,2.6-19.72c.41-.93,3.75-7.15,4.75-7,.72.11-1.44,6-1.11,6.61,3.17,6.15,3.75,13.39,2.84,20.26a90.85,90.85,0,0,1-5,19.51" transform="translate(-3.67 -24.1)"/><path class="cls-6" d="M202.56,123.06c.31-16.8,10.36-30.62,27.14-29.84l1.55.17A30,30,0,0,1,258.14,124c-.36,14.56-.94,30.65-1.85,38.38-1.89,16-18.19,16.82-18.19,16.82s-.44,26.45-.44,26.45L199.49,179.2Z" transform="translate(-3.67 -24.1)"/><path class="cls-7" d="M238.1,179.19a39,39,0,0,1-20.23-8.37s3.76,13.55,19.91,13.79Z" transform="translate(-3.67 -24.1)"/><path class="cls-4" d="M252.58,136.42a2.31,2.31,0,0,1-2.45,2.08,2.2,2.2,0,0,1-2.14-2.32,2.29,2.29,0,0,1,2.44-2.07A2.21,2.21,0,0,1,252.58,136.42Z" transform="translate(-3.67 -24.1)"/><path class="cls-4" d="M254,130.29c-.32.27-1.92-1.2-4.38-1.45s-4.4.78-4.64.46c-.11-.15.23-.66,1.08-1.15a6.29,6.29,0,0,1,3.75-.74,6.1,6.1,0,0,1,3.45,1.53C254,129.6,254.16,130.17,254,130.29Z" transform="translate(-3.67 -24.1)"/><path class="cls-4" d="M230.28,136.42a2.31,2.31,0,0,1-2.45,2.08,2.2,2.2,0,0,1-2.14-2.32,2.29,2.29,0,0,1,2.45-2.07A2.2,2.2,0,0,1,230.28,136.42Z" transform="translate(-3.67 -24.1)"/><path class="cls-4" d="M229.77,128.74c-.32.27-1.92-1.2-4.38-1.45s-4.4.79-4.64.46c-.12-.15.23-.66,1.08-1.15a6.35,6.35,0,0,1,3.75-.74,6.16,6.16,0,0,1,3.44,1.53C229.72,128.05,229.92,128.62,229.77,128.74Z" transform="translate(-3.67 -24.1)"/><path class="cls-4" d="M236.61,148.61c0-.14,1.56-.25,4.08-.3.63,0,1.24-.06,1.39-.48a3.17,3.17,0,0,0-.22-1.91l-1.35-5c-1.87-7.09-3.15-12.9-2.86-13s2,5.62,3.89,12.71c.45,1.75.87,3.41,1.28,5a3.67,3.67,0,0,1,.06,2.5,1.57,1.57,0,0,1-1.13.81,4.51,4.51,0,0,1-1.08,0C238.15,148.9,236.6,148.75,236.61,148.61Z" transform="translate(-3.67 -24.1)"/><path class="cls-4" d="M229.18,149.55c.4,0,.12,2.69,2.21,4.83s5,2.15,5,2.52c0,.17-.69.45-1.89.36a6.66,6.66,0,0,1-4.15-1.95,5.88,5.88,0,0,1-1.69-4C228.63,150.14,229,149.51,229.18,149.55Z" transform="translate(-3.67 -24.1)"/><path class="cls-4" d="M230.68,118.73c-.31.64-2.74.06-5.66.11s-5.35.58-5.67-.06c-.14-.3.33-.89,1.34-1.44a9.4,9.4,0,0,1,4.31-1,9.52,9.52,0,0,1,4.33,1C230.34,117.84,230.82,118.42,230.68,118.73Z" transform="translate(-3.67 -24.1)"/><path class="cls-4" d="M253.85,122c-.49.51-2.13-.25-4.16-.49s-3.81,0-4.15-.65c-.14-.3.19-.83,1-1.28a6.09,6.09,0,0,1,6.7.91C253.9,121.14,254.07,121.74,253.85,122Z" transform="translate(-3.67 -24.1)"/><path class="cls-6" d="M202.61,135.07c-.26-.15-10.67-4.42-11.48,6.58s10.41,9.54,10.45,9.22S202.61,135.07,202.61,135.07Z" transform="translate(-3.67 -24.1)"/><path class="cls-7" d="M198.52,146.46s-.2.12-.53.24a1.87,1.87,0,0,1-1.44-.07c-1.13-.51-2-2.43-1.88-4.41a6.44,6.44,0,0,1,.74-2.71,2.21,2.21,0,0,1,1.55-1.36,1,1,0,0,1,1.09.6c.13.32,0,.54.1.56s.25-.17.19-.63A1.24,1.24,0,0,0,198,138a1.5,1.5,0,0,0-1-.36,2.72,2.72,0,0,0-2.13,1.56,6.52,6.52,0,0,0-.89,3c-.09,2.22.89,4.38,2.45,4.95a2,2,0,0,0,1.77-.16C198.49,146.72,198.56,146.48,198.52,146.46Z" transform="translate(-3.67 -24.1)"/><path class="cls-4" d="M252.19,105.3c1.84-.86-3.13-7-7.38-9.25-6.42-3.42-16.41-5.92-22.62-4.58-7.47,1.61-13.81,4.87-17.93,11.31s-6,14.15-6.28,21.79a13.2,13.2,0,0,0,1.12,6.83c1.38,2.53,4.23,4.25,3.88,7.6a4.65,4.65,0,0,0,.93,3.43c1.88,2.28,4.47.42,5.73-1.52,2.7-4.16,3.3-9.29,3.83-14.21.38-3.5.75-7.08,0-10.51-.42-1.87-1.18-3.66-1.49-5.55a6.62,6.62,0,0,1,1.13-5.45,8.13,8.13,0,0,1,.95-.84,11.52,11.52,0,0,1,11.53-1.44c6.06,2.59,16.43,6.55,19.33,4.62,4.17-2.77,5.25-4.68,5.25-4.68Z" transform="translate(-3.67 -24.1)"/><path class="cls-4" d="M222.86,90c6.18-1.63,13.06-1.08,18.53,2.22,2.91,1.75,5.46,4.41,6.17,7.73s-.94,7.24-4.16,8.31l-.23.13c-4.79,1.27-7.81.45-12.38-1.47-3.85-1.62-7.2-4.28-11.06-5.87a22.4,22.4,0,0,0-13.07-1.23A36.58,36.58,0,0,1,222.86,90Z" transform="translate(-3.67 -24.1)"/><path class="cls-9" d="M225.65,88.1a4.69,4.69,0,0,1,1.12.11,17.71,17.71,0,0,1,3,.81,18.6,18.6,0,0,1,4.05,2.08,15.66,15.66,0,0,1,4,3.87A14.88,14.88,0,0,1,240,100.1a26.66,26.66,0,0,1,.68,4.5c.09,1.3.09,2.34.08,3.06a4.49,4.49,0,0,1-.08,1.12,5.82,5.82,0,0,1-.1-1.11c0-.72-.1-1.76-.23-3a29.73,29.73,0,0,0-.76-4.42,15.11,15.11,0,0,0-2.19-5,15.8,15.8,0,0,0-3.9-3.78,19.91,19.91,0,0,0-3.93-2.14A39.14,39.14,0,0,0,225.65,88.1Z" transform="translate(-3.67 -24.1)"/><path class="cls-9" d="M235.78,87.49a3.91,3.91,0,0,1,.95.26,9.8,9.8,0,0,1,1.08.41l1.38.69a14.18,14.18,0,0,1,5.7,6.72A16.26,16.26,0,0,1,245.7,98a17.21,17.21,0,0,1,.36,2.35,17.54,17.54,0,0,1,.05,2.15,15.27,15.27,0,0,1-.26,1.85,9.31,9.31,0,0,1-.41,1.49,6.84,6.84,0,0,1-.44,1.08,3.53,3.53,0,0,1-.51.84,19,19,0,0,0,1-3.47,18,18,0,0,0,.19-1.81,16.87,16.87,0,0,0-.09-2.09,17.69,17.69,0,0,0-.37-2.28,17,17,0,0,0-.8-2.34A14.51,14.51,0,0,0,239,89.14l-1.31-.75a10.57,10.57,0,0,0-1-.47A4,4,0,0,1,235.78,87.49Z" transform="translate(-3.67 -24.1)"/><path class="cls-9" d="M243,203c0,1.51,7.57,34.75,10.46,42.91s12.07,90,10.86,95.85-4.34,5.6-4.34,5.6-74.09-4.67-82.05-4-11.34.47-13.27-8.62,0-56.37-1.63-67.8-1.71-17-2.36-33.94c-.57-14.72,2.78-26.52,9.78-35s22.49-17.13,22.49-17.13l5.49-8,38.89,20.57.89-4.68,2.36,7.29Z" transform="translate(-3.67 -24.1)"/><g class="cls-10"><path d="M259.67,304.27c-.65-1.65-2.75-2.06-4.51-2.26-16.48-1.83-33.63-5.94-45.66-17.34-4.71-4.46-8.42-9.85-12-15.26-7.82-11.82-15.17-24-22.52-36.07l-5.71,2.15c3.5,17.12,6.95,29.51,12.65,43.54s10.12,27.65,24.57,32.24c9.34,3,27.08.7,36.85-.07a56.82,56.82,0,0,0,12.1-1.9,7.76,7.76,0,0,0,3.27-1.66A3.23,3.23,0,0,0,259.67,304.27Z" transform="translate(-3.67 -24.1)"/></g><path class="cls-9" d="M167.26,231c.43.76,33.4,71.18,48.12,74.08s60.47,3.57,69.4,1.88,17.67-3.26,17.67-3.26,6.46-15.36.56-28.44l-12.29.39s-34.17-1.85-39-3.17-9-5.84-13.34-5.6l-26-60.49s-16.89-15.69-29-10.86S163.73,224.73,167.26,231Z" transform="translate(-3.67 -24.1)"/><path class="cls-4" d="M291.67,306.16a5.49,5.49,0,0,1,.24-1.18c.2-.75.44-1.85.69-3.21a48.42,48.42,0,0,0,.66-4.81,52,52,0,0,0,.12-5.93,48.49,48.49,0,0,0-1.67-10.65c-.37-1.33-.7-2.4-.95-3.13a5.91,5.91,0,0,1-.34-1.16,6.17,6.17,0,0,1,.51,1.09,32.62,32.62,0,0,1,1.1,3.11A43.1,43.1,0,0,1,293.85,291a48.26,48.26,0,0,1-.16,6,43.51,43.51,0,0,1-.76,4.84c-.3,1.36-.6,2.45-.84,3.18A6.68,6.68,0,0,1,291.67,306.16Z" transform="translate(-3.67 -24.1)"/><path class="cls-4" d="M212.39,206.41s.17.36.49,1.07l1.39,3.16,5.26,12.11,19,44.07-.18-.11a11.32,11.32,0,0,1,5.77,1.77c1.79,1,3.53,2.14,5.43,3a18.63,18.63,0,0,0,6.19,1.44c2.16.25,4.37.44,6.61.64,9,.74,18.47,1.32,28.36,1.87h0l12.29-.39h.16l.06.14a31.73,31.73,0,0,1,2.46,14.11,46,46,0,0,1-3,14.52l0,.11-.13,0-7.82,1.44L286.12,307a57.92,57.92,0,0,1-8.56.88c-5.69.26-11.29.28-16.79.25s-10.91-.15-16.2-.35-10.47-.46-15.52-.85c-2.52-.18-5-.42-7.46-.69a51.44,51.44,0,0,1-7.23-1.2,12.69,12.69,0,0,1-3.12-1.8,27.21,27.21,0,0,1-2.66-2.33,56,56,0,0,1-4.56-5.15,189.27,189.27,0,0,1-13.86-20.84c-7.72-13.2-13.3-24.26-17.13-31.91-1.91-3.82-3.35-6.82-4.32-8.85s-1.45-3.11-1.45-3.11.15.26.4.77.64,1.3,1.14,2.3l4.39,8.81c3.88,7.62,9.5,18.65,17.26,31.83a189.8,189.8,0,0,0,13.87,20.76,56.94,56.94,0,0,0,4.54,5.1,25,25,0,0,0,2.62,2.29,12.33,12.33,0,0,0,3,1.75,52.39,52.39,0,0,0,7.14,1.16c2.44.27,4.93.51,7.45.68,5,.38,10.21.65,15.49.83s10.69.32,16.19.35,11.1,0,16.77-.26a56.59,56.59,0,0,0,8.49-.88l8.56-1.58,7.81-1.44-.17.14a45.75,45.75,0,0,0,3-14.36,31.31,31.31,0,0,0-2.42-13.9l.22.14-12.29.38h0c-9.9-.56-19.4-1.16-28.37-1.91-2.25-.2-4.46-.39-6.63-.65-1.09-.13-2.16-.27-3.23-.47a11.55,11.55,0,0,1-3.07-1c-1.94-.89-3.68-2-5.46-3a10.93,10.93,0,0,0-5.56-1.73h-.13l0-.12c-7.9-18.49-14.38-33.62-18.88-44.14l-5.16-12.15c-.59-1.39-1-2.45-1.34-3.18S212.39,206.41,212.39,206.41Z" transform="translate(-3.67 -24.1)"/><path class="cls-4" d="M208.94,201.66s-.45-.43-1.27-1.19a24.68,24.68,0,0,0-3.78-2.84,23.24,23.24,0,0,0-23-1.11,24.77,24.77,0,0,0-5.72,4A24.39,24.39,0,0,0,172,204a15.31,15.31,0,0,1-1,1.41,1.94,1.94,0,0,1,.2-.4c.16-.26.35-.65.67-1.11a21.35,21.35,0,0,1,3.06-3.67,23.47,23.47,0,0,1,29.17-2.92,21.31,21.31,0,0,1,3.72,3c.41.39.68.74.88,1S209,201.65,208.94,201.66Z" transform="translate(-3.67 -24.1)"/><path class="cls-4" d="M238.28,267A61.15,61.15,0,0,1,234.52,277a30.88,30.88,0,0,1,1.66-5.1A31.51,31.51,0,0,1,238.28,267Z" transform="translate(-3.67 -24.1)"/><path class="cls-4" d="M298,278.55s.13-.06.34,0a1.31,1.31,0,0,1,.66.65,1.43,1.43,0,0,1,0,1.4,1.63,1.63,0,0,1-1.56.72,1.53,1.53,0,0,1-1.18-1.25,1.47,1.47,0,0,1,.45-1.33,1.17,1.17,0,0,1,.88-.29c.22,0,.32.08.32.11s-.52,0-1,.42a1.16,1.16,0,0,0,.57,1.88,1.23,1.23,0,0,0,1.13-.5,1.15,1.15,0,0,0,.09-1C298.48,278.7,298,278.61,298,278.55Z" transform="translate(-3.67 -24.1)"/><path class="cls-4" d="M238.2,195.73a5.68,5.68,0,0,1-.89-.46l-2.45-1.4.17-.07c-.48,2.45-.95,6.06-1.78,10.38l-.05.29-.25-.16c-3.61-2.28-7.94-4.88-12.56-7.67-3.45-2.06-6.67-4.14-9.64-5.94s-5.7-3.33-8-4.62l-5.44-3-1.48-.83a3.36,3.36,0,0,1-.5-.31,2.06,2.06,0,0,1,.55.23l1.51.75c1.32.67,3.21,1.65,5.52,2.9s5.06,2.77,8.06,4.54l9.66,5.91c4.62,2.79,8.94,5.42,12.53,7.73l-.3.13c.86-4.29,1.39-7.91,1.95-10.35l0-.16.14.08,2.39,1.5A6.45,6.45,0,0,1,238.2,195.73Z" transform="translate(-3.67 -24.1)"/><g class="cls-10"><path d="M200.8,184.81l20.29,15.12c4.46,3.33,9,6.71,14.34,8.41l-.3-14.1-2.07,9.9Z" transform="translate(-3.67 -24.1)"/></g><path class="cls-4" d="M409.76,114.18a7.27,7.27,0,0,1-3.35-14.08,7.57,7.57,0,0,1,6.34-12.89,9.06,9.06,0,0,1,13.51-7.68A10.19,10.19,0,0,1,438.79,79a7.24,7.24,0,0,1,6.63,12.16" transform="translate(-3.67 -24.1)"/><path class="cls-5" d="M408.72,115.22a30.85,30.85,0,0,1,30.18-29l1.6,0c17.24.66,26.32,15.67,25.19,32.9l1,61.45h0l-41.92,15-.36-22.13s-16.62-2.24-17.16-18.79C407,146.65,407.82,130.15,408.72,115.22Z" transform="translate(-3.67 -24.1)"/><path class="cls-8" d="M424.3,173.42a40.2,40.2,0,0,0,21.57-6.79s-4.86,12-21.42,10.86Z" transform="translate(-3.67 -24.1)"/><path class="cls-4" d="M413.37,130.19a2.37,2.37,0,0,0,2.33,2.34,2.26,2.26,0,0,0,2.39-2.18,2.37,2.37,0,0,0-2.32-2.35A2.27,2.27,0,0,0,413.37,130.19Z" transform="translate(-3.67 -24.1)"/><path class="cls-4" d="M412.44,123.24c.3.31,2.07-1.06,4.61-1.1s4.44,1.19,4.71.87c.13-.14-.18-.69-1-1.26a6.46,6.46,0,0,0-3.78-1.08,6.27,6.27,0,0,0-3.66,1.26C412.55,122.55,412.3,123.11,412.44,123.24Z" transform="translate(-3.67 -24.1)"/><path class="cls-4" d="M436.56,130.19a2.36,2.36,0,0,0,2.32,2.34,2.26,2.26,0,0,0,2.4-2.18A2.38,2.38,0,0,0,439,128,2.26,2.26,0,0,0,436.56,130.19Z" transform="translate(-3.67 -24.1)"/><path class="cls-4" d="M437.47,123.21c.3.3,2.06-1.06,4.61-1.1s4.43,1.18,4.7.87c.13-.14-.17-.69-1-1.27a6.51,6.51,0,0,0-3.78-1.08,6.2,6.2,0,0,0-3.66,1.27C437.58,122.51,437.32,123.07,437.47,123.21Z" transform="translate(-3.67 -24.1)"/><path class="cls-4" d="M428.62,142.27c0-.15-1.58-.39-4.15-.66-.65-.06-1.27-.17-1.39-.61a3.35,3.35,0,0,1,.4-1.94q.86-2.37,1.82-5c2.52-7.09,4.33-12.93,4.05-13s-2.57,5.58-5.09,12.68l-1.74,5a3.79,3.79,0,0,0-.29,2.56,1.67,1.67,0,0,0,1.09.93,4.21,4.21,0,0,0,1.11.13C427,142.43,428.61,142.41,428.62,142.27Z" transform="translate(-3.67 -24.1)"/><path class="cls-4" d="M436.52,114.56c.35.64,2.51-.1,5.2-.24s4.95.25,5.18-.42c.1-.32-.39-.89-1.37-1.39a7.91,7.91,0,0,0-4-.76,7.69,7.69,0,0,0-3.87,1.27C436.75,113.63,436.36,114.26,436.52,114.56Z" transform="translate(-3.67 -24.1)"/><path class="cls-4" d="M412,114.24c.55.57,2.64-.07,5.16-.15s4.68.29,5.15-.32c.21-.3-.13-.87-1.08-1.4a8.18,8.18,0,0,0-4.22-.86,8.08,8.08,0,0,0-4.09,1.24C412,113.37,411.71,114,412,114.24Z" transform="translate(-3.67 -24.1)"/><path class="cls-4" d="M410.16,107.59s4.15-10.46,9.11-13c6-3,8.73,3.54,14.47,1.81s11.45-4.66,17.44-.32c6.55,4.75,3.6,8.23,4.15,15.57,2.22,29.76,7.83,38.07,9.09,24,.14-1.54,4.38-2.85,4.88-9.36.65-8.44.77-18.67-1.24-24.61-1.68-5-4.63-8.42-9.85-12.16-8.26-5.89-19.43-5.79-27-4.87S409.2,94.62,410.16,107.59Z" transform="translate(-3.67 -24.1)"/><path class="cls-5" d="M463.36,135.25a4.49,4.49,0,0,1,4.76-4.43c3.1.23,6.57,1.91,6.49,8.3-.13,11.33-11.47,8.86-11.49,8.53S463.26,140,463.36,135.25Z" transform="translate(-3.67 -24.1)"/><path class="cls-8" d="M465.64,143.42c.05,0,.19.14.52.3a2,2,0,0,0,1.48,0c1.2-.42,2.23-2.31,2.31-4.35a6.59,6.59,0,0,0-.52-2.83,2.27,2.27,0,0,0-1.47-1.53,1,1,0,0,0-1.17.52c-.15.32-.09.55-.15.56s-.24-.19-.14-.66a1.29,1.29,0,0,1,.45-.7,1.5,1.5,0,0,1,1.1-.28,2.79,2.79,0,0,1,2,1.78,6.8,6.8,0,0,1,.65,3.17c-.1,2.28-1.29,4.4-2.94,4.86A2.11,2.11,0,0,1,466,144C465.65,143.69,465.6,143.44,465.64,143.42Z" transform="translate(-3.67 -24.1)"/><path class="cls-4" d="M462.69,113.32a10.76,10.76,0,0,1-4.75,2.31c-1.77.21-3.81-.76-4.15-2.51-.15-.79,0-1.71-.51-2.3s-1.76-.47-2.71-.35a7.23,7.23,0,0,1-7.61-5c-.81,1.28-2.77,1.26-4.06.47a16.64,16.64,0,0,1-3.15-3.23c-1-1.12-2.43-2.11-3.92-1.87a10.92,10.92,0,0,1-2.45.59c-1.49-.1-2.25-1.82-2.51-3.3s-.46-3.18-1.74-4-2.69-.26-4.05,0-3.14-.06-3.52-1.39a2.71,2.71,0,0,1,.47-2.06,7.34,7.34,0,0,1,8.6-3,9.94,9.94,0,0,1,18.22-2.3A10.08,10.08,0,0,1,461,88.76a7.31,7.31,0,0,1,8.46,10.46c2.06,1.13,3.84,3.11,3.93,5.45s-2.14,4.73-4.42,4.16a4,4,0,0,1-6.92,4.18" transform="translate(-3.67 -24.1)"/><path class="cls-9" d="M425.85,91.06a.76.76,0,0,0,0,.2,6,6,0,0,0,.09.61,7,7,0,0,0,.86,2.16,8.14,8.14,0,0,0,2.57,2.63A7.54,7.54,0,0,0,434,97.88l-.2-.24a4.12,4.12,0,0,0,.29,3.12,11.87,11.87,0,0,0,2,2.74,9.19,9.19,0,0,0,1.29,1.28,4,4,0,0,0,1.81.63,4.17,4.17,0,0,0,3.62-1.38l-.43-.12a8.47,8.47,0,0,0,3.72,5.8,6.19,6.19,0,0,0,3.74,1.15,11.23,11.23,0,0,0,3.65-.88l-.3-.13a8.75,8.75,0,0,0,2.75,3.44,4.74,4.74,0,0,0,4,1,6.22,6.22,0,0,0,4.7-5l-.25.12a5.77,5.77,0,0,0,3.9.49,6.24,6.24,0,0,0,2.69-1.26,5.71,5.71,0,0,0,1.24-1.41,2.51,2.51,0,0,0,.27-.59,7,7,0,0,1-1.63,1.85,6.11,6.11,0,0,1-2.62,1.14,5.61,5.61,0,0,1-3.68-.52l-.22-.12,0,.24a5.89,5.89,0,0,1-4.45,4.62,4.3,4.3,0,0,1-3.6-1,8.54,8.54,0,0,1-2.59-3.26l-.09-.21-.21.08a10.74,10.74,0,0,1-3.49.84,5.73,5.73,0,0,1-3.46-1.07,8,8,0,0,1-3.51-5.46l-.09-.54-.34.43a3.67,3.67,0,0,1-3.19,1.21,3.47,3.47,0,0,1-1.61-.54,8.06,8.06,0,0,1-1.21-1.2,11.22,11.22,0,0,1-1.95-2.62,3.71,3.71,0,0,1-.31-2.82l.09-.28-.28,0a7.25,7.25,0,0,1-4.47-1.11A8,8,0,0,1,427,93.92,9,9,0,0,1,425.85,91.06Z" transform="translate(-3.67 -24.1)"/><path class="cls-4" d="M437.39,143.14c-.41.05.06,2.72-1.89,5s-4.84,2.51-4.8,2.88c0,.18.73.41,1.94.23a6.78,6.78,0,0,0,4-2.26,5.86,5.86,0,0,0,1.41-4.17C438,143.71,437.57,143.1,437.39,143.14Z" transform="translate(-3.67 -24.1)"/><path class="cls-11" d="M344.88,272c1.43-.58,48.85-6.27,48.85-6.27L413,249.42l-1.8,47.15-60.54,5.83Z" transform="translate(-3.67 -24.1)"/><path class="cls-12" d="M404.46,256.62c-.58.29-5.33,4.51-5.33,4.51l1.45,36.31Z" transform="translate(-3.67 -24.1)"/><path class="cls-4" d="M485.24,342H405.15s4.24,22.6,5.81,33a132.9,132.9,0,0,0,3.87,17.8h72.53s5.41-13.13,6.35-21.56S485.24,342,485.24,342Z" transform="translate(-3.67 -24.1)"/><path class="cls-4" d="M399.19,344.73s-2.24,25.75,0,48.08h27.74V372.24Z" transform="translate(-3.67 -24.1)"/><path class="cls-1" d="M414.6,218.47l8.63-18.9,1.07-11.67s16.55-10.4,24.4-14.33a173,173,0,0,1,18.43-7.48v11Z" transform="translate(-3.67 -24.1)"/><path class="cls-11" d="M486.73,315s4.69-63,5-67.67c0,0,2.77-33.66-3.21-46.48s-19.35-24.08-19.35-24.08L468,170,441.83,186.5,429.75,197a121.07,121.07,0,0,0-11.39,14.18c-3.43,4.74-7.24,10.84-8.94,18.51-.62,2.81-7.8,36.34-8,59.72,0,0-1.1,20.39-2.28,31.94-1.46,14.3-3.68,46.89-3.2,66.2L480.57,385c20.92-3.19,17.24-5.27,17.24-5.27Z" transform="translate(-3.67 -24.1)"/><path class="cls-4" d="M467.13,177.11l-.59.27-1.73.72c-.73.35-1.63.82-2.68,1.37s-2.22,1.27-3.47,2.16a96.41,96.41,0,0,0-18.6,17.19l-.05.06h-.07l-8.12,1.5.18-.21c-.13,3.78-.26,7.74-.4,11.83v.1l-.07.06a113.38,113.38,0,0,0-11.94,13.09,51.7,51.7,0,0,0-4.09,6.19l-.44.8-.34.83a16.22,16.22,0,0,0-.62,1.69c-.36,1.15-.71,2.29-1,3.44-1.25,4.57-2.29,9-3.26,13.29-1.92,8.51-3.53,16.21-4.86,22.67-2.66,12.94-4.15,21-4.15,21a13.16,13.16,0,0,1,.18-1.47c.15-1,.39-2.37.72-4.19.65-3.64,1.64-8.89,2.93-15.36s2.86-14.18,4.76-22.71c1-4.26,2-8.72,3.24-13.32.29-1.15.65-2.3,1-3.45a13.73,13.73,0,0,1,.62-1.73l.35-.86.45-.81a51.13,51.13,0,0,1,4.13-6.25,111.87,111.87,0,0,1,12-13.14l-.08.16c.15-4.1.29-8.06.43-11.83V200l.16,0,8.13-1.47-.12.07a94.27,94.27,0,0,1,18.78-17.13c1.26-.88,2.49-1.51,3.51-2.13s2-1,2.72-1.32l1.76-.67C466.92,177.17,467.13,177.11,467.13,177.11Z" transform="translate(-3.67 -24.1)"/><path class="cls-11" d="M438.71,226.89l1,84.05-12.8,81.87h33.74s15.34-62.16,18.91-75.22c3.47-12.69,8.66-76.53,9.12-79.67.19-1.23,3.84-23.28-6.93-33.68" transform="translate(-3.67 -24.1)"/><path class="cls-4" d="M481.77,204.24s.25.23.71.7a18.8,18.8,0,0,1,1.84,2.27,28,28,0,0,1,4.22,10.36,58,58,0,0,1,.64,17.73c-.51,3.44-.76,7.13-1.14,11s-.73,8.06-1.12,12.41c-.81,8.7-1.72,18.23-2.81,28.46-.57,5.11-1.15,10.4-1.87,15.83a130,130,0,0,1-3,16.67c-5.63,22.45-11.84,47.16-18.36,73.15l0,.17H426.66l0-.27c4.73-30.19,9.11-58.06,12.84-81.86v0c-.28-25.45-.5-46.46-.66-61.12-.07-7.32-.12-13-.15-17,0-1.94,0-3.43,0-4.45s0-1.52,0-1.52,0,.51.05,1.52.05,2.5.08,4.45c.06,3.91.15,9.64.26,17,.19,14.66.48,35.67.82,61.12v0h0c-3.71,23.8-8.06,51.68-12.77,81.88l-.22-.27h33.74l-.23.17c6.54-26,12.76-50.69,18.41-73.15a127.73,127.73,0,0,0,3-16.6c.73-5.43,1.32-10.71,1.89-15.82,1.12-10.23,2-19.75,2.87-28.45q.62-6.53,1.16-12.41c.38-3.9.66-7.63,1.17-11a57.91,57.91,0,0,0-.56-17.67,28.58,28.58,0,0,0-4.11-10.34,19.79,19.79,0,0,0-1.81-2.29Z" transform="translate(-3.67 -24.1)"/><path class="cls-4" d="M456.56,319.21a13.55,13.55,0,0,1-2.61-.75c-1.59-.54-3.75-1.37-6.09-2.4s-4.41-2.1-5.87-2.91a12.8,12.8,0,0,1-2.31-1.43,17.92,17.92,0,0,1,2.46,1.14c1.5.73,3.58,1.73,5.91,2.77s4.46,1.9,6,2.52A19.13,19.13,0,0,1,456.56,319.21Z" transform="translate(-3.67 -24.1)"/><path class="cls-4" d="M398.79,324.79a.77.77,0,0,1,0-.22l0-.65c0-.6.08-1.43.14-2.47.13-2.19.33-5.28.57-9.09.52-7.67,1.26-18.26,2.3-29.95s2.22-22.25,3.2-29.88c.49-3.81.9-6.89,1.21-9,.16-1,.28-1.85.37-2.45l.11-.64a.53.53,0,0,1,.05-.21.92.92,0,0,1,0,.22c0,.17,0,.38-.06.64-.07.6-.16,1.42-.28,2.46-.25,2.18-.62,5.25-1.06,9-.89,7.64-2,18.2-3.07,29.88s-1.82,22.27-2.43,29.94c-.3,3.8-.55,6.89-.72,9.07-.1,1-.17,1.87-.22,2.47,0,.26,0,.47-.07.64A.86.86,0,0,1,398.79,324.79Z" transform="translate(-3.67 -24.1)"/><path class="cls-4" d="M467.13,193.64a43.42,43.42,0,0,0-3.18-6.7,43.56,43.56,0,0,0-4.65-5.76,7.56,7.56,0,0,1,1.71,1.38,22.53,22.53,0,0,1,3.34,4.13,22.29,22.29,0,0,1,2.27,4.8A7.52,7.52,0,0,1,467.13,193.64Z" transform="translate(-3.67 -24.1)"/><path class="cls-4" d="M407.58,298.07s.11.21.09.61a2.43,2.43,0,0,1-.74,1.52,2.32,2.32,0,0,1-2.43.56,2.68,2.68,0,0,1-1.25-.9,2.45,2.45,0,0,1-.51-1.58,3.24,3.24,0,0,1,.65-1.95,2,2,0,0,1,.79-.62c.32-.12.55-.18.82-.26h.06a2.77,2.77,0,0,1,1.63.46,2.14,2.14,0,0,1,.76,1.07,2.17,2.17,0,0,1,.13,1.1c-.05,0-.1-.39-.36-1a1.91,1.91,0,0,0-.72-.88,2.56,2.56,0,0,0-1.44-.33h.07c-.25.08-.56.17-.78.26a1.61,1.61,0,0,0-.6.51,2.81,2.81,0,0,0-.54,1.68,2.14,2.14,0,0,0,1.43,2.06,2,2,0,0,0,2.07-.39,2.47,2.47,0,0,0,.78-1.31C407.56,298.29,407.54,298.07,407.58,298.07Z" transform="translate(-3.67 -24.1)"/><path class="cls-4" d="M406.33,327.79a1,1,0,0,1,.08.61,2.41,2.41,0,0,1-.73,1.52,2.34,2.34,0,0,1-2.44.56,2.73,2.73,0,0,1-1.25-.9,2.42,2.42,0,0,1-.5-1.57,3.25,3.25,0,0,1,.65-2,2,2,0,0,1,.78-.62c.33-.12.56-.18.83-.26h.06a2.82,2.82,0,0,1,1.63.47,2.51,2.51,0,0,1,.89,2.16,9.3,9.3,0,0,1-.36-1,2,2,0,0,0-.72-.88,2.59,2.59,0,0,0-1.44-.33h.06c-.24.08-.55.18-.77.27a1.52,1.52,0,0,0-.61.5A3,3,0,0,0,402,328a2.15,2.15,0,0,0,1.44,2.06,2,2,0,0,0,2.06-.39,2.45,2.45,0,0,0,.78-1.3A4.58,4.58,0,0,1,406.33,327.79Z" transform="translate(-3.67 -24.1)"/><path class="cls-4" d="M478,199.27c0,.08-1.16-.64-3.13-1.39a21.3,21.3,0,0,0-3.55-1,24.16,24.16,0,0,0-4.49-.41,24.57,24.57,0,0,0-4.49.53,22.62,22.62,0,0,0-3.52,1.11c-1.94.81-3,1.55-3.09,1.47a3.93,3.93,0,0,1,.74-.55,7.29,7.29,0,0,1,.93-.57,14,14,0,0,1,1.29-.65,19.83,19.83,0,0,1,3.56-1.23,22.13,22.13,0,0,1,4.57-.57,22.68,22.68,0,0,1,4.59.45,19.34,19.34,0,0,1,3.59,1.12,13.35,13.35,0,0,1,1.3.62,6.54,6.54,0,0,1,1,.54A3.22,3.22,0,0,1,478,199.27Z" transform="translate(-3.67 -24.1)"/><g class="cls-10"><path d="M404.06,277.89c3.65-5.32,5-10.33,6.95-16.48,2.9-9.15,3.71-19.47,8.27-27.92,2.68-5,5.83-10.07,10.49-13.25s5.23-7.06,5.14-17.75c3.25,0,6.68-2.48,7.09-2.92a18.07,18.07,0,0,0,4-7.47l-6.08,6.6s-8.25,1.53-8.13,1.48c-.2,4.11-.21,7.71-.41,11.83,0,0-15.82,16.78-17.05,20.15S404.06,277.89,404.06,277.89Z" transform="translate(-3.67 -24.1)"/></g><g class="cls-10"><path d="M462.79,382.67c20-37.94,26.27-87.83,25.08-135.35,0,0-5.75,57.76-7.69,67.67S462.79,382.67,462.79,382.67Z" transform="translate(-3.67 -24.1)"/></g><path class="cls-4" d="M465.85,171a2.57,2.57,0,0,1-.45.35l-1.34.9-5,3.26-16.45,10.61-7.1,4.52h0l-2.27,1.76a17.14,17.14,0,0,0-2,1.73c-1.24,1.2-2.35,2.36-3.34,3.42l-.18.2-.11-.24c-1.07-2.49-1.95-4.52-2.59-6-.28-.67-.5-1.21-.68-1.63a3.77,3.77,0,0,1-.21-.59,2.4,2.4,0,0,1,.3.55l.77,1.6c.67,1.45,1.59,3.46,2.73,5.92l-.29-.05c1-1.08,2.08-2.26,3.32-3.48A18,18,0,0,1,433,192l2.25-1.76h0l7.09-4.55,16.53-10.49,5-3.13,1.38-.83A2.88,2.88,0,0,1,465.85,171Z" transform="translate(-3.67 -24.1)"/><path class="cls-4" d="M44,132c-.11.06-3.92-6.55-8.52-14.77s-8.23-14.94-8.13-15,3.92,6.56,8.52,14.78S44.11,131.94,44,132Z" transform="translate(-3.67 -24.1)"/><path class="cls-4" d="M56.88,103.47c.13,0-.05,5.07-.4,11.31s-.72,11.3-.85,11.3.06-5.08.41-11.32S56.76,103.46,56.88,103.47Z" transform="translate(-3.67 -24.1)"/><path class="cls-4" d="M34.78,139c0,.11-4.33-1.24-9.6-3s-9.5-3.32-9.46-3.44,4.34,1.23,9.61,3S34.82,138.9,34.78,139Z" transform="translate(-3.67 -24.1)"/><path class="cls-11" d="M99.25,151.74a35.78,35.78,0,1,0-33.74,50.12l3.62,8.27,28.72-12.58s-1.86-4.72-3.61-8.89A35.76,35.76,0,0,0,99.25,151.74Z" transform="translate(-3.67 -24.1)"/><path class="cls-13" d="M93.55,199.43s-.09-.13-.24-.39l-.65-1.13c-.57-1-1.41-2.48-2.45-4.4-2.08-3.85-5-9.47-8.22-16.61q-1.2-2.67-2.45-5.63l-1.26-3a11.41,11.41,0,0,1-1-3.26,3.8,3.8,0,0,1,.26-1.76,2.34,2.34,0,0,1,1.24-1.31,2.18,2.18,0,0,1,1.83.21,3.3,3.3,0,0,1,1.29,1.33,4.15,4.15,0,0,1-.06,3.7,6.27,6.27,0,0,1-2.64,2.78,6.76,6.76,0,0,1-3.85.84,7.19,7.19,0,0,1-3.75-1.49,8.62,8.62,0,0,1-2.58-3.21,6.23,6.23,0,0,1-.58-2,2.92,2.92,0,0,1,.47-2.1,1.85,1.85,0,0,1,.91-.64,2.41,2.41,0,0,1,1.1-.08,3.41,3.41,0,0,1,1.93,1A7.7,7.7,0,0,1,74.15,164a19.72,19.72,0,0,1,.91,2,14.89,14.89,0,0,1,1.09,4.28,8.19,8.19,0,0,1-.75,4.4,6.61,6.61,0,0,1-1.33,1.82,5,5,0,0,1-1.95,1.15,4.72,4.72,0,0,1-2.24.08,6.2,6.2,0,0,1-2-.86,13.63,13.63,0,0,1-3.15-3c-.46-.56-.88-1.14-1.28-1.72a11.79,11.79,0,0,1-1.12-1.83,3.49,3.49,0,0,1-.35-2.11,2.27,2.27,0,0,1,.43-1,1.5,1.5,0,0,1,.94-.57,1.81,1.81,0,0,1,1.08.14,3.78,3.78,0,0,1,.9.56,7.44,7.44,0,0,1,1.35,1.57,12,12,0,0,1,2.2,7.56,7.64,7.64,0,0,1-1.29,3.63,5.73,5.73,0,0,1-3,2.27,4.87,4.87,0,0,1-3.6-.3,5.63,5.63,0,0,1-2.6-2.36,4.68,4.68,0,0,1-.56-1.65,2.61,2.61,0,0,1,.3-1.69,1.39,1.39,0,0,1,.69-.55,1.36,1.36,0,0,1,.87,0,3.13,3.13,0,0,1,1.33,1,13.22,13.22,0,0,1,1.59,2.72c.46.92.91,1.81,1.34,2.69,3.49,7,6.21,12.72,8,16.7.91,2,1.58,3.55,2,4.61l.51,1.21c.11.27.16.42.16.42s-.07-.14-.19-.41-.3-.68-.52-1.2c-.47-1.05-1.16-2.6-2.08-4.59-1.84-4-4.58-9.67-8.09-16.66l-1.35-2.68a12.89,12.89,0,0,0-1.57-2.68,3,3,0,0,0-1.24-.92,1.12,1.12,0,0,0-1.32.46A2.41,2.41,0,0,0,58,178a4.25,4.25,0,0,0,.54,1.57,5.36,5.36,0,0,0,2.5,2.27,4.76,4.76,0,0,0,3.44.29,5.54,5.54,0,0,0,2.84-2.2,7.46,7.46,0,0,0,1.25-3.51,11.75,11.75,0,0,0-2.18-7.4,6.49,6.49,0,0,0-1.3-1.51,2.26,2.26,0,0,0-1.77-.66,1.55,1.55,0,0,0-1.17,1.38,3.24,3.24,0,0,0,.33,2,11.88,11.88,0,0,0,1.1,1.78c.4.58.82,1.16,1.26,1.71a13.32,13.32,0,0,0,3.1,2.94,5.64,5.64,0,0,0,2,.82,4.35,4.35,0,0,0,2.12-.07,5.35,5.35,0,0,0,3.12-2.84,7.81,7.81,0,0,0,.72-4.26,14.42,14.42,0,0,0-1.07-4.2,11.58,11.58,0,0,0-2.12-3.68,3.24,3.24,0,0,0-1.78-1,1.81,1.81,0,0,0-1.78.63,2.65,2.65,0,0,0-.42,1.91,6.06,6.06,0,0,0,.56,1.95,8.3,8.3,0,0,0,2.5,3.12,6.91,6.91,0,0,0,3.62,1.45,6.59,6.59,0,0,0,3.71-.8,6.05,6.05,0,0,0,2.55-2.68,3.93,3.93,0,0,0,.07-3.49,3.14,3.14,0,0,0-1.2-1.25,2,2,0,0,0-1.64-.19,2.12,2.12,0,0,0-1.12,1.19,3.45,3.45,0,0,0-.24,1.65,11,11,0,0,0,1,3.2l1.24,3c.82,2,1.64,3.85,2.44,5.64,3.18,7.14,6.08,12.77,8.14,16.63,1,1.93,1.85,3.42,2.4,4.42l.64,1.15Z" transform="translate(-3.67 -24.1)"/><path class="cls-4" d="M68.34,199.35a1.89,1.89,0,0,1-.44,0c-.29,0-.71.06-1.26.05a30.72,30.72,0,0,1-4.64-.27,33.68,33.68,0,0,1-6.7-1.59,34.11,34.11,0,0,1-7.56-3.76,33.52,33.52,0,0,1-6.35-5.56,34.06,34.06,0,0,1-4-5.59,30.53,30.53,0,0,1-2-4.19c-.21-.51-.34-.92-.44-1.19a2,2,0,0,1-.12-.42s.07.14.17.41.26.66.48,1.16a35.21,35.21,0,0,0,2.08,4.13,34.5,34.5,0,0,0,4,5.53,33.39,33.39,0,0,0,13.8,9.25A34.61,34.61,0,0,0,62,199a34.14,34.14,0,0,0,4.62.35c.55,0,1,0,1.26,0Z" transform="translate(-3.67 -24.1)"/><path class="cls-4" d="M33.44,170a6.74,6.74,0,0,1,.44,1.81,6.5,6.5,0,0,1,.19,1.84,13.52,13.52,0,0,1-.63-3.65Z" transform="translate(-3.67 -24.1)"/><path class="cls-4" d="M99,160.94a1.84,1.84,0,0,1-.1-.36l-.23-1.07-.16-.77c-.07-.27-.16-.57-.25-.9-.2-.64-.37-1.38-.68-2.17-.15-.39-.3-.81-.46-1.24s-.37-.86-.57-1.31c-.38-.92-.9-1.85-1.42-2.83a38.1,38.1,0,0,0-4.2-5.89,37.91,37.91,0,0,0-5.35-4.88c-.91-.63-1.77-1.26-2.64-1.74-.42-.25-.82-.52-1.23-.73l-1.18-.6c-.74-.4-1.46-.66-2.08-.93-.31-.13-.59-.26-.86-.36l-.74-.25-1-.36a1.76,1.76,0,0,1-.36-.14,1.6,1.6,0,0,1,.37.09l1,.31.75.24c.27.09.56.21.88.33a22.68,22.68,0,0,1,2.1.91l1.19.59c.42.2.82.47,1.25.71.88.48,1.75,1.11,2.67,1.74a33.78,33.78,0,0,1,9.62,10.84c.52,1,1,1.93,1.41,2.86.19.46.4.89.56,1.33l.44,1.25c.3.8.47,1.55.65,2.2.08.32.17.62.23.91l.14.77q.12.67.18,1.08A2,2,0,0,1,99,160.94Z" transform="translate(-3.67 -24.1)"/><g class="cls-14"><path class="cls-13" d="M54.89,143.12c-1.17-1.13-3.13-1.47-5.18-1.21a11.27,11.27,0,0,0-7.37,4.26c-5.39,6.79-7.42,13-6.4,22,.35,3.06,1.88,7.68,4.36,9.73a5.78,5.78,0,0,0,4.44,1.39c4.17-.55,5.53-5.43,5.17-9.37-.34-3.66-1.53-7.45-.35-10.94,1-2.87,3.39-5,5.06-7.51S57.08,145.22,54.89,143.12Z" transform="translate(-3.67 -24.1)"/></g><g class="cls-14"><path class="cls-13" d="M67.47,136.08a5.67,5.67,0,0,0-7,.47,5.8,5.8,0,0,0-1.28,4.92,5.33,5.33,0,0,0,4.36,4.07,5,5,0,0,0,5.17-2.88C69.6,140.72,69.18,137.34,67.47,136.08Z" transform="translate(-3.67 -24.1)"/></g><g id="_2gGvdE.tif" data-name="2gGvdE.tif"><path class="cls-4" d="M84.44,223.28a9.82,9.82,0,0,1,2.6.84,2.09,2.09,0,0,0,1.84.06l5.78-2.54a2.08,2.08,0,0,0,1.24-1.56,4,4,0,0,1,1.3-2.4Z" transform="translate(-3.67 -24.1)"/></g><path class="cls-3" d="M71.12,209.94c0,.11,5.35,8.55,7.38,11.78a4.64,4.64,0,0,0,3.82,2.22,4.26,4.26,0,0,0,1.8-.36L96.76,218s3.31-1.45,2.9-4.4S96,199,96,199Z" transform="translate(-3.67 -24.1)"/><rect class="cls-3" x="75.95" y="215.56" width="25.41" height="1.44" rx="0.68" transform="translate(-83.7 30.37) rotate(-23.9)"/><path class="cls-4" d="M99.94,212.07a.92.92,0,0,0,.34-.39.7.7,0,0,0-.07-.6.64.64,0,0,0-.7-.33c-1.2.51-3,1.33-5.12,2.29l-17,7.56a.57.57,0,0,0-.33.42.53.53,0,0,0,0,.28,1.08,1.08,0,0,0,.14.26.58.58,0,0,0,.5.19,4.08,4.08,0,0,0,.58-.23l2.39-1.06,4.51-2,7.64-3.36L98,212.86l1.41-.6.37-.15.13,0-.12.06-.36.18-1.39.64-5.13,2.31-7.63,3.41-4.5,2-2.38,1.06-.31.13a.86.86,0,0,1-.34.12.83.83,0,0,1-.71-.27,1.35,1.35,0,0,1-.18-.33.86.86,0,0,1,0-.39.8.8,0,0,1,.47-.61l17-7.49c2.18-.95,3.92-1.74,5.18-2.23a.72.72,0,0,1,.77.39.76.76,0,0,1,0,.65A.6.6,0,0,1,99.94,212.07Z" transform="translate(-3.67 -24.1)"/><rect class="cls-3" x="74.19" y="212.72" width="26.43" height="1.44" rx="0.68" transform="translate(-82.66 29.62) rotate(-23.9)"/><path class="cls-4" d="M99.16,209a.78.78,0,0,0,.34-.4.72.72,0,0,0-.09-.62.64.64,0,0,0-.75-.28l-5.33,2.39L75.71,218a.58.58,0,0,0-.34.45.57.57,0,0,0,0,.29.6.6,0,0,0,.69.4c.18-.06.41-.18.61-.26l2.48-1.1,4.69-2.07,7.94-3.49,5.36-2.33,1.46-.63.38-.15.14,0-.13.07-.37.18-1.45.66-5.33,2.4L84,215.87,79.28,218l-2.47,1.1c-.22.09-.4.19-.66.28a.83.83,0,0,1-.75-.21.88.88,0,0,1-.21-.34.77.77,0,0,1,0-.4.81.81,0,0,1,.47-.63L93.26,210c2.27-1,4.09-1.79,5.37-2.33a.74.74,0,0,1,.84.33.75.75,0,0,1,.07.67A.6.6,0,0,1,99.16,209Z" transform="translate(-3.67 -24.1)"/><rect class="cls-3" x="72.62" y="209.87" width="27.08" height="1.44" rx="0.68" transform="translate(-81.61 28.87) rotate(-23.9)"/><path class="cls-4" d="M98.21,206.05a.79.79,0,0,0,.34-.42.72.72,0,0,0-.11-.63.64.64,0,0,0-.78-.24l-5.45,2.46-18,8a.55.55,0,0,0-.33.46.57.57,0,0,0,0,.29.62.62,0,0,0,.17.26.59.59,0,0,0,.55.12l.64-.28L77.77,215l4.79-2.12,8.13-3.57,5.49-2.4,1.5-.64.39-.16c.09,0,.13-.05.14,0l-.13.07-.38.18-1.48.68c-1.31.58-3.17,1.42-5.46,2.46l-8.11,3.62-4.79,2.13-2.54,1.12-.66.29a.78.78,0,0,1-.77-.17.74.74,0,0,1-.23-.33,1,1,0,0,1-.07-.41.81.81,0,0,1,.48-.65l18.07-8,5.49-2.4a.73.73,0,0,1,.87.29.81.81,0,0,1,.1.69A.64.64,0,0,1,98.21,206.05Z" transform="translate(-3.67 -24.1)"/><rect class="cls-3" x="70.85" y="207.03" width="28.12" height="1.44" rx="0.68" transform="matrix(0.91, -0.41, 0.41, 0.91, -80.57, 28.12)"/><path class="cls-4" d="M97.43,203a.72.72,0,0,0,.36-.43.75.75,0,0,0-.14-.65.64.64,0,0,0-.83-.17l-5.66,2.55-18.72,8.33a.57.57,0,0,0-.34.48.73.73,0,0,0,.25.56.57.57,0,0,0,.58.06l.67-.29,2.63-1.17,5-2.19,8.43-3.71,5.69-2.49,1.56-.66.4-.17.14,0s0,0-.13.07l-.39.19-1.54.71-5.66,2.55-8.41,3.75-5,2.21-2.63,1.17-.67.3a.81.81,0,0,1-.82-.1.83.83,0,0,1-.26-.33,1,1,0,0,1-.08-.42.78.78,0,0,1,.47-.68l18.75-8.27,5.69-2.49a.73.73,0,0,1,.92.22.78.78,0,0,1,.13.7.71.71,0,0,1-.26.36A.43.43,0,0,1,97.43,203Z" transform="translate(-3.67 -24.1)"/><path class="cls-11" d="M64.51,203.54c.1.24,3,5.54,4.57,8.26a3.72,3.72,0,0,0,2.66,1.87l1.66.26,24.43-10.72.91-1.38a3.75,3.75,0,0,0,.42-3.27l-3-8.89Z" transform="translate(-3.67 -24.1)"/><g class="cls-10"><path d="M78.75,221.39a34.48,34.48,0,0,0,7.53-2.63c2.08-.92,4.15-1.76,6.4-2.8,1.64-.77,3.13-1.52,4.75-2.32a4.82,4.82,0,0,0,1.74-1.26Z" transform="translate(-3.67 -24.1)"/></g><g class="cls-10"><path d="M76.63,218.92a39.93,39.93,0,0,0,8.1-2.88c2.24-1,4.47-1.9,6.89-3,1.77-.82,3.38-1.63,5.14-2.48a5.74,5.74,0,0,0,1.89-1.33Z" transform="translate(-3.67 -24.1)"/></g><g class="cls-10"><path d="M75.39,216.1a39.93,39.93,0,0,0,8.1-2.88c2.24-1,4.47-1.91,6.89-3,1.78-.82,3.39-1.63,5.14-2.48a5.89,5.89,0,0,0,1.89-1.33Z" transform="translate(-3.67 -24.1)"/></g><g class="cls-10"><path d="M74.15,213.28a40.54,40.54,0,0,0,8.1-2.88c2.24-1,4.47-1.91,6.89-3,1.78-.82,3.39-1.62,5.14-2.48a5.64,5.64,0,0,0,1.89-1.32Z" transform="translate(-3.67 -24.1)"/></g><path class="cls-12" d="M64.51,203.54c.1.24,3,5.54,4.57,8.26a3.72,3.72,0,0,0,2.66,1.87l1.66.26,24.43-10.72.91-1.38a3.75,3.75,0,0,0,.42-3.27l-3-8.89Z" transform="translate(-3.67 -24.1)"/><path class="cls-4" d="M99.08,200c0,.06-6.49,3-14.55,6.52s-14.62,6.36-14.65,6.3,6.49-3,14.55-6.52S99.05,199.94,99.08,200Z" transform="translate(-3.67 -24.1)"/><path class="cls-4" d="M95.88,189.58c0,.07-7,3.26-15.78,7.14s-15.85,7-15.88,6.91,7-3.26,15.77-7.14S95.84,189.52,95.88,189.58Z" transform="translate(-3.67 -24.1)"/><path class="cls-13" d="M383.1,129.58l-11.2-1.31a36,36,0,1,1,7.26-10.67h0Z" transform="translate(-3.67 -24.1)"/><path class="cls-4" d="M383.1,129.58s-.1-.27-.27-.79l-.78-2.3-3-8.87.19,0h0a.11.11,0,0,1-.16,0,.11.11,0,0,1,0-.13A36,36,0,0,0,382,100.07a34.06,34.06,0,0,0-.9-5.47A37.92,37.92,0,0,0,379.16,89a35.72,35.72,0,0,0-68.26,9.38,36.35,36.35,0,0,0,1.65,16.36,35.17,35.17,0,0,0,8.14,13.17,35.89,35.89,0,0,0,24.58,10.85l1.54,0a10.84,10.84,0,0,0,1.51-.05l2.93-.26a48.42,48.42,0,0,0,5.45-1.2,35.77,35.77,0,0,0,15.12-9.06.1.1,0,0,1,.09,0l8.29,1,2.16.28.74.1-.7-.06-2.13-.23-8.38-.91.08,0a35.81,35.81,0,0,1-15.17,9.23,46.69,46.69,0,0,1-5.5,1.23l-3,.28a9.7,9.7,0,0,1-1.53,0h-1.55a35.91,35.91,0,0,1-12.88-2.76,36.33,36.33,0,0,1-12-8.14,35.58,35.58,0,0,1-8.27-13.34,36.88,36.88,0,0,1-1.69-16.58,36,36,0,0,1,6.37-16.25,16.31,16.31,0,0,1,1.33-1.74l1.39-1.69L321,77.09a14.54,14.54,0,0,1,1.58-1.46l1.66-1.37A20.48,20.48,0,0,1,326,73c.6-.39,1.17-.82,1.79-1.17l1.86-1a35.69,35.69,0,0,1,15.83-4,36.09,36.09,0,0,1,34,22,42.15,42.15,0,0,1,1.91,5.68,36,36,0,0,1-2.17,23.14l-.19-.12h0a.11.11,0,0,1,.19,0c1.25,3.92,2.22,6.94,2.87,9,.32,1,.56,1.76.73,2.28Z" transform="translate(-3.67 -24.1)"/><polygon class="cls-4" points="326.05 79.74 330.35 74.98 339.49 82.31 353.05 66.73 357.49 71.05 339.28 91.09 326.05 79.74"/><path class="cls-2" d="M284.39,132.69l7.11-.88a.07.07,0,0,1,.07,0,30.75,30.75,0,0,0,13,7.78,42.17,42.17,0,0,0,4.67,1l2.52.22a6.93,6.93,0,0,0,1.29,0h1.32a30.69,30.69,0,0,0,10.91-2.37,29.32,29.32,0,0,0,2.77-1.34c-.28-.1-.56-.2-.83-.32a35.53,35.53,0,0,1-11.79-8,34.81,34.81,0,0,1-8.1-13.07,36,36,0,0,1-1.66-16.26,35.21,35.21,0,0,1,6.25-15.92,14.27,14.27,0,0,1,1.3-1.71l1.36-1.65.59-.58-1,0a30.63,30.63,0,0,0-28.85,18.59,34.6,34.6,0,0,0-1.64,4.81,30.71,30.71,0,0,0,1.73,19.69.08.08,0,0,1,0,.11l-2.53,7.55c-.3.86-.52,1.51-.67,2s-.24.68-.24.68l.64-.09Z" transform="translate(-3.67 -24.1)"/><path class="cls-4" d="M284.39,132.69s-.21.05-.63.11l-1.85.27h-.09l0-.08c.69-2.1,1.85-5.58,3.38-10.22l0,0s0,.06,0,0l-.07-.14-.12-.29-.25-.61c-.16-.4-.31-.82-.47-1.25-.3-.86-.57-1.76-.81-2.71a30.68,30.68,0,0,1-.39-13.2,28.85,28.85,0,0,1,.95-3.65,26.43,26.43,0,0,1,1.44-3.68,30.87,30.87,0,0,1,29.62-17.75l.51,0-.36.36-.59.58h0a36.26,36.26,0,0,0-8.52,17A35.2,35.2,0,0,0,328.1,137l.43.16-.41.2a36.53,36.53,0,0,1-4.85,2.11,31.61,31.61,0,0,1-4.88,1.21,32.68,32.68,0,0,1-9.19.12h0c-1-.21-2.05-.38-3-.6a26.16,26.16,0,0,1-2.84-.83,31.84,31.84,0,0,1-4.91-2.21,31.05,31.05,0,0,1-6.84-5.22c0-.08-.2,0-.34,0l-.42,0-.8.09-1.45.17-2.28.27-1.39.15-.48,0,.47-.08,1.39-.2,2.27-.3,1.45-.19.8-.11.42-.05.22,0a.38.38,0,0,1,.13,0,.19.19,0,0,1,.1.05l0,0a30.81,30.81,0,0,0,6.83,5.11,31.29,31.29,0,0,0,10.73,3.55h0a37.54,37.54,0,0,0,4.42.24,30.18,30.18,0,0,0,4.68-.4,32.38,32.38,0,0,0,4.82-1.21,39,39,0,0,0,4.78-2.1l0,.36a35.57,35.57,0,0,1-22.2-40.08,36.64,36.64,0,0,1,8.62-17.17l0,0h0l.59-.59.15.39A30.69,30.69,0,0,0,297,84.69a30.36,30.36,0,0,0-11.11,12.66,26.65,26.65,0,0,0-1.43,3.62,30.22,30.22,0,0,0-1,3.61,30.39,30.39,0,0,0,.32,13.07c.23.94.49,1.84.79,2.7.15.42.29.84.45,1.24l.24.6.12.29.07.15s0,.22-.05.28l0,0c-1.58,4.64-2.76,8.12-3.5,10.18l-.06-.07,1.87-.22C284.17,132.7,284.39,132.69,284.39,132.69Z" transform="translate(-3.67 -24.1)"/><rect class="cls-9" x="567.03" y="45.01" width="19.15" height="69" rx="4.45"/><rect class="cls-9" x="507.05" y="85.61" width="19.15" height="31.32" rx="4.6"/><rect class="cls-9" x="536.64" y="68.58" width="19.15" height="48.36" rx="4.92"/><path class="cls-4" d="M582.77,46.31a3.44,3.44,0,0,1-.46.61c-.36.43-.83,1-1.42,1.67l-5.4,6.2L556.71,76l-.21.24-.26-.17-11.75-7.68.5-.07-.45.53L519.7,97.94l-.17.2-.2-.15L510,91.05l-2.52-1.92a5.1,5.1,0,0,1-.84-.71,6.5,6.5,0,0,1,.93.59l2.61,1.8,9.48,6.74-.36,0L544,68.3l.45-.52.22-.26.28.18,11.73,7.7-.47.06,19-21,5.57-6,1.51-1.6A3.36,3.36,0,0,1,582.77,46.31Z" transform="translate(-3.67 -24.1)"/><path class="cls-4" d="M583.38,60.88a26.06,26.06,0,0,1-.27-4.41c-.06-2.72-.11-6.49-.11-10.68l.44.38-.38.06c-4.21.7-8,1.29-10.81,1.67a27.58,27.58,0,0,1-4.51.48,26,26,0,0,1,4.42-1c2.75-.52,6.56-1.19,10.78-1.89l.38-.06.44-.08v.45c0,4.19,0,8-.11,10.68A26.06,26.06,0,0,1,583.38,60.88Z" transform="translate(-3.67 -24.1)"/></svg>