<svg id="Layer_1" data-name="Layer 1" xmlns="http://www.w3.org/2000/svg" viewBox="0 0 597.06 407.87"><defs><style>.cls-1{fill:#e0e0e0;}.cls-2{fill:#ebebeb;}.cls-3{fill:#f5f5f5;}.cls-10,.cls-4{fill:#fff;}.cls-5{fill:#263238;}.cls-6{fill:#fafafa;}.cls-7{fill:#ff735d;}.cls-8{opacity:0.3;}.cls-9{fill:#455a64;}.cls-10{fill-rule:evenodd;}.cls-11{fill:#ffbe9d;}.cls-12{fill:#eb996e;}.cls-13{opacity:0.6;}.cls-14{fill:#c27460;}.cls-15{fill:#7c4235;}</style></defs><path class="cls-1" d="M361.83,336.26h32.58a4.88,4.88,0,0,1,4.88,4.88v41a4.88,4.88,0,0,1-4.88,4.88H361.83a13.31,13.31,0,0,1-13.31-13.31V349.57a13.31,13.31,0,0,1,13.31-13.31Z"/><rect class="cls-2" x="339.41" y="336.26" width="50.77" height="50.77" rx="4.05"/><polygon class="cls-1" points="366.99 374.52 351.61 364.23 355.2 358.86 365.51 365.76 378.35 348.78 383.5 352.67 366.99 374.52"/><path class="cls-2" d="M221.46,352.7a35.43,35.43,0,1,1-36-35A35.55,35.55,0,0,1,221.46,352.7Zm-52.36.84a16.94,16.94,0,1,0,16.66-17.29A17,17,0,0,0,169.1,353.54Z" transform="translate(-13.95 -4.56)"/><path class="cls-1" d="M221.46,352.7a35.55,35.55,0,0,1-34.86,36.15l-.29-18.57a17,17,0,0,0-.55-34l-.29-18.57A35.55,35.55,0,0,1,221.46,352.7Z" transform="translate(-13.95 -4.56)"/><path class="cls-3" d="M189.78,391.71a40.48,40.48,0,0,1-41.44-40.32L170,351c.17,11,8.52,17.89,19.45,17.71Z" transform="translate(-13.95 -4.56)"/><path class="cls-2" d="M599.88,44.92a27.66,27.66,0,1,1-28.1-27.34A27.75,27.75,0,0,1,599.88,44.92ZM559,45.58a13.23,13.23,0,1,0,13-13.5A13.26,13.26,0,0,0,559,45.58Z" transform="translate(-13.95 -4.56)"/><path class="cls-1" d="M599.88,44.92a27.76,27.76,0,0,1-27.21,28.23l-.23-14.5A13.29,13.29,0,0,0,572,32.08l-.23-14.5A27.76,27.76,0,0,1,599.88,44.92Z" transform="translate(-13.95 -4.56)"/><path class="cls-3" d="M575.15,75.38A31.61,31.61,0,0,1,542.79,43.9l16.89-.27c.13,8.57,6.65,14,15.18,13.83Z" transform="translate(-13.95 -4.56)"/><path class="cls-2" d="M37.45,177.32h6.47V161.11h4.52l.48-5.43h-5v-3.1c0-1.28.26-1.78,1.5-1.78h3.5v-5.64H44.44c-4.82,0-7,2.13-7,6.19v4.33H34.08v5.49h3.37Z" transform="translate(-13.95 -4.56)"/><path class="cls-3" d="M170.26,36l26.06-4a26.36,26.36,0,1,1-30-22.08,26.78,26.78,0,0,1,6.87-.14Z" transform="translate(-13.95 -4.56)"/><path class="cls-1" d="M178.71,9.85l-3.16,20.2,19.83-3.72S192.46,15,178.71,9.85Z" transform="translate(-13.95 -4.56)"/><path class="cls-4" d="M87.1,226.8H29.53a15.3,15.3,0,0,0-15.3,15.3v34.78a15.3,15.3,0,0,0,15.3,15.3H50.64l7.67,11.05L66,292.18H87.1a15.3,15.3,0,0,0,15.3-15.3V242.1A15.3,15.3,0,0,0,87.1,226.8Z" transform="translate(-13.95 -4.56)"/><path class="cls-1" d="M87.1,226.8a14.15,14.15,0,0,1,2,.09,14.77,14.77,0,0,1,5.47,1.75A16.33,16.33,0,0,1,98,231.15a16.06,16.06,0,0,1,3,4.08,15.36,15.36,0,0,1,1.59,5.6c.13,2.09,0,4.26.08,6.57,0,4.61,0,9.69,0,15.19,0,2.75,0,5.6,0,8.56,0,1.47,0,3,0,4.5a19.57,19.57,0,0,1-.39,4.67,15.54,15.54,0,0,1-14.44,12.1c-7,.08-14.27,0-21.82.06l.24-.13-7.67,11.06-.25.35-.24-.35-7.68-11.05.25.13H31.55a34.23,34.23,0,0,1-3.78-.11,15.84,15.84,0,0,1-7-2.61A15.49,15.49,0,0,1,14,277.24V249.79q0-3.28,0-6.48a17.34,17.34,0,0,1,.87-6.29,15.56,15.56,0,0,1,13.53-10.41c1.91-.11,3.73,0,5.54-.05l10.38,0,31.33.1,8.52.06,2.21,0,.76,0-.76,0-2.21,0-8.52.06-31.33.1L33.9,227c-1.79,0-3.66,0-5.5.07A15,15,0,0,0,15.34,237.2a16.81,16.81,0,0,0-.83,6.11q0,3.19,0,6.48c0,8.74,0,17.92,0,27.44A15.36,15.36,0,0,0,16.32,284a15.73,15.73,0,0,0,4.76,5.28,15.32,15.32,0,0,0,6.75,2.5c1.21.12,2.46.11,3.72.11H50.8l.09.13,7.67,11.05h-.49l7.68-11,.08-.13H66c7.54,0,14.85.05,21.79,0a15,15,0,0,0,14-11.66,18.88,18.88,0,0,0,.39-4.56c0-1.52,0-3,0-4.5,0-3,0-5.81,0-8.56,0-5.5,0-10.58,0-15.19,0-2.3.08-4.51,0-6.54a15,15,0,0,0-1.52-5.51,15.89,15.89,0,0,0-2.87-4,16.72,16.72,0,0,0-3.31-2.51,15.06,15.06,0,0,0-5.4-1.82c-.64-.12-1.14-.09-1.47-.14A4.93,4.93,0,0,1,87.1,226.8Z" transform="translate(-13.95 -4.56)"/><path class="cls-1" d="M46.45,260.38a5,5,0,1,1-5-4.95A5,5,0,0,1,46.45,260.38Z" transform="translate(-13.95 -4.56)"/><path class="cls-1" d="M62.74,260.38a4.95,4.95,0,1,1-5-4.95A5,5,0,0,1,62.74,260.38Z" transform="translate(-13.95 -4.56)"/><path class="cls-1" d="M79,260.38a5,5,0,1,1-5-4.95A5,5,0,0,1,79,260.38Z" transform="translate(-13.95 -4.56)"/><path class="cls-4" d="M535.88,89.82H490.26a12.12,12.12,0,0,0-12.13,12.12v27.57a12.13,12.13,0,0,0,12.13,12.12H507l6.08,8.76,6.08-8.76h16.73A12.12,12.12,0,0,0,548,129.51V101.94A12.11,12.11,0,0,0,535.88,89.82Z" transform="translate(-13.95 -4.56)"/><path class="cls-1" d="M535.88,89.82a9.75,9.75,0,0,1,1.57.07,11.66,11.66,0,0,1,4.35,1.38,13.42,13.42,0,0,1,2.68,2,12.81,12.81,0,0,1,2.35,3.23,12,12,0,0,1,1.25,4.45c.11,1.65,0,3.37.07,5.2,0,3.65,0,7.68,0,12,0,2.18,0,4.44,0,6.78,0,1.17,0,2.36,0,3.57a16.09,16.09,0,0,1-.31,3.7,12.33,12.33,0,0,1-3.95,6.6,12.14,12.14,0,0,1-7.5,3c-5.54.07-11.3,0-17.29.05l.19-.1-6.08,8.76-.19.28-.2-.28-6.08-8.76.2.11H491.85c-1,0-2,0-3-.09a12.65,12.65,0,0,1-5.58-2.07,12.83,12.83,0,0,1-3.91-4.35,12.5,12.5,0,0,1-1.46-5.58V102.9a14,14,0,0,1,.69-5,12.31,12.31,0,0,1,10.73-8.24c1.51-.09,2.95,0,4.39,0H502l24.82.08,6.75,0,1.76,0c.4,0,.6,0,.6,0l-.6,0-1.76,0-6.75,0L502,90h-8.23c-1.42,0-2.91,0-4.36.06a11.88,11.88,0,0,0-10.35,8,13.29,13.29,0,0,0-.66,4.85V108c0,6.92,0,14.2,0,21.74a11.88,11.88,0,0,0,10.53,11.53,28.55,28.55,0,0,0,2.94.08h15.26l.08.11,6.07,8.76h-.39L519,141.5l.07-.1h.12c6,0,11.77,0,17.27,0a11.91,11.91,0,0,0,11.08-9.24,15.24,15.24,0,0,0,.31-3.62c0-1.21,0-2.4,0-3.57,0-2.34,0-4.6,0-6.78,0-4.36,0-8.39,0-12,0-1.82.06-3.57,0-5.18a11.81,11.81,0,0,0-1.2-4.37,12.34,12.34,0,0,0-2.28-3.19,13,13,0,0,0-2.62-2A11.75,11.75,0,0,0,537.44,90a9.39,9.39,0,0,0-1.16-.11Z" transform="translate(-13.95 -4.56)"/><path class="cls-1" d="M503.66,116.43a3.92,3.92,0,1,1-3.92-3.92A3.92,3.92,0,0,1,503.66,116.43Z" transform="translate(-13.95 -4.56)"/><path class="cls-1" d="M516.58,116.43a3.93,3.93,0,1,1-3.93-3.92A3.93,3.93,0,0,1,516.58,116.43Z" transform="translate(-13.95 -4.56)"/><path class="cls-1" d="M529.49,116.43a3.93,3.93,0,1,1-3.92-3.92A3.93,3.93,0,0,1,529.49,116.43Z" transform="translate(-13.95 -4.56)"/><path class="cls-2" d="M580.19,132.91a16.36,16.36,0,0,0,25.16-14.52,11.58,11.58,0,0,0,2.86-3,11.45,11.45,0,0,1-3.3.91,5.76,5.76,0,0,0,2.53-3.18,11.51,11.51,0,0,1-3.65,1.39,5.76,5.76,0,0,0-9.8,5.25,16.34,16.34,0,0,1-11.85-6,5.76,5.76,0,0,0,1.78,7.67,5.7,5.7,0,0,1-2.6-.71,5.77,5.77,0,0,0,4.61,5.71,5.67,5.67,0,0,1-2.6.09,5.76,5.76,0,0,0,5.37,4A11.57,11.57,0,0,1,580.19,132.91Z" transform="translate(-13.95 -4.56)"/><path class="cls-5" d="M611,392.16h-1.48l-4.33,0L588.54,392l-61.26-.48c-25.87-.18-56.66-.27-90.86-.34l-111.27.06L123,391.94l-61.26.21-16.65,0H39.27l1.47,0,4.34,0L61.73,392l61.26-.35c51.73-.28,123.21-.67,202.16-.85,39.47-.08,77.07-.09,111.27,0s65,.22,90.86.43l34.91.32,26.36.31,16.65.24,4.33.08Z" transform="translate(-13.95 -4.56)"/><path class="cls-6" d="M86.79,97.1l-2.1-7a24.43,24.43,0,1,0-5.85,6.51h0Z" transform="translate(-13.95 -4.56)"/><path class="cls-5" d="M86.79,97.1H86.3L84.79,97l-6-.31a.1.1,0,0,1-.1-.11.11.11,0,0,1,0-.06h0l.15.15a24.52,24.52,0,0,1-11,4.86,24.81,24.81,0,0,1-16.21-2.9,24.53,24.53,0,0,1-7.35-6.43,24.54,24.54,0,0,1,1-31.12,24.36,24.36,0,0,1,9.74-6.8,25.17,25.17,0,0,1,11.25-1.52A24.63,24.63,0,0,1,88.42,78.71a24.29,24.29,0,0,1-3.64,11.42v-.08c.66,2.28,1.16,4,1.51,5.27l.38,1.34a4,4,0,0,1,.11.44s-.06-.16-.16-.47l-.42-1.35c-.38-1.2-.92-2.93-1.62-5.17a.15.15,0,0,1,0-.09A24.21,24.21,0,0,0,55.27,54.75a23.86,23.86,0,0,0-9.55,6.67,24.17,24.17,0,0,0,14.39,39.77,23.88,23.88,0,0,0,7.73,0,24.46,24.46,0,0,0,10.93-4.71.1.1,0,0,1,.15,0,.1.1,0,0,1,0,.13h0l-.07-.17,5.88.43,1.54.12Z" transform="translate(-13.95 -4.56)"/><path class="cls-5" d="M57,77.29a2.48,2.48,0,1,1-2.48-2.48A2.48,2.48,0,0,1,57,77.29Z" transform="translate(-13.95 -4.56)"/><path class="cls-5" d="M66.94,77.29a2.48,2.48,0,1,1-2.48-2.48A2.48,2.48,0,0,1,66.94,77.29Z" transform="translate(-13.95 -4.56)"/><path class="cls-5" d="M76.84,76.05a2.48,2.48,0,1,1-3.39-.91A2.46,2.46,0,0,1,76.84,76.05Z" transform="translate(-13.95 -4.56)"/><path class="cls-7" d="M309.76,328.59h0s0,1.31-.06,3.61a15.81,15.81,0,0,0-5.43-3.22h0s-10.94-6.77-15.93-15.4a46.39,46.39,0,0,1-4.84-13.85c0-.37,0-3.7-.07-6.42a4.17,4.17,0,0,0-4-4.1c-4.69-.17-17.18.27-18.06,8.93-1.32,12.93,8.29,24.33,9.08,28.05.15.7.27,1.27.36,1.73-3.69,0-6.54.05-6.54.11h0L240,328s-8.14-.54-8.94,7.86,8.64,8.94,8.64,8.94-4.2.78-3.68,8.13,8.64,7.89,8.64,7.89-4.72.78-4.47,7.34c.24,6.39,8.7,8.32,9.15,8.42a13.92,13.92,0,0,0-1.92.08,13.3,13.3,0,0,0,1.49.07c-3.44,1.28-3,5.62-3,5.62-.28,9.19,6.8,9.46,6.8,9.46l44.29.08a24.85,24.85,0,0,0,12.56-3.39c0,1.88,0,2.94,0,2.94h0l30.93.06c.06,0,.14-14.07.18-31.42s0-31.43-.07-31.43Z" transform="translate(-13.95 -4.56)"/><g class="cls-8"><path d="M309.76,328.59h0s0,1.31-.06,3.61a15.81,15.81,0,0,0-5.43-3.22h0s-10.94-6.77-15.93-15.4a46.39,46.39,0,0,1-4.84-13.85c0-.37,0-3.7-.07-6.42a4.17,4.17,0,0,0-4-4.1c-4.69-.17-17.18.27-18.06,8.93-1.32,12.93,8.29,24.33,9.08,28.05.15.7.27,1.27.36,1.73-3.69,0-6.54.05-6.54.11h0L240,328s-8.14-.54-8.94,7.86,8.64,8.94,8.64,8.94-4.2.78-3.68,8.13,8.64,7.89,8.64,7.89-4.72.78-4.47,7.34c.24,6.39,8.7,8.32,9.15,8.42a13.92,13.92,0,0,0-1.92.08,13.3,13.3,0,0,0,1.49.07c-3.44,1.28-3,5.62-3,5.62-.28,9.19,6.8,9.46,6.8,9.46l44.29.08a24.85,24.85,0,0,0,12.56-3.39c0,1.88,0,2.94,0,2.94h0l30.93.06c.06,0,.14-14.07.18-31.42s0-31.43-.07-31.43Z" transform="translate(-13.95 -4.56)"/></g><path class="cls-7" d="M306,338.26l1.46,3.68-.08,42.35h0a24.87,24.87,0,0,1-18.1,7.78L245,392s-7.09-.27-6.81-9.46c0,0-.52-4.72,3.42-5.77,0,0-8.92-1.85-9.17-8.41s4.48-7.34,4.48-7.34-8.14-.54-8.65-7.89S232,345,232,345s-9.45-.54-8.65-8.94,8.94-7.85,8.94-7.85l31.5.05,27.61,0A15.76,15.76,0,0,1,306,338.26Z" transform="translate(-13.95 -4.56)"/><path class="cls-7" d="M296.56,329.16s-10.93-6.77-15.92-15.4a46.07,46.07,0,0,1-4.84-13.85c0-.37,0-3.7-.08-6.42a4.15,4.15,0,0,0-4-4.1c-4.69-.17-12.15,3.87-13,12.53-1.32,12.93,3.26,20.74,4,24.45l.79,3.72Z" transform="translate(-13.95 -4.56)"/><rect class="cls-7" x="301.97" y="328.8" width="30.93" height="62.85" transform="translate(620.26 716.47) rotate(-179.89)"/><path class="cls-5" d="M301.91,391.62c-.07,0-.1-14.07-.06-31.43s.11-31.42.17-31.42.1,14.07.07,31.42S302,391.62,301.91,391.62Z" transform="translate(-13.95 -4.56)"/><path class="cls-5" d="M332.84,391.67c-.06,0-.09-14.07-.06-31.42s.11-31.42.18-31.42.09,14.06.06,31.42S332.91,391.67,332.84,391.67Z" transform="translate(-13.95 -4.56)"/><path class="cls-4" d="M312.92,343.18a5.79,5.79,0,1,0,5.8-5.78A5.78,5.78,0,0,0,312.92,343.18Z" transform="translate(-13.95 -4.56)"/><path class="cls-5" d="M256.52,328.21c0-.06,3.38-.11,7.54-.1s7.53.07,7.53.13-3.37.12-7.53.11S256.52,328.28,256.52,328.21Z" transform="translate(-13.95 -4.56)"/><path class="cls-5" d="M236.31,361.29c0-.06,2.16-.11,4.81-.11s4.82.06,4.82.13a45.7,45.7,0,0,1-4.82.11A45.27,45.27,0,0,1,236.31,361.29Z" transform="translate(-13.95 -4.56)"/><path class="cls-5" d="M231.37,344.82c0-.07,3.06-.11,6.83-.11s6.84.07,6.84.14-3.06.11-6.84.1S231.37,344.89,231.37,344.82Z" transform="translate(-13.95 -4.56)"/><path class="cls-5" d="M239.7,376.83c0-.07,3.06-.12,6.83-.11s6.83.07,6.83.13-3.05.12-6.83.11S239.7,376.9,239.7,376.83Z" transform="translate(-13.95 -4.56)"/><g class="cls-8"><path class="cls-4" d="M272.12,292.4a3.57,3.57,0,0,1,1.48,3.34,23.26,23.26,0,0,1-.82,3.75,13,13,0,0,0,.89,8.3c.36.79.81,1.69.44,2.47-.54,1.1-2.17.94-3.28.43a12.34,12.34,0,0,1-7-11.16,8.65,8.65,0,0,1,1.86-5.45c1.27-1.49,3.38-3.07,6.45-1.68" transform="translate(-13.95 -4.56)"/></g><g class="cls-8"><path class="cls-4" d="M229.76,329.85a7.59,7.59,0,0,1,3.18-.4l18.78.4c2.05,0,5.77-.36,6.27,1.6h0a2.42,2.42,0,0,1-.86,3.09,6.44,6.44,0,0,1-3.36.91c-2.46.17-4.92.16-7.39.14a92.92,92.92,0,0,1-14.82-.92,6.37,6.37,0,0,1-2.1-.62,2.46,2.46,0,0,1-1.32-1.67A2.54,2.54,0,0,1,229.76,329.85Z" transform="translate(-13.95 -4.56)"/></g><path class="cls-4" d="M309.32,330.56c0-.06,4.32-.11,9.65-.1s9.65.07,9.65.14-4.32.11-9.65.1S309.32,330.63,309.32,330.56Z" transform="translate(-13.95 -4.56)"/><path class="cls-4" d="M231.71,355.65a1.11,1.11,0,0,1-.19-.32,5,5,0,0,1-.38-.95,6.45,6.45,0,0,1-.29-1.49,8,8,0,0,1,.06-1.87,9,9,0,0,1,.5-1.79,7.47,7.47,0,0,1,.73-1.34,6.52,6.52,0,0,1,.65-.79c.17-.17.27-.26.29-.25s-.35.42-.8,1.13a9.15,9.15,0,0,0-.66,1.33,8.58,8.58,0,0,0-.47,1.75,8.67,8.67,0,0,0-.08,1.81,8,8,0,0,0,.23,1.47C231.51,355.16,231.75,355.63,231.71,355.65Z" transform="translate(-13.95 -4.56)"/><path class="cls-4" d="M227.16,339.72a2.2,2.2,0,0,1-.73-.66,4.6,4.6,0,0,1-1-2.18,4.66,4.66,0,0,1,.21-2.38,2.1,2.1,0,0,1,.49-.86s-.16.34-.33.91a5.17,5.17,0,0,0,.72,4.41C226.91,339.45,227.19,339.69,227.16,339.72Z" transform="translate(-13.95 -4.56)"/><path class="cls-4" d="M237.14,372.69a2.43,2.43,0,0,1-1-.6,4.12,4.12,0,0,1-.86-5.1,2.41,2.41,0,0,1,.72-.88s-.27.35-.57,1a4.25,4.25,0,0,0,.82,4.9C236.77,372.45,237.16,372.65,237.14,372.69Z" transform="translate(-13.95 -4.56)"/><path class="cls-4" d="M243.4,387.62a2.45,2.45,0,0,1-.72-.71,5.35,5.35,0,0,1-1-2.25,5.49,5.49,0,0,1,.11-2.45,2.52,2.52,0,0,1,.42-.93s-.12.37-.25,1a5.93,5.93,0,0,0,0,2.37,6,6,0,0,0,.89,2.19C243.16,387.32,243.43,387.59,243.4,387.62Z" transform="translate(-13.95 -4.56)"/><path class="cls-4" d="M261.59,316.08a5.64,5.64,0,0,1-.33-.64c-.1-.21-.22-.47-.34-.77s-.27-.66-.39-1.05a22.3,22.3,0,0,1-.77-2.82,24.61,24.61,0,0,1-.41-3.54,23.93,23.93,0,0,1,.16-3.57,21.13,21.13,0,0,1,.55-2.86c.1-.4.22-.76.32-1.07a7.2,7.2,0,0,1,.28-.8,3.36,3.36,0,0,1,.29-.66,5.48,5.48,0,0,1-.2.69c-.07.22-.16.49-.24.81s-.2.67-.28,1.07a23.7,23.7,0,0,0-.5,2.85,25,25,0,0,0-.14,3.53,26.14,26.14,0,0,0,.39,3.51,23.14,23.14,0,0,0,.71,2.8c.11.4.25.75.36,1.06s.21.57.3.78A3.41,3.41,0,0,1,261.59,316.08Z" transform="translate(-13.95 -4.56)"/><rect class="cls-4" x="156.31" y="41.75" width="275.66" height="229.51" rx="16.01"/><path class="cls-5" d="M431.91,276.25H184.27a14.46,14.46,0,0,1-14.45-14.45V60.31a14.46,14.46,0,0,1,14.45-14.44H431.91a14.46,14.46,0,0,1,14.44,14.44V261.8A14.46,14.46,0,0,1,431.91,276.25ZM184.27,46.74A13.59,13.59,0,0,0,170.7,60.31V261.8a13.58,13.58,0,0,0,13.57,13.57H431.91a13.58,13.58,0,0,0,13.57-13.57V60.31a13.59,13.59,0,0,0-13.57-13.57Z" transform="translate(-13.95 -4.56)"/><rect class="cls-7" x="199.94" y="212.32" width="5.83" height="40.37"/><rect class="cls-7" x="188.9" y="242.59" width="5.83" height="10.09"/><rect class="cls-7" x="210.02" y="232.5" width="5.83" height="20.18"/><rect class="cls-7" x="219.94" y="220.75" width="5.83" height="31.94"/><rect class="cls-7" x="231.36" y="244.15" width="5.83" height="8.54"/><path class="cls-7" d="M428.07,247.85a1.43,1.43,0,0,1-.33-1,1.42,1.42,0,0,1,.33-1,1.07,1.07,0,0,1,.85-.38,1.09,1.09,0,0,1,.85.37,1.44,1.44,0,0,1,.33,1,1.42,1.42,0,0,1-.33,1,1.16,1.16,0,0,1-1.7,0Zm1.3-.35a1.13,1.13,0,0,0,.15-.63,1.14,1.14,0,0,0-.15-.64.52.52,0,0,0-.45-.22.5.5,0,0,0-.44.23,1.25,1.25,0,0,0,0,1.26.55.55,0,0,0,.89,0Zm2.51-1.94h.69l-3.37,4.94h-.69Zm-.58,4.61a1.42,1.42,0,0,1-.33-1,1.43,1.43,0,0,1,.33-1,1.06,1.06,0,0,1,.85-.37,1.09,1.09,0,0,1,.86.37,1.43,1.43,0,0,1,.33,1,1.42,1.42,0,0,1-.33,1,1.09,1.09,0,0,1-.86.37A1.06,1.06,0,0,1,431.3,250.17Zm1.3-.35a1.32,1.32,0,0,0,0-1.26.53.53,0,0,0-.45-.23.52.52,0,0,0-.44.23,1,1,0,0,0-.16.63,1.08,1.08,0,0,0,.16.64.55.55,0,0,0,.89,0Z" transform="translate(-13.95 -4.56)"/><path class="cls-2" d="M399.37,223.16H418.6a.9.9,0,0,0,.64-1.52l-9.62-9.82a.89.89,0,0,0-1.28,0l-9.61,9.82A.89.89,0,0,0,399.37,223.16Z" transform="translate(-13.95 -4.56)"/><rect class="cls-2" x="389.13" y="216.78" width="12.33" height="19.55"/><path class="cls-7" d="M411.3,257.28v4H399.08v-3.16l5.51-5.1a4.53,4.53,0,0,0,1-1.15,2.11,2.11,0,0,0,.24-.94,1.09,1.09,0,0,0-.38-.88,1.7,1.7,0,0,0-1.1-.32,2.48,2.48,0,0,0-2.25,1.42l-3.88-1.94a6.46,6.46,0,0,1,2.55-2.58,9.07,9.07,0,0,1,7.26-.36,5.07,5.07,0,0,1,2.18,1.67,4.22,4.22,0,0,1,.78,2.51,5.4,5.4,0,0,1-.53,2.36,8.88,8.88,0,0,1-2.08,2.5l-2.18,2Z" transform="translate(-13.95 -4.56)"/><path class="cls-7" d="M415.67,260.67a6.43,6.43,0,0,1-2.44-2.75,10.85,10.85,0,0,1,0-8.56,6.4,6.4,0,0,1,2.44-2.74,7.24,7.24,0,0,1,7.17,0,6.47,6.47,0,0,1,2.44,2.74,10.85,10.85,0,0,1,0,8.56,6.5,6.5,0,0,1-2.44,2.75,7.24,7.24,0,0,1-7.17,0Zm5.33-7c0-2.57-.59-3.85-1.75-3.85s-1.74,1.28-1.74,3.85.58,3.86,1.74,3.86S421,256.21,421,253.64Z" transform="translate(-13.95 -4.56)"/><path class="cls-7" d="M227,137.78a1.46,1.46,0,0,1-.32-1,1.48,1.48,0,0,1,.32-1,1.1,1.1,0,0,1,.85-.37,1.08,1.08,0,0,1,.86.37,1.64,1.64,0,0,1,0,2,1.11,1.11,0,0,1-.86.37A1.08,1.08,0,0,1,227,137.78Zm1.3-.34a1.06,1.06,0,0,0,.16-.64,1,1,0,0,0-.16-.63.51.51,0,0,0-.45-.23.53.53,0,0,0-.44.23,1.09,1.09,0,0,0-.16.63,1,1,0,0,0,.16.63.55.55,0,0,0,.89,0Zm2.51-1.94h.69l-3.36,4.93h-.69Zm-.57,4.61a1.43,1.43,0,0,1-.33-1,1.42,1.42,0,0,1,.33-1,1.16,1.16,0,0,1,1.7,0,1.42,1.42,0,0,1,.33,1,1.43,1.43,0,0,1-.33,1,1.16,1.16,0,0,1-1.7,0Zm1.29-.35a1.32,1.32,0,0,0,0-1.26.52.52,0,0,0-.44-.23.5.5,0,0,0-.44.22,1.1,1.1,0,0,0-.17.64,1,1,0,0,0,.17.63.5.5,0,0,0,.44.23A.52.52,0,0,0,231.5,139.76Z" transform="translate(-13.95 -4.56)"/><path class="cls-2" d="M179.68,136.6h17.6a.82.82,0,0,0,.58-1.39l-8.8-9a.83.83,0,0,0-1.17,0l-8.8,9A.82.82,0,0,0,179.68,136.6Z" transform="translate(-13.95 -4.56)"/><rect class="cls-2" x="169.13" y="130.37" width="11.28" height="17.89"/><path class="cls-7" d="M209.65,136.14v15.25h-5.14V140h-2.62v-3.88Z" transform="translate(-13.95 -4.56)"/><path class="cls-7" d="M214.85,150.8a6.43,6.43,0,0,1-2.44-2.75,10.74,10.74,0,0,1,0-8.56,6.43,6.43,0,0,1,2.44-2.75,7.29,7.29,0,0,1,7.16,0,6.49,6.49,0,0,1,2.44,2.75,10.74,10.74,0,0,1,0,8.56A6.49,6.49,0,0,1,222,150.8a7.29,7.29,0,0,1-7.16,0Zm5.32-7c0-2.57-.58-3.86-1.74-3.86s-1.74,1.29-1.74,3.86.58,3.86,1.74,3.86S220.17,146.34,220.17,143.77Z" transform="translate(-13.95 -4.56)"/><path class="cls-5" d="M254.4,257.44c0,.12-11.87.22-26.5.22s-26.5-.1-26.5-.22,11.86-.23,26.5-.23S254.4,257.31,254.4,257.44Z" transform="translate(-13.95 -4.56)"/><rect class="cls-4" x="331.6" y="0.23" width="131.67" height="76.7" rx="7.12"/><path class="cls-5" d="M470.1,81.49s.35,0,1-.11a7.1,7.1,0,0,0,5.72-5,9.88,9.88,0,0,0,.29-3.14c0-1.13,0-2.34,0-3.62,0-10.24,0-25.05-.07-43.34q0-6.87,0-14.37a7,7,0,0,0-3.6-6.11A7.08,7.08,0,0,0,469.75,5h-4L431.39,5,352.68,5a6.89,6.89,0,0,0-6.86,6.14c-.09,3.39,0,6.86-.05,10.25V41.48q0,9.87,0,19.39v9.39c0,1.55,0,3.11,0,4.61a6.9,6.9,0,0,0,5.36,6.23,9.18,9.18,0,0,0,2.17.18h27.62l29.93,0,43.34.07,11.79,0,3.06,0,1.05,0-1.05,0-3.06,0-11.79,0-43.34.07-29.93,0H353.31a9.12,9.12,0,0,1-2.26-.18,7.33,7.33,0,0,1-5.69-6.61c-.05-1.56,0-3.08,0-4.64V60.87q0-9.51,0-19.39V21.4c0-3.41-.05-6.81.05-10.3a7.34,7.34,0,0,1,7.31-6.54h78.71l34.36,0h4a7.55,7.55,0,0,1,3.87.91,7.33,7.33,0,0,1,3.77,6.43q0,7.5,0,14.37c0,18.29-.06,33.1-.07,43.34,0,1.28,0,2.49,0,3.62a9.83,9.83,0,0,1-.31,3.17,7.12,7.12,0,0,1-5.84,5,5.4,5.4,0,0,1-.78.06Z" transform="translate(-13.95 -4.56)"/><rect class="cls-7" x="348.46" y="48.75" width="3.78" height="13.71"/><rect class="cls-7" x="361.91" y="37.66" width="3.78" height="24.8"/><rect class="cls-9" x="354.74" y="21.39" width="4.66" height="41.07"/><rect class="cls-7" x="375.36" y="53.08" width="3.78" height="9.38"/><rect class="cls-9" x="368.64" y="53.08" width="3.78" height="9.38"/><rect class="cls-7" x="388.82" y="47.09" width="3.78" height="15.37"/><rect class="cls-9" x="382.09" y="33.75" width="3.78" height="28.71"/><rect class="cls-9" x="409" y="33.75" width="3.78" height="28.71"/><rect class="cls-9" x="395.54" y="19.22" width="3.78" height="43.24"/><rect class="cls-7" x="402.27" y="51.75" width="3.78" height="10.71"/><rect class="cls-9" x="435.91" y="54.6" width="3.78" height="7.86"/><rect class="cls-9" x="422.45" y="20.04" width="3.78" height="42.42"/><rect class="cls-7" x="429.18" y="28.72" width="3.78" height="33.75"/><rect class="cls-7" x="415.73" y="27.49" width="3.78" height="34.97"/><rect class="cls-7" x="442.63" y="33.75" width="3.78" height="28.71"/><rect class="cls-1" x="348.56" y="66.53" width="8.87" height="1.56" rx="0.61"/><rect class="cls-1" x="374.27" y="66.53" width="8.87" height="1.56" rx="0.61"/><rect class="cls-1" x="396.97" y="66.53" width="8.87" height="1.56" rx="0.61"/><rect class="cls-1" x="420.35" y="66.53" width="8.87" height="1.56" rx="0.61"/><rect class="cls-1" x="440.16" y="66.53" width="8.87" height="1.56" rx="0.61"/><path class="cls-5" d="M465.19,67c0,.12-24.3.22-54.27.22s-54.28-.1-54.28-.22,24.3-.23,54.28-.23S465.19,66.89,465.19,67Z" transform="translate(-13.95 -4.56)"/><circle class="cls-1" cx="344.17" cy="11.07" r="2.07"/><path class="cls-1" d="M365.83,15.63a2.08,2.08,0,1,1-2.07-2.07A2.07,2.07,0,0,1,365.83,15.63Z" transform="translate(-13.95 -4.56)"/><circle class="cls-1" cx="355.39" cy="11.07" r="2.07"/><path class="cls-5" d="M257.57,182.81l12.89,26.87,6.74-1.75,43.08,36.95,12.72-24s-25.66-11.81-30.26-21.25-.28-9.16-.28-9.16L291.8,173.92Z" transform="translate(-13.95 -4.56)"/><path class="cls-1" d="M274.23,147s13.52-4,35.14-19.29A198.66,198.66,0,0,0,343,96.8a7.36,7.36,0,0,1,10.31-.93c4.75,4,11.31,14.07,18.45,39.64,12.6,45.1,3.56,53.67-.23,53s-28.72-8.92-45.13-9.62S285,183.06,285,183.06Z" transform="translate(-13.95 -4.56)"/><path class="cls-5" d="M274.23,147s0,.19.15.6.29,1,.51,1.8c.47,1.65,1.16,4,2,7.06l7.82,26.71.08.25.26-.05c7.11-1.3,15.25-2.55,24.24-3.42,4.49-.42,9.21-.75,14.1-.72a86.91,86.91,0,0,1,15.11,1.56c10.37,1.83,21.08,5,32.41,8l.55.13h.64a4.31,4.31,0,0,0,1.23-.28c.34-.21.71-.4,1-.64l.86-.84a12,12,0,0,0,2.11-4.12,31.71,31.71,0,0,0,1.3-9.14,96.67,96.67,0,0,0-1.79-18.7c-.27-1.38-.53-2.77-.79-4.14s-.61-2.73-.91-4.09c-.59-2.72-1.28-5.39-2-8-1.35-5.32-2.92-10.49-4.61-15.53a128.49,128.49,0,0,0-5.77-14.53c-2.22-4.59-4.74-9-8.25-12.53a9.09,9.09,0,0,0-3.09-2.11,7.59,7.59,0,0,0-3.68-.44,7.77,7.77,0,0,0-3.42,1.27,12.84,12.84,0,0,0-2.55,2.49c-3,3.44-6.07,6.68-9.11,9.72a198,198,0,0,1-17.84,15.9,191.7,191.7,0,0,1-29.06,18.63c-3.64,1.86-6.54,3.13-8.52,3.94-1,.41-1.76.7-2.27.89a6.2,6.2,0,0,0-.78.31,4.78,4.78,0,0,0,.81-.22c.52-.16,1.3-.42,2.3-.8,2-.76,5-2,8.61-3.79a184.61,184.61,0,0,0,29.3-18.44,196.75,196.75,0,0,0,18-15.87c3.06-3,6.14-6.28,9.18-9.73a12,12,0,0,1,2.4-2.34,7,7,0,0,1,3.07-1.14A7.13,7.13,0,0,1,354,97c3.37,3.37,5.86,7.75,8,12.3a128.34,128.34,0,0,1,5.71,14.44c1.68,5,3.24,10.17,4.58,15.47.71,2.64,1.4,5.3,2,8,.3,1.35.63,2.7.91,4.07s.51,2.74.78,4.12a95.89,95.89,0,0,1,1.78,18.51,31.12,31.12,0,0,1-1.24,8.87,11.4,11.4,0,0,1-1.94,3.82l-.73.72c-.27.19-.56.34-.84.52a2.8,2.8,0,0,1-1.88.09c-11.22-3.05-22-6.19-32.45-8a87,87,0,0,0-15.24-1.53c-4.94,0-9.67.35-14.18.78-9,.92-17.15,2.22-24.28,3.57l.33.21-8.08-26.44-2.2-7.09c-.24-.78-.44-1.39-.58-1.84A5.23,5.23,0,0,0,274.23,147Z" transform="translate(-13.95 -4.56)"/><polygon class="cls-7" points="225 180.6 233.77 179.26 228.73 167.61 221.34 171.55 225 180.6"/><path class="cls-7" d="M241.5,171l3.93,9.07,2.15,5a13.71,13.71,0,0,0,17.47,7.45l35.65-9.76-14.48-45.18-36.08,13.33A16.21,16.21,0,0,0,241.5,171Z" transform="translate(-13.95 -4.56)"/><g class="cls-8"><path d="M368.85,137.94c6.55,24,7.56,44.73,2.26,46.2s-14.89-16.81-21.43-40.85-7.56-44.74-2.26-46.21S362.31,113.89,368.85,137.94Z" transform="translate(-13.95 -4.56)"/></g><path class="cls-4" d="M346.33,129.16s12.73-5.44,16.63,11.44-8.72,17.55-8.72,17.55A107.71,107.71,0,0,1,346.33,129.16Z" transform="translate(-13.95 -4.56)"/><path class="cls-5" d="M279.09,155.11c.08.23-6,2.49-13.66,5s-13.87,4.44-14,4.21,6-2.5,13.67-5.05S279,154.87,279.09,155.11Z" transform="translate(-13.95 -4.56)"/><path class="cls-5" d="M280.67,160.08c.07.23-6.05,2.5-13.67,5.06s-13.87,4.44-13.94,4.2,6-2.49,13.66-5.05S280.59,159.85,280.67,160.08Z" transform="translate(-13.95 -4.56)"/><path class="cls-5" d="M282.24,165.06c.08.23-6,2.49-13.66,5.05s-13.87,4.44-13.95,4.21,6-2.5,13.67-5.06S282.17,164.82,282.24,165.06Z" transform="translate(-13.95 -4.56)"/><path class="cls-5" d="M283.82,170c.07.23-6,2.5-13.67,5.05s-13.86,4.45-13.94,4.21,6-2.49,13.67-5S283.74,169.8,283.82,170Z" transform="translate(-13.95 -4.56)"/><path class="cls-5" d="M391.52,150.76c0,.15,7.3,2.86,16.42,6.06s16.57,5.65,16.62,5.5-7.3-2.86-16.43-6.06S391.57,150.61,391.52,150.76Z" transform="translate(-13.95 -4.56)"/><path class="cls-5" d="M388.55,133.5c0,.16,11.76-1.48,26.21-3.65s26.16-4.08,26.13-4.24-11.75,1.48-26.21,3.66S388.53,133.34,388.55,133.5Z" transform="translate(-13.95 -4.56)"/><path class="cls-5" d="M385.94,115.79c.11.12,4.22-3.55,9.18-8.2s8.9-8.51,8.8-8.63-4.22,3.55-9.19,8.2S385.83,115.67,385.94,115.79Z" transform="translate(-13.95 -4.56)"/><path class="cls-5" d="M344.89,99.69a3.63,3.63,0,0,0-.13.87c-.05.68-.11,1.51-.18,2.51s-.15,2.43-.15,4-.08,3.32,0,5.28a132.12,132.12,0,0,0,1.05,13.7,145.25,145.25,0,0,0,3.22,16.51,146.66,146.66,0,0,0,5.26,16A129.33,129.33,0,0,0,359.75,171c.87,1.74,1.79,3.25,2.56,4.59s1.47,2.48,2.08,3.39l1.38,2.09c.33.47.51.71.54.69a3.91,3.91,0,0,0-.38-.8l-1.24-2.17c-.55-.94-1.22-2.09-1.94-3.46s-1.6-2.88-2.43-4.64c-1.77-3.45-3.67-7.67-5.56-12.45a155.49,155.49,0,0,1-5.17-15.89,157.91,157.91,0,0,1-3.26-16.39c-.69-5.1-1.1-9.72-1.24-13.61-.14-1.94-.12-3.7-.15-5.25s0-2.88,0-4,0-1.83,0-2.51A3.33,3.33,0,0,0,344.89,99.69Z" transform="translate(-13.95 -4.56)"/><path class="cls-7" d="M462.92,211.57h0A30.94,30.94,0,0,1,432,180.63h0a31,31,0,0,1,30.94-30.95h0a31,31,0,0,1,30.95,30.95h0A31,31,0,0,1,462.92,211.57Z" transform="translate(-13.95 -4.56)"/><path class="cls-4" d="M477.59,174.25a10.93,10.93,0,0,0-.68-3.58,7.57,7.57,0,0,0-4.32-4.32,10.93,10.93,0,0,0-3.58-.68c-1.58-.08-2.08-.09-6.09-.09s-4.51,0-6.08.09a10.87,10.87,0,0,0-3.58.68,7.5,7.5,0,0,0-4.32,4.32,11.16,11.16,0,0,0-.69,3.58c-.07,1.57-.08,2.08-.08,6.09s0,4.51.08,6.08a11.16,11.16,0,0,0,.69,3.58,7.5,7.5,0,0,0,4.32,4.32,10.87,10.87,0,0,0,3.58.68c1.57.08,2.08.09,6.08.09s4.51,0,6.09-.09a10.93,10.93,0,0,0,3.58-.68,7.57,7.57,0,0,0,4.32-4.32,10.93,10.93,0,0,0,.68-3.58c.07-1.57.09-2.08.09-6.08S477.66,175.82,477.59,174.25Zm-2.65,12.05a8.31,8.31,0,0,1-.51,2.74,4.91,4.91,0,0,1-2.8,2.8,8.31,8.31,0,0,1-2.74.51c-1.56.07-2,.08-6,.08s-4.4,0-6-.08a8.31,8.31,0,0,1-2.74-.51,4.83,4.83,0,0,1-2.8-2.8,8.31,8.31,0,0,1-.51-2.74c-.07-1.56-.09-2-.09-6s0-4.41.09-6a8.31,8.31,0,0,1,.51-2.74,4.83,4.83,0,0,1,2.8-2.8,8.31,8.31,0,0,1,2.74-.51c1.56-.07,2-.08,6-.08l6,.08a8.31,8.31,0,0,1,2.74.51,4.91,4.91,0,0,1,2.8,2.8,8.31,8.31,0,0,1,.51,2.74c.07,1.56.08,2,.08,6S475,184.74,474.94,186.3Z" transform="translate(-13.95 -4.56)"/><path class="cls-4" d="M462.92,172.76a7.58,7.58,0,1,0,7.58,7.58A7.58,7.58,0,0,0,462.92,172.76Zm0,12.49a4.92,4.92,0,1,1,4.92-4.91A4.92,4.92,0,0,1,462.92,185.25Z" transform="translate(-13.95 -4.56)"/><path class="cls-4" d="M470.8,170.69a1.77,1.77,0,1,0,1.77,1.77A1.77,1.77,0,0,0,470.8,170.69Z" transform="translate(-13.95 -4.56)"/><rect class="cls-7" x="414.7" y="160.97" width="0.88" height="41.06" transform="translate(213.86 589.48) rotate(-89.19)"/><path class="cls-7" d="M396.33,178.92a2.87,2.87,0,1,1-4,.57A2.87,2.87,0,0,1,396.33,178.92Z" transform="translate(-13.95 -4.56)"/><path class="cls-7" d="M362.19,297.57h0a31,31,0,0,1-30.95-30.95h0a31,31,0,0,1,30.95-30.94h0a30.94,30.94,0,0,1,30.94,30.94h0A31,31,0,0,1,362.19,297.57Z" transform="translate(-13.95 -4.56)"/><path class="cls-4" d="M348.18,277.45a16.35,16.35,0,0,0,25.15-14.52,11.62,11.62,0,0,0,2.87-3,11.45,11.45,0,0,1-3.3.91,5.79,5.79,0,0,0,2.52-3.18,11.75,11.75,0,0,1-3.65,1.39,5.75,5.75,0,0,0-9.79,5.25,16.31,16.31,0,0,1-11.85-6,5.75,5.75,0,0,0,1.78,7.67,5.75,5.75,0,0,1-2.61-.72,5.75,5.75,0,0,0,4.61,5.71,5.63,5.63,0,0,1-2.59.1,5.75,5.75,0,0,0,5.37,4A11.58,11.58,0,0,1,348.18,277.45Z" transform="translate(-13.95 -4.56)"/><rect class="cls-7" x="354.7" y="212.57" width="0.87" height="28.9" transform="translate(-63.64 105.08) rotate(-16.42)"/><path class="cls-7" d="M353.92,212.55a2.87,2.87,0,1,1-2.87-2.87A2.87,2.87,0,0,1,353.92,212.55Z" transform="translate(-13.95 -4.56)"/><path class="cls-7" d="M285.9,76.83h0a31.7,31.7,0,0,1-31.7-31.7h0a31.7,31.7,0,0,1,31.7-31.7h0a31.7,31.7,0,0,1,31.69,31.7h0A31.69,31.69,0,0,1,285.9,76.83Z" transform="translate(-13.95 -4.56)"/><path class="cls-4" d="M281.84,59.29h6.48V43.08h4.52l.48-5.43h-5V34.56c0-1.28.25-1.79,1.49-1.79h3.51V27.14h-4.49c-4.82,0-7,2.12-7,6.18v4.33h-3.37v5.5h3.37Z" transform="translate(-13.95 -4.56)"/><rect class="cls-7" x="272.22" y="66.55" width="0.87" height="37.13"/><path class="cls-7" d="M283.68,108.94a2.87,2.87,0,1,1,2.06,3.49A2.86,2.86,0,0,1,283.68,108.94Z" transform="translate(-13.95 -4.56)"/><path class="cls-7" d="M211.71,127.74h0a31,31,0,0,1-30.94-30.95h0a30.94,30.94,0,0,1,30.94-30.94h0a31,31,0,0,1,30.95,30.94h0A31,31,0,0,1,211.71,127.74Z" transform="translate(-13.95 -4.56)"/><path class="cls-10" d="M228.54,95.53a16.67,16.67,0,0,0-33.3-.3c0,.24,0,.48,0,.72a16.48,16.48,0,0,0,2.39,8.55L195.74,110a1.79,1.79,0,0,0,2.25,2.28l5.85-1.86A16.68,16.68,0,0,0,228.55,96C228.55,95.81,228.55,95.67,228.54,95.53Zm-16.65,14.33a14,14,0,0,1-7.71-2.31l-5.38,1.72,1.74-5.16A13.83,13.83,0,0,1,197.88,96,12.21,12.21,0,0,1,198,94.6a14,14,0,0,1,27.9.27c0,.36.05.72.05,1.08A14,14,0,0,1,211.89,109.86Z" transform="translate(-13.95 -4.56)"/><path class="cls-10" d="M219.53,99.29c-.42-.2-2.42-1.18-2.8-1.32s-.64-.2-.92.21-1.06,1.32-1.29,1.58-.48.31-.89.1a10.85,10.85,0,0,1-3.29-2,12.41,12.41,0,0,1-2.27-2.8.6.6,0,0,1,.18-.83c.19-.19.41-.47.62-.71l.15-.19a4.43,4.43,0,0,0,.25-.49.74.74,0,0,0,0-.71c-.1-.2-.92-2.2-1.26-3s-.68-.67-.92-.67-.51,0-.78,0a1.49,1.49,0,0,0-1.09.51,4.5,4.5,0,0,0-1.43,3.38,5,5,0,0,0,.21,1.39,9,9,0,0,0,1.46,2.8c.2.27,2.82,4.5,7,6.13s4.16,1.08,4.91,1a4.09,4.09,0,0,0,2.75-1.93,3.35,3.35,0,0,0,.25-1.93C220.2,99.6,219.93,99.5,219.53,99.29Z" transform="translate(-13.95 -4.56)"/><rect class="cls-7" x="233.99" y="109.52" width="0.87" height="28.91" transform="translate(-37.89 179.16) rotate(-40.89)"/><path class="cls-7" d="M241.53,136.63a2.87,2.87,0,1,1,3.8,1.43A2.87,2.87,0,0,1,241.53,136.63Z" transform="translate(-13.95 -4.56)"/><path class="cls-9" d="M494.32,313.12h54.62a4.88,4.88,0,0,1,4.88,4.88v63a4.88,4.88,0,0,1-4.88,4.88H494.32A13.31,13.31,0,0,1,481,372.63v-46.2a13.31,13.31,0,0,1,13.31-13.31Z"/><g class="cls-8"><path d="M494.32,313.12h54.62a4.88,4.88,0,0,1,4.88,4.88v63a4.88,4.88,0,0,1-4.88,4.88H494.32A13.31,13.31,0,0,1,481,372.63v-46.2a13.31,13.31,0,0,1,13.31-13.31Z"/></g><rect class="cls-9" x="467.94" y="313.12" width="68.99" height="72.81" rx="4.05"/><path class="cls-11" d="M473.31,229.89s-7.68-6.69-9.74-7.85-5.58-.46-8.69-.93-7.53-2.58-8.65-2c-1.33.72,0,3.74,4.82,5.61l-1.39-.12-3.39.27s-1.25-1.85-2.32-1.83c-1.52,0-1.48,1.27-1.48,1.27s-2.31-2.72-3.08.23c0,0-2.72-1-2.91,1,0,0-.6,1.65,5.22,2.1,0,0,5,4.65,6.17,5.13s5.43-.18,5.43-.18,1.23,1.77,2.52,1.84c2.47.14,8.78-.28,8.78-.28l2.49,3Z" transform="translate(-13.95 -4.56)"/><path class="cls-12" d="M453.45,232.7a6.35,6.35,0,0,0-.6-1,7.23,7.23,0,0,1-1.16-2.81,5.61,5.61,0,0,1,1.48-4.12c.27-.33.56-.66.87-1a7.17,7.17,0,0,1,1-.95.78.78,0,0,1,1.06,0,1.45,1.45,0,0,1,.41,1.18,4.33,4.33,0,0,1-1.7,3.2l-.21.16.2.17a8.68,8.68,0,0,1,1.62,1.78l.11.17.16-.11a14.85,14.85,0,0,1,5.36-2.25c1.4-.29,2.24-.29,2.24-.35a1.88,1.88,0,0,0-.6,0,10.29,10.29,0,0,0-1.68.15,14.25,14.25,0,0,0-5.54,2.15l.27.05a9.08,9.08,0,0,0-1.66-1.88l0,.32A4.7,4.7,0,0,0,456.9,224a1.86,1.86,0,0,0-.56-1.53,1.19,1.19,0,0,0-.81-.31,1.45,1.45,0,0,0-.78.29,7.55,7.55,0,0,0-1,1c-.31.34-.6.68-.88,1a5.89,5.89,0,0,0-1.47,4.41,6.87,6.87,0,0,0,1.33,2.86A5.16,5.16,0,0,0,453.45,232.7Z" transform="translate(-13.95 -4.56)"/><path class="cls-12" d="M445.84,224.48a17.38,17.38,0,0,0,2.32,3.1c.35.4.65.79,1,1.13a2.09,2.09,0,0,0,1.18.57,1.84,1.84,0,0,0,.86-.1c.19-.06.29-.11.29-.14s-.12,0-.32,0a2.36,2.36,0,0,1-.78,0,2,2,0,0,1-.95-.56c-.3-.31-.61-.72-1-1.12A18,18,0,0,0,445.84,224.48Z" transform="translate(-13.95 -4.56)"/><path class="cls-12" d="M448.13,232.19c.1-.09-1.43-1.74-3-4s-2.67-4.21-2.79-4.16a16,16,0,0,0,2.43,4.42A16.29,16.29,0,0,0,448.13,232.19Z" transform="translate(-13.95 -4.56)"/><path class="cls-12" d="M443.29,229.16a22.51,22.51,0,0,0-2-2.46,15.74,15.74,0,0,0-2.11-2.35A9.19,9.19,0,0,0,441,227,7.82,7.82,0,0,0,443.29,229.16Z" transform="translate(-13.95 -4.56)"/><path class="cls-12" d="M452.44,225c0-.12-.69-.27-1.58-.33s-1.61,0-1.61.11.7.27,1.58.33S452.42,225.09,452.44,225Z" transform="translate(-13.95 -4.56)"/><path class="cls-7" d="M517.41,209.33s-8.19-.61-12.94,8.94c-3.14,6.31-12.7,23.32-12.7,23.32L473,225.8l-11,11.92s18.82,22.41,26.13,24.11,15.93-3.26,18.63-7.08,11.68-13.16,11.68-13.16Z" transform="translate(-13.95 -4.56)"/><path class="cls-5" d="M519.69,229.54,521,208.4c0-16.4-1.65-35.38.36-40.75,3.7-9.9,17-12,17-12,18-1.83,21.58,11.9,23.78,24.44.37,2.12,1.39,5.89,2.68,10.25,2.94,9.05,6.57,18.34,13.41,24.35a16.29,16.29,0,0,1,5.1,9c.68,3.41-1,7.59-4.42,8.27a8,8,0,0,1-.88,12.55c-2.83,1.9-6.51,1.79-9.9,1.51s-6.91-.76-9.62-2.78-4.17-5.31-5.3-8.51a77.71,77.71,0,0,1-3.15-11.82Z" transform="translate(-13.95 -4.56)"/><path class="cls-11" d="M537.72,160.26l1.28-.89,11.28,6.71a3.39,3.39,0,0,1,2.66,3.74l-7.42,38.88c-.4,2.66,0,5.17-1.95,7l-13.22,12.42c-4.64,4.49-2.55-6.65-4.74-12.73-.15-.42,1-1.74,1-2s-.07-.6-.05-.9c.13-3.21.53-5.94.53-5.94.32-3.5.47-4.93.47-4.9s-7.24-2-7.77-11.75c-.26-4.85.92-11.29,2.19-17.62C523.7,163.54,530.64,159.16,537.72,160.26Z" transform="translate(-13.95 -4.56)"/><path class="cls-5" d="M534.93,180.55a1.23,1.23,0,0,0,1.06,1.36,1.18,1.18,0,0,0,1.38-1,1.23,1.23,0,0,0-1.06-1.36A1.18,1.18,0,0,0,534.93,180.55Z" transform="translate(-13.95 -4.56)"/><path class="cls-5" d="M522.9,178.65A1.24,1.24,0,0,0,524,180a1.19,1.19,0,0,0,1.38-1,1.24,1.24,0,0,0-1.05-1.37A1.18,1.18,0,0,0,522.9,178.65Z" transform="translate(-13.95 -4.56)"/><path class="cls-5" d="M522.78,175.46c.13.18,1.14-.42,2.46-.28s2.23.91,2.39.76,0-.37-.44-.72a3.35,3.35,0,0,0-1.89-.81,3.27,3.27,0,0,0-2,.42C522.88,175.1,522.71,175.38,522.78,175.46Z" transform="translate(-13.95 -4.56)"/><path class="cls-5" d="M535.58,177.2c.16.16,1.1-.53,2.43-.53s2.31.67,2.45.51-.08-.36-.51-.67a3.4,3.4,0,0,0-2-.61,3.32,3.32,0,0,0-1.93.62C535.65,176.84,535.51,177.13,535.58,177.2Z" transform="translate(-13.95 -4.56)"/><path class="cls-5" d="M530.08,186.07a8.8,8.8,0,0,0-2.11-.61c-.34-.07-.65-.17-.69-.41a1.82,1.82,0,0,1,.33-1l1.27-2.47a45.39,45.39,0,0,0,3-6.51,44.61,44.61,0,0,0-3.47,6.25l-1.22,2.5a2,2,0,0,0-.32,1.31.87.87,0,0,0,.51.55,2.36,2.36,0,0,0,.57.14A9.07,9.07,0,0,0,530.08,186.07Z" transform="translate(-13.95 -4.56)"/><path class="cls-12" d="M527.54,201.66a24.52,24.52,0,0,0,13.22-2.1s-3.92,6.32-13.45,4.42Z" transform="translate(-13.95 -4.56)"/><path class="cls-5" d="M535.73,171.78c.12.37,1.46.24,3,.47s2.81.7,3,.38c.1-.15-.11-.5-.61-.87a5.12,5.12,0,0,0-2.23-.85,5,5,0,0,0-2.37.21C536,171.33,535.68,171.61,535.73,171.78Z" transform="translate(-13.95 -4.56)"/><path class="cls-5" d="M523.63,170.13c.19.36.42.26,1.7.56s3.2.85,3.52.61c.15-.13,0-.46-.35-.86a4.26,4.26,0,0,0-2-1,4.11,4.11,0,0,0-2.22.08C523.77,169.69,523.54,170,523.63,170.13Z" transform="translate(-13.95 -4.56)"/><path class="cls-5" d="M550.12,186.51s-5.92,1.07-11.37-15.31A46.64,46.64,0,0,1,536.83,159l2.24-.32s12.71,5.8,12.9,6,2.29,7.39,2.29,7.39Z" transform="translate(-13.95 -4.56)"/><path class="cls-11" d="M548.56,185.63c.07-.72,1.07-2.32,1.79-2.35,1.92-.1,5.3.4,4.84,5.2-.64,6.55-7.09,4.56-7.08,4.37S548.29,188.1,548.56,185.63Z" transform="translate(-13.95 -4.56)"/><path class="cls-12" d="M550.35,190.56s.11.09.29.2a1.16,1.16,0,0,0,.86.1,2.86,2.86,0,0,0,1.55-2.41,3.93,3.93,0,0,0-.16-1.66,1.32,1.32,0,0,0-.78-1,.57.57,0,0,0-.7.25c-.11.17-.08.31-.11.31s-.13-.12,0-.39a.76.76,0,0,1,.29-.38.88.88,0,0,1,.65-.11,1.66,1.66,0,0,1,1.1,1.13,3.84,3.84,0,0,1,.21,1.87,3,3,0,0,1-1.94,2.67,1.21,1.21,0,0,1-1-.28C550.35,190.72,550.33,190.57,550.35,190.56Z" transform="translate(-13.95 -4.56)"/><path class="cls-9" d="M551.5,193.56a1.69,1.69,0,1,1-1.71-1.67A1.69,1.69,0,0,1,551.5,193.56Z" transform="translate(-13.95 -4.56)"/><path class="cls-5" d="M572,163a7.94,7.94,0,0,0-7.77-2.64,8.39,8.39,0,0,0-6.05,5.49l-.79,16.5a3,3,0,0,0,4-3.92,3.78,3.78,0,0,0,3.86,1.73,3.42,3.42,0,0,0,2.67-3.19,3.17,3.17,0,0,0-1.93-2.84,6.71,6.71,0,0,0,6.67-3A7.24,7.24,0,0,0,572,163Z" transform="translate(-13.95 -4.56)"/><path class="cls-9" d="M560.18,178.63a1.4,1.4,0,0,1-.31.19,7.94,7.94,0,0,1-.91.44,12.36,12.36,0,0,1-3.61.88,15,15,0,0,1-5.5-.54,15.84,15.84,0,0,1-5.94-3.21,18.13,18.13,0,0,1-4.12-5.37,20.68,20.68,0,0,1-1.81-5.21,21.36,21.36,0,0,1-.43-3.69c0-.44,0-.78,0-1a1.07,1.07,0,0,1,0-.35,11.54,11.54,0,0,1,.11,1.35,26.42,26.42,0,0,0,.56,3.64,21.52,21.52,0,0,0,1.86,5.11,18.33,18.33,0,0,0,4,5.23,15.85,15.85,0,0,0,5.79,3.16,15.25,15.25,0,0,0,5.36.61A16,16,0,0,0,560.18,178.63Z" transform="translate(-13.95 -4.56)"/><path class="cls-9" d="M560.44,180.72s-.13.43-.57,1a7.2,7.2,0,0,1-2.12,1.72,7,7,0,0,1-2.62.78,2.57,2.57,0,0,1-1.13-.07,13.07,13.07,0,0,0,3.56-1.07A12.66,12.66,0,0,0,560.44,180.72Z" transform="translate(-13.95 -4.56)"/><path class="cls-9" d="M562,180.23a16.8,16.8,0,0,1-.47-2.23c-.26-1.38-.65-3.27-1.19-5.34s-1.12-3.92-1.56-5.25a13.81,13.81,0,0,1-.68-2.18,11.92,11.92,0,0,1,.94,2.08,48.43,48.43,0,0,1,1.69,5.25,47.73,47.73,0,0,1,1.08,5.4A11.07,11.07,0,0,1,562,180.23Z" transform="translate(-13.95 -4.56)"/><path class="cls-12" d="M533.72,190.35a2,2,0,0,0-.51-1.3,2,2,0,0,0-2.39-.47,2.72,2.72,0,0,0-1.36,2.37h0a2.47,2.47,0,0,0,1.6,1.24l.32.05a2.21,2.21,0,0,0,1.55-.37A2,2,0,0,0,533.72,190.35Z" transform="translate(-13.95 -4.56)"/><path class="cls-5" d="M533.29,187.87c-.21,0-.33,1.37-1.6,2.26s-2.74.61-2.77.81.31.29.93.36a3.52,3.52,0,0,0,2.31-.59,3.09,3.09,0,0,0,1.25-1.9C533.51,188.23,533.38,187.87,533.29,187.87Z" transform="translate(-13.95 -4.56)"/><path class="cls-7" d="M516.46,209.32s-10.1,13.64-10.94,18.37S507,263,508.24,268.26l-7.82,17.59L513.8,289l44.44-.76L556.37,259l4.5-19.44.46-25.57-15.81-5.26c-4.15,8.38-17.8,5.63-18.53-1.07Z" transform="translate(-13.95 -4.56)"/><path class="cls-7" d="M561.33,214a17.14,17.14,0,0,1,8.57,8.23c2.51,5.06,9.42,27,11.13,32.51,1.89,6.11,2.5,11.3-.95,15.5-1,1.21-1.16,2.67-8.44,5.7s-26.29,8.79-26.29,8.79l-4-9.88,23.46-14.39-6.78-18.26Z" transform="translate(-13.95 -4.56)"/><path class="cls-5" d="M563.09,232.7c.12,0-1.3,5.88-3.17,13.08s-3.47,13-3.59,13,1.3-5.89,3.16-13.08S563,232.67,563.09,232.7Z" transform="translate(-13.95 -4.56)"/><path class="cls-11" d="M521.24,277.53l1.91-.9-.71.87a2.45,2.45,0,0,0-.64,2.06c.28,1.08,2.27,1.31,2.27,1.31a3,3,0,0,0,.57,2.13c.69.93,3.34.25,3.34.25l-.36.79c-.45.85.63,1.9,1.13,2a7.12,7.12,0,0,0,3.32-1c.88-.58,4.1-.32,4.1-.32s4,1.29,5.75.67a3.7,3.7,0,0,0,2.21-1.86s-.28-7.55-2.76-8.75c-1.26-.61-8.59-3.42-10.77-4.36a3.15,3.15,0,0,0-2.32-.05,52.2,52.2,0,0,0-7.76,3.51s-1.88,1.19-1.5,2.32A1.81,1.81,0,0,0,521.24,277.53Z" transform="translate(-13.95 -4.56)"/><path class="cls-12" d="M526.79,274.08a14.36,14.36,0,0,1-1.91,1.49,13.84,13.84,0,0,1-2,1.34,16,16,0,0,1,1.91-1.48A16.52,16.52,0,0,1,526.79,274.08Z" transform="translate(-13.95 -4.56)"/><path class="cls-12" d="M528.74,278.25c0,.06-1.08.54-2.36,1.27s-2.28,1.4-2.31,1.35a3.35,3.35,0,0,1,.62-.49,18.59,18.59,0,0,1,1.6-1,15.34,15.34,0,0,1,1.7-.84A3.47,3.47,0,0,1,528.74,278.25Z" transform="translate(-13.95 -4.56)"/><path class="cls-12" d="M531.46,281.29a11.41,11.41,0,0,1-1.81,1.12,13.84,13.84,0,0,1-1.91,1,11.82,11.82,0,0,1,1.82-1.12A13.45,13.45,0,0,1,531.46,281.29Z" transform="translate(-13.95 -4.56)"/><path class="cls-5" d="M507.54,219.81a1.28,1.28,0,0,1,0,.43c0,.34-.08.75-.13,1.24-.14,1.07-.31,2.62-.5,4.54a138.07,138.07,0,0,0,.28,30c.22,1.91.43,3.46.58,4.53.07.49.12.89.16,1.23a1.17,1.17,0,0,1,0,.43s-.05-.14-.12-.42-.14-.73-.24-1.22c-.21-1.05-.47-2.6-.73-4.51a118.69,118.69,0,0,1-.28-30.13c.23-1.91.45-3.46.64-4.53.09-.48.16-.89.22-1.22A2.12,2.12,0,0,1,507.54,219.81Z" transform="translate(-13.95 -4.56)"/><path class="cls-9" d="M486.3,379.45l9.84,15s-11.45,15-9.89,18l28.82-18-14.4-24Z" transform="translate(-13.95 -4.56)"/><path class="cls-1" d="M504.27,387.6a1.4,1.4,0,0,1,1.65.88,1.35,1.35,0,0,1-.81,1.68,1.49,1.49,0,0,1-1.75-1,1.4,1.4,0,0,1,1-1.64" transform="translate(-13.95 -4.56)"/><path class="cls-5" d="M515.07,394.44l-1.54-2.37-27.06,18.14s-.93,1.38-.22,2.22Z" transform="translate(-13.95 -4.56)"/><path class="cls-4" d="M495.58,394.6c.09.14.84-.23,1.81-.2s1.72.42,1.81.28-.62-.85-1.81-.87S495.47,394.48,495.58,394.6Z" transform="translate(-13.95 -4.56)"/><path class="cls-4" d="M493.34,397.78c.05.16.81,0,1.66.34s1.39.88,1.52.79-.27-1-1.33-1.35S493.26,397.64,493.34,397.78Z" transform="translate(-13.95 -4.56)"/><path class="cls-4" d="M493.89,402.59c.15,0-.1-.9-.94-1.47s-1.7-.48-1.68-.32.68.33,1.36.81S493.74,402.66,493.89,402.59Z" transform="translate(-13.95 -4.56)"/><path class="cls-4" d="M493.7,390.93c.14.09.67-.51,1.5-.95s1.6-.57,1.6-.74-.91-.32-1.88.22S493.56,390.86,493.7,390.93Z" transform="translate(-13.95 -4.56)"/><path class="cls-5" d="M515.94,288.23S468.58,304,460.8,310.3c-6.27,5.06-5.44,19.58-1.8,25.38,1.48,2.36,34.18,57.22,34.18,57.22L509.42,384l-21.87-53.58s53.42-10.37,63.3-14.82c12.24-5.51,8.32-18.21,8.32-18.21L557,288.23Z" transform="translate(-13.95 -4.56)"/><path class="cls-9" d="M498.37,364.56l9.84,15s-11.45,15-9.89,18l28.83-18-14.41-24Z" transform="translate(-13.95 -4.56)"/><path class="cls-1" d="M516.34,372.71a1.42,1.42,0,0,1,1.66.88,1.35,1.35,0,0,1-.81,1.67,1.47,1.47,0,0,1-1.75-.94,1.39,1.39,0,0,1,1-1.64" transform="translate(-13.95 -4.56)"/><path class="cls-5" d="M527.15,379.54l-1.55-2.36-27.06,18.14s-.93,1.37-.22,2.22Z" transform="translate(-13.95 -4.56)"/><path class="cls-4" d="M508.2,379.71c.09.14.84-.24,1.81-.2s1.72.42,1.81.28-.62-.85-1.8-.87S508.09,379.59,508.2,379.71Z" transform="translate(-13.95 -4.56)"/><path class="cls-4" d="M505.93,383c.05.16.81,0,1.66.34s1.39.88,1.52.79-.27-1-1.34-1.35S505.85,382.83,505.93,383Z" transform="translate(-13.95 -4.56)"/><path class="cls-4" d="M506.48,387.85c.14-.05-.1-.9-.94-1.47s-1.7-.48-1.69-.32.68.33,1.37.81S506.33,387.92,506.48,387.85Z" transform="translate(-13.95 -4.56)"/><path class="cls-4" d="M506.65,377c.14.1.67-.51,1.5-.95s1.6-.57,1.6-.74-.91-.31-1.88.22S506.51,376.89,506.65,377Z" transform="translate(-13.95 -4.56)"/><path class="cls-5" d="M464.94,289.59c-2.72,2.51-6.88,10.73-2.45,20.39,2.81,6.12,41.56,66,41.56,66l15.72-10.35s-13.47-28.24-18-41.46c-3.42-10.06-11-25.56-11.51-26.58h0l24.42-9s-26.1-8.29-35.6-6.26S464.94,289.59,464.94,289.59Z" transform="translate(-13.95 -4.56)"/><path class="cls-9" d="M464.94,289.59a8.67,8.67,0,0,1,.66-.67,21.08,21.08,0,0,1,2.14-1.73,30.07,30.07,0,0,1,9.52-4.45l1.71-.42c.59-.11,1.21-.18,1.84-.27a29.25,29.25,0,0,1,4,0,67.93,67.93,0,0,1,8.9,1.15,192.75,192.75,0,0,1,21.08,5.3l.49.15-.48.18-24.41,9,.11-.27q2.83,5.81,5.64,12.06c1.85,4.17,3.71,8.48,5.34,13s3.34,9.07,5.28,13.65,4,9.2,6.07,13.87c2.38,5.26,4.77,10.43,7.16,15.46l.08.17-.16.1-15.73,10.35-.18.12-.11-.18c-7.81-12.11-15.07-23.43-21.53-33.61s-12.15-19.21-16.73-26.81c-1.13-1.91-2.22-3.71-3.13-5.49a23.13,23.13,0,0,1-1.72-5.34,21.45,21.45,0,0,1-.25-4.85,20.12,20.12,0,0,1,.74-4,16.53,16.53,0,0,1,2.42-5,8.33,8.33,0,0,1,1.27-1.44s-.1.13-.32.36a9.2,9.2,0,0,0-.89,1.12,17,17,0,0,0-2.34,5,20.64,20.64,0,0,0-.7,4,21,21,0,0,0,.28,4.79,22.6,22.6,0,0,0,1.73,5.28c.9,1.75,2,3.55,3.14,5.45,4.61,7.58,10.33,16.59,16.81,26.76s13.75,21.47,21.58,33.57l-.3-.06,15.72-10.36-.08.28c-2.39-5-4.78-10.2-7.16-15.47-2.11-4.67-4.15-9.3-6.08-13.88s-3.72-9.15-5.27-13.68-3.48-8.79-5.32-13-3.74-8.19-5.62-12.06l-.1-.2.21-.07,24.43-8.95v.33a198.73,198.73,0,0,0-21-5.36,71.43,71.43,0,0,0-8.87-1.18,28.77,28.77,0,0,0-3.94,0c-.62.09-1.23.15-1.82.25l-1.7.41a30.56,30.56,0,0,0-9.51,4.34,23,23,0,0,0-2.16,1.69Z" transform="translate(-13.95 -4.56)"/><path class="cls-9" d="M484.58,291.81a11.51,11.51,0,0,1,3.33,2.65,11.19,11.19,0,0,1,2.48,3.45c-.11.07-1.2-1.48-2.8-3.15S484.5,291.92,484.58,291.81Z" transform="translate(-13.95 -4.56)"/><path class="cls-5" d="M498.37,364.56s.07-.06.23-.17l.71-.47,2.81-1.81,10.53-6.72.14-.08.09.14,14.46,24,.11.19-.19.11-11.78,7.37-17.05,10.62-.2.13-.1-.21a2.5,2.5,0,0,1-.07-1.59,9.35,9.35,0,0,1,.43-1.42,24.69,24.69,0,0,1,1.22-2.59c.88-1.66,1.84-3.2,2.79-4.67,1.91-2.93,3.8-5.56,5.58-7.9v.19l-7.15-11.08-1.91-3-.49-.78a1.91,1.91,0,0,1-.15-.25,3.25,3.25,0,0,1,.2.26c.13.2.3.46.53.78.47.71,1.14,1.71,2,3l7.25,10.9.06.09-.07.09c-1.75,2.35-3.63,5-5.52,7.92-.93,1.47-1.88,3-2.75,4.65a24.7,24.7,0,0,0-1.19,2.55,9.13,9.13,0,0,0-.41,1.35,2.22,2.22,0,0,0,0,1.31l-.3-.08,17-10.65L527,379.36l-.07.3c-5.57-9.33-10.53-17.65-14.36-24.05l.22.05-10.54,6.52L499.4,364l-.76.45Z" transform="translate(-13.95 -4.56)"/><g class="cls-8"><polygon points="452.5 283.67 488.46 285.35 544.34 289.08 543.08 283.67 544.29 283.67 544.17 281.85 455.06 281.85 452.5 283.67"/></g><path class="cls-5" d="M560.71,249.32a4.87,4.87,0,0,1,.37.8c.24.59.54,1.35.9,2.26.78,2,1.83,4.77,3,8l.06.16-.15.09-6.08,3.75c-4.47,2.74-8.53,5.2-11.48,7l-3.5,2.07a9.21,9.21,0,0,1-1.32.7,9.67,9.67,0,0,1,1.22-.85l3.43-2.19c2.91-1.83,6.94-4.34,11.41-7.08l6.1-3.72-.09.25-2.89-8c-.32-.93-.58-1.7-.79-2.3A4.15,4.15,0,0,1,560.71,249.32Z" transform="translate(-13.95 -4.56)"/><path class="cls-1" d="M459.87,244.46l47.69,2.37c1.55.07,3,.87,3.17,2.41l3.77,35,24.57,1a1.43,1.43,0,1,1-.12,2.86l-24.14-1-4.58-.19-49.76-2.06-3.85-36.93A3.14,3.14,0,0,1,459.87,244.46Z" transform="translate(-13.95 -4.56)"/><path class="cls-5" d="M459.87,244.46a2.73,2.73,0,0,0-.76,0,3.14,3.14,0,0,0-1.87,1.14,3.09,3.09,0,0,0-.65,1.49,8.32,8.32,0,0,0,.09,2c.14,1.42.31,3.05.49,4.88.75,7.33,1.82,17.9,3.15,30.89V285h.13l76.14,3.2,2,.09a2.06,2.06,0,0,0,1.1-.17,1.62,1.62,0,0,0,.11-2.84,2,2,0,0,0-1.07-.24l-1-.05-8-.33-15.3-.63.17.17c-1.36-12.53-2.63-24.22-3.76-34.71a2.71,2.71,0,0,0-.81-1.85,3.6,3.6,0,0,0-1.79-.88,16.14,16.14,0,0,0-1.92-.15l-1.88-.09-7.18-.35-12.76-.61-18.17-.85-4.86-.21-1.25,0h-.43l.42,0,1.26.08,4.86.27,18.16,1,12.76.65,7.18.37,1.87.1a14.46,14.46,0,0,1,1.88.14,3.3,3.3,0,0,1,1.63.8,2.39,2.39,0,0,1,.71,1.67l3.71,34.71,0,.16h.16l15.3.64,8,.33,1,0a1.59,1.59,0,0,1,.89.19,1.25,1.25,0,0,1,.5,1.54,1.21,1.21,0,0,1-.59.63,1.55,1.55,0,0,1-.9.12l-2-.08-76.15-3.12.14.13c-1.38-13-2.5-23.55-3.28-30.88-.19-1.83-.37-3.46-.52-4.87a8.89,8.89,0,0,1-.12-1.94,3.12,3.12,0,0,1,2.43-2.6A6.85,6.85,0,0,1,459.87,244.46Z" transform="translate(-13.95 -4.56)"/><path class="cls-4" d="M485.81,265.28a3,3,0,1,1-2.87-3.11A3,3,0,0,1,485.81,265.28Z" transform="translate(-13.95 -4.56)"/><path class="cls-5" d="M512.46,286.69c-.07,0-1.22-8.91-2.57-19.91s-2.39-19.94-2.33-19.95,1.22,8.91,2.57,19.92S512.53,286.69,512.46,286.69Z" transform="translate(-13.95 -4.56)"/><path class="cls-5" d="M131.83,364.83l-.67,17.65s17.71,6.61,17.91,9.88l-34.27-.07-.08-27.54Z" transform="translate(-13.95 -4.56)"/><path class="cls-1" d="M120.57,381a1.39,1.39,0,0,0-1,1.6,1.33,1.33,0,0,0,1.57,1,1.48,1.48,0,0,0,1-1.69,1.4,1.4,0,0,0-1.75-.84" transform="translate(-13.95 -4.56)"/><path class="cls-9" d="M114.8,392.29l.1-2.78,32.82,1.11s1.52.67,1.35,1.74Z" transform="translate(-13.95 -4.56)"/><path class="cls-4" d="M131.72,382.31c0,.16-.85.24-1.67.77s-1.27,1.24-1.42,1.18.1-1,1.11-1.67S131.75,382.15,131.72,382.31Z" transform="translate(-13.95 -4.56)"/><path class="cls-4" d="M135.31,383.8c0,.16-.69.45-1.26,1.15s-.74,1.46-.9,1.45-.27-1,.45-1.82S135.3,383.64,135.31,383.8Z" transform="translate(-13.95 -4.56)"/><path class="cls-4" d="M137.34,388.11c-.15,0-.38-.81,0-1.72s1.21-1.28,1.28-1.14-.41.63-.75,1.39S137.51,388.09,137.34,388.11Z" transform="translate(-13.95 -4.56)"/><path class="cls-4" d="M131.42,378.27c-.07.15-.84-.08-1.78,0s-1.69.36-1.77.21.62-.74,1.74-.79S131.5,378.14,131.42,378.27Z" transform="translate(-13.95 -4.56)"/><path class="cls-5" d="M89.88,362.43,88,383.72,91.41,401a2.18,2.18,0,0,1-1.87,2.59h0a2.16,2.16,0,0,1-1.88-.69c-3.06-3.33-14.23-15.63-14-17.18.26-1.8.47-22.59.47-22.59Z" transform="translate(-13.95 -4.56)"/><path class="cls-9" d="M89.54,403.57,73.75,384.26l-.06.9a3.31,3.31,0,0,0,.64,2.19c1.25,1.67,4.81,6.23,13.26,15.53a2.2,2.2,0,0,0,2,.69Z" transform="translate(-13.95 -4.56)"/><g class="cls-13"><path class="cls-4" d="M78.56,377.66a1.32,1.32,0,0,1,.25,1.75,1.27,1.27,0,0,1-1.73.27,1.4,1.4,0,0,1-.25-1.86,1.32,1.32,0,0,1,1.83-.07" transform="translate(-13.95 -4.56)"/></g><path class="cls-4" d="M85.26,393.94a6.79,6.79,0,0,1,2-1.54,6.62,6.62,0,0,1,2.49-.31s-.24-.23-.74-.34a3.42,3.42,0,0,0-1.93.22,3.34,3.34,0,0,0-1.52,1.22C85.27,393.61,85.21,393.92,85.26,393.94Z" transform="translate(-13.95 -4.56)"/><path class="cls-4" d="M86.6,396.89a17.55,17.55,0,0,1,2-.79,18.39,18.39,0,0,1,2.1-.14,2.46,2.46,0,0,0-2.21-.32C87.16,395.93,86.49,396.83,86.6,396.89Z" transform="translate(-13.95 -4.56)"/><path class="cls-4" d="M82.67,390.1a22.27,22.27,0,0,1,2.92-1.43,24.25,24.25,0,0,1,3.21-.54,6,6,0,0,0-6.13,2Z" transform="translate(-13.95 -4.56)"/><path class="cls-4" d="M82.7,383.58c0,.13,1.25-.28,2.79-.24s2.73.49,2.78.36a5.42,5.42,0,0,0-5.57-.12Z" transform="translate(-13.95 -4.56)"/><path class="cls-4" d="M83.08,377.32A10.72,10.72,0,0,1,86,377a10.72,10.72,0,0,1,2.79.89s-.18-.32-.66-.64a4.61,4.61,0,0,0-2.08-.72,4.7,4.7,0,0,0-2.18.3C83.32,377,83.05,377.27,83.08,377.32Z" transform="translate(-13.95 -4.56)"/><path class="cls-4" d="M86,375.8a1.73,1.73,0,0,0,.08-.81,5.49,5.49,0,0,0-.5-2.15,2.52,2.52,0,0,0-1-1.26.89.89,0,0,0-1,.13,1.45,1.45,0,0,0-.4,1,3.1,3.1,0,0,0,2.52,3A3.6,3.6,0,0,0,89.37,374a1.23,1.23,0,0,0,.12-1,.85.85,0,0,0-.87-.52,3.19,3.19,0,0,0-1.45.64,6.3,6.3,0,0,0-1.56,1.57,2,2,0,0,0-.38.71,10.41,10.41,0,0,1,2.12-2,3,3,0,0,1,1.28-.53.48.48,0,0,1,.48.28.85.85,0,0,1-.12.67,3.2,3.2,0,0,1-3.17,1.4,2.7,2.7,0,0,1-2.18-2.55,1,1,0,0,1,.25-.67.48.48,0,0,1,.55-.08A2.22,2.22,0,0,1,85.3,373,8,8,0,0,1,86,375.8Z" transform="translate(-13.95 -4.56)"/><path class="cls-5" d="M148.34,216.05A75.67,75.67,0,0,1,150,238.36c-.36,4.74-16.36,135.94-16.36,135.94H112L118.09,251l-1.77.39s-11.79,52.59-12.75,61.1c-.87,7.66-10.82,63.26-10.82,63.26L73,376l6.31-73.54,7.34-70.57,2.76-20.54Z" transform="translate(-13.95 -4.56)"/><path class="cls-9" d="M118.67,242.79s0,.06.14.15a1.47,1.47,0,0,0,.52.25,2.49,2.49,0,0,0,2-.49,4,4,0,0,0,1.4-2.79c.16-1.18.18-2.44.27-3.77.14-2.67.25-5.09.31-6.84a19.31,19.31,0,0,0,0-2.84,18.51,18.51,0,0,0-.3,2.82c-.13,1.75-.29,4.16-.43,6.83-.09,1.33-.11,2.62-.23,3.75a3.91,3.91,0,0,1-1.2,2.61,2.42,2.42,0,0,1-1.83.56A4.39,4.39,0,0,1,118.67,242.79Z" transform="translate(-13.95 -4.56)"/><path class="cls-9" d="M86.88,230.1s.21.12.6.22a9.55,9.55,0,0,0,1.73.29,12.44,12.44,0,0,0,10.4-4.17,10.43,10.43,0,0,0,1-1.41,1.85,1.85,0,0,0,.28-.57c-.06,0-.54.73-1.55,1.77a13.3,13.3,0,0,1-10.16,4.09C87.78,230.26,86.9,230,86.88,230.1Z" transform="translate(-13.95 -4.56)"/><path class="cls-9" d="M141.09,224.62a6.83,6.83,0,0,0,.32,2.16,16.53,16.53,0,0,0,2.18,4.84,16.14,16.14,0,0,0,3.61,3.87,7.37,7.37,0,0,0,1.87,1.15,23.44,23.44,0,0,1-5.13-5.26A23.11,23.11,0,0,1,141.09,224.62Z" transform="translate(-13.95 -4.56)"/><path class="cls-5" d="M137.66,84.65A4,4,0,0,0,139,76.81,4.16,4.16,0,0,0,135,70a5,5,0,0,0-7.69-3.68,5.59,5.59,0,0,0-6.88.21,4,4,0,0,0-3.16,6.91" transform="translate(-13.95 -4.56)"/><path class="cls-14" d="M119.75,70.51l.88-.05a16.94,16.94,0,0,1,17.64,14.72c1.06,8.14,2.13,17.15,2.3,21.54.34,9.08-8.67,11-8.67,11l1.31,10.87-22.07.41-3.92-39.47C105.94,80.1,110.33,71.53,119.75,70.51Z" transform="translate(-13.95 -4.56)"/><path class="cls-15" d="M132,117.65a22,22,0,0,1-12.07-2.89s3.26,6.56,12.28,5.29Z" transform="translate(-13.95 -4.56)"/><path class="cls-5" d="M136.35,93.85a1.29,1.29,0,0,1-1.19,1.37,1.23,1.23,0,0,1-1.39-1.1A1.29,1.29,0,0,1,135,92.75,1.25,1.25,0,0,1,136.35,93.85Z" transform="translate(-13.95 -4.56)"/><path class="cls-5" d="M136.53,89.72c-.15.18-1.17-.5-2.56-.43s-2.38.82-2.54.66.07-.38.5-.73a3.5,3.5,0,0,1,2-.74A3.43,3.43,0,0,1,136,89C136.45,89.34,136.61,89.64,136.53,89.72Z" transform="translate(-13.95 -4.56)"/><path class="cls-5" d="M124,94.4a1.31,1.31,0,0,1-1.19,1.37,1.23,1.23,0,0,1-1.39-1.1,1.29,1.29,0,0,1,1.18-1.37A1.24,1.24,0,0,1,124,94.4Z" transform="translate(-13.95 -4.56)"/><path class="cls-5" d="M123.48,90.66c-.15.18-1.17-.5-2.57-.43s-2.38.83-2.54.66.07-.38.5-.73a3.6,3.6,0,0,1,2-.74A3.49,3.49,0,0,1,123,90C123.39,90.28,123.55,90.58,123.48,90.66Z" transform="translate(-13.95 -4.56)"/><path class="cls-5" d="M128.41,100.76a9.29,9.29,0,0,1,2.25-.52c.35-.06.68-.15.73-.39a1.8,1.8,0,0,0-.29-1l-1.19-2.66a47.64,47.64,0,0,1-2.72-7c.16-.06,1.62,3,3.28,6.75.4.93.78,1.82,1.14,2.68a2.06,2.06,0,0,1,.26,1.39.92.92,0,0,1-.56.55,2.56,2.56,0,0,1-.6.11A9,9,0,0,1,128.41,100.76Z" transform="translate(-13.95 -4.56)"/><path class="cls-5" d="M123.78,85.23c-.17.37-1.38,0-2.86.07s-2.7.33-2.85,0c-.07-.17.17-.5.69-.81a4.45,4.45,0,0,1,2.19-.58,4.34,4.34,0,0,1,2.16.55C123.62,84.73,123.85,85.06,123.78,85.23Z" transform="translate(-13.95 -4.56)"/><path class="cls-5" d="M136.32,84c-.28.34-1.45.06-2.84.12s-2.54.34-2.83,0c-.12-.16,0-.48.54-.81a4.83,4.83,0,0,1,4.57-.11C136.26,83.48,136.44,83.8,136.32,84Z" transform="translate(-13.95 -4.56)"/><path class="cls-5" d="M137.19,81.06s-2.68-5.57-5.49-6.76c-3.4-1.44-4.65,2.28-7.85,1.55s-6.46-2.11-9.57.49c-3.4,2.86-1.65,4.65-1.67,8.69-.07,16.38-2.83,21.14-4.06,13.49-.13-.83-2.51-1.39-3-4.93-.68-4.6-1.13-10.2-.27-13.52.74-2.81,2.22-4.8,4.93-7,4.3-3.54,10.42-3.92,14.6-3.71S137.21,73.92,137.19,81.06Z" transform="translate(-13.95 -4.56)"/><path class="cls-14" d="M109.12,98.25A2.46,2.46,0,0,0,106.34,96c-1.69.24-3.52,1.3-3.24,4.79.51,6.2,6.63,4.41,6.62,4.23S109.35,100.84,109.12,98.25Z" transform="translate(-13.95 -4.56)"/><path class="cls-15" d="M108.18,102.81s-.1.08-.27.18a1.05,1.05,0,0,1-.81.08,2.67,2.67,0,0,1-1.43-2.29,3.51,3.51,0,0,1,.18-1.57,1.25,1.25,0,0,1,.74-.9.55.55,0,0,1,.66.25c.1.16.07.29.1.3s.13-.12.06-.37a.72.72,0,0,0-.28-.37.83.83,0,0,0-.61-.1,1.52,1.52,0,0,0-1,1,3.74,3.74,0,0,0-.23,1.76,2.81,2.81,0,0,0,1.79,2.54,1.17,1.17,0,0,0,1-.24C108.19,103,108.21,102.82,108.18,102.81Z" transform="translate(-13.95 -4.56)"/><path class="cls-5" d="M108.64,86.22a6,6,0,0,0,2.69,1.08,2,2,0,0,0,2.18-1.54c0-.43-.08-.93.19-1.28s1-.32,1.47-.29c1.81.1,3.82-2,4.2-3.77a1.62,1.62,0,0,0,2.18.34A5.81,5.81,0,0,0,123,79.35a2.58,2.58,0,0,1,2.08-1.17,6,6,0,0,0,1.37.23c.81-.11,1.16-1.09,1.24-1.9s.13-1.76.8-2.24a3.28,3.28,0,0,1,2.22-.17c.75.07,1.71-.15,1.87-.89a1.5,1.5,0,0,0-.33-1.12,4,4,0,0,0-4.83-1.28,5.45,5.45,0,0,0-10.06-.56,5.54,5.54,0,0,0-8.74,2.45,4,4,0,0,0-4.23,6.06,3.82,3.82,0,0,0-1.94,3.13A2.18,2.18,0,0,0,105,84,2.22,2.22,0,0,0,109,86" transform="translate(-13.95 -4.56)"/><path class="cls-9" d="M128,72.61v.11a2.38,2.38,0,0,1,0,.34,4.24,4.24,0,0,1-.39,1.22,4.51,4.51,0,0,1-1.31,1.53,4.06,4.06,0,0,1-2.5.85l.09-.14a2.28,2.28,0,0,1,0,1.72,6.74,6.74,0,0,1-1,1.58,5,5,0,0,1-.66.75,2.27,2.27,0,0,1-1,.41,2.24,2.24,0,0,1-2-.62l.23-.07a4.68,4.68,0,0,1-1.82,3.32,3.42,3.42,0,0,1-2,.77,6.14,6.14,0,0,1-2-.35l.16-.08a4.84,4.84,0,0,1-1.37,2,2.62,2.62,0,0,1-2.14.7,3.42,3.42,0,0,1-2.76-2.55l.14.06a3.22,3.22,0,0,1-2.12.42,3.36,3.36,0,0,1-1.52-.59,3.08,3.08,0,0,1-.73-.72,1.33,1.33,0,0,1-.17-.32,3.49,3.49,0,0,0,1,1,3.44,3.44,0,0,0,1.48.53,3.11,3.11,0,0,0,2-.43l.11-.07,0,.13a3.25,3.25,0,0,0,2.62,2.36,2.36,2.36,0,0,0,1.93-.66,4.66,4.66,0,0,0,1.29-1.89l0-.11.12,0a5.77,5.77,0,0,0,1.94.33,3.17,3.17,0,0,0,1.85-.72,4.4,4.4,0,0,0,1.72-3.13l0-.29.2.22a2,2,0,0,0,1.8.54,1.88,1.88,0,0,0,.86-.36,5.33,5.33,0,0,0,.62-.7,6.18,6.18,0,0,0,1-1.51,2,2,0,0,0,.06-1.56l-.06-.15h.16a4,4,0,0,0,2.4-.78,4.32,4.32,0,0,0,1.3-1.46A5,5,0,0,0,128,72.61Z" transform="translate(-13.95 -4.56)"/><path class="cls-5" d="M128.34,105.55c0-.23-1.55.16-3-.85s-1.67-2.66-1.88-2.62-.2.44,0,1.12a3.84,3.84,0,0,0,1.49,2.21,3.31,3.31,0,0,0,2.46.61C128.05,105.92,128.38,105.65,128.34,105.55Z" transform="translate(-13.95 -4.56)"/><path class="cls-14" d="M177.58,193.23h3.84c1-1.44,1.91-1.71,3.91-2.89,5.09-3,11.87-5.44,13.32-4.28s-.34,2.43-.89,2.78-5.45,2.25-5.23,3.84,16.2,4.47,16.9,6c1,2-.74,2.88-7.52,1.72l-1.93-.34a2.39,2.39,0,0,1-.11,2.9c-1.22,1.27-2.22.69-2.22.69a2.33,2.33,0,0,1-1.45,2.2c-1.56.7-2.22,0-2.22,0s.37,3.83-3,3.24c-3-.52-5.12-.52-8.12-1.14a10,10,0,0,1-2.5-.94l-3.81-1.45C175.92,202.82,177.29,194,177.58,193.23Z" transform="translate(-13.95 -4.56)"/><path class="cls-15" d="M197.65,203.65a7.93,7.93,0,0,0-1.8-1.46c-.62-.37-1.41-.74-2.22-1.31a3.45,3.45,0,0,1-1.12-1.13,1.64,1.64,0,0,1-.21-.88,1.38,1.38,0,0,1,.38-.88,2.06,2.06,0,0,1,1.66-.57,7.84,7.84,0,0,1,1.53.29,10.38,10.38,0,0,1,2.4,1,6.9,6.9,0,0,1,1.4,1,2,2,0,0,1,.42.49c-.06.06-.69-.6-2-1.26a11,11,0,0,0-2.36-.87,6.9,6.9,0,0,0-1.44-.26,1.65,1.65,0,0,0-1.32.44,1.05,1.05,0,0,0-.11,1.26,3.12,3.12,0,0,0,1,1c.76.56,1.54,1,2.15,1.38a5.42,5.42,0,0,1,1.31,1.16C197.59,203.42,197.67,203.64,197.65,203.65Z" transform="translate(-13.95 -4.56)"/><path class="cls-15" d="M191.25,193.74a3.45,3.45,0,0,1-.33,1.45,10.23,10.23,0,0,1-4.63,5.38,3.47,3.47,0,0,1-1.39.54,13.58,13.58,0,0,0,6.35-7.37Z" transform="translate(-13.95 -4.56)"/><path class="cls-15" d="M194,205.85a3.39,3.39,0,0,1-1.23-.6,11.43,11.43,0,0,1-1.2-.89,3.33,3.33,0,0,1-1.08-1.54,2.36,2.36,0,0,1,.16-1.92,1.81,1.81,0,0,1,1.33-.83c.94-.1,1.37.41,1.32.43a2.68,2.68,0,0,0-1.26-.13,1.53,1.53,0,0,0-1,.74,2.07,2.07,0,0,0-.1,1.58,3.27,3.27,0,0,0,.94,1.37c.4.37.78.68,1.11.94A5.74,5.74,0,0,1,194,205.85Z" transform="translate(-13.95 -4.56)"/><path class="cls-15" d="M191.68,208.57c0,.05-.43-.18-1-.59a4.54,4.54,0,0,1-1.94-2.11,2.29,2.29,0,0,1,0-1.67,1.64,1.64,0,0,1,1-.93,1.41,1.41,0,0,1,.92,0c.2.09.27.19.26.21a1.88,1.88,0,0,0-1.07.07,1.33,1.33,0,0,0-.73.79,2,2,0,0,0,0,1.37,5.2,5.2,0,0,0,1.73,2C191.4,208.21,191.72,208.52,191.68,208.57Z" transform="translate(-13.95 -4.56)"/><path class="cls-1" d="M163.69,187.27,162,186.16l-5.89-41.31c-.52-3.62-6-13.09-16.8-16.73l2.18,23.37,9,50a76.86,76.86,0,0,0,8.87,3.63c5.76,2,17.26,4.22,17.26,4.22l3.71-17.14Z" transform="translate(-13.95 -4.56)"/><path class="cls-1" d="M91.74,130.71l15.93-6.61,1.89-7.25,19.64,9.28,3.29-5.25,2.54,5.83,4.31,1.41,10.06,17.69,0,37.7,2,32.52-2.18,5.13-18,2.66a20.39,20.39,0,0,1-5.94,0l-36.58-6-1-10.74,3.91-29.62Z" transform="translate(-13.95 -4.56)"/><path class="cls-7" d="M128,165.36c-.31-8.29,1-29.43,1-29.43l2.73-.44a307.44,307.44,0,0,1,7,45.74c.77,10.19.77,22,.77,22L134,215,128,203.3S128.38,175.43,128,165.36Z" transform="translate(-13.95 -4.56)"/><polygon class="cls-7" points="114.33 124.29 116.62 123.4 118.81 126.31 118.06 131.6 115.32 132.04 112.63 128.71 114.33 124.29"/><path class="cls-1" d="M92.17,130.71s-10.43,2.7-13.41,13c-.75,2.59-4.71,41.05-5.31,46S71,202.08,77.11,207.16c3.76,3.15,35.25,6.42,35.25,6.42l6.39-15.19L93.86,188.7l3.81-33.18Z" transform="translate(-13.95 -4.56)"/><path class="cls-5" d="M141.25,214.2l-16.5-16.55a1,1,0,0,1,0-1.42h0a1,1,0,0,1,1.48,0l16.5,16.55a1,1,0,0,1,0,1.42h0A1,1,0,0,1,141.25,214.2Z" transform="translate(-13.95 -4.56)"/><path class="cls-14" d="M118,198.33c.11.07,7.26.34,9.47.81s7.46,1.8,9.13,3,5.06,5.51,4.21,6.14a1.94,1.94,0,0,1-2.44,0c-.46-.43-4.57-3.57-4.57-3.57s-2.47-.83-2.55-.19,6.13,4,5.14,5.5-3.66,1.12-3.66,1.12.76,2.41-.08,3.62a6.35,6.35,0,0,1-2.93,1.85,2.3,2.3,0,0,1-1.36,2.88c-1.47.6-3.7-.9-3.7-.9l-9.54-4.84-2.74-.16Z" transform="translate(-13.95 -4.56)"/><path class="cls-5" d="M81.58,209h.14l.44.06,1.68.27,6.32,1.08,22.24,3.91-.24.13,5.6-16.18.14.29-4.63-1.8-20.43-8-.16-.06,0-.17c1.37-9.15,2.54-16.91,3.36-22.42.42-2.71.76-4.87,1-6.38.12-.71.21-1.27.28-1.68,0-.18.06-.32.08-.44s0-.14,0-.14,0,0,0,.15l0,.44c-.06.41-.13,1-.22,1.69-.21,1.52-.5,3.68-.87,6.4-.79,5.51-1.89,13.28-3.19,22.44l-.13-.22,20.45,7.93,4.62,1.79.2.08-.07.21c-2,5.75-3.91,11.21-5.63,16.17l-.06.17-.18,0-22.2-4.07-6.31-1.19-1.66-.33-.43-.09C81.62,209,81.57,209,81.58,209Z" transform="translate(-13.95 -4.56)"/><path class="cls-5" d="M92.81,188.64A22.81,22.81,0,0,0,88,190.32a22.73,22.73,0,0,0-4,3.09,10.63,10.63,0,0,1,8.85-4.77Z" transform="translate(-13.95 -4.56)"/><path class="cls-5" d="M96.69,146.81c-.08,0,0-.82-.09-2.13A16.82,16.82,0,0,0,93,135.32c-.81-1-1.41-1.58-1.36-1.64a6.36,6.36,0,0,1,1.61,1.43,14.68,14.68,0,0,1,3.66,9.56A6.62,6.62,0,0,1,96.69,146.81Z" transform="translate(-13.95 -4.56)"/><path class="cls-5" d="M150.2,148.13c.12,0,.23,13.12.23,29.31s-.11,29.31-.23,29.31-.23-13.12-.23-29.31S150.07,148.13,150.2,148.13Z" transform="translate(-13.95 -4.56)"/><path class="cls-5" d="M135,126.71a6.78,6.78,0,0,1-.53,1.14l-1.61,3.08-.11.2-.14-.18-3.6-4.7.34,0-3,7.76-.09.23-.22-.12-.86-.45c-4.87-2.57-9.27-4.93-12.44-6.65L109,124.91a9.46,9.46,0,0,1-1.34-.81,12.8,12.8,0,0,1,1.43.66l3.81,1.93c3.21,1.65,7.63,4,12.5,6.54l.86.45-.32.12c1.1-2.79,2.14-5.43,3.06-7.74l.13-.34.22.29,3.52,4.76-.25,0,1.73-3A8.1,8.1,0,0,1,135,126.71Z" transform="translate(-13.95 -4.56)"/></svg>