<svg id="Layer_1" data-name="Layer 1" xmlns="http://www.w3.org/2000/svg" viewBox="0 0 620.16 368.07"><defs><style>.cls-1{fill:#ebebeb;}.cls-2{fill:#fafafa;}.cls-3{fill:#f5f5f5;}.cls-4{fill:#e0e0e0;}.cls-5{fill:#263238;}.cls-6{fill:#455a64;}.cls-7{fill:#b78876;}.cls-8{fill:#aa6550;}.cls-9{fill:#e8505b;}.cls-10,.cls-19{opacity:0.2;}.cls-11,.cls-13{opacity:0.5;}.cls-12,.cls-13,.cls-21{fill:#fff;}.cls-14,.cls-21{opacity:0.3;}.cls-15{fill:#ffbe9d;}.cls-16{fill:#ffb39d;}.cls-17{fill:#ff9178;}.cls-18{opacity:0.4;}.cls-20{fill:#eb996e;}</style></defs><rect class="cls-1" x="460.28" y="5.41" width="110.45" height="198.41"/><rect class="cls-2" x="464.7" y="11.17" width="100.48" height="186.74"/><polygon class="cls-3" points="565.18 13.37 464.69 141.18 464.69 11.17 565.18 11.17 565.18 13.37"/><rect class="cls-1" x="464.7" y="64.89" width="102.66" height="1.99"/><rect class="cls-1" x="464.7" y="109.36" width="102.66" height="1.99"/><rect class="cls-1" x="464.7" y="153.83" width="102.66" height="1.99"/><rect class="cls-1" x="448.64" y="156.4" width="137.32" height="5.08" transform="translate(356 651.85) rotate(-90)"/><rect class="cls-1" x="484.04" y="11.17" width="2.3" height="54.72"/><rect class="cls-1" x="503.88" y="11.17" width="2.3" height="54.72"/><rect class="cls-1" x="523.72" y="11.17" width="2.3" height="54.72"/><rect class="cls-1" x="543.55" y="11.17" width="2.3" height="54.72"/><rect class="cls-3" x="455.61" y="2.05" width="4.67" height="203"/><polygon class="cls-4" points="575.4 205.61 570.73 203.82 570.73 2.05 575.4 2.05 575.4 205.61"/><rect class="cls-4" x="455.61" width="119.79" height="5.41"/><rect class="cls-4" x="452.3" y="206.28" width="126.26" height="5.04"/><polygon class="cls-1" points="570.73 203.82 578.56 206.28 452.3 206.28 460.28 203.82 570.73 203.82"/><path class="cls-1" d="M599.09,308.45c4.46-2.3,9.72-2.6,14.68-1.78,2.66.44,5.44,1.23,7.25,3.23s2.16,5.52.07,7.24a6.87,6.87,0,0,1-4.57,1.16c-3.88,0-8.19-.72-11.29,1.61-1.77,1.33-2.94,3.55-5.06,4.2a5,5,0,0,1-5.5-2.44,8.55,8.55,0,0,1-.62-6.31A9.63,9.63,0,0,1,599.09,308.45Z" transform="translate(-2.37 -24.39)"/><path class="cls-1" d="M588.85,288.7c2.73,3.9,8,2.61,10.5.23s3.5-5.83,4.45-9.12c2.16-7.52,4.34-15.41,2.74-23.06a12.89,12.89,0,0,0-2.95-6.27,6.68,6.68,0,0,0-6.34-2.11c-2.68.71-4.34,3.33-5.54,5.82a54.75,54.75,0,0,0-5.43,23.59c0,3.8.43,7.78,2.57,10.92" transform="translate(-2.37 -24.39)"/><path class="cls-1" d="M581.36,294.3c3-3.52,3.52-8.66,2.2-13.06s-4.3-8.16-7.73-11.22A41.68,41.68,0,0,0,562,261.84a14.7,14.7,0,0,0-6.23-1,6.55,6.55,0,0,0-5.23,3.16c-1.46,2.78-.06,6.15,1.45,8.9a106,106,0,0,0,9.1,13.85c2.73,3.52,5.85,7,10,8.58s8.47,1.4,10.67-1.48" transform="translate(-2.37 -24.39)"/><path class="cls-4" d="M588.67,347.53a9.15,9.15,0,0,0,.25-1.77c.12-1.29.28-2.91.47-4.84a69.91,69.91,0,0,1,1.08-7.09,55.78,55.78,0,0,1,2.58-8.37,31.1,31.1,0,0,1,4.28-7.58,15.9,15.9,0,0,1,5.4-4.49,14.89,14.89,0,0,1,4.56-1.42,8.54,8.54,0,0,0,1.76-.26,8,8,0,0,0-1.8,0,13.48,13.48,0,0,0-4.74,1.23,16,16,0,0,0-5.7,4.53,30.43,30.43,0,0,0-4.44,7.73,51.44,51.44,0,0,0-2.56,8.51,61.07,61.07,0,0,0-.94,7.18c-.15,2.06-.21,3.72-.24,4.87A8.61,8.61,0,0,0,588.67,347.53Z" transform="translate(-2.37 -24.39)"/><path class="cls-4" d="M589,343.81a3.32,3.32,0,0,0,0-.82c0-.62,0-1.4,0-2.35,0-2.05,0-5,.11-8.65.18-7.29.81-15.14,2-26.2,1.15-10.41,2.69-22.52,4.32-30.39.35-1.79.7-3.41,1-4.82s.58-2.63.84-3.62.41-1.68.55-2.28a4.15,4.15,0,0,0,.15-.81,2.64,2.64,0,0,0-.29.77l-.68,2.25c-.31,1-.62,2.19-1,3.6s-.76,3-1.14,4.8a267.7,267.7,0,0,0-4.54,28.2c-1.21,11.09-1.76,21.18-1.81,28.5,0,3.65,0,6.61.13,8.65.06,1,.1,1.74.14,2.35A3.82,3.82,0,0,0,589,343.81Z" transform="translate(-2.37 -24.39)"/><path class="cls-4" d="M589.05,324.33a15.81,15.81,0,0,0,0-2.45,66.4,66.4,0,0,0-.75-6.66,87.85,87.85,0,0,0-2.16-9.69,78.8,78.8,0,0,0-4.06-11.48,61.24,61.24,0,0,0-11.9-18.54,31.89,31.89,0,0,0-2.81-2.6c-.43-.36-.81-.73-1.19-1l-1.09-.75a15.67,15.67,0,0,0-2.07-1.33c-.11.16,2.93,2,6.78,6.05a64.39,64.39,0,0,1,11.61,18.47,91.25,91.25,0,0,1,4.08,11.37,98.33,98.33,0,0,1,2.3,9.6c.51,2.77.8,5,1,6.59A16.25,16.25,0,0,0,589.05,324.33Z" transform="translate(-2.37 -24.39)"/><polygon class="cls-4" points="567.86 334.3 569.81 361.03 604.16 361.03 606.11 334.3 567.86 334.3"/><rect class="cls-4" x="564.55" y="323.76" width="45.66" height="10.54"/><polygon class="cls-1" points="564.54 360.01 564.54 362.93 566.69 362.93 609.45 362.93 609.45 360.01 564.54 360.01"/><polygon class="cls-4" points="568.79 368.07 566.69 362.93 607.82 362.93 605.37 368.07 568.79 368.07"/><path class="cls-3" d="M607.84,367.43a1.26,1.26,0,0,1-.16.24l-.52.68c-.48.63-1.15,1.48-2,2.56l-.08.12-.09-.12-4.92-6.8h.29c-1.47,2.07-3.09,4.38-4.84,6.85l-.15.22-.17-.21-5.74-6.82h.33l-.32.4L584.34,371l-.17.22L584,371l-4.84-6.85.28,0c-2.39,2.71-4.41,5-6,6.79l-.11.12-.08-.14-1.87-3.13-.48-.84a1.21,1.21,0,0,1-.14-.3,2.7,2.7,0,0,1,.2.27c.14.21.31.48.53.8.47.75,1.13,1.79,2,3.08h-.19l5.87-6.88.15-.17.13.18,4.89,6.82H584l5.12-6.44.31-.4.17-.2.16.2,5.73,6.84-.32,0c1.76-2.47,3.41-4.76,4.88-6.82l.15-.2.14.2,4.81,6.87H605c.88-1,1.58-1.88,2.08-2.49l.56-.65C607.76,367.49,607.83,367.42,607.84,367.43Z" transform="translate(-2.37 -24.39)"/><path class="cls-3" d="M609,358.51c0,.12-8.6.22-19.22.22s-19.22-.1-19.22-.22,8.61-.21,19.22-.21S609,358.39,609,358.51Z" transform="translate(-2.37 -24.39)"/><path class="cls-3" d="M610.69,387.61c0,.12-9.35.21-20.89.21s-20.89-.09-20.89-.21,9.35-.22,20.89-.22S610.69,387.49,610.69,387.61Z" transform="translate(-2.37 -24.39)"/><path class="cls-1" d="M29.41,197.66s-7-.5-6.35,15.2,2.24,24.06,2.24,24.06-.2,3.48-2.9,2.79-7.77-4.07-10.27-1.53-1.67,6.65,1.77,11.39S24.51,265,25.16,266s.89,2.73-1,2.56S9.32,264,7.62,270.22,17.68,288.1,18.94,289.4s1.33,2.12.82,2.9-4.71-1.09-8.43-2.18-8.22-1.71-8.91,2,4.5,14.47,23.92,25.81l9.34,4.66,8.84-5.64c18.18-13.22,22.26-24.47,21.21-28.07s-5.46-2.53-9.06-1.07-7.58,3.75-8.16,3-.61-1.55.52-3,11.67-14.18,9.35-20.22-14.72-.4-16.61,0-1.81-1.44-1.27-2.45,6.61-12.36,9.56-17.42,3.47-9.17.62-11.52-7.45,1.61-10.06,2.56-3.17-2.5-3.17-2.5.76-8.48-.17-24.16-8-14.42-8-14.42" transform="translate(-2.37 -24.39)"/><path class="cls-4" d="M30,211.72s0,.11,0,.33,0,.55.08,1c.05.87.14,2.11.25,3.71.21,3.22.49,7.88.8,13.64.65,11.52,1.39,27.44,2.16,45s1.48,33.52,2.05,45c.3,5.75.53,10.41.7,13.65.08,1.6.14,2.84.18,3.71l0,1a2.59,2.59,0,0,1,0,.32,2.72,2.72,0,0,1,0-.32c0-.23,0-.55-.08-1-.06-.86-.14-2.11-.25-3.7-.22-3.22-.49-7.88-.81-13.64-.64-11.52-1.39-27.45-2.16-45s-1.47-33.51-2.05-45c-.29-5.75-.53-10.4-.69-13.64-.08-1.6-.14-2.85-.19-3.71,0-.42,0-.74,0-1Z" transform="translate(-2.37 -24.39)"/><path class="cls-4" d="M19,243.2a2.49,2.49,0,0,1,.58.48c.36.33.87.82,1.49,1.43,1.23,1.22,2.89,2.95,4.68,4.89l4.57,5,1.39,1.51a2.49,2.49,0,0,1,.48.58,3.74,3.74,0,0,1-.58-.48c-.36-.33-.86-.82-1.48-1.43-1.22-1.24-2.85-3-4.64-4.93l-4.61-5-1.39-1.5A3.71,3.71,0,0,1,19,243.2Z" transform="translate(-2.37 -24.39)"/><path class="cls-4" d="M33.15,256.78c-.07-.07,3.35-3.65,7.63-8s7.81-7.81,7.88-7.74-3.34,3.65-7.63,8S33.22,256.85,33.15,256.78Z" transform="translate(-2.37 -24.39)"/><path class="cls-4" d="M33.11,283.85a2.88,2.88,0,0,1,.65-.42l1.83-1c1.54-.87,3.67-2.07,6-3.49s4.34-2.75,5.81-3.73L49.11,274a3.1,3.1,0,0,1,.66-.4,3.32,3.32,0,0,1-.58.51c-.39.31-1,.74-1.68,1.26-1.44,1-3.46,2.42-5.77,3.83s-4.45,2.59-6,3.4c-.79.4-1.43.72-1.88.92A3.66,3.66,0,0,1,33.11,283.85Z" transform="translate(-2.37 -24.39)"/><path class="cls-4" d="M17.64,274.37a3,3,0,0,1,.65.31c.4.21,1,.53,1.69.94,1.42.81,3.37,1.94,5.52,3.22s4.07,2.45,5.46,3.31c.7.43,1.25.79,1.64,1a2.81,2.81,0,0,1,.57.42,3,3,0,0,1-.64-.3l-1.7-.94c-1.42-.81-3.37-1.95-5.52-3.22s-4.07-2.45-5.46-3.32l-1.64-1A3,3,0,0,1,17.64,274.37Z" transform="translate(-2.37 -24.39)"/><path class="cls-4" d="M14.57,298.26a4.62,4.62,0,0,1,.82.4l2.18,1.2c1.82,1,4.34,2.46,7.1,4.07s5.26,3.09,7,4.17l2.12,1.29a5.6,5.6,0,0,1,.75.52,4.62,4.62,0,0,1-.82-.4l-2.18-1.19c-1.82-1-4.34-2.47-7.1-4.08s-5.26-3.08-7-4.16l-2.12-1.3A4.64,4.64,0,0,1,14.57,298.26Z" transform="translate(-2.37 -24.39)"/><path class="cls-4" d="M34.19,309.5A5.29,5.29,0,0,1,35,309l2.27-1.38c1.92-1.17,4.56-2.79,7.43-4.66s5.42-3.62,7.26-4.9l2.18-1.52A5.16,5.16,0,0,1,55,296a5.74,5.74,0,0,1-.74.63c-.5.39-1.22.95-2.12,1.61-1.81,1.34-4.34,3.13-7.22,5s-5.54,3.47-7.49,4.58c-1,.55-1.77,1-2.33,1.29A5.67,5.67,0,0,1,34.19,309.5Z" transform="translate(-2.37 -24.39)"/><polygon class="cls-4" points="45.86 301.23 20.02 301.23 28.46 365.07 37.43 365.07 45.86 301.23"/><path class="cls-3" d="M23.73,333.47s0,.09.14.22a1.55,1.55,0,0,0,.62.45,3.1,3.1,0,0,0,2.73-.34c1-.57,2-1.7,3.35-2.2a7.32,7.32,0,0,1,4.75.09,20.48,20.48,0,0,1,4.43,2.15,30.37,30.37,0,0,0,3.59,1.93,9.78,9.78,0,0,0,2.66.76,3.66,3.66,0,0,0,.75.05c.17,0,.26,0,.26,0a13.22,13.22,0,0,1-3.55-1.07,34,34,0,0,1-3.51-2,19.65,19.65,0,0,0-4.5-2.21,7.53,7.53,0,0,0-5-.05,6.56,6.56,0,0,0-1.89,1.16,13.6,13.6,0,0,1-1.48,1.15,3.06,3.06,0,0,1-2.51.44A2.61,2.61,0,0,1,23.73,333.47Z" transform="translate(-2.37 -24.39)"/><path class="cls-3" d="M24.67,345.22s.21-.26.61-.68a5.66,5.66,0,0,1,2.06-1.31,9.32,9.32,0,0,1,3.6-.54,38.32,38.32,0,0,1,4.49.61,15.42,15.42,0,0,0,4.61.19,12.85,12.85,0,0,0,3.62-1,11.81,11.81,0,0,0,2.18-1.3,3.3,3.3,0,0,0,.69-.62,22.36,22.36,0,0,1-3,1.64,13.36,13.36,0,0,1-3.55.93,15.77,15.77,0,0,1-4.49-.23A35.42,35.42,0,0,0,31,342.3a9.24,9.24,0,0,0-3.72.65,5.38,5.38,0,0,0-2.07,1.48,3.64,3.64,0,0,0-.39.57C24.69,345.14,24.66,345.22,24.67,345.22Z" transform="translate(-2.37 -24.39)"/><path class="cls-3" d="M45.3,351.52a2.19,2.19,0,0,0-.71-.37,7.51,7.51,0,0,0-2.14-.46,14.33,14.33,0,0,0-3.24.18c-1.21.2-2.5.53-3.85.82a16.31,16.31,0,0,1-3.85.44,8.38,8.38,0,0,1-3.06-.67,7,7,0,0,1-2.31-1.72,1.85,1.85,0,0,0,.43.67,5.48,5.48,0,0,0,1.76,1.32,8,8,0,0,0,3.16.78,15.3,15.3,0,0,0,3.95-.41c1.37-.29,2.66-.63,3.83-.84a14.23,14.23,0,0,1,3.16-.27A12.17,12.17,0,0,1,45.3,351.52Z" transform="translate(-2.37 -24.39)"/><path class="cls-3" d="M27,360.37a4.29,4.29,0,0,1,2.51-.25,11.87,11.87,0,0,1,2.63,1,10.13,10.13,0,0,0,3.4.94,10.26,10.26,0,0,0,6.19-1.44,8.44,8.44,0,0,0,1.53-1.18c.32-.33.48-.53.46-.55a22.55,22.55,0,0,1-2.14,1.48,10.71,10.71,0,0,1-6,1.27c-2.44-.14-4.32-1.6-6-1.79a3.85,3.85,0,0,0-2,.16A1.52,1.52,0,0,0,27,360.37Z" transform="translate(-2.37 -24.39)"/><path class="cls-3" d="M28.39,372.63a5.18,5.18,0,0,0,2.16-.43c1.3-.44,2.9-1.43,4.78-2.18a7.65,7.65,0,0,1,2.75-.57,5,5,0,0,1,2.21.5,4.77,4.77,0,0,1,1.59,1.38s0-.22-.24-.55a3.67,3.67,0,0,0-1.21-1.09,5.08,5.08,0,0,0-2.35-.63,7.71,7.71,0,0,0-2.9.57c-1.94.77-3.5,1.8-4.74,2.29S28.38,372.56,28.39,372.63Z" transform="translate(-2.37 -24.39)"/><path class="cls-3" d="M29.66,378.33a6.55,6.55,0,0,0,1.64.53,30.4,30.4,0,0,0,4.09.69,29.22,29.22,0,0,0,4.14.12,6.37,6.37,0,0,0,1.71-.2c0-.13-2.62,0-5.81-.34S29.69,378.2,29.66,378.33Z" transform="translate(-2.37 -24.39)"/><path class="cls-5" d="M618.5,391.22c0,.13-137.94.24-308,.24s-308.08-.11-308.08-.24,137.9-.24,308.08-.24S618.5,391.08,618.5,391.22Z" transform="translate(-2.37 -24.39)"/><rect class="cls-6" x="124.45" y="274.4" width="6.76" height="80.94"/><path class="cls-6" d="M177.35,298.79H80.73A10.49,10.49,0,0,1,91.22,288.3h75.65a10.49,10.49,0,0,1,10.48,10.49Z" transform="translate(-2.37 -24.39)"/><path class="cls-5" d="M136.12,299a35.19,35.19,0,0,1-5.93.25,35.19,35.19,0,0,1-5.93-.25,35.19,35.19,0,0,1,5.93-.25A35.19,35.19,0,0,1,136.12,299Z" transform="translate(-2.37 -24.39)"/><path class="cls-6" d="M159.74,387.07h-1a28.75,28.75,0,1,0-57.49,0h-1a29.7,29.7,0,1,1,59.4,0Z" transform="translate(-2.37 -24.39)"/><path class="cls-5" d="M105.27,386.53a4.46,4.46,0,1,1-4.45-4.46A4.45,4.45,0,0,1,105.27,386.53Z" transform="translate(-2.37 -24.39)"/><path class="cls-6" d="M163.91,386.73a4.46,4.46,0,1,1-4.46-4.45A4.46,4.46,0,0,1,163.91,386.73Z" transform="translate(-2.37 -24.39)"/><path class="cls-6" d="M159.45,379.73c0,.14-12.92.25-28.86.25s-28.87-.11-28.87-.25,12.92-.25,28.87-.25S159.45,379.6,159.45,379.73Z" transform="translate(-2.37 -24.39)"/><path class="cls-6" d="M78.53,218.66v59.59a14.14,14.14,0,0,0,14.15,14.14h45.91l-6.24-73.73a6.3,6.3,0,0,0-6.3-6.3H84.84A6.3,6.3,0,0,0,78.53,218.66Z" transform="translate(-2.37 -24.39)"/><path class="cls-5" d="M94.76,288.3s-.19-.18-.51-.56-.78-1-1.33-1.73a27.62,27.62,0,0,1-3.58-7.17,28,28,0,0,1-1.23-5.41,50.23,50.23,0,0,1-.24-6.36c0-4.47,0-9.38,0-14.53,0-10.29.05-19.6.07-26.4,0-3.34.06-6.06.08-8,0-.91,0-1.63,0-2.17a6.42,6.42,0,0,1,0-.76,3.44,3.44,0,0,1,0,.76c0,.54,0,1.26,0,2.17,0,1.94,0,4.66.07,8,0,6.8,0,16.11.07,26.4,0,5.15,0,10.06,0,14.53a51.34,51.34,0,0,0,.2,6.31,27.9,27.9,0,0,0,1.16,5.36,28.57,28.57,0,0,0,3.41,7.16c.52.79.94,1.39,1.24,1.78A5.41,5.41,0,0,1,94.76,288.3Z" transform="translate(-2.37 -24.39)"/><path class="cls-5" d="M119.76,288.13a10.13,10.13,0,0,1-1.46.1l-4,.1c-3.36.07-8,.13-13.12.17l-7.22.05a24.55,24.55,0,0,0-5.82.52,9.54,9.54,0,0,0-3.51,1.68c-.75.56-1.08,1-1.12.93a1.32,1.32,0,0,1,.23-.31,6.83,6.83,0,0,1,.77-.77,9,9,0,0,1,3.54-1.85,23,23,0,0,1,5.9-.65c2.21-.05,4.66-.06,7.22-.08,5.13,0,9.77,0,13.13,0l4,.05A7.08,7.08,0,0,1,119.76,288.13Z" transform="translate(-2.37 -24.39)"/><path class="cls-7" d="M222.08,187.46l-4.48,4.59-9-9.55,3-5.11c.16-.65.32-1.38.48-2.2a9.06,9.06,0,0,0,.05-2.94,13.3,13.3,0,0,0-.88-3.53c-.52-1,.41-2.11,1.3-1.66s2.39,3.14,2.6,6.75,3.44-1,4.65-2.64,5.18-6.59,6-6.61c1.16,0,1.41,1.25.16,2.87s-4.64,6.76-3.75,7.38h0a4.37,4.37,0,0,1,4.44,2.49c.77,1.63,1.61,3.93.82,4.92A57.19,57.19,0,0,1,222.08,187.46Z" transform="translate(-2.37 -24.39)"/><polygon class="cls-7" points="206.27 158.11 174.06 184.63 187 202.69 215.24 167.66 206.27 158.11"/><path class="cls-8" d="M225.25,175.58a11.79,11.79,0,0,1-1.6,1.8l-1.84,1.86-1.1,1.08a2.3,2.3,0,0,1-1.6.81,1.12,1.12,0,0,1-.88-.52,1.47,1.47,0,0,1-.24-.92,2.65,2.65,0,0,1,.75-1.48,22.55,22.55,0,0,1,1.89-1.84,8.65,8.65,0,0,1,1.94-1.43,21,21,0,0,1-1.71,1.68c-.53.52-1.15,1.15-1.78,1.88a2.3,2.3,0,0,0-.62,1.22.81.81,0,0,0,.68.93,2,2,0,0,0,1.25-.67l1.11-1.06,1.91-1.78A12.4,12.4,0,0,1,225.25,175.58Z" transform="translate(-2.37 -24.39)"/><path class="cls-8" d="M226.41,177.92a11.88,11.88,0,0,1-1.54,1.73l-1.76,1.79c-.35.33-.67.68-1.08,1a2.81,2.81,0,0,1-.73.45,1.25,1.25,0,0,1-1,0,1.41,1.41,0,0,1-.69-1.64,3.17,3.17,0,0,1,.84-1.34c.65-.7,1.28-1.28,1.82-1.76a8,8,0,0,1,1.88-1.36,21.69,21.69,0,0,1-1.65,1.62c-.51.49-1.1,1.1-1.72,1.8a2.84,2.84,0,0,0-.71,1.15,1,1,0,0,0,.42,1.09c.37.17.84-.08,1.21-.38s.72-.68,1.07-1l1.83-1.71A10.6,10.6,0,0,1,226.41,177.92Z" transform="translate(-2.37 -24.39)"/><path class="cls-8" d="M227.7,180.12a10.71,10.71,0,0,1-1.47,1.67l-1.7,1.72a6.58,6.58,0,0,1-1.09,1,1.65,1.65,0,0,1-.81.3,1.13,1.13,0,0,1-.89-.32,1.55,1.55,0,0,1-.26-1.68,4.22,4.22,0,0,1,.89-1.21,23.44,23.44,0,0,1,1.75-1.67,7.43,7.43,0,0,1,1.81-1.31,15.64,15.64,0,0,1-1.58,1.56c-.49.47-1.06,1-1.66,1.72a3.73,3.73,0,0,0-.77,1.09,1.08,1.08,0,0,0,.16,1.16.87.87,0,0,0,1.11,0,8,8,0,0,0,1-.9c.62-.59,1.21-1.14,1.76-1.64A9.65,9.65,0,0,1,227.7,180.12Z" transform="translate(-2.37 -24.39)"/><path class="cls-8" d="M217.47,185.69a10.46,10.46,0,0,1,.22-1.35,6.82,6.82,0,0,0-2.06-5.88c-.59-.58-1-.86-1-.92s.55.12,1.24.67A6.16,6.16,0,0,1,218,184.4C217.82,185.26,217.52,185.72,217.47,185.69Z" transform="translate(-2.37 -24.39)"/><path class="cls-9" d="M153.79,212.5l4.81,48.25L99.33,262l.32-38.84-4.28-33.49C98.18,174,120.15,173,120.15,173l17.23-.28a30.35,30.35,0,0,1,17,3.77s17.5,9.52,17.34,33.72" transform="translate(-2.37 -24.39)"/><path class="cls-9" d="M99.88,181.55c-5.17,4.94-10.18,14.87-8.32,34.74l27.56-1.14L118.41,188a9.18,9.18,0,0,0-3.56-7h0A11.51,11.51,0,0,0,99.88,181.55Z" transform="translate(-2.37 -24.39)"/><path class="cls-2" d="M157.56,253.84a2.15,2.15,0,0,1-.49.37,8.45,8.45,0,0,1-1.6.75,12.54,12.54,0,0,1-6.46.25c-2.71-.49-5.72-1.84-9.17-2.75a30.68,30.68,0,0,0-11.55-.72c-4.13.48-7.81,2-11.17,3.31a34.81,34.81,0,0,1-9.24,2.58,15.16,15.16,0,0,1-6.44-.63,10.38,10.38,0,0,1-1.61-.73,2.76,2.76,0,0,1-.52-.33c0-.05.75.42,2.19.88a15.52,15.52,0,0,0,6.34.47,35.34,35.34,0,0,0,9.12-2.66c3.33-1.32,7.07-2.88,11.26-3.37A30.75,30.75,0,0,1,140,252c1.76.46,3.37,1.07,4.88,1.59a35.25,35.25,0,0,0,4.25,1.26,12.92,12.92,0,0,0,6.33-.1A11.84,11.84,0,0,0,157.56,253.84Z" transform="translate(-2.37 -24.39)"/><g class="cls-10"><path d="M99.4,253.5l.24.19a21.86,21.86,0,0,0,22.91,2.2c2.78-1.43,5.26-3.48,8.22-4.49,4.21-1.44,8.8-.6,13.19.1s9.63,1.17,13.6-.83l-.52-6.09-57.49,1.5" transform="translate(-2.37 -24.39)"/></g><path class="cls-9" d="M157.66,387.81l-.14-5.76-15.41.53.08,9,1,.06c4.23.24,21.56.94,24.39.09C170.71,390.77,157.66,387.81,157.66,387.81Z" transform="translate(-2.37 -24.39)"/><g class="cls-11"><path class="cls-12" d="M147.76,391.47a5.36,5.36,0,0,0-1.85-3.38,4.5,4.5,0,0,0-3.76-1l.06,4.31Z" transform="translate(-2.37 -24.39)"/></g><path class="cls-13" d="M164,389.49s4.57,1.32,4,2.08-18.1.7-25.84,0l0-.34,20.45.22S163.14,389.52,164,389.49Z" transform="translate(-2.37 -24.39)"/><path class="cls-5" d="M142,391.22l.26,0,.76.05,2.79.13c2.36.09,5.62.17,9.22.18s6.86,0,9.22-.12l2.79-.11.76,0,.26,0h-1l-2.8.05c-2.35,0-5.61.08-9.21.07s-6.86-.08-9.21-.13l-2.8-.07h-1Z" transform="translate(-2.37 -24.39)"/><path class="cls-5" d="M162.67,391.7a6.53,6.53,0,0,1,.52-1.33,6.24,6.24,0,0,1,1-1.07,2.12,2.12,0,0,0-1.12,1A2,2,0,0,0,162.67,391.7Z" transform="translate(-2.37 -24.39)"/><path class="cls-5" d="M158.14,389.39c.05,0,.26-.24.49-.59a1.73,1.73,0,0,0,.33-.69c-.05,0-.26.24-.49.59A1.73,1.73,0,0,0,158.14,389.39Z" transform="translate(-2.37 -24.39)"/><path class="cls-5" d="M156.9,388.73s.28-.12.54-.36.46-.46.42-.5-.28.12-.54.36S156.87,388.69,156.9,388.73Z" transform="translate(-2.37 -24.39)"/><path class="cls-5" d="M156.12,387.28a3.6,3.6,0,0,0,1.6,0,1.74,1.74,0,0,0-.8-.1A1.77,1.77,0,0,0,156.12,387.28Z" transform="translate(-2.37 -24.39)"/><path class="cls-5" d="M155.85,386.25a1.48,1.48,0,0,0,.89.27,1.69,1.69,0,0,0,.93-.12,4.15,4.15,0,0,0-.91-.07A4.92,4.92,0,0,0,155.85,386.25Z" transform="translate(-2.37 -24.39)"/><path class="cls-5" d="M158.67,388.05a2.81,2.81,0,0,0,1,0,6.39,6.39,0,0,0,1.06-.23,3,3,0,0,0,.6-.25.53.53,0,0,0,.24-.3.4.4,0,0,0-.15-.4,1.82,1.82,0,0,0-2.24.52,1.85,1.85,0,0,0-.32.66.62.62,0,0,0,0,.27,2.87,2.87,0,0,1,.46-.84,1.79,1.79,0,0,1,.84-.55,1.52,1.52,0,0,1,1.18.09c.15.11.09.3-.08.4a3.93,3.93,0,0,1-.56.24,7.29,7.29,0,0,1-1,.26C159,388,158.67,388,158.67,388.05Z" transform="translate(-2.37 -24.39)"/><path class="cls-5" d="M158.92,388.1a.94.94,0,0,0,.12-.68,1.68,1.68,0,0,0-.27-.73,1,1,0,0,0-.82-.5.4.4,0,0,0-.31.45,1,1,0,0,0,.17.44,2.78,2.78,0,0,0,.47.6,1.26,1.26,0,0,0,.56.4s-.2-.17-.47-.49A3.34,3.34,0,0,1,158,387c-.13-.21-.23-.58,0-.63s.5.23.65.42a1.8,1.8,0,0,1,.28.65A3.43,3.43,0,0,1,158.92,388.1Z" transform="translate(-2.37 -24.39)"/><path class="cls-5" d="M142.3,387s.44,0,1.14.05a4.79,4.79,0,0,1,4,3.21c.23.66.26,1.1.29,1.1a.83.83,0,0,0,0-.31,3.79,3.79,0,0,0-.16-.83,4.66,4.66,0,0,0-4.13-3.3,4.43,4.43,0,0,0-.84,0A1.07,1.07,0,0,0,142.3,387Z" transform="translate(-2.37 -24.39)"/><path class="cls-5" d="M149.7,390a9.16,9.16,0,0,0,2.24.22,8.63,8.63,0,0,0,2.25-.17s-1,0-2.25,0S149.71,389.92,149.7,390Z" transform="translate(-2.37 -24.39)"/><path class="cls-5" d="M146.69,390s.08.22.18.45.16.43.21.43.08-.24,0-.51S146.72,389.93,146.69,390Z" transform="translate(-2.37 -24.39)"/><path class="cls-5" d="M145.56,388.55s.06.2.22.36.32.26.35.22-.06-.19-.22-.35S145.6,388.51,145.56,388.55Z" transform="translate(-2.37 -24.39)"/><path class="cls-5" d="M143.94,387.9c0,.05.21.05.44.13s.39.2.43.17-.09-.25-.37-.35S143.92,387.85,143.94,387.9Z" transform="translate(-2.37 -24.39)"/><path class="cls-5" d="M142.78,387.59c0,.05.07.13.2.18s.25.05.26,0-.07-.12-.19-.17S142.8,387.54,142.78,387.59Z" transform="translate(-2.37 -24.39)"/><polygon class="cls-14" points="139.78 361.8 155.27 361.15 155.27 360.52 139.74 360.52 139.78 361.8"/><path class="cls-9" d="M208.2,387l-.15-5.9-15.77.54.09,9.22,1,.06c4.34.25,22.07,1,25,.09C221.55,390,208.2,387,208.2,387Z" transform="translate(-2.37 -24.39)"/><g class="cls-11"><path class="cls-12" d="M198.07,390.73a5.6,5.6,0,0,0-1.9-3.45,4.59,4.59,0,0,0-3.85-1.07l.06,4.41Z" transform="translate(-2.37 -24.39)"/></g><path class="cls-13" d="M214.72,388.71s4.68,1.35,4.09,2.12-18.53.73-26.44,0l0-.36,20.94.24S213.8,388.74,214.72,388.71Z" transform="translate(-2.37 -24.39)"/><path class="cls-5" d="M192.15,390.48a.86.86,0,0,0,.27,0l.77.05,2.86.13c2.41.1,5.75.18,9.43.19s7-.05,9.43-.12l2.86-.12.78,0,.27,0h-1l-2.86.05c-2.41,0-5.75.08-9.43.07s-7-.07-9.43-.13l-2.86-.07h-1Z" transform="translate(-2.37 -24.39)"/><path class="cls-5" d="M213.32,391a6.31,6.31,0,0,1,.54-1.36,6.72,6.72,0,0,1,1-1.09,2.56,2.56,0,0,0-1.51,2.45Z" transform="translate(-2.37 -24.39)"/><path class="cls-5" d="M208.69,388.61s.27-.25.5-.61.38-.67.33-.7-.26.24-.5.6S208.64,388.58,208.69,388.61Z" transform="translate(-2.37 -24.39)"/><path class="cls-5" d="M207.42,387.93s.28-.13.55-.37.47-.47.43-.51-.28.13-.55.37S207.38,387.89,207.42,387.93Z" transform="translate(-2.37 -24.39)"/><path class="cls-5" d="M206.62,386.44c0,.06.36.1.82.11a1.86,1.86,0,0,0,.82-.08c0-.06-.37-.1-.82-.11A1.86,1.86,0,0,0,206.62,386.44Z" transform="translate(-2.37 -24.39)"/><path class="cls-5" d="M206.34,385.4a1.68,1.68,0,0,0,.92.27,1.57,1.57,0,0,0,.94-.13,5.77,5.77,0,0,0-.93-.06A4.22,4.22,0,0,0,206.34,385.4Z" transform="translate(-2.37 -24.39)"/><path class="cls-5" d="M209.23,387.24a2.79,2.79,0,0,0,1,0,5.68,5.68,0,0,0,1.08-.23,3.1,3.1,0,0,0,.62-.25.55.55,0,0,0,.25-.32.4.4,0,0,0-.15-.4,1.87,1.87,0,0,0-2.3.53,2.17,2.17,0,0,0-.33.68c0,.17,0,.27,0,.27a2.67,2.67,0,0,1,.46-.86,1.8,1.8,0,0,1,.86-.56,1.59,1.59,0,0,1,1.21.09c.16.12.09.3-.09.41a2.78,2.78,0,0,1-.56.24,7,7,0,0,1-1,.27A9.52,9.52,0,0,0,209.23,387.24Z" transform="translate(-2.37 -24.39)"/><path class="cls-5" d="M209.49,387.29a1,1,0,0,0,.11-.7,1.56,1.56,0,0,0-.27-.74,1,1,0,0,0-.84-.52.41.41,0,0,0-.31.47,1.28,1.28,0,0,0,.17.45,3.59,3.59,0,0,0,.47.61,1.48,1.48,0,0,0,.58.41s-.2-.18-.48-.5a4.91,4.91,0,0,1-.42-.61c-.14-.21-.23-.6,0-.64s.51.23.67.43a1.62,1.62,0,0,1,.28.66A4.41,4.41,0,0,1,209.49,387.29Z" transform="translate(-2.37 -24.39)"/><path class="cls-5" d="M192.48,386.18s.45,0,1.16.05a4.93,4.93,0,0,1,4.11,3.29c.23.67.26,1.13.29,1.12a.83.83,0,0,0,0-.31,3.5,3.5,0,0,0-.17-.85,4.77,4.77,0,0,0-4.22-3.39,4.52,4.52,0,0,0-.86,0A1,1,0,0,0,192.48,386.18Z" transform="translate(-2.37 -24.39)"/><path class="cls-5" d="M200.05,389.21a9.23,9.23,0,0,0,2.29.23,8.65,8.65,0,0,0,2.3-.18c0-.05-1,0-2.3,0S200.05,389.15,200.05,389.21Z" transform="translate(-2.37 -24.39)"/><path class="cls-5" d="M197,389.19s.08.22.18.46.17.44.22.44.08-.25,0-.52S197,389.16,197,389.19Z" transform="translate(-2.37 -24.39)"/><path class="cls-5" d="M195.81,387.75s.06.2.22.36.33.27.37.23-.07-.2-.23-.36S195.85,387.71,195.81,387.75Z" transform="translate(-2.37 -24.39)"/><path class="cls-5" d="M194.15,387.08c0,.05.22.05.45.13s.4.21.44.17-.09-.25-.38-.35S194.13,387,194.15,387.08Z" transform="translate(-2.37 -24.39)"/><path class="cls-5" d="M193,386.77c0,.05.07.13.2.18s.25.05.27,0-.07-.13-.2-.18S193,386.72,193,386.77Z" transform="translate(-2.37 -24.39)"/><polygon class="cls-14" points="189.95 360.94 205.81 360.27 205.81 359.63 189.91 359.63 189.95 360.94"/><path class="cls-5" d="M195,261.31l-63-.79,13.16,29.61,36.11.27a4.57,4.57,0,0,1,4.53,4.37l3.88,90.55,24.35-1.85L211.6,279.82A19.12,19.12,0,0,0,195,261.31Z" transform="translate(-2.37 -24.39)"/><path class="cls-5" d="M135.16,292.54l2.67,93.52L168,383.9s-1.67-88.2-3.93-112.41C162.57,254.91,99.33,262,99.33,262c-.92,33,35.83,30.5,35.83,30.5" transform="translate(-2.37 -24.39)"/><path class="cls-6" d="M134.8,285.23a17.68,17.68,0,0,1,.49,4.2,18.06,18.06,0,0,1,0,4.23,17.68,17.68,0,0,1-.49-4.2A18.06,18.06,0,0,1,134.8,285.23Z" transform="translate(-2.37 -24.39)"/><path class="cls-6" d="M133.7,260.69a2.21,2.21,0,0,1,.54,0l1.54,0c1.33,0,3.27.11,5.66.24s5.24.35,8.38.81a24.63,24.63,0,0,1,9.7,3.49,10.61,10.61,0,0,1,2.08,1.81,7,7,0,0,1,1.36,2.33,23.58,23.58,0,0,1,1,4.9,79.18,79.18,0,0,1,.35,8.42c0,2.33,0,4.25,0,5.66,0,.62,0,1.13,0,1.54a3.06,3.06,0,0,1,0,.53,1.65,1.65,0,0,1-.08-.53c0-.35-.07-.87-.11-1.54-.07-1.33-.11-3.27-.16-5.66s-.09-5.24-.45-8.36a23.37,23.37,0,0,0-1-4.8,8,8,0,0,0-3.26-3.89,24.56,24.56,0,0,0-9.49-3.44c-3.12-.49-5.95-.73-8.33-.92l-5.65-.39-1.54-.13A1.74,1.74,0,0,1,133.7,260.69Z" transform="translate(-2.37 -24.39)"/><path class="cls-5" d="M91.56,216.29a2.49,2.49,0,0,0,.48,0l1.38,0,5.06-.19c4.27-.18,10.17-.45,16.69-.79l3.34-.18h.22v-.22c0-5.7-.06-10.75-.08-14.45,0-1.77-.05-3.21-.07-4.28,0-.46,0-.84,0-1.16a1.3,1.3,0,0,0-.05-.4,2.59,2.59,0,0,0,0,.4c0,.32,0,.7,0,1.16,0,1.07,0,2.51-.07,4.28,0,3.7,0,8.75-.08,14.45l.22-.23-3.34.17c-6.51.34-12.41.67-16.68.93l-5,.34-1.38.11A1.8,1.8,0,0,0,91.56,216.29Z" transform="translate(-2.37 -24.39)"/><path class="cls-5" d="M104.35,177.19a16.87,16.87,0,0,1,3.21-.1,11.41,11.41,0,0,1,6.82,3.27,13.51,13.51,0,0,1,3.5,6.77c.39,2,.31,3.21.4,3.21a2.7,2.7,0,0,0,.1-.87,13.47,13.47,0,0,0-3.67-9.44,11.15,11.15,0,0,0-7.12-3.27,9,9,0,0,0-2.4.16A2.52,2.52,0,0,0,104.35,177.19Z" transform="translate(-2.37 -24.39)"/><path class="cls-5" d="M153.82,191.09a13.29,13.29,0,0,0-.17,2.61c0,1.61-.05,3.88,0,6.36s.1,4.48.14,6.22c0,1,0,1.71,0,2.42,0-.8,0-1.62,0-2.74,0-1.75.09-3.88.14-6.23s0-4.52,0-6.09A14.67,14.67,0,0,0,153.82,191.09Z" transform="translate(-2.37 -24.39)"/><path class="cls-7" d="M94.76,216.31l.66,27.17A10.34,10.34,0,0,0,107.94,253L149,241.66l3.09-15.18-38.41,7.37-.49-18.46Z" transform="translate(-2.37 -24.39)"/><path class="cls-8" d="M109.34,240.48a2.49,2.49,0,0,1-.13-1.3,6.29,6.29,0,0,1,3.37-5.11,2.43,2.43,0,0,1,1.25-.39,10,10,0,0,0-3.19,2.78A10.15,10.15,0,0,0,109.34,240.48Z" transform="translate(-2.37 -24.39)"/><path class="cls-2" d="M118,198.07a1.34,1.34,0,0,1,0,.33,6.68,6.68,0,0,1-.24.92,8,8,0,0,1-1.87,3,8.14,8.14,0,0,1-4.59,2.37,13.89,13.89,0,0,1-6.25-.95,23.41,23.41,0,0,0-6-1.53,8.32,8.32,0,0,0-4.79,1.18,8.92,8.92,0,0,0-2.53,2.25c-.48.64-.69,1-.73,1a1.31,1.31,0,0,1,.12-.31,5.38,5.38,0,0,1,.46-.82,8.21,8.21,0,0,1,2.51-2.43,8.49,8.49,0,0,1,5-1.34,23.26,23.26,0,0,1,6.14,1.52,13.81,13.81,0,0,0,6,1,8,8,0,0,0,4.41-2.17,8.49,8.49,0,0,0,1.94-2.78C117.89,198.51,118,198.06,118,198.07Z" transform="translate(-2.37 -24.39)"/><path class="cls-2" d="M115.45,181.25a2.34,2.34,0,0,1-.48.61,11.1,11.1,0,0,1-1.58,1.4,13.57,13.57,0,0,1-13.31,1.64,12.21,12.21,0,0,1-1.87-1c-.42-.28-.63-.46-.61-.48s1,.54,2.6,1.14a14.27,14.27,0,0,0,13-1.6C114.65,182,115.38,181.18,115.45,181.25Z" transform="translate(-2.37 -24.39)"/><path class="cls-2" d="M166.79,191.34a7.79,7.79,0,0,0-1.44-1.41,8,8,0,0,0-5.23-1.32c-2.34.13-4.92,1.36-7.52,3-1.32.83-2.67,1.76-4.17,2.59a15.93,15.93,0,0,1-5,1.9,10,10,0,0,1-5.29-.51,25.33,25.33,0,0,1-4.42-2.21c-2.64-1.63-5.1-3.06-7.42-3.42a7.64,7.64,0,0,0-5.29.92,7.38,7.38,0,0,0-1.51,1.34,2.34,2.34,0,0,1,.28-.45,5.3,5.3,0,0,1,1.12-1.05,7.68,7.68,0,0,1,5.46-1.09c2.41.33,4.94,1.76,7.59,3.37a25.06,25.06,0,0,0,4.34,2.15,9.61,9.61,0,0,0,5.06.47,15.52,15.52,0,0,0,4.81-1.83c1.48-.81,2.83-1.73,4.16-2.55,2.64-1.67,5.3-2.92,7.74-3a8.07,8.07,0,0,1,5.36,1.51,5.29,5.29,0,0,1,1.07,1.1C166.72,191.17,166.81,191.33,166.79,191.34Z" transform="translate(-2.37 -24.39)"/><path class="cls-2" d="M153.82,176.78a6.8,6.8,0,0,1-1.95,1.14,17.5,17.5,0,0,1-10.68,1.16,6.85,6.85,0,0,1-2.14-.69,27.42,27.42,0,0,0,7.52.47A27.42,27.42,0,0,0,153.82,176.78Z" transform="translate(-2.37 -24.39)"/><path class="cls-2" d="M146.21,217.88s-.37-.32-1.11-.76a7.65,7.65,0,0,0-3.47-1,12.46,12.46,0,0,0-5.27,1c-1.91.74-3.89,1.88-6.12,2.78a21.92,21.92,0,0,1-12.08,1.55,14.19,14.19,0,0,1-3.54-1.15c-.4-.19-.69-.38-.89-.49s-.29-.19-.29-.21a20.26,20.26,0,0,0,4.78,1.51,22.51,22.51,0,0,0,11.84-1.65c2.19-.89,4.18-2,6.14-2.75a12.3,12.3,0,0,1,5.45-.95A7.38,7.38,0,0,1,145.2,217a4.61,4.61,0,0,1,.78.65C146.14,217.78,146.22,217.87,146.21,217.88Z" transform="translate(-2.37 -24.39)"/><path class="cls-7" d="M131.34,184.68h0a9.83,9.83,0,0,0,9.83-9.94c0-3.42-.1-6.37-.1-6.37s7.9-.74,8.48-8.55.33-25.87.33-25.87h0a27.24,27.24,0,0,0-27.53,1.75l-1.21.82.37,38.43A9.83,9.83,0,0,0,131.34,184.68Z" transform="translate(-2.37 -24.39)"/><path class="cls-8" d="M141.09,168.25a18.22,18.22,0,0,1-10-3.52s2.07,5.78,9.92,5.55Z" transform="translate(-2.37 -24.39)"/><path class="cls-7" d="M123.16,145.17c-.15-.06-5-.68-4.5,5s6,3.34,6,3.17S123.16,145.17,123.16,145.17Z" transform="translate(-2.37 -24.39)"/><path class="cls-8" d="M122.79,151.48s-.09.08-.25.17a1,1,0,0,1-.74.07,2.45,2.45,0,0,1-1.3-2.1,3.25,3.25,0,0,1,.16-1.44,1.11,1.11,0,0,1,.68-.81.51.51,0,0,1,.61.22c.09.15.06.27.09.28s.11-.11,0-.34a.64.64,0,0,0-.25-.34.75.75,0,0,0-.56-.1,1.38,1.38,0,0,0-1,1,3.4,3.4,0,0,0-.22,1.61,2.58,2.58,0,0,0,1.64,2.34,1.09,1.09,0,0,0,.89-.22C122.8,151.62,122.82,151.49,122.79,151.48Z" transform="translate(-2.37 -24.39)"/><path class="cls-5" d="M149.94,135.3c1.93-.47,2.62-3.37,2.55-5.36a5.52,5.52,0,0,0-3.25-4.64,7.16,7.16,0,0,0-5.79.09,6.26,6.26,0,0,0-12.35.35c-.19-1.51-1.9-2.36-3.42-2.45a5,5,0,0,0-4.12,1.51,3.09,3.09,0,0,0,0,4.13,6.92,6.92,0,0,0-4.85,1.16,5.11,5.11,0,0,0-2.16,4.39,4.08,4.08,0,0,0,3.06,3.65c.57.12.71-.27,1,.23a5,5,0,0,1,.22,1.64,22.39,22.39,0,0,0,.32,5.35,2.18,2.18,0,0,1,2.73,1.22,6.37,6.37,0,0,1,.31,3.28,1.43,1.43,0,0,0,2.22-.19,4.11,4.11,0,0,0,.57-2.5l.12-9a3,3,0,0,0,4.45-2.47,6,6,0,0,0,4.86,1.62,6.08,6.08,0,0,0,4.34-2.74,13.93,13.93,0,0,0,3,2,4.76,4.76,0,0,0,3.47.3c1.13-.39,2.71-.3,2.7-1.49" transform="translate(-2.37 -24.39)"/><path class="cls-5" d="M147.82,146.47a1.09,1.09,0,0,1-1.06,1.1,1.05,1.05,0,0,1-1.13-1,1.09,1.09,0,0,1,1.06-1.1A1,1,0,0,1,147.82,146.47Z" transform="translate(-2.37 -24.39)"/><path class="cls-5" d="M148.06,145.23c-.14.15-1-.47-2.15-.47s-2,.6-2.17.45.08-.32.45-.59a3,3,0,0,1,1.74-.54,2.89,2.89,0,0,1,1.71.55C148,144.91,148.13,145.17,148.06,145.23Z" transform="translate(-2.37 -24.39)"/><path class="cls-5" d="M136.26,146.74a1.09,1.09,0,0,1-1,1.11,1,1,0,0,1-1.13-1,1.1,1.1,0,0,1,1-1.11A1,1,0,0,1,136.26,146.74Z" transform="translate(-2.37 -24.39)"/><path class="cls-5" d="M136.46,145.45c-.14.15-1-.47-2.15-.46s-2,.59-2.17.44.08-.32.45-.59a3,3,0,0,1,1.74-.54,3,3,0,0,1,1.71.55C136.4,145.13,136.53,145.39,136.46,145.45Z" transform="translate(-2.37 -24.39)"/><path class="cls-5" d="M140.74,154.2a8.47,8.47,0,0,1,1.92-.34c.3,0,.59-.09.64-.3a1.58,1.58,0,0,0-.2-.89c-.29-.73-.58-1.49-.9-2.3a40.31,40.31,0,0,1-2-6,37.53,37.53,0,0,1,2.48,5.83c.3.8.59,1.57.86,2.31a1.72,1.72,0,0,1,.15,1.18.73.73,0,0,1-.49.44,2.06,2.06,0,0,1-.51.07A7.2,7.2,0,0,1,140.74,154.2Z" transform="translate(-2.37 -24.39)"/><path class="cls-5" d="M137.27,155c.19,0,.2,1.27,1.29,2.18s2.46.77,2.47,1-.3.25-.88.26a3.17,3.17,0,0,1-2.06-.72,2.74,2.74,0,0,1-1-1.82C137,155.33,137.18,155,137.27,155Z" transform="translate(-2.37 -24.39)"/><path class="cls-5" d="M136.77,140.83c-.12.32-1.3.17-2.68.34s-2.51.54-2.69.25c-.08-.14.11-.44.56-.75a4.59,4.59,0,0,1,2-.7,4.53,4.53,0,0,1,2.09.25C136.56,140.43,136.82,140.68,136.77,140.83Z" transform="translate(-2.37 -24.39)"/><path class="cls-5" d="M147.63,141.82c-.21.27-1,0-2,0s-1.81.18-2-.11c-.08-.13.05-.4.41-.65a2.89,2.89,0,0,1,3.22.1C147.6,141.41,147.72,141.69,147.63,141.82Z" transform="translate(-2.37 -24.39)"/><path class="cls-6" d="M116.07,133.65a2,2,0,0,0,.37.84,3.94,3.94,0,0,0,2.29,1.23,9,9,0,0,0,4.17.17,4.9,4.9,0,0,0,2.25-1.22,2.58,2.58,0,0,0,.85-2.53,1.22,1.22,0,0,0-1-.81.84.84,0,0,0-1,.79,2.86,2.86,0,0,0,1.85,2.54,4.42,4.42,0,0,0,3.55,0,7.37,7.37,0,0,0,3-2.44,3.46,3.46,0,0,0,.71-1.81,1.37,1.37,0,0,0-1-1.4,1.78,1.78,0,0,0-1.78.46,2.29,2.29,0,0,0-.5,1.9,3.82,3.82,0,0,0,3,2.79,6.27,6.27,0,0,0,4.43-.49,5.92,5.92,0,0,0,3-3.27,2.24,2.24,0,0,0-.16-2,1.26,1.26,0,0,0-1.68-.49,1.75,1.75,0,0,0-.84,1.67,3.35,3.35,0,0,0,.84,1.84,5.84,5.84,0,0,0,3.48,2c2.63.44,5.41-1.15,6.07-3.41a2.16,2.16,0,0,0-1.28-2.68,1.84,1.84,0,0,0-2.21,1.49,3.32,3.32,0,0,0,.66,2.68,4.22,4.22,0,0,0,2.09,1.45,3.8,3.8,0,0,0,2.21,0,4,4,0,0,0,1.63-.94,4.34,4.34,0,0,0,1.26-2.29,8.8,8.8,0,0,0,.1-.93,2.88,2.88,0,0,1,0,1,4.31,4.31,0,0,1-1.23,2.4,4.11,4.11,0,0,1-1.7,1,4,4,0,0,1-2.35,0,4.58,4.58,0,0,1-2.25-1.52,3.59,3.59,0,0,1-.75-2.94,2.39,2.39,0,0,1,.9-1.43,2,2,0,0,1,1.75-.35,2.56,2.56,0,0,1,1.56,3.14,5.14,5.14,0,0,1-2.48,3,6.15,6.15,0,0,1-7.81-1.37,3.8,3.8,0,0,1-.95-2.1,2.2,2.2,0,0,1,1.07-2.12,1.59,1.59,0,0,1,1.28-.15,2,2,0,0,1,1,.78,2.69,2.69,0,0,1,.22,2.43,6.36,6.36,0,0,1-3.23,3.55,6.79,6.79,0,0,1-4.78.53,5.51,5.51,0,0,1-2.13-1.11,3.5,3.5,0,0,1-1.21-2.07,2.76,2.76,0,0,1,.63-2.29,2.21,2.21,0,0,1,2.25-.59,1.75,1.75,0,0,1,1,.7,2,2,0,0,1,.33,1.15,3.83,3.83,0,0,1-.8,2.05,7.73,7.73,0,0,1-3.22,2.58,4.82,4.82,0,0,1-3.87-.06,4.08,4.08,0,0,1-1.48-1.18,2.59,2.59,0,0,1-.57-1.76,1.32,1.32,0,0,1,.45-.86A1.27,1.27,0,0,1,125,131a1.59,1.59,0,0,1,1.34,1.06,2.9,2.9,0,0,1-.95,2.86,5.13,5.13,0,0,1-2.4,1.26,9.06,9.06,0,0,1-4.28-.25,4,4,0,0,1-2.33-1.35,1.71,1.71,0,0,1-.28-.66A.62.62,0,0,1,116.07,133.65Z" transform="translate(-2.37 -24.39)"/><polygon class="cls-4" points="125.58 217.27 197.22 217.27 209.03 171.51 149.25 171.51 139.79 214.29 125.58 214.62 125.58 217.27"/><rect class="cls-6" x="486.31" y="296.79" width="6.76" height="80.94" transform="translate(977.02 650.14) rotate(180)"/><path class="cls-5" d="M441.89,300.46h96.62A10.49,10.49,0,0,0,528,290H452.38a10.49,10.49,0,0,0-10.49,10.49Z" transform="translate(-2.37 -24.39)"/><path class="cls-5" d="M483.13,300.67a73.26,73.26,0,0,0,11.85,0,70.34,70.34,0,0,0-11.85,0Z" transform="translate(-2.37 -24.39)"/><path class="cls-6" d="M460.14,385.07h1a28.75,28.75,0,1,1,57.49,0h.95a29.7,29.7,0,0,0-59.4,0Z" transform="translate(-2.37 -24.39)"/><path class="cls-5" d="M514.61,386.54a4.46,4.46,0,1,0,4.46-4.45A4.46,4.46,0,0,0,514.61,386.54Z" transform="translate(-2.37 -24.39)"/><path class="cls-6" d="M455.94,385.93a4.46,4.46,0,1,0,4.46-4.45A4.46,4.46,0,0,0,455.94,385.93Z" transform="translate(-2.37 -24.39)"/><path class="cls-6" d="M460.43,377.74c0,.13,12.92.24,28.86.24s28.87-.11,28.87-.24-12.92-.25-28.87-.25S460.43,377.6,460.43,377.74Z" transform="translate(-2.37 -24.39)"/><path class="cls-5" d="M541.35,216.66v59.59A14.15,14.15,0,0,1,527.2,290.4H481.29l6.24-73.74a6.3,6.3,0,0,1,6.3-6.3h41.22A6.3,6.3,0,0,1,541.35,216.66Z" transform="translate(-2.37 -24.39)"/><path class="cls-6" d="M525.12,290a.83.83,0,0,1,.11-.17l.33-.49c.31-.42.74-1.06,1.27-1.89a31.51,31.51,0,0,0,4.56-13.23,58.91,58.91,0,0,0,.18-6.62c0-4.68,0-9.82,0-15.23,0-10.78.05-20.55.07-27.67,0-3.5.06-6.36.07-8.38l0-2.28a4.9,4.9,0,0,1,0-.8,7,7,0,0,1,.05.8l0,2.28c0,2,0,4.88.08,8.38,0,7.12,0,16.89.07,27.67,0,5.41,0,10.55,0,15.23a55.31,55.31,0,0,1-.23,6.67,30.67,30.67,0,0,1-4.8,13.28c-.55.82-1,1.44-1.34,1.85A3.34,3.34,0,0,1,525.12,290Z" transform="translate(-2.37 -24.39)"/><path class="cls-6" d="M500.12,290a8.94,8.94,0,0,1,1.46-.08l4-.05c3.36,0,8,0,13.13,0,2.56,0,5,0,7.22.09a23.47,23.47,0,0,1,5.9.64,9.14,9.14,0,0,1,3.54,1.86,5.45,5.45,0,0,1,.77.77c.17.19.24.29.23.3s-.37-.37-1.12-.93a9.55,9.55,0,0,0-3.51-1.67,24.51,24.51,0,0,0-5.82-.53l-7.22-.05c-5.13,0-9.76-.09-13.12-.16l-4-.1A7.81,7.81,0,0,1,500.12,290Z" transform="translate(-2.37 -24.39)"/><path class="cls-15" d="M522.63,230.48c-1.08-8.93-2.52-16.54-2.52-16.54H500.76s2.4,11.33,1.86,14c-.47,2.28-38,3.8-47.74,3.95-.58-.44-1.43.3-2.18-.36a7.34,7.34,0,0,1-1.66-2.05,11.84,11.84,0,0,1-1.34-3,1,1,0,0,0-1.86-.43c-.39.84.05,3.62,1.91,6.32s-3,1.29-4.79.81-7.37-1.69-7.95-1.24c-.84.65-.31,1.71,1.48,2.14s7.07,2.12,6.78,3.08-9.32-1.62-9.32-1.62-1.85-.87-2.22.22c-.67,2,9.14,4,10.08,4.13.65.11.37,1.16-.32,1s-9-2.77-9.66-.77c-.54,1.53,8.05,1.71,9.47,3.23s-6.5-.82-6.95.66c-.17.56,3.12.81,7.86,1.48a121,121,0,0,0,14.64.52c11,.6,49.82,1.4,58.11.82C526.63,246.09,523,233.55,522.63,230.48Z" transform="translate(-2.37 -24.39)"/><path class="cls-16" d="M407.21,184.16s-5.33-5.43-6.37-5.65-11-5.22-11-5.22a1.71,1.71,0,0,0,.29,2.54c1.48,1.17,5,3.29,5,3.29l-2.47,4.82s2.37,7.9,2.8,7.74.83-1.55.83-1.55l-.74-2.49,4.84,4,2.1-.24Z" transform="translate(-2.37 -24.39)"/><path class="cls-17" d="M403.1,181.56a23.83,23.83,0,0,1-3.36-1.64l0,0-2.64-.71.3-.2a3.31,3.31,0,0,0,.7,2.21,8.41,8.41,0,0,0,2.69,2.24l.17.1-.06.17a5.87,5.87,0,0,0-.11,3.69c.25.89.54,1.37.5,1.39a2.85,2.85,0,0,1-.76-1.31,5.84,5.84,0,0,1-.05-3.92l.11.27a8.37,8.37,0,0,1-2.88-2.34A3.79,3.79,0,0,1,397,179l0-.27.26.08,2.61.77h0A24.12,24.12,0,0,1,403.1,181.56Z" transform="translate(-2.37 -24.39)"/><path class="cls-16" d="M394.18,184.07a28.16,28.16,0,0,0,2.07,6.06,4.64,4.64,0,0,0,.94-1.93" transform="translate(-2.37 -24.39)"/><path class="cls-17" d="M397.19,188.2a3,3,0,0,1-.78,2.06l-.19.26-.16-.3c-.28-.56-.59-1.22-.87-1.95a11.44,11.44,0,0,1-1-4.2c.13,0,.61,1.83,1.46,4,.27.72.55,1.39.8,1.95l-.35,0A12.3,12.3,0,0,0,397.19,188.2Z" transform="translate(-2.37 -24.39)"/><path class="cls-17" d="M397.3,180.44a7.77,7.77,0,0,1,1,2.05,10.65,10.65,0,0,1,.57,2.42,6.24,6.24,0,0,1-.43,3,4.66,4.66,0,0,1-.7,1.13l-.24.28-.15-.33a23.67,23.67,0,0,1-1.55-4.33,6.52,6.52,0,0,1-.31-1.83c.13,0,.72,2.69,2.29,5.95l-.4,0a4.47,4.47,0,0,0,.62-1,7.7,7.7,0,0,0,0-5.15A14.87,14.87,0,0,1,397.3,180.44Z" transform="translate(-2.37 -24.39)"/><polygon class="cls-16" points="404.84 159.77 442.7 185.4 431.65 199.21 400.08 167.04 404.84 159.77"/><path class="cls-9" d="M447.42,386.21l-.19-9.3,17.43-.47.42,13.61-1.08.1c-4.8.39-24.44,1.68-27.69.79C432.7,390,447.42,386.21,447.42,386.21Z" transform="translate(-2.37 -24.39)"/><g class="cls-11"><path class="cls-12" d="M458.76,390.08a6,6,0,0,1,2.12-3.77,5.85,5.85,0,0,1,4-1.38l.14,4.87Z" transform="translate(-2.37 -24.39)"/></g><g class="cls-18"><path class="cls-12" d="M440.23,388.29s-5.15,1.64-4.48,2.48,20.57.29,29.33-.72l0-.39-23.2.84S441.25,388.31,440.23,388.29Z" transform="translate(-2.37 -24.39)"/></g><path class="cls-5" d="M465.31,389.64l-.29,0-.86.08L461,390c-2.67.17-6.37.36-10.45.47s-7.79.14-10.47.12l-3.17,0-.86,0-.3,0,.3,0h.86l3.17,0c2.68,0,6.38-.06,10.46-.18s7.78-.28,10.45-.41l3.17-.15.86,0Z" transform="translate(-2.37 -24.39)"/><path class="cls-5" d="M441.85,390.77a7.69,7.69,0,0,0-.64-1.5,6.41,6.41,0,0,0-1.11-1.18,2.32,2.32,0,0,1,1.29,1.07A2.38,2.38,0,0,1,441.85,390.77Z" transform="translate(-2.37 -24.39)"/><path class="cls-5" d="M446.92,388c-.05,0-.3-.26-.57-.66s-.44-.74-.39-.77.3.26.57.66S447,388,446.92,388Z" transform="translate(-2.37 -24.39)"/><path class="cls-5" d="M448.31,387.23s-.32-.13-.63-.39-.52-.51-.49-.55.32.13.63.39S448.35,387.19,448.31,387.23Z" transform="translate(-2.37 -24.39)"/><path class="cls-5" d="M449.16,385.56a2.09,2.09,0,0,1-.91.14,2,2,0,0,1-.91-.07,2.16,2.16,0,0,1,.9-.14A2.08,2.08,0,0,1,449.16,385.56Z" transform="translate(-2.37 -24.39)"/><path class="cls-5" d="M449.43,384.39a1.7,1.7,0,0,1-1,.33,1.83,1.83,0,0,1-1.05-.11,5.67,5.67,0,0,1,1-.1A6.47,6.47,0,0,1,449.43,384.39Z" transform="translate(-2.37 -24.39)"/><path class="cls-5" d="M446.29,386.51a3.12,3.12,0,0,1-1.13,0,8.19,8.19,0,0,1-1.19-.23,3,3,0,0,1-.7-.27.61.61,0,0,1-.28-.34.44.44,0,0,1,.16-.45,2.05,2.05,0,0,1,2.55.53,2,2,0,0,1,.39.74.69.69,0,0,1,0,.3,3.25,3.25,0,0,0-.54-.94,2,2,0,0,0-1-.6,1.79,1.79,0,0,0-1.34.13c-.17.14-.1.35.1.46a3.54,3.54,0,0,0,.64.25,8.52,8.52,0,0,0,1.16.27C445.86,386.49,446.28,386.48,446.29,386.51Z" transform="translate(-2.37 -24.39)"/><path class="cls-5" d="M446,386.58a1.09,1.09,0,0,1-.15-.78,1.78,1.78,0,0,1,.28-.82,1.1,1.1,0,0,1,.92-.6.46.46,0,0,1,.36.51,1.29,1.29,0,0,1-.18.5,3.09,3.09,0,0,1-.51.69,1.63,1.63,0,0,1-.63.48s.22-.21.52-.57a4.34,4.34,0,0,0,.45-.69c.14-.24.24-.67,0-.71s-.56.27-.73.49a2,2,0,0,0-.3.74A3.38,3.38,0,0,0,446,386.58Z" transform="translate(-2.37 -24.39)"/><path class="cls-5" d="M464.83,384.88s-.5,0-1.29.08a5.45,5.45,0,0,0-4.46,3.77c-.25.75-.26,1.26-.3,1.25a1.18,1.18,0,0,1,0-.35,4.82,4.82,0,0,1,.16-.94,5.43,5.43,0,0,1,1.7-2.65,5.36,5.36,0,0,1,2.89-1.22,5.19,5.19,0,0,1,1,0A1.29,1.29,0,0,1,464.83,384.88Z" transform="translate(-2.37 -24.39)"/><path class="cls-5" d="M462.82,377.68a61.23,61.23,0,0,1,.29,7.16,61.23,61.23,0,0,1-.29-7.16Z" transform="translate(-2.37 -24.39)"/><path class="cls-5" d="M456.52,388.44a9.47,9.47,0,0,1-2.54.33,9.75,9.75,0,0,1-2.56-.14c0-.06,1.15,0,2.55-.07S456.51,388.38,456.52,388.44Z" transform="translate(-2.37 -24.39)"/><path class="cls-5" d="M459.93,388.34c.05.05-.08.25-.19.51s-.17.5-.23.5-.1-.27,0-.58S459.89,388.3,459.93,388.34Z" transform="translate(-2.37 -24.39)"/><path class="cls-5" d="M461.18,386.71s-.07.22-.24.41-.36.31-.4.27.07-.23.24-.42S461.13,386.67,461.18,386.71Z" transform="translate(-2.37 -24.39)"/><path class="cls-5" d="M463,385.92c0,.06-.24.07-.5.17s-.43.23-.48.2.09-.29.41-.4S463,385.87,463,385.92Z" transform="translate(-2.37 -24.39)"/><path class="cls-5" d="M464.3,385.54c0,.06-.08.15-.22.21s-.28.06-.3,0,.08-.15.22-.21S464.28,385.49,464.3,385.54Z" transform="translate(-2.37 -24.39)"/><path class="cls-9" d="M405.32,336.42l4.05-8.38,15.75,7.47-5.78,12.33-1-.4c-4.46-1.82-22.56-9.57-25-11.83C390.51,333.09,405.32,336.42,405.32,336.42Z" transform="translate(-2.37 -24.39)"/><g class="cls-11"><path class="cls-12" d="M413.69,345a6,6,0,0,1,3.6-2.41,5.85,5.85,0,0,1,4.22.6l-2.08,4.4Z" transform="translate(-2.37 -24.39)"/></g><g class="cls-18"><path class="cls-12" d="M398,335s-5.34-.87-5.12.18,18.21,9.57,26.48,12.63l.14-.37-21.07-9.75S398.87,335.5,398,335Z" transform="translate(-2.37 -24.39)"/></g><path class="cls-5" d="M419.73,347.58l-.28-.1-.8-.32-2.92-1.23c-2.47-1.06-5.85-2.57-9.54-4.31s-7-3.4-9.39-4.63L394,335.52l-.75-.42-.26-.16.28.12.77.38,2.84,1.42c2.4,1.19,5.72,2.82,9.41,4.57s7.06,3.27,9.51,4.36l2.89,1.29.78.36A1.4,1.4,0,0,1,419.73,347.58Z" transform="translate(-2.37 -24.39)"/><path class="cls-5" d="M398.3,338a8.33,8.33,0,0,0,.11-1.62,6.64,6.64,0,0,0-.46-1.56,2.32,2.32,0,0,1,.67,1.53A2.4,2.4,0,0,1,398.3,338Z" transform="translate(-2.37 -24.39)"/><path class="cls-5" d="M404.06,337.81a2,2,0,0,1-.21-.84,1.8,1.8,0,0,1,0-.87c.06,0,.15.37.21.84A1.8,1.8,0,0,1,404.06,337.81Z" transform="translate(-2.37 -24.39)"/><path class="cls-5" d="M405.66,337.74c-.06,0-.23-.26-.38-.64s-.24-.69-.19-.71.23.26.38.63S405.71,337.71,405.66,337.74Z" transform="translate(-2.37 -24.39)"/><path class="cls-5" d="M407.17,336.63a2,2,0,0,1-.87-.28,2.16,2.16,0,0,1-.79-.48,2.07,2.07,0,0,1,.88.28A2.17,2.17,0,0,1,407.17,336.63Z" transform="translate(-2.37 -24.39)"/><path class="cls-5" d="M407.94,335.71a1.71,1.71,0,0,1-1-.16A1.86,1.86,0,0,1,406,335a5.41,5.41,0,0,1,1,.38A5.3,5.3,0,0,1,407.94,335.71Z" transform="translate(-2.37 -24.39)"/><path class="cls-5" d="M404.18,336.18a3.41,3.41,0,0,1-1-.49,6.77,6.77,0,0,1-1-.74,3.82,3.82,0,0,1-.49-.55.56.56,0,0,1-.1-.43.44.44,0,0,1,.34-.34,2.05,2.05,0,0,1,2,1.63,2,2,0,0,1,0,.84c0,.19-.09.29-.1.28a3,3,0,0,0-.06-1.08,2,2,0,0,0-.59-1,1.72,1.72,0,0,0-1.25-.49c-.22,0-.24.26-.12.45a2.79,2.79,0,0,0,.46.51,8,8,0,0,0,.91.77C403.81,336,404.19,336.15,404.18,336.18Z" transform="translate(-2.37 -24.39)"/><path class="cls-5" d="M403.89,336.11a1.14,1.14,0,0,1,.22-.76,1.85,1.85,0,0,1,.63-.61,1.12,1.12,0,0,1,1.08-.12.45.45,0,0,1,.09.62,1.33,1.33,0,0,1-.38.37,3.41,3.41,0,0,1-.77.38,1.73,1.73,0,0,1-.77.14s.28-.09.71-.28a3.53,3.53,0,0,0,.72-.4c.24-.15.51-.49.28-.66a1,1,0,0,0-.87.12,1.94,1.94,0,0,0-.6.52A4.37,4.37,0,0,0,403.89,336.11Z" transform="translate(-2.37 -24.39)"/><path class="cls-5" d="M421.45,343.12s-.43-.26-1.18-.51a5.64,5.64,0,0,0-3-.16,5.72,5.72,0,0,0-2.65,1.49c-.56.56-.79,1-.83,1a1,1,0,0,1,.15-.32,4.51,4.51,0,0,1,.58-.77,5.29,5.29,0,0,1,2.7-1.59,5.37,5.37,0,0,1,3.14.22,4,4,0,0,1,.86.43C421.36,343,421.46,343.11,421.45,343.12Z" transform="translate(-2.37 -24.39)"/><path class="cls-5" d="M422.92,335.78a28.33,28.33,0,0,1-1.39,3.31,32.59,32.59,0,0,1-1.59,3.21,30.89,30.89,0,0,1,1.4-3.3A32.24,32.24,0,0,1,422.92,335.78Z" transform="translate(-2.37 -24.39)"/><path class="cls-5" d="M412.43,342.53a9.8,9.8,0,0,1-2.41-.86,9.52,9.52,0,0,1-2.22-1.28c0-.05,1,.5,2.31,1.09S412.45,342.47,412.43,342.53Z" transform="translate(-2.37 -24.39)"/><path class="cls-5" d="M415.52,344c0,.05-.19.18-.4.36s-.38.37-.43.34,0-.29.29-.5S415.5,343.93,415.52,344Z" transform="translate(-2.37 -24.39)"/><path class="cls-5" d="M417.37,343.09c0,.05-.16.17-.4.26s-.45.11-.47.06.16-.17.4-.26S417.35,343,417.37,343.09Z" transform="translate(-2.37 -24.39)"/><path class="cls-5" d="M419.35,343.22s-.25-.06-.52-.08-.49,0-.52,0,.21-.21.55-.17S419.39,343.18,419.35,343.22Z" transform="translate(-2.37 -24.39)"/><path class="cls-5" d="M420.68,343.47s-.13.09-.29.08-.27-.07-.27-.13.14-.09.29-.08S420.69,343.41,420.68,343.47Z" transform="translate(-2.37 -24.39)"/><path class="cls-5" d="M520.54,213.64a95.5,95.5,0,0,1-10.1.3,95,95,0,0,1-10.1-.23,93.77,93.77,0,0,1,10.1-.31A96.47,96.47,0,0,1,520.54,213.64Z" transform="translate(-2.37 -24.39)"/><path class="cls-9" d="M520.27,214.61,516.56,196c-2.73-15.21-24.06-16.26-24.06-16.26l-16.74-.27s-12.41-1.67-20.07,7C447.77,195.39,438,206,438,206l7.44,18.71,17.61-14.53a18,18,0,0,0-2.36,8.45c0,5,5.17,7.24,5.17,7.24l1.58,15.09-5.25,24.35,54.66-2.19a54.45,54.45,0,0,0-8.06-23l1-25.49Z" transform="translate(-2.37 -24.39)"/><path class="cls-5" d="M461.13,215.14a14,14,0,0,1,.65-2.51c.23-.77.51-1.68.86-2.69.18-.5.37-1,.6-1.56.12-.29.27-.54.35-.78a2.31,2.31,0,0,0,.1-.8,12.77,12.77,0,0,0-.26-1.72c-.11-.56-.21-1.1-.31-1.63-.17-1-.33-1.92-.48-2.77a12.67,12.67,0,0,1-.31-2.58,12.55,12.55,0,0,1,.69,2.5c.18.85.38,1.77.59,2.75.11.53.22,1.07.34,1.63a11.91,11.91,0,0,1,.28,1.8,3.37,3.37,0,0,1-.13,1c-.11.32-.28.58-.38.81-.22.53-.42,1-.61,1.53l-1,2.64A11.56,11.56,0,0,1,461.13,215.14Z" transform="translate(-2.37 -24.39)"/><g class="cls-10"><path d="M497.44,198.81c.68,10.37,1.08,19.92,1.28,30.31a7.76,7.76,0,0,0,3.9-1.22C503.16,223.47,499.8,210,497.44,198.81Z" transform="translate(-2.37 -24.39)"/></g><path class="cls-6" d="M517,260.63s-71.48-15-78.4-11.7-38.83,82.16-38.83,82.16l25.69,11.06,27.66-67s50,18.28,58.78,16.46S517,260.63,517,260.63Z" transform="translate(-2.37 -24.39)"/><path class="cls-6" d="M485.09,264.83c-1.09.37-42.43,17.36-45.35,22.83S444,383.84,444,383.84H467.5l-1.45-80.63,45.89-11.63Z" transform="translate(-2.37 -24.39)"/><path class="cls-5" d="M512.18,291.77a5.54,5.54,0,0,1-.68-.09l-1.92-.34c-1.67-.31-4.08-.78-7-1.41-5.94-1.25-14.11-3.15-23-5.7-4.45-1.29-8.66-2.63-12.45-3.94s-7.18-2.6-10-3.8c-1.4-.57-2.66-1.13-3.75-1.63s-2.05-.93-2.8-1.31l-1.75-.88a4.44,4.44,0,0,1-.59-.34,2.55,2.55,0,0,1,.64.24l1.79.79c.76.35,1.71.76,2.83,1.22s2.36,1,3.78,1.56c2.8,1.15,6.2,2.37,10,3.68s8,2.6,12.44,3.89c8.88,2.55,17,4.5,22.94,5.85l7,1.58,1.91.44A2.5,2.5,0,0,1,512.18,291.77Z" transform="translate(-2.37 -24.39)"/><path class="cls-5" d="M439.75,308.5a6.85,6.85,0,0,1-.22-1.36q-.15-1.49-.39-3.72c-.15-1.61-.32-3.48-.51-5.53a24.81,24.81,0,0,1,0-6.84,10.65,10.65,0,0,1,3.43-5.91,17.94,17.94,0,0,1,4.7-3,36.7,36.7,0,0,1,3.49-1.38,6,6,0,0,1,1.33-.38c0,.09-1.82.74-4.65,2.1a18.2,18.2,0,0,0-4.53,3.05,10.26,10.26,0,0,0-3.24,5.65,25.86,25.86,0,0,0,0,6.69c.15,2.06.28,3.92.4,5.54s.16,2.74.22,3.73A6.71,6.71,0,0,1,439.75,308.5Z" transform="translate(-2.37 -24.39)"/><path class="cls-5" d="M460.38,300.7a8.94,8.94,0,0,1,2.89,1,9.1,9.1,0,0,1,2.68,1.47,17.24,17.24,0,0,1-5.57-2.45Z" transform="translate(-2.37 -24.39)"/><path class="cls-5" d="M462.45,298.22a31.33,31.33,0,0,1,1.88,2.66c1.06,1.42,2.14,2.4,2,2.52a6,6,0,0,1-2.47-2.2A6.1,6.1,0,0,1,462.45,298.22Z" transform="translate(-2.37 -24.39)"/><path class="cls-5" d="M471.48,301.94s-.07.2-.36.37a2.79,2.79,0,0,1-1.36.33,16.54,16.54,0,0,0-2,.05,1.37,1.37,0,0,0-1.17,1.49,37.88,37.88,0,0,1-.29,6.28,37,37,0,0,1-.25-6.31,2.22,2.22,0,0,1,.45-1.33,1.79,1.79,0,0,1,1.18-.62,10.81,10.81,0,0,1,2,.06A3.24,3.24,0,0,0,471.48,301.94Z" transform="translate(-2.37 -24.39)"/><polygon class="cls-19" points="463.48 224.07 512.2 227.99 510.12 222.54 463.95 221.87 463.48 224.07"/><path class="cls-5" d="M467.1,135.93c-3.57,1.15-7.73,3.53-5.67,14.71.91,4.92,2.06,9.93,5.36,13.69a2.34,2.34,0,0,0,1.91,1.06,2.47,2.47,0,0,0,1.32-.9c3.75-4.08,6.94-8.91,8-14.36s-.5-11.6-4.8-15.11" transform="translate(-2.37 -24.39)"/><path class="cls-16" d="M474,184.49c-.12-5.14-.34-10.66-.34-10.66s-7.82-1-8.16-9-.42-22-.42-22l15.28-11.33,10.74,14.77.26,37.92a8.67,8.67,0,0,1-8.68,8.74h0A8.68,8.68,0,0,1,474,184.49Z" transform="translate(-2.37 -24.39)"/><path class="cls-17" d="M473.61,173.83a19.05,19.05,0,0,0,10.37-3.4s-2.44,5.82-10.23,5.36Z" transform="translate(-2.37 -24.39)"/><path class="cls-17" d="M474.32,164.52a1,1,0,0,1,.09-.94,1,1,0,0,1,.86-.39,1.48,1.48,0,0,1,1.5-1.3,1.65,1.65,0,0,1,1.51,1.36,1.93,1.93,0,0,1-.85,1.89,2.28,2.28,0,0,1-2.11.15,1.66,1.66,0,0,1-1.06-1.25" transform="translate(-2.37 -24.39)"/><path class="cls-5" d="M466.93,152.89A1.09,1.09,0,0,0,468,154a1,1,0,0,0,1.13-1,1.1,1.1,0,0,0-1.06-1.11A1.05,1.05,0,0,0,466.93,152.89Z" transform="translate(-2.37 -24.39)"/><path class="cls-5" d="M466.69,151.65c.14.15,1-.47,2.15-.46s2,.59,2.17.44-.07-.32-.45-.59a3,3,0,0,0-1.74-.54,3,3,0,0,0-1.71.55C466.75,151.33,466.63,151.59,466.69,151.65Z" transform="translate(-2.37 -24.39)"/><path class="cls-5" d="M478.49,153.16a1.1,1.1,0,0,0,1.06,1.11,1.05,1.05,0,0,0,1.13-1,1.09,1.09,0,0,0-1.06-1.1A1,1,0,0,0,478.49,153.16Z" transform="translate(-2.37 -24.39)"/><path class="cls-5" d="M478.29,151.87c.14.15,1-.47,2.15-.46s2,.59,2.17.44-.07-.32-.45-.59a3.07,3.07,0,0,0-1.74-.54,3,3,0,0,0-1.71.55C478.35,151.55,478.23,151.81,478.29,151.87Z" transform="translate(-2.37 -24.39)"/><path class="cls-5" d="M474,160.63a7.38,7.38,0,0,0-1.92-.35c-.3,0-.58-.09-.63-.3a1.44,1.44,0,0,1,.2-.89l.89-2.29a39.25,39.25,0,0,0,2-6,40.58,40.58,0,0,0-2.48,5.83l-.85,2.31a1.72,1.72,0,0,0-.16,1.18.73.73,0,0,0,.5.44,2,2,0,0,0,.51.07A8,8,0,0,0,474,160.63Z" transform="translate(-2.37 -24.39)"/><path class="cls-5" d="M477.48,161.44c-.19,0-.19,1.27-1.29,2.18s-2.46.77-2.47.95.31.25.88.26a3.15,3.15,0,0,0,2.06-.72,2.74,2.74,0,0,0,1-1.82C477.71,161.75,477.57,161.43,477.48,161.44Z" transform="translate(-2.37 -24.39)"/><path class="cls-5" d="M477.76,149.24c.12.32,1.3.17,2.68.34s2.5.54,2.69.25-.11-.44-.57-.75a4.74,4.74,0,0,0-4.08-.45C478,148.84,477.71,149.09,477.76,149.24Z" transform="translate(-2.37 -24.39)"/><path class="cls-5" d="M467.13,148.24c.2.27,1,0,2,0s1.8.18,2-.1-.05-.41-.41-.66a2.89,2.89,0,0,0-3.22.1C467.15,147.83,467,148.11,467.13,148.24Z" transform="translate(-2.37 -24.39)"/><path class="cls-5" d="M484,148.59a6.12,6.12,0,0,0,3.89-1.38c.71,1.88.7,4,1.34,5.88s2.17,9.77,4.16,9.47c1.83-.28,3.13-8.21,3.6-10a16.33,16.33,0,0,0-3.62-14.3c-3.9-4.65-10.4-8.6-16.44-8.18a13.64,13.64,0,0,0-7.5,2.64s-3.26,2.52-3,5.73c.38,4.47,6.9,7.35,11.39,7.22l.64.62A7.71,7.71,0,0,0,484,148.59Z" transform="translate(-2.37 -24.39)"/><path class="cls-5" d="M465,147.13a6.64,6.64,0,0,0,2.22-3.58,19.53,19.53,0,0,0,.52-4.25c0-.42,0-1-.44-1.06s-.71.29-.89.65a13.81,13.81,0,0,0-1.42,8.65c.09-.08-.26.23-.18.15" transform="translate(-2.37 -24.39)"/><path class="cls-5" d="M493.91,180.29a9.44,9.44,0,0,0,3.12-8.16c-.28-2.3-1.42-4.48-1.31-6.8.09-1.82.94-3.5,1.53-5.23a18.09,18.09,0,0,0,.7-8.82,9.25,9.25,0,0,0-3.26-6.07c-1.91-1.38-4.94-1.34-6.36.54l-.68.22a19.17,19.17,0,0,0,2.44,20.42,10.44,10.44,0,0,0,.17,14,11.48,11.48,0,0,0-1.44,11.48c0,.05.05.09.07.14a10.1,10.1,0,0,0-.35,13.49,10.08,10.08,0,0,0-3.4,5.85A5.43,5.43,0,0,0,488,217a6.48,6.48,0,0,0,1.74,10.91,19.73,19.73,0,0,1,3.29-2.69,3.38,3.38,0,0,1-1.51-1.46,4.25,4.25,0,0,0,2.56.8l-1.11-5a6.7,6.7,0,0,0-1-2.59l-.13-.15a6,6,0,0,0,2.87-3.11c1-2.58.31-5.54-1-8,1.41-2.89,2.74-5.93,2.77-9.15a9.7,9.7,0,0,0-.93-4.23,12.14,12.14,0,0,0,2-6.45A6.18,6.18,0,0,0,493.91,180.29Z" transform="translate(-2.37 -24.39)"/><path class="cls-6" d="M492.89,205.49a2.64,2.64,0,0,1-2.14.8,2.68,2.68,0,0,1-2.17-.74c.07-.12,1,.29,2.16.26S492.83,205.37,492.89,205.49Z" transform="translate(-2.37 -24.39)"/><path class="cls-6" d="M495,194.05a18.51,18.51,0,0,0-4.59,4,19,19,0,0,0-2.66,5.44,4.66,4.66,0,0,1,.28-1.8,12,12,0,0,1,2-3.94,12.22,12.22,0,0,1,3.29-2.94A4.62,4.62,0,0,1,495,194.05Z" transform="translate(-2.37 -24.39)"/><path class="cls-6" d="M494.05,192.48a3.4,3.4,0,0,1-4.22,0c.07-.13.95.27,2.11.25S494,192.35,494.05,192.48Z" transform="translate(-2.37 -24.39)"/><path class="cls-6" d="M495.49,190.92a15.58,15.58,0,0,0-1.27-4.94,15.94,15.94,0,0,0-3.17-4,3.61,3.61,0,0,1,1.31.83,9.64,9.64,0,0,1,2.29,3,9.48,9.48,0,0,1,1,3.62A3.53,3.53,0,0,1,495.49,190.92Z" transform="translate(-2.37 -24.39)"/><path class="cls-6" d="M494.29,179c.11.07-.38.84-1.38,1.22s-1.88.17-1.84,0,.8-.14,1.67-.49S494.19,178.9,494.29,179Z" transform="translate(-2.37 -24.39)"/><path class="cls-6" d="M491.43,179.53a3.42,3.42,0,0,1-1-1.7,7.28,7.28,0,0,1,.21-4.77,12.81,12.81,0,0,1,2.61-4,6.49,6.49,0,0,1,1.45-1.33,10,10,0,0,1-1.2,1.55,15.29,15.29,0,0,0-2.41,4,7.75,7.75,0,0,0-.34,4.5C491,178.88,491.51,179.48,491.43,179.53Z" transform="translate(-2.37 -24.39)"/><path class="cls-6" d="M494.75,166.6a3.86,3.86,0,0,1-4.3-.88c.08-.11.93.41,2.11.64S494.73,166.46,494.75,166.6Z" transform="translate(-2.37 -24.39)"/><path class="cls-6" d="M498.45,153.9a5.16,5.16,0,0,1-2.13.15,10.26,10.26,0,0,1-8.34-5.49,4.83,4.83,0,0,1-.7-2c.07,0,.33.74,1,1.85a11,11,0,0,0,8.08,5.31C497.63,153.89,498.44,153.82,498.45,153.9Z" transform="translate(-2.37 -24.39)"/><path class="cls-6" d="M497.74,158.65a1.41,1.41,0,0,1-.62.4,3.85,3.85,0,0,1-2,.18,9.55,9.55,0,0,1-5.43-3.53,12.16,12.16,0,0,1-2.63-5.94,10.35,10.35,0,0,1-.09-2c0-.47.08-.72.12-.72s0,1,.31,2.63a12.75,12.75,0,0,0,2.66,5.69,9.81,9.81,0,0,0,5.12,3.5A4.41,4.41,0,0,0,497.74,158.65Z" transform="translate(-2.37 -24.39)"/><path class="cls-6" d="M496,144a3.67,3.67,0,0,1-.9.44,10,10,0,0,1-2.71.62,11.32,11.32,0,0,1-4.18-.41,11,11,0,0,1-4.57-2.59l.24,0a12.33,12.33,0,0,1-9.54-.66,11.86,11.86,0,0,1-4-3.35,11.51,11.51,0,0,1-1.73-3.09,6.92,6.92,0,0,1-.28-.91c-.05-.22-.07-.33-.05-.34a15.84,15.84,0,0,0,2.32,4.13,12.1,12.1,0,0,0,13.16,3.78l.14-.05.1.1a10.89,10.89,0,0,0,4.36,2.54,11.41,11.41,0,0,0,4,.49A15.81,15.81,0,0,0,496,144Z" transform="translate(-2.37 -24.39)"/><path class="cls-6" d="M492.46,137.59a3.93,3.93,0,0,1-1,.16c-.62.07-1.51.15-2.62.25l-3.9.32a25.55,25.55,0,0,1-4.81,0,16.31,16.31,0,0,1-8.07-3.25,14.71,14.71,0,0,1-2-1.8,3.77,3.77,0,0,1-.59-.78c.07-.06.95,1,2.74,2.3a17,17,0,0,0,7.92,3,27.64,27.64,0,0,0,4.73,0l3.91-.22c1.11,0,2-.09,2.63-.1A4.11,4.11,0,0,1,492.46,137.59Z" transform="translate(-2.37 -24.39)"/><path class="cls-6" d="M492.87,215.92a3,3,0,0,1-2.33,1,3,3,0,0,1-2.44-.72,19.24,19.24,0,0,0,2.41.24A18.18,18.18,0,0,0,492.87,215.92Z" transform="translate(-2.37 -24.39)"/><path class="cls-6" d="M491,217.33a7.72,7.72,0,0,1,.13-1.44,9.68,9.68,0,0,0-.39-3.4,9.53,9.53,0,0,0-1.56-3c-.55-.7-1-1.08-.91-1.14a3.11,3.11,0,0,1,1.17.92,8.1,8.1,0,0,1,2,6.69A3,3,0,0,1,491,217.33Z" transform="translate(-2.37 -24.39)"/><path class="cls-16" d="M522.63,230.48c-1.08-8.93-2.52-16.54-2.52-16.54H500.76s2.4,11.33,1.86,14c-.47,2.28-38,3.8-47.74,3.95-.58-.44-1.43.3-2.18-.36a7.34,7.34,0,0,1-1.66-2.05,11.84,11.84,0,0,1-1.34-3,1,1,0,0,0-1.86-.43c-.39.84.05,3.62,1.91,6.32s-3,1.29-4.79.81-7.37-1.69-7.95-1.24c-.84.65-.31,1.71,1.48,2.14s7.07,2.12,6.78,3.08-9.32-1.62-9.32-1.62-1.85-.87-2.22.22c-.67,2,9.14,4,10.08,4.13.65.11.37,1.16-.32,1s-9-2.77-9.66-.77c-.54,1.53,8.05,1.71,9.47,3.23s-6.5-.82-6.95.66c-.17.56,3.12.81,7.86,1.48a121,121,0,0,0,14.64.52c11,.6,49.82,1.4,58.11.82C526.63,246.09,523,233.55,522.63,230.48Z" transform="translate(-2.37 -24.39)"/><polygon class="cls-4" points="391.9 170.65 407.82 217.19 479.94 217.19 479.41 214.79 450.25 213.89 436.81 170.62 391.9 170.65"/><path class="cls-12" d="M426.22,216.9c.48,1.9-.34,3.77-1.82,4.17s-3.08-.83-3.55-2.74.34-3.77,1.82-4.17S425.74,215,426.22,216.9Z" transform="translate(-2.37 -24.39)"/><polygon class="cls-5" points="108.36 217.18 108.36 223.21 294.28 223.21 294.28 359.2 336.3 359.2 336.3 223.21 521.8 223.21 521.8 217.18 108.36 217.18"/><polygon class="cls-20" points="287.32 362.49 286.39 315.92 304.24 312.96 301.43 362.29 287.32 362.49"/><path class="cls-9" d="M304.55,387.09l0-1.64-15.49.38.1,5.42,1,0c4.26.14,21.66.42,24.49-.51C317.72,389.75,304.55,387.09,304.55,387.09Z" transform="translate(-2.37 -24.39)"/><g class="cls-18"><path class="cls-12" d="M294.71,391a5.3,5.3,0,0,0-2-3.24,5.16,5.16,0,0,0-3.63-1l.09,4.3Z" transform="translate(-2.37 -24.39)"/></g><g class="cls-18"><path class="cls-12" d="M311,388.62s4.62,1.22,4.07,2-18.16,1.15-25.94.64l0-.34,20.53-.28S310.1,388.68,311,388.62Z" transform="translate(-2.37 -24.39)"/></g><path class="cls-5" d="M288.9,390.91l.26,0,.76,0,2.81.06c2.37,0,5.64,0,9.25,0s6.89-.22,9.25-.36l2.8-.17.76-.06.27,0a1.89,1.89,0,0,0-.27,0l-.76,0-2.8.12c-2.37.1-5.64.22-9.25.3s-6.88.09-9.25.09h-3.57A.76.76,0,0,0,288.9,390.91Z" transform="translate(-2.37 -24.39)"/><path class="cls-5" d="M309.67,390.87a6.81,6.81,0,0,1,.5-1.35,6,6,0,0,1,.93-1.09,2.52,2.52,0,0,0-1.43,2.44Z" transform="translate(-2.37 -24.39)"/><path class="cls-5" d="M305.07,388.67c.05,0,.26-.25.48-.61a1.81,1.81,0,0,0,.31-.69s-.26.24-.47.6A1.7,1.7,0,0,0,305.07,388.67Z" transform="translate(-2.37 -24.39)"/><path class="cls-5" d="M303.81,388s.28-.13.54-.37.44-.47.4-.51-.27.13-.53.37S303.78,388,303.81,388Z" transform="translate(-2.37 -24.39)"/><path class="cls-5" d="M303,386.6a1.8,1.8,0,0,0,.81.08,1.77,1.77,0,0,0,.8-.1,1.86,1.86,0,0,0-.8-.09C303.35,386.5,303,386.54,303,386.6Z" transform="translate(-2.37 -24.39)"/><path class="cls-5" d="M302.7,385.58a1.64,1.64,0,0,0,.9.24,1.48,1.48,0,0,0,.92-.15,5.6,5.6,0,0,0-.91,0A4.38,4.38,0,0,0,302.7,385.58Z" transform="translate(-2.37 -24.39)"/><path class="cls-5" d="M305.57,387.31a2.83,2.83,0,0,0,1,0,5.8,5.8,0,0,0,1.05-.25,3.1,3.1,0,0,0,.6-.27.5.5,0,0,0,.23-.31.38.38,0,0,0-.15-.39,1.82,1.82,0,0,0-2.24.58,1.76,1.76,0,0,0-.31.67.7.7,0,0,0,0,.27,2.84,2.84,0,0,1,.44-.86,1.73,1.73,0,0,1,.83-.57,1.51,1.51,0,0,1,1.18.06c.16.11.1.3-.07.4a2.73,2.73,0,0,1-.55.25,6.69,6.69,0,0,1-1,.29C305.94,387.27,305.57,387.28,305.57,387.31Z" transform="translate(-2.37 -24.39)"/><path class="cls-5" d="M305.83,387.35a1,1,0,0,0,.09-.69,1.56,1.56,0,0,0-.28-.72,1,1,0,0,0-.84-.48.39.39,0,0,0-.29.46,1,1,0,0,0,.18.44,2.72,2.72,0,0,0,.48.59,1.34,1.34,0,0,0,.57.39s-.2-.17-.48-.48a3.76,3.76,0,0,1-.43-.59c-.14-.2-.24-.58,0-.63s.5.21.66.41a1.58,1.58,0,0,1,.29.64A4.5,4.5,0,0,1,305.83,387.35Z" transform="translate(-2.37 -24.39)"/><path class="cls-5" d="M289.12,386.68s.44-.05,1.14,0a4.88,4.88,0,0,1,2.5,1,5,5,0,0,1,1.61,2.16,10.07,10.07,0,0,1,.31,1.09.83.83,0,0,0,0-.31,4.21,4.21,0,0,0-.19-.83,4.7,4.7,0,0,0-4.22-3.22,5,5,0,0,0-.85,0A1.1,1.1,0,0,0,289.12,386.68Z" transform="translate(-2.37 -24.39)"/><path class="cls-5" d="M296.61,389.46a9,9,0,0,0,2.26.18,9.57,9.57,0,0,0,2.25-.23c0-.06-1,0-2.25,0S296.62,389.41,296.61,389.46Z" transform="translate(-2.37 -24.39)"/><path class="cls-5" d="M293.59,389.52s.09.22.2.44.17.44.22.43.07-.24-.05-.51S293.63,389.49,293.59,389.52Z" transform="translate(-2.37 -24.39)"/><path class="cls-5" d="M292.42,388.13s.07.2.23.36.33.25.36.21-.06-.19-.23-.35S292.46,388.09,292.42,388.13Z" transform="translate(-2.37 -24.39)"/><path class="cls-5" d="M290.78,387.52c0,.05.22.05.44.12s.4.19.44.16-.1-.25-.38-.34S290.76,387.47,290.78,387.52Z" transform="translate(-2.37 -24.39)"/><path class="cls-5" d="M289.61,387.24c0,.05.08.13.21.17s.24,0,.26,0-.07-.13-.2-.17S289.63,387.19,289.61,387.24Z" transform="translate(-2.37 -24.39)"/><polygon class="cls-15" points="306.96 362.19 305.74 314.97 323.66 312.96 321.33 362.08 306.96 362.19"/><path class="cls-9" d="M261.5,254.17c17.48.11,35,.22,52.39,1.81,6.95.64,14.46,1.79,19.29,6.82,4.53,4.7,5.58,11.66,6.41,18.13l7.63,59.24a273.28,273.28,0,0,1-72.54-2.31q.26-22,.5-44l.39-6.9-26.92-1.75Z" transform="translate(-2.37 -24.39)"/><path class="cls-2" d="M320.93,277.1a22.65,22.65,0,0,1,1.74-4.29,22,22,0,0,1,2.18-4.08,22.36,22.36,0,0,1-1.74,4.29A22,22,0,0,1,320.93,277.1Z" transform="translate(-2.37 -24.39)"/><path class="cls-2" d="M329.63,296.91a16.43,16.43,0,0,1-2.63-3,17.31,17.31,0,0,1-2.24-3.31,16.43,16.43,0,0,1,2.63,3A17.31,17.31,0,0,1,329.63,296.91Z" transform="translate(-2.37 -24.39)"/><path class="cls-2" d="M326.51,308.58a13.94,13.94,0,0,1-2.49,2.69,13.6,13.6,0,0,1-2.82,2.33,14.13,14.13,0,0,1,2.49-2.68A14.5,14.5,0,0,1,326.51,308.58Z" transform="translate(-2.37 -24.39)"/><path class="cls-2" d="M339.47,320.33a17.36,17.36,0,0,1-1.19-3.79,16.69,16.69,0,0,1-.73-3.91,16.82,16.82,0,0,1,1.2,3.79A16.34,16.34,0,0,1,339.47,320.33Z" transform="translate(-2.37 -24.39)"/><path class="cls-2" d="M328.6,332.76a12.55,12.55,0,0,1-1.38-3.15,12.36,12.36,0,0,1-.92-3.31,12.55,12.55,0,0,1,1.38,3.15A12.36,12.36,0,0,1,328.6,332.76Z" transform="translate(-2.37 -24.39)"/><path class="cls-2" d="M314.84,300.69a17.64,17.64,0,0,1-.7,4,17.14,17.14,0,0,1-1.16,3.89,33.48,33.48,0,0,1,1.86-7.89Z" transform="translate(-2.37 -24.39)"/><rect class="cls-5" x="297.23" y="236.22" width="71.13" height="3.46" transform="translate(663.23 451.5) rotate(180)"/><polygon class="cls-5" points="377.02 215.28 390.37 165.29 334.83 165.29 322.74 215.28 377.02 215.28"/><polygon class="cls-3" points="326.07 211.5 375.69 211.5 387.24 167.6 337.37 167.6 326.07 211.5"/><polygon class="cls-4" points="338.6 176.1 335.52 188.53 368.42 188.53 371.93 176.1 338.6 176.1"/><path class="cls-6" d="M367.36,198.85c0,.14-5.77.24-12.89.24s-12.89-.1-12.89-.24,5.77-.24,12.89-.24S367.36,198.72,367.36,198.85Z" transform="translate(-2.37 -24.39)"/><path class="cls-5" d="M352.36,202.87a56.35,56.35,0,0,1-10.39,0,56.35,56.35,0,0,1,10.39,0Z" transform="translate(-2.37 -24.39)"/><path class="cls-5" d="M360.69,202.67a23,23,0,0,1-6.76,0,23.92,23.92,0,0,1,6.76,0Z" transform="translate(-2.37 -24.39)"/><path class="cls-6" d="M370.1,205.12c0,.14-6.36.25-14.21.25s-14.21-.11-14.21-.25,6.36-.24,14.21-.24S370.1,205,370.1,205.12Z" transform="translate(-2.37 -24.39)"/><path class="cls-9" d="M350.3,207.18a44.3,44.3,0,0,1-9.21,0,44.3,44.3,0,0,1,9.21,0Z" transform="translate(-2.37 -24.39)"/><path class="cls-6" d="M367.55,210.12c0,.14-5.9.24-13.18.24s-13.18-.1-13.18-.24,5.9-.24,13.18-.24S367.55,210,367.55,210.12Z" transform="translate(-2.37 -24.39)"/><path class="cls-6" d="M348.15,216.49a54.2,54.2,0,0,1-10.19,0,54.2,54.2,0,0,1,10.19,0Z" transform="translate(-2.37 -24.39)"/><path class="cls-5" d="M356.87,216.53a12.77,12.77,0,0,1-3.48.21,12.93,12.93,0,0,1-3.48-.26,12.52,12.52,0,0,1,3.48-.22A13.09,13.09,0,0,1,356.87,216.53Z" transform="translate(-2.37 -24.39)"/><path class="cls-5" d="M361.77,216.3c0,.13-.66.24-1.47.24s-1.47-.11-1.47-.24.66-.24,1.47-.24S361.77,216.16,361.77,216.3Z" transform="translate(-2.37 -24.39)"/><path class="cls-9" d="M341.39,219c0,.13-.73.24-1.62.24s-1.62-.11-1.62-.24.73-.24,1.62-.24S341.39,218.91,341.39,219Z" transform="translate(-2.37 -24.39)"/><path class="cls-5" d="M351.09,219a31.32,31.32,0,0,1-7.74,0,31.32,31.32,0,0,1,7.74,0Z" transform="translate(-2.37 -24.39)"/><path class="cls-6" d="M374.22,218.75c0,.13-4.63.24-10.34.24s-10.34-.11-10.34-.24,4.63-.24,10.34-.24S374.22,218.61,374.22,218.75Z" transform="translate(-2.37 -24.39)"/><path class="cls-5" d="M340.9,221.69c0,.13-.75.24-1.67.24s-1.67-.11-1.67-.24.75-.24,1.67-.24S340.9,221.55,340.9,221.69Z" transform="translate(-2.37 -24.39)"/><path class="cls-5" d="M346,221.59a8.54,8.54,0,0,1-4,0,8.54,8.54,0,0,1,4,0Z" transform="translate(-2.37 -24.39)"/><path class="cls-6" d="M361.18,221.39a88.55,88.55,0,0,1-13,0,88.55,88.55,0,0,1,13,0Z" transform="translate(-2.37 -24.39)"/><path class="cls-6" d="M353.15,226a65.79,65.79,0,0,1-7.89.24,65.65,65.65,0,0,1-7.89-.24,65.65,65.65,0,0,1,7.89-.24A65.79,65.79,0,0,1,353.15,226Z" transform="translate(-2.37 -24.39)"/><path class="cls-9" d="M362.36,225.8a26.82,26.82,0,0,1-7.16,0,26.82,26.82,0,0,1,7.16,0Z" transform="translate(-2.37 -24.39)"/><path class="cls-5" d="M376,225.8a73.38,73.38,0,0,1-11.86,0,73.38,73.38,0,0,1,11.86,0Z" transform="translate(-2.37 -24.39)"/><path class="cls-5" d="M372.85,198.66c0,.13-.55.24-1.23.24s-1.22-.11-1.22-.24.54-.24,1.22-.24S372.85,198.52,372.85,198.66Z" transform="translate(-2.37 -24.39)"/><path class="cls-9" d="M347.85,197a7.8,7.8,0,0,1-2.69.24,7.88,7.88,0,0,1-2.7-.24,7.88,7.88,0,0,1,2.7-.24A7.8,7.8,0,0,1,347.85,197Z" transform="translate(-2.37 -24.39)"/><path class="cls-1" d="M388.77,195.14H338.89l.84-3.15H389.6Z" transform="translate(-2.37 -24.39)"/><circle class="cls-2" cx="339.47" cy="169.19" r="0.54"/><circle class="cls-2" cx="341.34" cy="169.19" r="0.54"/><circle class="cls-2" cx="343.22" cy="169.19" r="0.54"/><path class="cls-15" d="M286.45,213.56,293.57,235c1.92,5.79,7,6.79,13.09,6.79h39.61V232.9l-36.19-5.17-8.62-22Z" transform="translate(-2.37 -24.39)"/><path class="cls-15" d="M350.63,231.05l3.14-1.49s3.39-6.55,4.17-6.28,1,2.19-.36,5.19l4.18-1.19s9.05,4.19,8.65,4.75a2.09,2.09,0,0,1-3.11.89c-2-1-4.56-2.19-4.56-2.19l-4.88,1.39,6.29.8,5.92,5.38a2.9,2.9,0,0,1-3.62-.09l-15.36,3.3-4.82.28V232.9Z" transform="translate(-2.37 -24.39)"/><path class="cls-20" d="M366.45,238.21c-.06,0-.35-.41-.9-1a4.73,4.73,0,0,0-1.12-.87,4.49,4.49,0,0,0-1.66-.43,22.63,22.63,0,0,1-4.61-.79,23.36,23.36,0,0,1,4.67.31,4.59,4.59,0,0,1,1.82.53,4.41,4.41,0,0,1,1.16,1C366.33,237.68,366.5,238.18,366.45,238.21Z" transform="translate(-2.37 -24.39)"/><path class="cls-20" d="M364.05,238.83c-.06,0-.11-.32-.54-.41s-1.14-.16-1.87-.24a16.62,16.62,0,0,1-2.7-.27,5.42,5.42,0,0,1,2.75-.21,8.13,8.13,0,0,1,1.94.4.76.76,0,0,1,.46.48C364.13,238.75,364.08,238.83,364.05,238.83Z" transform="translate(-2.37 -24.39)"/><path class="cls-15" d="M257.74,134.65l-2.15,43.57L274.24,180l1-10.58s6.58,1.63,8.58-4.46c1.28-3.89,2.42-34.35,2.42-34.35Z" transform="translate(-2.37 -24.39)"/><path class="cls-5" d="M287.88,135.68c.51,4.08-5.19,6.44-5.19,6.44l-1,9.65a18.82,18.82,0,0,0-2.68,0c.48-4.52-5.34-3.64-5.94-.55s2.81,4.94,2.81,4.94c-2.33,3.58-3.28,5.47-6.59,8.83-3.58,3.63-5.51,3.92-9.21,3.81l-4.07-.19s-1.45-3.48-2.52-11.7c-.51-4-3.6-9.14-2.72-15.57,2.5-18.28,20-16.35,20-16.35C279.87,125.21,286.68,126.22,287.88,135.68Z" transform="translate(-2.37 -24.39)"/><path class="cls-5" d="M274.45,125.48c4,.11,8.06.42,11.53,2.32s6.27,7,5.56,10.86c-.66.12-1.37.39-2,.51-.27-.49-.61-2.3-.88-2.79,0,.78-.24,2.53-.23,3.3-1.16.33-2.07-.32-3.23,0a25.26,25.26,0,0,0-3.07-8.41" transform="translate(-2.37 -24.39)"/><path class="cls-9" d="M287.91,217.09l3.59,11.67,21.46-5c-.69-2.16-6.65-15.81-12.77-31.08a26.28,26.28,0,0,0-20-16.16,114.74,114.74,0,0,0-18.52-1.81c-10.84.12-24.88,4.67-27,15.3-1.63,8.11,2,21.37,2,38.77L234,265.31l53.87,1.82-5.46-32.07Z" transform="translate(-2.37 -24.39)"/><g class="cls-10"><path d="M232.69,224.36c6.76,1.38,13.7,0,20.59-.42,4.18-.25,8.81-.7,12.11,1.87,2.62,2,3.68,5.45,4.43,8.68,1.64,7,2.77,21.49,3.55,35a25.46,25.46,0,0,0,14.06,21.3c2.16,1.08,7.83,1.11,7.87,1.84l-55.23,2.26Z" transform="translate(-2.37 -24.39)"/></g><rect class="cls-6" x="262.93" y="272.88" width="6.76" height="80.94"/><path class="cls-6" d="M208.61,218.7v59.58a14.14,14.14,0,0,0,14.15,14.15h39.67V218.7a6.31,6.31,0,0,0-6.3-6.31H214.92A6.31,6.31,0,0,0,208.61,218.7Z" transform="translate(-2.37 -24.39)"/><path class="cls-6" d="M315.84,297.27H219.21a10.49,10.49,0,0,1,10.49-10.49h75.65a10.49,10.49,0,0,1,10.49,10.49Z" transform="translate(-2.37 -24.39)"/><path class="cls-5" d="M262.43,285.39a1.29,1.29,0,0,1,0,.45,5.17,5.17,0,0,1-.16,1.3,7.08,7.08,0,0,1-5.65,5.38,28,28,0,0,1-3.82.15l-8.68,0c-6.16,0-11.74,0-15.78-.06l-4.78-.07-1.3-.05a1.27,1.27,0,0,1-.45,0,1.66,1.66,0,0,1,.45-.05l1.3-.05,4.78-.08c4-.05,9.62-.08,15.78-.09h8.68a30.29,30.29,0,0,0,3.75-.09,6.85,6.85,0,0,0,2.92-1.24,7.09,7.09,0,0,0,2.62-3.78C262.41,286,262.38,285.38,262.43,285.39Z" transform="translate(-2.37 -24.39)"/><path class="cls-5" d="M274.6,297.47a35.19,35.19,0,0,1-5.93.25,35.19,35.19,0,0,1-5.93-.25,37.25,37.25,0,0,1,5.93-.24A37.25,37.25,0,0,1,274.6,297.47Z" transform="translate(-2.37 -24.39)"/><path class="cls-6" d="M304,293a15.7,15.7,0,0,1-.6-2.83c-.32-1.84-.76-4.5-1.27-7.79s-.87-7.27-2.68-11.22a27.18,27.18,0,0,0-3.59-5.73,25.68,25.68,0,0,0-5.39-4.86,24.06,24.06,0,0,0-6.53-3.14,24.33,24.33,0,0,0-6.66-1.15c-4.37-.1-8.36-.09-11.69-.15s-6-.1-7.89-.16a15.19,15.19,0,0,1-2.89-.19,16.33,16.33,0,0,1,2.89-.19c1.87-.06,4.56-.12,7.89-.16s7.29-.12,11.72-.07A25.83,25.83,0,0,1,291,259.7a25.82,25.82,0,0,1,5.58,5.06,27.7,27.7,0,0,1,3.67,6c.22.52.41,1,.6,1.55.1.26.2.51.29.76s.15.52.22.77c.14.51.28,1,.42,1.51s.18,1,.27,1.5c.34,1.95.52,3.75.75,5.41.42,3.3.75,6,.95,7.83A18.06,18.06,0,0,1,304,293Z" transform="translate(-2.37 -24.39)"/><path class="cls-6" d="M298.22,385.54h-1a28.75,28.75,0,1,0-57.49,0h-1a29.7,29.7,0,0,1,59.4,0Z" transform="translate(-2.37 -24.39)"/><path class="cls-5" d="M243.75,387a4.46,4.46,0,1,1-4.45-4.46A4.45,4.45,0,0,1,243.75,387Z" transform="translate(-2.37 -24.39)"/><path class="cls-5" d="M302.42,386.4A4.46,4.46,0,1,1,298,382,4.45,4.45,0,0,1,302.42,386.4Z" transform="translate(-2.37 -24.39)"/><path class="cls-6" d="M297.94,378.21c0,.13-12.93.25-28.87.25s-28.87-.12-28.87-.25,12.93-.25,28.87-.25S297.94,378.07,297.94,378.21Z" transform="translate(-2.37 -24.39)"/><path class="cls-5" d="M256.66,168.68a63.54,63.54,0,0,0,11-.35A23.91,23.91,0,0,0,279,163.17c1.87-1.71,2.34-2.61,2.44-6.19l.3-5.21-5.24-14.34L263,136.32,250.61,142l-1.13,18.8A7.44,7.44,0,0,0,256.66,168.68Z" transform="translate(-2.37 -24.39)"/><path class="cls-5" d="M280.36,159.14c0,2.14-1.94,3.73-3.74,4.89s-3.81,2.43-4.34,4.5c-1,4,4.2,7.07,4.7,11.2.36,3-1.85,5.63-3.25,8.32a17,17,0,0,0-.42,14.59c-5.65.5-11.33,1-17,1.2l-3.92-7.69-2.92,7.8a95,95,0,0,1-14.87-1.22c2.92-2.31,3.15-6.6,3-10.32s-.9-10.3,1.58-13.09c1.7-1.93,4.37-2.76,6.12-4.64,2.55-2.71,1.34-3.79.08-6.74a20.49,20.49,0,0,1-1.27-11c.59-3.69,2.88-6.83,4.74-10.07s2-5.53,3-10" transform="translate(-2.37 -24.39)"/><path class="cls-5" d="M250.76,136.32a13,13,0,0,1-9.93,6.67,7.89,7.89,0,0,0,6.58,1,15.63,15.63,0,0,1-6.38,3.71c.8,2.06,3.25,3,5.46,3.11a15.33,15.33,0,0,0,10.91-3.62A13.93,13.93,0,0,0,260.72,132" transform="translate(-2.37 -24.39)"/><path class="cls-5" d="M254.76,135.42a5.07,5.07,0,0,0,4.64-3.15,8.55,8.55,0,0,0,.11-5.84,6.51,6.51,0,0,0-3.1-4.2c-2-.92-4.33-.19-6.06,1.09a9.18,9.18,0,0,0-3.72,6.36,7.32,7.32,0,0,0,2.94,6.61,6.08,6.08,0,0,0,7.08-.13" transform="translate(-2.37 -24.39)"/><path class="cls-6" d="M243.34,149.78a19.5,19.5,0,0,0,4.54.64,14.28,14.28,0,0,0,4.84-.91,12.79,12.79,0,0,0,8-8.49,14.26,14.26,0,0,0,.61-4.89,19.31,19.31,0,0,0-.92-4.49,1.09,1.09,0,0,1,.16.28,8,8,0,0,1,.37.85,12.54,12.54,0,0,1,.73,3.34,14.2,14.2,0,0,1-.52,5,13,13,0,0,1-8.25,8.78,13.89,13.89,0,0,1-5,.83,12.35,12.35,0,0,1-3.38-.52,6,6,0,0,1-.87-.32A1.38,1.38,0,0,1,243.34,149.78Z" transform="translate(-2.37 -24.39)"/><path class="cls-6" d="M250.74,145.71a16.36,16.36,0,0,0,4-3.46,16.57,16.57,0,0,0,2.31-4.78,3.83,3.83,0,0,1-.2,1.59,10.06,10.06,0,0,1-4.63,6.05A3.56,3.56,0,0,1,250.74,145.71Z" transform="translate(-2.37 -24.39)"/><path class="cls-6" d="M247.61,127.7s.06-.29.36-.73a5.21,5.21,0,0,1,1.62-1.5,6,6,0,0,1,3.18-.86,6.55,6.55,0,0,1,3.8,1.33,7.46,7.46,0,0,1,2.47,3.18,8.58,8.58,0,0,1,.35,5.4,2,2,0,0,1-.28.76,20,20,0,0,0,.22-2.93,9,9,0,0,0-.7-3.06,7.41,7.41,0,0,0-2.35-3,6.27,6.27,0,0,0-3.52-1.27,6,6,0,0,0-3,.71A7,7,0,0,0,247.61,127.7Z" transform="translate(-2.37 -24.39)"/><path class="cls-6" d="M261.42,134.49c.08,0,.72,1.26,1.95,3.23a15.6,15.6,0,0,0,2.55,3.13,9,9,0,0,0,4.31,2.2,28.24,28.24,0,0,0,4.94.5,21.86,21.86,0,0,0,4.06-.11,9,9,0,0,0,3.47-1.27,2.72,2.72,0,0,1-.79.65,7.58,7.58,0,0,1-2.63,1,19.6,19.6,0,0,1-4.12.21,27,27,0,0,1-5-.47,9.23,9.23,0,0,1-4.5-2.35,14.6,14.6,0,0,1-2.54-3.27c-.59-1-1-1.87-1.28-2.46A5.37,5.37,0,0,1,261.42,134.49Z" transform="translate(-2.37 -24.39)"/><path class="cls-6" d="M261.42,134.49a6.12,6.12,0,0,1,.51,1c.31.68.77,1.66,1.38,2.85s1.36,2.58,2.22,4.12a29.36,29.36,0,0,0,3.11,4.77,15.44,15.44,0,0,0,4.29,3.65,12,12,0,0,0,4.35,1.45,12.27,12.27,0,0,0,4.25-.28s-.09.06-.27.14a8.18,8.18,0,0,1-.83.27,9.54,9.54,0,0,1-3.18.21,11.79,11.79,0,0,1-4.53-1.4,15.3,15.3,0,0,1-4.45-3.73,28.57,28.57,0,0,1-3.13-4.86c-.84-1.56-1.57-3-2.13-4.19s-1-2.22-1.25-2.92A5.45,5.45,0,0,1,261.42,134.49Z" transform="translate(-2.37 -24.39)"/><path class="cls-6" d="M259.56,133.14a6,6,0,0,1,1-.88,23.34,23.34,0,0,1,3-2,20.4,20.4,0,0,1,5-2A16.17,16.17,0,0,1,275,128a13.06,13.06,0,0,1,6,2.63,11.5,11.5,0,0,1,3.25,4.25,9.94,9.94,0,0,1,.84,3.51,6.74,6.74,0,0,1,0,1c0,.23,0,.34-.06.34a11.74,11.74,0,0,0-1.06-4.68,11.43,11.43,0,0,0-3.22-4.05,12.82,12.82,0,0,0-5.8-2.51,16,16,0,0,0-6.35.22,21,21,0,0,0-4.91,1.85,30.4,30.4,0,0,0-3,1.85A8.68,8.68,0,0,1,259.56,133.14Z" transform="translate(-2.37 -24.39)"/><path class="cls-6" d="M271.29,125.06A16.59,16.59,0,0,0,261,130.83a4.39,4.39,0,0,1,1-1.5,12.6,12.6,0,0,1,3.4-2.76,12.89,12.89,0,0,1,4.12-1.44A4.42,4.42,0,0,1,271.29,125.06Z" transform="translate(-2.37 -24.39)"/><path class="cls-9" d="M251.74,137.39a12.57,12.57,0,0,0,2.41.22,6.53,6.53,0,0,0,6.24-8,13.33,13.33,0,0,0-.79-2.29s.19.16.42.52a5.6,5.6,0,0,1,.7,1.7,6.65,6.65,0,0,1-6.56,8.37,5.7,5.7,0,0,1-1.81-.27C251.94,137.54,251.73,137.42,251.74,137.39Z" transform="translate(-2.37 -24.39)"/><path class="cls-6" d="M260.39,203a4.37,4.37,0,0,1-.31-.63c-.18-.43-.45-1.05-.78-1.87a36.23,36.23,0,0,1-2.18-7.13,18.82,18.82,0,0,1-.24-5.16,13.38,13.38,0,0,1,1.8-5.66c1.07-1.8,2.7-3.4,3.13-5.57s-.47-4.44-1.62-6.48c-.58-1-1.21-2-1.8-3.06a26.46,26.46,0,0,1-1.53-3.12,12.68,12.68,0,0,1-1-6.47,12.1,12.1,0,0,1,2.52-5.38,18.86,18.86,0,0,0,2.62-4.34,15.92,15.92,0,0,0,1-4.08,31.2,31.2,0,0,0,.2-3.18c0-.84,0-1.51,0-2a3.14,3.14,0,0,1,0-.7,4.09,4.09,0,0,1,.06.7c0,.46.06,1.14.08,2s0,2-.12,3.21a16.05,16.05,0,0,1-.91,4.17,19.4,19.4,0,0,1-2.61,4.45,11.6,11.6,0,0,0-2.41,5.21,12.25,12.25,0,0,0,1,6.24,25.5,25.5,0,0,0,1.51,3.06c.57,1,1.22,2,1.8,3.06a16.06,16.06,0,0,1,1.45,3.29,7.22,7.22,0,0,1,.21,3.51,8.39,8.39,0,0,1-1.41,3.09c-.61.91-1.26,1.75-1.8,2.62a13,13,0,0,0-1.78,5.47,18.74,18.74,0,0,0,.17,5.07,40.07,40.07,0,0,0,2,7.12c.29.78.53,1.42.7,1.89A3.67,3.67,0,0,1,260.39,203Z" transform="translate(-2.37 -24.39)"/><path class="cls-5" d="M253.21,149.89a2.86,2.86,0,0,1-.33.51l-1,1.41a22.21,22.21,0,0,0-2.94,5.54,12.18,12.18,0,0,0-.63,4.24,8.81,8.81,0,0,0,.42,2.34,13.59,13.59,0,0,0,1.06,2.31c.81,1.53,1.93,3.17,2,5.22a5.78,5.78,0,0,1-.73,2.94,11,11,0,0,1-1.86,2.45A49.09,49.09,0,0,0,245,181a8.75,8.75,0,0,0-1.76,5,24.74,24.74,0,0,0,.34,4.95,41.11,41.11,0,0,1,.47,4.37,10,10,0,0,1-1.54,6.12,5.41,5.41,0,0,1-1.18,1.28,3.9,3.9,0,0,1-.37.26l-.13.07a8.92,8.92,0,0,0,1.53-1.71,10.23,10.23,0,0,0,1.35-6c-.06-1.32-.29-2.76-.52-4.32a23.82,23.82,0,0,1-.39-5,9.14,9.14,0,0,1,1.82-5.29,49.75,49.75,0,0,1,4.27-4.19c1.39-1.42,2.54-3.17,2.46-5s-1.12-3.48-1.94-5a14.11,14.11,0,0,1-1.07-2.39,8.85,8.85,0,0,1-.41-2.45,11.83,11.83,0,0,1,.7-4.37,21.38,21.38,0,0,1,3.1-5.54c.45-.6.82-1,1.07-1.36A3.48,3.48,0,0,1,253.21,149.89Z" transform="translate(-2.37 -24.39)"/><path class="cls-6" d="M270.56,202.48a.91.91,0,0,1-.16-.08c-.1-.07-.26-.14-.44-.28a5.59,5.59,0,0,1-1.37-1.48,9.71,9.71,0,0,1-1-7.19,35.46,35.46,0,0,1,1.48-4.88,25.39,25.39,0,0,0,1.49-5.57,17.87,17.87,0,0,0-.36-6.31,19.48,19.48,0,0,0-2.75-6.21,22,22,0,0,1-3.07-6.24,20.51,20.51,0,0,1-.44-6.47c.32-4.12,1.11-7.74,1-10.83a15.88,15.88,0,0,0-1.5-7.07,17.14,17.14,0,0,0-1.5-2.22,7.83,7.83,0,0,1,1.66,2.13,15.34,15.34,0,0,1,1.68,7.15c.13,3.14-.63,6.8-.92,10.87a20.07,20.07,0,0,0,.46,6.32,21.42,21.42,0,0,0,3,6.1,20.08,20.08,0,0,1,2.8,6.36,18.34,18.34,0,0,1,.34,6.48,25.92,25.92,0,0,1-1.55,5.65,36.15,36.15,0,0,0-1.53,4.81,9.66,9.66,0,0,0,.88,7A7.24,7.24,0,0,0,270.56,202.48Z" transform="translate(-2.37 -24.39)"/><path class="cls-9" d="M324.46,387.07l0-1.64-15.49.38.1,5.42,1,0c4.26.14,21.67.42,24.49-.51C337.62,389.73,324.46,387.07,324.46,387.07Z" transform="translate(-2.37 -24.39)"/><g class="cls-18"><path class="cls-12" d="M314.61,391a5.35,5.35,0,0,0-2-3.25,5.26,5.26,0,0,0-3.63-1L309,391Z" transform="translate(-2.37 -24.39)"/></g><g class="cls-18"><path class="cls-12" d="M330.89,388.6s4.62,1.22,4.07,2-18.16,1.15-25.94.64l0-.34,20.53-.28S330,388.66,330.89,388.6Z" transform="translate(-2.37 -24.39)"/></g><path class="cls-5" d="M308.8,390.88l.26,0,.77,0,2.8.06c2.37,0,5.64,0,9.25,0s6.89-.22,9.25-.36l2.8-.17.76-.07a.94.94,0,0,0,.27,0h-.27l-.76,0-2.8.12c-2.37.1-5.64.22-9.25.3s-6.88.09-9.25.09H308.8Z" transform="translate(-2.37 -24.39)"/><path class="cls-5" d="M329.58,390.85a5.78,5.78,0,0,1,.49-1.35,6.53,6.53,0,0,1,.93-1.09,2,2,0,0,0-1.09,1A2,2,0,0,0,329.58,390.85Z" transform="translate(-2.37 -24.39)"/><path class="cls-5" d="M325,388.64s.25-.24.47-.6.36-.67.31-.7-.25.25-.47.61S324.93,388.62,325,388.64Z" transform="translate(-2.37 -24.39)"/><path class="cls-5" d="M323.71,388s.28-.13.54-.37.44-.48.41-.51-.28.13-.54.37S323.68,388,323.71,388Z" transform="translate(-2.37 -24.39)"/><path class="cls-5" d="M322.89,386.57c0,.06.36.09.81.09a2,2,0,0,0,.8-.1,1.86,1.86,0,0,0-.8-.09A2,2,0,0,0,322.89,386.57Z" transform="translate(-2.37 -24.39)"/><path class="cls-5" d="M322.6,385.55a2.19,2.19,0,0,0,1.83.1,5.78,5.78,0,0,0-.92,0A4.85,4.85,0,0,0,322.6,385.55Z" transform="translate(-2.37 -24.39)"/><path class="cls-5" d="M325.47,387.29a2.83,2.83,0,0,0,1,0,5.8,5.8,0,0,0,1.05-.25,3.1,3.1,0,0,0,.6-.27.56.56,0,0,0,.24-.31.41.41,0,0,0-.16-.39,1.82,1.82,0,0,0-2.24.58,1.76,1.76,0,0,0-.31.67.64.64,0,0,0,0,.26,3,3,0,0,1,.44-.85,1.73,1.73,0,0,1,.83-.57,1.51,1.51,0,0,1,1.18.06c.16.11.11.29-.07.4a2.73,2.73,0,0,1-.55.25,6.69,6.69,0,0,1-1,.29C325.85,387.25,325.47,387.26,325.47,387.29Z" transform="translate(-2.37 -24.39)"/><path class="cls-5" d="M325.73,387.33a1,1,0,0,0,.1-.69,1.7,1.7,0,0,0-.29-.72,1,1,0,0,0-.84-.48.39.39,0,0,0-.29.46,1,1,0,0,0,.18.44,3,3,0,0,0,.48.59,1.41,1.41,0,0,0,.57.39s-.2-.18-.48-.48a3.76,3.76,0,0,1-.43-.59c-.14-.21-.24-.58,0-.63s.51.21.66.41a1.8,1.8,0,0,1,.3.63A5.47,5.47,0,0,1,325.73,387.33Z" transform="translate(-2.37 -24.39)"/><path class="cls-5" d="M309,386.66s.44-.05,1.14,0a4.83,4.83,0,0,1,4.11,3.13,10.55,10.55,0,0,1,.31,1.1s0-.11,0-.31a4.21,4.21,0,0,0-.19-.83,4.7,4.7,0,0,0-4.22-3.22,5,5,0,0,0-.85,0A1.1,1.1,0,0,0,309,386.66Z" transform="translate(-2.37 -24.39)"/><path class="cls-5" d="M316.52,389.44a8.81,8.81,0,0,0,2.25.18,9.48,9.48,0,0,0,2.25-.23c0-.06-1,0-2.25,0S316.52,389.39,316.52,389.44Z" transform="translate(-2.37 -24.39)"/><path class="cls-5" d="M313.49,389.5s.09.21.2.44.17.44.22.43.08-.24-.05-.51S313.53,389.46,313.49,389.5Z" transform="translate(-2.37 -24.39)"/><path class="cls-5" d="M312.33,388.11s.06.2.23.35.32.26.36.22-.07-.19-.23-.35S312.36,388.07,312.33,388.11Z" transform="translate(-2.37 -24.39)"/><path class="cls-5" d="M310.68,387.5c0,.05.22,0,.45.12s.39.19.43.16-.09-.25-.38-.34S310.67,387.45,310.68,387.5Z" transform="translate(-2.37 -24.39)"/><path class="cls-5" d="M309.52,387.22s.07.12.2.17.24.05.26,0-.07-.13-.2-.17S309.53,387.17,309.52,387.22Z" transform="translate(-2.37 -24.39)"/><path class="cls-5" d="M302.72,334.45c-.13,0,.33-8.27,1-18.45s1.38-18.43,1.51-18.42-.32,8.27-1,18.45S302.85,334.45,302.72,334.45Z" transform="translate(-2.37 -24.39)"/><path class="cls-5" d="M311.63,336.55a9.56,9.56,0,0,1-.16-1.52l-.27-4.16c-.23-3.51-.58-8.36-1.05-13.7s-1-10.18-1.41-13.67c-.19-1.69-.35-3.09-.47-4.14a9.58,9.58,0,0,1-.12-1.53,9.25,9.25,0,0,1,.3,1.5c.17,1,.38,2.38.62,4.12.49,3.49,1.07,8.32,1.55,13.67s.77,10.21.92,13.73c.07,1.76.11,3.18.12,4.17A10.17,10.17,0,0,1,311.63,336.55Z" transform="translate(-2.37 -24.39)"/><g class="cls-10"><path d="M315.35,296.75a42.51,42.51,0,0,1-28.79,21.33c-2.51.5-5.27.73-7.48-.56-3-1.75-4-5.69-3.92-9.18s0-8.26,0-11.59Z" transform="translate(-2.37 -24.39)"/></g><path class="cls-5" d="M261.67,237.69c0-.13,4.6-.85,10.32-1.6s10.37-1.25,10.39-1.11-4.61.84-10.33,1.59S261.69,237.82,261.67,237.69Z" transform="translate(-2.37 -24.39)"/><path class="cls-5" d="M275.77,236a8,8,0,0,1-1.56-1l-1.62-1.25a2.06,2.06,0,0,1-.78-1.07,1.44,1.44,0,0,1,.5-1.38,1.67,1.67,0,0,1,1.39-.43,2.06,2.06,0,0,1,1.17.63,3.09,3.09,0,0,1,.82,2,4.34,4.34,0,0,1-.21,1.9c-.09,0,0-.74-.13-1.86a2.87,2.87,0,0,0-.79-1.69,1.38,1.38,0,0,0-1.93-.16,1,1,0,0,0-.36.92,1.6,1.6,0,0,0,.61.84l1.54,1.32A7.77,7.77,0,0,1,275.77,236Z" transform="translate(-2.37 -24.39)"/><path class="cls-5" d="M275.15,236a3.33,3.33,0,0,1,.44-1.54,7.14,7.14,0,0,1,1-1.48,7.43,7.43,0,0,1,.74-.75,1.66,1.66,0,0,1,1.18-.4.73.73,0,0,1,.61.47.88.88,0,0,1-.06.7,4,4,0,0,1-.65.86A7.25,7.25,0,0,1,277,235a3.22,3.22,0,0,1-1.46.66,14,14,0,0,1,1.27-.93,9.11,9.11,0,0,0,1.2-1.16,3.48,3.48,0,0,0,.55-.76c.13-.26,0-.47-.18-.5-.58,0-1.11.52-1.52,1a8,8,0,0,0-1,1.34A13.28,13.28,0,0,1,275.15,236Z" transform="translate(-2.37 -24.39)"/><path class="cls-2" d="M304.28,338a25.24,25.24,0,0,1,1.55-4.63,24.9,24.9,0,0,1,2-4.45,49.9,49.9,0,0,1-3.55,9.08Z" transform="translate(-2.37 -24.39)"/><path class="cls-2" d="M288,333.16a19.84,19.84,0,0,1-6.94-6c.1-.09,1.52,1.4,3.43,3.06S288.06,333.05,288,333.16Z" transform="translate(-2.37 -24.39)"/><path class="cls-2" d="M293.08,311.94a13,13,0,0,1-2.27-2.77,13.41,13.41,0,0,1-1.87-3.05,13.38,13.38,0,0,1,2.27,2.77A14.13,14.13,0,0,1,293.08,311.94Z" transform="translate(-2.37 -24.39)"/><path class="cls-2" d="M284.88,282.52A19.31,19.31,0,0,1,282,279.3a19.11,19.11,0,0,1-2.49-3.52,38.41,38.41,0,0,1,5.36,6.74Z" transform="translate(-2.37 -24.39)"/><path class="cls-2" d="M304.82,278.79a38.43,38.43,0,0,1-8.57.34,19.24,19.24,0,0,1,4.28-.41A18.37,18.37,0,0,1,304.82,278.79Z" transform="translate(-2.37 -24.39)"/><path class="cls-2" d="M309.43,266.84a12,12,0,0,1-1.83-2.79,11.57,11.57,0,0,1-1.42-3,12.26,12.26,0,0,1,1.84,2.79A11.73,11.73,0,0,1,309.43,266.84Z" transform="translate(-2.37 -24.39)"/><path class="cls-2" d="M288.7,264.26a13,13,0,0,1-3.06,1.7,12.73,12.73,0,0,1-3.25,1.26,12.82,12.82,0,0,1,3.05-1.7A13,13,0,0,1,288.7,264.26Z" transform="translate(-2.37 -24.39)"/><path class="cls-2" d="M277,265.19a37.35,37.35,0,0,1-4-2.89,36.72,36.72,0,0,1-3.89-3,19.52,19.52,0,0,1,4.18,2.64A19.77,19.77,0,0,1,277,265.19Z" transform="translate(-2.37 -24.39)"/><path class="cls-2" d="M276,242.8c0,.13-2.08.89-4.53,2.14s-4.32,2.52-4.4,2.4A20.28,20.28,0,0,1,276,242.8Z" transform="translate(-2.37 -24.39)"/><path class="cls-2" d="M272,226.31a34.86,34.86,0,0,1-5.79-5.77,17.67,17.67,0,0,1,3.06,2.71A18.47,18.47,0,0,1,272,226.31Z" transform="translate(-2.37 -24.39)"/><path class="cls-2" d="M283.67,214.12a10.44,10.44,0,0,1-2.49,1.95,10.57,10.57,0,0,1-2.76,1.56,20.43,20.43,0,0,1,5.25-3.51Z" transform="translate(-2.37 -24.39)"/><path class="cls-2" d="M274.22,212a15.11,15.11,0,0,1-2.57-2.71,13.82,13.82,0,0,1-2.21-3A15.11,15.11,0,0,1,272,209,13.82,13.82,0,0,1,274.22,212Z" transform="translate(-2.37 -24.39)"/><path class="cls-2" d="M288.89,194.31a30.56,30.56,0,0,1-3.64,2.07,31.38,31.38,0,0,1-3.68,2A12.79,12.79,0,0,1,285,196,13.12,13.12,0,0,1,288.89,194.31Z" transform="translate(-2.37 -24.39)"/><path class="cls-2" d="M296.63,205.35a13.25,13.25,0,0,1,.82-3.48,13.4,13.4,0,0,1,1.29-3.34,13.13,13.13,0,0,1-.83,3.48A13.84,13.84,0,0,1,296.63,205.35Z" transform="translate(-2.37 -24.39)"/><path class="cls-2" d="M300.11,217.91a9.71,9.71,0,0,1-3.54-1.63,9.89,9.89,0,0,1-2.95-2.54c.1-.1,1.43,1,3.21,2.14S300.17,217.78,300.11,217.91Z" transform="translate(-2.37 -24.39)"/><path class="cls-2" d="M279,187.89a19.83,19.83,0,0,1,2-3.82,19.58,19.58,0,0,1,2.46-3.57,19.83,19.83,0,0,1-2,3.82A19.58,19.58,0,0,1,279,187.89Z" transform="translate(-2.37 -24.39)"/><path class="cls-2" d="M257.91,208.17a25.9,25.9,0,0,1-5-.72,26.52,26.52,0,0,1-4.94-1.2,27.44,27.44,0,0,1,5,.73A27,27,0,0,1,257.91,208.17Z" transform="translate(-2.37 -24.39)"/><rect class="cls-3" x="321.84" y="101.91" width="68.49" height="51.87"/><rect class="cls-9" x="372.15" y="114.12" width="8" height="31.86"/><rect class="cls-9" x="358.99" y="111.7" width="8" height="34.27"/><rect class="cls-9" x="346.23" y="115.95" width="8" height="30.03"/><rect class="cls-21" x="346.23" y="115.95" width="8" height="30.03"/><rect class="cls-9" x="333.28" y="120.64" width="8" height="25.34"/><rect class="cls-9" x="372.15" y="114.12" width="8" height="31.86"/><path class="cls-5" d="M388.59,170.48c0,.14-13.16.24-29.38.24s-29.37-.1-29.37-.24,13.15-.24,29.37-.24S388.59,170.35,388.59,170.48Z" transform="translate(-2.37 -24.39)"/><path class="cls-5" d="M385.25,140.48c0,.05-.92-.12-2.57,0a15.19,15.19,0,0,0-6.6,2,14.1,14.1,0,0,0-3.67,3c-1.15,1.29-2.17,2.84-3.39,4.39a12.71,12.71,0,0,1-4.73,4,17.11,17.11,0,0,1-6.52,1.28c-2.27.08-4.47,0-6.59.07a30.35,30.35,0,0,0-6,.82,18,18,0,0,0-5,2.1,13,13,0,0,0-3.52,3.18,11.21,11.21,0,0,0-2.37,6.39,15.6,15.6,0,0,0,.26,2.54,7,7,0,0,1-.45-2.54,11.19,11.19,0,0,1,2.29-6.59,13.06,13.06,0,0,1,3.58-3.32,18,18,0,0,1,5.15-2.19,30.61,30.61,0,0,1,6.12-.86c2.14-.11,4.35,0,6.6-.08a16.77,16.77,0,0,0,6.34-1.23,12.35,12.35,0,0,0,4.57-3.84c1.21-1.52,2.26-3.07,3.44-4.38a14.57,14.57,0,0,1,3.81-3,14.79,14.79,0,0,1,6.76-1.85,15.11,15.11,0,0,1,1.91.09A3.42,3.42,0,0,1,385.25,140.48Z" transform="translate(-2.37 -24.39)"/><path class="cls-5" d="M324.88,148.19a2.24,2.24,0,0,1-.42,0h-1.25l-4.72,0-16.89-.27h-.2v-.2c0-7.18,0-15.69,0-24.8,0-13.26.05-25.27.07-34,0-4.33.06-7.84.07-10.31,0-1.19,0-2.12.05-2.8l0-.73a.87.87,0,0,1,0-.25,1.27,1.27,0,0,1,0,.25l0,.73c0,.68,0,1.61,0,2.8,0,2.47,0,6,.08,10.31,0,8.73,0,20.74.07,34,0,9.11,0,17.62,0,24.8l-.2-.21,16.88.45,4.72.16,1.25.05Z" transform="translate(-2.37 -24.39)"/><path class="cls-5" d="M425.12,108.77a4.13,4.13,0,0,1-.6,0l-1.73,0-6.36.08-21,.07-12.16,0,.22-.22c0,5.13-.07,9.5-.09,12.64,0,1.5-.05,2.71-.06,3.61,0,.38,0,.69,0,1a1.39,1.39,0,0,1,0,.33,1.06,1.06,0,0,1,0-.33c0-.26,0-.57,0-1,0-.9,0-2.11-.06-3.61,0-3.14-.06-7.51-.09-12.64v-.22h.22l12.16,0,21,.07,6.36.07,1.73,0A2.87,2.87,0,0,1,425.12,108.77Z" transform="translate(-2.37 -24.39)"/><path class="cls-5" d="M324.2,165.72a1.19,1.19,0,0,1-.33,0l-1,0h-3.74l-13.75-.05-45.36-.34L224,165h-.13l0-.11c-3.32-7.78-6.08-14.22-8-18.76-.95-2.23-1.69-4-2.21-5.23-.24-.58-.42-1-.56-1.38a2.62,2.62,0,0,1-.18-.48,3,3,0,0,1,.23.46c.16.33.36.78.62,1.36.55,1.22,1.32,3,2.31,5.18,2,4.52,4.78,10.94,8.17,18.69l-.18-.12,36.09.28,45.36.48,13.75.2,3.74.08,1,0A1.39,1.39,0,0,1,324.2,165.72Z" transform="translate(-2.37 -24.39)"/><path class="cls-4" d="M230.61,165a4.2,4.2,0,1,1-4.2-4.2A4.2,4.2,0,0,1,230.61,165Z" transform="translate(-2.37 -24.39)"/><path class="cls-6" d="M215.8,140.84H190.52a6.41,6.41,0,0,1-6.41-6.41h0a6.41,6.41,0,0,1,6.41-6.41H215.8a6.41,6.41,0,0,1,6.41,6.41h0A6.41,6.41,0,0,1,215.8,140.84Z" transform="translate(-2.37 -24.39)"/><rect class="cls-3" x="198.09" y="45.68" width="58.88" height="39.09"/><rect class="cls-9" x="230.29" y="57.46" width="39.1" height="15.52"/><path class="cls-4" d="M225.44,82.53a88.32,88.32,0,0,1-9.15.24,88.32,88.32,0,0,1-9.15-.24,85.09,85.09,0,0,1,9.15-.24A85.09,85.09,0,0,1,225.44,82.53Z" transform="translate(-2.37 -24.39)"/><path class="cls-4" d="M225.44,85.36a88.32,88.32,0,0,1-9.15.24,88.32,88.32,0,0,1-9.15-.24,88.32,88.32,0,0,1,9.15-.24A88.32,88.32,0,0,1,225.44,85.36Z" transform="translate(-2.37 -24.39)"/><path class="cls-4" d="M225.44,88.2a88.32,88.32,0,0,1-9.15.24,88.32,88.32,0,0,1-9.15-.24,88.32,88.32,0,0,1,9.15-.24A88.32,88.32,0,0,1,225.44,88.2Z" transform="translate(-2.37 -24.39)"/><path class="cls-4" d="M225.44,91a85.09,85.09,0,0,1-9.15.24,85.09,85.09,0,0,1-9.15-.24,88.32,88.32,0,0,1,9.15-.24A88.32,88.32,0,0,1,225.44,91Z" transform="translate(-2.37 -24.39)"/><path class="cls-4" d="M225.44,93.87a88.32,88.32,0,0,1-9.15.24,88.32,88.32,0,0,1-9.15-.24,88.32,88.32,0,0,1,9.15-.24A88.32,88.32,0,0,1,225.44,93.87Z" transform="translate(-2.37 -24.39)"/><path class="cls-4" d="M217.89,96.71a30.67,30.67,0,0,1-5.38.24,30.59,30.59,0,0,1-5.37-.24,29.48,29.48,0,0,1,5.37-.24A29.55,29.55,0,0,1,217.89,96.71Z" transform="translate(-2.37 -24.39)"/><path class="cls-4" d="M258.87,75.81c0,.13-13.08.24-29.21.24s-29.2-.11-29.2-.24,13.07-.24,29.2-.24S258.87,75.68,258.87,75.81Z" transform="translate(-2.37 -24.39)"/><path class="cls-5" d="M364.73,111.52a2.73,2.73,0,0,1,0-.43c0-.3,0-.7,0-1.19,0-1.07,0-2.58-.06-4.47,0-3.86-.06-9.3-.1-15.81l.21.2-21.9,0c-.06,0,.45-.46.24-.24h0v3c0,1,0,2,0,2.92v5.67c0,3.67,0,7.14,0,10.33l-.2-.21,15.81.1,4.47.06,1.19,0,.43,0-.38,0-1.15,0-4.43.06-15.94.1h-.21v-.21c0-3.19,0-6.66,0-10.33V89.64h0l.24-.24,21.9,0h.21v.21c0,6.56-.08,12-.1,15.94,0,1.87,0,3.36-.06,4.42,0,.48,0,.86,0,1.16S364.73,111.52,364.73,111.52Z" transform="translate(-2.37 -24.39)"/><rect class="cls-4" x="366.84" y="55.85" width="10.95" height="10.95"/><path class="cls-6" d="M453.94,115.18H428.66a6.41,6.41,0,0,1-6.41-6.41h0a6.41,6.41,0,0,1,6.41-6.41h25.28a6.41,6.41,0,0,1,6.41,6.41h0A6.41,6.41,0,0,1,453.94,115.18Z" transform="translate(-2.37 -24.39)"/><circle class="cls-4" cx="380.8" cy="84.46" r="4.2"/><circle class="cls-4" cx="299.7" cy="122.73" r="4.2"/><rect class="cls-6" x="280.19" y="45.01" width="38.1" height="12.82" rx="6.41"/></svg>