<svg id="Layer_1" data-name="Layer 1" xmlns="http://www.w3.org/2000/svg" viewBox="0 0 622.45 385.91"><defs><style>.cls-1{fill:#ebebeb;}.cls-2{fill:#fafafa;}.cls-3{fill:#f5f5f5;}.cls-4{fill:#e0e0e0;}.cls-5{fill:#263238;}.cls-6{fill:#455a64;}.cls-7{fill:#e8505b;}.cls-8,.cls-9{opacity:0.2;}.cls-10{fill:#ffbe9d;}.cls-11{fill:#eb996e;}</style></defs><rect class="cls-1" x="19.94" y="33.07" width="106.26" height="190.89"/><rect class="cls-2" x="24.19" y="38.61" width="96.68" height="179.67"/><polygon class="cls-3" points="120.86 40.73 24.19 163.7 24.19 38.61 120.86 38.61 120.86 40.73"/><rect class="cls-1" x="24.19" y="90.3" width="98.78" height="1.91"/><rect class="cls-1" x="24.19" y="133.08" width="98.78" height="1.91"/><rect class="cls-1" x="24.19" y="175.87" width="98.78" height="1.91"/><rect class="cls-1" x="6.99" y="170.06" width="132.12" height="4.88" transform="translate(-99.98 230.37) rotate(-90)"/><rect class="cls-1" x="42.8" y="38.61" width="2.21" height="52.64"/><rect class="cls-1" x="61.89" y="38.61" width="2.21" height="52.64"/><rect class="cls-1" x="80.97" y="38.61" width="2.21" height="52.64"/><rect class="cls-1" x="100.06" y="38.61" width="2.21" height="52.64"/><rect class="cls-3" x="15.45" y="29.84" width="4.49" height="195.31"/><polygon class="cls-4" points="130.7 225.69 126.2 223.97 126.2 29.84 130.7 29.84 130.7 225.69"/><rect class="cls-4" x="15.45" y="27.87" width="115.25" height="5.21"/><rect class="cls-4" x="12.26" y="226.33" width="121.48" height="4.85"/><polygon class="cls-1" points="126.2 223.97 133.74 226.33 12.26 226.33 19.94 223.97 126.2 223.97"/><path class="cls-1" d="M583.83,167.26s-7.51-.54-6.82,16.31,2.41,25.83,2.41,25.83-.22,3.73-3.11,3-8.34-4.37-11-1.65-1.8,7.14,1.9,12.23,11.39,16.55,12.08,17.59,1,2.93-1.1,2.74-15.89-4.87-17.72,1.83,10.8,19.2,12.15,20.59,1.43,2.27.88,3.11-5.05-1.17-9.05-2.35-8.82-1.83-9.56,2.13,4.83,15.53,25.67,27.69l10,5,9.48-6.05c19.52-14.19,23.9-26.27,22.77-30.13s-5.87-2.72-9.72-1.15-8.14,4-8.77,3.24-.64-1.67.57-3.19,12.52-15.22,10-21.7-15.8-.43-17.82-.05-2-1.54-1.37-2.62S602.82,226.4,606,221s3.73-9.84.67-12.37-8,1.73-10.8,2.75-3.4-2.68-3.4-2.68.81-9.1-.19-25.93-8.59-15.48-8.59-15.48" transform="translate(-0.52 -15.19)"/><path class="cls-4" d="M584.42,182.35s0,.12,0,.36l.08,1c.06.93.16,2.27.27,4,.23,3.45.53,8.46.87,14.64.69,12.37,1.49,29.46,2.31,48.33s1.59,36,2.21,48.34c.31,6.17.56,11.17.74,14.65.09,1.72.15,3.05.2,4,0,.44,0,.79,0,1a3.09,3.09,0,0,1,0,.35s0-.12,0-.35,0-.59-.08-1c-.06-.93-.15-2.27-.27-4-.23-3.46-.52-8.46-.86-14.64-.69-12.37-1.5-29.46-2.32-48.34s-1.58-36-2.2-48.34c-.32-6.17-.57-11.17-.75-14.64-.08-1.72-.15-3.06-.2-4,0-.44,0-.78,0-1Z" transform="translate(-0.52 -15.19)"/><path class="cls-4" d="M572.69,216.14a3.25,3.25,0,0,1,.62.52c.39.35.93.87,1.59,1.53,1.33,1.31,3.11,3.17,5,5.25l4.9,5.37,1.5,1.62a3.25,3.25,0,0,1,.52.62,4.12,4.12,0,0,1-.63-.52c-.38-.35-.93-.87-1.58-1.54-1.31-1.32-3.07-3.2-5-5.29l-4.94-5.32-1.5-1.62A3.25,3.25,0,0,1,572.69,216.14Z" transform="translate(-0.52 -15.19)"/><path class="cls-4" d="M587.84,230.71c-.07-.07,3.59-3.91,8.19-8.57s8.39-8.38,8.46-8.31-3.59,3.92-8.19,8.58S587.92,230.79,587.84,230.71Z" transform="translate(-0.52 -15.19)"/><path class="cls-4" d="M587.8,259.76a3.77,3.77,0,0,1,.7-.44l2-1.1c1.66-.93,3.94-2.22,6.4-3.74s4.66-2.95,6.24-4l1.87-1.24a3.19,3.19,0,0,1,.71-.43,3.22,3.22,0,0,1-.63.55c-.41.33-1,.79-1.8,1.35-1.54,1.11-3.71,2.59-6.19,4.11s-4.78,2.78-6.47,3.65c-.85.43-1.54.77-2,1A2.71,2.71,0,0,1,587.8,259.76Z" transform="translate(-0.52 -15.19)"/><path class="cls-4" d="M571.19,249.6a2.92,2.92,0,0,1,.7.32l1.81,1c1.53.87,3.63,2.09,5.93,3.46s4.37,2.63,5.86,3.55l1.76,1.12a2.71,2.71,0,0,1,.61.45,2.67,2.67,0,0,1-.69-.32l-1.82-1c-1.52-.87-3.62-2.09-5.92-3.46s-4.37-2.63-5.86-3.55l-1.76-1.12A3.42,3.42,0,0,1,571.19,249.6Z" transform="translate(-0.52 -15.19)"/><path class="cls-4" d="M567.9,275.24a4.9,4.9,0,0,1,.88.43l2.33,1.28c2,1.1,4.66,2.65,7.63,4.37s5.64,3.31,7.57,4.47l2.27,1.4a5.29,5.29,0,0,1,.81.55,5,5,0,0,1-.89-.42c-.61-.35-1.39-.78-2.33-1.29-2-1.1-4.66-2.65-7.62-4.37s-5.65-3.31-7.57-4.47l-2.27-1.39A5,5,0,0,1,567.9,275.24Z" transform="translate(-0.52 -15.19)"/><path class="cls-4" d="M589,287.3a4.9,4.9,0,0,1,.87-.59l2.44-1.48c2.05-1.25,4.89-3,8-5s5.82-3.89,7.8-5.26l2.34-1.63a5.59,5.59,0,0,1,.89-.56,6.31,6.31,0,0,1-.8.68c-.53.42-1.3,1-2.27,1.73-1.94,1.43-4.66,3.35-7.75,5.36s-5.94,3.72-8,4.91c-1,.6-1.9,1.07-2.5,1.38A5.58,5.58,0,0,1,589,287.3Z" transform="translate(-0.52 -15.19)"/><polygon class="cls-4" points="603.5 289.41 575.76 289.41 584.82 357.93 594.45 357.93 603.5 289.41"/><path class="cls-3" d="M577.73,313s0,.1.15.25a1.74,1.74,0,0,0,.67.47,3.35,3.35,0,0,0,2.93-.36c1.12-.61,2.09-1.83,3.59-2.36a7.84,7.84,0,0,1,5.1.1,21.82,21.82,0,0,1,4.75,2.3,32,32,0,0,0,3.86,2.07,10.45,10.45,0,0,0,2.85.82,5.66,5.66,0,0,0,.81.06.9.9,0,0,0,.28,0,14.55,14.55,0,0,1-3.81-1.15,36.46,36.46,0,0,1-3.77-2.14,21.3,21.3,0,0,0-4.83-2.37,8.11,8.11,0,0,0-5.39-.06,7.12,7.12,0,0,0-2,1.25,16.41,16.41,0,0,1-1.59,1.23,3.26,3.26,0,0,1-2.7.47A2.64,2.64,0,0,1,577.73,313Z" transform="translate(-0.52 -15.19)"/><path class="cls-3" d="M578.74,325.64s.22-.28.65-.73a6.29,6.29,0,0,1,2.22-1.41,9.81,9.81,0,0,1,3.86-.58,40.36,40.36,0,0,1,4.82.66,16.32,16.32,0,0,0,4.94.2,13.39,13.39,0,0,0,3.89-1.11,12.24,12.24,0,0,0,2.34-1.39,3.62,3.62,0,0,0,.74-.66,25.35,25.35,0,0,1-3.21,1.76,14.26,14.26,0,0,1-3.81,1,17,17,0,0,1-4.82-.24,35.69,35.69,0,0,0-4.88-.63,9.93,9.93,0,0,0-4,.7,6,6,0,0,0-2.23,1.59,4.25,4.25,0,0,0-.42.61C578.76,325.55,578.73,325.63,578.74,325.64Z" transform="translate(-0.52 -15.19)"/><path class="cls-3" d="M600.88,332.4a2.18,2.18,0,0,0-.76-.4,8.44,8.44,0,0,0-2.3-.49,14.36,14.36,0,0,0-3.48.2c-1.29.21-2.68.56-4.13.87a17.16,17.16,0,0,1-4.13.47,9.09,9.09,0,0,1-3.28-.71,7.64,7.64,0,0,1-2.49-1.85,2.38,2.38,0,0,0,.47.72,5.92,5.92,0,0,0,1.88,1.42,8.93,8.93,0,0,0,3.4.84,16.74,16.74,0,0,0,4.24-.45c1.47-.31,2.85-.68,4.12-.9a15.68,15.68,0,0,1,3.38-.29A12.26,12.26,0,0,1,600.88,332.4Z" transform="translate(-0.52 -15.19)"/><path class="cls-3" d="M581.19,341.9a4.43,4.43,0,0,1,2.69-.27,12.76,12.76,0,0,1,2.82,1.05,10.84,10.84,0,0,0,3.66,1,11,11,0,0,0,6.63-1.54,9.54,9.54,0,0,0,1.65-1.27,2.54,2.54,0,0,0,.49-.59,21.53,21.53,0,0,1-2.3,1.58,11.37,11.37,0,0,1-6.43,1.37c-2.63-.15-4.64-1.72-6.46-1.93a4.22,4.22,0,0,0-2.09.18A1.45,1.45,0,0,0,581.19,341.9Z" transform="translate(-0.52 -15.19)"/><path class="cls-3" d="M582.74,355.05a5.26,5.26,0,0,0,2.31-.46c1.39-.46,3.12-1.53,5.13-2.33a8.18,8.18,0,0,1,3-.62,5.38,5.38,0,0,1,2.37.54,5.23,5.23,0,0,1,1.71,1.48,1.19,1.19,0,0,0-.26-.59,3.81,3.81,0,0,0-1.3-1.17,5.46,5.46,0,0,0-2.51-.68,8.44,8.44,0,0,0-3.12.61c-2.09.84-3.76,1.94-5.09,2.46S582.73,355,582.74,355.05Z" transform="translate(-0.52 -15.19)"/><path class="cls-3" d="M584.1,361.17a6.09,6.09,0,0,0,1.75.57,31,31,0,0,0,4.39.74,32.31,32.31,0,0,0,4.45.13,6.27,6.27,0,0,0,1.84-.22c0-.13-2.82,0-6.24-.36S584.13,361,584.1,361.17Z" transform="translate(-0.52 -15.19)"/><rect class="cls-4" x="502.13" y="40.93" width="85.63" height="56.3"/><rect class="cls-2" x="505.11" y="43.23" width="79.63" height="51.48"/><rect class="cls-4" x="531.93" y="61.99" width="25.98" height="14.17"/><path class="cls-5" d="M612.35,374c0,.12-137,.23-305.9.23S.52,374.15.52,374s137-.24,305.93-.24S612.35,373.9,612.35,374Z" transform="translate(-0.52 -15.19)"/><path class="cls-1" d="M230.46,0H413.84a0,0,0,0,1,0,0V172.84a16.22,16.22,0,0,1-16.22,16.22H230.46a0,0,0,0,1,0,0V0A0,0,0,0,1,230.46,0Z"/><path class="cls-6" d="M399.22,71.46c0,.38-33.14.69-74,.69s-74-.31-74-.69,33.14-.69,74-.69S399.22,71.08,399.22,71.46Z" transform="translate(-0.52 -15.19)"/><path class="cls-6" d="M326.08,84.27c0,.38-16.38.69-36.57.69s-36.58-.31-36.58-.69,16.37-.7,36.58-.7S326.08,83.88,326.08,84.27Z" transform="translate(-0.52 -15.19)"/><path class="cls-6" d="M355.33,83.08c0,.38-4.33.7-9.68.7s-9.69-.32-9.69-.7,4.34-.69,9.69-.69S355.33,82.7,355.33,83.08Z" transform="translate(-0.52 -15.19)"/><path class="cls-6" d="M403.17,82.29c0,.38-8.58.69-19.17.69s-19.18-.31-19.18-.69,8.59-.69,19.18-.69S403.17,81.91,403.17,82.29Z" transform="translate(-0.52 -15.19)"/><path class="cls-6" d="M320,96.52c0,.39-15.4.7-34.4.7s-34.4-.31-34.4-.7,15.4-.69,34.4-.69S320,96.14,320,96.52Z" transform="translate(-0.52 -15.19)"/><path class="cls-6" d="M403.17,96.17c0,.38-16.81.69-37.55.69s-37.57-.31-37.57-.69,16.82-.69,37.57-.69S403.17,95.79,403.17,96.17Z" transform="translate(-0.52 -15.19)"/><path class="cls-6" d="M403.17,108.5c0,.39-7.48.7-16.72.7s-16.72-.31-16.72-.7,7.48-.69,16.72-.69S403.17,108.12,403.17,108.5Z" transform="translate(-0.52 -15.19)"/><path class="cls-7" d="M334,57.73c0,.39-18.14.7-40.52.7s-40.53-.31-40.53-.7S271.07,57,293.46,57,334,57.35,334,57.73Z" transform="translate(-0.52 -15.19)"/><rect class="cls-5" x="78.21" y="105.9" width="380.93" height="251.9" rx="14.57"/><path class="cls-5" d="M62.81,339.17h412.7a0,0,0,0,1,0,0v4.24a17.8,17.8,0,0,1-17.8,17.8H80.61a17.8,17.8,0,0,1-17.8-17.8v-4.24a0,0,0,0,1,0,0Z"/><rect class="cls-6" x="88.97" y="115.91" width="359.41" height="212.73"/><path class="cls-6" d="M232.18,354.36h1.61l4.69,0,17.41-.07,58.23-.13h.43l-.22.37-2.31,4-2.44,4.19-.07.12h-.14l-72.07-.13h-.06l0-.05-3.78-6.14c-.41-.67-.72-1.19-.94-1.56l-.31-.51.36.54,1,1.56,3.85,6-.1-.06,72.07-.13-.22.12,2.45-4.18,2.31-4,.21.37-58-.13-17.49-.07-4.77,0h-1.69Z" transform="translate(-0.52 -15.19)"/><line class="cls-5" x1="78.21" y1="339.17" x2="459.14" y2="339.17"/><path class="cls-6" d="M459.66,354.36c0,.13-85.28.23-190.45.23s-190.47-.1-190.47-.23,85.26-.23,190.47-.23S459.66,354.23,459.66,354.36Z" transform="translate(-0.52 -15.19)"/><path class="cls-5" d="M362.45,88.61h0a10.65,10.65,0,0,1,10.64,10.64v21.84H341.27V100.94A12.33,12.33,0,0,1,353.6,88.61Z" transform="translate(-0.52 -15.19)"/><path class="cls-5" d="M362.45,88.61c0,.13-30,.21-67.05.18s-67-.17-67-.3,30-.2,67-.17S362.45,88.48,362.45,88.61Z" transform="translate(-0.52 -15.19)"/><path class="cls-2" d="M362.17,88.59l-13.27-.1-19.28.12H188a21.77,21.77,0,0,0-21.77,21.77v234H349.63V100.55C350.17,88.61,362.17,88.59,362.17,88.59Z" transform="translate(-0.52 -15.19)"/><path class="cls-5" d="M362.17,88.59l-110.57.24-55.29,0H189.4c-1.16,0-2.29,0-3.43.11a22.42,22.42,0,0,0-3.35.61A21.41,21.41,0,0,0,168,102.74c-.18.54-.42,1.06-.55,1.61L167,106a24.29,24.29,0,0,0-.4,3.39c-.1,4.58,0,9.2,0,13.8l.15,221.14-.44-.44,183.37.12-.32.32.09-131.52.1-65.76.07-32.87V101.85a14.2,14.2,0,0,1,.09-2.06,10.73,10.73,0,0,1,.32-2,10.88,10.88,0,0,1,4.44-6.69,12.72,12.72,0,0,1,3.69-1.78A15.42,15.42,0,0,1,362.17,88.59Zm0,0a15.44,15.44,0,0,0-4,.71,12.92,12.92,0,0,0-3.67,1.8,10.8,10.8,0,0,0-4.4,6.68,11.33,11.33,0,0,0-.31,2,14,14,0,0,0-.08,2V106l0,8.22.06,32.88.11,65.76L350,344.33v.33h-.33l-183.37.12h-.45v-.45L166,123.19c0-4.61,0-9.2.06-13.83a23.82,23.82,0,0,1,.42-3.47l.43-1.69a16.25,16.25,0,0,1,.57-1.66,21.88,21.88,0,0,1,15.05-13.46,21.09,21.09,0,0,1,3.43-.62c1.17-.07,2.34-.13,3.48-.11h6.91l55.29,0Z" transform="translate(-0.52 -15.19)"/><path class="cls-7" d="M193.88,130.71h32l.05,10.71H224.4q-.75-5.74-4.31-7.78a13.35,13.35,0,0,0-6-1.22v28c0,2,.34,3.25,1,3.89s2.1,1,4.27,1v1.35H200.47v-1.35c2.08,0,3.46-.32,4.14-1s1-1.94,1-3.88v-28a13.68,13.68,0,0,0-6,1.22q-3.82,2.09-4.31,7.78h-1.53Z" transform="translate(-0.52 -15.19)"/><path class="cls-7" d="M324.47,133.12c0,.39-17.65.7-39.42.7s-39.43-.31-39.43-.7,17.65-.69,39.43-.69S324.47,132.74,324.47,133.12Z" transform="translate(-0.52 -15.19)"/><path class="cls-6" d="M277.69,145.72c0,.38-6.82.69-15.24.69s-15.25-.31-15.25-.69S254,145,262.45,145,277.69,145.34,277.69,145.72Z" transform="translate(-0.52 -15.19)"/><path class="cls-6" d="M239.27,184.15c0,.38-13,.69-29,.69s-28.95-.31-28.95-.69,13-.7,28.95-.7S239.27,183.76,239.27,184.15Z" transform="translate(-0.52 -15.19)"/><path class="cls-7" d="M304.83,184.15c0,.38-13,.69-28.95.69s-28.95-.31-28.95-.69,13-.7,28.95-.7S304.83,183.76,304.83,184.15Z" transform="translate(-0.52 -15.19)"/><path class="cls-6" d="M239.27,194.41c0,.38-13,.69-29,.69s-28.95-.31-28.95-.69,13-.69,28.95-.69S239.27,194,239.27,194.41Z" transform="translate(-0.52 -15.19)"/><path class="cls-7" d="M239.27,204.67c0,.39-13,.7-29,.7s-28.95-.31-28.95-.7,13-.69,28.95-.69S239.27,204.29,239.27,204.67Z" transform="translate(-0.52 -15.19)"/><path class="cls-6" d="M277.69,166.62c0,.39-6.82.7-15.24.7s-15.25-.31-15.25-.7,6.83-.69,15.25-.69S277.69,166.24,277.69,166.62Z" transform="translate(-0.52 -15.19)"/><path class="cls-6" d="M330.56,184.15c0,.38-4.55.69-10.16.69s-10.16-.31-10.16-.69,4.55-.7,10.16-.7S330.56,183.76,330.56,184.15Z" transform="translate(-0.52 -15.19)"/><path class="cls-6" d="M336,145.72c0,.38-11.71.69-26.15.69s-26.16-.31-26.16-.69,11.71-.69,26.16-.69S336,145.34,336,145.72Z" transform="translate(-0.52 -15.19)"/><path class="cls-6" d="M333.64,155.73c0,.38-19.35.69-43.22.69s-43.22-.31-43.22-.69,19.35-.7,43.22-.7S333.64,155.34,333.64,155.73Z" transform="translate(-0.52 -15.19)"/><path class="cls-6" d="M330.56,194.41c0,.38-18.72.69-41.81.69s-41.82-.31-41.82-.69,18.72-.69,41.82-.69S330.56,194,330.56,194.41Z" transform="translate(-0.52 -15.19)"/><path class="cls-7" d="M330.56,224.12c0,.38-17.57.69-39.23.69s-39.24-.31-39.24-.69,17.56-.69,39.24-.69S330.56,223.74,330.56,224.12Z" transform="translate(-0.52 -15.19)"/><path class="cls-6" d="M330.56,234.11c0,.38-17.57.69-39.23.69s-39.24-.31-39.24-.69,17.56-.7,39.24-.7S330.56,233.72,330.56,234.11Z" transform="translate(-0.52 -15.19)"/><path class="cls-6" d="M330.56,244.1c0,.38-17.57.69-39.23.69s-39.24-.31-39.24-.69,17.56-.7,39.24-.7S330.56,243.71,330.56,244.1Z" transform="translate(-0.52 -15.19)"/><path class="cls-6" d="M330.56,254.08c0,.39-17.57.7-39.23.7s-39.24-.31-39.24-.7,17.56-.69,39.24-.69S330.56,253.7,330.56,254.08Z" transform="translate(-0.52 -15.19)"/><path class="cls-6" d="M297.26,264.07c0,.19-2.52.37-6.61.49s-9.74.21-16,.21-11.89-.08-16-.21-6.61-.3-6.61-.49,2.52-.36,6.61-.49,9.74-.2,16-.2,11.88.08,16,.2S297.26,263.88,297.26,264.07Z" transform="translate(-0.52 -15.19)"/><path class="cls-6" d="M316.34,205.21c0,.38-15.13.69-33.79.69s-33.8-.31-33.8-.69,15.13-.69,33.8-.69S316.34,204.83,316.34,205.21Z" transform="translate(-0.52 -15.19)"/><polygon class="cls-4" points="237.37 210.06 241.53 287.15 166.15 296.59 166.09 209.4 237.37 210.06"/><rect class="cls-3" x="150.28" y="209.97" width="81.79" height="102.3" transform="translate(-71.7 435.42) rotate(-89.63)"/><rect class="cls-7" x="155.36" y="213.56" width="71.49" height="95.11" transform="translate(-71.76 435.36) rotate(-89.63)"/><g class="cls-8"><polygon points="142.8 281.37 176.3 237.15 196.7 265.08 210.75 250.31 237.91 281.98 142.8 281.37"/></g><g class="cls-8"><path d="M206.18,247.08a7.49,7.49,0,1,1-7.45-7.53A7.49,7.49,0,0,1,206.18,247.08Z" transform="translate(-0.52 -15.19)"/></g><path class="cls-5" d="M251.91,321.64a1.58,1.58,0,1,1-1.58-1.58A1.58,1.58,0,0,1,251.91,321.64Z" transform="translate(-0.52 -15.19)"/><path class="cls-5" d="M261.3,321.64a1.58,1.58,0,1,1-1.58-1.58A1.58,1.58,0,0,1,261.3,321.64Z" transform="translate(-0.52 -15.19)"/><path class="cls-5" d="M270.69,321.64a1.59,1.59,0,1,1-1.58-1.58A1.58,1.58,0,0,1,270.69,321.64Z" transform="translate(-0.52 -15.19)"/><path class="cls-7" d="M305.27,284.88c0,.39-13,.7-28.95.7s-28.95-.31-28.95-.7,13-.69,28.95-.69S305.27,284.5,305.27,284.88Z" transform="translate(-0.52 -15.19)"/><path class="cls-6" d="M331,295.15c0,.38-18.72.69-41.81.69s-41.82-.31-41.82-.69,18.72-.7,41.82-.7S331,294.76,331,295.15Z" transform="translate(-0.52 -15.19)"/><rect class="cls-3" x="521.01" y="306.26" width="49.27" height="61.62" transform="translate(204.55 865.35) rotate(-89.63)"/><rect class="cls-7" x="524.07" y="308.43" width="43.06" height="57.29" transform="translate(204.51 865.31) rotate(-89.63)"/><polygon class="cls-9" points="516.3 343.23 536.48 316.59 548.77 333.42 557.23 324.52 573.59 343.6 516.3 343.23"/><g class="cls-8"><path d="M554.68,328.62a4.51,4.51,0,1,1-4.48-4.54A4.5,4.5,0,0,1,554.68,328.62Z" transform="translate(-0.52 -15.19)"/></g><rect class="cls-3" x="511.98" y="301.12" width="49.27" height="61.62" transform="translate(200.71 851.2) rotate(-89.63)"/><rect class="cls-7" x="515.04" y="303.28" width="43.06" height="57.29" transform="translate(200.67 851.16) rotate(-89.63)"/><polygon class="cls-9" points="507.26 338.09 527.44 311.45 539.73 328.27 548.2 319.38 564.55 338.45 507.26 338.09"/><g class="cls-8"><path d="M545.65,323.47a4.52,4.52,0,1,1-4.49-4.54A4.53,4.53,0,0,1,545.65,323.47Z" transform="translate(-0.52 -15.19)"/></g><rect class="cls-3" x="503.93" y="296.87" width="49.27" height="61.62" transform="translate(196.97 838.93) rotate(-89.63)"/><rect class="cls-7" x="506.99" y="299.03" width="43.06" height="57.29" transform="translate(196.93 838.89) rotate(-89.63)"/><polygon class="cls-9" points="499.21 333.83 519.39 307.2 531.68 324.02 540.15 315.12 556.5 334.2 499.21 333.83"/><g class="cls-8"><path d="M537.6,319.22a4.51,4.51,0,1,1-4.48-4.54A4.51,4.51,0,0,1,537.6,319.22Z" transform="translate(-0.52 -15.19)"/></g><rect class="cls-3" x="494.89" y="302.16" width="49.27" height="61.62" transform="translate(182.7 835.16) rotate(-89.63)"/><rect class="cls-6" x="497.95" y="304.32" width="43.06" height="57.29" transform="translate(182.66 835.11) rotate(-89.63)"/><polygon class="cls-9" points="490.18 339.13 510.36 312.49 522.65 329.31 531.11 320.42 547.47 339.49 490.18 339.13"/><g class="cls-8"><path d="M528.56,324.51a4.51,4.51,0,1,1-4.48-4.54A4.52,4.52,0,0,1,528.56,324.51Z" transform="translate(-0.52 -15.19)"/></g><rect class="cls-5" x="549.97" y="311.27" width="35.58" height="47.57"/><path class="cls-7" d="M482.36,326.46V374h71.15V326.46Zm43.14,11.26H510.37a3.28,3.28,0,0,1,0-6.55H525.5a3.28,3.28,0,0,1,0,6.55Z" transform="translate(-0.52 -15.19)"/><path class="cls-6" d="M436.22,369.05,370.06,365c-.42-.94-.7-1.5-.7-1.5l-17.93.36-5.83-.36-.23.48-60.2,1.2c-12,0-24.62,7.32-24.62,16.68-.15,8.9,4.16,18.57,14.91,18.35l82-.27,82,.27c10.75.22,13.59-6.26,13.61-14C454.37,371.93,445.39,369.17,436.22,369.05Z" transform="translate(-0.52 -15.19)"/><path class="cls-5" d="M283,400.22l.4,0,1.16,0,4.46,0,16.51-.07,55.07-.07-.23.24c-.12-1.8-.24-3.72-.36-5.66-.24-4-.49-7.87-.72-11.58l.21.21-50.74-5.65-15-1.72-4.05-.48-1.05-.14a1.68,1.68,0,0,1-.35-.06l.36,0,1.05.09,4.06.41,15.05,1.58,50.75,5.49.19,0V383c.23,3.71.48,7.61.72,11.58.13,1.94.25,3.86.36,5.66v.25h-.24l-55.07-.08L289,400.3l-4.46,0-1.16,0Z" transform="translate(-0.52 -15.19)"/><path class="cls-5" d="M299.9,376.69c0,.06-.87-.6-2.32-1.48a25,25,0,0,0-6-2.65,25.29,25.29,0,0,0-6.51-1c-1.69,0-2.74.1-2.75,0s.25-.09.72-.17a14.31,14.31,0,0,1,2-.19,21.74,21.74,0,0,1,12.71,3.66,16.08,16.08,0,0,1,1.62,1.23C299.73,376.48,299.92,376.66,299.9,376.69Z" transform="translate(-0.52 -15.19)"/><path class="cls-5" d="M431.09,373.17c0,.12-13,3.28-29.15,7.05s-29.22,6.72-29.25,6.59,13-3.28,29.15-7S431.06,373,431.09,373.17Z" transform="translate(-0.52 -15.19)"/><path class="cls-5" d="M420.05,371.89a26.51,26.51,0,0,0-5.11,2.45,26.07,26.07,0,0,0-4.16,3.86,4.78,4.78,0,0,1,.89-1.45,13.85,13.85,0,0,1,3-2.79,13.26,13.26,0,0,1,3.7-1.77A4.55,4.55,0,0,1,420.05,371.89Z" transform="translate(-0.52 -15.19)"/><path class="cls-10" d="M395.42,296.77l21,36.49a15.5,15.5,0,0,1,.43,14.65h0a15.52,15.52,0,0,1-14.31,8.56l-32.18-.91-.85-11.7,28.35-5.43-19.11-33.07Z" transform="translate(-0.52 -15.19)"/><path class="cls-10" d="M317.32,359.21,346.91,367l.64-8.87-27.27-15.84,19.92-37-16.72-8.59-21,36.49h0a17.09,17.09,0,0,0,9.87,24.38Z" transform="translate(-0.52 -15.19)"/><path class="cls-7" d="M386.53,320.2l20.22-10.65a101.58,101.58,0,0,0-8.66-14.45,44.39,44.39,0,0,0-27-17h0l-23.26.28a30.55,30.55,0,0,0-8.3,1.9l0-.09c-12.63,2.79-26.64,30.33-26.64,30.33l18.41,9.69.41,2.89a19.69,19.69,0,0,0,4.79,10.32l-5.36,35.25,59.74,1.23-7.61-25.24Z" transform="translate(-0.52 -15.19)"/><path class="cls-5" d="M337.05,333.58a4.08,4.08,0,0,1-.89-.67,13,13,0,0,1-2-2.28,14.75,14.75,0,0,1-2.49-9.61,31,31,0,0,1,1.37-5.36c.53-1.6,1.08-3,1.55-4.21s.88-2.14,1.18-2.79a4.76,4.76,0,0,1,.51-1,5.83,5.83,0,0,1-.34,1.05c-.28.76-.63,1.71-1,2.84s-.95,2.63-1.46,4.24a33.41,33.41,0,0,0-1.31,5.28,15.28,15.28,0,0,0,.5,5.35,14,14,0,0,0,1.81,4A24.37,24.37,0,0,0,337.05,333.58Z" transform="translate(-0.52 -15.19)"/><polygon class="cls-5" points="327.57 361.96 324.19 322.64 396.96 322.64 392.13 362.45 327.57 361.96"/><path class="cls-2" d="M365.73,358.8a4.63,4.63,0,1,1-4.63-4.63A4.63,4.63,0,0,1,365.73,358.8Z" transform="translate(-0.52 -15.19)"/><polygon class="cls-10" points="359.3 369.64 371.66 371.37 371.66 384.79 360.29 384.5 359.3 369.64"/><path class="cls-7" d="M372.18,386.56h5.56a6.11,6.11,0,0,1,3.07.82l2.93,1.69a45.23,45.23,0,0,0,5.12,2.44c3.38,1.09,9.06,2.55,10.26,3.47,3.41,2.64,2.38,5.75.5,6.08-1.65.28-27.44-1.08-27.44-1.08Z" transform="translate(-0.52 -15.19)"/><path class="cls-5" d="M381.31,398.88a8.7,8.7,0,0,1-.6-3.49,8.91,8.91,0,0,1,.38-3.52,27.56,27.56,0,0,1,.08,3.5A32.93,32.93,0,0,1,381.31,398.88Z" transform="translate(-0.52 -15.19)"/><path class="cls-5" d="M383.94,398.8a11.27,11.27,0,0,1-.21-3.2,11.47,11.47,0,0,1,.26-3.21,22,22,0,0,1-.05,6.41Z" transform="translate(-0.52 -15.19)"/><path class="cls-5" d="M387.05,399.33a12.49,12.49,0,0,1-.48-3.28,11.65,11.65,0,0,1,0-3.32A12.24,12.24,0,0,1,387,396,11.85,11.85,0,0,1,387.05,399.33Z" transform="translate(-0.52 -15.19)"/><path class="cls-5" d="M378.9,395.3a3.92,3.92,0,0,1-1.14-.36,10.66,10.66,0,0,1-2.77-1.71c-.27-.23-.53-.48-.8-.75a3,3,0,0,1-.7-1,1.39,1.39,0,0,1,.15-1.38,1,1,0,0,1,.69-.38,1.87,1.87,0,0,1,.75.09,5.53,5.53,0,0,1,1.16,9.84,3.65,3.65,0,0,1-1.27.57,1.52,1.52,0,0,1-.73,0,1,1,0,0,1-.56-.49,1.4,1.4,0,0,1,.17-1.28,4.12,4.12,0,0,1,.71-.86,8.58,8.58,0,0,1,2.73-1.79,3.46,3.46,0,0,1,1.15-.32s-.39.16-1.08.49a9.34,9.34,0,0,0-2.57,1.85,4,4,0,0,0-.63.8,1,1,0,0,0-.13.94.74.74,0,0,0,.87.3,3.18,3.18,0,0,0,1.1-.53,5.14,5.14,0,0,0-1.05-9.08.88.88,0,0,0-1,.15,1,1,0,0,0-.12,1A5.45,5.45,0,0,0,375.2,393,14.9,14.9,0,0,0,378.9,395.3Z" transform="translate(-0.52 -15.19)"/><path class="cls-5" d="M399.62,401.06a2.56,2.56,0,0,0,.31-3.65,6.21,6.21,0,0,0-3.43-2.58c-1.57-.57-3.44-.84-5.33-1.43a37,37,0,0,1-9.18-4.18c-1.09-.7-1.93-1.32-2.5-1.76a4.51,4.51,0,0,1-.84-.75,6.79,6.79,0,0,1,.94.6c.6.4,1.47,1,2.57,1.63a41.38,41.38,0,0,0,9.14,4c1.86.58,3.71.86,5.35,1.47a6.47,6.47,0,0,1,3.57,2.83,3.33,3.33,0,0,1,.24,3,1.9,1.9,0,0,1-.58.63C399.72,401,399.63,401.07,399.62,401.06Z" transform="translate(-0.52 -15.19)"/><path class="cls-3" d="M391.21,287.72v.19l0,.56c-.05.51-.12,1.23-.2,2.14-.19,1.91-.47,4.64-.81,8.07l0,.21-.19-.1-10.72-5.65.25-.07-5.83,9.83-.12.21-.2-.15-9.81-7.52h.28l-4.27,3.35-5.83,4.56-.21.17-.13-.24L347.81,293l.28.1-11.77,5.24-.22.1,0-.24c-.68-4-1.28-7.54-1.78-10.46l.19.1-6.74,2.57-1.8.66-.46.16-.16.05s.05,0,.15-.08l.45-.2,1.76-.73,6.7-2.68.15-.06,0,.16c.52,2.92,1.15,6.42,1.87,10.45l-.25-.13,11.74-5.31.18-.08.1.18,5.57,10.25-.34-.07,5.82-4.57,4.28-3.34.14-.11.14.1,9.8,7.55-.32.06,5.87-9.8.09-.16.16.09,10.68,5.73-.2.11c.4-3.42.72-6.15.94-8,.11-.91.2-1.63.27-2.14,0-.23.06-.41.08-.55S391.2,287.72,391.21,287.72Z" transform="translate(-0.52 -15.19)"/><path class="cls-3" d="M399.84,297.62a1,1,0,0,1,0,.26q-.07.28-.18.75l-.77,2.91c-.68,2.55-1.67,6.23-2.91,10.81l0,.18-.17-.08-12.53-6,.24-.06-10.56,15.05-.15.22-.19-.19-10.15-10.28q-1.06-1.1-2.13-2.16l.29,0-13.68,8.58-.19.12-.11-.2-7.38-13,.23.08c-5.4,1.87-10.15,3.5-14.06,4.84l-.13.05-.05-.13c-1.33-3.86-2.38-6.93-3.12-9.05l-.8-2.41-.2-.62a1.23,1.23,0,0,1-.06-.21s0,.06.09.2l.24.61.88,2.38,3.24,9-.18-.08,14-4.94.15-.05.08.14,7.42,13-.31-.08,13.66-8.59.16-.1.13.13,2.13,2.16,10.14,10.3-.34,0c3.81-5.4,7.39-10.46,10.6-15l.1-.14.15.08,12.49,6.09-.21.1c1.29-4.57,2.33-8.23,3.05-10.78l.83-2.88c.1-.31.17-.56.23-.75S399.83,297.61,399.84,297.62Z" transform="translate(-0.52 -15.19)"/><path class="cls-5" d="M390.88,235.62a13,13,0,0,1-9.93-3.13c3.23,1.63,7.55-.61,8.68-4.05s.21-9.85-2.62-12.12a11.22,11.22,0,0,0-9.75-2.1c-3.33.89-6.86,6-7.95,9.23l.06.1c-.51-.2-1-.39-1.55-.57a26.64,26.64,0,0,0-11.5-1.39,18.59,18.59,0,0,0-10.51,4.63l22.59,36.32c4.11-.36,7.74-3.13,9.89-6.65a24.81,24.81,0,0,0,3.18-11.81c0-1,0-2.07,0-3.12l7.26,1.17a16.25,16.25,0,0,0-4.83-4.32A6.07,6.07,0,0,0,390.88,235.62Z" transform="translate(-0.52 -15.19)"/><path class="cls-10" d="M362.32,292a11.38,11.38,0,0,0,11.12-11.23l.52-45.18h0a3.59,3.59,0,0,0-3.22-3.65l-19.08-4.83c-6.11-.64-10.18,6.88-10.57,13-.42,6.81-.68,15.15.13,20.23,1.62,10.23,9.46,11.53,9.46,11.53s0,4,0,8.8A11.37,11.37,0,0,0,362.32,292Z" transform="translate(-0.52 -15.19)"/><path class="cls-5" d="M345.06,246.74a1.31,1.31,0,0,0,1.26,1.32,1.26,1.26,0,0,0,1.36-1.18,1.32,1.32,0,0,0-1.27-1.33A1.25,1.25,0,0,0,345.06,246.74Z" transform="translate(-0.52 -15.19)"/><path class="cls-5" d="M342.9,244.45c.17.18,1.16-.56,2.57-.56s2.45.71,2.6.54-.09-.38-.54-.71a3.54,3.54,0,0,0-2.08-.64,3.4,3.4,0,0,0-2.05.66C343,244.07,342.82,244.38,342.9,244.45Z" transform="translate(-0.52 -15.19)"/><path class="cls-5" d="M358.48,246.74a1.32,1.32,0,0,0,1.27,1.32,1.25,1.25,0,0,0,1.35-1.18,1.31,1.31,0,0,0-1.26-1.33A1.26,1.26,0,0,0,358.48,246.74Z" transform="translate(-0.52 -15.19)"/><path class="cls-5" d="M356.77,244.72c.17.17,1.16-.57,2.57-.56s2.45.71,2.6.53-.09-.38-.54-.71a3.62,3.62,0,0,0-2.08-.64,3.46,3.46,0,0,0-2.05.66C356.84,244.33,356.69,244.64,356.77,244.72Z" transform="translate(-0.52 -15.19)"/><path class="cls-5" d="M351.65,255.18a9.31,9.31,0,0,0-2.29-.41c-.36,0-.7-.11-.76-.36a1.73,1.73,0,0,1,.24-1.06l1.06-2.75c1.48-3.9,2.56-7.12,2.4-7.17s-1.49,3.06-3,7c-.35,1-.69,1.88-1,2.76a2.17,2.17,0,0,0-.19,1.42.91.91,0,0,0,.6.52,2.43,2.43,0,0,0,.61.09A8.86,8.86,0,0,0,351.65,255.18Z" transform="translate(-0.52 -15.19)"/><path class="cls-11" d="M350.68,271.88a26,26,0,0,0,13.69-3.65s-3.32,7-13.55,6.07Z" transform="translate(-0.52 -15.19)"/><path class="cls-11" d="M352.25,258.58a2.54,2.54,0,0,1,2.28-.94,2.33,2.33,0,0,1,1.6.86,1.47,1.47,0,0,1,.11,1.68,1.7,1.7,0,0,1-1.85.47,5.37,5.37,0,0,1-1.8-1.08,1.56,1.56,0,0,1-.4-.41.47.47,0,0,1,0-.53" transform="translate(-0.52 -15.19)"/><path class="cls-5" d="M355.81,256.16c-.23,0-.24,1.52-1.55,2.6s-2.94.92-2.95,1.14.36.29,1.05.31a3.77,3.77,0,0,0,2.47-.86,3.27,3.27,0,0,0,1.19-2.18C356.08,256.53,355.91,256.15,355.81,256.16Z" transform="translate(-0.52 -15.19)"/><path class="cls-5" d="M356.14,242.25c.14.38,1.55.2,3.2.4s3,.65,3.22.31c.09-.17-.14-.53-.68-.9a5.56,5.56,0,0,0-4.89-.54C356.38,241.76,356.08,242.07,356.14,242.25Z" transform="translate(-0.52 -15.19)"/><path class="cls-5" d="M343.1,241.85c.25.32,1.22,0,2.39,0s2.16.22,2.39-.12c.1-.16-.06-.48-.49-.78a3.44,3.44,0,0,0-3.85.12C343.13,241.36,343,241.69,343.1,241.85Z" transform="translate(-0.52 -15.19)"/><path class="cls-10" d="M372.83,248.28a2.55,2.55,0,0,1,2.67.14,4.74,4.74,0,0,1-3,8.8" transform="translate(-0.52 -15.19)"/><path class="cls-11" d="M373.54,254.17c0-.07.4.09.89-.14a1.77,1.77,0,0,0,.88-1.75,1.83,1.83,0,0,0-1.09-1.64c-.51-.21-.89-.1-.91-.18s.35-.32,1-.17a1.82,1.82,0,0,1,1,.62,2.21,2.21,0,0,1,.51,1.35,2,2,0,0,1-1.28,2.12C373.86,254.57,373.49,254.21,373.54,254.17Z" transform="translate(-0.52 -15.19)"/><path class="cls-6" d="M376.34,256.24a2.19,2.19,0,0,1,.47.33l1.25,1,4.41,3.75.15.13-.13.15c-1.64,2-3.47,4.44-5.53,7-.46.58-.93,1.15-1.38,1.69l-.38.44,0-.58c-.18-4.16-.32-7.85-.41-10.5,0-1.25-.05-2.3-.07-3.11a5.59,5.59,0,0,1,0-1.14,5.57,5.57,0,0,1,.14,1.13c.05.81.12,1.85.21,3.11.16,2.64.36,6.32.56,10.49l-.4-.14,1.37-1.68c2-2.57,3.91-5,5.59-7l0,.28-4.31-3.87-1.18-1.11C376.46,256.4,376.32,256.26,376.34,256.24Z" transform="translate(-0.52 -15.19)"/><path class="cls-5" d="M355.66,222.63a37.38,37.38,0,0,0-7.46.82,12.44,12.44,0,0,0-6.44,3.63,7.54,7.54,0,0,0-1.78,7,5.49,5.49,0,0,0,5.66,3.95c1.88-.25,3.69-1.65,5.51-1.09s2.66,2.62,4.43,2.94,3.3-1.24,5.07-1.39c2-.17,3.64,1.43,4.5,3.18s1.2,3.74,2.07,5.49a4.5,4.5,0,0,0,2.64,2.51,3.64,3.64,0,0,0,3.18-.9,7.26,7.26,0,0,0,1.87-2.86A15.87,15.87,0,0,0,362,224.11" transform="translate(-0.52 -15.19)"/><path class="cls-7" d="M380.57,233.49c-.08,0-.31-.82-.94-2.07a14.83,14.83,0,0,0-7.91-7.15c-1.31-.5-2.18-.65-2.16-.73s.22,0,.62,0a10.57,10.57,0,0,1,1.65.39,13.55,13.55,0,0,1,4.82,2.81,13.4,13.4,0,0,1,3.27,4.51,9.44,9.44,0,0,1,.56,1.6C380.57,233.27,380.6,233.49,380.57,233.49Z" transform="translate(-0.52 -15.19)"/><path class="cls-6" d="M388.4,218.52a17.92,17.92,0,0,0-2.47-.77,9.84,9.84,0,0,0-6,.91,13.21,13.21,0,0,0-4.64,4c-.95,1.29-1.39,2.19-1.46,2.15s.05-.25.24-.66a13,13,0,0,1,5.65-5.94,9.55,9.55,0,0,1,6.27-.81,6.76,6.76,0,0,1,1.81.68C388.21,218.33,388.41,218.49,388.4,218.52Z" transform="translate(-0.52 -15.19)"/><path class="cls-6" d="M378.56,230.53a6.06,6.06,0,0,1,0,2.1,16.73,16.73,0,0,1-1.28,4.92,16.54,16.54,0,0,1-2.7,4.31,6.16,6.16,0,0,1-1.54,1.43,21.3,21.3,0,0,0,5.5-12.76Z" transform="translate(-0.52 -15.19)"/><path class="cls-6" d="M378.86,230.75s.12.2.25.58a10.35,10.35,0,0,1,.4,1.69,14.42,14.42,0,0,1-.28,5.7,14.23,14.23,0,0,1-2.46,5.14,11.41,11.41,0,0,1-1.15,1.3c-.3.27-.48.42-.5.39s.57-.69,1.38-1.88a15.93,15.93,0,0,0,2.68-10.61C379,231.63,378.78,230.77,378.86,230.75Z" transform="translate(-0.52 -15.19)"/><path class="cls-1" d="M405.75,233.08a4.18,4.18,0,1,0,1.91-.15" transform="translate(-0.52 -15.19)"/><path class="cls-1" d="M417.76,215.62a4.81,4.81,0,1,0,2.2-.16" transform="translate(-0.52 -15.19)"/><path class="cls-3" d="M443.42,138.66c-8-.68-16.17,1.12-21.68,7A27.22,27.22,0,0,0,414.81,168c-8.55,3.56-13.21,14.43-9.89,23.07s14.06,13.6,22.79,10.51A30.91,30.91,0,0,0,480.28,210c8.39,1.9,17.8,1.77,24.85-3.16S515.36,191,510,184.31c9.66-2.35,14.57-14.42,11.71-23.94S510.26,144,501.1,140.15c-6.06-2.56-13.6-3.89-18.77.17a23.91,23.91,0,0,0-38.91-1.66" transform="translate(-0.52 -15.19)"/><path class="cls-5" d="M443.42,138.66l.49-.62a19.91,19.91,0,0,1,1.56-1.72,23.91,23.91,0,0,1,7.42-5,24.47,24.47,0,0,1,6.28-1.78,23.08,23.08,0,0,1,7.77.24,24.7,24.7,0,0,1,8.32,3.36,24.23,24.23,0,0,1,7.2,7.08l-.23,0a13,13,0,0,1,7.61-2.61,24.7,24.7,0,0,1,8.57,1.36,45,45,0,0,1,8.39,3.85,39.65,39.65,0,0,1,7.78,5.87,29.12,29.12,0,0,1,6,8.27,24,24,0,0,1,1.71,5,20.81,20.81,0,0,1,.36,5.41,21.25,21.25,0,0,1-3.47,10.48,16.82,16.82,0,0,1-3.91,4.17,15.49,15.49,0,0,1-5.24,2.51l.13-.36a12.73,12.73,0,0,1,2.38,5.07,15.22,15.22,0,0,1,.14,5.71,18.73,18.73,0,0,1-5.31,10.24,21.62,21.62,0,0,1-10.58,5.41,35.74,35.74,0,0,1-12.17.35c-1.49-.18-3-.47-4.4-.77l.23-.08a30.93,30.93,0,0,1-44.12,3.75,31.31,31.31,0,0,1-8.83-12.19l.27.12a18.57,18.57,0,0,1-14.91-1.56,17.43,17.43,0,0,1-8.73-11.06,18.77,18.77,0,0,1,1.8-13,18.18,18.18,0,0,1,8.81-8.26l-.1.17a27.36,27.36,0,0,1,.55-10.55,27.81,27.81,0,0,1,3.84-8.6,27.1,27.1,0,0,1,2.65-3.33,20.93,20.93,0,0,1,3-2.59,22.12,22.12,0,0,1,6.12-3.08,30.12,30.12,0,0,1,9.34-1.4,27.8,27.8,0,0,1,3.29.18s-.28,0-.83,0-1.38-.06-2.46-.06a30.56,30.56,0,0,0-9.28,1.48,21.32,21.32,0,0,0-9,5.66,25.92,25.92,0,0,0-2.61,3.31,27.52,27.52,0,0,0-3.77,8.53A27.17,27.17,0,0,0,415,168v.12l-.11.05a17.88,17.88,0,0,0-8.62,8.13,18.42,18.42,0,0,0-1.74,12.79,17.08,17.08,0,0,0,8.55,10.8,18.16,18.16,0,0,0,14.58,1.51l.19-.07.08.19a31.38,31.38,0,0,0,22.61,18.82,31.3,31.3,0,0,0,29.59-10.52l.09-.11.13,0c1.43.31,2.88.6,4.35.78a35.09,35.09,0,0,0,12-.36,21.09,21.09,0,0,0,10.36-5.28,18.2,18.2,0,0,0,5.18-10,13.3,13.3,0,0,0-2.42-10.43l-.22-.27.34-.09a15,15,0,0,0,5.08-2.42,16.37,16.37,0,0,0,3.81-4.07,21.1,21.1,0,0,0,3.07-15.55,24,24,0,0,0-1.68-4.94,28.71,28.71,0,0,0-5.91-8.16,39,39,0,0,0-7.7-5.82,45,45,0,0,0-8.31-3.84,24.6,24.6,0,0,0-8.45-1.37,12.72,12.72,0,0,0-7.42,2.52l-.14.11-.09-.14A24.22,24.22,0,0,0,466.89,130a23,23,0,0,0-7.7-.27,24.75,24.75,0,0,0-6.23,1.72,24.3,24.3,0,0,0-7.43,4.89,22.17,22.17,0,0,0-1.59,1.69Z" transform="translate(-0.52 -15.19)"/><path class="cls-6" d="M498.37,166.36c0,.38-15.76.69-35.19.69s-35.2-.31-35.2-.69,15.75-.69,35.2-.69S498.37,166,498.37,166.36Z" transform="translate(-0.52 -15.19)"/><path class="cls-6" d="M498.37,174c0,.38-15.76.69-35.19.69S428,174.38,428,174s15.75-.7,35.2-.7S498.37,173.61,498.37,174Z" transform="translate(-0.52 -15.19)"/><path class="cls-6" d="M498.37,181.63c0,.39-15.76.7-35.19.7s-35.2-.31-35.2-.7,15.75-.69,35.2-.69S498.37,181.25,498.37,181.63Z" transform="translate(-0.52 -15.19)"/><path class="cls-6" d="M498.37,189.27c0,.38-15.76.69-35.19.69s-35.2-.31-35.2-.69,15.75-.69,35.2-.69S498.37,188.89,498.37,189.27Z" transform="translate(-0.52 -15.19)"/></svg>