<svg width="228" height="124" viewBox="0 0 228 124" fill="none" xmlns="http://www.w3.org/2000/svg">
<path d="M214.651 39.0414C215.258 46.6905 212.731 53.8581 208.149 59.2812C207.534 60.0132 206.888 60.7089 206.202 61.3712C206.002 61.5553 205.802 61.7492 205.592 61.9343C205.497 62.0259 205.392 62.1184 205.296 62.2102C203.984 63.3614 202.571 64.4001 201.051 65.2971C200.364 65.7164 199.665 66.0898 198.935 66.4377C197.656 67.0624 196.324 67.5889 194.943 67.9985C194.625 68.1083 194.295 68.1994 193.965 68.2731C192.363 68.7083 190.692 69 188.983 69.1358C188.211 69.1967 187.438 69.2306 186.679 69.2161C186.297 69.2279 185.922 69.2197 185.546 69.1944C183.707 69.1255 181.909 68.8659 180.172 68.4329C180.078 68.4215 179.992 68.4006 179.905 68.3702C179.429 68.2494 178.95 68.1183 178.479 67.9596C177.473 67.6563 176.481 67.2861 175.531 66.8656C174.572 66.4458 173.636 65.9681 172.733 65.4322C172.685 65.4169 172.645 65.3923 172.595 65.3493C172.282 65.178 171.977 64.9867 171.673 64.796C171.14 64.4455 170.625 64.0934 170.117 63.7038C163.858 59.075 159.563 51.85 158.897 43.4678C157.676 28.0773 169.166 14.6052 184.557 13.3838C199.957 12.1594 213.429 23.6512 214.651 39.0414Z" fill="#407BFF"/>
<path d="M171.863 62.0115L172.596 65.3483C172.283 65.177 171.978 64.9857 171.673 64.795C171.141 64.4444 170.626 64.0924 170.118 63.7028C170.888 62.7992 171.495 62.1998 171.863 62.0115Z" fill="#E0E0E0"/>
<path d="M199.04 63.6517L199.041 63.6611C199.124 64.356 199.141 65.0466 199.064 65.717C199.036 65.9621 198.991 66.209 198.934 66.438C197.655 67.0628 196.323 67.5893 194.943 67.9989C194.624 68.1087 194.294 68.1998 193.964 68.2735C192.362 68.7087 190.692 69.0003 188.982 69.1362C188.21 69.197 187.437 69.231 186.678 69.2165C186.296 69.2283 185.921 69.2201 185.545 69.1948C183.706 69.1259 181.908 68.8663 180.171 68.4332C180.079 68.3187 180.003 68.2036 179.928 68.0788C179.682 67.6871 179.49 67.2628 179.342 66.8253C178.897 65.5699 178.823 64.173 178.993 62.7662C179.01 62.625 179.036 62.4915 179.053 62.3503C179.092 62.1319 179.132 61.9229 179.171 61.7142C179.177 61.6675 179.182 61.6198 179.197 61.5808C179.456 60.3542 179.893 59.1504 180.423 58.0611C180.567 57.7501 180.73 57.4477 180.913 57.1527C181.519 56.0668 182.232 55.1499 182.937 54.4953C182.945 54.4848 182.955 54.4847 182.955 54.4847C183.4 54.0848 183.89 53.7744 184.432 53.5345C186.544 52.5723 189.241 52.7319 191.296 53.0649C191.315 53.0629 191.334 53.062 191.353 53.0697C191.551 53.1011 191.75 53.1313 191.94 53.1723C193.184 53.4009 194.093 53.6653 194.31 53.6947C194.31 53.6947 194.808 54.3103 195.477 55.3137C195.679 55.6252 195.903 55.9626 196.129 56.3371C196.547 57.0147 196.983 57.7847 197.385 58.6131C197.809 59.4775 198.21 60.3993 198.51 61.3574C198.749 62.1128 198.942 62.883 199.04 63.6517Z" fill="#263238"/>
<path d="M197.99 31.6606C197.99 31.6606 203.366 41.7766 200.494 45.9479C197.623 50.1188 177.141 54.8312 173.245 51.4601C169.349 48.0889 172.922 33.2342 172.922 33.2342L197.99 31.6606Z" fill="#263238"/>
<path d="M205.099 58.223L205.295 62.2105C203.983 63.3617 202.57 64.4004 201.05 65.2974C200.363 65.7167 199.664 66.0901 198.934 66.438C197.655 67.0627 196.323 67.5892 194.942 67.9988C194.624 68.1086 194.294 68.1997 193.964 68.2734C192.362 68.7086 190.691 69.0003 188.982 69.1361C188.21 69.197 187.437 69.2309 186.678 69.2165C186.296 69.2282 185.921 69.22 185.545 69.1947C183.706 69.1258 181.908 68.8662 180.171 68.4332C180.077 68.4218 179.991 68.4009 179.904 68.3705C179.428 68.2497 178.949 68.1186 178.478 67.9599C177.472 67.6566 176.48 67.2864 175.53 66.8659C174.571 66.4461 173.635 65.9684 172.732 65.4325C172.887 63.9706 173.169 62.5733 173.59 61.2769C173.59 61.2769 173.949 60.9773 174.623 60.5026L174.658 60.4808C175.359 60.0042 176.365 59.3538 177.647 58.6719C178.455 58.2432 179.382 57.7864 180.395 57.3593C180.568 57.2895 180.73 57.2209 180.912 57.15C181.03 57.1031 181.139 57.0572 181.265 57.0095L181.275 57.0085C181.474 56.9273 181.683 56.845 181.893 56.782C182.556 56.5324 183.248 56.3001 183.979 56.0926C184.171 56.0304 184.372 55.9769 184.574 55.9232C185.737 55.6161 186.961 55.3593 188.248 55.1923C188.923 55.1012 189.592 55.0481 190.254 55.014L190.263 55.013C191.242 54.9731 192.198 54.9998 193.138 55.0657C193.495 55.0845 193.843 55.1128 194.193 55.1504C194.42 55.1787 194.655 55.1978 194.882 55.2356L194.892 55.2346C195.09 55.2562 195.28 55.2875 195.477 55.3094C195.761 55.352 196.036 55.3957 196.312 55.4487C197.952 55.7304 199.452 56.1258 200.728 56.5289L200.737 56.5278C203.403 57.3569 205.099 58.223 205.099 58.223Z" fill="#263238"/>
<path d="M172.978 36.7564C172.978 36.7564 167.65 19.4115 184.122 19.8634C204.797 20.4293 199.027 46.4893 188.744 45.7549C178.46 45.0217 172.978 36.7564 172.978 36.7564Z" fill="#263238"/>
<path opacity="0.2" d="M197.387 58.6104L195.029 65.7836L194.434 67.5989L193.932 67.1713L188.406 62.3628C187.442 65.0576 186.94 67.4639 186.678 69.2147C186.295 69.2265 185.921 69.2183 185.544 69.193C184.312 64.736 183.832 62.1086 183.832 62.1086L180.163 65.9633L179.343 66.8233L178.488 67.7233L178.35 67.8654L178.223 60.132C178.787 59.4602 179.386 58.8798 179.993 58.3919C180.133 58.2784 180.283 58.1628 180.425 58.0587C180.681 57.8697 180.937 57.6904 181.205 57.529C181.383 57.4211 181.572 57.3129 181.76 57.2138C182.423 56.8527 183.103 56.5745 183.787 56.3612C184.052 56.2838 184.327 56.2062 184.593 56.148C186.347 55.7372 188.115 55.7471 189.751 55.9726C190.526 56.0796 191.278 56.2352 191.984 56.4216C192.739 56.6143 193.439 56.8389 194.075 57.0786C194.441 57.209 194.789 57.3497 195.108 57.4828C195.379 57.6019 195.632 57.712 195.864 57.816C196.826 58.2629 197.387 58.6104 197.387 58.6104Z" fill="black"/>
<path d="M186.151 65.7866L188.519 58.3152L193.738 55.4632C188.677 52.5407 190.511 44.9626 190.511 44.9626L183.01 48.2877C183.523 49.5355 183.869 50.6035 184.099 51.5191C185.288 56.2684 183.145 56.825 183.145 56.825L184.807 58.8627L186.151 65.7866Z" fill="#E4897B"/>
<path opacity="0.2" d="M183.01 48.2878C183.523 49.5356 183.869 50.6036 184.099 51.5192C187.674 49.7452 190.511 44.9627 190.511 44.9627L183.01 48.2878Z" fill="black"/>
<path d="M180.91 25.2478C173.983 26.4005 172.37 30.4798 173.051 37.7019C173.901 46.7277 176.934 52.7364 185.278 49.3897C196.608 44.8448 192.412 23.3334 180.91 25.2478Z" fill="#E4897B"/>
<path d="M177.463 36.5699C177.463 36.5699 176.804 38.5392 175.926 39.7779C175.926 39.7779 176.676 40.621 177.882 40.2575L177.463 36.5699Z" fill="#DE5753"/>
<path d="M181.609 35.2983C181.69 35.87 182.065 36.2886 182.446 36.2344C182.827 36.1802 183.069 35.673 182.988 35.1023C182.906 34.5309 182.532 34.112 182.151 34.1662C181.77 34.2195 181.528 34.7267 181.609 35.2983Z" fill="#263238"/>
<path d="M182.314 34.1707L181.003 33.8599C181.003 33.8599 181.77 34.8177 182.314 34.1707Z" fill="#263238"/>
<path d="M174.492 36.1906C174.574 36.762 174.948 37.1809 175.328 37.1267C175.709 37.0724 175.952 36.565 175.87 35.9945C175.789 35.4231 175.414 35.0042 175.034 35.0585C174.653 35.1127 174.41 35.6201 174.492 36.1906Z" fill="#263238"/>
<path d="M175.196 35.0631L173.885 34.7532C173.885 34.7532 174.652 35.7101 175.196 35.0631Z" fill="#263238"/>
<path d="M180.883 30.5034C180.883 30.5034 182.787 29.9262 184.062 31.0511" stroke="#263238" stroke-width="0.694002" stroke-miterlimit="10" stroke-linecap="round" stroke-linejoin="round"/>
<path d="M175.8 31.0482C175.8 31.0482 174.501 30.7989 173.134 32.077" stroke="#263238" stroke-width="0.694002" stroke-miterlimit="10" stroke-linecap="round" stroke-linejoin="round"/>
<path d="M190.422 35.6626C190.422 35.6626 186.237 30.5109 185.996 26.0352C185.996 26.0352 171.337 22.7117 172.978 36.7566C172.978 36.7566 169.578 24.6086 181.44 22.3517C193.282 20.0981 196.149 37.5227 190.863 43.7361C190.863 43.7361 193.018 38.8883 190.422 35.6626Z" fill="#263238"/>
<path d="M189.534 37.3128C189.395 36.1897 190.232 34.1108 192.344 33.9921C194.529 33.8688 196.286 38.1053 191.122 40.0533C190.381 40.3331 189.825 39.656 189.534 37.3128Z" fill="#E4897B"/>
<path d="M177.717 43.1317C178.28 43.8821 178.998 45.3627 178.998 45.3627C179.144 45.3216 179.29 45.2808 179.433 45.2328C181.397 44.6301 182.108 43.7016 182.302 42.8549C182.407 42.3911 182.35 41.9487 182.258 41.6012C182.156 41.1985 181.992 40.9353 181.992 40.9353C181.142 41.877 179.354 42.5797 178.384 42.9152C177.979 43.061 177.717 43.1317 177.717 43.1317Z" fill="#263238"/>
<path d="M178.384 42.916L178.778 43.5641C180.626 42.9918 181.851 42.3408 182.258 41.6021C182.156 41.1993 181.992 40.9361 181.992 40.9361C181.142 41.8769 179.354 42.5809 178.384 42.916Z" fill="white"/>
<path d="M179.433 45.2328C181.397 44.6301 182.108 43.7017 182.302 42.8549C181.641 43.0863 180.869 43.4384 180.254 43.9563C179.782 44.351 179.55 44.807 179.433 45.2328Z" fill="#DE5753"/>
<path d="M181.14 25.7471C181.14 25.7471 185.827 36.6802 192.979 35.34C200.131 34.0002 186.656 21.412 186.656 21.412C186.656 21.412 174.209 18.942 169.466 26.1233C164.723 33.3046 172.979 36.758 172.979 36.758C172.979 36.758 171.067 28.0036 181.14 25.7471Z" fill="#263238"/>
<path d="M181.074 24.9256C181.074 24.9256 181.522 32.8485 187.655 34.6347" stroke="#263238" stroke-width="0.478828" stroke-miterlimit="10" stroke-linecap="round" stroke-linejoin="round"/>
<path d="M191.426 52.8051L188.52 58.315L193.259 65.2227L195.539 55.6917L191.426 52.8051Z" fill="#263238"/>
<path d="M184.451 54.3671L184.808 58.863L180.321 64.6844L181.308 56.758L184.451 54.3671Z" fill="#263238"/>
<path d="M206.087 57.6956L206.201 61.3716C206.001 61.5557 205.801 61.7495 205.591 61.9346C205.496 62.0262 205.391 62.1187 205.295 62.2106C203.984 63.3617 202.57 64.4005 201.05 65.2974C200.363 65.7167 199.664 66.0902 198.934 66.438C197.655 67.0628 196.323 67.5893 194.943 67.9988C194.956 67.2312 194.992 66.4988 195.028 65.7847C195.205 62.3662 195.56 59.6451 195.864 57.8159C195.958 57.2284 196.05 56.7352 196.129 56.3358C196.21 55.9362 196.271 55.6415 196.312 55.4517C196.355 55.28 196.375 55.1942 196.375 55.1942L200.194 56.1816C200.203 56.1808 200.204 56.1903 200.213 56.1893L206.087 57.6956Z" fill="#E0E0E0"/>
<path d="M180.397 57.3589C180.397 57.3589 180.235 57.6804 179.993 58.3919C179.766 59.0739 179.475 60.1166 179.198 61.5785C179.182 61.6177 179.178 61.6642 179.172 61.7119C179.133 61.9206 179.093 62.1295 179.054 62.348C179.037 62.4892 179.011 62.6226 178.994 62.7639C178.784 64.1267 178.596 65.7699 178.49 67.7228C178.478 67.7989 178.474 67.8735 178.48 67.9573C177.474 67.6541 176.482 67.2839 175.532 66.8634C174.573 66.4436 173.637 65.9658 172.734 65.4299C172.706 65.5539 172.698 65.6758 172.689 65.8075L172.596 65.3471C172.283 65.1757 171.978 64.9845 171.674 64.7938C171.688 63.8012 171.754 62.8609 171.864 62.0103L174.625 60.5001L174.66 60.4783L177.216 59.0969L180.397 57.3589Z" fill="#E0E0E0"/>
<path d="M182.956 54.4813C182.651 54.8889 182.378 55.4439 182.114 56.1376C182.036 56.34 181.96 56.5516 181.894 56.7816C181.84 56.9169 181.795 57.0609 181.76 57.2128C181.197 59.0717 180.747 61.5391 180.379 64.2057C180.363 64.3658 180.339 64.527 180.323 64.6874C180.262 65.1042 180.212 65.5285 180.163 65.9623C180.078 66.6614 180.003 67.3681 179.928 68.0757C179.917 68.1701 179.907 68.2741 179.905 68.3675C179.428 68.2467 178.95 68.1156 178.479 67.9568C177.472 67.6536 176.48 67.2834 175.53 66.8629L176.302 65.5206L173.669 63.4481C174.618 61.8576 175.904 60.3803 177.214 59.0985C177.361 58.9468 177.499 58.8047 177.647 58.671C180.187 56.2715 182.696 54.6414 182.937 54.4913C182.947 54.4823 182.956 54.4813 182.956 54.4813Z" fill="#263238"/>
<path opacity="0.7" d="M182.956 54.4813C182.651 54.8889 182.378 55.4439 182.114 56.1376C182.036 56.34 181.96 56.5516 181.894 56.7816C181.84 56.9169 181.795 57.0609 181.76 57.2128C181.197 59.0717 180.747 61.5391 180.379 64.2057C180.363 64.3658 180.339 64.527 180.323 64.6874C180.262 65.1042 180.212 65.5285 180.163 65.9623C180.078 66.6614 180.003 67.3681 179.928 68.0757C179.917 68.1701 179.907 68.2741 179.905 68.3675C179.428 68.2467 178.95 68.1156 178.479 67.9568C177.472 67.6536 176.48 67.2834 175.53 66.8629L176.302 65.5206L173.669 63.4481C174.618 61.8576 175.904 60.3803 177.214 59.0985C177.361 58.9468 177.499 58.8047 177.647 58.671C180.187 56.2715 182.696 54.6414 182.937 54.4913C182.947 54.4823 182.956 54.4813 182.956 54.4813Z" fill="white"/>
<path d="M199.041 63.6611L201.051 65.2974C200.364 65.7168 199.664 66.0902 198.934 66.438C197.656 67.0628 196.323 67.5893 194.943 67.9989C194.624 68.1087 194.294 68.1998 193.964 68.2734C193.953 67.9006 193.942 67.5365 193.932 67.1722C193.888 65.5482 193.885 63.9863 193.902 62.5453C193.931 60.4293 193.997 58.5536 194.077 57.0792C194.12 56.3277 194.161 55.6697 194.195 55.1528C194.212 55.0116 194.22 54.8888 194.22 54.7676C194.278 54.0801 194.313 53.6938 194.313 53.6938C196.671 54.1894 198.728 55.2422 200.197 56.1819C200.205 56.1812 200.206 56.1907 200.216 56.1896C200.393 56.3068 200.57 56.4145 200.729 56.5325L200.739 56.5315C201.904 57.3086 202.579 57.9288 202.579 57.9288L198.512 61.3568L197.39 62.3066L199.04 63.6534L199.041 63.6611Z" fill="#263238"/>
<path opacity="0.7" d="M199.041 63.6611L201.051 65.2974C200.364 65.7168 199.664 66.0902 198.934 66.438C197.656 67.0628 196.323 67.5893 194.943 67.9989C194.624 68.1087 194.294 68.1998 193.964 68.2734C193.953 67.9006 193.942 67.5365 193.932 67.1722C193.888 65.5482 193.885 63.9863 193.902 62.5453C193.931 60.4293 193.997 58.5536 194.077 57.0792C194.12 56.3277 194.161 55.6697 194.195 55.1528C194.212 55.0116 194.22 54.8888 194.22 54.7676C194.278 54.0801 194.313 53.6938 194.313 53.6938C196.671 54.1894 198.728 55.2422 200.197 56.1819C200.205 56.1812 200.206 56.1907 200.216 56.1896C200.393 56.3068 200.57 56.4145 200.729 56.5325L200.739 56.5315C201.904 57.3086 202.579 57.9288 202.579 57.9288L198.512 61.3568L197.39 62.3066L199.04 63.6534L199.041 63.6611Z" fill="white"/>
<path d="M208.148 59.2816C207.533 60.0135 206.887 60.7092 206.201 61.3715C206.001 61.5556 205.801 61.7495 205.591 61.9346L206.087 57.6965C206.798 58.0507 207.486 58.5858 208.148 59.2816Z" fill="#E0E0E0"/>
<path d="M199.094 71.753C198.865 71.8251 198.615 71.7103 198.523 71.4832C198.426 71.2447 198.542 70.9719 198.78 70.8754C199.349 70.6457 199.909 70.3994 200.459 70.1384C200.692 70.025 200.969 70.1265 201.08 70.3595C201.19 70.5917 201.091 70.8701 200.859 70.9803C200.291 71.2495 199.715 71.5021 199.13 71.7398C199.118 71.7446 199.106 71.7494 199.094 71.753ZM204.85 68.7126C204.657 68.7733 204.44 68.703 204.323 68.5258C204.18 68.3117 204.237 68.0219 204.453 67.8799C209.599 64.4556 213.624 59.6495 216.089 53.9829C216.192 53.7464 216.468 53.639 216.702 53.7412C216.938 53.844 217.047 54.1187 216.944 54.3543C214.406 60.1863 210.265 65.1316 204.968 68.656C204.931 68.6804 204.891 68.6998 204.85 68.7126ZM185.417 74.0882C185.367 74.1041 185.312 74.1114 185.257 74.1093C178.911 73.8236 172.818 71.711 167.637 67.9992C167.428 67.849 167.38 67.5581 167.53 67.3486C167.681 67.1401 167.972 67.0917 168.181 67.2418C173.215 70.8483 179.134 72.9012 185.3 73.1792C185.556 73.1912 185.756 73.4081 185.744 73.6659C185.734 73.8654 185.599 74.0311 185.417 74.0882ZM164.465 65.0883C164.308 65.1378 164.13 65.102 164.002 64.9798C163.548 64.5442 163.105 64.0949 162.676 63.6329C162.5 63.4447 162.511 63.1501 162.7 62.9734C162.89 62.7995 163.184 62.8095 163.359 62.998C163.775 63.4465 164.206 63.8829 164.647 64.3071C164.833 64.4851 164.839 64.7804 164.661 64.9663C164.605 65.0249 164.537 65.0656 164.465 65.0883ZM219.324 40.9988C219.283 41.0117 219.239 41.0195 219.194 41.0199C218.936 41.0258 218.724 40.822 218.718 40.5647C218.705 39.9562 218.673 39.3444 218.625 38.7303C218.604 38.474 218.795 38.2458 219.052 38.2284C219.309 38.2083 219.533 38.3997 219.554 38.656C219.605 39.2881 219.636 39.9173 219.65 40.5432C219.655 40.7559 219.517 40.9381 219.324 40.9988ZM218.187 33.1429C218.181 33.1448 218.176 33.1465 218.17 33.1473C217.922 33.2156 217.666 33.0685 217.598 32.8211C217.49 32.4259 217.374 32.0333 217.252 31.6455C217.191 31.4516 217.128 31.2574 217.064 31.0637C216.982 30.8197 217.113 30.5557 217.357 30.4731C217.636 30.3942 217.865 30.5225 217.947 30.7663C218.014 30.9653 218.079 31.1648 218.141 31.3649C218.267 31.7652 218.386 32.1676 218.497 32.5755C218.563 32.8176 218.425 33.0682 218.187 33.1429ZM156.107 51.814C155.863 51.8906 155.603 51.7573 155.524 51.5136L155.408 51.1521C154.667 48.7962 154.192 46.3422 153.996 43.86C153.701 40.1411 154.029 36.4424 154.972 32.868C155.039 32.6194 155.295 32.4704 155.542 32.5366C155.791 32.6019 155.939 32.8571 155.873 33.1057C154.957 36.5789 154.637 40.1722 154.924 43.7859C155.115 46.1985 155.576 48.5826 156.296 50.8719L156.409 51.2235C156.489 51.4681 156.355 51.7309 156.11 51.8111C156.109 51.8131 156.108 51.8134 156.107 51.814ZM215.846 27.0644C215.633 27.1315 215.396 27.0369 215.29 26.8296C212.502 21.3255 208.201 16.7662 202.853 13.6456C202.63 13.5162 202.556 13.2298 202.685 13.0073C202.815 12.7866 203.1 12.7098 203.322 12.8401C208.827 16.0515 213.253 20.7436 216.121 26.408C216.238 26.6382 216.146 26.9182 215.916 27.0346C215.894 27.0472 215.87 27.0568 215.846 27.0644ZM157.073 29.0245C156.971 29.0566 156.857 29.0532 156.75 29.0086C156.514 28.9081 156.403 28.6341 156.504 28.397C156.752 27.8159 157.016 27.2422 157.295 26.6785C157.409 26.4481 157.688 26.3526 157.92 26.4674C158.15 26.5817 158.245 26.8607 158.131 27.092C157.859 27.6406 157.603 28.197 157.362 28.7617C157.306 28.8934 157.198 28.985 157.073 29.0245ZM190.024 9.43078C189.967 9.44896 189.904 9.45586 189.84 9.44974C189.233 9.39219 188.622 9.35078 188.007 9.32817C187.75 9.31817 187.549 9.10184 187.558 8.84488C187.568 8.58675 187.785 8.3867 188.042 8.39582C188.674 8.41962 189.303 8.46133 189.929 8.52068C190.185 8.54482 190.373 8.77301 190.349 9.02883C190.331 9.22313 190.198 9.37625 190.024 9.43078ZM166.523 16.4988C166.346 16.5545 166.146 16.5003 166.021 16.3478C165.859 16.1487 165.89 15.8546 166.09 15.6929C171.015 11.7013 176.997 9.22121 183.322 8.55835C183.579 8.53148 183.807 8.71762 183.835 8.97374C183.862 9.22925 183.677 9.45342 183.42 9.48647C177.274 10.1318 171.462 12.5399 166.677 16.4174C166.631 16.4544 166.579 16.4815 166.523 16.4988Z" fill="#263238"/>
<g opacity="0.5">
<path d="M199.094 71.753C198.865 71.8251 198.615 71.7103 198.523 71.4832C198.426 71.2447 198.542 70.9719 198.78 70.8754C199.349 70.6457 199.909 70.3994 200.459 70.1384C200.692 70.025 200.969 70.1265 201.08 70.3595C201.19 70.5917 201.091 70.8701 200.859 70.9803C200.291 71.2495 199.715 71.5021 199.13 71.7398C199.118 71.7446 199.106 71.7494 199.094 71.753ZM204.85 68.7126C204.657 68.7733 204.44 68.703 204.323 68.5258C204.18 68.3117 204.237 68.0219 204.453 67.8799C209.599 64.4556 213.624 59.6495 216.089 53.9829C216.192 53.7464 216.468 53.639 216.702 53.7412C216.938 53.844 217.047 54.1187 216.944 54.3543C214.406 60.1863 210.265 65.1316 204.968 68.656C204.931 68.6804 204.891 68.6998 204.85 68.7126ZM185.417 74.0882C185.367 74.1041 185.312 74.1114 185.257 74.1093C178.911 73.8236 172.818 71.711 167.637 67.9992C167.428 67.849 167.38 67.5581 167.53 67.3486C167.681 67.1401 167.972 67.0917 168.181 67.2418C173.215 70.8483 179.134 72.9012 185.3 73.1792C185.556 73.1912 185.756 73.4081 185.744 73.6659C185.734 73.8654 185.599 74.0311 185.417 74.0882ZM164.465 65.0883C164.308 65.1378 164.13 65.102 164.002 64.9798C163.548 64.5442 163.105 64.0949 162.676 63.6329C162.5 63.4447 162.511 63.1501 162.7 62.9734C162.89 62.7995 163.184 62.8095 163.359 62.998C163.775 63.4465 164.206 63.8829 164.647 64.3071C164.833 64.4851 164.839 64.7804 164.661 64.9663C164.605 65.0249 164.537 65.0656 164.465 65.0883ZM219.324 40.9988C219.283 41.0117 219.239 41.0195 219.194 41.0199C218.936 41.0258 218.724 40.822 218.718 40.5647C218.705 39.9562 218.673 39.3444 218.625 38.7303C218.604 38.474 218.795 38.2458 219.052 38.2284C219.309 38.2083 219.533 38.3997 219.554 38.656C219.605 39.2881 219.636 39.9173 219.65 40.5432C219.655 40.7559 219.517 40.9381 219.324 40.9988ZM218.187 33.1429C218.181 33.1448 218.176 33.1465 218.17 33.1473C217.922 33.2156 217.666 33.0685 217.598 32.8211C217.49 32.4259 217.374 32.0333 217.252 31.6455C217.191 31.4516 217.128 31.2574 217.064 31.0637C216.982 30.8197 217.113 30.5557 217.357 30.4731C217.636 30.3942 217.865 30.5225 217.947 30.7663C218.014 30.9653 218.079 31.1648 218.141 31.3649C218.267 31.7652 218.386 32.1676 218.497 32.5755C218.563 32.8176 218.425 33.0682 218.187 33.1429ZM156.107 51.814C155.863 51.8906 155.603 51.7573 155.524 51.5136L155.408 51.1521C154.667 48.7962 154.192 46.3422 153.996 43.86C153.701 40.1411 154.029 36.4424 154.972 32.868C155.039 32.6194 155.295 32.4704 155.542 32.5366C155.791 32.6019 155.939 32.8571 155.873 33.1057C154.957 36.5789 154.637 40.1722 154.924 43.7859C155.115 46.1985 155.576 48.5826 156.296 50.8719L156.409 51.2235C156.489 51.4681 156.355 51.7309 156.11 51.8111C156.109 51.8131 156.108 51.8134 156.107 51.814ZM215.846 27.0644C215.633 27.1315 215.396 27.0369 215.29 26.8296C212.502 21.3255 208.201 16.7662 202.853 13.6456C202.63 13.5162 202.556 13.2298 202.685 13.0073C202.815 12.7866 203.1 12.7098 203.322 12.8401C208.827 16.0515 213.253 20.7436 216.121 26.408C216.238 26.6382 216.146 26.9182 215.916 27.0346C215.894 27.0472 215.87 27.0568 215.846 27.0644ZM157.073 29.0245C156.971 29.0566 156.857 29.0532 156.75 29.0086C156.514 28.9081 156.403 28.6341 156.504 28.397C156.752 27.8159 157.016 27.2422 157.295 26.6785C157.409 26.4481 157.688 26.3526 157.92 26.4674C158.15 26.5817 158.245 26.8607 158.131 27.092C157.859 27.6406 157.603 28.197 157.362 28.7617C157.306 28.8934 157.198 28.985 157.073 29.0245ZM190.024 9.43078C189.967 9.44896 189.904 9.45586 189.84 9.44974C189.233 9.39219 188.622 9.35078 188.007 9.32817C187.75 9.31817 187.549 9.10184 187.558 8.84488C187.568 8.58675 187.785 8.3867 188.042 8.39582C188.674 8.41962 189.303 8.46133 189.929 8.52068C190.185 8.54482 190.373 8.77301 190.349 9.02883C190.331 9.22313 190.198 9.37625 190.024 9.43078ZM166.523 16.4988C166.346 16.5545 166.146 16.5003 166.021 16.3478C165.859 16.1487 165.89 15.8546 166.09 15.6929C171.015 11.7013 176.997 9.22121 183.322 8.55835C183.579 8.53148 183.807 8.71762 183.835 8.97374C183.862 9.22925 183.677 9.45342 183.42 9.48647C177.274 10.1318 171.462 12.5399 166.677 16.4174C166.631 16.4544 166.579 16.4815 166.523 16.4988Z" fill="white"/>
</g>
<path d="M3.69652 90.9542C3.05283 95.6205 4.05394 100.132 6.26255 103.908C9.27695 109.107 14.5846 112.916 21.0048 113.801C22.2099 113.967 23.4032 114.022 24.5767 113.973C25.0076 113.965 25.4347 113.935 25.8593 113.878C29.3529 113.527 32.6306 112.267 35.411 110.311L35.4181 110.305C35.8917 109.989 36.3496 109.635 36.7829 109.265C37.4148 108.738 38.0189 108.167 38.5803 107.562C41.3543 104.615 43.2649 100.806 43.8595 96.4943C45.3896 85.4006 37.6393 75.1697 26.5457 73.6388C15.4584 72.1094 5.22744 79.8605 3.69652 90.9542Z" fill="#407BFF"/>
<path d="M35.4175 110.304C35.8912 109.988 36.349 109.634 36.7824 109.264C37.4142 108.738 38.0183 108.166 38.5798 107.561C37.9859 106.872 37.3897 106.346 36.7879 106.059C36.6732 106.002 36.557 105.952 36.4392 105.915L36.4328 105.914C36.4273 105.906 36.4139 105.904 36.4068 105.904L35.4175 110.304Z" fill="#407BFF"/>
<path opacity="0.7" d="M35.4178 110.304C35.8914 109.988 36.3493 109.634 36.7826 109.264C37.4144 108.738 38.0186 108.166 38.58 107.561C37.9862 106.872 37.3899 106.346 36.7881 106.059C36.6743 105.995 36.558 105.945 36.4402 105.908C36.4402 105.908 36.4402 105.908 36.4339 105.908C36.4204 105.906 36.4149 105.898 36.4015 105.896L36.4007 105.903L35.4178 110.304Z" fill="white"/>
<path d="M6.26226 103.909C9.27666 109.107 14.5843 112.916 21.0045 113.801C22.2096 113.967 23.4029 114.022 24.5764 113.973C25.0074 113.965 25.4344 113.935 25.859 113.878C29.3526 113.527 32.6303 112.267 35.4107 110.311L35.4178 110.305C35.8915 109.989 36.3493 109.635 36.7827 109.265C36.6965 108.108 36.585 106.986 36.4395 105.916L36.4402 105.909C36.4402 105.909 36.4402 105.909 36.4339 105.908C36.4339 105.908 36.4268 105.908 36.407 105.905L36.4007 105.904C36.0354 105.833 32.7387 105.248 28.0463 104.696C27.8383 104.668 27.6232 104.645 27.4081 104.622C26.4078 104.504 25.345 104.392 24.2411 104.287C23.6014 104.226 22.9474 104.17 22.2729 104.111C20.2359 103.946 18.0779 103.812 15.8835 103.742C15.3331 103.728 14.7756 103.712 14.2245 103.704C11.543 103.655 8.84806 103.706 6.26226 103.909Z" fill="#407BFF"/>
<path opacity="0.7" d="M6.26226 103.909C9.27666 109.107 14.5843 112.916 21.0045 113.801C22.2096 113.967 23.4029 114.022 24.5764 113.973C25.0074 113.965 25.4344 113.935 25.859 113.878C29.3526 113.527 32.6303 112.267 35.4107 110.311L35.4178 110.305C35.8915 109.989 36.3493 109.635 36.7827 109.265C36.6965 108.108 36.5786 106.985 36.4331 105.915L36.4339 105.908C36.4339 105.908 36.4268 105.908 36.407 105.905L36.4007 105.904C36.0354 105.833 32.7387 105.248 28.0463 104.696C27.8383 104.668 27.6232 104.645 27.4081 104.622C26.4078 104.504 25.345 104.392 24.2411 104.287C23.6014 104.226 22.9474 104.17 22.2729 104.111C20.2359 103.946 18.0779 103.812 15.8835 103.742C15.3331 103.728 14.7756 103.712 14.2245 103.704C11.543 103.655 8.84806 103.706 6.26226 103.909Z" fill="white"/>
<path d="M21.0447 106.787L22.6357 108.507L24.3342 110.338C24.4679 111.394 24.5509 112.626 24.5762 113.974C25.0072 113.965 25.4342 113.935 25.8588 113.878C25.6667 111.614 25.5228 110.182 25.5228 110.182L26.2431 108.125L26.7247 106.759L24.0939 106.246L21.0447 106.787Z" fill="#263238"/>
<path d="M15.8267 103.676C17.9713 106.242 24.0926 106.247 24.0926 106.247C24.0926 106.247 27.984 105.738 27.3577 104.457C25.1989 103.787 24.2721 102.609 24.012 101.229C23.8617 100.426 23.9424 99.5561 24.1361 98.676C24.2326 98.2134 24.3686 97.7492 24.5157 97.2929L17.8471 90.7683C18.3216 94.5331 18.5912 101.376 15.8267 103.676Z" fill="#E4897B"/>
<path opacity="0.2" d="M19.082 94.5017C18.7618 98.9988 22.2546 100.733 24.0132 101.23C23.863 100.427 23.9437 99.5571 24.1374 98.677L19.082 94.5017Z" fill="black"/>
<path d="M17.3115 101L23.969 105.18L24.7392 102.672L27.223 103.95C28.1142 104.409 28.5744 105.419 28.3348 106.393L27.6516 109.168L24.3217 106.7L22.1771 108.991L14.2165 103.707L17.3115 101Z" fill="#407BFF"/>
<path opacity="0.6" d="M17.3115 101L23.969 105.18L24.7392 102.672L27.223 103.95C28.1142 104.409 28.5744 105.419 28.3348 106.393L27.6516 109.168L24.3217 106.7L22.1771 108.991L14.2165 103.707L17.3115 101Z" fill="white"/>
<path d="M34.4971 82.5539C34.4971 82.5539 34.6197 89.8582 30.45 92.0985C26.2803 94.3387 28.0769 81.0159 28.0769 81.0159L34.4971 82.5539Z" fill="#263238"/>
<path d="M18.6551 96.299C20.141 99.1964 23.0534 100.296 25.7744 99.8218C27.5236 99.5198 29.1936 98.5614 30.3569 97.0162C30.5118 96.8154 30.655 96.5987 30.7934 96.3757C33.2526 92.2542 34.8793 84.6842 30.6415 81.193C27.6374 78.6823 23.1569 79.0801 20.6455 82.0913C19.9251 82.9422 19.4253 83.9583 19.1707 85.0472C17.9126 90.0844 16.9352 92.9857 18.6551 96.299Z" fill="#E4897B"/>
<path d="M26.2558 88.7843C26.1024 89.175 26.2384 89.579 26.5065 89.6629C26.7745 89.7459 27.0861 89.4818 27.2142 89.0809C27.3423 88.6799 27.2253 88.2838 26.9635 88.2023C26.701 88.1217 26.3863 88.3779 26.2558 88.7843Z" fill="#263238"/>
<path d="M30.8154 90.2109C30.662 90.6023 30.8044 91.008 31.0661 91.0894C31.3278 91.1701 31.6449 90.9083 31.7738 90.5074C31.9019 90.1065 31.7849 89.7103 31.5232 89.6289C31.2614 89.5482 30.9364 89.8289 30.8154 90.2109Z" fill="#263238"/>
<path d="M29.3048 89.9563C29.3989 91.3401 29.6844 92.7042 30.1525 94.0106C29.4661 94.2359 28.7149 94.1466 28.1005 93.7662L29.3048 89.9563Z" fill="#DE5753"/>
<path d="M33.1158 88.7923C33.0248 88.8112 32.9315 88.7796 32.8699 88.7108C32.4697 88.2229 31.8632 87.9517 31.233 87.9802C31.0977 87.9983 30.9736 87.9034 30.9554 87.769C30.9372 87.6338 31.0321 87.5096 31.1665 87.4915H31.1673C31.9636 87.4353 32.737 87.769 33.2431 88.3858C33.3348 88.4862 33.3277 88.6428 33.2273 88.7345C33.2257 88.7361 33.2241 88.7369 33.2225 88.7385C33.1901 88.7614 33.1545 88.7796 33.1158 88.7923Z" fill="#263238"/>
<path d="M25.9237 86.6785C25.8763 86.6619 25.8351 86.6311 25.8067 86.5908C25.7513 86.4666 25.8074 86.3203 25.9316 86.265C25.9332 86.2642 25.9348 86.2634 25.9363 86.2626C26.6654 85.9313 27.51 85.9763 28.2003 86.382C28.3134 86.4579 28.3434 86.6113 28.2683 86.7244C28.19 86.8351 28.0398 86.8652 27.9251 86.7924C27.3708 86.488 26.7058 86.4634 26.1309 86.726C26.0581 86.741 25.9822 86.7236 25.9237 86.6785Z" fill="#263238"/>
<path d="M24.7377 80.0044L24.4293 82.2889C23.6021 82.4858 22.9505 83.1912 23.0573 84.1504C23.2858 86.1992 21.475 88.8111 19.7448 89.5892C19.7448 89.5892 19.9108 88.7708 19.181 88.7842C18.4503 88.7977 17.5409 93.0473 18.3451 95.3982C18.3451 95.3982 16.8102 93.0615 16.8284 88.3549C16.845 84.0025 17.6026 80.569 18.8528 79.2104L24.7377 80.0044Z" fill="#263238"/>
<path d="M15.7345 88.4316C15.933 89.7245 16.6368 90.8853 17.6909 91.6603C19.0929 92.6764 20.3937 91.5646 20.5108 89.9269C20.6001 88.4703 20.0007 86.1439 18.3433 85.7912C16.685 85.4393 15.5107 86.8421 15.7345 88.4316Z" fill="#E4897B"/>
<path d="M27.3907 94.947C26.8901 95.4641 26.2038 96.5222 26.2038 96.5222C26.097 96.4771 25.9895 96.432 25.8851 96.3822C24.449 95.7369 23.9959 94.9628 23.9295 94.3001C23.8947 93.938 23.9801 93.6066 24.0829 93.3512C24.1992 93.0547 24.3494 92.8696 24.3494 92.8696C24.9061 93.6667 26.199 94.3721 26.9052 94.7192C27.1993 94.8679 27.3907 94.947 27.3907 94.947Z" fill="#263238"/>
<path d="M26.9053 94.7192L26.5432 95.1747C25.1917 94.5634 24.3227 93.9514 24.0831 93.3512C24.1993 93.0547 24.3496 92.8696 24.3496 92.8696C24.9063 93.6659 26.1992 94.3713 26.9053 94.7192Z" fill="white"/>
<path d="M25.886 96.3814C24.45 95.7361 23.9969 94.962 23.9304 94.2993C24.4112 94.5381 24.9647 94.8797 25.383 95.3321C25.7041 95.6768 25.8377 96.0461 25.886 96.3814Z" fill="#DE5753"/>
<path d="M19.1192 92.0106C19.1192 92.0106 19.1192 92.0106 19.12 92.0042C19.3849 91.0719 19.6838 90.1926 19.9297 89.4959C20.106 89.0088 20.2563 88.6134 20.3694 88.3351C20.4745 88.0702 20.5362 87.9144 20.5362 87.9144L21.259 87.6187C21.259 87.6187 21.1198 88.0836 21.0146 88.6973C20.8628 89.5497 20.7766 90.6702 21.2234 91.189C21.2234 91.189 24.1927 91.9196 25.2041 92.3522C26.2163 92.7784 26.6852 94.0776 26.6852 94.0776C26.6852 94.0776 29.1121 93.8942 29.8918 95.8094C29.8918 95.8094 31.2495 94.9664 32.1486 93.494C32.1763 93.4434 32.2103 93.3936 32.238 93.343C32.238 93.343 31.4678 98.3327 28.2944 100.617C27.0079 101.538 25.5228 101.77 24.086 101.551C21.9865 101.241 19.9851 99.9759 18.8906 98.5628C18.4107 97.9374 18.2999 96.9125 18.3869 95.7374C18.4747 94.5545 18.7728 93.2315 19.1192 92.0106ZM26.4227 94.3552C26.4227 94.3552 25.7988 93.3889 24.4244 92.9674C24.3849 92.9555 24.3461 92.9429 24.3058 92.9373C24.1421 92.8875 23.9697 92.8504 23.7894 92.8251C22.7061 92.6685 21.8038 93.3699 21.4156 94.2579C21.1625 94.8573 21.1372 95.5358 21.4361 96.0893C22.0418 97.1893 23.1956 97.3822 24.067 96.8477C24.2821 96.7204 24.4845 96.5432 24.6506 96.3281L25.5236 96.9742C25.5236 96.9742 24.373 97.7025 25.0396 98.6063C25.7118 99.5181 28.1821 99.5647 28.7404 97.2952C29.3216 94.953 26.4227 94.3552 26.4227 94.3552Z" fill="#263238"/>
<path d="M24.43 82.2882C24.43 82.2882 35.2729 87.7413 35.0191 79.889C35.0191 79.889 29.3802 75.4235 23.8859 75.6979C18.3917 75.9723 18.0485 81.5773 18.0485 81.5773L24.43 82.2882Z" fill="#263238"/>
<path d="M23.8072 117.56C28.3012 117.56 32.6915 116.286 36.5053 113.876C36.6627 113.776 36.7101 113.568 36.6105 113.41C36.5109 113.252 36.3021 113.205 36.144 113.304C32.4392 115.647 28.1731 116.884 23.8072 116.884L23.5044 116.883C23.5044 116.883 23.502 116.883 23.5004 116.883C23.3154 116.883 23.1644 117.031 23.1628 117.216C23.1604 117.403 23.3106 117.556 23.4965 117.558L23.8072 117.56ZM13.7013 115.294C13.8278 115.294 13.9488 115.223 14.0073 115.101C14.0872 114.933 14.0152 114.731 13.8468 114.651C13.445 114.461 13.0504 114.259 12.663 114.047C12.5001 113.956 12.2937 114.017 12.2043 114.181C12.115 114.345 12.1751 114.551 12.3388 114.64C12.7381 114.858 13.1446 115.066 13.5581 115.262C13.604 115.284 13.653 115.294 13.7013 115.294ZM9.66519 112.852C9.76799 112.852 9.86919 112.805 9.93562 112.718C10.0479 112.569 10.0179 112.356 9.86921 112.245C6.28783 109.551 3.57709 105.904 2.03035 101.701C1.96551 101.526 1.77256 101.436 1.59701 101.501C1.42146 101.566 1.33211 101.759 1.39695 101.934C2.98876 106.261 5.77778 110.013 9.46354 112.785C9.52364 112.83 9.59481 112.852 9.66519 112.852ZM39.0421 111.925C39.1196 111.925 39.1979 111.898 39.2612 111.845C39.6083 111.548 39.9476 111.241 40.2773 110.925C40.4117 110.796 40.4165 110.582 40.2876 110.447C40.1587 110.312 39.9444 110.307 39.81 110.437C39.4889 110.744 39.16 111.042 38.8223 111.33C38.68 111.451 38.6634 111.664 38.7843 111.806C38.8516 111.885 38.9464 111.925 39.0421 111.925ZM45.6482 102.669C45.7826 102.669 45.9107 102.588 45.9629 102.455C46.6509 100.703 47.1317 98.8603 47.3918 96.9783C47.5421 95.8886 47.618 94.7832 47.618 93.6911C47.618 92.112 47.459 90.528 47.1467 88.9837C47.1095 88.8002 46.9308 88.6808 46.7481 88.7196C46.5647 88.7567 46.4469 88.9347 46.484 89.1181C46.7885 90.6182 46.9427 92.1562 46.9427 93.6911C46.9427 94.7523 46.8683 95.827 46.7228 96.8858C46.4706 98.7148 46.0032 100.505 45.3342 102.208C45.2662 102.382 45.3516 102.578 45.5256 102.646C45.5652 102.662 45.6071 102.669 45.6482 102.669ZM0.353931 92.191C0.52869 92.191 0.676552 92.0566 0.689995 91.8803C0.725582 91.4398 0.77383 90.9986 0.834717 90.5557C0.860023 90.3707 0.73111 90.2007 0.54607 90.1754C0.364986 90.1509 0.190235 90.279 0.165722 90.464C0.103252 90.9195 0.053421 91.3734 0.0170441 91.8265C0.00202179 92.0123 0.140404 92.1752 0.327023 92.1902C0.33572 92.1902 0.34444 92.191 0.353931 92.191ZM1.50764 86.5481C1.64919 86.5481 1.78046 86.4588 1.8279 86.318C1.96945 85.8957 2.12365 85.479 2.28813 85.0686C2.35772 84.8954 2.2739 84.6985 2.10072 84.6289C1.92833 84.5593 1.73064 84.6432 1.66105 84.8163C1.49183 85.2386 1.33288 85.6672 1.18659 86.1021C1.12728 86.2793 1.22218 86.4706 1.39931 86.5307C1.43648 86.5426 1.47206 86.5481 1.50764 86.5481ZM45.9068 86.1369C45.9447 86.1369 45.9835 86.1306 46.0214 86.1172C46.197 86.0539 46.2879 85.8602 46.2255 85.6846C46.0705 85.2536 45.9036 84.8274 45.7249 84.4075C45.6521 84.2351 45.4521 84.1561 45.2821 84.2288C45.1105 84.3016 45.0306 84.5 45.1034 84.6716C45.2765 85.0805 45.4386 85.4932 45.5889 85.9131C45.6379 86.0515 45.7684 86.1369 45.9068 86.1369ZM3.45608 82.2472C3.57233 82.2472 3.68542 82.1871 3.74869 82.0795C5.99762 78.2142 9.30065 75.0963 13.3027 73.0624C13.4688 72.9778 13.5352 72.7746 13.4506 72.6077C13.366 72.4424 13.1635 72.3752 12.9959 72.4598C8.87838 74.5522 5.47887 77.7619 3.1643 81.7395C3.0702 81.9008 3.12476 82.1072 3.28607 82.2013C3.33984 82.2329 3.39836 82.2472 3.45608 82.2472ZM39.5925 76.6746C39.6842 76.6746 39.7752 76.6375 39.8424 76.5639C39.9681 76.4263 39.9578 76.2128 39.8202 76.0863C36.4152 72.9833 32.2075 70.9479 27.6511 70.1998C27.4677 70.1706 27.2929 70.2947 27.2629 70.479C27.2328 70.6632 27.3578 70.8372 27.542 70.8672C31.9687 71.594 36.0578 73.5717 39.3655 76.5861C39.4296 76.6462 39.5111 76.6746 39.5925 76.6746ZM22.8828 70.5731C22.8876 70.5731 22.8915 70.5731 22.8963 70.5731C23.196 70.5612 23.4965 70.5604 23.7985 70.5565C23.9417 70.5565 24.0848 70.5581 24.2279 70.5612C24.4525 70.5636 24.5695 70.4173 24.5727 70.2307C24.5766 70.0441 24.4288 69.8891 24.2422 69.8851C24.0769 69.882 23.9116 69.8812 23.7487 69.8804C23.4553 69.8804 23.1628 69.8859 22.871 69.897C22.6843 69.9041 22.5389 70.0607 22.546 70.2473C22.5523 70.43 22.7017 70.5731 22.8828 70.5731Z" fill="#263238"/>
<g opacity="0.5">
<path d="M23.8072 117.56C28.3012 117.56 32.6915 116.286 36.5053 113.876C36.6627 113.776 36.7101 113.568 36.6105 113.41C36.5109 113.252 36.3021 113.205 36.144 113.304C32.4392 115.647 28.1731 116.884 23.8072 116.884L23.5044 116.883C23.5044 116.883 23.502 116.883 23.5004 116.883C23.3154 116.883 23.1644 117.031 23.1628 117.216C23.1604 117.403 23.3106 117.556 23.4965 117.558L23.8072 117.56ZM13.7013 115.294C13.8278 115.294 13.9488 115.223 14.0073 115.101C14.0872 114.933 14.0152 114.731 13.8468 114.651C13.445 114.461 13.0504 114.259 12.663 114.047C12.5001 113.956 12.2937 114.017 12.2043 114.181C12.115 114.345 12.1751 114.551 12.3388 114.64C12.7381 114.858 13.1446 115.066 13.5581 115.262C13.604 115.284 13.653 115.294 13.7013 115.294ZM9.66519 112.852C9.76799 112.852 9.86919 112.805 9.93562 112.718C10.0479 112.569 10.0179 112.356 9.86921 112.245C6.28783 109.551 3.57709 105.904 2.03035 101.701C1.96551 101.526 1.77256 101.436 1.59701 101.501C1.42146 101.566 1.33211 101.759 1.39695 101.934C2.98876 106.261 5.77778 110.013 9.46354 112.785C9.52364 112.83 9.59481 112.852 9.66519 112.852ZM39.0421 111.925C39.1196 111.925 39.1979 111.898 39.2612 111.845C39.6083 111.548 39.9476 111.241 40.2773 110.925C40.4117 110.796 40.4165 110.582 40.2876 110.447C40.1587 110.312 39.9444 110.307 39.81 110.437C39.4889 110.744 39.16 111.042 38.8223 111.33C38.68 111.451 38.6634 111.664 38.7843 111.806C38.8516 111.885 38.9464 111.925 39.0421 111.925ZM45.6482 102.669C45.7826 102.669 45.9107 102.588 45.9629 102.455C46.6509 100.703 47.1317 98.8603 47.3918 96.9783C47.5421 95.8886 47.618 94.7832 47.618 93.6911C47.618 92.112 47.459 90.528 47.1467 88.9837C47.1095 88.8002 46.9308 88.6808 46.7481 88.7196C46.5647 88.7567 46.4469 88.9347 46.484 89.1181C46.7885 90.6182 46.9427 92.1562 46.9427 93.6911C46.9427 94.7523 46.8683 95.827 46.7228 96.8858C46.4706 98.7148 46.0032 100.505 45.3342 102.208C45.2662 102.382 45.3516 102.578 45.5256 102.646C45.5652 102.662 45.6071 102.669 45.6482 102.669ZM0.353931 92.191C0.52869 92.191 0.676552 92.0566 0.689995 91.8803C0.725582 91.4398 0.77383 90.9986 0.834717 90.5557C0.860023 90.3707 0.73111 90.2007 0.54607 90.1754C0.364986 90.1509 0.190235 90.279 0.165722 90.464C0.103252 90.9195 0.053421 91.3734 0.0170441 91.8265C0.00202179 92.0123 0.140404 92.1752 0.327023 92.1902C0.33572 92.1902 0.34444 92.191 0.353931 92.191ZM1.50764 86.5481C1.64919 86.5481 1.78046 86.4588 1.8279 86.318C1.96945 85.8957 2.12365 85.479 2.28813 85.0686C2.35772 84.8954 2.2739 84.6985 2.10072 84.6289C1.92833 84.5593 1.73064 84.6432 1.66105 84.8163C1.49183 85.2386 1.33288 85.6672 1.18659 86.1021C1.12728 86.2793 1.22218 86.4706 1.39931 86.5307C1.43648 86.5426 1.47206 86.5481 1.50764 86.5481ZM45.9068 86.1369C45.9447 86.1369 45.9835 86.1306 46.0214 86.1172C46.197 86.0539 46.2879 85.8602 46.2255 85.6846C46.0705 85.2536 45.9036 84.8274 45.7249 84.4075C45.6521 84.2351 45.4521 84.1561 45.2821 84.2288C45.1105 84.3016 45.0306 84.5 45.1034 84.6716C45.2765 85.0805 45.4386 85.4932 45.5889 85.9131C45.6379 86.0515 45.7684 86.1369 45.9068 86.1369ZM3.45608 82.2472C3.57233 82.2472 3.68542 82.1871 3.74869 82.0795C5.99762 78.2142 9.30065 75.0963 13.3027 73.0624C13.4688 72.9778 13.5352 72.7746 13.4506 72.6077C13.366 72.4424 13.1635 72.3752 12.9959 72.4598C8.87838 74.5522 5.47887 77.7619 3.1643 81.7395C3.0702 81.9008 3.12476 82.1072 3.28607 82.2013C3.33984 82.2329 3.39836 82.2472 3.45608 82.2472ZM39.5925 76.6746C39.6842 76.6746 39.7752 76.6375 39.8424 76.5639C39.9681 76.4263 39.9578 76.2128 39.8202 76.0863C36.4152 72.9833 32.2075 70.9479 27.6511 70.1998C27.4677 70.1706 27.2929 70.2947 27.2629 70.479C27.2328 70.6632 27.3578 70.8372 27.542 70.8672C31.9687 71.594 36.0578 73.5717 39.3655 76.5861C39.4296 76.6462 39.5111 76.6746 39.5925 76.6746ZM22.8828 70.5731C22.8876 70.5731 22.8915 70.5731 22.8963 70.5731C23.196 70.5612 23.4965 70.5604 23.7985 70.5565C23.9417 70.5565 24.0848 70.5581 24.2279 70.5612C24.4525 70.5636 24.5695 70.4173 24.5727 70.2307C24.5766 70.0441 24.4288 69.8891 24.2422 69.8851C24.0769 69.882 23.9116 69.8812 23.7487 69.8804C23.4553 69.8804 23.1628 69.8859 22.871 69.897C22.6843 69.9041 22.5389 70.0607 22.546 70.2473C22.5523 70.43 22.7017 70.5731 22.8828 70.5731Z" fill="white"/>
</g>
<path d="M147.699 87.716C147.138 95.8443 142.995 102.883 136.925 107.375C136.142 107.957 135.335 108.5 134.488 108.987C134.069 109.235 133.631 109.473 133.196 109.685C129.005 111.847 124.199 112.918 119.16 112.572L119.036 112.564C118.076 112.488 117.136 112.37 116.216 112.208C115.73 112.121 115.246 112.016 114.771 111.894C114.726 111.89 114.682 111.879 114.638 111.866C113.854 111.678 113.084 111.455 112.333 111.188C112.148 111.14 111.964 111.074 111.783 110.989C111.084 110.753 110.407 110.465 109.739 110.151C109.348 109.98 108.968 109.793 108.598 109.588C107.88 109.217 107.174 108.81 106.508 108.371C105.96 108.02 105.422 107.643 104.903 107.25C103.755 106.384 102.676 105.432 101.684 104.389C101.408 104.111 101.141 103.816 100.885 103.512C100.734 103.358 100.594 103.197 100.471 103.027C96.1809 97.9201 93.8003 91.2079 94.2958 84.033C95.3137 69.2822 108.093 58.1517 122.844 59.1697C137.584 60.185 148.715 72.9656 147.699 87.716Z" fill="#407BFF"/>
<path d="M101.684 104.389C101.408 104.111 101.141 103.816 100.886 103.512C100.734 103.358 100.594 103.197 100.471 103.028C100.824 102.712 101.145 102.456 101.415 102.306C101.473 102.256 101.5 102.249 101.5 102.249L101.684 104.389Z" fill="#407BFF"/>
<path opacity="0.5" d="M101.684 104.389C101.408 104.111 101.141 103.816 100.886 103.512C100.734 103.358 100.594 103.197 100.471 103.028C100.824 102.712 101.145 102.456 101.415 102.306C101.473 102.256 101.5 102.249 101.5 102.249L101.684 104.389Z" fill="white"/>
<path d="M135.767 104.951C135.767 104.951 135.765 104.961 135.756 104.977C135.292 106.376 134.869 107.715 134.486 108.986C134.067 109.234 133.629 109.472 133.194 109.683C129.003 111.845 124.198 112.917 119.159 112.571L119.035 112.562C118.074 112.487 117.134 112.368 116.214 112.207C115.728 112.12 115.244 112.015 114.769 111.892C114.724 111.889 114.68 111.878 114.636 111.865C113.852 111.676 113.082 111.454 112.331 111.187C112.146 111.139 111.962 111.072 111.781 110.988C111.083 110.752 110.405 110.464 109.737 110.149C109.346 109.979 108.966 109.792 108.596 109.587C107.878 109.215 107.173 108.809 106.506 108.369C105.958 108.019 105.42 107.641 104.901 107.248C103.753 106.383 102.675 105.431 101.682 104.388C101.406 104.109 101.139 103.814 100.884 103.511C101.1 102.704 101.309 102.404 101.414 102.305C101.471 102.254 101.498 102.247 101.498 102.247C101.498 102.247 107.206 101.567 112.31 101.481C112.426 101.48 112.534 101.478 112.641 101.476C113.212 101.489 113.785 101.502 114.354 101.532C117.103 101.615 119.842 101.839 122.563 102.206C123.256 102.289 123.947 102.391 124.636 102.5C124.867 102.534 125.088 102.567 125.317 102.6C128.852 103.151 132.33 103.936 135.767 104.951Z" fill="#407BFF"/>
<path opacity="0.5" d="M135.767 104.951C135.767 104.951 135.765 104.961 135.756 104.977C135.292 106.376 134.869 107.715 134.486 108.986C134.067 109.234 133.629 109.472 133.194 109.683C129.003 111.845 124.198 112.917 119.159 112.571L119.035 112.562C118.074 112.487 117.134 112.368 116.214 112.207C115.728 112.12 115.244 112.015 114.769 111.892C114.724 111.889 114.68 111.878 114.636 111.865C113.852 111.676 113.082 111.454 112.331 111.187C112.146 111.139 111.962 111.072 111.781 110.988C111.083 110.752 110.405 110.464 109.737 110.149C109.346 109.979 108.966 109.792 108.596 109.587C107.878 109.215 107.173 108.809 106.506 108.369C105.958 108.019 105.42 107.641 104.901 107.248C103.753 106.383 102.675 105.431 101.682 104.388C101.406 104.109 101.139 103.814 100.884 103.511C101.1 102.704 101.309 102.404 101.414 102.305C101.471 102.254 101.498 102.247 101.498 102.247C101.498 102.247 107.206 101.567 112.31 101.481C112.426 101.48 112.534 101.478 112.641 101.476C113.212 101.489 113.785 101.502 114.354 101.532C117.103 101.615 119.842 101.839 122.563 102.206C123.256 102.289 123.947 102.391 124.636 102.5C124.867 102.534 125.088 102.567 125.317 102.6C128.852 103.151 132.33 103.936 135.767 104.951Z" fill="white"/>
<path d="M108.173 106.653L111.783 110.989C111.084 110.753 110.407 110.465 109.739 110.151C109.348 109.98 108.968 109.793 108.598 109.588L108.502 108.911L108.173 106.653Z" fill="#263238"/>
<path d="M121.564 107.809L120.505 109.792L119.035 112.562C118.074 112.487 117.134 112.368 116.214 112.207C115.728 112.12 115.244 112.015 114.769 111.892C114.724 111.889 114.68 111.878 114.636 111.865L118.196 109.784L121.564 107.809Z" fill="#263238"/>
<path d="M127.639 109.321L124.092 108.218C124.092 108.218 122.587 108.766 120.504 109.795C119.226 110.423 117.722 111.231 116.215 112.209C115.728 112.122 115.244 112.017 114.769 111.894C114.724 111.891 114.681 111.879 114.637 111.866C113.853 111.678 113.082 111.456 112.331 111.189C112.146 111.14 111.963 111.074 111.782 110.99C111.083 110.754 110.405 110.466 109.738 110.151C109.33 109.704 108.921 109.281 108.499 108.913C108.187 108.649 107.872 108.412 107.563 108.231L106.507 108.373C105.959 108.023 105.421 107.645 104.902 107.252C106.126 105.592 108.554 102.925 112.312 101.484C113.047 101.203 113.833 100.962 114.676 100.797C116.71 100.374 119.047 100.338 121.709 100.906L121.717 100.908C123.223 101.235 124.417 101.828 125.32 102.605C127.332 104.307 127.959 106.892 127.639 109.321Z" fill="#263238"/>
<path opacity="0.1" d="M127.639 109.321L124.092 108.218C124.092 108.218 122.587 108.766 120.504 109.795C119.226 110.423 117.722 111.231 116.215 112.209C115.728 112.122 115.244 112.017 114.769 111.894C114.724 111.891 114.681 111.879 114.637 111.866C113.853 111.678 113.082 111.456 112.331 111.189C112.146 111.14 111.963 111.074 111.782 110.99C111.083 110.754 110.405 110.466 109.738 110.151C109.33 109.704 108.921 109.281 108.499 108.913C108.187 108.649 107.872 108.412 107.563 108.231L106.507 108.373C105.959 108.023 105.421 107.645 104.902 107.252C106.126 105.592 108.554 102.925 112.312 101.484C113.047 101.203 113.833 100.962 114.676 100.797C116.71 100.374 119.047 100.338 121.709 100.906L121.717 100.908C123.223 101.235 124.417 101.828 125.32 102.605C127.332 104.307 127.959 106.892 127.639 109.321Z" fill="white"/>
<path d="M123.435 103.501C123.188 105.773 120.679 108.061 118.199 109.785C116.949 110.647 115.701 111.384 114.771 111.892C114.725 111.889 114.682 111.877 114.638 111.864C113.854 111.676 113.083 111.453 112.332 111.187C111.159 108.879 109.596 104.559 112.968 102.618C113.201 102.481 113.477 102.367 113.77 102.253C113.96 102.096 114.172 101.868 114.356 101.533C114.469 101.335 114.584 101.084 114.675 100.795C114.902 100.085 115.05 99.1037 115.003 97.7233C114.993 97.3379 114.968 96.9241 114.917 96.4825C114.91 96.3205 114.886 96.1589 114.871 95.9954C114.84 95.7876 114.82 95.5632 114.782 95.3363C114.74 95.0387 114.69 94.7302 114.631 94.4044L122.508 92.7655C122.508 92.7655 122.496 92.7997 122.466 92.86C122.352 93.103 122.064 93.7808 121.793 94.7104L121.794 94.7199C121.342 96.343 120.944 98.7406 121.716 100.904C121.859 101.298 122.029 101.677 122.255 102.05C122.368 102.093 122.472 102.146 122.567 102.205C123.162 102.526 123.499 102.951 123.435 103.501Z" fill="#EEC1BB"/>
<path opacity="0.2" d="M114.632 94.4027C114.867 95.7058 114.977 96.8002 115.008 97.727C120.352 97.6188 122.513 92.7662 122.513 92.7662L114.632 94.4027Z" fill="black"/>
<path d="M117.639 68.2311C117.639 68.2311 108.337 67.2447 106.781 74.7449C105.226 82.2451 111.067 86.2879 111.067 86.2879L117.639 68.2311Z" fill="#263238"/>
<path d="M118.561 72.1949C111.676 71.9562 109.334 75.5657 108.583 82.6433C107.646 91.4871 109.393 97.854 118.067 96.2579C129.846 94.0921 129.994 72.5919 118.561 72.1949Z" fill="#EEC1BB"/>
<path d="M113.046 82.4132C113.046 82.4132 112.03 84.1784 110.944 85.1995C110.944 85.1995 111.502 86.1557 112.731 86.0409L113.046 82.4132Z" fill="#D4827D"/>
<path d="M117.279 81.9948C117.247 82.5603 117.525 83.0352 117.902 83.058C118.278 83.0793 118.611 82.6397 118.643 82.0742C118.676 81.5087 118.397 81.0338 118.02 81.011C117.645 80.9897 117.313 81.4306 117.279 81.9948Z" fill="#263238"/>
<path d="M118.177 81.0479L116.976 80.4949C116.976 80.4949 117.529 81.5648 118.177 81.0479Z" fill="#263238"/>
<path d="M110.263 81.4695C110.23 82.035 110.509 82.5099 110.886 82.5326C111.262 82.5554 111.595 82.1143 111.627 81.5488C111.659 80.9833 111.381 80.5084 111.004 80.4856C110.627 80.4647 110.295 80.9055 110.263 81.4695Z" fill="#263238"/>
<path d="M111.16 80.523L109.958 79.97C109.958 79.97 110.511 81.0399 111.16 80.523Z" fill="#263238"/>
<path d="M117.514 77.2441C117.514 77.2441 119.458 77.0592 120.463 78.3882" stroke="#263238" stroke-width="0.612399" stroke-miterlimit="10" stroke-linecap="round" stroke-linejoin="round"/>
<path d="M112.52 76.7794C112.52 76.7794 111.32 76.2863 109.757 77.2502" stroke="#263238" stroke-width="0.612399" stroke-miterlimit="10" stroke-linecap="round" stroke-linejoin="round"/>
<path d="M125.683 84.0598C125.683 84.0598 122.66 78.2916 123.298 73.9422C123.298 73.9422 109.848 67.8964 108.696 81.7197C108.696 81.7197 107.789 69.3785 119.633 69.5134C131.457 69.6491 130.826 86.9599 124.536 91.9076C124.536 91.9076 127.552 87.6649 125.683 84.0598Z" fill="#263238"/>
<path d="M116.454 67.7221C116.454 67.7221 110.774 66.4502 109.204 67.9741C107.635 69.4996 119.258 79.8279 125.251 80.774C125.251 80.774 127.41 87.3453 125.873 90.4704C125.873 90.4704 132.545 87.9887 132.658 77.7448C132.774 67.5003 121.925 63.8778 116.454 67.7221Z" fill="#263238"/>
<path d="M124.508 85.4741C124.592 84.3676 125.8 82.5304 127.854 82.8271C129.979 83.1344 130.845 87.5481 125.502 88.4181C124.736 88.542 124.332 87.7821 124.508 85.4741Z" fill="#EEC1BB"/>
<path d="M127.201 71.5598C127.201 71.5598 129.427 65.5398 135.728 65.8405C142.029 66.1412 143.186 75.9333 140.025 83.2507C136.865 90.5696 139.151 92.8699 139.151 92.8699C139.151 92.8699 135.623 92.5138 135.492 86.0081C135.492 86.0081 135.215 88.1471 135.363 90.1716C135.363 90.1716 132.95 86.9121 135.064 80.5759C137.177 74.2381 130.089 77.2625 130.089 77.2625L127.201 71.5598Z" fill="#263238"/>
<path d="M109.749 68.4963C109.749 68.4963 112.927 78.0348 120.984 80.7534" stroke="#263238" stroke-width="0.612399" stroke-miterlimit="10" stroke-linecap="round" stroke-linejoin="round"/>
<path d="M118.151 88.3864C118.151 88.3864 116.585 90.1254 114.238 90.0648" stroke="#263238" stroke-width="0.612399" stroke-miterlimit="10" stroke-linecap="round" stroke-linejoin="round"/>
<path d="M113.774 83.0336C113.793 83.9472 114.488 84.6731 115.327 84.656C116.166 84.6389 116.832 83.8852 116.814 82.9716C116.795 82.058 116.101 81.3322 115.261 81.3493C114.422 81.3663 113.758 82.1197 113.774 83.0336Z" stroke="#263238" stroke-width="0.446172" stroke-miterlimit="10" stroke-linecap="round" stroke-linejoin="round"/>
<path d="M108.384 82.8741C108.403 83.7876 109.097 84.5135 109.937 84.4964C110.776 84.4793 111.442 83.7256 111.423 82.812C111.405 81.8984 110.71 81.1726 109.871 81.1897C109.032 81.2082 108.366 81.962 108.384 82.8741Z" stroke="#263238" stroke-width="0.446172" stroke-miterlimit="10" stroke-linecap="round" stroke-linejoin="round"/>
<path d="M113.774 83.0336C113.774 83.0336 112.941 81.3432 111.422 82.8137" stroke="#263238" stroke-width="0.446172" stroke-miterlimit="10" stroke-linecap="round" stroke-linejoin="round"/>
<path d="M116.815 82.9712C116.815 82.9712 125.342 82.5326 126.356 82.5664" stroke="#263238" stroke-width="0.446172" stroke-miterlimit="10" stroke-linecap="round" stroke-linejoin="round"/>
<path d="M136.924 107.376C136.141 107.957 135.334 108.501 134.487 108.988C134.067 109.236 133.63 109.474 133.195 109.685C134.434 107.024 135.607 105.191 135.755 104.978C135.765 104.96 135.765 104.952 135.765 104.952C135.765 104.952 136.207 105.84 136.924 107.376Z" fill="#407BFF"/>
<path opacity="0.5" d="M136.924 107.376C136.141 107.957 135.334 108.501 134.487 108.988C134.067 109.236 133.63 109.474 133.195 109.685C134.434 107.024 135.607 105.191 135.755 104.978C135.765 104.96 135.765 104.952 135.765 104.952C135.765 104.952 136.207 105.84 136.924 107.376Z" fill="white"/>
<path d="M128.376 116.474C128.14 116.523 127.908 116.378 127.851 116.143C127.793 115.902 127.941 115.662 128.179 115.604C128.75 115.465 129.315 115.312 129.873 115.143C130.11 115.079 130.357 115.205 130.429 115.441C130.501 115.676 130.367 115.925 130.132 115.998C129.557 116.172 128.974 116.331 128.388 116.473C128.385 116.472 128.38 116.473 128.376 116.474ZM134.254 114.408C134.056 114.449 133.848 114.351 133.759 114.16C133.654 113.937 133.75 113.672 133.973 113.567C139.328 111.051 143.816 107.07 146.951 102.055C147.08 101.845 147.357 101.781 147.566 101.913C147.776 102.044 147.838 102.318 147.708 102.528C144.483 107.691 139.863 111.787 134.353 114.376C134.32 114.391 134.286 114.401 134.254 114.408ZM115.098 116.752C115.04 116.764 114.982 116.765 114.92 116.753C108.954 115.587 103.485 112.726 99.1037 108.479C98.9266 108.308 98.9213 108.025 99.094 107.849C99.2652 107.674 99.5482 107.668 99.7237 107.84C103.981 111.965 109.295 114.744 115.091 115.877C115.333 115.925 115.49 116.159 115.443 116.4C115.408 116.582 115.268 116.716 115.098 116.752ZM96.5341 105.274C96.373 105.308 96.1972 105.25 96.0902 105.11C95.7221 104.633 95.3657 104.145 95.0252 103.648C94.8859 103.445 94.9373 103.168 95.1411 103.027C95.3452 102.887 95.6211 102.939 95.7606 103.143C96.0923 103.627 96.4372 104.1 96.7949 104.564C96.9454 104.76 96.9101 105.039 96.715 105.191C96.6605 105.234 96.5995 105.261 96.5341 105.274ZM151.868 90.2172C151.821 90.227 151.771 90.2296 151.722 90.2224C151.477 90.1927 151.304 89.9703 151.335 89.7242C151.406 89.1458 151.464 88.5606 151.505 87.9728C151.521 87.7265 151.736 87.5402 151.98 87.559C152.226 87.5756 152.41 87.7894 152.394 88.0342C152.351 88.64 152.292 89.2395 152.218 89.8343C152.196 90.0311 152.049 90.1793 151.868 90.2172ZM151.902 82.6199C151.889 82.6227 151.876 82.6253 151.862 82.6266C151.618 82.6557 151.397 82.4813 151.366 82.2354C151.296 81.6516 151.211 81.071 151.108 80.4958C151.065 80.2525 151.248 80.0284 151.47 79.9788C151.713 79.9358 151.944 80.097 151.987 80.3404C152.092 80.9326 152.18 81.5284 152.252 82.1307C152.28 82.3614 152.126 82.5731 151.902 82.6199ZM90.4971 91.5253C90.4925 91.5263 90.4865 91.5275 90.4804 91.5288C90.2382 91.57 90.007 91.4058 89.9658 91.1636C89.5514 88.7156 89.4275 86.2067 89.6003 83.7055C89.8461 80.1431 90.6794 76.6877 92.0791 73.4359C92.1764 73.2108 92.4384 73.1051 92.6651 73.2021C92.8917 73.299 92.9959 73.5613 92.8989 73.788C91.5416 76.9468 90.7306 80.3038 90.4924 83.7663C90.3253 86.1965 90.444 88.635 90.8486 91.0136C90.8855 91.2503 90.7297 91.4766 90.4971 91.5253ZM150.545 76.533C150.326 76.5789 150.103 76.4542 150.03 76.2376C148.168 70.6343 144.741 65.711 140.119 62.0018C139.926 61.8484 139.896 61.5675 140.049 61.3751C140.204 61.1823 140.485 61.1505 140.676 61.3072C145.433 65.1234 148.961 70.1905 150.876 75.9572C150.954 76.1917 150.828 76.4436 150.593 76.5213C150.578 76.526 150.561 76.5295 150.545 76.533ZM94.6306 70.0904C94.5227 70.113 94.4064 70.0961 94.3059 70.0331C94.0963 69.904 94.0296 69.6306 94.1599 69.4192C94.4757 68.9039 94.8063 68.3982 95.1504 67.9039C95.2927 67.7042 95.5692 67.6527 95.7715 67.7928C95.9742 67.9345 96.0242 68.2113 95.8826 68.414C95.5484 68.8951 95.226 69.3864 94.9182 69.8873C94.8522 69.9964 94.7462 70.0662 94.6306 70.0904ZM128.592 56.196C128.528 56.2094 128.461 56.209 128.393 56.1932C127.827 56.053 127.253 55.9287 126.673 55.8201C126.43 55.7741 126.272 55.5406 126.316 55.298C126.363 55.0566 126.595 54.9 126.838 54.9411C127.433 55.053 128.024 55.1817 128.606 55.3263C128.846 55.3856 128.992 55.6281 128.932 55.8659C128.89 56.0382 128.753 56.1622 128.592 56.196ZM105.347 59.5683C105.164 59.6065 104.972 59.5279 104.871 59.3585C104.746 59.1466 104.817 58.873 105.029 58.7476C110.244 55.6695 116.276 54.1617 122.349 54.4277C122.594 54.4397 122.785 54.6473 122.775 54.8939C122.763 55.1393 122.558 55.3282 122.309 55.3201C116.409 55.0623 110.551 56.5275 105.482 59.5162C105.438 59.5413 105.392 59.5588 105.347 59.5683Z" fill="#263238"/>
<g opacity="0.5">
<path d="M128.376 116.474C128.14 116.523 127.908 116.378 127.851 116.143C127.793 115.902 127.941 115.662 128.179 115.604C128.75 115.465 129.315 115.312 129.873 115.143C130.11 115.079 130.357 115.205 130.429 115.441C130.501 115.676 130.367 115.925 130.132 115.998C129.557 116.172 128.974 116.331 128.388 116.473C128.385 116.472 128.38 116.473 128.376 116.474ZM134.254 114.408C134.056 114.449 133.848 114.351 133.759 114.16C133.654 113.937 133.75 113.672 133.973 113.567C139.328 111.051 143.816 107.07 146.951 102.055C147.08 101.845 147.357 101.781 147.566 101.913C147.776 102.044 147.838 102.318 147.708 102.528C144.483 107.691 139.863 111.787 134.353 114.376C134.32 114.391 134.286 114.401 134.254 114.408ZM115.098 116.752C115.04 116.764 114.982 116.765 114.92 116.753C108.954 115.587 103.485 112.726 99.1037 108.479C98.9266 108.308 98.9213 108.025 99.094 107.849C99.2652 107.674 99.5482 107.668 99.7237 107.84C103.981 111.965 109.295 114.744 115.091 115.877C115.333 115.925 115.49 116.159 115.443 116.4C115.408 116.582 115.268 116.716 115.098 116.752ZM96.5341 105.274C96.373 105.308 96.1972 105.25 96.0902 105.11C95.7221 104.633 95.3657 104.145 95.0252 103.648C94.8859 103.445 94.9373 103.168 95.1411 103.027C95.3452 102.887 95.6211 102.939 95.7606 103.143C96.0923 103.627 96.4372 104.1 96.7949 104.564C96.9454 104.76 96.9101 105.039 96.715 105.191C96.6605 105.234 96.5995 105.261 96.5341 105.274ZM151.868 90.2172C151.821 90.227 151.771 90.2296 151.722 90.2224C151.477 90.1927 151.304 89.9703 151.335 89.7242C151.406 89.1458 151.464 88.5606 151.505 87.9728C151.521 87.7265 151.736 87.5402 151.98 87.559C152.226 87.5756 152.41 87.7894 152.394 88.0342C152.351 88.64 152.292 89.2395 152.218 89.8343C152.196 90.0311 152.049 90.1793 151.868 90.2172ZM151.902 82.6199C151.889 82.6227 151.876 82.6253 151.862 82.6266C151.618 82.6557 151.397 82.4813 151.366 82.2354C151.296 81.6516 151.211 81.071 151.108 80.4958C151.065 80.2525 151.248 80.0284 151.47 79.9788C151.713 79.9358 151.944 80.097 151.987 80.3404C152.092 80.9326 152.18 81.5284 152.252 82.1307C152.28 82.3614 152.126 82.5731 151.902 82.6199ZM90.4971 91.5253C90.4925 91.5263 90.4865 91.5275 90.4804 91.5288C90.2382 91.57 90.007 91.4058 89.9658 91.1636C89.5514 88.7156 89.4275 86.2067 89.6003 83.7055C89.8461 80.1431 90.6794 76.6877 92.0791 73.4359C92.1764 73.2108 92.4384 73.1051 92.6651 73.2021C92.8917 73.299 92.9959 73.5613 92.8989 73.788C91.5416 76.9468 90.7306 80.3038 90.4924 83.7663C90.3253 86.1965 90.444 88.635 90.8486 91.0136C90.8855 91.2503 90.7297 91.4766 90.4971 91.5253ZM150.545 76.533C150.326 76.5789 150.103 76.4542 150.03 76.2376C148.168 70.6343 144.741 65.711 140.119 62.0018C139.926 61.8484 139.896 61.5675 140.049 61.3751C140.204 61.1823 140.485 61.1505 140.676 61.3072C145.433 65.1234 148.961 70.1905 150.876 75.9572C150.954 76.1917 150.828 76.4436 150.593 76.5213C150.578 76.526 150.561 76.5295 150.545 76.533ZM94.6306 70.0904C94.5227 70.113 94.4064 70.0961 94.3059 70.0331C94.0963 69.904 94.0296 69.6306 94.1599 69.4192C94.4757 68.9039 94.8063 68.3982 95.1504 67.9039C95.2927 67.7042 95.5692 67.6527 95.7715 67.7928C95.9742 67.9345 96.0242 68.2113 95.8826 68.414C95.5484 68.8951 95.226 69.3864 94.9182 69.8873C94.8522 69.9964 94.7462 70.0662 94.6306 70.0904ZM128.592 56.196C128.528 56.2094 128.461 56.209 128.393 56.1932C127.827 56.053 127.253 55.9287 126.673 55.8201C126.43 55.7741 126.272 55.5406 126.316 55.298C126.363 55.0566 126.595 54.9 126.838 54.9411C127.433 55.053 128.024 55.1817 128.606 55.3263C128.846 55.3856 128.992 55.6281 128.932 55.8659C128.89 56.0382 128.753 56.1622 128.592 56.196ZM105.347 59.5683C105.164 59.6065 104.972 59.5279 104.871 59.3585C104.746 59.1466 104.817 58.873 105.029 58.7476C110.244 55.6695 116.276 54.1617 122.349 54.4277C122.594 54.4397 122.785 54.6473 122.775 54.8939C122.763 55.1393 122.558 55.3282 122.309 55.3201C116.409 55.0623 110.551 56.5275 105.482 59.5162C105.438 59.5413 105.392 59.5588 105.347 59.5683Z" fill="white"/>
</g>
<path d="M41.5241 24.5232C38.4794 30.7503 38.2235 37.6244 40.2695 43.7163C40.4283 44.2176 40.6107 44.7111 40.8154 45.1966C41.133 45.9919 41.4952 46.7701 41.902 47.5352C42.1947 48.0917 42.5096 48.6416 42.8469 49.1639C45.2629 53.0366 48.7617 56.2899 53.1659 58.4435C53.2801 58.4986 53.4009 58.559 53.519 58.6062C54.0964 58.8884 54.6725 59.1325 55.2604 59.3543C56.0387 59.6496 56.8235 59.9107 57.6148 60.1194C58.8235 60.4566 60.0505 60.6994 61.2736 60.8359C62.5072 60.9868 63.7408 61.0446 64.9718 61.0065C65.943 60.9829 66.9141 60.9028 67.8774 60.7611C68.6438 60.6561 69.4102 60.5131 70.1648 60.3359C71.3079 60.0577 72.4273 59.7112 73.5231 59.2782C79.2344 57.0459 84.1702 52.7413 87.0784 46.7964C93.2307 34.2136 88.0154 19.0362 75.4404 12.8879C62.8576 6.73557 47.6764 11.9404 41.5241 24.5232Z" fill="#407BFF"/>
<path d="M67.8774 60.7626C68.6438 60.6576 69.4102 60.5145 70.1648 60.3374C71.3079 60.0591 72.4273 59.7127 73.5231 59.2796C72.8591 56.9226 72.216 55.084 71.6452 54.2691C71.6333 54.2349 71.6189 54.2271 71.6189 54.2271L67.8774 60.7626Z" fill="#263238"/>
<path opacity="0.3" d="M67.8774 60.7626C68.6438 60.6576 69.4102 60.5145 70.1648 60.3374C71.3079 60.0591 72.4273 59.7127 73.5231 59.2796C72.8591 56.9226 72.216 55.084 71.6452 54.2691C71.6333 54.2349 71.6189 54.2271 71.6189 54.2271L67.8774 60.7626Z" fill="white"/>
<path d="M43.3538 43.2572C43.0651 43.9816 42.7738 44.7323 42.5048 45.5145C42.4903 45.5447 42.4719 45.5827 42.4641 45.6168C42.2278 46.273 42.0441 46.9174 41.9024 47.5342C42.195 48.0906 42.51 48.6405 42.8473 49.1628C45.2633 53.0355 48.762 56.2889 53.1663 58.4424C53.2805 58.4976 53.4012 58.5579 53.5193 58.6052C54.0968 58.8873 54.6729 59.1314 55.2608 59.3532C56.039 59.6485 56.8238 59.9096 57.6152 60.1183C58.8238 60.4556 60.0509 60.6984 61.274 60.8348C62.5076 60.9858 63.7412 61.0435 64.9722 61.0055C66.9289 59.159 68.8607 56.5369 70.6297 53.6287C75.1232 46.2284 78.5681 36.9514 78.6036 33.7217C78.6036 33.7217 78.6075 33.7138 78.5996 33.7099C78.6101 32.3411 77.1548 31.0839 74.9526 29.95C74.8043 29.8686 74.6599 29.7978 74.5077 29.7229L74.2872 29.6153C71.467 28.2833 67.673 27.1534 64.1795 26.2728C63.9669 26.2255 63.7596 26.1704 63.5549 26.1271C62.858 25.9552 62.1913 25.799 61.5391 25.6494L61.5312 25.6455C60.5732 25.4316 59.6795 25.2386 58.8645 25.0759L58.8566 25.072C58.0272 24.9014 57.2779 24.761 56.6598 24.6376C55.4445 24.4106 54.7096 24.2964 54.7096 24.2964C54.6689 24.4171 54.6361 24.5431 54.6033 24.6678C53.6204 27.3988 47.7883 32.2059 43.3538 43.2572Z" fill="#263238"/>
<path d="M41.0976 42.8884C41.0018 43.6798 40.9074 44.4514 40.8155 45.1969C41.1331 45.9921 41.4953 46.7704 41.9021 47.5355C42.1947 48.0919 42.5097 48.6418 42.847 49.1641C45.263 53.0369 48.7617 56.2902 53.166 58.4437C53.2802 58.4989 53.4009 58.5592 53.519 58.6065C54.0965 58.8886 54.6726 59.1327 55.2605 59.3545C56.0387 59.6498 56.8235 59.9109 57.6149 60.1196C58.8236 60.4569 60.0506 60.6997 61.2737 60.8361C62.5073 60.9871 63.7409 61.0448 64.9719 61.0067C65.943 60.9831 66.9142 60.9031 67.8774 60.7613C68.6438 60.6563 69.4103 60.5133 70.1649 60.3361C70.2528 60.0973 70.342 59.8768 70.4195 59.6616C71.9995 55.4293 71.741 54.4555 71.6452 54.2678C71.6334 54.2337 71.619 54.2258 71.619 54.2258C71.619 54.2258 71.2581 54.0027 70.6308 53.63C69.0835 52.714 65.964 50.8964 62.9115 49.4043L62.3498 49.13C61.8564 48.9082 61.3511 48.689 60.8551 48.4738C58.5401 47.4922 56.1739 46.6181 53.7671 45.8648C53.0623 45.6326 52.3536 45.4278 51.6371 45.2179C51.1108 45.0643 50.5833 44.9094 50.061 44.7664C47.847 44.1548 45.616 43.6562 43.3562 43.2572C42.6042 43.1168 41.8509 43.0026 41.0976 42.8884Z" fill="#263238"/>
<path opacity="0.3" d="M41.0976 42.8884C41.0018 43.6798 40.9074 44.4514 40.8155 45.1969C41.1331 45.9921 41.4953 46.7704 41.9021 47.5355C42.1947 48.0919 42.5097 48.6418 42.847 49.1641C45.263 53.0369 48.7617 56.2902 53.166 58.4437C53.2802 58.4989 53.4009 58.5592 53.519 58.6065C54.0965 58.8886 54.6726 59.1327 55.2605 59.3545C56.0387 59.6498 56.8235 59.9109 57.6149 60.1196C58.8236 60.4569 60.0506 60.6997 61.2737 60.8361C62.5073 60.9871 63.7409 61.0448 64.9719 61.0067C65.943 60.9831 66.9142 60.9031 67.8774 60.7613C68.6438 60.6563 69.4103 60.5133 70.1649 60.3361C70.2528 60.0973 70.342 59.8768 70.4195 59.6616C71.9995 55.4293 71.741 54.4555 71.6452 54.2678C71.6334 54.2337 71.619 54.2258 71.619 54.2258C71.619 54.2258 71.2581 54.0027 70.6308 53.63C69.0835 52.714 65.964 50.8964 62.9115 49.4043L62.3498 49.13C61.8564 48.9082 61.3511 48.689 60.8551 48.4738C58.5401 47.4922 56.1739 46.6181 53.7671 45.8648C53.0623 45.6326 52.3536 45.4278 51.6371 45.2179C51.1108 45.0643 50.5833 44.9094 50.061 44.7664C47.847 44.1548 45.616 43.6562 43.3562 43.2572C42.6042 43.1168 41.8509 43.0026 41.0976 42.8884Z" fill="white"/>
<path d="M51.6581 48.6534L47.1672 50.719C47.1672 50.719 51.2119 54.0511 53.5203 58.6049C54.0977 58.8871 54.6739 59.1312 55.2618 59.353C56.04 59.6483 56.8248 59.9094 57.6161 60.1181C58.8248 60.4554 60.0519 60.6981 61.275 60.8346C62.9154 59.9422 64.523 59.1955 65.5755 59.0039C65.5755 59.0039 64.5191 55.7965 62.6267 53.412C62.6267 53.412 65.2054 53.4868 67.8774 54.2952C67.8774 54.2952 65.5742 51.6731 62.9115 49.4027C62.2408 48.8306 61.5519 48.2768 60.8747 47.7951C60.0794 47.2466 59.2999 46.7807 58.5912 46.4814C57.5216 46.0339 56.2264 45.4473 54.7644 45.0523C53.3431 44.6678 51.7617 44.4775 50.0596 44.7649C48.9152 44.9683 47.721 45.3909 46.4953 46.1271L51.6581 48.6534Z" fill="white"/>
<path d="M52.2669 46.5615C52.2669 46.5615 52.2709 46.6101 52.2985 46.7085C52.3286 46.7807 52.3522 46.8673 52.3798 46.9841C52.3916 46.9985 52.3995 47.0222 52.3995 47.0589C52.8759 48.7978 54.4638 54.786 55.2604 59.353C56.0386 59.6483 56.8234 59.9094 57.6148 60.1181C58.9311 58.0617 60.582 54.9159 61.3681 51.1705C61.456 50.7807 61.5308 50.3752 61.5925 49.9631L52.2669 46.5615Z" fill="#407BFF"/>
<path d="M58.027 53.2255C52.7828 49.774 52.2697 46.5627 52.2697 46.5627C57.4561 44.9485 57.3445 37.7043 57.3445 37.7043L63.4627 42.2543C62.7422 43.2805 62.2094 44.1769 61.8131 44.9603C59.7632 49.0221 61.5926 49.9656 61.5926 49.9656C61.6937 52.757 58.027 53.2255 58.027 53.2255Z" fill="#EEC1BB"/>
<path opacity="0.2" d="M63.464 42.253C62.7435 43.2793 62.2107 44.1756 61.8143 44.9591C57.2657 42.7347 57.3445 37.7031 57.3445 37.7031L63.464 42.253Z" fill="black"/>
<path d="M68.9469 21.6059C74.9575 24.1466 75.531 28.1821 73.3525 34.5627C70.6294 42.5352 66.5886 47.3083 59.7736 42.4775C50.5163 35.9171 58.9665 17.3854 68.9469 21.6059Z" fill="#EEC1BB"/>
<path d="M69.6096 32.5837C69.6096 32.5837 69.779 34.505 70.3039 35.8161C70.3039 35.8161 69.4443 36.4158 68.4324 35.8252L69.6096 32.5837Z" fill="#D4827D"/>
<path d="M66.1389 30.5365C65.942 31.0352 65.5129 31.3331 65.1795 31.2005C64.8475 31.0693 64.7373 30.5588 64.9355 30.0601C65.1323 29.5614 65.5614 29.2635 65.8948 29.3947C66.2268 29.5273 66.3357 30.0378 66.1389 30.5365Z" fill="#263238"/>
<path d="M65.7461 29.366L66.9981 29.3699C66.9981 29.3699 66.0978 30.0681 65.7461 29.366Z" fill="#263238"/>
<path d="M72.3774 32.8843C72.1806 33.383 71.7514 33.6809 71.4181 33.5496C71.0861 33.4184 70.9758 32.9079 71.1727 32.4092C71.3695 31.9105 71.8 31.6126 72.132 31.7439C72.4653 31.8751 72.5756 32.3856 72.3774 32.8843Z" fill="#263238"/>
<path d="M71.985 31.7134L73.237 31.7173C73.237 31.7173 72.3367 32.4155 71.985 31.7134Z" fill="#263238"/>
<path d="M67.8328 26.3605C67.8328 26.3605 66.237 25.4261 64.8419 26.1663" stroke="#263238" stroke-width="0.580059" stroke-miterlimit="10" stroke-linecap="round" stroke-linejoin="round"/>
<path d="M72.3092 27.9536C72.3092 27.9536 73.5376 28.0087 74.4956 29.4602" stroke="#263238" stroke-width="0.580059" stroke-miterlimit="10" stroke-linecap="round" stroke-linejoin="round"/>
<path d="M66.5558 37.82C65.9022 38.3974 64.9718 39.6114 64.9718 39.6114C64.8471 39.5471 64.7211 39.4828 64.6004 39.4119C62.9258 38.4959 62.4521 37.5168 62.4337 36.7098C62.4258 36.2688 62.5597 35.8764 62.7093 35.5772C62.8773 35.2294 63.0767 35.0208 63.0767 35.0208C63.6739 36.0365 65.1699 37.0116 65.9902 37.4985C66.3314 37.7058 66.5558 37.82 66.5558 37.82Z" fill="#263238"/>
<path d="M65.9902 37.4985L65.5099 38.0142C63.935 37.1468 62.9416 36.3252 62.7093 35.5772C62.8773 35.2294 63.0768 35.0208 63.0768 35.0208C63.6752 36.0365 65.17 37.0116 65.9902 37.4985Z" fill="white"/>
<path d="M64.6001 39.4104C62.9255 38.4944 62.4518 37.5153 62.4334 36.7083C62.9925 37.0429 63.6276 37.5075 64.0909 38.0941C64.4479 38.5429 64.5739 39.0009 64.6001 39.4104Z" fill="#DE5753"/>
<path d="M58.0951 28.9578C58.0951 28.9578 62.9928 25.2084 64.1791 21.2162C64.1791 21.2162 78.1465 21.3869 73.6228 33.7243C73.6228 33.7243 79.325 23.4814 69.0952 18.8737C58.8812 14.2726 52.5176 29.3987 55.9494 36.1587C55.9494 36.1587 55.0517 31.3108 58.0951 28.9578Z" fill="#263238"/>
<path d="M58.5413 30.6416C58.9101 29.6573 58.6043 27.5969 56.7211 27.0326C54.7723 26.4486 52.2683 29.8961 56.5125 32.7741C57.1214 33.1875 57.771 32.6967 58.5413 30.6416Z" fill="#EEC1BB"/>
<path d="M66.0257 21.3947C66.0257 21.3947 63.4233 29.0706 55.8759 33.5024C50.1515 36.8633 51.8037 43.0721 51.8037 43.0721C51.8037 43.0721 45.3089 36.5563 54.1371 27.1336C54.1371 27.1336 55.309 15.4287 63.8367 16.2936C63.8367 16.2936 65.3551 13.2935 71.6084 17.0626C77.8618 20.8317 80.388 29.0076 77.8959 36.635C75.4037 44.2624 67.7895 50.4042 67.7895 50.4042C67.7895 50.4042 84.1164 27.0404 66.0257 21.3947Z" fill="#263238"/>
<path d="M65.6071 21.3318C65.2724 23.1848 64.4758 25.0471 63.5506 26.7623C62.5926 28.4788 61.443 30.0957 60.1437 31.5865C58.8511 33.0826 57.3786 34.4238 55.7631 35.5721C54.1371 36.6915 52.3589 37.6601 50.4153 38.1102C52.3759 37.7283 54.2014 36.8188 55.8825 35.7467C57.5532 34.6469 59.0938 33.3398 60.4574 31.87C61.8275 30.4054 63.0558 28.803 64.1005 27.0773C65.1162 25.3279 65.9942 23.5155 66.4443 21.4551L65.6071 21.3318Z" fill="#263238"/>
<path d="M40.2695 43.7164C40.4283 44.2178 40.6107 44.7112 40.8154 45.1968C41.133 45.992 41.4952 46.7703 41.902 47.5354C42.1947 48.0918 42.5097 48.6417 42.8469 49.164C42.9034 47.8937 42.8168 46.6469 42.5044 45.5157C42.2236 44.5314 41.7774 43.6364 41.0976 42.8897C41.0976 42.8897 40.801 43.1863 40.2695 43.7164Z" fill="#263238"/>
<path opacity="0.3" d="M40.2695 43.7164C40.4283 44.2178 40.6107 44.7112 40.8154 45.1968C41.133 45.992 41.4952 46.7703 41.902 47.5354C42.1947 48.0918 42.5097 48.6417 42.8469 49.164C42.9034 47.8937 42.8168 46.6469 42.5044 45.5157C42.2236 44.5314 41.7774 43.6364 41.0976 42.8897C41.0976 42.8897 40.801 43.1863 40.2695 43.7164Z" fill="white"/>
<path d="M64.2776 65.484C66.7251 65.484 69.174 65.1809 71.5585 64.5811C71.7843 64.5234 71.922 64.2937 71.8656 64.068C71.8079 63.841 71.5743 63.7058 71.3525 63.7609C65.9364 65.1245 60.2067 64.8869 54.935 63.0798C54.7145 63.0037 54.4743 63.1205 54.3982 63.3423C54.3221 63.5628 54.4402 63.8042 54.6607 63.879C57.7657 64.9447 61.002 65.484 64.2776 65.484ZM75.4667 63.2727C75.5205 63.2727 75.5743 63.2622 75.6268 63.2399C76.1544 63.0234 76.678 62.7911 77.1925 62.5444C77.4037 62.4446 77.4917 62.1914 77.3906 61.9801C77.2896 61.7688 77.0363 61.6795 76.8263 61.7832C76.325 62.0234 75.8171 62.2465 75.304 62.4591C75.0888 62.547 74.9851 62.795 75.0743 63.0103C75.1425 63.1743 75.3 63.2727 75.4667 63.2727ZM44.0372 57.3868C44.1501 57.3868 44.2616 57.3422 44.3443 57.2543C44.5044 57.085 44.4978 56.8173 44.3285 56.6572C43.9243 56.274 43.5346 55.8803 43.1567 55.4774C42.9965 55.3055 42.7301 55.2989 42.5582 55.4564C42.3876 55.6165 42.3797 55.8829 42.5385 56.0535C42.9283 56.4695 43.3312 56.8763 43.7459 57.27C43.8285 57.3488 43.9322 57.3868 44.0372 57.3868ZM86.9288 54.8501C87.0495 54.8501 87.1702 54.7976 87.2542 54.6965C88.7529 52.8868 90.0403 50.8894 91.0824 48.7594C92.5706 45.7174 93.5233 42.4838 93.9157 39.1504C93.9433 38.9181 93.7779 38.7095 93.5457 38.6819C93.3147 38.6544 93.1034 38.8197 93.0772 39.052C92.6966 42.2909 91.77 45.4313 90.3238 48.3881C89.3107 50.4576 88.06 52.3999 86.6033 54.1585C86.455 54.3383 86.4799 54.6047 86.6584 54.7529C86.7385 54.8186 86.8343 54.8501 86.9288 54.8501ZM40.1907 52.9078C40.2734 52.9078 40.3574 52.8829 40.4322 52.8317C40.6238 52.6978 40.6711 52.434 40.5372 52.2438C37.3351 47.6427 35.5384 42.2515 35.3429 36.6517C35.335 36.4181 35.1815 36.2357 34.9059 36.2436C34.6723 36.2514 34.4899 36.447 34.4977 36.6806C34.6985 42.4431 36.5476 47.9917 39.8443 52.7254C39.9256 52.8435 40.0569 52.9078 40.1907 52.9078ZM93.6847 35.3039C93.6887 35.3039 93.6926 35.3026 93.6966 35.3026C93.9302 35.296 94.1139 35.1018 94.1073 34.8682C94.0916 34.2947 94.0588 33.7238 94.0102 33.1556C93.9905 32.9233 93.7805 32.7448 93.5535 32.7711C93.3212 32.7908 93.148 32.9955 93.169 33.2278C93.2162 33.7803 93.2478 34.3354 93.2635 34.8919C93.2688 35.1215 93.4577 35.3039 93.6847 35.3039ZM37.1959 24.7146C37.36 24.7146 37.5175 24.6175 37.5857 24.4547C37.7996 23.9468 38.0293 23.4403 38.2747 22.939C38.3784 22.729 38.2904 22.4757 38.0818 22.3733C37.8744 22.2723 37.6185 22.3576 37.5162 22.5662C37.2629 23.0833 37.0266 23.603 36.8075 24.1266C36.7169 24.3419 36.818 24.5899 37.0332 24.6791C37.0857 24.7041 37.1421 24.7146 37.1959 24.7146ZM89.8737 21.5964C89.9446 21.5964 90.0154 21.5781 90.081 21.5413C90.2844 21.4271 90.3553 21.1686 90.2411 20.9652C87.4052 15.9494 83.1991 11.889 78.0744 9.22358C77.8657 9.11597 77.6111 9.19732 77.5048 9.40336C77.3972 9.61072 77.4772 9.86532 77.6846 9.97293C82.6623 12.5635 86.749 16.5071 89.5049 21.3812C89.5823 21.519 89.7267 21.5964 89.8737 21.5964ZM40.7603 18.4783C40.8902 18.4783 41.0162 18.4192 41.1002 18.3077C41.4335 17.8615 41.7787 17.4258 42.1343 17.0019C42.2839 16.8234 42.2616 16.557 42.0818 16.4061C41.9047 16.2565 41.6382 16.2788 41.486 16.4586C41.1199 16.893 40.7655 17.3418 40.4217 17.8024C40.2826 17.9901 40.3207 18.2539 40.5083 18.3943C40.5831 18.4507 40.6723 18.4783 40.7603 18.4783ZM44.7525 14.1265C44.8522 14.1265 44.9532 14.0911 45.0333 14.0202C49.2145 10.3023 54.3563 7.88498 59.9062 7.02801C60.1372 6.99258 60.2946 6.77605 60.2592 6.54507C60.2237 6.3141 60.0059 6.15531 59.7763 6.19205C54.0662 7.07395 48.7735 9.56086 44.4716 13.3877C44.2971 13.5425 44.2813 13.8102 44.4362 13.9835C44.5201 14.078 44.6357 14.1265 44.7525 14.1265ZM74.0061 8.34168C74.1806 8.34168 74.3434 8.23276 74.405 8.05953C74.4825 7.83906 74.3669 7.59757 74.1465 7.52014C73.6045 7.32985 73.0599 7.15663 72.5126 6.99783C72.2856 6.93615 72.0533 7.06344 71.9903 7.28786C71.926 7.51227 72.0559 7.74588 72.2803 7.81018C72.8105 7.96242 73.3407 8.13171 73.867 8.31675C73.9116 8.33381 73.9588 8.34168 74.0061 8.34168Z" fill="#263238"/>
<g opacity="0.5">
<path d="M64.2776 65.484C66.7251 65.484 69.174 65.1809 71.5585 64.5811C71.7843 64.5234 71.922 64.2937 71.8656 64.068C71.8079 63.841 71.5743 63.7058 71.3525 63.7609C65.9364 65.1245 60.2067 64.8869 54.935 63.0798C54.7145 63.0037 54.4743 63.1205 54.3982 63.3423C54.3221 63.5628 54.4402 63.8042 54.6607 63.879C57.7657 64.9447 61.002 65.484 64.2776 65.484ZM75.4667 63.2727C75.5205 63.2727 75.5743 63.2622 75.6268 63.2399C76.1544 63.0234 76.678 62.7911 77.1925 62.5444C77.4037 62.4446 77.4917 62.1914 77.3906 61.9801C77.2896 61.7688 77.0363 61.6795 76.8263 61.7832C76.325 62.0234 75.8171 62.2465 75.304 62.4591C75.0888 62.547 74.9851 62.795 75.0743 63.0103C75.1425 63.1743 75.3 63.2727 75.4667 63.2727ZM44.0372 57.3868C44.1501 57.3868 44.2616 57.3422 44.3443 57.2543C44.5044 57.085 44.4978 56.8173 44.3285 56.6572C43.9243 56.274 43.5346 55.8803 43.1567 55.4774C42.9965 55.3055 42.7301 55.2989 42.5582 55.4564C42.3876 55.6165 42.3797 55.8829 42.5385 56.0535C42.9283 56.4695 43.3312 56.8763 43.7459 57.27C43.8285 57.3488 43.9322 57.3868 44.0372 57.3868ZM86.9288 54.8501C87.0495 54.8501 87.1702 54.7976 87.2542 54.6965C88.7529 52.8868 90.0403 50.8894 91.0824 48.7594C92.5706 45.7174 93.5233 42.4838 93.9157 39.1504C93.9433 38.9181 93.7779 38.7095 93.5457 38.6819C93.3147 38.6544 93.1034 38.8197 93.0772 39.052C92.6966 42.2909 91.77 45.4313 90.3238 48.3881C89.3107 50.4576 88.06 52.3999 86.6033 54.1585C86.455 54.3383 86.4799 54.6047 86.6584 54.7529C86.7385 54.8186 86.8343 54.8501 86.9288 54.8501ZM40.1907 52.9078C40.2734 52.9078 40.3574 52.8829 40.4322 52.8317C40.6238 52.6978 40.6711 52.434 40.5372 52.2438C37.3351 47.6427 35.5384 42.2515 35.3429 36.6517C35.335 36.4181 35.1815 36.2357 34.9059 36.2436C34.6723 36.2514 34.4899 36.447 34.4977 36.6806C34.6985 42.4431 36.5476 47.9917 39.8443 52.7254C39.9256 52.8435 40.0569 52.9078 40.1907 52.9078ZM93.6847 35.3039C93.6887 35.3039 93.6926 35.3026 93.6966 35.3026C93.9302 35.296 94.1139 35.1018 94.1073 34.8682C94.0916 34.2947 94.0588 33.7238 94.0102 33.1556C93.9905 32.9233 93.7805 32.7448 93.5535 32.7711C93.3212 32.7908 93.148 32.9955 93.169 33.2278C93.2162 33.7803 93.2478 34.3354 93.2635 34.8919C93.2688 35.1215 93.4577 35.3039 93.6847 35.3039ZM37.1959 24.7146C37.36 24.7146 37.5175 24.6175 37.5857 24.4547C37.7996 23.9468 38.0293 23.4403 38.2747 22.939C38.3784 22.729 38.2904 22.4757 38.0818 22.3733C37.8744 22.2723 37.6185 22.3576 37.5162 22.5662C37.2629 23.0833 37.0266 23.603 36.8075 24.1266C36.7169 24.3419 36.818 24.5899 37.0332 24.6791C37.0857 24.7041 37.1421 24.7146 37.1959 24.7146ZM89.8737 21.5964C89.9446 21.5964 90.0154 21.5781 90.081 21.5413C90.2844 21.4271 90.3553 21.1686 90.2411 20.9652C87.4052 15.9494 83.1991 11.889 78.0744 9.22358C77.8657 9.11597 77.6111 9.19732 77.5048 9.40336C77.3972 9.61072 77.4772 9.86532 77.6846 9.97293C82.6623 12.5635 86.749 16.5071 89.5049 21.3812C89.5823 21.519 89.7267 21.5964 89.8737 21.5964ZM40.7603 18.4783C40.8902 18.4783 41.0162 18.4192 41.1002 18.3077C41.4335 17.8615 41.7787 17.4258 42.1343 17.0019C42.2839 16.8234 42.2616 16.557 42.0818 16.4061C41.9047 16.2565 41.6382 16.2788 41.486 16.4586C41.1199 16.893 40.7655 17.3418 40.4217 17.8024C40.2826 17.9901 40.3207 18.2539 40.5083 18.3943C40.5831 18.4507 40.6723 18.4783 40.7603 18.4783ZM44.7525 14.1265C44.8522 14.1265 44.9532 14.0911 45.0333 14.0202C49.2145 10.3023 54.3563 7.88498 59.9062 7.02801C60.1372 6.99258 60.2946 6.77605 60.2592 6.54507C60.2237 6.3141 60.0059 6.15531 59.7763 6.19205C54.0662 7.07395 48.7735 9.56086 44.4716 13.3877C44.2971 13.5425 44.2813 13.8102 44.4362 13.9835C44.5201 14.078 44.6357 14.1265 44.7525 14.1265ZM74.0061 8.34168C74.1806 8.34168 74.3434 8.23276 74.405 8.05953C74.4825 7.83906 74.3669 7.59757 74.1465 7.52014C73.6045 7.32985 73.0599 7.15663 72.5126 6.99783C72.2856 6.93615 72.0533 7.06344 71.9903 7.28786C71.926 7.51227 72.0559 7.74588 72.2803 7.81018C72.8105 7.96242 73.3407 8.13171 73.867 8.31675C73.9116 8.33381 73.9588 8.34168 74.0061 8.34168Z" fill="white"/>
</g>
</svg>
