<svg width="42" height="42" viewBox="0 0 42 42" fill="none" xmlns="http://www.w3.org/2000/svg">
<path d="M30.9444 0.0551758H24.5887H20.9775H10.9068C5.13492 0.0551758 0.439453 4.75092 0.439453 10.5223V30.5594C0.439453 36.3307 5.13492 41.0263 10.9068 41.0263H30.9444C36.7152 41.0263 41.4106 36.3307 41.4106 30.5594V20.0732V16.4017V10.5223C41.4106 4.75092 36.7152 0.0551758 30.9444 0.0551758ZM13.8264 34.6011C13.1441 35.1189 12.2784 35.3779 11.2296 35.3779C9.93122 35.3779 8.86429 34.9345 8.02902 34.0475C7.19295 33.1609 6.77539 31.9484 6.77539 30.4101C6.77539 28.7832 7.19527 27.5197 8.03551 26.6192C8.87559 25.7191 9.98028 25.269 11.3497 25.269C12.5452 25.269 13.5165 25.6225 14.2635 26.3293C14.7078 26.7472 15.0411 27.3473 15.2636 28.1296L13.3101 28.5964C13.1944 28.0896 12.9532 27.6895 12.5862 27.3961C12.2197 27.1027 11.7739 26.956 11.2493 26.956C10.5249 26.956 9.93707 27.216 9.48577 27.7361C9.03455 28.2564 8.80874 29.0988 8.80874 30.2634C8.80874 31.4995 9.03126 32.3796 9.47575 32.904C9.92008 33.4286 10.4984 33.6909 11.2093 33.6909C11.7338 33.6909 12.1851 33.5242 12.5632 33.1907C12.9408 32.8574 13.2119 32.333 13.3767 31.617L15.2903 32.2238C14.9969 33.2907 14.5094 34.0832 13.8264 34.6011ZM23.9657 33.9376C23.6542 34.4268 23.2141 34.79 22.6455 35.028C22.0762 35.2656 21.3672 35.3845 20.5181 35.3845C19.2821 35.3845 18.333 35.0989 17.6711 34.5275C17.0084 33.9566 16.6128 33.1241 16.4841 32.0305L18.4046 31.8438C18.5198 32.4885 18.7545 32.9618 19.1077 33.2641C19.4613 33.5666 19.9383 33.7175 20.5384 33.7175C21.1737 33.7175 21.6526 33.5831 21.975 33.314C22.2977 33.0451 22.4589 32.7307 22.4589 32.3705C22.4589 32.1396 22.391 31.9427 22.2551 31.7802C22.1195 31.6181 21.8825 31.477 21.5449 31.357C21.314 31.277 20.7871 31.1348 19.9649 30.9302C18.9065 30.6681 18.1646 30.3458 17.7378 29.9634C17.1376 29.4257 16.8372 28.7697 16.8372 27.9962C16.8372 27.4985 16.9787 27.0326 17.2608 26.5995C17.5431 26.1658 17.95 25.8358 18.4808 25.609C19.0121 25.3824 19.6533 25.269 20.405 25.269C21.6319 25.269 22.5554 25.5381 23.1752 26.0758C23.7954 26.6138 24.1209 27.3319 24.1525 28.2296L22.1786 28.3163C22.0938 27.814 21.913 27.4528 21.635 27.2326C21.3573 27.0128 20.9405 26.9027 20.3847 26.9027C19.8112 26.9027 19.362 27.0206 19.0377 27.256C18.8288 27.4073 18.7247 27.6095 18.7247 27.8629C18.7247 28.0941 18.8223 28.2921 19.0179 28.4564C19.2666 28.6655 19.8715 28.8831 20.8318 29.1098C21.7921 29.3365 22.502 29.571 22.9618 29.8134C23.4221 30.0556 23.7821 30.3869 24.042 30.8067C24.3024 31.227 24.4326 31.7461 24.4326 32.3639C24.4326 32.924 24.2767 33.4487 23.9657 33.9376ZM30.6935 35.2111H28.5865L25.0923 25.4357H27.2332L29.7068 32.6706L32.1008 25.4357H34.1946L30.6935 35.2111ZM38.4202 18.2554C36.9978 18.8644 35.4339 19.2026 33.7921 19.2026C27.2912 19.2026 22.0027 13.914 22.0027 7.41356C22.0027 5.87112 22.3014 4.39721 22.8423 3.04575H30.9444C35.0658 3.04575 38.4202 6.39981 38.4202 10.5223V18.2554Z" fill="white"/>
<path d="M30.9444 0.0551758H24.5887H20.9775H10.9068C5.13492 0.0551758 0.439453 4.75092 0.439453 10.5223V30.5594C0.439453 36.3307 5.13492 41.0263 10.9068 41.0263H30.9444C36.7152 41.0263 41.4106 36.3307 41.4106 30.5594V20.0732V16.4017V10.5223C41.4106 4.75092 36.7152 0.0551758 30.9444 0.0551758ZM13.8264 34.6011C13.1441 35.1189 12.2784 35.3779 11.2296 35.3779C9.93122 35.3779 8.86429 34.9345 8.02902 34.0475C7.19295 33.1609 6.77539 31.9484 6.77539 30.4101C6.77539 28.7832 7.19527 27.5197 8.03551 26.6192C8.87559 25.7191 9.98028 25.269 11.3497 25.269C12.5452 25.269 13.5165 25.6225 14.2635 26.3293C14.7078 26.7472 15.0411 27.3473 15.2636 28.1296L13.3101 28.5964C13.1944 28.0896 12.9532 27.6895 12.5862 27.3961C12.2197 27.1027 11.7739 26.956 11.2493 26.956C10.5249 26.956 9.93707 27.216 9.48577 27.7361C9.03455 28.2564 8.80874 29.0988 8.80874 30.2634C8.80874 31.4995 9.03126 32.3796 9.47575 32.904C9.92008 33.4286 10.4984 33.6909 11.2093 33.6909C11.7338 33.6909 12.1851 33.5242 12.5632 33.1907C12.9408 32.8574 13.2119 32.333 13.3767 31.617L15.2903 32.2238C14.9969 33.2907 14.5094 34.0832 13.8264 34.6011ZM23.9657 33.9376C23.6542 34.4268 23.2141 34.79 22.6455 35.028C22.0762 35.2656 21.3672 35.3845 20.5181 35.3845C19.2821 35.3845 18.333 35.0989 17.6711 34.5275C17.0084 33.9566 16.6128 33.1241 16.4841 32.0305L18.4046 31.8438C18.5198 32.4885 18.7545 32.9618 19.1077 33.2641C19.4613 33.5666 19.9383 33.7175 20.5384 33.7175C21.1737 33.7175 21.6526 33.5831 21.975 33.314C22.2977 33.0451 22.4589 32.7307 22.4589 32.3705C22.4589 32.1396 22.391 31.9427 22.2551 31.7802C22.1195 31.6181 21.8825 31.477 21.5449 31.357C21.314 31.277 20.7871 31.1348 19.9649 30.9302C18.9065 30.6681 18.1646 30.3458 17.7378 29.9634C17.1376 29.4257 16.8372 28.7697 16.8372 27.9962C16.8372 27.4985 16.9787 27.0326 17.2608 26.5995C17.5431 26.1658 17.95 25.8358 18.4808 25.609C19.0121 25.3824 19.6533 25.269 20.405 25.269C21.6319 25.269 22.5554 25.5381 23.1752 26.0758C23.7954 26.6138 24.1209 27.3319 24.1525 28.2296L22.1786 28.3163C22.0938 27.814 21.913 27.4528 21.635 27.2326C21.3573 27.0128 20.9405 26.9027 20.3847 26.9027C19.8112 26.9027 19.362 27.0206 19.0377 27.256C18.8288 27.4073 18.7247 27.6095 18.7247 27.8629C18.7247 28.0941 18.8223 28.2921 19.0179 28.4564C19.2666 28.6655 19.8715 28.8831 20.8318 29.1098C21.7921 29.3365 22.502 29.571 22.9618 29.8134C23.4221 30.0556 23.7821 30.3869 24.042 30.8067C24.3024 31.227 24.4326 31.7461 24.4326 32.3639C24.4326 32.924 24.2767 33.4487 23.9657 33.9376ZM30.6935 35.2111H28.5865L25.0923 25.4357H27.2332L29.7068 32.6706L32.1008 25.4357H34.1946L30.6935 35.2111ZM38.4202 18.2554C36.9978 18.8644 35.4339 19.2026 33.7921 19.2026C27.2912 19.2026 22.0027 13.914 22.0027 7.41356C22.0027 5.87112 22.3014 4.39721 22.8423 3.04575H30.9444C35.0658 3.04575 38.4202 6.39981 38.4202 10.5223V18.2554Z" fill="url(#paint0_linear_262_1368)"/>
<defs>
<linearGradient id="paint0_linear_262_1368" x1="20.925" y1="0.0551758" x2="20.925" y2="41.0263" gradientUnits="userSpaceOnUse">
<stop stop-color="#4B9EFF"/>
<stop offset="1" stop-color="#014799"/>
</linearGradient>
</defs>
</svg>
