<svg width="43" height="39" viewBox="0 0 43 39" fill="none" xmlns="http://www.w3.org/2000/svg">
<path d="M34.1074 0.85668H12.6523C9.48805 0.85668 6.66407 2.71243 5.39012 5.55248H3.57805C1.77058 5.55248 0.301128 7.02193 0.301128 8.82941C0.301128 10.6369 1.77058 12.1063 3.57805 12.1063H4.69334L4.69104 16.264H3.57575C1.76828 16.264 0.298828 17.7335 0.298828 19.5409C0.298828 21.3484 1.76828 22.8179 3.57575 22.8179H4.69104V26.9778H3.57575C1.76828 26.9778 0.298828 28.4473 0.298828 30.2548C0.298828 32.0622 1.76828 33.5317 3.57575 33.5317H5.38782C6.66182 36.3694 9.48339 38.2252 12.6476 38.2252H34.1004C38.488 38.2252 42.0596 34.6562 42.0613 30.2684L42.0659 8.81563C42.0659 4.42572 38.4953 0.85668 34.1074 0.85668ZM2.52258 8.82706C2.52258 8.24526 2.9963 7.77152 3.57811 7.77152H6.12605H6.16055H8.51075C9.09254 7.77152 9.56628 8.24524 9.56628 8.82706C9.56628 9.40887 9.09256 9.88259 8.51075 9.88259H3.57811C2.99401 9.88259 2.52258 9.40887 2.52258 8.82706ZM2.52258 19.5408C2.52258 18.959 2.9963 18.4852 3.57811 18.4852H8.51305C9.09484 18.4852 9.56858 18.9589 9.56858 19.5408C9.56858 20.1226 9.09486 20.5963 8.51305 20.5963H3.57811C2.99401 20.5963 2.52258 20.1226 2.52258 19.5408ZM2.52258 30.2521C2.52258 29.6703 2.9963 29.1966 3.57811 29.1966H8.51305C9.09484 29.1966 9.56858 29.6703 9.56858 30.2521C9.56858 30.8339 9.09486 31.3076 8.51305 31.3076H3.57811C2.99401 31.3076 2.52258 30.8362 2.52258 30.2521Z" fill="black"/>
<path d="M34.1074 0.85668H12.6523C9.48805 0.85668 6.66407 2.71243 5.39012 5.55248H3.57805C1.77058 5.55248 0.301128 7.02193 0.301128 8.82941C0.301128 10.6369 1.77058 12.1063 3.57805 12.1063H4.69334L4.69104 16.264H3.57575C1.76828 16.264 0.298828 17.7335 0.298828 19.5409C0.298828 21.3484 1.76828 22.8179 3.57575 22.8179H4.69104V26.9778H3.57575C1.76828 26.9778 0.298828 28.4473 0.298828 30.2548C0.298828 32.0622 1.76828 33.5317 3.57575 33.5317H5.38782C6.66182 36.3694 9.48339 38.2252 12.6476 38.2252H34.1004C38.488 38.2252 42.0596 34.6562 42.0613 30.2684L42.0659 8.81563C42.0659 4.42572 38.4953 0.85668 34.1074 0.85668ZM2.52258 8.82706C2.52258 8.24526 2.9963 7.77152 3.57811 7.77152H6.12605H6.16055H8.51075C9.09254 7.77152 9.56628 8.24524 9.56628 8.82706C9.56628 9.40887 9.09256 9.88259 8.51075 9.88259H3.57811C2.99401 9.88259 2.52258 9.40887 2.52258 8.82706ZM2.52258 19.5408C2.52258 18.959 2.9963 18.4852 3.57811 18.4852H8.51305C9.09484 18.4852 9.56858 18.9589 9.56858 19.5408C9.56858 20.1226 9.09486 20.5963 8.51305 20.5963H3.57811C2.99401 20.5963 2.52258 20.1226 2.52258 19.5408ZM2.52258 30.2521C2.52258 29.6703 2.9963 29.1966 3.57811 29.1966H8.51305C9.09484 29.1966 9.56858 29.6703 9.56858 30.2521C9.56858 30.8339 9.09486 31.3076 8.51305 31.3076H3.57811C2.99401 31.3076 2.52258 30.8362 2.52258 30.2521Z" fill="url(#paint0_linear_262_1377)"/>
<path d="M34.3781 24.8877C31.4562 24.8877 29.0801 27.2639 29.0801 30.1857C29.0801 33.1076 31.4562 35.4838 34.3781 35.4838C37.2992 35.4838 39.6761 33.1076 39.6761 30.1857C39.6761 27.2639 37.2992 24.8877 34.3781 24.8877ZM36.8595 30.8245H35.1361V32.6675H33.6265V30.8245H31.8967L31.8971 29.315H33.6265V27.7044H35.1361V29.315H36.8599L36.8595 30.8245Z" fill="white"/>
<path d="M24.1017 19.1228C26.8474 19.1228 29.0803 16.8898 29.0803 14.1441C29.0803 11.3984 26.8473 9.16553 24.1017 9.16553C21.3559 9.16553 19.123 11.3985 19.123 14.1441C19.123 16.8899 21.356 19.1228 24.1017 19.1228ZM24.1017 11.5227C25.5481 11.5227 26.7255 12.7001 26.7255 14.1465C26.7255 15.5929 25.5481 16.7703 24.1017 16.7703C22.6552 16.7703 21.4778 15.5929 21.4778 14.1465C21.4778 12.7001 22.6552 11.5227 24.1017 11.5227Z" fill="black"/>
<path d="M24.1017 19.1228C26.8474 19.1228 29.0803 16.8898 29.0803 14.1441C29.0803 11.3984 26.8473 9.16553 24.1017 9.16553C21.3559 9.16553 19.123 11.3985 19.123 14.1441C19.123 16.8899 21.356 19.1228 24.1017 19.1228ZM24.1017 11.5227C25.5481 11.5227 26.7255 12.7001 26.7255 14.1465C26.7255 15.5929 25.5481 16.7703 24.1017 16.7703C22.6552 16.7703 21.4778 15.5929 21.4778 14.1465C21.4778 12.7001 22.6552 11.5227 24.1017 11.5227Z" fill="white"/>
<path d="M24.0997 19.856C19.5809 19.856 15.9038 23.5307 15.9038 28.0518C15.9038 28.3048 15.9153 28.5531 15.9383 28.7946C16.0004 29.4361 16.5339 29.9191 17.1755 29.9191H31.0217C31.6702 29.9191 32.2014 29.4316 32.2589 28.7877C32.2796 28.5462 32.2934 28.3002 32.2934 28.0518C32.2934 23.5308 28.6184 19.856 24.0997 19.856ZM24.0997 22.2085C27.1558 22.2085 29.6716 24.5701 29.9199 27.5619H18.2796C18.528 24.5679 21.0435 22.2085 24.0997 22.2085Z" fill="black"/>
<path d="M24.0997 19.856C19.5809 19.856 15.9038 23.5307 15.9038 28.0518C15.9038 28.3048 15.9153 28.5531 15.9383 28.7946C16.0004 29.4361 16.5339 29.9191 17.1755 29.9191H31.0217C31.6702 29.9191 32.2014 29.4316 32.2589 28.7877C32.2796 28.5462 32.2934 28.3002 32.2934 28.0518C32.2934 23.5308 28.6184 19.856 24.0997 19.856ZM24.0997 22.2085C27.1558 22.2085 29.6716 24.5701 29.9199 27.5619H18.2796C18.528 24.5679 21.0435 22.2085 24.0997 22.2085Z" fill="white"/>
<defs>
<linearGradient id="paint0_linear_262_1377" x1="21.1824" y1="0.856445" x2="21.1824" y2="38.2252" gradientUnits="userSpaceOnUse">
<stop stop-color="#4B9EFF"/>
<stop offset="1" stop-color="#014799"/>
</linearGradient>
</defs>
</svg>
