<svg width="163" height="166" viewBox="0 0 163 166" fill="none" xmlns="http://www.w3.org/2000/svg">
<path opacity="0.5" d="M86.4536 165.023C128.527 165.023 162.634 144.15 162.634 118.403C162.634 92.656 128.527 71.7837 86.4536 71.7837C44.3801 71.7837 10.2728 92.656 10.2728 118.403C10.2728 144.15 44.3801 165.023 86.4536 165.023Z" fill="#F5F5F5"/>
<path opacity="0.5" d="M125.002 137.749C124.709 137.749 124.274 137.699 123.863 137.463L110.396 129.686C109.913 129.408 109.625 128.942 109.625 128.44C109.625 127.938 109.913 127.472 110.396 127.193L132.697 114.318C133.108 114.081 133.543 114.031 133.836 114.031C134.128 114.031 134.563 114.081 134.974 114.318L148.442 122.094C148.924 122.372 149.212 122.837 149.212 123.34C149.212 123.842 148.924 124.308 148.441 124.587L126.14 137.462C125.729 137.699 125.294 137.749 125.002 137.749Z" fill="#E0E0E0"/>
<path opacity="0.5" d="M96.6955 154.796C94.943 154.796 93.2453 154.603 91.6508 154.222C90.0102 153.833 88.5109 153.279 87.1964 152.578L87.1631 152.559C86.8936 152.408 86.5448 152.199 86.097 151.92C85.6764 151.657 85.2449 151.38 84.8008 151.089C84.3561 150.798 83.9389 150.519 83.5489 150.25C83.1429 149.973 82.8305 149.749 82.5992 149.569C81.4469 148.668 80.5775 147.636 80.0089 146.498C79.3838 145.243 79.2 143.92 79.4621 142.562C79.7105 141.276 80.3989 139.993 81.5085 138.752C82.5576 137.579 84.0263 136.5 85.9983 135.454C88.1836 134.296 90.3005 133.445 92.2905 132.925C94.289 132.403 96.2099 132.13 97.9998 132.116L98.1693 132.115C99.9163 132.115 101.583 132.332 103.122 132.76C104.682 133.194 106.155 133.782 107.502 134.508C108.037 134.805 108.612 135.155 109.229 135.559C109.854 135.969 110.376 136.336 110.826 136.681C111.663 137.3 112.252 137.991 112.578 138.734C112.893 139.459 112.995 140.186 112.882 140.902C112.932 140.899 112.982 140.896 113.032 140.895L113.126 140.894C113.761 140.894 114.348 141.082 114.826 141.437C115.474 141.896 115.8 142.655 115.68 143.439C115.596 143.98 115.456 144.564 115.264 145.176C115.034 145.906 114.618 146.654 114.027 147.401C113.474 148.101 112.735 148.812 111.77 149.575C110.837 150.31 109.6 151.088 108.092 151.887C106.204 152.888 104.278 153.63 102.368 154.092C100.468 154.551 98.5984 154.787 96.8109 154.795L96.6955 154.796ZM95.5018 143.263C95.5627 143.307 95.6314 143.355 95.7083 143.405C96.3113 143.8 96.9075 144.033 97.4822 144.097C97.5898 144.109 97.6946 144.116 97.795 144.116C98.0522 144.116 98.2931 144.076 98.5242 143.995C98.4684 143.956 98.4068 143.914 98.3391 143.869C97.7306 143.471 97.1266 143.231 96.5448 143.158C96.4396 143.145 96.3351 143.138 96.2341 143.138C95.9819 143.139 95.74 143.179 95.5018 143.263Z" fill="#E0E0E0"/>
<path opacity="0.5" d="M56.7703 148.591L12.9663 123.359C12.0424 122.825 12.0424 121.961 12.9663 121.427L101.865 70.1214C102.789 69.5878 104.287 69.5878 105.211 70.1214L149.015 95.3539C149.939 95.8875 149.939 96.7522 149.015 97.2857L60.1163 148.591C59.1924 149.125 57.6942 149.125 56.7703 148.591Z" fill="#E0E0E0"/>
<path d="M20.7344 113.507L23.0504 112.169C23.0504 112.169 24.4289 106.441 23.8797 101.287C23.1073 94.0408 18.3375 91.3145 16.5237 91.9392C14.71 92.564 14.1846 94.6727 17.1859 98.9886C18.9564 101.535 21.1316 106.839 20.7344 113.507Z" fill="#4495F5"/>
<g opacity="0.15">
<path d="M20.7344 113.507L23.0504 112.169C23.0504 112.169 24.4289 106.441 23.8797 101.287C23.1073 94.0408 18.3375 91.3145 16.5237 91.9392C14.71 92.564 14.1846 94.6727 17.1859 98.9886C18.9564 101.535 21.1316 106.839 20.7344 113.507Z" fill="black"/>
</g>
<path d="M21.6944 110.693C21.6869 110.693 21.6797 110.692 21.6722 110.69C21.5851 110.674 21.5276 110.59 21.5443 110.503C22.8139 103.819 20.4792 96.3086 17.5878 93.1834C17.5276 93.1184 17.5313 93.0167 17.5966 92.9565C17.662 92.8969 17.7634 92.9003 17.8236 92.9653C20.7674 96.1473 23.1481 103.781 21.8597 110.563C21.8451 110.642 21.773 110.697 21.6944 110.693Z" fill="white"/>
<path d="M14.335 118.026C13.9692 118.212 12.996 117.379 12.7248 117.176C12.2606 116.83 11.8941 116.354 11.6614 115.824C11.3905 115.208 11.3473 114.56 11.4753 113.9C11.5416 113.558 11.6549 113.226 11.7682 112.896C11.8792 112.572 11.9904 112.249 12.1014 111.925C12.2109 111.605 12.3219 111.275 12.296 110.938C12.2436 110.259 11.6692 109.757 11.1455 109.322C10.5667 108.841 9.97017 108.215 10.0144 107.403C10.0488 106.777 10.4023 106.212 10.8151 105.74C11.2279 105.268 11.7104 104.857 12.0874 104.356C12.3586 103.995 12.5778 103.566 12.5594 103.115C12.5478 102.834 12.4454 102.566 12.3246 102.313C12.0646 101.77 11.7107 101.267 11.5419 100.689C11.3728 100.111 11.4365 99.4067 11.9003 99.0229C12.2807 98.7078 12.8238 98.6884 13.3145 98.7459C13.7684 98.799 14.203 99.027 14.5906 99.2686C15.8432 100.05 16.5016 101.614 17.841 102.234C18.3575 102.473 18.9333 102.549 19.4757 102.722C20.0181 102.895 20.5646 103.204 20.7936 103.725C21.2452 104.753 20.2512 105.942 20.5503 107.024C20.8151 107.981 21.7121 108.388 22.1834 109.262C22.3892 109.645 22.4195 110.077 22.3617 110.508C22.2633 111.236 22.1293 111.768 21.7369 112.565C21.4126 113.223 20.4996 114.467 20.4996 114.467C20.4996 114.467 14.3912 117.997 14.335 118.026Z" fill="#4495F5"/>
<path d="M17.8803 116.178C17.8783 116.178 17.8759 116.178 17.8759 116.178C17.785 116.169 17.7204 116.091 17.7282 116.003C18.3145 109.646 15.6678 102.461 13.5879 100.308C13.5264 100.245 13.5281 100.143 13.592 100.081C13.656 100.019 13.7574 100.021 13.8193 100.085C15.9407 102.281 18.6429 109.586 18.0484 116.032C18.0406 116.119 17.9661 116.182 17.8803 116.178Z" fill="white"/>
<path d="M17.2495 108.339C17.2338 108.339 17.2179 108.336 17.2025 108.33C15.1877 107.594 12.6424 107.354 12.6172 107.352C12.5287 107.343 12.4637 107.265 12.4719 107.177C12.4801 107.089 12.5508 107.022 12.6468 107.031C12.6727 107.034 15.2585 107.278 17.3131 108.028C17.3965 108.059 17.4394 108.151 17.4088 108.234C17.3836 108.302 17.3179 108.343 17.2495 108.339Z" fill="white"/>
<path d="M15.8623 121.748L56.589 145.257C57.9107 146.02 59.4682 146.036 60.8382 145.337L142.832 97.9948C144.124 97.2489 145.171 95.5809 145.171 94.2691C145.172 92.9573 144.125 91.2892 142.833 90.5436L102.257 67.1169C100.971 66.3741 98.8655 66.3741 97.5789 67.1169L15.8623 114.297C14.5705 115.043 13.5235 116.711 13.5235 118.022C13.5235 119.334 14.5705 121.002 15.8623 121.748Z" fill="#37474F"/>
<path d="M56.589 145.257L15.8622 121.747C14.5705 121.002 13.5234 119.334 13.5234 118.022C13.5234 116.71 14.5705 115.042 15.8622 114.297L58.8053 89.5029V145.84C58.0427 145.847 57.2832 145.658 56.589 145.257Z" fill="#263238"/>
<path d="M57.5579 141.068C58.6921 141.723 60.5484 141.723 61.6825 141.068L142.843 94.2109C144.588 93.2036 144.588 91.5549 142.843 90.5473L102.26 67.1169C100.974 66.3741 98.869 66.3741 97.5824 67.1169L15.8661 114.297C14.5798 115.04 14.5798 116.255 15.8661 116.998L57.5579 141.068Z" fill="#455A64"/>
<path d="M61.4995 136.35C62.727 137.059 64.7173 137.059 65.9447 136.35L135.781 96.0297C137.008 95.3209 137.008 94.1721 135.781 93.4633L97.6039 71.4243C96.3816 70.7186 94.381 70.7186 93.1587 71.4243L23.3225 111.745C22.1002 112.451 22.1002 113.606 23.3225 114.311L61.4995 136.35Z" fill="#37474F"/>
<path d="M95.5169 70.9031C96.2767 70.9218 97.0274 71.0919 97.6042 71.4251L135.781 93.464C137.008 94.1729 137.008 95.322 135.781 96.0305L128.214 100.4L95.5169 79.5205V70.9031Z" fill="#263238"/>
<path d="M93.1315 73.093C94.3538 72.3873 96.3544 72.3873 97.5767 73.093L135.754 95.132C135.996 95.2719 136.188 95.4301 136.334 95.5975C136.191 95.753 136.007 95.899 135.78 96.0297L65.944 136.35C64.7166 137.059 62.7263 137.059 61.4989 136.35L23.3218 114.311C23.0823 114.173 22.891 114.017 22.7454 113.851C22.8876 113.694 23.0673 113.545 23.2956 113.414L93.1315 73.093Z" fill="#A7C2CF"/>
<path d="M121.826 83.1553L115.06 79.2488C114.657 79.0157 114.636 78.6495 115.015 78.4311C115.394 78.2123 116.028 78.2242 116.432 78.4573L123.198 82.3638C123.601 82.5969 123.622 82.963 123.243 83.1815C122.864 83.3999 122.23 83.3884 121.826 83.1553Z" fill="#263238"/>
<path d="M110.207 76.4576C109.828 76.2388 109.828 75.8846 110.207 75.6658C110.586 75.4473 111.2 75.4473 111.578 75.6658C111.957 75.8846 111.957 76.2388 111.578 76.4576C111.2 76.6761 110.586 76.6761 110.207 76.4576Z" fill="#263238"/>
<path d="M107.465 74.8717C107.086 74.6532 107.086 74.2987 107.465 74.0799C107.844 73.8614 108.458 73.8614 108.836 74.0799C109.215 74.2987 109.215 74.6529 108.836 74.8717C108.458 75.0902 107.844 75.0902 107.465 74.8717Z" fill="#263238"/>
<path d="M129.407 87.5407C129.029 87.3222 129.029 86.9676 129.407 86.7488C129.786 86.53 130.4 86.53 130.779 86.7488C131.157 86.9676 131.157 87.3219 130.779 87.5407C130.4 87.7591 129.786 87.7591 129.407 87.5407Z" fill="#263238"/>
<path d="M126.664 85.955C126.286 85.7362 126.286 85.3819 126.664 85.1631C127.043 84.9443 127.657 84.9443 128.036 85.1631C128.414 85.3819 128.414 85.7362 128.036 85.955C127.657 86.1738 127.043 86.1738 126.664 85.955Z" fill="#263238"/>
<path d="M59.7935 125.088V125.236C59.7935 125.472 59.9592 125.759 60.1637 125.877L68.1081 130.464C68.3126 130.582 68.6444 130.582 68.8485 130.464L82.0036 122.869C82.2082 122.751 82.3739 122.464 82.3739 122.228V122.08C82.3739 121.844 82.2082 121.557 82.0036 121.438L74.0593 116.852C73.8548 116.734 73.523 116.734 73.3189 116.852L60.1637 124.447C59.9592 124.565 59.7935 124.852 59.7935 125.088Z" fill="#4495F5"/>
<path d="M59.7935 125.088V125.236C59.7935 125.472 59.9592 125.759 60.1637 125.877L68.1081 130.464C68.3126 130.582 68.6444 130.582 68.8485 130.464L82.0036 122.869C82.2082 122.751 82.3739 122.464 82.3739 122.228V122.08C82.3739 121.844 82.2082 121.557 82.0036 121.438L74.0593 116.852C73.8548 116.734 73.523 116.734 73.3189 116.852L60.1637 124.447C59.9592 124.565 59.7935 124.852 59.7935 125.088Z" fill="#4495F5"/>
<path opacity="0.3" d="M82.0043 121.438L74.06 116.852C73.8555 116.734 73.5237 116.734 73.3192 116.852L68.4786 119.647V130.553H68.4783C68.6123 130.553 68.7464 130.523 68.8488 130.464L82.0039 122.869C82.2085 122.751 82.3742 122.464 82.3742 122.228V122.08C82.3745 121.844 82.2088 121.557 82.0043 121.438Z" fill="white"/>
<path opacity="0.15" d="M82.0043 121.438L74.06 116.852C73.8555 116.734 73.5237 116.734 73.3192 116.852L68.4786 119.647V130.553H68.4783C68.6123 130.553 68.7464 130.523 68.8488 130.464L82.0039 122.869C82.2085 122.751 82.3742 122.464 82.3742 122.228V122.08C82.3745 121.844 82.2088 121.557 82.0043 121.438Z" fill="black"/>
<path opacity="0.3" d="M68.4783 119.646L60.1637 124.447C59.9592 124.565 59.7935 124.852 59.7935 125.088V125.236C59.7935 125.472 59.9592 125.759 60.1637 125.877L68.1081 130.464C68.2102 130.523 68.3442 130.553 68.4783 130.553H68.4786V119.646H68.4783Z" fill="white"/>
<path opacity="0.2" d="M68.4783 119.646L60.1637 124.447C59.9592 124.565 59.7935 124.852 59.7935 125.088V125.236C59.7935 125.472 59.9592 125.759 60.1637 125.877L68.1081 130.464C68.2102 130.523 68.3442 130.553 68.4783 130.553H68.4786V119.646H68.4783Z" fill="black"/>
<path d="M66.8357 128.727L60.1634 124.874C59.9589 124.756 59.9589 124.565 60.1634 124.447L73.3185 116.851C73.523 116.733 73.8548 116.733 74.059 116.851L82.0033 121.438C82.2078 121.556 82.2078 121.748 82.0033 121.866L79.821 123.126L79.0571 123.567L68.8482 129.461C68.6437 129.579 68.3119 129.579 68.1074 129.461L67.4601 129.088L66.8357 128.727Z" fill="#4495F5"/>
<path opacity="0.3" d="M66.8357 128.727L60.1634 124.874C59.9589 124.756 59.9589 124.565 60.1634 124.447L73.3185 116.851C73.523 116.733 73.8548 116.733 74.059 116.851L82.0033 121.438C82.2078 121.556 82.2078 121.748 82.0033 121.866L79.821 123.126L79.0571 123.567L68.8482 129.461C68.6437 129.579 68.3119 129.579 68.1074 129.461L67.4601 129.088L66.8357 128.727Z" fill="white"/>
<path opacity="0.15" d="M72.8932 122.327L82.004 121.438L72.9735 121.95L74.0597 116.852C73.9487 116.788 73.8014 116.762 73.6561 116.767L71.9523 123.658L60.0134 124.643C60.0048 124.726 60.0535 124.811 60.1638 124.875L69.8054 124.315L68.4783 129.55L70.1753 124.294L71.822 124.198C72.0292 124.186 72.2184 124.103 72.3654 123.971H72.3664L72.3668 123.97C72.5039 123.847 72.6043 123.682 72.6448 123.492L72.8932 122.327Z" fill="black"/>
<path opacity="0.3" d="M62.8625 124.408L71.9529 123.658L72.2782 122.356L72.4579 121.63L73.6581 116.767C73.5352 116.772 73.4137 116.798 73.3195 116.852L66.7417 120.65L60.164 124.447C60.0698 124.502 60.0211 124.572 60.0136 124.643L61.8369 124.493L62.8625 124.408Z" fill="white"/>
<path d="M72.1851 115.764C73.0161 115.285 74.3629 115.285 75.1939 115.764C76.0246 116.244 76.0246 117.021 75.1939 117.501C74.3633 117.981 73.0161 117.981 72.1851 117.501C71.3545 117.021 71.3545 116.244 72.1851 115.764Z" fill="#F28F8F"/>
<path d="M72.6394 116.919C72.6129 116.916 72.5921 116.909 72.5768 116.897C72.5622 116.885 72.5564 116.871 72.5598 116.855L72.6843 116.308C72.6877 116.295 72.6921 116.279 72.6983 116.26C72.7041 116.241 72.719 116.225 72.7439 116.21L73.0484 116.034C73.0668 116.024 73.0893 116.019 73.1158 116.019C73.1427 116.019 73.1648 116.024 73.1832 116.034L74.7941 116.965C74.8121 116.975 74.8213 116.988 74.8217 117.004C74.8213 117.019 74.8125 117.032 74.7941 117.042L74.4674 117.231C74.449 117.242 74.4266 117.247 74.4 117.247C74.3732 117.247 74.3507 117.241 74.3327 117.231L73.2427 116.602L73.1706 116.903C73.1672 116.918 73.1549 116.93 73.1345 116.939C73.1138 116.948 73.0899 116.952 73.0634 116.95L72.6394 116.919Z" fill="#FAFAFA"/>
<path d="M87.4648 119.292L78.5265 114.131C78.323 114.013 78.323 113.823 78.5265 113.705L110.963 94.9777C111.166 94.8603 111.496 94.8603 111.699 94.9777L120.639 100.139C120.842 100.256 120.842 100.447 120.639 100.564L88.2015 119.292C87.9981 119.409 87.6683 119.409 87.4648 119.292Z" fill="#4495F5"/>
<path d="M85.7468 113.461C85.7165 113.478 85.6852 113.487 85.6532 113.487C85.6215 113.487 85.5974 113.487 85.5814 113.486L83.7231 113.276L84.8229 113.911C84.8423 113.922 84.8521 113.936 84.8521 113.952C84.8518 113.969 84.8423 113.983 84.8229 113.994L84.6065 114.119C84.5867 114.13 84.5626 114.136 84.5343 114.136C84.5057 114.136 84.4819 114.13 84.4622 114.119L82.7373 113.123C82.7175 113.112 82.708 113.098 82.7077 113.081C82.708 113.065 82.7175 113.051 82.7373 113.04L82.9241 112.932C82.9544 112.915 82.9857 112.906 83.0173 112.906C83.0496 112.906 83.0735 112.906 83.0895 112.907L84.9484 113.117L83.848 112.482C83.8286 112.471 83.819 112.457 83.8187 112.44C83.819 112.424 83.8286 112.41 83.848 112.399L84.0647 112.274C84.0841 112.263 84.1083 112.257 84.1365 112.257C84.1654 112.257 84.1889 112.263 84.209 112.274L85.9336 113.27C85.9536 113.281 85.9632 113.295 85.9632 113.311C85.9628 113.328 85.9536 113.342 85.9336 113.353L85.7468 113.461Z" fill="#FAFAFA"/>
<path d="M85.6343 112.724C85.5346 112.666 85.456 112.604 85.3981 112.535C85.3403 112.467 85.3069 112.397 85.2994 112.327C85.2916 112.257 85.309 112.187 85.3529 112.119C85.3964 112.051 85.4679 111.988 85.5676 111.93C85.6673 111.872 85.7758 111.831 85.8932 111.805C86.011 111.78 86.1287 111.768 86.2475 111.77C86.3655 111.773 86.4819 111.789 86.5952 111.819C86.7096 111.849 86.812 111.89 86.9025 111.943L87.023 112.012C87.0427 112.023 87.0522 112.037 87.0526 112.053C87.0522 112.07 87.0427 112.084 87.023 112.095L86.1311 112.61C86.1719 112.633 86.2165 112.65 86.2648 112.658C86.3128 112.666 86.3618 112.668 86.4122 112.664C86.4615 112.66 86.5105 112.65 86.5588 112.635C86.6068 112.619 86.6504 112.6 86.6895 112.578C86.7467 112.545 86.7872 112.515 86.811 112.488C86.8348 112.46 86.8498 112.435 86.8549 112.411C86.8603 112.391 86.8668 112.376 86.8739 112.367C86.8811 112.356 86.8954 112.345 86.9168 112.332L87.1305 112.209C87.1502 112.198 87.1744 112.192 87.2037 112.191C87.2333 112.191 87.2568 112.197 87.2744 112.209C87.2976 112.224 87.3163 112.251 87.3292 112.288C87.3425 112.326 87.3422 112.37 87.3282 112.422C87.3136 112.473 87.2823 112.528 87.2333 112.587C87.1843 112.646 87.1101 112.705 87.0104 112.763C86.9107 112.82 86.8028 112.862 86.6875 112.889C86.5714 112.915 86.453 112.927 86.3322 112.923C86.2107 112.919 86.0913 112.9 85.9729 112.867C85.8534 112.833 85.7411 112.786 85.6343 112.724ZM85.8881 112.115C85.8367 112.145 85.7996 112.175 85.7786 112.205C85.7571 112.234 85.7459 112.263 85.7452 112.292C85.7442 112.32 85.752 112.346 85.768 112.371C85.7837 112.396 85.8034 112.417 85.8262 112.434L86.4295 112.086C86.3996 112.072 86.3649 112.06 86.3257 112.049C86.2866 112.038 86.2437 112.031 86.1974 112.03C86.1508 112.029 86.1022 112.035 86.0504 112.047C85.9991 112.06 85.9453 112.082 85.8881 112.115Z" fill="#FAFAFA"/>
<path d="M88.6865 111.116L88.1638 110.537C88.1546 110.525 88.1481 110.513 88.1434 110.499C88.1386 110.485 88.1492 110.471 88.174 110.457L88.3768 110.34C88.3965 110.328 88.4207 110.323 88.4493 110.323C88.4779 110.323 88.5017 110.328 88.5214 110.34C88.5286 110.344 88.534 110.347 88.5371 110.352L89.3653 111.295C89.3762 111.307 89.3834 111.321 89.3871 111.335C89.3902 111.349 89.3796 111.364 89.3548 111.378L89.1516 111.495C89.1268 111.51 89.102 111.516 89.0781 111.514C89.0543 111.511 89.0308 111.507 89.0074 111.502L88.0358 111.24L88.4894 111.801C88.4986 111.814 88.5051 111.828 88.5099 111.842C88.5143 111.855 88.5037 111.869 88.4789 111.884L88.2761 112.001C88.2509 112.015 88.2261 112.022 88.2012 112.02C88.1764 112.017 88.1532 112.014 88.1318 112.007L86.4971 111.53C86.4903 111.527 86.4831 111.524 86.4763 111.521C86.4566 111.509 86.4467 111.495 86.447 111.479C86.4467 111.462 86.4562 111.449 86.476 111.437L86.6791 111.32C86.704 111.306 86.7285 111.299 86.7526 111.302C86.7768 111.305 86.7986 111.308 86.8183 111.314L87.8218 111.616L87.3148 111.027C87.3039 111.017 87.2984 111.004 87.2974 110.988C87.2964 110.972 87.3052 110.959 87.325 110.947L87.5281 110.83C87.5479 110.819 87.5717 110.813 87.5993 110.814C87.6268 110.814 87.6489 110.818 87.6673 110.824L88.6865 111.116Z" fill="#FAFAFA"/>
<path d="M89.8929 110.265C89.7939 110.207 89.7149 110.144 89.6571 110.076C89.5992 110.008 89.5659 109.938 89.5584 109.868C89.5506 109.798 89.5679 109.728 89.6118 109.66C89.655 109.591 89.7268 109.529 89.8265 109.471C89.9262 109.413 90.0348 109.372 90.1522 109.346C90.2699 109.32 90.3877 109.309 90.5064 109.311C90.6245 109.314 90.7409 109.33 90.8545 109.359C90.9685 109.389 91.071 109.431 91.1615 109.483L91.2819 109.552C91.3017 109.564 91.3112 109.577 91.3116 109.594C91.3112 109.61 91.3017 109.624 91.2819 109.635L90.3901 110.15C90.4309 110.174 90.4758 110.19 90.5238 110.198C90.5718 110.206 90.6208 110.208 90.6708 110.204C90.7208 110.2 90.7695 110.19 90.8178 110.175C90.8658 110.159 90.9097 110.14 90.9485 110.118C91.0056 110.085 91.0461 110.055 91.0699 110.028C91.0938 110.001 91.1087 109.975 91.1138 109.951C91.1193 109.931 91.1254 109.916 91.1329 109.907C91.1404 109.896 91.1543 109.885 91.1754 109.873L91.3895 109.749C91.4089 109.738 91.4334 109.732 91.4626 109.731C91.4919 109.731 91.5157 109.737 91.5338 109.749C91.5566 109.765 91.5749 109.791 91.5882 109.829C91.6015 109.866 91.6008 109.91 91.5868 109.962C91.5726 110.013 91.5409 110.069 91.4922 110.128C91.4429 110.187 91.3691 110.245 91.2694 110.303C91.1696 110.36 91.0621 110.402 90.9464 110.429C90.8304 110.456 90.712 110.467 90.5912 110.463C90.4697 110.459 90.3502 110.441 90.2318 110.407C90.1127 110.374 90.0008 110.327 89.8929 110.265ZM90.1471 109.656C90.0957 109.686 90.0586 109.716 90.0379 109.746C90.0164 109.775 90.0049 109.804 90.0042 109.833C90.0032 109.861 90.011 109.887 90.027 109.912C90.0426 109.937 90.0624 109.958 90.0852 109.975L90.6885 109.627C90.6589 109.614 90.6238 109.601 90.5847 109.59C90.5452 109.579 90.5027 109.572 90.4567 109.571C90.4098 109.57 90.3611 109.576 90.3094 109.588C90.2584 109.6 90.2043 109.623 90.1471 109.656Z" fill="#FAFAFA"/>
<path d="M91.2823 108.816C91.2735 108.762 91.2857 108.709 91.3184 108.658C91.3514 108.607 91.4004 108.562 91.4664 108.524C91.5787 108.46 91.691 108.419 91.8043 108.402C91.9173 108.385 92.0282 108.384 92.1364 108.399C92.1242 108.365 92.1204 108.331 92.1259 108.295C92.1313 108.258 92.1436 108.224 92.1619 108.19C92.1807 108.157 92.2055 108.126 92.2365 108.096C92.2678 108.067 92.3028 108.041 92.3423 108.019C92.4437 107.96 92.5451 107.921 92.6468 107.902C92.7486 107.882 92.8483 107.877 92.9473 107.885C93.0463 107.894 93.142 107.915 93.2345 107.949C93.3267 107.983 93.4152 108.024 93.4986 108.072L94.2169 108.487C94.2367 108.498 94.2465 108.512 94.2465 108.529C94.2462 108.545 94.2367 108.559 94.2169 108.57L94.0138 108.688C93.994 108.699 93.9699 108.705 93.942 108.705C93.9134 108.705 93.8896 108.699 93.8695 108.688L93.1651 108.281C93.0436 108.211 92.9361 108.176 92.8415 108.174C92.7472 108.173 92.6581 108.197 92.5747 108.245C92.5032 108.286 92.4658 108.335 92.4614 108.391C92.457 108.447 92.5107 108.509 92.6227 108.578L93.341 108.993C93.3608 109.004 93.3706 109.018 93.3706 109.035C93.3703 109.051 93.3608 109.065 93.341 109.076L93.1379 109.194C93.1185 109.205 93.0943 109.21 93.0661 109.211C93.0375 109.21 93.0137 109.205 92.9939 109.193L92.2892 108.787C92.1681 108.717 92.0602 108.681 91.9659 108.68C91.8713 108.679 91.7825 108.703 91.6988 108.751C91.626 108.793 91.5882 108.844 91.5855 108.901C91.5828 108.959 91.6406 109.023 91.7604 109.092L92.4655 109.499C92.4849 109.51 92.4947 109.524 92.4947 109.54C92.4947 109.557 92.4849 109.571 92.4655 109.582L92.2623 109.699C92.2426 109.71 92.2184 109.716 92.1902 109.716C92.1616 109.716 92.1378 109.711 92.118 109.699L90.874 108.981C90.8542 108.97 90.8443 108.956 90.8443 108.939C90.8443 108.923 90.8539 108.909 90.8736 108.898L91.0764 108.78C91.0965 108.769 91.1203 108.763 91.1489 108.763C91.1775 108.763 91.2013 108.769 91.2214 108.78L91.2823 108.816Z" fill="#FAFAFA"/>
<path d="M93.5974 107.719C93.5671 107.694 93.5436 107.661 93.5266 107.621C93.5096 107.582 93.5059 107.537 93.5161 107.489C93.526 107.44 93.5528 107.389 93.5971 107.335C93.6416 107.282 93.7094 107.229 93.8006 107.176C93.8914 107.124 93.985 107.083 94.0816 107.056C94.179 107.027 94.277 107.011 94.3757 107.008C94.4743 107.004 94.573 107.014 94.6724 107.039C94.7707 107.063 94.8657 107.101 94.9562 107.153L95.7419 107.606C95.7613 107.618 95.7712 107.632 95.7712 107.648C95.7708 107.665 95.7613 107.679 95.7419 107.69L95.5388 107.807C95.519 107.818 95.4949 107.824 95.4666 107.824C95.438 107.824 95.4142 107.818 95.3945 107.807L95.3063 107.756C95.3206 107.808 95.3108 107.864 95.2771 107.926C95.2427 107.988 95.1719 108.05 95.0634 108.112C94.9865 108.157 94.9075 108.19 94.8269 108.214C94.7459 108.237 94.6659 108.249 94.588 108.251C94.5101 108.253 94.4342 108.246 94.361 108.23C94.2879 108.213 94.2212 108.187 94.1606 108.152C94.0377 108.081 93.9853 108.001 94.003 107.91C94.0211 107.82 94.0905 107.725 94.2113 107.627L94.572 107.332C94.4988 107.29 94.423 107.274 94.345 107.284C94.2668 107.294 94.1919 107.32 94.1208 107.361C94.0762 107.387 94.0476 107.411 94.0354 107.433C94.0228 107.454 94.0156 107.478 94.0136 107.503C94.0122 107.521 94.0068 107.535 93.9989 107.546C93.9911 107.556 93.9789 107.566 93.9632 107.576L93.7148 107.719C93.6971 107.729 93.6767 107.735 93.6536 107.736C93.6301 107.737 93.6117 107.732 93.5974 107.719ZM94.7962 107.897C94.8568 107.862 94.9024 107.826 94.9324 107.789C94.9626 107.752 94.9797 107.716 94.9827 107.681C94.9868 107.646 94.9783 107.614 94.9592 107.584C94.9392 107.554 94.9109 107.529 94.8735 107.507L94.8469 107.491L94.5478 107.738C94.4869 107.788 94.4529 107.829 94.4447 107.861C94.4369 107.893 94.4532 107.921 94.4944 107.945C94.5315 107.966 94.5785 107.971 94.6346 107.959C94.6908 107.947 94.7445 107.926 94.7962 107.897Z" fill="#FAFAFA"/>
<path d="M94.5612 106.183C94.5809 106.172 94.6047 106.166 94.6333 106.166C94.6616 106.166 94.6857 106.172 94.7055 106.183L94.9134 106.303C94.9331 106.314 94.9426 106.328 94.943 106.345C94.943 106.361 94.9335 106.375 94.9137 106.386L94.684 106.519C94.6643 106.53 94.6401 106.536 94.6115 106.536C94.583 106.536 94.5591 106.53 94.5394 106.519L94.3315 106.399C94.3118 106.387 94.3019 106.374 94.3019 106.357C94.3019 106.341 94.3118 106.327 94.3315 106.315L94.5612 106.183ZM96.4436 107.202C96.4634 107.213 96.4729 107.227 96.4732 107.243C96.4726 107.26 96.4634 107.274 96.4436 107.285L96.2405 107.402C96.2207 107.413 96.1966 107.419 96.1687 107.419C96.1401 107.419 96.1159 107.414 96.0962 107.402L94.8521 106.684C94.8324 106.673 94.8229 106.659 94.8229 106.642C94.8225 106.626 94.832 106.612 94.8518 106.601L95.0549 106.483C95.0747 106.472 95.0988 106.466 95.1274 106.466C95.1557 106.466 95.1798 106.472 95.1996 106.484L96.4436 107.202Z" fill="#FAFAFA"/>
<path d="M97.1593 106.789C97.179 106.8 97.1889 106.814 97.1889 106.83C97.1886 106.847 97.179 106.861 97.1593 106.872L96.9565 106.989C96.9364 107 96.9126 107.006 96.8844 107.006C96.8558 107.006 96.8316 107.001 96.8122 106.989L95.0604 105.978C95.041 105.966 95.0312 105.953 95.0312 105.936C95.0312 105.92 95.041 105.906 95.0604 105.894L95.2636 105.777C95.2833 105.766 95.3071 105.76 95.3357 105.76C95.3643 105.76 95.3881 105.766 95.4079 105.777L97.1593 106.789Z" fill="#FAFAFA"/>
<path d="M86.5673 114.899L113.032 99.62C113.358 99.4322 113.834 99.4026 114.096 99.554C114.359 99.7054 114.307 99.9807 113.982 100.169L87.5143 115.45C87.1886 115.638 86.7129 115.667 86.4512 115.515C86.1899 115.363 86.2416 115.087 86.5673 114.899Z" fill="#FAFAFA"/>
<path d="M88.4243 115.972L114.889 100.693C115.215 100.505 115.691 100.475 115.953 100.627C116.216 100.778 116.164 101.053 115.839 101.241L89.3713 116.523C89.0457 116.71 88.57 116.74 88.3083 116.588C88.0469 116.435 88.0987 116.16 88.4243 115.972Z" fill="#FAFAFA"/>
<path opacity="0.5" d="M49.1296 125.889L35.3072 117.909L97.2263 82.1597L111.331 89.9774L49.1296 125.889Z" fill="#E0E0E0"/>
<path d="M45.3911 76.1352L104.28 42.1355L106.636 43.496C107.246 43.8478 107.744 44.7111 107.744 45.4148V88.8561C107.744 89.5595 107.246 90.4231 106.636 90.7746L49.9632 123.495C49.3541 123.847 48.3567 123.847 47.7476 123.495L46.4991 122.774C45.89 122.423 45.3914 121.559 45.3914 120.856L45.3911 76.1352Z" fill="#4495F5"/>
<path opacity="0.2" d="M45.3911 76.1352L104.28 42.1355L106.636 43.496C107.246 43.8478 107.744 44.7111 107.744 45.4148V88.8561C107.744 89.5595 107.246 90.4231 106.636 90.7746L49.9632 123.495C49.3541 123.847 48.3567 123.847 47.7476 123.495L46.4991 122.774C45.89 122.423 45.3914 121.559 45.3914 120.856L45.3911 76.1352Z" fill="black"/>
<path d="M103.955 38.317L104.196 38.186L103.281 37.6544V37.6551C103.203 37.6092 103.122 37.5697 103.038 37.5391L77.1211 27.9355C76.435 27.6813 75.5442 27.9648 75.1307 28.5681L46.1394 70.9058C45.7263 71.5095 45.3911 72.5916 45.3911 73.3229C45.3911 74.5329 45.3911 76.1347 45.3911 76.1347L46.2898 76.6567L104.28 42.1357V39.3235C104.28 38.9812 104.155 38.626 103.955 38.317Z" fill="#4495F5"/>
<path opacity="0.1" d="M76.3309 28.7725C76.2162 28.8607 76.1144 28.9713 76.0307 29.0904L47.037 71.4267C46.825 71.7401 46.6307 72.1818 46.4983 72.6364L45.5976 72.1155C45.6639 71.8946 45.7432 71.6782 45.8317 71.4754C45.8361 71.4665 45.8361 71.4621 45.8405 71.4577C45.8804 71.3695 45.9202 71.2855 45.9641 71.2014C45.9729 71.1882 45.9773 71.1749 45.9862 71.1616C46.0349 71.0687 46.0876 70.9806 46.1407 70.9054L75.13 28.569C75.1742 28.5027 75.2225 28.4499 75.2756 28.3924C75.3243 28.3438 75.377 28.2955 75.4301 28.2512L76.3309 28.7725Z" fill="black"/>
<path opacity="0.35" d="M104.186 38.1816C104.106 38.1329 104.023 38.0935 103.939 38.0625L78.0177 28.4552C77.4702 28.252 76.7903 28.3933 76.3312 28.773L75.4305 28.252C75.894 27.8767 76.5698 27.7311 77.1214 27.9342L103.038 37.5371C103.122 37.5681 103.201 37.6079 103.281 37.6562L104.186 38.1816Z" fill="white"/>
<path d="M45.9841 71.1599C46.034 71.0685 46.0853 70.983 46.1383 70.9055C46.0856 70.983 46.034 71.0685 45.9841 71.1599Z" fill="#4495F5"/>
<path d="M75.2761 28.3938C75.3249 28.344 75.3771 28.2969 75.4317 28.2522C75.3771 28.2966 75.3242 28.3426 75.2761 28.3938Z" fill="#4495F5"/>
<path d="M45.5964 72.1171C45.6627 71.8952 45.7427 71.6771 45.8319 71.4746C45.7424 71.6771 45.6627 71.8949 45.5964 72.1171Z" fill="#4495F5"/>
<path d="M45.8389 71.4559C45.8783 71.3673 45.9204 71.2837 45.9629 71.2029C45.9204 71.2837 45.8787 71.3673 45.8389 71.4559Z" fill="#4495F5"/>
<path opacity="0.2" d="M75.1314 28.5683C75.1744 28.5056 75.2252 28.4489 75.2774 28.3933C75.2242 28.4476 75.1744 28.5056 75.1314 28.5683Z" fill="black"/>
<path d="M76.03 29.0891L47.0383 71.4272C46.6252 72.0308 46.29 73.1129 46.29 73.8442C46.29 75.0543 46.29 76.656 46.29 76.656L105.18 42.6543L105.179 39.8449C105.179 39.1133 104.623 38.3143 103.937 38.0601L78.0196 28.4565C77.3343 28.2023 76.4431 28.4858 76.03 29.0891Z" fill="#4495F5"/>
<path opacity="0.05" d="M105.179 39.8454C105.179 39.5092 105.058 39.1607 104.864 38.8555L46.4989 72.6367C46.4989 72.6367 46.4959 72.6418 46.4931 72.6459C46.3682 73.0651 46.29 73.4949 46.29 73.8447C46.29 75.0548 46.29 76.6565 46.29 76.6565L105.18 42.6548L105.179 39.8454Z" fill="black"/>
<path d="M102.662 27.9115C102.662 27.609 102.557 27.3956 102.386 27.2949C102.213 27.1928 100.762 26.3571 100.589 26.2574C100.416 26.1577 100.177 26.1719 99.913 26.3244L51.6101 54.2108C51.0823 54.5157 50.6542 55.2569 50.6542 55.8663L50.6545 113.714C50.6545 114.018 50.7614 114.233 50.9342 114.333C51.1071 114.433 52.555 115.268 52.7282 115.368C52.9011 115.468 53.1403 115.453 53.404 115.301L101.707 87.4142C102.235 87.1093 102.663 86.3682 102.663 85.7587L102.662 27.9115Z" fill="#4495F5"/>
<path opacity="0.95" d="M102.662 27.9115C102.662 27.609 102.557 27.3956 102.386 27.2949C102.213 27.1928 100.762 26.3571 100.589 26.2574C100.416 26.1577 100.177 26.1719 99.913 26.3244L51.6101 54.2108C51.0823 54.5157 50.6542 55.2569 50.6542 55.8663L50.6545 113.714C50.6545 114.018 50.7614 114.233 50.9342 114.333C51.1071 114.433 52.555 115.268 52.7282 115.368C52.9011 115.468 53.1403 115.453 53.404 115.301L101.707 87.4142C102.235 87.1093 102.663 86.3682 102.663 85.7587L102.662 27.9115Z" fill="white"/>
<path d="M53.405 115.302L101.708 87.4151C102.236 87.1102 102.664 86.369 102.664 85.7596L102.663 27.912C102.663 27.3025 102.235 27.0552 101.708 27.3601L53.4046 55.2465C52.8768 55.5514 52.4488 56.2925 52.4488 56.902L52.4491 114.75C52.4491 115.36 52.8772 115.607 53.405 115.302Z" fill="#4495F5"/>
<path opacity="0.8" d="M53.405 115.302L101.708 87.4151C102.236 87.1102 102.664 86.369 102.664 85.7596L102.663 27.912C102.663 27.3025 102.235 27.0552 101.708 27.3601L53.4046 55.2465C52.8768 55.5514 52.4488 56.2925 52.4488 56.902L52.4491 114.75C52.4491 115.36 52.8772 115.607 53.405 115.302Z" fill="white"/>
<path d="M52.4465 114.749C52.4465 115.019 52.5306 115.217 52.6718 115.332C52.3496 115.151 51.0956 114.423 50.9367 114.335C50.7601 114.233 50.6543 114.021 50.6543 113.717V55.8656C50.6543 55.561 50.7601 55.2255 50.9367 54.925L52.7293 55.9582C52.5527 56.2583 52.4469 56.5982 52.4469 56.9031V114.749H52.4465Z" fill="#4495F5"/>
<path opacity="0.7" d="M52.4465 114.749C52.4465 115.019 52.5306 115.217 52.6718 115.332C52.3496 115.151 51.0956 114.423 50.9367 114.335C50.7601 114.233 50.6543 114.021 50.6543 113.717V55.8656C50.6543 55.561 50.7601 55.2255 50.9367 54.925L52.7293 55.9582C52.5527 56.2583 52.4469 56.5982 52.4469 56.9031V114.749H52.4465Z" fill="white"/>
<path opacity="0.05" d="M52.4465 114.749C52.4465 115.019 52.5306 115.217 52.6718 115.332C52.3496 115.151 51.0956 114.423 50.9367 114.335C50.7601 114.233 50.6543 114.021 50.6543 113.717V55.8656C50.6543 55.561 50.7601 55.2255 50.9367 54.925L52.7293 55.9582C52.5527 56.2583 52.4469 56.5982 52.4469 56.9031V114.749H52.4465Z" fill="black"/>
<path d="M70.0755 71.0293C69.8628 76.4106 70.2249 87.9429 70.2249 87.9429C70.2249 87.9429 75.9291 89.6671 79.8073 89.024C83.6856 88.3812 91.9787 82.5068 91.9787 82.5068L90.5965 70.0261L70.0755 71.0293Z" fill="#37474F"/>
<path d="M83.3198 87.7467L84.2464 78.9564C87.882 76.7888 89.0652 73.7878 89.0652 73.7878C85.7562 78.1204 82.3044 77.419 82.3044 77.419V88.2119C82.6348 88.0693 82.9744 87.9138 83.3198 87.7467Z" fill="#263238"/>
<path d="M92.8746 54.8154C93.7985 50.1317 94.2174 43.9075 90.1425 42.7652C89.0811 42.4678 86.3789 42.6743 86.3789 42.6743L81.9855 42.8924C79.5392 43.2045 76.1074 43.6908 75.2087 43.9119C72.8485 44.4925 72.1478 48.3476 71.0899 56.8908C70.4273 62.2401 69.8638 66.4161 69.8638 71.6224C74.18 75.4922 87.6703 73.9684 90.7404 71.4513C90.8673 65.5504 91.1889 63.3613 92.8746 54.8154Z" fill="#455A64"/>
<path d="M81.2407 41.2962C81.1986 42.1517 82.183 43.5952 83.6891 44.6086C85.1952 45.6219 86.4931 46.0323 86.6581 46.4553C85.9432 46.5894 85.2973 46.9436 84.7654 48.1707C84.2574 49.3426 84.2621 49.3804 82.5236 48.1707C80.7851 46.961 79.23 44.1852 79.2337 43.2607C79.2375 42.3361 80.6003 40.5473 81.2693 40.699L81.2407 41.2962Z" fill="#37474F"/>
<path d="M86.6589 46.4556C87.168 45.8996 87.6505 44.501 87.7124 43.8967C87.7744 43.2923 87.935 41.7039 87.935 41.7039C87.935 41.7039 88.3488 41.8107 88.5366 42.0945C88.7245 42.3783 89.6494 44.2904 89.6194 45.3582C89.5895 46.426 89.339 47.8698 88.9783 48.479C88.6173 49.0877 88.3753 48.0134 88.1399 47.5973C87.8333 47.0566 87.413 46.4702 86.6589 46.4556Z" fill="#37474F"/>
<path d="M85.9707 47.6809C85.9707 47.6809 86.0544 51.5381 85.6998 53.5886C85.6998 53.5886 86.8605 53.8013 87.994 53.527C87.994 53.527 87.4057 54.2518 85.2493 53.9187C85.2486 53.9187 85.9118 49.8928 85.9707 47.6809Z" fill="#37474F"/>
<path d="M95.1005 29.8718C95.0505 26.4917 92.27 23.7922 88.8899 23.8422C85.728 23.8889 83.1626 26.326 82.8856 29.4073L80.1061 27.4299C80.1061 27.4299 79.0924 27.2716 78.3162 28.089C77.5553 28.8907 78.0232 31.3571 79.0213 33.765C79.0213 33.765 80.0251 38.1611 80.4124 38.8802C80.7996 39.5992 81.5802 39.7935 81.5802 39.7935L81.4843 37.1185L92.6028 36.3202L91.5026 35.5375C93.6543 34.563 95.1376 32.3844 95.1005 29.8718Z" fill="#263238"/>
<path d="M81.3227 33.9357C80.9712 34.1528 80.6507 33.4092 80.0113 33.0278C79.4678 32.7035 78.2465 32.1349 77.4407 33.4838C76.573 34.9368 78.1478 36.9458 79.2507 37.3596C80.8837 37.9728 81.4687 36.6923 81.4687 36.6923L81.1315 43.4987C83.3552 47.5495 89.9554 47.2885 87.7112 43.8965L87.9807 41.2719C87.9807 41.2719 89.7393 41.5121 90.5935 41.3672C92.0145 41.1259 92.8938 39.989 93.3032 38.441C93.9606 35.9546 94.1944 33.9516 93.5335 29.0903C92.8094 23.7625 86.6005 23.7985 83.2794 25.958C79.9578 28.1181 81.3227 33.9357 81.3227 33.9357Z" fill="#FFA8A7"/>
<path d="M94.8894 24.1162C94.4382 23.8702 93.8927 23.8511 93.387 23.9437C93.5007 23.1774 92.9814 22.426 92.2991 22.1163C91.4729 21.741 90.7263 21.8737 89.9988 22.4236C90.1492 21.8826 89.6571 21.3313 89.1083 21.2115C88.5594 21.0917 87.9945 21.2803 87.4701 21.481C86.6895 21.7795 85.9208 22.1112 85.1279 22.3763C83.7307 22.8432 82.2437 23.1096 80.9798 23.8668C80.6814 24.0454 80.3935 24.2554 80.19 24.5375C79.9056 24.9319 79.8106 25.4382 79.8327 25.9241C79.8402 26.0861 79.8671 26.2444 79.9001 26.4009C79.8062 26.2988 79.6973 26.2086 79.5687 26.1419C78.9718 25.8329 78.2491 26.0841 77.954 26.7027L80.059 27.793C80.0066 28.217 79.9542 28.641 79.9114 29.066C79.798 30.1886 79.5802 31.4967 79.8338 32.6131C79.8623 32.7394 79.8834 32.8864 79.9709 32.9878C79.9709 32.9878 80.5154 33.3825 81.0659 34.0529C81.2289 34.2513 81.4256 34.5715 81.6893 34.6494C81.952 34.727 82.324 34.5797 82.4169 34.3176C82.4727 34.1604 82.457 33.9879 82.4407 33.8218C82.3726 33.13 82.3046 32.4386 82.2365 31.7468C82.2185 31.562 82.2011 31.3691 82.2702 31.1969C82.3628 30.9651 82.588 30.8202 82.7776 30.6582C83.2611 30.2451 83.5664 29.6305 83.6038 28.9959C83.6157 28.7965 83.6024 28.5923 83.6596 28.4007C83.7032 28.2544 83.8185 28.0261 83.9856 28.0257C84.3102 28.0244 86.0726 28.4082 86.5153 28.4688C88.8214 28.7849 91.2987 28.8462 93.3329 27.7147C94.1251 27.2741 95.46 26.3604 95.5985 25.3807C95.6703 24.871 95.3406 24.3622 94.8894 24.1162Z" fill="#263238"/>
<path d="M87.9819 41.2718C87.9819 41.2718 84.7934 40.6784 83.6732 40.1039C82.9236 39.7194 82.3005 39.0433 82.1144 38.6067C82.1144 38.6067 82.3366 39.5469 83.0137 40.3867C83.842 41.4137 87.8951 42.1178 87.8951 42.1178L87.9819 41.2718Z" fill="#F28F8F"/>
<path d="M87.8449 33.3632C87.85 33.7059 87.5866 33.987 87.2569 33.9907C86.9271 33.9948 86.6556 33.7202 86.6508 33.3775C86.6457 33.0349 86.9087 32.7541 87.2385 32.75C87.5682 32.7463 87.8398 33.0209 87.8449 33.3632Z" fill="#263238"/>
<path d="M86.6839 31.1369L85.2836 31.8175C85.1032 31.4159 85.2707 30.9382 85.6572 30.7503C86.0438 30.5622 86.5035 30.7354 86.6839 31.1369Z" fill="#263238"/>
<path d="M86.6995 37.0935L89.2299 38.0007C88.9917 38.7255 88.2318 39.1104 87.5329 38.8599C86.8339 38.6095 86.461 37.8187 86.6995 37.0935Z" fill="#B16668"/>
<path d="M88.2986 38.892C88.1982 38.1754 87.5401 37.6717 86.8211 37.7657C86.7649 37.7731 86.7122 37.7898 86.6588 37.8038C86.7469 38.2768 87.064 38.6916 87.534 38.86C87.7902 38.9516 88.0546 38.9563 88.2986 38.892Z" fill="#F28F8F"/>
<path d="M93.3217 31.599L91.9697 30.8932C92.1532 30.5223 92.6044 30.3797 92.9777 30.5744C93.351 30.7694 93.5051 31.2281 93.3217 31.599Z" fill="#263238"/>
<path d="M92.6335 33.2619C92.6386 33.6046 92.3752 33.8853 92.0455 33.8894C91.7157 33.8935 91.4442 33.6189 91.4394 33.2762C91.4343 32.9335 91.6977 32.6528 92.0271 32.6487C92.3568 32.6446 92.6284 32.9193 92.6335 33.2619Z" fill="#263238"/>
<path d="M89.5871 32.8909L89.7062 36.7535L91.984 36.2236L89.5871 32.8909Z" fill="#F28F8F"/>
<path d="M106.249 89.435C106.232 89.466 106.214 89.4925 106.188 89.5231L81.6478 81.7418C79.7204 80.886 77.464 81.5829 76.3448 83.3742L50.1101 122.367L49.1399 122.927L49.1311 122.931C48.8371 123.095 48.5737 123.117 48.3804 123.015L75.3613 82.8226C76.4809 81.0313 78.7417 80.3341 80.6688 81.1858L106.249 89.435Z" fill="#4495F5"/>
<path opacity="0.4" d="M73.9284 87.2014L73.9904 87.1484L50.1091 122.368L49.1379 122.929L49.1291 122.933C48.8378 123.097 48.5727 123.114 48.3784 123.017L72.9838 86.6362L73.9284 87.2014Z" fill="white"/>
<path opacity="0.4" d="M106.252 89.4361C106.234 89.4671 106.217 89.4936 106.19 89.5243L81.6466 81.7402C79.7216 80.8837 77.4655 81.5813 76.3439 83.3739L75.3728 82.8087C76.4944 81.0249 78.746 80.3362 80.671 81.1839L106.252 89.4361Z" fill="white"/>
<path d="M107.724 45.1374H107.719C107.666 44.8195 107.498 44.7314 107.282 44.8811C107.198 44.9386 107.101 45.0356 107 45.1728L106.876 45.3449L82.6595 82.1618L79.0436 87.1994C78.6373 87.7735 77.7454 88.1046 77.0523 87.9457L73.9308 87.2039L50.1026 78.4316C49.9305 78.3918 49.7671 78.3874 49.6171 78.4139C49.5551 78.4272 49.4935 78.4449 49.436 78.4715L50.334 77.9522L73.1791 86.3246L76.1869 87.3982C76.8757 87.5615 77.7676 87.2304 78.1783 86.6519L81.7942 81.6188L106.13 44.6297C106.21 44.5194 106.307 44.4398 106.404 44.3778L104.298 43.1637L105.181 42.656L106.638 43.4948C107.167 43.8041 107.613 44.4973 107.724 45.1374Z" fill="#4495F5"/>
<path opacity="0.4" d="M82.6577 82.1598L79.0418 87.1974C78.6355 87.7714 77.7437 88.1025 77.0505 87.9436L73.929 87.2018L73.991 87.1487L74.141 86.9102L76.1851 87.3958C76.8739 87.5591 77.7658 87.228 78.1765 86.6495L81.757 81.6694L82.6577 82.1598Z" fill="white"/>
<path opacity="0.1" d="M106.636 43.4933L105.179 42.6545L104.296 43.1622L106.402 44.3764C106.403 44.3778 106.405 44.3791 106.407 44.3805L106.403 44.3784C106.297 44.4451 106.204 44.5268 106.129 44.6302L81.7916 81.6173L81.7562 81.666V81.6704L82.657 82.1604L106.874 45.3435L106.997 45.1713C107.099 45.0345 107.196 44.9372 107.28 44.88C107.496 44.7299 107.664 44.8181 107.717 45.1359H107.721C107.612 44.4955 107.166 43.8023 106.636 43.4933Z" fill="black"/>
<path d="M50.5866 79.1361L45.3911 76.1355L45.3915 120.856C45.3915 121.56 45.89 122.423 46.4991 122.775L47.7476 123.495C48.3571 123.847 49.3541 123.847 49.9632 123.495L50.5866 123.135V79.1361Z" fill="#4495F5"/>
<path opacity="0.15" d="M50.5866 79.1361L45.3911 76.1355L45.3915 120.856C45.3915 121.56 45.89 122.423 46.4991 122.775L47.7476 123.495C48.3571 123.847 49.3541 123.847 49.9632 123.495L50.5866 123.135V79.1361Z" fill="black"/>
<path d="M107.745 45.4157V88.8559C107.745 89.2224 107.613 89.624 107.401 89.9772C107.224 90.2685 107.003 90.5291 106.752 90.7057L106.708 90.7278C106.681 90.7455 106.663 90.7632 106.637 90.7765L49.965 123.492L49.9562 123.497C49.6604 123.664 49.3954 123.687 49.2011 123.585C49.0289 123.497 48.9098 123.316 48.87 123.055C48.8611 122.993 48.8567 122.927 48.8567 122.857V79.4123C48.8567 78.7103 49.4086 78.269 50.1018 78.4323L73.93 87.2045L77.0514 87.9463C77.7446 88.1053 78.6365 87.7742 79.0428 87.2001L82.6587 82.1625L106.875 45.3456L106.999 45.1734C107.409 44.6031 107.745 44.7093 107.745 45.4157Z" fill="#4495F5"/>
<path d="M106.637 90.7764C106.662 90.7634 106.684 90.7464 106.709 90.7294L106.752 90.7039C107.003 90.529 107.225 90.269 107.4 89.9791C107.61 89.631 107.74 89.2338 107.744 88.8762L82.6607 82.1624L99.4579 94.921L106.637 90.7764Z" fill="#4495F5"/>
<path opacity="0.2" d="M106.637 90.7764C106.662 90.7634 106.684 90.7464 106.709 90.7294L106.752 90.7039C107.003 90.529 107.225 90.269 107.4 89.9791C107.61 89.631 107.74 89.2338 107.744 88.8762L82.6607 82.1624L99.4579 94.921L106.637 90.7764Z" fill="black"/>
<path d="M48.8567 122.854C48.8567 123.221 48.9891 123.473 49.2021 123.584C49.3981 123.686 49.6628 123.665 49.9568 123.498L49.9653 123.494L69.477 112.23L73.933 87.2026L48.8577 122.133L48.8567 122.854Z" fill="#4495F5"/>
<path opacity="0.15" d="M76.3353 83.3691L49.2003 123.582C48.9883 123.472 48.8559 123.22 48.8559 122.854L48.8576 122.132L75.3642 82.8216C75.3642 82.8172 75.3686 82.8128 75.373 82.8083L76.3353 83.3691Z" fill="black"/>
<path d="M107.4 89.9793C107.225 90.2692 107.003 90.5292 106.752 90.7041L106.709 90.7296L49.9643 123.494L49.9558 123.498C49.6615 123.664 49.3971 123.685 49.2011 123.583L76.3389 83.3628C77.4635 81.5671 79.7363 80.8698 81.6746 81.7257L107.4 89.9793Z" fill="#4495F5"/>
<path opacity="0.15" d="M45.5975 72.1165L46.4982 72.6374C46.3703 73.0611 46.2907 73.4939 46.2907 73.8471C46.2907 75.0569 46.2907 76.6552 46.2907 76.6552L45.3899 76.1342C45.3899 76.1342 45.3899 74.5315 45.3899 73.3217C45.3899 72.973 45.4696 72.5401 45.5975 72.1165Z" fill="black"/>
<path d="M50.3336 77.9519L49.4356 78.4712L48.526 77.9458L46.2876 76.6564L47.1574 76.1399L50.3336 77.9519Z" fill="#4495F5"/>
<path opacity="0.1" d="M50.3734 77.9691L47.1574 76.1404L46.2876 76.6569L48.526 77.9459L49.4356 78.4713L49.4451 78.4659C49.4996 78.4421 49.5571 78.4244 49.6153 78.4121C49.7653 78.3856 49.9287 78.39 50.1008 78.4298L51.9115 79.0978L72.7118 86.7553L73.0371 86.2727L50.3734 77.9691Z" fill="black"/>
<path d="M75.2087 43.9116C72.3217 44.1192 70.342 44.8066 68.4813 49.2769C67.2784 52.167 62.563 62.5521 62.1064 64.2686C61.5701 66.2851 60.3648 81.6071 60.3648 81.6071L63.1201 82.6409C63.1201 82.6409 62.1758 85.9383 61.3788 87.8225C60.4601 89.9945 64.9474 89.5392 66.3885 87.5642C67.8341 85.5834 68.812 82.9472 68.0246 82.0202C66.9837 80.7949 65.8373 79.9969 65.8373 79.9969L68.8539 66.3269L75.1795 52.8799C75.1795 52.8799 78.353 46.2705 75.2087 43.9116Z" fill="#FFA8A7"/>
<path d="M65.8372 79.9972C64.3627 79.1652 63.0417 79.1992 63.0417 79.1992C63.0417 79.1992 64.4907 78.7347 65.9685 79.1989L65.8372 79.9972Z" fill="#F28F8F"/>
<path d="M75.8642 43.7789C74.2427 43.7653 71.2176 43.6928 69.2582 47.2321C67.2988 50.7714 64.5275 57.4972 64.5275 57.4972C64.5275 57.4972 65.6797 60.3307 71.845 60.9225L76.5682 50.8732C76.5682 50.8732 77.718 46.2616 75.8642 43.7789Z" fill="#37474F"/>
<path d="M96.7836 46.0998C99.219 48.0197 103.175 51.04 105.098 52.2491C106.551 50.4901 109.225 46.9328 109.874 46.1535C110.699 45.163 113.304 43.5449 113.304 43.5449L114.288 47.4909C114.288 47.4909 109.348 56.6017 107.559 58.2881C105.673 60.0651 104.308 59.3284 100.623 57.6392C97.1416 56.0433 93.3617 54.0648 93.3617 54.0648C94.1106 47.4425 93.6029 43.8556 90.439 42.7388C92.5661 43.0032 94.7398 44.4889 96.7836 46.0998Z" fill="#FFA8A7"/>
<path d="M103.145 50.9163C101.872 51.2661 99.2402 55.0106 99.7207 57.3793L93.016 54.0653C93.8276 49.4939 94.0022 43.8468 90.1426 42.7647C89.8568 42.683 89.4519 42.6422 89.0129 42.6218C90.9355 42.4312 92.1905 42.4874 94.2046 44.0016C96.2195 45.5159 103.145 50.9163 103.145 50.9163Z" fill="#37474F"/>
<path d="M105.098 52.2491C104.137 53.0909 103.826 54.61 103.64 55.2109C103.64 55.2109 103.44 53.4557 104.542 51.8877L105.098 52.2491Z" fill="#F28F8F"/>
<path d="M114.433 39.1305L116.731 37.7363C116.731 37.7363 116.995 50.1377 117.003 50.5409C117.012 50.9442 117.486 51.3376 117.486 51.3376L115.188 52.73C115.188 52.73 114.714 52.3366 114.705 51.9341C114.697 51.5312 114.433 39.1305 114.433 39.1305Z" fill="#37474F"/>
<path d="M116.841 42.9045C116.841 42.9045 117.501 43.0618 117.754 44.0853C118.006 45.1093 118.133 47.0652 117.545 47.7097C116.957 48.3542 116.154 48.6353 115.62 48.4036C114.621 47.97 114.925 45.9447 115.725 45.4774C117.004 44.7309 116.85 43.9084 116.85 43.9084L116.841 42.9045Z" fill="#FFA8A7"/>
<path d="M111.604 39.1677L112.611 40.3958L112.792 49.1415L111.769 50.8511L115.188 52.7295C114.889 52.4709 114.734 52.2051 114.705 51.9336L114.467 40.7398L111.604 39.1677Z" fill="#455A64"/>
<path d="M111.77 50.8516L111.781 51.3889L115.199 53.2673L115.188 52.7303L111.77 50.8516Z" fill="#4495F5"/>
<path d="M115.2 53.2671L117.497 51.8746L117.486 51.3376L115.188 52.7301L115.2 53.2671Z" fill="#4495F5"/>
<path opacity="0.1" d="M115.2 53.2671L117.497 51.8746L117.486 51.3376L115.188 52.7301L115.2 53.2671Z" fill="black"/>
<path d="M112.273 33.0984C111.826 32.9878 111.308 33.176 110.828 33.6895L110.811 33.7082C109.863 34.7233 109.423 36.6238 109.828 37.9526L109.835 37.9771C110.045 38.6655 110.441 39.0643 110.905 39.149L112.892 39.6275L114.11 33.5418L112.273 33.0984Z" fill="#4495F5"/>
<path opacity="0.7" d="M112.273 33.0984C111.826 32.9878 111.308 33.176 110.828 33.6895L110.811 33.7082C109.863 34.7233 109.423 36.6238 109.828 37.9526L109.835 37.9771C110.045 38.6655 110.441 39.0643 110.905 39.149L112.892 39.6275L114.11 33.5418L112.273 33.0984Z" fill="white"/>
<path opacity="0.05" d="M110.905 39.149L112.892 39.6275L113.295 37.6102L109.68 36.7725C109.672 37.1883 109.717 37.5919 109.827 37.9526L109.835 37.9771C110.045 38.6655 110.44 39.0646 110.905 39.149Z" fill="black"/>
<path d="M116.301 33.2692L116.3 33.2705C115.798 33.1552 115.226 33.3406 114.682 33.8476C114.625 33.8997 114.568 33.9565 114.511 34.0171C114.444 34.0889 114.38 34.1624 114.318 34.241C114.215 34.3696 114.117 34.5058 114.026 34.6511C113.858 34.9141 113.711 35.201 113.585 35.5042C113.249 36.3181 113.071 37.242 113.091 38.1046C113.101 38.5398 113.162 38.9584 113.278 39.3409C113.526 40.1528 113.98 40.6455 114.519 40.7881L112.627 40.3515L112.628 40.3474C111.957 40.1616 111.376 39.6417 111.132 38.8427C111.021 38.4776 110.96 38.0781 110.947 37.6643C110.917 36.7857 111.096 35.839 111.44 35.007C111.565 34.7041 111.712 34.4159 111.88 34.1539C111.972 34.0086 112.069 33.8715 112.172 33.7439C112.235 33.6649 112.299 33.5904 112.365 33.5199C112.421 33.4597 112.48 33.4036 112.539 33.3508C113.083 32.8714 113.754 32.7111 114.371 32.8258L114.371 32.8244L114.424 32.836C114.446 32.8414 114.469 32.8462 114.491 32.8526L116.301 33.2692Z" fill="#4495F5"/>
<path opacity="0.1" d="M112.626 40.3515L112.627 40.3475C111.956 40.1617 111.375 39.6417 111.131 38.8427C111.02 38.4776 110.96 38.0781 110.946 37.6643L113.09 38.1043C113.101 38.5395 113.161 38.9581 113.278 39.3406C113.526 40.1525 113.98 40.6452 114.518 40.7878L112.626 40.3515Z" fill="black"/>
<path d="M117.585 34.7293C118.093 36.3964 117.541 38.7791 116.352 40.0521C115.755 40.6928 115.108 40.9307 114.55 40.7956C114.539 40.7939 114.529 40.7912 114.519 40.7881C113.98 40.6455 113.526 40.1528 113.278 39.3409C112.77 37.6738 113.322 35.2911 114.511 34.0171C115.104 33.3821 115.745 33.1426 116.3 33.2702C116.858 33.3974 117.33 33.8943 117.585 34.7293Z" fill="#4495F5"/>
<path opacity="0.2" d="M117.585 34.7293C118.093 36.3964 117.541 38.7791 116.352 40.0521C115.755 40.6928 115.108 40.9307 114.55 40.7956C114.539 40.7939 114.529 40.7912 114.519 40.7881C113.98 40.6455 113.526 40.1528 113.278 39.3409C112.77 37.6738 113.322 35.2911 114.511 34.0171C115.104 33.3821 115.745 33.1426 116.3 33.2702C116.858 33.3974 117.33 33.8943 117.585 34.7293Z" fill="black"/>
<path d="M125.466 31.8557C125.466 31.8557 123.242 34.0124 122.18 38.5988C121.971 39.4996 121.844 40.337 121.774 41.0992C121.489 44.218 122.166 46.1001 122.166 46.1001C120.793 44.4153 119.209 42.7204 117.114 41.6917C115.817 41.055 114.599 40.6269 114.599 40.6269L114.6 40.6245C114.092 40.5058 113.675 40.0386 113.446 39.2893C113.296 38.7958 113.242 38.2374 113.274 37.6637C113.292 37.301 113.344 36.9321 113.428 36.5704C113.644 35.6373 114.066 34.7519 114.64 34.1367C115.175 33.5643 115.755 33.3285 116.263 33.4449L116.264 33.4428C116.264 33.4428 117.546 33.5939 118.991 33.5925C121.324 33.5902 123.493 32.765 125.466 31.8557Z" fill="#4495F5"/>
<path opacity="0.7" d="M125.466 31.8557C125.466 31.8557 123.242 34.0124 122.18 38.5988C121.971 39.4996 121.844 40.337 121.774 41.0992C121.489 44.218 122.166 46.1001 122.166 46.1001C120.793 44.4153 119.209 42.7204 117.114 41.6917C115.817 41.055 114.599 40.6269 114.599 40.6269L114.6 40.6245C114.092 40.5058 113.675 40.0386 113.446 39.2893C113.296 38.7958 113.242 38.2374 113.274 37.6637C113.292 37.301 113.344 36.9321 113.428 36.5704C113.644 35.6373 114.066 34.7519 114.64 34.1367C115.175 33.5643 115.755 33.3285 116.263 33.4449L116.264 33.4428C116.264 33.4428 117.546 33.5939 118.991 33.5925C121.324 33.5902 123.493 32.765 125.466 31.8557Z" fill="white"/>
<path opacity="0.05" d="M121.774 41.0989C121.489 44.2176 122.166 46.0997 122.166 46.0997C120.793 44.4149 119.209 42.72 117.114 41.6913C115.817 41.0546 114.599 40.6265 114.599 40.6265L114.6 40.6242C114.092 40.5054 113.675 40.0382 113.446 39.2889C113.296 38.7955 113.242 38.2371 113.274 37.6633C115.576 38.055 119.371 38.9142 121.774 41.0989Z" fill="black"/>
<path d="M131.579 34.1033C132.109 35.8415 132.154 37.907 131.799 39.9354L131.799 39.9365C131.343 42.5345 130.233 45.0687 128.643 46.7701C125.813 49.7997 122.539 49.0405 121.331 45.0755C121.054 44.1679 120.91 43.1722 120.884 42.1391C120.825 39.5941 121.492 36.8239 122.705 34.6045C122.876 34.2915 123.057 33.9906 123.249 33.7021C123.329 33.582 123.411 33.4635 123.495 33.3482L123.496 33.3478C123.615 33.1835 123.736 33.0242 123.862 32.8708C123.993 32.7112 124.127 32.5563 124.265 32.409C127.096 29.3794 130.37 30.1369 131.579 34.1033Z" fill="#4495F5"/>
<path opacity="0.1" d="M131.799 39.9363C131.343 42.5344 130.233 45.0685 128.643 46.7699C125.813 49.7995 122.539 49.0403 121.33 45.0753C121.054 44.1677 120.91 43.1721 120.884 42.139L120.885 42.1386C121.274 42.5806 122.332 43.0581 122.55 42.4313C122.576 43.3551 122.706 44.2378 122.949 45.0344C123.297 46.1741 123.831 47.0163 124.495 47.4716C125.061 47.8595 125.704 47.9487 126.404 47.7339C127.085 47.5274 127.799 47.0353 128.472 46.3163C129.824 44.8691 130.814 42.7076 131.295 40.4535C131.295 40.4535 131.565 40.5696 131.799 39.9363Z" fill="black"/>
<path d="M131.221 34.4539C131.755 36.205 131.743 38.3696 131.296 40.4539C130.814 42.7076 129.825 44.8694 128.473 46.3166C127.8 47.0357 127.085 47.5277 126.404 47.7343C125.704 47.949 125.062 47.8598 124.495 47.4719C123.832 47.0166 123.297 46.1747 122.95 45.0348C122.707 44.2382 122.577 43.3555 122.55 42.4316C122.54 42.0828 122.544 41.7279 122.563 41.3699C122.596 40.7468 122.671 40.1105 122.789 39.4817C122.813 39.352 122.838 39.2234 122.865 39.0954C122.909 38.8821 122.958 38.6684 123.012 38.4577C123.194 37.735 123.43 37.0282 123.713 36.3588C123.715 36.352 123.72 36.3435 123.722 36.3357C123.911 35.8899 124.12 35.4622 124.347 35.0566C124.511 34.7646 124.684 34.4852 124.867 34.2191C124.943 34.1072 125.021 33.9983 125.101 33.8914C125.197 33.7638 125.296 33.6393 125.397 33.5175C125.495 33.4001 125.596 33.2867 125.697 33.1765C126.372 32.4534 127.088 31.9644 127.768 31.7561C129.275 31.2957 130.566 32.306 131.221 34.4539Z" fill="#4495F5"/>
<path opacity="0.3" d="M131.221 34.4539C131.755 36.205 131.743 38.3696 131.296 40.4539C130.814 42.7076 129.825 44.8694 128.473 46.3166C127.8 47.0357 127.085 47.5277 126.404 47.7343C125.704 47.949 125.062 47.8598 124.495 47.4719C123.832 47.0166 123.297 46.1747 122.95 45.0348C122.707 44.2382 122.577 43.3555 122.55 42.4316C122.54 42.0828 122.544 41.7279 122.563 41.3699C122.596 40.7468 122.671 40.1105 122.789 39.4817C122.813 39.352 122.838 39.2234 122.865 39.0954C122.909 38.8821 122.958 38.6684 123.012 38.4577C123.194 37.735 123.43 37.0282 123.713 36.3588C123.715 36.352 123.72 36.3435 123.722 36.3357C123.911 35.8899 124.12 35.4622 124.347 35.0566C124.511 34.7646 124.684 34.4852 124.867 34.2191C124.943 34.1072 125.021 33.9983 125.101 33.8914C125.197 33.7638 125.296 33.6393 125.397 33.5175C125.495 33.4001 125.596 33.2867 125.697 33.1765C126.372 32.4534 127.088 31.9644 127.768 31.7561C129.275 31.2957 130.566 32.306 131.221 34.4539Z" fill="black"/>
<path d="M126.233 37.0401L125.293 41.7789C124.61 41.7357 123.46 41.6837 122.549 41.7255C122.551 41.6074 122.556 41.4897 122.563 41.3703C122.596 40.7472 122.671 40.1109 122.789 39.482C122.813 39.3524 122.838 39.2237 122.865 39.0958C122.909 38.8824 122.957 38.6687 123.012 38.4581C123.194 37.7353 123.43 37.0285 123.712 36.3592C123.715 36.3524 123.72 36.3439 123.722 36.3361C123.765 36.2381 123.806 36.1404 123.85 36.0444C124.924 36.6355 126.233 37.0401 126.233 37.0401Z" fill="#4495F5"/>
<g opacity="0.4">
<path d="M126.233 37.0401L125.293 41.7789C124.61 41.7357 123.46 41.6837 122.549 41.7255C122.551 41.6074 122.556 41.4897 122.563 41.3703C122.596 40.7472 122.671 40.1109 122.789 39.482C122.813 39.3524 122.838 39.2237 122.865 39.0958C122.909 38.8824 122.957 38.6687 123.012 38.4581C123.194 37.7353 123.43 37.0285 123.712 36.3592C123.715 36.3524 123.72 36.3439 123.722 36.3361C123.765 36.2381 123.806 36.1404 123.85 36.0444C124.924 36.6355 126.233 37.0401 126.233 37.0401Z" fill="white"/>
</g>
<path d="M125.472 41.7131C124.979 41.8636 124.563 41.5549 124.36 40.8876L124.354 40.8672C124.034 39.8184 124.383 38.313 125.131 37.5116L125.146 37.496C125.345 37.2823 125.561 37.136 125.769 37.0723C126.262 36.9219 126.678 37.2306 126.881 37.8982L126.887 37.9186C127.207 38.9674 126.858 40.4728 126.11 41.2742L126.095 41.2898C125.895 41.5032 125.68 41.6495 125.472 41.7131Z" fill="#4495F5"/>
<g opacity="0.7">
<path d="M125.472 41.7131C124.979 41.8636 124.563 41.5549 124.36 40.8876L124.354 40.8672C124.034 39.8184 124.383 38.313 125.131 37.5116L125.146 37.496C125.345 37.2823 125.561 37.136 125.769 37.0723C126.262 36.9219 126.678 37.2306 126.881 37.8982L126.887 37.9186C127.207 38.9674 126.858 40.4728 126.11 41.2742L126.095 41.2898C125.895 41.5032 125.68 41.6495 125.472 41.7131Z" fill="white"/>
</g>
<path opacity="0.5" d="M124.327 29.5216C124.056 29.6043 123.77 29.4515 123.687 29.1807L122.24 24.4361C122.158 24.1649 122.31 23.8783 122.581 23.7957C122.853 23.713 123.139 23.8658 123.222 24.1366L124.668 28.8812C124.751 29.1524 124.599 29.439 124.327 29.5216Z" fill="#E0E0E0"/>
<path opacity="0.5" d="M120.363 31.9946C120.193 32.0463 120.002 32.0085 119.863 31.8789L116.238 28.493C116.031 28.2994 116.02 27.9751 116.213 27.7679C116.406 27.5613 116.731 27.5498 116.939 27.7431L120.563 31.1289C120.771 31.3225 120.782 31.6468 120.588 31.854C120.525 31.9221 120.447 31.9691 120.363 31.9946Z" fill="#E0E0E0"/>
<path opacity="0.5" d="M122.842 56.2293C122.758 56.2548 122.668 56.2592 122.577 56.2381C122.301 56.1741 122.129 55.8985 122.193 55.6225L123.312 50.7905C123.376 50.5142 123.651 50.342 123.928 50.4063C124.204 50.4703 124.376 50.7459 124.312 51.0219L123.192 55.8539C123.149 56.0394 123.011 56.1775 122.842 56.2293Z" fill="#E0E0E0"/>
<path opacity="0.5" d="M131.845 54.1795C131.573 54.2621 131.287 54.1094 131.204 53.8381L129.758 49.0935C129.675 48.8227 129.827 48.5358 130.099 48.4531C130.37 48.3704 130.656 48.5232 130.739 48.7944L132.186 53.539C132.268 53.8102 132.116 54.0971 131.845 54.1795Z" fill="#E0E0E0"/>
<path opacity="0.5" d="M137.183 47.7041C137.013 47.7558 136.822 47.718 136.683 47.5884L133.058 44.2029C132.851 44.0096 132.84 43.685 133.033 43.4777C133.226 43.2712 133.551 43.2593 133.758 43.4529L137.383 46.8384C137.591 47.0317 137.602 47.3563 137.408 47.5636C137.344 47.632 137.266 47.6786 137.183 47.7041Z" fill="#E0E0E0"/>
<path opacity="0.5" d="M140.586 41.3144C140.502 41.3399 140.412 41.3443 140.321 41.3236L135.489 40.2037C135.213 40.1397 135.041 39.8641 135.105 39.5881C135.169 39.3118 135.444 39.1403 135.72 39.2039L140.552 40.3235C140.828 40.3874 141 40.6631 140.936 40.9391C140.893 41.1245 140.755 41.2627 140.586 41.3144Z" fill="#E0E0E0"/>
<path opacity="0.5" d="M140.34 34.0781L135.595 35.5246C135.324 35.6073 135.038 35.4545 134.955 35.1837C134.872 34.9128 135.025 34.6259 135.296 34.5432L140.04 33.0967C140.312 33.014 140.598 33.1668 140.681 33.4376C140.763 33.7089 140.611 33.9954 140.34 34.0781Z" fill="#E0E0E0"/>
<path opacity="0.5" d="M133.122 31.559C132.952 31.6108 132.761 31.573 132.622 31.4433C132.415 31.25 132.404 30.9254 132.597 30.7182L135.983 27.0935C136.175 26.8866 136.5 26.8753 136.708 27.0686C136.915 27.2619 136.926 27.5865 136.732 27.7938L133.347 31.4185C133.283 31.4869 133.206 31.5335 133.122 31.559Z" fill="#E0E0E0"/>
<path opacity="0.5" d="M128.997 29.3624C128.913 29.3879 128.822 29.3923 128.732 29.3716C128.456 29.3076 128.284 29.0319 128.348 28.756L129.468 23.9239C129.532 23.6476 129.808 23.4758 130.083 23.5397C130.36 23.6037 130.531 23.8793 130.467 24.1553L129.348 28.9874C129.304 29.1725 129.166 29.3106 128.997 29.3624Z" fill="#E0E0E0"/>
<path d="M109.874 46.1542C110.852 44.9131 110.89 44.1363 111.652 43.5282C112.415 42.9197 113.183 42.8806 114.318 43.2063C115.174 43.4519 116.178 43.3291 116.524 43.6469C116.622 43.7126 116.469 44.2632 116.067 44.4602C115.583 44.6974 114.802 44.6395 114.226 44.6426C112.915 44.6498 113.99 45.9364 112.727 47.2417C112.191 48.1778 109.874 46.1542 109.874 46.1542Z" fill="#FFA8A7"/>
<path d="M21.8055 66.984L37.4536 59.314L26.1683 70.0449L21.8055 66.984Z" fill="#4495F5"/>
<path d="M37.4537 59.314L20.1998 64.9899L15.8374 61.9287L37.4537 59.314Z" fill="#4495F5"/>
<path d="M20.1999 64.9899L20.8818 69.3715L21.8057 66.984L37.4537 59.314L20.1999 64.9899Z" fill="#4495F5"/>
<path opacity="0.25" d="M20.1999 64.9899L20.8818 69.3715L21.8057 66.984L37.4537 59.314L20.1999 64.9899Z" fill="black"/>
<path d="M20.883 69.3718L23.2609 68.0046L21.8069 66.9844L20.883 69.3718Z" fill="#4495F5"/>
<path opacity="0.25" d="M21.8055 66.9844L23.2596 68.0046L22.8802 68.2227L21.8055 66.9844Z" fill="black"/>
<path d="M114.004 141.352C114.006 141.226 113.948 141.125 113.83 141.048C113.631 140.892 113.379 140.819 113.08 140.827C112.779 140.835 112.517 140.899 112.292 141.018L110.922 141.744C111.035 141.541 111.119 141.333 111.169 141.12C111.21 140.951 111.228 140.782 111.224 140.61C111.217 140.324 111.223 138.737 111.224 138.587C111.227 138.28 111.159 137.967 111.02 137.649C110.812 137.175 110.406 136.717 109.802 136.272C109.384 135.95 108.882 135.598 108.297 135.214C107.711 134.83 107.177 134.505 106.695 134.237C105.452 133.568 104.109 133.033 102.667 132.631C101.223 132.229 99.6711 132.035 98.0139 132.048C96.3567 132.062 94.5923 132.313 92.7208 132.803C90.8495 133.291 88.8745 134.087 86.7954 135.189C85.0218 136.129 83.6814 137.106 82.7773 138.118C81.8714 139.131 81.3232 140.131 81.1327 141.117C81.0738 141.422 81.0466 141.723 81.05 142.021C81.0541 142.356 81.0479 143.788 81.0486 144.075C81.05 144.753 81.2109 145.413 81.5315 146.056C81.9885 146.971 82.6922 147.8 83.6423 148.544C83.8424 148.699 84.133 148.907 84.5148 149.168C84.8942 149.43 85.3008 149.702 85.734 149.985C86.1672 150.269 86.5874 150.539 86.9965 150.795C87.4069 151.05 87.74 151.251 87.9972 151.396C89.1886 152.032 90.5385 152.529 92.045 152.887C93.5504 153.246 95.1368 153.421 96.8039 153.413C98.4689 153.405 100.191 153.186 101.97 152.757C103.747 152.327 105.523 151.643 107.297 150.703C108.723 149.947 109.863 149.232 110.716 148.559C111.569 147.885 112.227 147.255 112.693 146.666C113.159 146.077 113.474 145.517 113.642 144.986C113.808 144.455 113.928 143.96 113.999 143.499C114.003 143.477 114.004 143.456 114.004 143.435C114.005 143.311 114.004 141.371 114.004 141.352ZM108.901 143.797C108.718 144.064 108.459 144.358 108.119 144.679C107.778 144.999 107.337 145.345 106.795 145.713C106.25 146.082 105.561 146.488 104.725 146.931C103.543 147.557 102.343 148.027 101.125 148.341C99.9069 148.655 98.7118 148.825 97.5375 148.854C96.3656 148.883 95.2344 148.782 94.1472 148.554C93.0607 148.325 92.049 147.976 91.1119 147.507C90.8332 147.373 90.5024 147.187 90.1189 146.947C89.7354 146.708 89.3434 146.458 88.9443 146.196C88.5458 145.935 88.1691 145.682 87.8138 145.438C87.4589 145.193 87.1911 144.988 87.0118 144.822C86.3193 144.223 85.8286 143.588 85.5394 142.916C85.5064 142.839 85.4774 142.762 85.4505 142.686C85.6568 142.096 86.042 141.508 86.6092 140.922C87.266 140.241 88.1858 139.588 89.3679 138.961C90.774 138.215 92.111 137.648 93.3789 137.258C94.0809 137.042 94.7638 136.882 95.4308 136.769L95.08 136.954C94.8557 137.073 94.7301 137.221 94.7029 137.396C94.6764 137.572 94.756 137.72 94.9425 137.842L95.1718 137.992C94.5842 137.922 93.9795 137.925 93.3595 138.002C92.7391 138.079 92.0123 138.339 91.1772 138.782C90.4225 139.182 89.8719 139.625 89.5255 140.11C89.2216 140.535 89.0712 140.972 89.0722 141.42C89.0722 141.484 89.0729 143.164 89.0726 143.509C89.0726 143.573 89.0756 143.636 89.0817 143.7C89.1314 144.216 89.3638 144.743 89.7763 145.278C90.188 145.814 90.7862 146.338 91.5669 146.849C92.3478 147.361 93.1737 147.763 94.0448 148.055C94.9159 148.348 95.799 148.529 96.6963 148.596C97.5916 148.665 98.4702 148.617 99.3271 148.454C100.185 148.291 100.991 148.01 101.745 147.611C102.377 147.276 102.866 146.967 103.209 146.684C103.552 146.401 103.798 146.14 103.947 145.9C104.095 145.66 104.177 145.436 104.191 145.227C104.206 145.02 104.208 144.816 104.202 144.618C104.776 144.656 105.467 144.607 106.274 144.471C107.079 144.335 107.993 143.997 109.012 143.457C109.066 143.428 109.116 143.397 109.168 143.367C109.088 143.506 109.001 143.649 108.901 143.797ZM96.7565 141.789C97.6001 141.895 98.4399 142.22 99.2709 142.765C99.5741 142.963 99.8256 143.158 100.029 143.348C99.9117 143.432 99.7817 143.515 99.6306 143.595C98.916 143.973 98.1378 144.115 97.2925 144.019C96.4466 143.925 95.6074 143.604 94.7757 143.06C94.4637 142.855 94.2047 142.653 93.9989 142.454C94.1061 142.377 94.2231 142.302 94.3592 142.23C95.113 141.831 95.9126 141.683 96.7565 141.789ZM106.242 139.774C105.881 139.932 105.476 140.024 105.023 140.043C104.486 140.066 104.013 139.944 103.605 139.677L98.9994 136.66C99.4632 136.714 99.9236 136.788 100.379 136.897C101.478 137.159 102.556 137.563 103.613 138.109C104.115 138.366 104.617 138.659 105.117 138.987C105.522 139.252 105.892 139.514 106.242 139.774Z" fill="#4495F5"/>
<path opacity="0.2" d="M114.004 141.352C114.006 141.226 113.948 141.125 113.83 141.048C113.631 140.892 113.379 140.819 113.08 140.827C112.779 140.835 112.517 140.899 112.292 141.018L110.922 141.744C111.035 141.541 111.119 141.333 111.169 141.12C111.21 140.951 111.228 140.782 111.224 140.61C111.217 140.324 111.223 138.737 111.224 138.587C111.227 138.28 111.159 137.967 111.02 137.649C110.812 137.175 110.406 136.717 109.802 136.272C109.384 135.95 108.882 135.598 108.297 135.214C107.711 134.83 107.177 134.505 106.695 134.237C105.452 133.568 104.109 133.033 102.667 132.631C101.223 132.229 99.6711 132.035 98.0139 132.048C96.3567 132.062 94.5923 132.313 92.7208 132.803C90.8495 133.291 88.8745 134.087 86.7954 135.189C85.0218 136.129 83.6814 137.106 82.7773 138.118C81.8714 139.131 81.3232 140.131 81.1327 141.117C81.0738 141.422 81.0466 141.723 81.05 142.021C81.0541 142.356 81.0479 143.788 81.0486 144.075C81.05 144.753 81.2109 145.413 81.5315 146.056C81.9885 146.971 82.6922 147.8 83.6423 148.544C83.8424 148.699 84.133 148.907 84.5148 149.168C84.8942 149.43 85.3008 149.702 85.734 149.985C86.1672 150.269 86.5874 150.539 86.9965 150.795C87.4069 151.05 87.74 151.251 87.9972 151.396C89.1886 152.032 90.5385 152.529 92.045 152.887C93.5504 153.246 95.1368 153.421 96.8039 153.413C98.4689 153.405 100.191 153.186 101.97 152.757C103.747 152.327 105.523 151.643 107.297 150.703C108.723 149.947 109.863 149.232 110.716 148.559C111.569 147.885 112.227 147.255 112.693 146.666C113.159 146.077 113.474 145.517 113.642 144.986C113.808 144.455 113.928 143.96 113.999 143.499C114.003 143.477 114.004 143.456 114.004 143.435C114.005 143.311 114.004 141.371 114.004 141.352ZM108.901 143.797C108.718 144.064 108.459 144.358 108.119 144.679C107.778 144.999 107.337 145.345 106.795 145.713C106.25 146.082 105.561 146.488 104.725 146.931C103.543 147.557 102.343 148.027 101.125 148.341C99.9069 148.655 98.7118 148.825 97.5375 148.854C96.3656 148.883 95.2344 148.782 94.1472 148.554C93.0607 148.325 92.049 147.976 91.1119 147.507C90.8332 147.373 90.5024 147.187 90.1189 146.947C89.7354 146.708 89.3434 146.458 88.9443 146.196C88.5458 145.935 88.1691 145.682 87.8138 145.438C87.4589 145.193 87.1911 144.988 87.0118 144.822C86.3193 144.223 85.8286 143.588 85.5394 142.916C85.5064 142.839 85.4774 142.762 85.4505 142.686C85.6568 142.096 86.042 141.508 86.6092 140.922C87.266 140.241 88.1858 139.588 89.3679 138.961C90.774 138.215 92.111 137.648 93.3789 137.258C94.0809 137.042 94.7638 136.882 95.4308 136.769L95.08 136.954C94.8557 137.073 94.7301 137.221 94.7029 137.396C94.6764 137.572 94.756 137.72 94.9425 137.842L95.1718 137.992C94.5842 137.922 93.9795 137.925 93.3595 138.002C92.7391 138.079 92.0123 138.339 91.1772 138.782C90.4225 139.182 89.8719 139.625 89.5255 140.11C89.2216 140.535 89.0712 140.972 89.0722 141.42C89.0722 141.484 89.0729 143.164 89.0726 143.509C89.0726 143.573 89.0756 143.636 89.0817 143.7C89.1314 144.216 89.3638 144.743 89.7763 145.278C90.188 145.814 90.7862 146.338 91.5669 146.849C92.3478 147.361 93.1737 147.763 94.0448 148.055C94.9159 148.348 95.799 148.529 96.6963 148.596C97.5916 148.665 98.4702 148.617 99.3271 148.454C100.185 148.291 100.991 148.01 101.745 147.611C102.377 147.276 102.866 146.967 103.209 146.684C103.552 146.401 103.798 146.14 103.947 145.9C104.095 145.66 104.177 145.436 104.191 145.227C104.206 145.02 104.208 144.816 104.202 144.618C104.776 144.656 105.467 144.607 106.274 144.471C107.079 144.335 107.993 143.997 109.012 143.457C109.066 143.428 109.116 143.397 109.168 143.367C109.088 143.506 109.001 143.649 108.901 143.797ZM96.7565 141.789C97.6001 141.895 98.4399 142.22 99.2709 142.765C99.5741 142.963 99.8256 143.158 100.029 143.348C99.9117 143.432 99.7817 143.515 99.6306 143.595C98.916 143.973 98.1378 144.115 97.2925 144.019C96.4466 143.925 95.6074 143.604 94.7757 143.06C94.4637 142.855 94.2047 142.653 93.9989 142.454C94.1061 142.377 94.2231 142.302 94.3592 142.23C95.113 141.831 95.9126 141.683 96.7565 141.789ZM106.242 139.774C105.881 139.932 105.476 140.024 105.023 140.043C104.486 140.066 104.013 139.944 103.605 139.677L98.9994 136.66C99.4632 136.714 99.9236 136.788 100.379 136.897C101.478 137.159 102.556 137.563 103.613 138.109C104.115 138.366 104.617 138.659 105.117 138.987C105.522 139.252 105.892 139.514 106.242 139.774Z" fill="black"/>
<path opacity="0.1" d="M85.4496 142.686C85.6562 142.096 86.0411 141.508 86.608 140.922C87.2647 140.242 88.1849 139.588 89.3667 138.961C90.7727 138.216 92.1094 137.649 93.3776 137.258C94.0796 137.043 94.7626 136.883 95.4296 136.769L96.6689 136.113C96.8921 135.994 97.1545 135.935 97.4543 135.938C97.7517 135.941 97.9946 136.003 98.1811 136.125L98.9991 136.661C99.463 136.715 99.9234 136.789 100.379 136.898C101.478 137.159 102.556 137.564 103.612 138.11C104.115 138.367 104.617 138.659 105.117 138.987C105.522 139.252 105.892 139.514 106.242 139.775C106.308 139.746 106.376 139.719 106.439 139.686C106.846 139.469 107.084 139.208 107.151 138.901C107.216 138.594 106.998 138.252 106.496 137.875C106.078 137.553 105.618 137.228 105.117 136.9C104.617 136.572 104.115 136.28 103.612 136.023C102.556 135.476 101.478 135.072 100.379 134.81C99.2775 134.548 98.1515 134.446 97.0034 134.502C95.8532 134.558 94.6435 134.782 93.3776 135.171C92.1097 135.562 90.7727 136.129 89.3667 136.874C88.1849 137.501 87.2647 138.155 86.608 138.835C85.9502 139.515 85.5361 140.197 85.3632 140.882C85.1924 141.567 85.2499 142.245 85.5385 142.917C85.5054 142.84 85.4765 142.763 85.4496 142.686Z" fill="black"/>
<path opacity="0.1" d="M99.2712 140.678C98.4399 140.133 97.6004 139.808 96.7568 139.702C95.9129 139.596 95.1132 139.744 94.3595 140.143C93.6446 140.521 93.3291 140.965 93.4091 141.476C93.4591 141.797 93.6568 142.124 94.0022 142.457C94.0012 142.456 94.0002 142.456 93.9991 142.455C94.1063 142.378 94.2234 142.302 94.3595 142.23C95.1129 141.831 95.9126 141.684 96.7565 141.789C97.6 141.895 98.4399 142.22 99.2712 142.765C99.5744 142.964 99.8255 143.158 100.03 143.349C99.9725 143.389 99.9123 143.43 99.8486 143.47C100.448 143.103 100.719 142.697 100.654 142.254C100.58 141.76 100.121 141.234 99.2712 140.678Z" fill="black"/>
<path opacity="0.1" d="M96.6959 146.509C95.7985 146.441 94.9155 146.261 94.0444 145.968C93.1732 145.676 92.3474 145.273 91.5664 144.762C90.7858 144.25 90.1876 143.727 89.7758 143.191C89.3637 142.655 89.131 142.129 89.0813 141.613C89.0714 141.512 89.0752 141.411 89.0806 141.311C89.0786 141.347 89.0714 141.383 89.0714 141.42C89.0718 141.484 89.0721 143.164 89.0718 143.509C89.0718 143.573 89.0748 143.636 89.081 143.7C89.131 144.216 89.3634 144.743 89.7755 145.278C90.1872 145.814 90.7854 146.337 91.5661 146.849C92.347 147.361 93.1729 147.763 94.044 148.055C94.9152 148.348 95.7982 148.529 96.6955 148.596L96.6959 146.509Z" fill="black"/>
<path opacity="0.1" d="M104.201 142.531C104.207 142.728 104.205 142.932 104.19 143.14L104.201 144.618C104.775 144.656 105.466 144.607 106.273 144.471V142.383C105.467 142.519 104.775 142.569 104.201 142.531Z" fill="black"/>
<path opacity="0.1" d="M92.0447 150.8C90.5382 150.442 89.1883 149.944 87.9969 149.309C87.7394 149.164 87.4062 148.963 86.9962 148.707C86.5868 148.452 86.1666 148.182 85.7337 147.898C85.3005 147.614 84.8939 147.343 84.5145 147.081C84.1327 146.82 83.8421 146.612 83.642 146.456C82.6919 145.713 81.9882 144.884 81.5312 143.969C81.2086 143.322 81.051 142.657 81.0521 141.974C81.0521 141.99 81.05 142.006 81.05 142.022C81.0541 142.356 81.048 143.788 81.0487 144.075C81.05 144.753 81.211 145.414 81.5315 146.057C81.9885 146.972 82.6922 147.801 83.6423 148.544C83.8424 148.699 84.133 148.908 84.5148 149.169C84.8942 149.43 85.3009 149.702 85.734 149.986C86.1672 150.27 86.5875 150.54 86.9965 150.795C87.4069 151.051 87.74 151.252 87.9973 151.396C89.1886 152.032 90.5385 152.529 92.045 152.887C93.5504 153.246 95.1368 153.421 96.8039 153.413V151.326C95.1365 151.334 93.5501 151.159 92.0447 150.8Z" fill="black"/>
<path d="M109.803 136.273C110.407 136.717 110.813 137.176 111.021 137.649C111.227 138.124 111.277 138.585 111.17 139.034C111.063 139.482 110.819 139.909 110.438 140.311C110.058 140.714 109.581 141.067 109.011 141.37C107.992 141.91 107.078 142.248 106.273 142.383C105.466 142.52 104.775 142.569 104.201 142.531C104.207 142.728 104.205 142.932 104.19 143.14C104.176 143.348 104.095 143.573 103.946 143.813C103.797 144.053 103.551 144.314 103.208 144.597C102.865 144.879 102.376 145.188 101.744 145.523C100.99 145.923 100.184 146.204 99.3261 146.367C98.4692 146.529 97.5906 146.577 96.6953 146.509C95.798 146.441 94.9149 146.261 94.0438 145.968C93.1727 145.676 92.3468 145.273 91.5658 144.762C90.7852 144.25 90.187 143.727 89.7753 143.191C89.3632 142.655 89.1304 142.129 89.0807 141.613C89.03 141.097 89.177 140.596 89.5245 140.11C89.8705 139.625 90.4211 139.182 91.1759 138.782C92.0109 138.339 92.7378 138.08 93.3581 138.002C93.9781 137.925 94.5828 137.922 95.1705 137.992L94.9411 137.842C94.7547 137.72 94.675 137.571 94.7016 137.396C94.7291 137.221 94.8547 137.073 95.0786 136.955L96.6688 136.112C96.892 135.994 97.154 135.935 97.4542 135.937C97.7516 135.94 97.9945 136.003 98.181 136.125L103.605 139.677C104.012 139.944 104.486 140.066 105.022 140.043C105.559 140.02 106.031 139.901 106.439 139.685C106.846 139.469 107.084 139.207 107.15 138.9C107.216 138.594 106.997 138.252 106.496 137.874C106.078 137.552 105.618 137.227 105.117 136.899C104.616 136.571 104.115 136.279 103.612 136.022C102.555 135.476 101.478 135.071 100.378 134.81C99.2771 134.548 98.1511 134.445 97.0029 134.501C95.8524 134.558 94.6431 134.781 93.3772 135.17C92.1093 135.561 90.7723 136.128 89.3662 136.874C88.1844 137.5 87.2643 138.154 86.6075 138.834C85.9498 139.514 85.5356 140.197 85.3628 140.881C85.192 141.566 85.2495 142.244 85.538 142.916C85.8269 143.588 86.318 144.223 87.0104 144.822C87.1901 144.988 87.4576 145.193 87.8125 145.438C88.1674 145.683 88.5445 145.935 88.9429 146.196C89.3424 146.458 89.7344 146.708 90.1176 146.947C90.5011 147.187 90.8319 147.373 91.1106 147.507C92.0477 147.976 93.0597 148.326 94.1459 148.554C95.2331 148.783 96.3642 148.883 97.5362 148.854C98.7105 148.825 99.9056 148.655 101.123 148.341C102.341 148.028 103.542 147.557 104.724 146.931C105.56 146.488 106.249 146.082 106.794 145.713C107.336 145.345 107.777 145 108.118 144.679C108.457 144.358 108.717 144.064 108.9 143.797C109.081 143.53 109.229 143.276 109.341 143.035C109.43 142.828 109.51 142.669 109.583 142.56C109.656 142.451 109.804 142.336 110.029 142.218L112.291 141.019C112.516 140.9 112.778 140.836 113.079 140.828C113.379 140.819 113.63 140.893 113.829 141.048C113.965 141.137 114.022 141.258 113.998 141.412C113.927 141.872 113.807 142.368 113.641 142.899C113.473 143.429 113.158 143.99 112.692 144.578C112.226 145.167 111.568 145.798 110.715 146.471C109.862 147.144 108.722 147.86 107.296 148.616C105.522 149.556 103.746 150.24 101.969 150.67C100.19 151.099 98.4682 151.318 96.8032 151.326C95.1361 151.334 93.5497 151.159 92.0443 150.8C90.5378 150.442 89.1879 149.945 87.9966 149.309C87.739 149.164 87.4059 148.964 86.9958 148.708C86.5868 148.452 86.1665 148.182 85.7334 147.898C85.3002 147.615 84.8935 147.343 84.5144 147.081C84.1326 146.82 83.842 146.612 83.642 146.457C82.6919 145.713 81.9882 144.885 81.5312 143.969C81.0752 143.054 80.9421 142.104 81.1327 141.118C81.3229 140.132 81.8711 139.132 82.7773 138.119C83.6818 137.106 85.0222 136.13 86.7954 135.189C88.8749 134.087 90.8496 133.292 92.7208 132.803C94.5927 132.314 96.3567 132.063 98.0143 132.049C99.6715 132.036 101.224 132.23 102.667 132.632C104.11 133.033 105.452 133.569 106.695 134.238C107.177 134.505 107.711 134.831 108.297 135.215C108.883 135.598 109.385 135.951 109.803 136.273ZM94.7764 143.06C95.6081 143.605 96.4472 143.925 97.2932 144.02C98.1385 144.115 98.9164 143.974 99.6313 143.595C100.385 143.196 100.727 142.749 100.654 142.254C100.58 141.76 100.121 141.234 99.2716 140.678C98.4403 140.133 97.6008 139.808 96.7573 139.702C95.9133 139.596 95.1137 139.744 94.3599 140.143C93.6453 140.521 93.3296 140.965 93.4095 141.476C93.4888 141.988 93.9444 142.515 94.7764 143.06Z" fill="#4495F5"/>
<path d="M110.278 127V127.25C110.278 127.651 110.559 128.138 110.906 128.338L124.374 136.113C124.72 136.313 125.283 136.313 125.629 136.113L147.931 123.237C148.278 123.037 148.559 122.55 148.559 122.15V121.899C148.559 121.499 148.278 121.012 147.931 120.812L134.463 113.036C134.116 112.836 133.554 112.836 133.208 113.036L110.906 125.912C110.559 126.113 110.278 126.6 110.278 127Z" fill="#4495F5"/>
<path d="M110.278 127V127.25C110.278 127.651 110.559 128.138 110.906 128.338L124.374 136.113C124.72 136.313 125.283 136.313 125.629 136.113L147.931 123.237C148.278 123.037 148.559 122.55 148.559 122.15V121.899C148.559 121.499 148.278 121.012 147.931 120.812L134.463 113.036C134.116 112.836 133.554 112.836 133.208 113.036L110.906 125.912C110.559 126.113 110.278 126.6 110.278 127Z" fill="#4495F5"/>
<path opacity="0.2" d="M125.002 117.775L110.906 125.913C110.559 126.114 110.278 126.6 110.278 127.001V127.251C110.278 127.651 110.559 128.138 110.906 128.338L124.374 136.113C124.547 136.214 124.774 136.264 125.001 136.264H125.002V117.775Z" fill="black"/>
<path opacity="0.15" d="M125.002 117.775L110.906 125.913C110.559 126.114 110.278 126.6 110.278 127.001V127.251C110.278 127.651 110.559 128.138 110.906 128.338L124.374 136.113C124.547 136.214 124.774 136.264 125.001 136.264H125.002V117.775Z" fill="black"/>
<path opacity="0.2" d="M147.931 120.813L134.463 113.037C134.116 112.837 133.554 112.837 133.207 113.037L125.001 117.775V136.264C125.229 136.264 125.456 136.214 125.629 136.114L147.931 123.238C148.278 123.038 148.559 122.551 148.559 122.151V121.9C148.559 121.5 148.278 121.013 147.931 120.813Z" fill="black"/>
<path d="M122.218 133.168L110.906 126.638C110.559 126.438 110.559 126.113 110.906 125.913L133.208 113.037C133.555 112.837 134.117 112.837 134.464 113.037L147.931 120.812C148.278 121.012 148.278 121.337 147.931 121.537L144.232 123.673L142.937 124.421L125.63 134.413C125.283 134.613 124.721 134.613 124.374 134.413L123.277 133.78L122.218 133.168Z" fill="#4495F5"/>
<path opacity="0.15" d="M132.486 122.319L147.932 120.812L132.623 121.679L134.464 113.037C134.276 112.928 134.026 112.884 133.78 112.893L130.892 124.575L110.652 126.244C110.637 126.386 110.72 126.53 110.907 126.638L127.252 125.689L125.002 134.563L127.879 125.653L130.671 125.491C131.022 125.47 131.343 125.328 131.592 125.105L131.594 125.105L131.594 125.103C131.827 124.894 131.997 124.615 132.066 124.293L132.486 122.319Z" fill="black"/>
<path opacity="0.3" d="M115.48 125.846L130.891 124.575L131.443 122.367L131.748 121.138L133.782 112.893C133.573 112.901 133.368 112.945 133.208 113.037L122.057 119.475L110.907 125.913C110.747 126.005 110.664 126.124 110.652 126.245L113.743 125.99L115.48 125.846Z" fill="white"/>
</svg>
