<svg width="46" height="45" viewBox="0 0 46 45" fill="none" xmlns="http://www.w3.org/2000/svg">
<rect x="1.26221" y="0.637939" width="43.7241" height="43.7241" rx="7.46509" fill="url(#paint0_linear_132_949)"/>
<path d="M31.98 25.7902C32.2076 25.7902 32.4305 25.8093 32.6504 25.8374C31.444 24.4904 30.2286 24.388 29.8631 24.3023C28.7347 24.0382 27.3669 24.1506 26.6379 23.9233C26.5522 24.639 24.4711 26.9919 23.1077 28.4671L22.5162 26.1882C22.9607 25.9271 23.0575 25.3487 23.0575 24.868H20.8167C20.8167 25.345 20.9125 25.917 21.348 26.1822L20.7665 28.4668C19.4025 26.9916 17.3224 24.638 17.2367 23.9233C16.5073 24.1513 15.1406 24.0388 14.0115 24.3029C13.4377 24.4358 10.7739 24.6062 9.33217 29.5677C9.13702 30.2422 9.20564 30.9729 9.52364 31.5738C10.7053 33.8068 16.9167 34.4937 21.9378 34.4934C23.7584 34.4937 25.7351 34.4027 27.5721 34.1808C26.9756 33.3178 26.6241 32.2724 26.6241 31.146C26.6241 28.1929 29.0269 25.7902 31.98 25.7902Z" fill="white"/>
<path d="M16.0047 18.6428C16.536 20.0722 17.3768 21.4603 18.4168 22.4763C19.0053 23.0517 19.6574 23.5066 20.353 23.7824C20.8313 23.9719 21.3298 24.077 21.8426 24.077C22.3544 24.077 22.8538 23.9722 23.3315 23.7824C24.0508 23.4965 24.7257 23.0202 25.3295 22.4157C26.3441 21.4027 27.1636 20.036 27.6851 18.6311C28.0858 18.5133 28.5052 17.7628 28.6766 16.8041C28.8624 15.7641 28.6866 14.8569 28.286 14.7056C28.3004 14.4519 28.3094 14.1951 28.3087 13.9317C28.2994 10.1619 26.0887 7.97 22.6034 7.73668C19.5647 7.53283 17.2754 8.7399 16.2327 10.747C15.8819 11.4222 15.6814 12.2667 15.6047 13.1846C15.4879 13.6626 15.4189 14.159 15.4189 14.6721H15.4303C15.43 14.6765 15.4293 14.6802 15.4293 14.6842C15.4219 14.6852 15.4146 14.6855 15.4069 14.6869C14.9627 14.7642 14.7602 15.7125 14.955 16.8048C15.1337 17.8083 15.5866 18.5846 16.0047 18.6428ZM16.1051 15.834C16.1483 15.7062 16.2066 15.6061 16.2805 15.5532C16.3117 15.5304 16.3458 15.5157 16.382 15.5093C16.4647 15.4949 16.551 15.5267 16.6357 15.5947H16.6364C16.6367 15.588 16.637 15.5813 16.6377 15.5746C16.6668 15.2914 17.0448 12.8163 19.4271 13.0376C19.4271 13.0376 21.5162 13.8055 23.4162 13.1267C23.6207 13.122 23.8189 13.1206 24.0043 13.1277C24.792 13.1568 25.3306 13.5652 25.8943 13.8276C25.8732 13.5685 25.6747 13.3024 25.6844 13.1277C25.7751 13.1534 25.8571 13.1916 25.9354 13.2344C26.3425 13.6669 26.7358 14.3936 27.0481 15.5803C27.0488 15.5853 27.0488 15.5903 27.0494 15.5954C27.0501 15.5947 27.0508 15.5943 27.0521 15.5933C27.0521 15.594 27.0528 15.5947 27.0528 15.5947L27.0578 15.5893C27.1398 15.5247 27.2245 15.4949 27.3038 15.509C27.3249 15.5127 27.3443 15.519 27.3634 15.5277C27.6228 15.6496 27.7347 16.2561 27.6111 16.9484C27.5171 17.4793 27.3092 17.9161 27.0886 18.1032C26.9996 18.1779 26.9095 18.2123 26.8238 18.1973C26.775 18.1896 26.7311 18.1655 26.6913 18.1283C26.2099 19.6273 25.2911 21.1212 24.1319 22.0277C23.5273 22.501 22.8562 22.8157 22.1482 22.8866C22.0471 22.8967 21.9453 22.902 21.8426 22.902C21.0392 22.902 20.278 22.5837 19.5981 22.0629C18.4179 21.1597 17.4823 19.647 16.9942 18.1283C16.9544 18.1655 16.9105 18.1892 16.862 18.1973C16.7619 18.2147 16.6565 18.1648 16.5554 18.0641C16.3505 17.8592 16.1637 17.4455 16.075 16.9487C16.069 16.9159 16.0663 16.8844 16.0613 16.852C16.0663 16.5038 16.081 16.1671 16.1051 15.834Z" fill="white"/>
<path d="M31.9798 26.4597C29.3953 26.4597 27.2935 28.5615 27.2935 31.1461C27.2935 33.7306 29.3953 35.8324 31.9798 35.8324C34.5637 35.8324 36.6662 33.7306 36.6662 31.1461C36.6662 28.5615 34.5637 26.4597 31.9798 26.4597ZM34.1747 31.7111H32.6503V33.3413H31.315V31.7111H29.7849L29.7853 30.3758H31.315V28.9512H32.6503V30.3758H34.175L34.1747 31.7111Z" fill="white"/>
<defs>
<linearGradient id="paint0_linear_132_949" x1="23.1243" y1="0.637939" x2="23.1243" y2="44.3621" gradientUnits="userSpaceOnUse">
<stop stop-color="#4B9EFF"/>
<stop offset="1" stop-color="#014799"/>
</linearGradient>
</defs>
</svg>
