<svg width="50" height="50" viewBox="0 0 50 50" fill="none" xmlns="http://www.w3.org/2000/svg">
<rect y="0.157715" width="49.4312" height="49.4312" rx="8.43947" fill="white"/>
<path d="M25.8544 24.3394C25.1706 24.8745 24.4122 25.2302 23.6118 25.3104C24.4122 25.2298 25.171 24.8745 25.8544 24.3394Z" fill="white"/>
<path d="M25.8544 24.3394C25.1706 24.8745 24.4122 25.2302 23.6118 25.3104C24.4122 25.2298 25.171 24.8745 25.8544 24.3394Z" fill="url(#paint0_linear_294_1459)"/>
<path d="M28.8968 20.0084C28.8422 19.9997 28.7926 19.9727 28.7478 19.9309C28.7922 19.9727 28.8419 19.9997 28.8968 20.0084Z" fill="white"/>
<path d="M28.8968 20.0084C28.8422 19.9997 28.7926 19.9727 28.7478 19.9309C28.7922 19.9727 28.8419 19.9997 28.8968 20.0084Z" fill="url(#paint1_linear_294_1459)"/>
<path d="M17.2892 19.8582C17.4035 19.9721 17.5227 20.0285 17.6358 20.0088C17.6907 19.9998 17.7403 19.9729 17.7853 19.9309C18.3371 21.6478 19.3948 23.358 20.7291 24.379C21.4977 24.9678 22.3583 25.3277 23.2665 25.3277C23.3827 25.3277 23.4977 25.3216 23.612 25.3103C24.4124 25.2297 25.1708 24.8743 25.8546 24.3392C27.1651 23.3144 28.2035 21.6255 28.7481 19.9309C28.7927 19.9729 28.8431 20.0001 28.8979 20.0088C28.9948 20.0259 29.0966 19.9869 29.1973 19.9025C29.4459 19.691 29.6809 19.1971 29.788 18.5969C29.9277 17.8143 29.8013 17.1286 29.508 16.9909C29.4864 16.981 29.4645 16.9738 29.4406 16.9697C29.3509 16.9538 29.2552 16.9875 29.1625 17.0605L29.1568 17.0665C29.1568 17.0665 29.156 17.0658 29.156 17.065C29.1545 17.0662 29.1538 17.0665 29.153 17.0673C29.1522 17.0616 29.1522 17.0559 29.1515 17.0503C28.7977 15.7087 28.3538 14.8872 27.8936 14.3982C27.805 14.3498 27.7123 14.3066 27.6098 14.2775C27.5988 14.4751 27.8232 14.7759 27.847 15.0688C27.2098 14.7721 26.6009 14.3104 25.7104 14.2775C25.5008 14.2696 25.2767 14.2711 25.0455 14.2764C22.8975 15.0438 20.5358 14.1757 20.5358 14.1757C17.8425 13.9256 17.4152 16.7237 17.3823 17.0438C17.3815 17.0514 17.3812 17.059 17.3808 17.0665H17.38C17.2843 16.9897 17.1866 16.9538 17.0932 16.97C17.0523 16.9772 17.0137 16.9939 16.9785 17.0196C16.8949 17.0794 16.829 17.1926 16.7802 17.3371C16.753 17.7137 16.7363 18.0944 16.731 18.4879C16.7367 18.5246 16.7397 18.5602 16.7465 18.5973C16.8464 19.1589 17.0576 19.6266 17.2892 19.8582Z" fill="white"/>
<path d="M17.2892 19.8582C17.4035 19.9721 17.5227 20.0285 17.6358 20.0088C17.6907 19.9998 17.7403 19.9729 17.7853 19.9309C18.3371 21.6478 19.3948 23.358 20.7291 24.379C21.4977 24.9678 22.3583 25.3277 23.2665 25.3277C23.3827 25.3277 23.4977 25.3216 23.612 25.3103C24.4124 25.2297 25.1708 24.8743 25.8546 24.3392C27.1651 23.3144 28.2035 21.6255 28.7481 19.9309C28.7927 19.9729 28.8431 20.0001 28.8979 20.0088C28.9948 20.0259 29.0966 19.9869 29.1973 19.9025C29.4459 19.691 29.6809 19.1971 29.788 18.5969C29.9277 17.8143 29.8013 17.1286 29.508 16.9909C29.4864 16.981 29.4645 16.9738 29.4406 16.9697C29.3509 16.9538 29.2552 16.9875 29.1625 17.0605L29.1568 17.0665C29.1568 17.0665 29.156 17.0658 29.156 17.065C29.1545 17.0662 29.1538 17.0665 29.153 17.0673C29.1522 17.0616 29.1522 17.0559 29.1515 17.0503C28.7977 15.7087 28.3538 14.8872 27.8936 14.3982C27.805 14.3498 27.7123 14.3066 27.6098 14.2775C27.5988 14.4751 27.8232 14.7759 27.847 15.0688C27.2098 14.7721 26.6009 14.3104 25.7104 14.2775C25.5008 14.2696 25.2767 14.2711 25.0455 14.2764C22.8975 15.0438 20.5358 14.1757 20.5358 14.1757C17.8425 13.9256 17.4152 16.7237 17.3823 17.0438C17.3815 17.0514 17.3812 17.059 17.3808 17.0665H17.38C17.2843 16.9897 17.1866 16.9538 17.0932 16.97C17.0523 16.9772 17.0137 16.9939 16.9785 17.0196C16.8949 17.0794 16.829 17.1926 16.7802 17.3371C16.753 17.7137 16.7363 18.0944 16.731 18.4879C16.7367 18.5246 16.7397 18.5602 16.7465 18.5973C16.8464 19.1589 17.0576 19.6266 17.2892 19.8582Z" fill="white"/>
<path d="M34.7271 28.5929C34.9844 28.5929 35.2365 28.6145 35.4851 28.6463C34.1212 27.1235 32.7472 27.0077 32.3339 26.9108C31.0582 26.6122 29.512 26.7394 28.6877 26.4824C28.5909 27.2915 26.2382 29.9515 24.6968 31.6192L24.0281 29.0429C24.5307 28.7477 24.64 28.0938 24.64 27.5504H22.1068C22.1068 28.0896 22.2151 28.7364 22.7074 29.0361L22.0501 31.6189C20.508 29.9511 18.1564 27.2904 18.0595 26.4824C17.2349 26.7401 15.6898 26.613 14.4133 26.9116C13.7647 27.0618 10.7532 27.2544 9.12326 32.8635C8.90263 33.6261 8.98021 34.4522 9.33972 35.1315C10.6756 37.656 17.6977 38.4325 23.3742 38.4321C25.4325 38.4325 27.6671 38.3296 29.7439 38.0787C29.0696 37.1031 28.6722 35.9212 28.6722 34.6478C28.6722 31.3093 31.3886 28.5929 34.7271 28.5929Z" fill="white"/>
<path d="M34.7271 28.5929C34.9844 28.5929 35.2365 28.6145 35.4851 28.6463C34.1212 27.1235 32.7472 27.0077 32.3339 26.9108C31.0582 26.6122 29.512 26.7394 28.6877 26.4824C28.5909 27.2915 26.2382 29.9515 24.6968 31.6192L24.0281 29.0429C24.5307 28.7477 24.64 28.0938 24.64 27.5504H22.1068C22.1068 28.0896 22.2151 28.7364 22.7074 29.0361L22.0501 31.6189C20.508 29.9511 18.1564 27.2904 18.0595 26.4824C17.2349 26.7401 15.6898 26.613 14.4133 26.9116C13.7647 27.0618 10.7532 27.2544 9.12326 32.8635C8.90263 33.6261 8.98021 34.4522 9.33972 35.1315C10.6756 37.656 17.6977 38.4325 23.3742 38.4321C25.4325 38.4325 27.6671 38.3296 29.7439 38.0787C29.0696 37.1031 28.6722 35.9212 28.6722 34.6478C28.6722 31.3093 31.3886 28.5929 34.7271 28.5929Z" fill="url(#paint2_linear_294_1459)"/>
<path d="M16.6664 20.5126C17.2669 22.1285 18.2175 23.6979 19.3933 24.8464C20.0586 25.4969 20.7958 26.0112 21.5822 26.323C22.123 26.5372 22.6864 26.656 23.2662 26.656C23.8448 26.656 24.4094 26.5376 24.9495 26.323C25.7627 25.9998 26.5256 25.4613 27.2083 24.7779C28.3553 23.6328 29.2817 22.0876 29.8713 20.4994C30.3243 20.3662 30.7985 19.5177 30.9922 18.4339C31.2023 17.2581 31.0036 16.2326 30.5506 16.0615C30.5669 15.7747 30.5771 15.4844 30.5763 15.1866C30.5657 10.9247 28.0666 8.44672 24.1264 8.18296C20.691 7.95249 18.1029 9.31711 16.9241 11.5862C16.5275 12.3495 16.3008 13.3043 16.2141 14.3419C16.0821 14.8823 16.0041 15.4435 16.0041 16.0237H16.017C16.0166 16.0286 16.0158 16.0327 16.0158 16.0373C16.0075 16.0384 15.9992 16.0388 15.9905 16.0403C15.4883 16.1277 15.2594 17.1998 15.4796 18.4346C15.6817 19.5692 16.1937 20.4468 16.6664 20.5126ZM16.7799 17.3372C16.8287 17.1926 16.8946 17.0795 16.9782 17.0197C17.0134 16.994 17.052 16.9773 17.0929 16.9701C17.1863 16.9538 17.284 16.9898 17.3797 17.0666H17.3805C17.3808 17.059 17.3812 17.0515 17.382 17.0439C17.4149 16.7238 17.8421 13.9256 20.5354 14.1758C20.5354 14.1758 22.8972 15.0439 25.0452 14.2764C25.2764 14.2711 25.5004 14.2696 25.7101 14.2776C26.6005 14.3105 27.2094 14.7722 27.8467 15.0689C27.8229 14.776 27.5985 14.4751 27.6094 14.2776C27.712 14.3067 27.8047 14.3499 27.8933 14.3983C28.3534 14.8872 28.7981 15.7088 29.1512 17.0503C29.1519 17.056 29.1519 17.0617 29.1527 17.0674C29.1534 17.0666 29.1542 17.0662 29.1557 17.0651C29.1557 17.0659 29.1565 17.0666 29.1565 17.0666L29.1621 17.0606C29.2549 16.9875 29.3506 16.9538 29.4403 16.9697C29.4641 16.9739 29.4861 16.9811 29.5076 16.9909C29.8009 17.1287 29.9273 17.8144 29.7877 18.597C29.6813 19.1972 29.4463 19.691 29.197 19.9026C29.0963 19.987 28.9945 20.0259 28.8976 20.0089C28.8424 20.0002 28.7928 19.973 28.7478 19.931C28.2036 21.6256 27.1648 23.3145 25.8543 24.3393C25.1708 24.8744 24.4121 25.2301 23.6117 25.3103C23.4974 25.3217 23.3824 25.3278 23.2662 25.3278C22.358 25.3278 21.4974 24.9679 20.7288 24.379C19.3945 23.358 18.3368 21.6479 17.785 19.931C17.74 19.973 17.6904 19.9998 17.6355 20.0089C17.5224 20.0286 17.4032 19.9722 17.2889 19.8583C17.0573 19.6267 16.8461 19.159 16.7458 18.5974C16.739 18.5603 16.736 18.5247 16.7303 18.488C16.736 18.0944 16.7526 17.7137 16.7799 17.3372Z" fill="white"/>
<path d="M16.6664 20.5126C17.2669 22.1285 18.2175 23.6979 19.3933 24.8464C20.0586 25.4969 20.7958 26.0112 21.5822 26.323C22.123 26.5372 22.6864 26.656 23.2662 26.656C23.8448 26.656 24.4094 26.5376 24.9495 26.323C25.7627 25.9998 26.5256 25.4613 27.2083 24.7779C28.3553 23.6328 29.2817 22.0876 29.8713 20.4994C30.3243 20.3662 30.7985 19.5177 30.9922 18.4339C31.2023 17.2581 31.0036 16.2326 30.5506 16.0615C30.5669 15.7747 30.5771 15.4844 30.5763 15.1866C30.5657 10.9247 28.0666 8.44672 24.1264 8.18296C20.691 7.95249 18.1029 9.31711 16.9241 11.5862C16.5275 12.3495 16.3008 13.3043 16.2141 14.3419C16.0821 14.8823 16.0041 15.4435 16.0041 16.0237H16.017C16.0166 16.0286 16.0158 16.0327 16.0158 16.0373C16.0075 16.0384 15.9992 16.0388 15.9905 16.0403C15.4883 16.1277 15.2594 17.1998 15.4796 18.4346C15.6817 19.5692 16.1937 20.4468 16.6664 20.5126ZM16.7799 17.3372C16.8287 17.1926 16.8946 17.0795 16.9782 17.0197C17.0134 16.994 17.052 16.9773 17.0929 16.9701C17.1863 16.9538 17.284 16.9898 17.3797 17.0666H17.3805C17.3808 17.059 17.3812 17.0515 17.382 17.0439C17.4149 16.7238 17.8421 13.9256 20.5354 14.1758C20.5354 14.1758 22.8972 15.0439 25.0452 14.2764C25.2764 14.2711 25.5004 14.2696 25.7101 14.2776C26.6005 14.3105 27.2094 14.7722 27.8467 15.0689C27.8229 14.776 27.5985 14.4751 27.6094 14.2776C27.712 14.3067 27.8047 14.3499 27.8933 14.3983C28.3534 14.8872 28.7981 15.7088 29.1512 17.0503C29.1519 17.056 29.1519 17.0617 29.1527 17.0674C29.1534 17.0666 29.1542 17.0662 29.1557 17.0651C29.1557 17.0659 29.1565 17.0666 29.1565 17.0666L29.1621 17.0606C29.2549 16.9875 29.3506 16.9538 29.4403 16.9697C29.4641 16.9739 29.4861 16.9811 29.5076 16.9909C29.8009 17.1287 29.9273 17.8144 29.7877 18.597C29.6813 19.1972 29.4463 19.691 29.197 19.9026C29.0963 19.987 28.9945 20.0259 28.8976 20.0089C28.8424 20.0002 28.7928 19.973 28.7478 19.931C28.2036 21.6256 27.1648 23.3145 25.8543 24.3393C25.1708 24.8744 24.4121 25.2301 23.6117 25.3103C23.4974 25.3217 23.3824 25.3278 23.2662 25.3278C22.358 25.3278 21.4974 24.9679 20.7288 24.379C19.3945 23.358 18.3368 21.6479 17.785 19.931C17.74 19.973 17.6904 19.9998 17.6355 20.0089C17.5224 20.0286 17.4032 19.9722 17.2889 19.8583C17.0573 19.6267 16.8461 19.159 16.7458 18.5974C16.739 18.5603 16.736 18.5247 16.7303 18.488C16.736 18.0944 16.7526 17.7137 16.7799 17.3372Z" fill="url(#paint3_linear_294_1459)"/>
<path d="M34.7268 29.3499C31.8049 29.3499 29.4287 31.726 29.4287 34.6479C29.4287 37.5697 31.8049 39.9459 34.7268 39.9459C37.6479 39.9459 40.0248 37.5697 40.0248 34.6479C40.0248 31.726 37.6479 29.3499 34.7268 29.3499ZM37.2081 35.2867H35.4848V37.1296H33.9752V35.2867H32.2454L32.2458 33.7771H33.9752V32.1665H35.4848V33.7771H37.2085L37.2081 35.2867Z" fill="white"/>
<path d="M34.7268 29.3499C31.8049 29.3499 29.4287 31.726 29.4287 34.6479C29.4287 37.5697 31.8049 39.9459 34.7268 39.9459C37.6479 39.9459 40.0248 37.5697 40.0248 34.6479C40.0248 31.726 37.6479 29.3499 34.7268 29.3499ZM37.2081 35.2867H35.4848V37.1296H33.9752V35.2867H32.2454L32.2458 33.7771H33.9752V32.1665H35.4848V33.7771H37.2085L37.2081 35.2867Z" fill="url(#paint4_linear_294_1459)"/>
<defs>
<linearGradient id="paint0_linear_294_1459" x1="24.7331" y1="24.3394" x2="24.7331" y2="25.3104" gradientUnits="userSpaceOnUse">
<stop stop-color="#4B9EFF"/>
<stop offset="1" stop-color="#014799"/>
</linearGradient>
<linearGradient id="paint1_linear_294_1459" x1="28.8223" y1="19.9309" x2="28.8223" y2="20.0084" gradientUnits="userSpaceOnUse">
<stop stop-color="#4B9EFF"/>
<stop offset="1" stop-color="#014799"/>
</linearGradient>
<linearGradient id="paint2_linear_294_1459" x1="22.2426" y1="26.4824" x2="22.2426" y2="38.4321" gradientUnits="userSpaceOnUse">
<stop stop-color="#4B9EFF"/>
<stop offset="1" stop-color="#014799"/>
</linearGradient>
<linearGradient id="paint3_linear_294_1459" x1="23.2359" y1="8.15771" x2="23.2359" y2="26.656" gradientUnits="userSpaceOnUse">
<stop stop-color="#4B9EFF"/>
<stop offset="1" stop-color="#014799"/>
</linearGradient>
<linearGradient id="paint4_linear_294_1459" x1="34.7268" y1="29.3499" x2="34.7268" y2="39.9459" gradientUnits="userSpaceOnUse">
<stop stop-color="#4B9EFF"/>
<stop offset="1" stop-color="#014799"/>
</linearGradient>
</defs>
</svg>
