<svg width="50" height="51" viewBox="0 0 50 51" fill="none" xmlns="http://www.w3.org/2000/svg">
<rect y="0.76001" width="49.4312" height="49.4312" rx="8.43947" fill="white"/>
<path d="M32.5761 9.76001H27.664H24.873H17.0898C12.6289 9.76001 9 13.3892 9 17.8496V33.3355C9 37.7958 12.6289 41.4249 17.0898 41.4249H32.5761C37.036 41.4249 40.665 37.7958 40.665 33.3355V25.2311V22.3936V17.8496C40.665 13.3892 37.036 9.76001 32.5761 9.76001ZM19.3462 36.4592C18.8189 36.8593 18.1498 37.0595 17.3392 37.0595C16.3358 37.0595 15.5112 36.7168 14.8657 36.0313C14.2195 35.3461 13.8968 34.409 13.8968 33.2201C13.8968 31.9627 14.2213 30.9862 14.8707 30.2902C15.5199 29.5946 16.3737 29.2467 17.432 29.2467C18.356 29.2467 19.1067 29.5199 19.684 30.0662C20.0274 30.3892 20.285 30.853 20.4569 31.4576L18.9472 31.8184C18.8578 31.4266 18.6713 31.1174 18.3877 30.8907C18.1045 30.6639 17.7599 30.5506 17.3545 30.5506C16.7946 30.5506 16.3403 30.7515 15.9915 31.1535C15.6428 31.5556 15.4683 32.2067 15.4683 33.1067C15.4683 34.062 15.6403 34.7423 15.9838 35.1475C16.3272 35.553 16.7741 35.7557 17.3236 35.7557C17.7289 35.7557 18.0777 35.6268 18.3699 35.3691C18.6618 35.1115 18.8713 34.7062 18.9987 34.1529L20.4776 34.6218C20.2509 35.4464 19.8741 36.0589 19.3462 36.4592ZM27.1825 35.9463C26.9417 36.3244 26.6016 36.6051 26.1621 36.7891C25.7221 36.9727 25.1742 37.0646 24.5179 37.0646C23.5627 37.0646 22.8292 36.8439 22.3176 36.4023C21.8055 35.961 21.4997 35.3176 21.4002 34.4724L22.8845 34.3281C22.9736 34.8264 23.1549 35.1922 23.4279 35.4258C23.7012 35.6596 24.0699 35.7763 24.5337 35.7763C25.0247 35.7763 25.3948 35.6724 25.6439 35.4644C25.8934 35.2566 26.0179 35.0136 26.0179 34.7352C26.0179 34.5567 25.9655 34.4046 25.8604 34.279C25.7556 34.1537 25.5725 34.0447 25.3115 33.9519C25.1331 33.8901 24.7258 33.7801 24.0904 33.622C23.2724 33.4195 22.699 33.1704 22.3692 32.8748C21.9053 32.4593 21.6731 31.9523 21.6731 31.3545C21.6731 30.9699 21.7825 30.6098 22.0006 30.275C22.2187 29.9398 22.5332 29.6848 22.9434 29.5095C23.354 29.3344 23.8496 29.2467 24.4306 29.2467C25.3788 29.2467 26.0925 29.4547 26.5715 29.8703C27.0509 30.2861 27.3024 30.8411 27.3268 31.5349L25.8013 31.6019C25.7358 31.2137 25.596 30.9345 25.3811 30.7643C25.1665 30.5945 24.8444 30.5094 24.4149 30.5094C23.9716 30.5094 23.6245 30.6005 23.3738 30.7825C23.2123 30.8994 23.1319 31.0556 23.1319 31.2515C23.1319 31.4302 23.2073 31.5832 23.3586 31.7102C23.5507 31.8718 24.0182 32.04 24.7604 32.2151C25.5026 32.3904 26.0512 32.5716 26.4066 32.7589C26.7623 32.9461 27.0406 33.2021 27.2415 33.5266C27.4427 33.8515 27.5433 34.2527 27.5433 34.7301C27.5433 35.163 27.4229 35.5685 27.1825 35.9463ZM32.3822 36.9306H30.7537L28.0532 29.3756H29.7078L31.6195 34.9672L33.4698 29.3756H35.088L32.3822 36.9306ZM38.3538 23.8262C37.2545 24.2969 36.0458 24.5583 34.7769 24.5583C29.7526 24.5583 25.6654 20.4709 25.6654 15.447C25.6654 14.2549 25.8962 13.1158 26.3143 12.0713H32.5761C35.7613 12.0713 38.3538 14.6635 38.3538 17.8496V23.8262Z" fill="white"/>
<path d="M32.5761 9.76001H27.664H24.873H17.0898C12.6289 9.76001 9 13.3892 9 17.8496V33.3355C9 37.7958 12.6289 41.4249 17.0898 41.4249H32.5761C37.036 41.4249 40.665 37.7958 40.665 33.3355V25.2311V22.3936V17.8496C40.665 13.3892 37.036 9.76001 32.5761 9.76001ZM19.3462 36.4592C18.8189 36.8593 18.1498 37.0595 17.3392 37.0595C16.3358 37.0595 15.5112 36.7168 14.8657 36.0313C14.2195 35.3461 13.8968 34.409 13.8968 33.2201C13.8968 31.9627 14.2213 30.9862 14.8707 30.2902C15.5199 29.5946 16.3737 29.2467 17.432 29.2467C18.356 29.2467 19.1067 29.5199 19.684 30.0662C20.0274 30.3892 20.285 30.853 20.4569 31.4576L18.9472 31.8184C18.8578 31.4266 18.6713 31.1174 18.3877 30.8907C18.1045 30.6639 17.7599 30.5506 17.3545 30.5506C16.7946 30.5506 16.3403 30.7515 15.9915 31.1535C15.6428 31.5556 15.4683 32.2067 15.4683 33.1067C15.4683 34.062 15.6403 34.7423 15.9838 35.1475C16.3272 35.553 16.7741 35.7557 17.3236 35.7557C17.7289 35.7557 18.0777 35.6268 18.3699 35.3691C18.6618 35.1115 18.8713 34.7062 18.9987 34.1529L20.4776 34.6218C20.2509 35.4464 19.8741 36.0589 19.3462 36.4592ZM27.1825 35.9463C26.9417 36.3244 26.6016 36.6051 26.1621 36.7891C25.7221 36.9727 25.1742 37.0646 24.5179 37.0646C23.5627 37.0646 22.8292 36.8439 22.3176 36.4023C21.8055 35.961 21.4997 35.3176 21.4002 34.4724L22.8845 34.3281C22.9736 34.8264 23.1549 35.1922 23.4279 35.4258C23.7012 35.6596 24.0699 35.7763 24.5337 35.7763C25.0247 35.7763 25.3948 35.6724 25.6439 35.4644C25.8934 35.2566 26.0179 35.0136 26.0179 34.7352C26.0179 34.5567 25.9655 34.4046 25.8604 34.279C25.7556 34.1537 25.5725 34.0447 25.3115 33.9519C25.1331 33.8901 24.7258 33.7801 24.0904 33.622C23.2724 33.4195 22.699 33.1704 22.3692 32.8748C21.9053 32.4593 21.6731 31.9523 21.6731 31.3545C21.6731 30.9699 21.7825 30.6098 22.0006 30.275C22.2187 29.9398 22.5332 29.6848 22.9434 29.5095C23.354 29.3344 23.8496 29.2467 24.4306 29.2467C25.3788 29.2467 26.0925 29.4547 26.5715 29.8703C27.0509 30.2861 27.3024 30.8411 27.3268 31.5349L25.8013 31.6019C25.7358 31.2137 25.596 30.9345 25.3811 30.7643C25.1665 30.5945 24.8444 30.5094 24.4149 30.5094C23.9716 30.5094 23.6245 30.6005 23.3738 30.7825C23.2123 30.8994 23.1319 31.0556 23.1319 31.2515C23.1319 31.4302 23.2073 31.5832 23.3586 31.7102C23.5507 31.8718 24.0182 32.04 24.7604 32.2151C25.5026 32.3904 26.0512 32.5716 26.4066 32.7589C26.7623 32.9461 27.0406 33.2021 27.2415 33.5266C27.4427 33.8515 27.5433 34.2527 27.5433 34.7301C27.5433 35.163 27.4229 35.5685 27.1825 35.9463ZM32.3822 36.9306H30.7537L28.0532 29.3756H29.7078L31.6195 34.9672L33.4698 29.3756H35.088L32.3822 36.9306ZM38.3538 23.8262C37.2545 24.2969 36.0458 24.5583 34.7769 24.5583C29.7526 24.5583 25.6654 20.4709 25.6654 15.447C25.6654 14.2549 25.8962 13.1158 26.3143 12.0713H32.5761C35.7613 12.0713 38.3538 14.6635 38.3538 17.8496V23.8262Z" fill="url(#paint0_linear_294_1460)"/>
<defs>
<linearGradient id="paint0_linear_294_1460" x1="24.8325" y1="9.76001" x2="24.8325" y2="41.4249" gradientUnits="userSpaceOnUse">
<stop stop-color="#4B9EFF"/>
<stop offset="1" stop-color="#014799"/>
</linearGradient>
</defs>
</svg>
