<svg width="46" height="45" viewBox="0 0 46 45" fill="none" xmlns="http://www.w3.org/2000/svg">
<g clip-path="url(#clip0_132_960)">
<rect x="1.1958" y="0.571533" width="43.8569" height="43.8569" rx="7.48777" fill="url(#paint0_linear_132_960)"/>
<path d="M30.0986 8.55664H25.7404H23.2642H16.3587C12.4009 8.55664 9.18115 11.7765 9.18115 15.734V29.4736C9.18115 33.431 12.4009 36.6508 16.3587 36.6508H30.0986C34.0556 36.6508 37.2753 33.431 37.2753 29.4736V22.2831V19.7655V15.734C37.2753 11.7765 34.0556 8.55664 30.0986 8.55664ZM18.3606 32.245C17.8928 32.6 17.2992 32.7776 16.58 32.7776C15.6897 32.7776 14.9581 32.4736 14.3854 31.8653C13.8121 31.2574 13.5257 30.426 13.5257 29.3712C13.5257 28.2556 13.8137 27.3892 14.3898 26.7717C14.9659 26.1546 15.7234 25.8459 16.6623 25.8459C17.4821 25.8459 18.1482 26.0883 18.6604 26.573C18.965 26.8595 19.1936 27.271 19.3461 27.8075L18.0066 28.1275C17.9273 27.78 17.7619 27.5056 17.5103 27.3045C17.2589 27.1033 16.9532 27.0027 16.5935 27.0027C16.0968 27.0027 15.6937 27.181 15.3843 27.5376C15.0749 27.8944 14.92 28.4721 14.92 29.2706C14.92 30.1182 15.0726 30.7217 15.3774 31.0813C15.6821 31.441 16.0786 31.6209 16.5661 31.6209C16.9257 31.6209 17.2352 31.5065 17.4945 31.2779C17.7534 31.0493 17.9393 30.6897 18.0523 30.1988L19.3645 30.6149C19.1633 31.3465 18.829 31.8899 18.3606 32.245ZM25.3132 31.79C25.0996 32.1254 24.7979 32.3745 24.4079 32.5377C24.0176 32.7006 23.5315 32.7822 22.9492 32.7822C22.1016 32.7822 21.4509 32.5863 20.997 32.1945C20.5426 31.803 20.2713 31.2322 20.183 30.4823L21.4999 30.3543C21.579 30.7964 21.7399 31.1209 21.9821 31.3282C22.2245 31.5356 22.5517 31.6391 22.9631 31.6391C23.3988 31.6391 23.7271 31.5469 23.9482 31.3624C24.1695 31.178 24.28 30.9624 24.28 30.7155C24.28 30.5571 24.2335 30.4221 24.1403 30.3107C24.0473 30.1995 23.8848 30.1028 23.6533 30.0205C23.495 29.9656 23.1336 29.8681 22.5698 29.7278C21.8441 29.5481 21.3354 29.3271 21.0427 29.0649C20.6312 28.6962 20.4252 28.2464 20.4252 27.716C20.4252 27.3747 20.5222 27.0552 20.7157 26.7582C20.9092 26.4608 21.1883 26.2345 21.5522 26.079C21.9165 25.9237 22.3562 25.8459 22.8717 25.8459C23.713 25.8459 24.3462 26.0305 24.7712 26.3992C25.1965 26.768 25.4197 27.2604 25.4413 27.876L24.0878 27.9355C24.0297 27.5911 23.9057 27.3434 23.715 27.1923C23.5246 27.0417 23.2388 26.9661 22.8578 26.9661C22.4645 26.9661 22.1564 27.047 21.934 27.2084C21.7908 27.3122 21.7195 27.4508 21.7195 27.6246C21.7195 27.7831 21.7864 27.9189 21.9205 28.0316C22.091 28.1749 22.5058 28.3241 23.1643 28.4795C23.8228 28.635 24.3096 28.7958 24.6248 28.962C24.9405 29.1281 25.1874 29.3553 25.3656 29.6432C25.5441 29.9314 25.6334 30.2873 25.6334 30.7109C25.6334 31.095 25.5265 31.4548 25.3132 31.79ZM29.9266 32.6633H28.4817L26.0857 25.9602H27.5538L29.2499 30.9212L30.8916 25.9602H32.3273L29.9266 32.6633ZM35.2248 21.0367C34.2494 21.4542 33.177 21.6862 32.0512 21.6862C27.5936 21.6862 23.9672 18.0597 23.9672 13.6023C23.9672 12.5447 24.172 11.534 24.5429 10.6073H30.0986C32.9246 10.6073 35.2248 12.9072 35.2248 15.734V21.0367Z" fill="white"/>
</g>
<defs>
<linearGradient id="paint0_linear_132_960" x1="23.1243" y1="0.571533" x2="23.1243" y2="44.4285" gradientUnits="userSpaceOnUse">
<stop stop-color="#4B9EFF"/>
<stop offset="1" stop-color="#014799"/>
</linearGradient>
<clipPath id="clip0_132_960">
<rect width="45" height="45" fill="white" transform="translate(0.624512)"/>
</clipPath>
</defs>
</svg>
