<svg width="59" height="57" viewBox="0 0 59 57" fill="none" xmlns="http://www.w3.org/2000/svg">
<rect x="0.792969" y="0.79541" width="58.019" height="55.4169" rx="10.4173" fill="white"/>
<rect x="0.792969" y="0.79541" width="58.019" height="55.4169" rx="10.4173" fill="url(#paint0_linear_273_1401)"/>
<path d="M42.4263 33.4924C42.709 33.4924 42.9859 33.5161 43.259 33.551C41.7607 31.8781 40.2511 31.7509 39.7971 31.6444C38.3957 31.3164 36.697 31.4561 35.7915 31.1738C35.685 32.0627 33.1004 34.9849 31.407 36.8171L30.6724 33.9867C31.2245 33.6625 31.3447 32.9441 31.3447 32.3471H28.5617C28.5617 32.9395 28.6806 33.65 29.2215 33.9793L28.4993 36.8167C26.8052 34.9845 24.2218 32.0614 24.1153 31.1738C23.2094 31.4569 21.512 31.3173 20.1097 31.6453C19.3971 31.8103 16.0886 32.0219 14.298 38.1841C14.0556 39.0218 14.1409 39.9294 14.5358 40.6756C16.0034 43.449 23.7179 44.3021 29.954 44.3017C32.2152 44.3021 34.6702 44.1891 36.9518 43.9134C36.2109 42.8416 35.7744 41.5433 35.7744 40.1443C35.7744 36.4766 38.7586 33.4924 42.4263 33.4924Z" fill="white"/>
<path d="M22.5853 24.6155C23.2451 26.3907 24.2894 28.1148 25.5811 29.3766C26.312 30.0912 27.1219 30.6562 27.9858 30.9988C28.5799 31.2341 29.1989 31.3647 29.8358 31.3647C30.4715 31.3647 31.0918 31.2345 31.685 30.9988C32.5785 30.6438 33.4166 30.0522 34.1666 29.3013C35.4267 28.0433 36.4445 26.3458 37.0922 24.601C37.5898 24.4546 38.1107 23.5225 38.3236 22.3318C38.5543 21.0401 38.3361 19.9135 37.8384 19.7255C37.8563 19.4104 37.8675 19.0915 37.8667 18.7644C37.8551 14.0823 35.1095 11.36 30.7808 11.0702C27.0067 10.817 24.1634 12.3162 22.8684 14.809C22.4327 15.6475 22.1837 16.6964 22.0885 17.8364C21.9434 18.4301 21.8577 19.0466 21.8577 19.684H21.8719C21.8714 19.6894 21.8706 19.694 21.8706 19.6989C21.8615 19.7002 21.8523 19.7006 21.8428 19.7023C21.2911 19.7983 21.0395 20.9761 21.2815 22.3327C21.5035 23.5791 22.066 24.5432 22.5853 24.6155ZM22.71 21.127C22.7636 20.9682 22.836 20.8439 22.9278 20.7782C22.9665 20.7499 23.0089 20.7316 23.0538 20.7237C23.1565 20.7059 23.2638 20.7454 23.3689 20.8298H23.3698C23.3702 20.8214 23.3706 20.8131 23.3714 20.8048C23.4076 20.4531 23.877 17.3791 26.8358 17.6539C26.8358 17.6539 29.4305 18.6076 31.7902 17.7645C32.0442 17.7587 32.2904 17.757 32.5207 17.7657C33.4989 17.8019 34.1679 18.3091 34.868 18.6351C34.8418 18.3133 34.5952 17.9828 34.6073 17.7657C34.72 17.7978 34.8218 17.8451 34.9191 17.8984C35.4246 18.4355 35.9131 19.3381 36.301 20.8119C36.3019 20.8181 36.3019 20.8244 36.3027 20.8306C36.3035 20.8298 36.3043 20.8293 36.306 20.8281C36.306 20.8289 36.3068 20.8298 36.3068 20.8298L36.3131 20.8231C36.4149 20.7429 36.5201 20.7059 36.6187 20.7233C36.6448 20.7279 36.669 20.7358 36.6927 20.7466C37.0149 20.8979 37.1537 21.6513 37.0003 22.511C36.8835 23.1704 36.6253 23.7129 36.3513 23.9453C36.2407 24.038 36.1289 24.0809 36.0225 24.0622C35.9618 24.0526 35.9073 24.0227 35.8578 23.9765C35.26 25.8382 34.1188 27.6937 32.6791 28.8195C31.9282 29.4074 31.0947 29.7981 30.2154 29.8863C30.0898 29.8988 29.9635 29.9054 29.8358 29.9054C28.838 29.9054 27.8926 29.51 27.0483 28.8631C25.5824 27.7415 24.4204 25.8627 23.8142 23.9765C23.7647 24.0227 23.7103 24.0522 23.65 24.0622C23.5257 24.0838 23.3947 24.0218 23.2692 23.8967C23.0147 23.6423 22.7828 23.1284 22.6726 22.5114C22.6651 22.4707 22.6618 22.4316 22.6555 22.3913C22.6618 21.9589 22.6801 21.5407 22.71 21.127Z" fill="white"/>
<path d="M42.4259 34.3237C39.2159 34.3237 36.6055 36.9342 36.6055 40.1441C36.6055 43.3541 39.2159 45.9645 42.4259 45.9645C45.635 45.9645 48.2463 43.3541 48.2463 40.1441C48.2463 36.9342 45.635 34.3237 42.4259 34.3237ZM45.1519 40.8459H43.2586V42.8706H41.6002V40.8459H39.6998L39.7003 39.1875H41.6002V37.4181H43.2586V39.1875H45.1523L45.1519 40.8459Z" fill="#135BB1"/>
<path d="M42.4259 34.3237C39.2159 34.3237 36.6055 36.9342 36.6055 40.1441C36.6055 43.3541 39.2159 45.9645 42.4259 45.9645C45.635 45.9645 48.2463 43.3541 48.2463 40.1441C48.2463 36.9342 45.635 34.3237 42.4259 34.3237ZM45.1519 40.8459H43.2586V42.8706H41.6002V40.8459H39.6998L39.7003 39.1875H41.6002V37.4181H43.2586V39.1875H45.1523L45.1519 40.8459Z" fill="white"/>
<defs>
<linearGradient id="paint0_linear_273_1401" x1="29.8025" y1="0.79541" x2="29.8025" y2="56.2123" gradientUnits="userSpaceOnUse">
<stop stop-color="#4B9EFF"/>
<stop offset="1" stop-color="#014799"/>
</linearGradient>
</defs>
</svg>
