<svg width="512" height="512" viewBox="0 0 512 512" fill="none" xmlns="http://www.w3.org/2000/svg">
<g clip-path="url(#clip0_32_2)">
<path d="M256.09 512.181C397.525 512.181 512.181 397.525 512.181 256.09C512.181 114.656 397.525 0 256.09 0C114.656 0 0 114.656 0 256.09C0 397.525 114.656 512.181 256.09 512.181Z" fill="url(#paint0_linear_32_2)"/>
<path fill-rule="evenodd" clip-rule="evenodd" d="M392.72 338.502H119.28C109.701 338.502 101.749 330.731 101.749 321.152V136.81C101.749 127.051 109.701 119.28 119.28 119.28H392.72C402.479 119.28 410.251 127.051 410.251 136.81V321.152C410.251 330.731 402.479 338.502 392.72 338.502ZM119.28 127.774C114.4 127.774 110.244 131.931 110.244 136.81V321.152C110.244 326.032 114.4 330.188 119.28 330.188H392.72C397.6 330.188 401.756 326.032 401.756 321.152V136.81C401.756 131.931 397.6 127.774 392.72 127.774H119.28Z" fill="white"/>
<path fill-rule="evenodd" clip-rule="evenodd" d="M290.971 392.72C288.802 392.72 286.995 391.274 286.814 389.106L279.585 334.887C279.223 332.538 280.85 330.369 283.199 330.188C285.549 329.827 287.718 331.454 287.898 333.803L295.127 388.021C295.489 390.19 293.862 392.359 291.513 392.72C291.332 392.72 291.151 392.72 290.971 392.72ZM221.029 392.72C220.849 392.72 220.668 392.72 220.487 392.72C218.318 392.359 216.692 390.371 216.873 388.021L224.102 333.803C224.463 331.454 226.632 329.827 228.981 330.188C231.15 330.369 232.777 332.538 232.596 334.887L225.367 389.106C225.005 391.274 223.198 392.72 221.029 392.72Z" fill="white"/>
<path fill-rule="evenodd" clip-rule="evenodd" d="M322.959 392.72H189.221C186.872 392.72 184.884 390.913 184.884 388.563C184.884 386.214 186.872 384.407 189.221 384.407H322.959C325.309 384.407 327.116 386.214 327.116 388.563C327.116 390.913 325.309 392.72 322.959 392.72Z" fill="white"/>
<path fill-rule="evenodd" clip-rule="evenodd" d="M406.094 304.887H106.087C103.737 304.887 101.749 302.899 101.749 300.549C101.749 298.2 103.737 296.392 106.087 296.392H406.094C408.443 296.392 410.251 298.2 410.251 300.549C410.251 302.899 408.443 304.887 406.094 304.887Z" fill="white"/>
<path fill-rule="evenodd" clip-rule="evenodd" d="M388.021 275.97H124.16C121.81 275.97 119.822 273.982 119.822 271.633C119.822 269.283 121.81 267.476 124.16 267.476H388.021C390.371 267.476 392.178 269.283 392.178 271.633C392.178 273.982 390.371 275.97 388.021 275.97Z" fill="white"/>
<path fill-rule="evenodd" clip-rule="evenodd" d="M164.462 275.97C162.112 275.97 160.305 273.982 160.305 271.633V155.425H144.04V271.633C144.04 273.982 142.052 275.97 139.702 275.97C137.353 275.97 135.545 273.982 135.545 271.633V151.269C135.545 148.919 137.353 146.931 139.702 146.931H164.462C166.811 146.931 168.618 148.919 168.618 151.269V271.633C168.618 273.982 166.811 275.97 164.462 275.97Z" fill="white"/>
<path fill-rule="evenodd" clip-rule="evenodd" d="M164.462 255.367H139.702C137.353 255.367 135.545 253.56 135.545 251.211C135.545 248.861 137.353 247.054 139.702 247.054H164.462C166.811 247.054 168.618 248.861 168.618 251.211C168.618 253.56 166.811 255.367 164.462 255.367Z" fill="white"/>
<path fill-rule="evenodd" clip-rule="evenodd" d="M151.811 228.981C149.461 228.981 147.654 226.993 147.654 224.644V177.655C147.654 175.305 149.461 173.498 151.811 173.498C154.16 173.498 155.968 175.305 155.968 177.655V224.644C155.968 226.993 154.16 228.981 151.811 228.981Z" fill="white"/>
<path fill-rule="evenodd" clip-rule="evenodd" d="M206.029 275.97C203.679 275.97 201.872 273.982 201.872 271.633V192.113H185.607V271.633C185.607 273.982 183.619 275.97 181.269 275.97C178.92 275.97 177.113 273.982 177.113 271.633V187.956C177.113 185.607 178.92 183.8 181.269 183.8H206.029C208.378 183.8 210.186 185.607 210.186 187.956V271.633C210.186 273.982 208.378 275.97 206.029 275.97Z" fill="white"/>
<path fill-rule="evenodd" clip-rule="evenodd" d="M206.029 210.186H181.269C178.92 210.186 177.113 208.378 177.113 206.029C177.113 203.679 178.92 201.872 181.269 201.872H206.029C208.378 201.872 210.186 203.679 210.186 206.029C210.186 208.378 208.378 210.186 206.029 210.186Z" fill="white"/>
<path fill-rule="evenodd" clip-rule="evenodd" d="M193.378 255.368C191.029 255.368 189.221 253.56 189.221 251.211V226.451C189.221 224.102 191.029 222.294 193.378 222.294C195.728 222.294 197.535 224.102 197.535 226.451V251.211C197.535 253.56 195.728 255.368 193.378 255.368Z" fill="white"/>
<path fill-rule="evenodd" clip-rule="evenodd" d="M247.596 275.97C245.247 275.97 243.439 273.982 243.439 271.633V172.956H227.174V271.633C227.174 273.982 225.186 275.97 222.837 275.97C220.487 275.97 218.68 273.982 218.68 271.633V168.618C218.68 166.269 220.487 164.462 222.837 164.462H247.596C249.946 164.462 251.753 166.269 251.753 168.618V271.633C251.753 273.982 249.946 275.97 247.596 275.97Z" fill="white"/>
<path fill-rule="evenodd" clip-rule="evenodd" d="M247.596 256.632H222.837C220.487 256.632 218.68 254.825 218.68 252.476C218.68 250.126 220.487 248.138 222.837 248.138H247.596C249.946 248.138 251.753 250.126 251.753 252.476C251.753 254.825 249.946 256.632 247.596 256.632Z" fill="white"/>
<path fill-rule="evenodd" clip-rule="evenodd" d="M234.945 221.029C232.596 221.029 230.789 219.222 230.789 216.873V192.113C230.789 189.763 232.596 187.956 234.945 187.956C237.295 187.956 239.102 189.763 239.102 192.113V216.873C239.102 219.222 237.295 221.029 234.945 221.029Z" fill="white"/>
<path fill-rule="evenodd" clip-rule="evenodd" d="M289.163 275.97C286.814 275.97 285.007 273.982 285.007 271.633V160.305H268.741V271.633C268.741 273.982 266.753 275.97 264.404 275.97C262.054 275.97 260.247 273.982 260.247 271.633V155.968C260.247 153.618 262.054 151.811 264.404 151.811H289.163C291.513 151.811 293.32 153.618 293.32 155.968V271.633C293.32 273.982 291.513 275.97 289.163 275.97Z" fill="white"/>
<path fill-rule="evenodd" clip-rule="evenodd" d="M289.163 179.462H264.404C262.054 179.462 260.247 177.655 260.247 175.305C260.247 172.956 262.054 171.149 264.404 171.149H289.163C291.513 171.149 293.32 172.956 293.32 175.305C293.32 177.655 291.513 179.462 289.163 179.462Z" fill="white"/>
<path fill-rule="evenodd" clip-rule="evenodd" d="M276.513 252.476C274.163 252.476 272.356 250.488 272.356 248.138V198.8C272.356 196.45 274.163 194.643 276.513 194.643C278.862 194.643 280.669 196.45 280.669 198.8V248.138C280.669 250.488 278.862 252.476 276.513 252.476Z" fill="white"/>
<path fill-rule="evenodd" clip-rule="evenodd" d="M330.731 275.97C328.381 275.97 326.574 273.982 326.574 271.633V200.065H310.309V271.633C310.309 273.982 308.321 275.97 305.971 275.97C303.622 275.97 301.814 273.982 301.814 271.633V195.728C301.814 193.378 303.622 191.571 305.971 191.571H330.731C333.08 191.571 334.887 193.378 334.887 195.728V271.633C334.887 273.982 333.08 275.97 330.731 275.97Z" fill="white"/>
<path fill-rule="evenodd" clip-rule="evenodd" d="M330.731 262.054H305.971C303.622 262.054 301.814 260.247 301.814 257.898C301.814 255.548 303.622 253.56 305.971 253.56H330.731C333.08 253.56 334.887 255.548 334.887 257.898C334.887 260.247 333.08 262.054 330.731 262.054Z" fill="white"/>
<path fill-rule="evenodd" clip-rule="evenodd" d="M318.08 238.56C315.73 238.56 313.923 236.753 313.923 234.403V219.222C313.923 216.873 315.73 215.065 318.08 215.065C320.429 215.065 322.236 216.873 322.236 219.222V234.403C322.236 236.753 320.429 238.56 318.08 238.56Z" fill="white"/>
<path fill-rule="evenodd" clip-rule="evenodd" d="M372.298 275.97C369.948 275.97 368.141 273.982 368.141 271.633V172.956H351.876V271.633C351.876 273.982 349.888 275.97 347.538 275.97C345.189 275.97 343.382 273.982 343.382 271.633V168.618C343.382 166.269 345.189 164.462 347.538 164.462H372.298C374.647 164.462 376.455 166.269 376.455 168.618V271.633C376.455 273.982 374.647 275.97 372.298 275.97Z" fill="white"/>
<path fill-rule="evenodd" clip-rule="evenodd" d="M372.298 192.113H347.538C345.189 192.113 343.382 190.306 343.382 187.956C343.382 185.607 345.189 183.8 347.538 183.8H372.298C374.647 183.8 376.455 185.607 376.455 187.956C376.455 190.306 374.647 192.113 372.298 192.113Z" fill="white"/>
<path fill-rule="evenodd" clip-rule="evenodd" d="M360.189 246.331C357.84 246.331 356.032 244.524 356.032 242.174V217.415C356.032 215.065 357.84 213.258 360.189 213.258C362.539 213.258 364.527 215.065 364.527 217.415V242.174C364.527 244.524 362.539 246.331 360.189 246.331Z" fill="white"/>
</g>
<defs>
<linearGradient id="paint0_linear_32_2" x1="256.031" y1="512.06" x2="256.031" y2="0" gradientUnits="userSpaceOnUse">
<stop stop-color="#1AA8DC"/>
<stop offset="0.490196" stop-color="#AE3B89"/>
<stop offset="1" stop-color="#F26270"/>
</linearGradient>
<clipPath id="clip0_32_2">
<rect width="512" height="512" fill="white"/>
</clipPath>
</defs>
</svg>
