<svg id="svg8" height="512" viewBox="0 0 26 28" width="512" xmlns="http://www.w3.org/2000/svg" xmlns:xlink="http://www.w3.org/1999/xlink" xmlns:svg="http://www.w3.org/2000/svg"><linearGradient id="linearGradient455997" gradientUnits="userSpaceOnUse" x1="2.05" x2="29.95" y1="2.05" y2="29.95"><stop id="stop430917" offset="0" stop-color="#00d8ff"/><stop id="stop430919" offset="1" stop-color="#00f"/></linearGradient><g id="layer2" transform="translate(-3 -162)"><g id="g11009" fill="url(#linearGradient455997)" transform="translate(0 160)"><path id="path195111" d="m10 2c-2.7526861 0-5 2.2473141-5 5v1h-1a1 1 0 0 0 -1 1 1 1 0 0 0 1 1h4a1 1 0 0 0 .8613281-.5058594 1 1 0 0 1 .1386719.5058594 1 1 0 0 1 -1 1h-3v3.974609h-1a1 1 0 0 0 -1 1 1 1 0 0 0 1 1h4a1 1 0 0 0 .8613281-.505859 1 1 0 0 1 .1386719.505859 1 1 0 0 1 -1 1h-3v4.025391h-1a1 1 0 0 0 -1 1 1 1 0 0 0 1 1h4a1 1 0 0 0 .8613281-.505859 1 1 0 0 1 .1386719.505859 1 1 0 0 1 -1 1h-3c0 2.752685 2.2473139 5 5 5h14c2.752685 0 5-2.247315 5-5v-18c0-2.7526859-2.247315-5-5-5zm8 5c2.19728 0 4 1.802721 4 4 0 2.19728-1.80272 4-4 4s-4-1.80272-4-4c0-2.197279 1.80272-4 4-4zm0 9c3.306677 0 6 2.693323 6 6v1c.000003.552282-.447718 1.000003-1 1-.552282.000003-1.000003-.447718-1-1v-1c0-2.233281-1.766719-4-4-4s-4 1.766719-4 4v1c.000003.552282-.447718 1.000003-1 1-.552282.000003-1.000003-.447718-1-1v-1c0-3.306677 2.693323-6 6-6z" fill="url(#linearGradient455997)" stroke-linecap="round" stroke-linejoin="round"/></g></g></svg>