<svg width="106" height="106" viewBox="0 0 106 106" fill="none" xmlns="http://www.w3.org/2000/svg">
<rect x="0.0957031" y="0.917969" width="105" height="105" rx="52.5" fill="url(#paint0_linear_1351_767)"/>
<path d="M68.4589 52.8679C67.8886 52.8484 67.3204 52.9484 66.791 53.1615C66.2615 53.3746 65.7825 53.696 65.3847 54.1052L61.7595 51.4487C62.0507 50.7981 62.1735 50.0846 62.1165 49.3741C62.0594 48.6635 61.8245 47.9787 61.4333 47.3829C61.0421 46.787 60.5072 46.2991 59.8779 45.9643C59.2486 45.6295 58.5451 45.4585 57.8324 45.467C57.1196 45.4755 56.4204 45.6632 55.7993 46.013C55.1781 46.3627 54.655 46.8632 54.2781 47.4682C53.9013 48.0733 53.6827 48.7635 53.6427 49.4752C53.6027 50.1869 53.7424 50.8972 54.0491 51.5407L50.4535 54.1729C49.6321 53.3407 48.5147 52.8676 47.3456 52.8569C46.1764 52.8462 45.0505 53.2988 44.2141 54.1158L40.5941 51.4624C40.898 50.8172 41.0328 50.1052 40.9858 49.3935C40.9388 48.6817 40.7116 47.9937 40.3254 47.3939C39.9393 46.7942 39.4071 46.3025 38.7786 45.9651C38.1502 45.6277 37.4463 45.4557 36.7331 45.4652C31.1102 45.4652 31.0775 53.9254 36.7331 53.9254C37.6561 53.9498 38.5623 53.6753 39.3167 53.1429L43.2295 56.0077C43.0613 56.6311 43.0381 57.2847 43.1615 57.9185C43.285 58.5522 43.5519 59.1493 43.9418 59.664C44.3317 60.1787 44.8343 60.5973 45.4109 60.8877C45.9876 61.1781 46.6231 61.3326 47.2688 61.3395C47.9144 61.3463 48.5531 61.2053 49.1358 60.9271C49.7185 60.649 50.2298 60.2411 50.6305 59.7348C51.0312 59.2285 51.3107 58.6372 51.4476 58.0062C51.5844 57.3752 51.575 56.7212 51.4201 56.0944L55.3784 53.1852C56.138 53.6835 57.0289 53.9442 57.9373 53.9341C58.8457 53.9239 59.7306 53.6433 60.4788 53.128L64.38 55.9834C64.1882 56.6118 64.1487 57.2768 64.2649 57.9235C64.3811 58.5702 64.6496 59.1799 65.0482 59.7023C65.4468 60.2246 65.9641 60.6445 66.5572 60.9272C67.1503 61.2099 67.8022 61.3473 68.4589 61.3281C74.1125 61.3281 74.086 52.8679 68.4589 52.8679ZM36.7331 51.8104C36.1722 51.8104 35.6342 51.5875 35.2375 51.1909C34.8409 50.7942 34.6181 50.2563 34.6181 49.6953C34.6181 49.1344 34.8409 48.5964 35.2375 48.1998C35.6342 47.8031 36.1722 47.5803 36.7331 47.5803C37.2941 47.5803 37.832 47.8031 38.2287 48.1998C38.6253 48.5964 38.8482 49.1344 38.8482 49.6953C38.8482 50.2563 38.6253 50.7942 38.2287 51.1909C37.832 51.5875 37.2941 51.8104 36.7331 51.8104ZM47.3084 59.2131C46.7474 59.2131 46.2095 58.9902 45.8128 58.5936C45.4162 58.1969 45.1933 57.659 45.1933 57.098C45.1933 56.5371 45.4162 55.9991 45.8128 55.6024C46.2095 55.2058 46.7474 54.983 47.3084 54.983C47.8693 54.983 48.4073 55.2058 48.804 55.6024C49.2006 55.9991 49.4234 56.5371 49.4234 57.098C49.4234 57.659 49.2006 58.1969 48.804 58.5936C48.4073 58.9902 47.8693 59.2131 47.3084 59.2131ZM57.8837 51.8104C57.3227 51.8104 56.7847 51.5875 56.3881 51.1909C55.9914 50.7942 55.7686 50.2563 55.7686 49.6953C55.7686 49.1344 55.9914 48.5964 56.3881 48.1998C56.7847 47.8031 57.3227 47.5803 57.8837 47.5803C58.4446 47.5803 58.9826 47.8031 59.3792 48.1998C59.7759 48.5964 59.9987 49.1344 59.9987 49.6953C59.9987 50.2563 59.7759 50.7942 59.3792 51.1909C58.9826 51.5875 58.4446 51.8104 57.8837 51.8104ZM68.4589 59.2131C67.898 59.2131 67.36 58.9902 66.9634 58.5936C66.5667 58.1969 66.3439 57.659 66.3439 57.098C66.3439 56.5371 66.5667 55.9991 66.9634 55.6024C67.36 55.2058 67.898 54.983 68.4589 54.983C69.0199 54.983 69.5578 55.2058 69.9545 55.6024C70.3511 55.9991 70.574 56.5371 70.574 57.098C70.574 57.659 70.3511 58.1969 69.9545 58.5936C69.5578 58.9902 69.0199 59.2131 68.4589 59.2131ZM52.596 85.1225C47.5004 85.117 42.4807 83.8863 37.9604 81.5341C33.4402 79.182 29.5518 75.7773 26.6232 71.6073C26.5387 71.4872 26.4803 71.3508 26.4514 71.2069C26.4226 71.063 26.424 70.9146 26.4557 70.7713C26.4873 70.6279 26.5484 70.4927 26.6352 70.3743C26.7219 70.2559 26.8323 70.1568 26.9595 70.0834L33.3977 66.3662C33.622 66.2372 33.8857 66.195 34.1391 66.2474C34.3924 66.2998 34.6178 66.4433 34.7725 66.6506C36.8922 69.5015 39.6649 71.8021 42.8579 73.3596C46.0508 74.917 49.5708 75.6857 53.1223 75.6011C56.6738 75.5166 60.1533 74.5813 63.2685 72.8737C66.3837 71.1661 69.0438 68.7361 71.0255 65.7877C71.1751 65.5653 71.4035 65.408 71.6646 65.3475C71.9257 65.287 72.2 65.3279 72.4321 65.462L78.8481 69.1633C78.9724 69.2352 79.0807 69.3315 79.1666 69.4466C79.2524 69.5617 79.3139 69.693 79.3474 69.8326C79.3808 69.9722 79.3855 70.1172 79.3611 70.2587C79.3367 70.4001 79.2838 70.5351 79.2055 70.6555C76.3335 75.0995 72.3929 78.7523 67.7442 81.2797C63.0956 83.8071 57.8873 85.1283 52.596 85.1225ZM29.0386 71.3249C31.8561 75.0312 35.5084 78.0205 39.6985 80.0499C43.8886 82.0793 48.4985 83.0915 53.1533 83.0042C57.8082 82.9169 62.3769 81.7326 66.488 79.5476C70.5991 77.3626 74.1367 74.2385 76.8134 70.4292L72.2153 67.779C70.0119 70.7853 67.1471 73.245 63.8421 74.9681C60.5371 76.6913 56.8803 77.6319 53.154 77.7172C49.4278 77.8025 45.7317 77.0304 42.3513 75.4603C38.9709 73.8902 35.9965 71.5643 33.6578 68.6621L29.0386 71.3249ZM79.3768 68.2517L72.9587 64.5504C72.726 64.4167 72.5527 64.1995 72.4742 63.9429C72.3956 63.6862 72.4176 63.4093 72.5357 63.1682C74.0348 60.1294 74.8111 56.7851 74.8041 53.3967C74.7886 47.7848 72.6548 42.3858 68.8294 38.2797C65.0041 34.1736 59.7695 31.6633 54.1728 31.251C53.9053 31.2322 53.655 31.1126 53.4724 30.9162C53.2898 30.7199 53.1886 30.4616 53.1893 30.1935V22.7739C53.1891 22.6301 53.2182 22.4879 53.2748 22.3558C53.3314 22.2237 53.4144 22.1045 53.5186 22.0055C53.6228 21.9066 53.7461 21.8299 53.8809 21.7802C54.0158 21.7304 54.1593 21.7087 54.3029 21.7163C62.4114 22.1491 70.0448 25.676 75.6299 31.5702C81.215 37.4644 84.3261 45.2766 84.3218 53.3967C84.3343 58.4116 83.1448 63.3564 80.8531 67.8171C80.7889 67.9459 80.6989 68.0601 80.5886 68.1525C80.4784 68.245 80.3502 68.3137 80.2122 68.3545C80.0742 68.3953 79.9293 68.4072 79.7865 68.3895C79.6437 68.3718 79.506 68.3249 79.3821 68.2517H79.3768ZM74.8549 63.1978L79.4572 65.8522C81.2788 61.9532 82.2176 57.7002 82.2068 53.3967C82.2107 46.0111 79.4529 38.8909 74.4751 33.4349C69.4973 27.9789 62.6593 24.5813 55.3043 23.9096V29.2301C61.2422 29.9107 66.7235 32.7477 70.7079 37.2025C74.6923 41.6573 76.9026 47.42 76.9191 53.3967C76.9276 56.7719 76.2261 60.1113 74.8601 63.1978H74.8549ZM32.7568 41.3324L26.3408 37.6311C26.2165 37.5592 26.1081 37.4628 26.0223 37.3478C25.9364 37.2327 25.8749 37.1014 25.8415 36.9618C25.808 36.8222 25.8034 36.6772 25.8278 36.5357C25.8522 36.3943 25.9051 36.2592 25.9834 36.1389C28.7225 31.9297 32.4194 28.4289 36.7714 25.9228C41.1234 23.4168 46.007 21.9768 51.0224 21.7206C51.1656 21.7135 51.3087 21.7357 51.4431 21.7857C51.5774 21.8357 51.7002 21.9125 51.8039 22.0114C51.9077 22.1103 51.9903 22.2292 52.0466 22.3611C52.103 22.4929 52.1319 22.6347 52.1318 22.7781V30.1808C52.1323 30.4499 52.0302 30.7091 51.8463 30.9056C51.6624 31.1021 51.4105 31.2211 51.1419 31.2383C47.7507 31.4487 44.4538 32.4398 41.5087 34.1342C38.5636 35.8287 36.0497 38.1806 34.1633 41.0067C34.0138 41.2291 33.7854 41.3864 33.5243 41.4469C33.2632 41.5074 32.9889 41.4664 32.7568 41.3324ZM28.3787 36.3641L32.9768 39.0143C34.9697 36.2754 37.517 33.9868 40.4528 32.2974C43.3886 30.608 46.6473 29.5557 50.0167 29.2089V23.9086C45.7221 24.2896 41.5619 25.6012 37.8252 27.7521C34.0886 29.903 30.8651 32.8418 28.3787 36.3641ZM24.873 68.8302C22.2476 64.1099 20.8699 58.7979 20.8702 53.3967C20.8578 48.3818 22.0472 43.4369 24.3389 38.9762C24.4058 38.85 24.4973 38.7384 24.6079 38.648C24.7185 38.5576 24.846 38.4902 24.9831 38.4497C25.1201 38.4092 25.2638 38.3965 25.4058 38.4123C25.5477 38.4281 25.6851 38.472 25.8099 38.5416L32.2281 42.2429C32.4608 42.3766 32.634 42.5938 32.7126 42.8505C32.7911 43.1071 32.7691 43.3841 32.6511 43.6251C31.1538 46.6644 30.3793 50.0086 30.388 53.3967C30.3887 57.139 31.3345 60.8205 33.1375 64.0999C33.2712 64.3424 33.3045 64.6277 33.2301 64.8944C33.1558 65.1612 32.9798 65.3881 32.7399 65.5265L26.3292 69.2278C26.2077 69.298 26.0735 69.3434 25.9344 69.3612C25.7952 69.3791 25.6539 69.369 25.5187 69.3317C25.3835 69.2944 25.257 69.2306 25.1467 69.1439C25.0364 69.0573 24.9444 68.9496 24.8761 68.827L24.873 68.8302ZM25.7348 40.9411C23.9133 44.8402 22.9744 49.0931 22.9853 53.3967C22.9865 58.0731 24.0939 62.6828 26.2171 66.8495L30.8025 64.2056C29.1387 60.8454 28.273 57.1463 28.2729 53.3967C28.2644 50.0214 28.9659 46.682 30.3319 43.5955L25.7348 40.9411Z" fill="white"/>
<defs>
<linearGradient id="paint0_linear_1351_767" x1="98.0285" y1="105.918" x2="16.8324" y2="10.3466" gradientUnits="userSpaceOnUse">
<stop stop-color="#0276FF"/>
<stop offset="1" stop-color="#15C1DF"/>
</linearGradient>
</defs>
</svg>
