<svg width="106" height="106" viewBox="0 0 106 106" fill="none" xmlns="http://www.w3.org/2000/svg">
<rect x="0.0957031" y="0.917969" width="105" height="105" rx="52.5" fill="url(#paint0_linear_1351_768)"/>
<path d="M75.4028 78.8318V28.0038C75.4028 27.8637 75.3463 27.7311 75.248 27.6328C75.1498 27.5345 75.0171 27.4805 74.8771 27.4805H35.149C32.1885 27.4878 29.793 29.8858 29.7881 32.8463V73.9895C29.793 76.9501 32.1885 79.348 35.149 79.3554H74.872C75.0121 79.3578 75.1472 79.3038 75.2455 79.2055C75.3462 79.1072 75.4028 78.9719 75.4028 78.8318ZM30.8519 32.8462H30.8494C30.8494 30.667 32.4759 28.8316 34.6379 28.5663V64.1104C34.6379 64.4003 34.8713 64.6337 35.1613 64.6337C35.4512 64.6337 35.6846 64.4003 35.6846 64.1104V28.5222H74.339V68.6189H35.1487C33.4436 68.6189 31.8417 69.4346 30.8368 70.8129L30.8519 32.8462ZM35.149 78.3136C32.7633 78.3136 30.8297 76.3824 30.8297 73.9968C30.8297 71.6111 32.7633 69.68 35.149 69.68H74.3537V73.466H36.4119C36.1245 73.466 35.8886 73.7019 35.8886 73.9894C35.8886 74.2793 36.1245 74.5151 36.4119 74.5151H74.3537V78.3135L35.149 78.3136ZM42.0406 50.3837C42.6278 50.3812 43.1535 50.7498 43.3501 51.3025C43.4803 51.6637 43.6326 52.0297 43.7948 52.3762H43.7972C44.0454 52.9069 43.9348 53.5359 43.522 53.9486C42.5688 54.9019 42.5688 56.4473 43.522 57.4005L44.5122 58.3833H44.5097C45.463 59.3366 47.006 59.3366 47.9568 58.3833C48.3744 57.9705 49.0059 57.8649 49.5365 58.1155C49.883 58.2801 50.2441 58.43 50.6102 58.5602C51.1605 58.7617 51.5266 59.285 51.5266 59.8722C51.5315 61.2161 52.6199 62.3045 53.9638 62.3094H55.3594C56.7057 62.3045 57.7942 61.2161 57.7966 59.8722C57.7942 59.285 58.1627 58.7592 58.7155 58.5602C59.0816 58.43 59.4427 58.2777 59.7891 58.1155C60.3198 57.8649 60.9513 57.9705 61.3689 58.3833C62.332 59.3071 63.8504 59.3071 64.8135 58.3833L65.8036 57.4005C66.7569 56.4473 66.7569 54.9019 65.8036 53.9486C65.3958 53.5309 65.2877 52.9044 65.5358 52.3762C65.7004 52.0298 65.8503 51.6612 65.9805 51.3025C66.1771 50.7497 66.7028 50.3812 67.29 50.3837C68.6388 50.3812 69.7273 49.2879 69.7273 47.9415V46.5509C69.7273 45.2046 68.6388 44.1112 67.29 44.1088C66.7028 44.1112 66.1771 43.7427 65.9805 43.1899C65.8503 42.8288 65.698 42.4627 65.5358 42.1163C65.2852 41.5856 65.3958 40.9566 65.811 40.5439C66.7593 39.5882 66.7593 38.0476 65.811 37.0919L64.8209 36.1092C63.8701 35.1559 62.3271 35.1559 61.3738 36.1092C60.9611 36.5219 60.3321 36.6325 59.8014 36.3843C59.455 36.2197 59.0938 36.0698 58.7278 35.9396V35.9372C58.175 35.7406 57.8065 35.2149 57.8114 34.6277C57.8064 33.2837 56.718 32.1929 55.3741 32.1904H53.9589C52.6126 32.1929 51.5241 33.2837 51.5217 34.6277C51.5217 35.2149 51.1532 35.7382 50.6028 35.9372C50.2368 36.0674 49.8756 36.2197 49.5292 36.3819V36.3843C48.9985 36.6349 48.367 36.5268 47.9494 36.1141C46.9986 35.1633 45.4557 35.1633 44.5048 36.1141L43.5147 37.0968C42.5663 38.0525 42.5663 39.5955 43.5147 40.5512C43.9275 40.964 44.038 41.5929 43.7899 42.1236C43.6253 42.4701 43.4754 42.8386 43.3452 43.1973C43.1462 43.7501 42.6204 44.1186 42.0332 44.1137C40.6844 44.1137 39.5911 45.2095 39.5911 46.5583V47.9464C39.5911 48.595 39.8515 49.2166 40.3109 49.6736C40.7703 50.1306 41.392 50.3861 42.0406 50.3837ZM40.645 46.5509C40.6475 45.7818 41.2715 45.1603 42.0406 45.1553C43.0675 45.1553 43.9815 44.5092 44.3279 43.5436C44.4532 43.2095 44.5908 42.8876 44.7333 42.5608C45.1731 41.6346 44.9815 40.529 44.2542 39.8042C43.9938 39.5438 43.8488 39.19 43.8488 38.8214C43.8488 38.4505 43.9938 38.0942 44.2542 37.8313L45.2443 36.8486C45.5048 36.5881 45.8586 36.4407 46.2271 36.4407C46.5956 36.4407 46.9494 36.5881 47.2099 36.8486C47.9371 37.5758 49.0452 37.7674 49.9738 37.3277C50.2957 37.1729 50.6224 37.0377 50.9566 36.9198C51.9345 36.5808 52.5905 35.6619 52.5954 34.6275C52.5954 33.861 53.217 33.2394 53.9835 33.2394H55.3791C56.1481 33.2394 56.7696 33.861 56.7696 34.6275C56.7696 35.6545 57.4158 36.5709 58.3814 36.9198C58.7155 37.0377 59.0374 37.1753 59.3641 37.3252V37.3277C60.2929 37.7674 61.4009 37.5758 62.1281 36.8486C62.6785 36.3252 63.5433 36.3252 64.0936 36.8486L65.0764 37.8313C65.6169 38.3743 65.6169 39.2539 65.0764 39.7968C64.3541 40.5266 64.1624 41.6322 64.5973 42.5608C64.7521 42.8802 64.8872 43.2045 65.0051 43.5387C65.3565 44.5018 66.2704 45.1455 67.2974 45.1504C68.0665 45.1529 68.6855 45.7769 68.6855 46.546V47.9341C68.6855 48.7031 68.0664 49.3271 67.2974 49.3296C66.2704 49.3346 65.3565 49.9758 65.0051 50.9414C64.8872 51.2755 64.7496 51.5974 64.5998 51.9241H64.5973C64.1501 52.848 64.327 53.9536 65.0445 54.6881C65.5825 55.2336 65.5825 56.1107 65.0445 56.6536L64.0617 57.6364C63.8013 57.8993 63.4475 58.0443 63.0789 58.0443C62.7104 58.0443 62.3566 57.8993 62.0962 57.6364C61.3665 56.9092 60.2609 56.7176 59.3297 57.1598C59.0079 57.3096 58.6737 57.4472 58.347 57.5652C57.3814 57.914 56.7377 58.8305 56.7352 59.8574C56.7451 60.2309 56.6026 60.5921 56.3421 60.8599C56.0842 61.1277 55.7255 61.2775 55.3545 61.28H53.9589C53.5904 61.2726 53.2391 61.1203 52.9835 60.855C52.728 60.5896 52.588 60.2334 52.5953 59.8648C52.5929 58.8379 51.9492 57.9215 50.9836 57.5726C50.6495 57.4546 50.3202 57.3195 50.0008 57.1647C49.0721 56.7225 47.9641 56.9141 47.2369 57.6438C46.684 58.1671 45.8217 58.1671 45.2713 57.6438L44.2542 56.693C43.9937 56.4301 43.8488 56.0739 43.8488 55.7053C43.8488 55.3368 43.9937 54.983 44.2542 54.7226C44.9962 53.9904 45.1878 52.8676 44.7333 51.9315C44.5834 51.6097 44.4507 51.2755 44.3279 50.9488C43.9815 49.9832 43.0675 49.3371 42.0405 49.3371C41.2715 49.3321 40.6475 48.7106 40.645 47.9415L40.645 46.5509ZM47.158 47.2462C47.1653 44.8679 48.2931 42.6297 50.2045 41.212C50.4281 41.0499 50.7377 41.0867 50.917 41.298L53.2044 44.0301C53.3395 44.2537 53.2904 44.5436 53.0865 44.7082C52.885 44.8728 52.5902 44.863 52.3985 44.6836L50.433 42.3446C48.3937 44.1038 47.6641 46.9464 48.6001 49.4696C49.5387 51.9952 51.9464 53.6709 54.6392 53.6733C54.9291 53.6733 55.1625 53.9092 55.1625 54.1966C55.1625 54.4866 54.9291 54.7224 54.6392 54.7224C50.5165 54.7077 47.1756 51.3691 47.158 47.2462ZM54.1282 40.276C54.1282 39.9861 54.364 39.7502 54.6515 39.7502C57.7079 39.7428 60.4645 41.5904 61.6167 44.4208C62.7688 47.2511 62.0859 50.4967 59.8944 52.6244C59.7961 52.7227 59.6634 52.7767 59.5258 52.7767C59.3809 52.7644 59.2457 52.6932 59.1524 52.5802L56.5849 49.4869C56.4965 49.3813 56.4547 49.2437 56.467 49.1061C56.4817 48.9661 56.5481 48.8408 56.6562 48.7523C56.8822 48.5705 57.2114 48.6024 57.3982 48.826L59.5406 51.4475V51.4451C60.5553 50.283 61.113 48.7892 61.113 47.2462C61.1081 43.6862 58.2236 40.8018 54.6661 40.7993C54.5236 40.8018 54.3884 40.7502 54.2852 40.6495C54.1845 40.5512 54.1282 40.416 54.1282 40.276Z" fill="white" stroke="white" stroke-width="0.883449"/>
<defs>
<linearGradient id="paint0_linear_1351_768" x1="98.0285" y1="105.918" x2="16.8324" y2="10.3466" gradientUnits="userSpaceOnUse">
<stop stop-color="#0276FF"/>
<stop offset="1" stop-color="#15C1DF"/>
</linearGradient>
</defs>
</svg>
