<svg width="106" height="106" viewBox="0 0 106 106" fill="none" xmlns="http://www.w3.org/2000/svg">
<rect x="0.0957031" y="0.917969" width="105" height="105" rx="52.5" fill="url(#paint0_linear_1351_766)"/>
<path d="M82.9575 34.9415C81.9348 31.3305 76.5401 30.9296 75.07 34.4287C74.17 36.0978 74.47 39.4906 74.4264 41.4052V41.4079C74.4345 42.0025 74.9227 42.4825 75.5173 42.4825C76.1146 42.4825 76.6 42.0025 76.6082 41.4052C76.6709 39.9052 76.3546 36.6706 77.061 35.3151L77.0637 35.3178C77.4264 34.5541 78.22 34.0933 79.0628 34.1532C79.9055 34.2132 80.6229 34.7832 80.8738 35.5905C83.2111 43.0989 81.3102 54.0787 81.2829 54.2372C80.4074 60.9955 69.7627 66.7258 68.9933 67.1321C66.5196 68.0894 65.5105 71.0131 65.7778 73.5741H57.2493C57.3611 70.9177 56.892 63.9739 57.7566 61.5959H57.7593C58.913 57.8813 61.8585 54.993 65.5952 53.9129C68.5325 53.0893 71.0689 50.1902 72.3234 48.5347C73.3544 47.1874 75.6835 45.4692 77.129 46.9038C77.5135 47.332 77.6553 47.9238 77.5081 48.4802C75.6181 55.5005 68.6606 58.8057 68.59 58.8386H68.5928C68.1346 59.0595 67.8891 59.5641 68.0009 60.0604C68.11 60.554 68.5437 60.9086 69.051 60.9168C69.741 60.8732 77.2903 57.2676 79.6167 49.0447C80.4813 45.371 76.7094 43.0255 73.5266 44.7792C70.1938 46.2956 69.2638 50.422 65.047 51.7995C62.486 52.2386 54.7731 56.5641 55.0677 65.4255V73.6648L55.0705 73.6676C54.1322 73.9321 53.4832 74.7831 53.4805 75.7567V79.4849C53.4832 80.6877 54.4568 81.664 55.6623 81.664H67.3571C68.5598 81.664 69.5362 80.6877 69.5362 79.4849V75.7567C69.5335 74.7885 68.8898 73.9376 67.9598 73.6703C67.9407 72.5248 67.878 71.0275 68.6171 70.1493C68.9444 69.672 69.408 69.3066 69.948 69.0966C70.4553 68.8375 82.3954 62.6301 83.4399 54.5679C83.5244 54.1015 85.4554 42.9632 82.9572 34.9423L82.9575 34.9415ZM55.6623 79.4841V75.7559H67.3571V79.4841H55.6623Z" fill="white"/>
<path d="M50.1245 73.6638C50.0127 70.6419 50.5118 63.6901 49.5164 60.9406C48.1417 56.5224 44.6344 53.0915 40.1864 51.8124C35.5308 50.2878 34.8572 45.6023 30.7636 44.4325V37.6742C30.8754 34.7724 29.2117 31.775 26.0535 31.985V31.9823C24.2834 32.0669 22.7561 33.2505 22.2325 34.9415C19.737 42.9595 21.6679 54.0985 21.7443 54.5181C22.7943 62.629 34.7342 68.8367 35.2446 69.0957L35.2418 69.093C36.5019 69.6493 37.2928 70.923 37.2301 72.2975V73.6666C36.3001 73.9366 35.6619 74.7849 35.6564 75.753V79.4841C35.6592 80.6868 36.6355 81.6632 37.8383 81.6659H49.5302C50.7357 81.6632 51.7121 80.6868 51.7121 79.4841V75.753C51.7094 74.7794 51.0627 73.9283 50.1245 73.6638ZM49.53 79.4838H37.838V75.7528H44.7109C45.3082 75.7447 45.7855 75.2592 45.7855 74.6619C45.7855 74.0646 45.3082 73.5792 44.7109 73.571H39.4118C39.6763 71.0073 38.6699 68.0918 36.1962 67.1318C35.4271 66.7254 24.7822 60.9925 23.899 54.1852C23.8799 54.0761 21.9789 43.0957 24.3162 35.5902C24.5699 34.7638 25.3144 34.1883 26.1736 34.1474C27.0354 34.1038 27.8318 34.6056 28.1645 35.402C28.9009 36.6784 28.4755 42.7114 28.5818 44.2579C27.5291 44.4597 26.61 45.0897 26.04 45.9979C25.47 46.9034 25.3009 48.008 25.5736 49.0416C27.7364 57.0681 35.3595 60.6652 35.6835 60.8125V60.8152C36.2289 61.0552 36.8644 60.8152 37.1153 60.2752C37.3662 59.7352 37.1344 59.0943 36.5998 58.8352C36.5289 58.8024 29.5746 55.497 27.6818 48.4768V48.474C27.54 47.9449 27.6682 47.3804 28.02 46.9604C28.3718 46.5404 28.9091 46.3194 29.4546 46.3685C30.8346 46.6058 32.0619 47.3831 32.8664 48.5313C34.1046 50.1814 36.6274 53.075 39.6356 53.9233V53.9205C43.353 55.0087 46.2821 57.8833 47.4331 61.5846C48.3276 64.0037 47.8204 71.9591 47.9458 74.6345C47.9349 74.9346 48.0494 75.2236 48.2622 75.4363C48.4722 75.6464 48.7613 75.7609 49.0613 75.7527H49.5304L49.53 79.4838Z" fill="white"/>
<path d="M66.2233 45.9965V30.4129C66.2233 29.9601 65.9478 29.5537 65.5305 29.3846C65.5251 29.3246 52.9847 25.2664 52.9602 25.2255C52.7393 25.1519 52.4993 25.1519 52.2784 25.2228L39.7109 29.3574C39.2746 29.521 38.9773 29.9301 38.9609 30.3938V45.997C38.9609 46.4879 39.2882 46.9161 39.76 47.0498L48.2096 49.3926V49.3898C48.7877 49.5426 49.3796 49.2016 49.5377 48.6261C49.6986 48.0534 49.3659 47.4561 48.7932 47.287L41.1431 45.1651V31.9323L51.5259 35.5787V49.4798C51.5368 49.8179 51.6977 50.1316 51.9677 50.3362C52.235 50.5407 52.5814 50.6116 52.9087 50.5325L65.4273 47.0497C65.8991 46.9161 66.2233 46.4874 66.2233 45.9965ZM52.6169 33.6497L43.4391 30.4287L52.6169 27.4096L61.759 30.4287L52.6169 33.6497ZM64.0442 45.1671L53.7074 48.0444V35.5803L64.0442 31.9365V45.1671Z" fill="white"/>
<defs>
<linearGradient id="paint0_linear_1351_766" x1="98.0285" y1="105.918" x2="16.8324" y2="10.3466" gradientUnits="userSpaceOnUse">
<stop stop-color="#0276FF"/>
<stop offset="1" stop-color="#15C1DF"/>
</linearGradient>
</defs>
</svg>
